G75*
%MOIN*%
%OFA0B0*%
%FSLAX24Y24*%
%IPPOS*%
%LPD*%
%AMOC8*
5,1,8,0,0,1.08239X$1,22.5*
%
%ADD10C,0.2442*%
%ADD11C,0.1819*%
%ADD12R,0.0580X0.0749*%
%ADD13OC8,0.0680*%
%ADD14C,0.0651*%
%ADD15C,0.0000*%
%ADD16C,0.0001*%
%ADD17C,0.2049*%
D10*
X035692Y027956D03*
X035692Y032995D03*
D11*
X035692Y030495D03*
D12*
X040849Y052030D03*
X041558Y052030D03*
X041558Y053684D03*
X040849Y053684D03*
X040849Y008960D03*
X041558Y008960D03*
X041558Y007306D03*
X040849Y007306D03*
D13*
X039432Y018290D03*
X042975Y018290D03*
X044641Y025495D03*
X045641Y025495D03*
X045641Y026495D03*
X045641Y027495D03*
X044641Y027495D03*
X044641Y026495D03*
X044641Y028495D03*
X045641Y028495D03*
X045641Y029495D03*
X044641Y029495D03*
X044641Y030495D03*
X045641Y030495D03*
X045641Y031495D03*
X045641Y032495D03*
X044641Y032495D03*
X044641Y031495D03*
X044641Y033495D03*
X045641Y033495D03*
X045641Y034495D03*
X044641Y034495D03*
X044641Y035495D03*
X045641Y035495D03*
X042975Y042700D03*
X039432Y042700D03*
D14*
X069511Y031479D03*
X069511Y029511D03*
D15*
X070200Y029589D02*
X070200Y029078D01*
X070205Y029034D01*
X070219Y028992D01*
X070243Y028955D01*
X070274Y028924D01*
X070311Y028900D01*
X070353Y028886D01*
X070397Y028881D01*
X070751Y028881D01*
X070795Y028886D01*
X070836Y028900D01*
X070874Y028924D01*
X070905Y028955D01*
X070928Y028992D01*
X070943Y029034D01*
X070948Y029078D01*
X070948Y029589D01*
X070200Y029589D01*
X070200Y031400D02*
X070200Y031912D01*
X070205Y031956D01*
X070219Y031998D01*
X070243Y032035D01*
X070274Y032066D01*
X070311Y032090D01*
X070353Y032104D01*
X070397Y032109D01*
X070751Y032109D01*
X070795Y032104D01*
X070836Y032090D01*
X070874Y032066D01*
X070905Y032035D01*
X070928Y031998D01*
X070943Y031956D01*
X070948Y031912D01*
X070948Y031400D01*
X070200Y031400D01*
D16*
X070200Y031401D02*
X070948Y031401D01*
X070948Y031402D02*
X070200Y031402D01*
X070200Y031403D02*
X070948Y031403D01*
X070948Y031404D02*
X070200Y031404D01*
X070200Y031405D02*
X070948Y031405D01*
X070948Y031406D02*
X070200Y031406D01*
X070200Y031407D02*
X070948Y031407D01*
X070948Y031408D02*
X070200Y031408D01*
X070200Y031409D02*
X070948Y031409D01*
X070948Y031410D02*
X070200Y031410D01*
X070200Y031411D02*
X070948Y031411D01*
X070948Y031412D02*
X070200Y031412D01*
X070200Y031413D02*
X070948Y031413D01*
X070948Y031414D02*
X070200Y031414D01*
X070200Y031415D02*
X070948Y031415D01*
X070948Y031416D02*
X070200Y031416D01*
X070200Y031417D02*
X070948Y031417D01*
X070948Y031418D02*
X070200Y031418D01*
X070200Y031419D02*
X070948Y031419D01*
X070948Y031420D02*
X070200Y031420D01*
X070200Y031421D02*
X070948Y031421D01*
X070948Y031422D02*
X070200Y031422D01*
X070200Y031423D02*
X070948Y031423D01*
X070948Y031424D02*
X070200Y031424D01*
X070200Y031425D02*
X070948Y031425D01*
X070948Y031426D02*
X070200Y031426D01*
X070200Y031427D02*
X070948Y031427D01*
X070948Y031428D02*
X070200Y031428D01*
X070200Y031429D02*
X070948Y031429D01*
X070948Y031430D02*
X070200Y031430D01*
X070200Y031431D02*
X070948Y031431D01*
X070948Y031432D02*
X070200Y031432D01*
X070200Y031433D02*
X070948Y031433D01*
X070948Y031434D02*
X070200Y031434D01*
X070200Y031435D02*
X070948Y031435D01*
X070948Y031436D02*
X070200Y031436D01*
X070200Y031437D02*
X070948Y031437D01*
X070948Y031438D02*
X070200Y031438D01*
X070200Y031439D02*
X070948Y031439D01*
X070948Y031440D02*
X070200Y031440D01*
X070200Y031441D02*
X070948Y031441D01*
X070948Y031442D02*
X070200Y031442D01*
X070200Y031443D02*
X070948Y031443D01*
X070948Y031444D02*
X070200Y031444D01*
X070200Y031445D02*
X070948Y031445D01*
X070948Y031446D02*
X070200Y031446D01*
X070200Y031447D02*
X070948Y031447D01*
X070948Y031448D02*
X070200Y031448D01*
X070200Y031449D02*
X070948Y031449D01*
X070948Y031450D02*
X070200Y031450D01*
X070200Y031451D02*
X070948Y031451D01*
X070948Y031452D02*
X070200Y031452D01*
X070200Y031453D02*
X070948Y031453D01*
X070948Y031454D02*
X070200Y031454D01*
X070200Y031455D02*
X070948Y031455D01*
X070948Y031456D02*
X070200Y031456D01*
X070200Y031457D02*
X070948Y031457D01*
X070948Y031458D02*
X070200Y031458D01*
X070200Y031459D02*
X070948Y031459D01*
X070948Y031460D02*
X070200Y031460D01*
X070200Y031461D02*
X070948Y031461D01*
X070948Y031462D02*
X070200Y031462D01*
X070200Y031463D02*
X070948Y031463D01*
X070948Y031464D02*
X070200Y031464D01*
X070200Y031465D02*
X070948Y031465D01*
X070948Y031466D02*
X070200Y031466D01*
X070200Y031467D02*
X070948Y031467D01*
X070948Y031468D02*
X070200Y031468D01*
X070200Y031469D02*
X070948Y031469D01*
X070948Y031470D02*
X070200Y031470D01*
X070200Y031471D02*
X070948Y031471D01*
X070948Y031472D02*
X070200Y031472D01*
X070200Y031473D02*
X070948Y031473D01*
X070948Y031474D02*
X070200Y031474D01*
X070200Y031475D02*
X070948Y031475D01*
X070948Y031476D02*
X070200Y031476D01*
X070200Y031477D02*
X070948Y031477D01*
X070948Y031478D02*
X070200Y031478D01*
X070200Y031479D02*
X070948Y031479D01*
X070948Y031480D02*
X070200Y031480D01*
X070200Y031481D02*
X070948Y031481D01*
X070948Y031482D02*
X070200Y031482D01*
X070200Y031483D02*
X070948Y031483D01*
X070948Y031484D02*
X070200Y031484D01*
X070200Y031485D02*
X070948Y031485D01*
X070948Y031486D02*
X070200Y031486D01*
X070200Y031487D02*
X070948Y031487D01*
X070948Y031488D02*
X070200Y031488D01*
X070200Y031489D02*
X070948Y031489D01*
X070948Y031490D02*
X070200Y031490D01*
X070200Y031491D02*
X070948Y031491D01*
X070948Y031492D02*
X070200Y031492D01*
X070200Y031493D02*
X070948Y031493D01*
X070948Y031494D02*
X070200Y031494D01*
X070200Y031495D02*
X070948Y031495D01*
X070948Y031496D02*
X070200Y031496D01*
X070200Y031497D02*
X070948Y031497D01*
X070948Y031498D02*
X070200Y031498D01*
X070200Y031499D02*
X070948Y031499D01*
X070948Y031500D02*
X070200Y031500D01*
X070200Y031501D02*
X070948Y031501D01*
X070948Y031502D02*
X070200Y031502D01*
X070200Y031503D02*
X070948Y031503D01*
X070948Y031504D02*
X070200Y031504D01*
X070200Y031505D02*
X070948Y031505D01*
X070948Y031506D02*
X070200Y031506D01*
X070200Y031507D02*
X070948Y031507D01*
X070948Y031508D02*
X070200Y031508D01*
X070200Y031509D02*
X070948Y031509D01*
X070948Y031510D02*
X070200Y031510D01*
X070200Y031511D02*
X070948Y031511D01*
X070948Y031512D02*
X070200Y031512D01*
X070200Y031513D02*
X070948Y031513D01*
X070948Y031514D02*
X070200Y031514D01*
X070200Y031515D02*
X070948Y031515D01*
X070948Y031516D02*
X070200Y031516D01*
X070200Y031517D02*
X070948Y031517D01*
X070948Y031518D02*
X070200Y031518D01*
X070200Y031519D02*
X070948Y031519D01*
X070948Y031520D02*
X070200Y031520D01*
X070200Y031521D02*
X070948Y031521D01*
X070948Y031522D02*
X070200Y031522D01*
X070200Y031523D02*
X070948Y031523D01*
X070948Y031524D02*
X070200Y031524D01*
X070200Y031525D02*
X070948Y031525D01*
X070948Y031526D02*
X070200Y031526D01*
X070200Y031527D02*
X070948Y031527D01*
X070948Y031528D02*
X070200Y031528D01*
X070200Y031529D02*
X070948Y031529D01*
X070948Y031530D02*
X070200Y031530D01*
X070200Y031531D02*
X070948Y031531D01*
X070948Y031532D02*
X070200Y031532D01*
X070200Y031533D02*
X070948Y031533D01*
X070948Y031534D02*
X070200Y031534D01*
X070200Y031535D02*
X070948Y031535D01*
X070948Y031536D02*
X070200Y031536D01*
X070200Y031537D02*
X070948Y031537D01*
X070948Y031538D02*
X070200Y031538D01*
X070200Y031539D02*
X070948Y031539D01*
X070948Y031540D02*
X070200Y031540D01*
X070200Y031541D02*
X070948Y031541D01*
X070948Y031542D02*
X070200Y031542D01*
X070200Y031543D02*
X070948Y031543D01*
X070948Y031544D02*
X070200Y031544D01*
X070200Y031545D02*
X070948Y031545D01*
X070948Y031546D02*
X070200Y031546D01*
X070200Y031547D02*
X070948Y031547D01*
X070948Y031548D02*
X070200Y031548D01*
X070200Y031549D02*
X070948Y031549D01*
X070948Y031550D02*
X070200Y031550D01*
X070200Y031551D02*
X070948Y031551D01*
X070948Y031552D02*
X070200Y031552D01*
X070200Y031553D02*
X070948Y031553D01*
X070948Y031554D02*
X070200Y031554D01*
X070200Y031555D02*
X070948Y031555D01*
X070948Y031556D02*
X070200Y031556D01*
X070200Y031557D02*
X070948Y031557D01*
X070948Y031558D02*
X070200Y031558D01*
X070200Y031559D02*
X070948Y031559D01*
X070948Y031560D02*
X070200Y031560D01*
X070200Y031561D02*
X070948Y031561D01*
X070948Y031562D02*
X070200Y031562D01*
X070200Y031563D02*
X070948Y031563D01*
X070948Y031564D02*
X070200Y031564D01*
X070200Y031565D02*
X070948Y031565D01*
X070948Y031566D02*
X070200Y031566D01*
X070200Y031567D02*
X070948Y031567D01*
X070948Y031568D02*
X070200Y031568D01*
X070200Y031569D02*
X070948Y031569D01*
X070948Y031570D02*
X070200Y031570D01*
X070200Y031571D02*
X070948Y031571D01*
X070948Y031572D02*
X070200Y031572D01*
X070200Y031573D02*
X070948Y031573D01*
X070948Y031574D02*
X070200Y031574D01*
X070200Y031575D02*
X070948Y031575D01*
X070948Y031576D02*
X070200Y031576D01*
X070200Y031577D02*
X070948Y031577D01*
X070948Y031578D02*
X070200Y031578D01*
X070200Y031579D02*
X070948Y031579D01*
X070948Y031580D02*
X070200Y031580D01*
X070200Y031581D02*
X070948Y031581D01*
X070948Y031582D02*
X070200Y031582D01*
X070200Y031583D02*
X070948Y031583D01*
X070948Y031584D02*
X070200Y031584D01*
X070200Y031585D02*
X070948Y031585D01*
X070948Y031586D02*
X070200Y031586D01*
X070200Y031587D02*
X070948Y031587D01*
X070948Y031588D02*
X070200Y031588D01*
X070200Y031589D02*
X070948Y031589D01*
X070948Y031590D02*
X070200Y031590D01*
X070200Y031591D02*
X070948Y031591D01*
X070948Y031592D02*
X070200Y031592D01*
X070200Y031593D02*
X070948Y031593D01*
X070948Y031594D02*
X070200Y031594D01*
X070200Y031595D02*
X070948Y031595D01*
X070948Y031596D02*
X070200Y031596D01*
X070200Y031597D02*
X070948Y031597D01*
X070948Y031598D02*
X070200Y031598D01*
X070200Y031599D02*
X070948Y031599D01*
X070948Y031600D02*
X070200Y031600D01*
X070200Y031601D02*
X070948Y031601D01*
X070948Y031602D02*
X070200Y031602D01*
X070200Y031603D02*
X070948Y031603D01*
X070948Y031604D02*
X070200Y031604D01*
X070200Y031605D02*
X070948Y031605D01*
X070948Y031606D02*
X070200Y031606D01*
X070200Y031607D02*
X070948Y031607D01*
X070948Y031608D02*
X070200Y031608D01*
X070200Y031609D02*
X070948Y031609D01*
X070948Y031610D02*
X070200Y031610D01*
X070200Y031611D02*
X070948Y031611D01*
X070948Y031612D02*
X070200Y031612D01*
X070200Y031613D02*
X070948Y031613D01*
X070948Y031614D02*
X070200Y031614D01*
X070200Y031615D02*
X070948Y031615D01*
X070948Y031616D02*
X070200Y031616D01*
X070200Y031617D02*
X070948Y031617D01*
X070948Y031618D02*
X070200Y031618D01*
X070200Y031619D02*
X070948Y031619D01*
X070948Y031620D02*
X070200Y031620D01*
X070200Y031621D02*
X070948Y031621D01*
X070948Y031622D02*
X070200Y031622D01*
X070200Y031623D02*
X070948Y031623D01*
X070948Y031624D02*
X070200Y031624D01*
X070200Y031625D02*
X070948Y031625D01*
X070948Y031626D02*
X070200Y031626D01*
X070200Y031627D02*
X070948Y031627D01*
X070948Y031628D02*
X070200Y031628D01*
X070200Y031629D02*
X070948Y031629D01*
X070948Y031630D02*
X070200Y031630D01*
X070200Y031631D02*
X070948Y031631D01*
X070948Y031632D02*
X070200Y031632D01*
X070200Y031633D02*
X070948Y031633D01*
X070948Y031634D02*
X070200Y031634D01*
X070200Y031635D02*
X070948Y031635D01*
X070948Y031636D02*
X070200Y031636D01*
X070200Y031637D02*
X070948Y031637D01*
X070948Y031638D02*
X070200Y031638D01*
X070200Y031639D02*
X070948Y031639D01*
X070948Y031640D02*
X070200Y031640D01*
X070200Y031641D02*
X070948Y031641D01*
X070948Y031642D02*
X070200Y031642D01*
X070200Y031643D02*
X070948Y031643D01*
X070948Y031644D02*
X070200Y031644D01*
X070200Y031645D02*
X070948Y031645D01*
X070948Y031646D02*
X070200Y031646D01*
X070200Y031647D02*
X070948Y031647D01*
X070948Y031648D02*
X070200Y031648D01*
X070200Y031649D02*
X070948Y031649D01*
X070948Y031650D02*
X070200Y031650D01*
X070200Y031651D02*
X070948Y031651D01*
X070948Y031652D02*
X070200Y031652D01*
X070200Y031653D02*
X070948Y031653D01*
X070948Y031654D02*
X070200Y031654D01*
X070200Y031655D02*
X070948Y031655D01*
X070948Y031656D02*
X070200Y031656D01*
X070200Y031657D02*
X070948Y031657D01*
X070948Y031658D02*
X070200Y031658D01*
X070200Y031659D02*
X070948Y031659D01*
X070948Y031660D02*
X070200Y031660D01*
X070200Y031661D02*
X070948Y031661D01*
X070948Y031662D02*
X070200Y031662D01*
X070200Y031663D02*
X070948Y031663D01*
X070948Y031664D02*
X070200Y031664D01*
X070200Y031665D02*
X070948Y031665D01*
X070948Y031666D02*
X070200Y031666D01*
X070200Y031667D02*
X070948Y031667D01*
X070948Y031668D02*
X070200Y031668D01*
X070200Y031669D02*
X070948Y031669D01*
X070948Y031670D02*
X070200Y031670D01*
X070200Y031671D02*
X070948Y031671D01*
X070948Y031672D02*
X070200Y031672D01*
X070200Y031673D02*
X070948Y031673D01*
X070948Y031674D02*
X070200Y031674D01*
X070200Y031675D02*
X070948Y031675D01*
X070948Y031676D02*
X070200Y031676D01*
X070200Y031677D02*
X070948Y031677D01*
X070948Y031678D02*
X070200Y031678D01*
X070200Y031679D02*
X070948Y031679D01*
X070948Y031680D02*
X070200Y031680D01*
X070200Y031681D02*
X070948Y031681D01*
X070948Y031682D02*
X070200Y031682D01*
X070200Y031683D02*
X070948Y031683D01*
X070948Y031684D02*
X070200Y031684D01*
X070200Y031685D02*
X070948Y031685D01*
X070948Y031686D02*
X070200Y031686D01*
X070200Y031687D02*
X070948Y031687D01*
X070948Y031688D02*
X070200Y031688D01*
X070200Y031689D02*
X070948Y031689D01*
X070948Y031690D02*
X070200Y031690D01*
X070200Y031691D02*
X070948Y031691D01*
X070948Y031692D02*
X070200Y031692D01*
X070200Y031693D02*
X070948Y031693D01*
X070948Y031694D02*
X070200Y031694D01*
X070200Y031695D02*
X070948Y031695D01*
X070948Y031696D02*
X070200Y031696D01*
X070200Y031697D02*
X070948Y031697D01*
X070948Y031698D02*
X070200Y031698D01*
X070200Y031699D02*
X070948Y031699D01*
X070948Y031700D02*
X070200Y031700D01*
X070200Y031701D02*
X070948Y031701D01*
X070948Y031702D02*
X070200Y031702D01*
X070200Y031703D02*
X070948Y031703D01*
X070948Y031704D02*
X070200Y031704D01*
X070200Y031705D02*
X070948Y031705D01*
X070948Y031706D02*
X070200Y031706D01*
X070200Y031707D02*
X070948Y031707D01*
X070948Y031708D02*
X070200Y031708D01*
X070200Y031709D02*
X070948Y031709D01*
X070948Y031710D02*
X070200Y031710D01*
X070200Y031711D02*
X070948Y031711D01*
X070948Y031712D02*
X070200Y031712D01*
X070200Y031713D02*
X070948Y031713D01*
X070948Y031714D02*
X070200Y031714D01*
X070200Y031715D02*
X070948Y031715D01*
X070948Y031716D02*
X070200Y031716D01*
X070200Y031717D02*
X070948Y031717D01*
X070948Y031718D02*
X070200Y031718D01*
X070200Y031719D02*
X070948Y031719D01*
X070948Y031720D02*
X070200Y031720D01*
X070200Y031721D02*
X070948Y031721D01*
X070948Y031722D02*
X070200Y031722D01*
X070200Y031723D02*
X070948Y031723D01*
X070948Y031724D02*
X070200Y031724D01*
X070200Y031725D02*
X070948Y031725D01*
X070948Y031726D02*
X070200Y031726D01*
X070200Y031727D02*
X070948Y031727D01*
X070948Y031728D02*
X070200Y031728D01*
X070200Y031729D02*
X070948Y031729D01*
X070948Y031730D02*
X070200Y031730D01*
X070200Y031731D02*
X070948Y031731D01*
X070948Y031732D02*
X070200Y031732D01*
X070200Y031733D02*
X070948Y031733D01*
X070948Y031734D02*
X070200Y031734D01*
X070200Y031735D02*
X070948Y031735D01*
X070948Y031736D02*
X070200Y031736D01*
X070200Y031737D02*
X070948Y031737D01*
X070948Y031738D02*
X070200Y031738D01*
X070200Y031739D02*
X070948Y031739D01*
X070948Y031740D02*
X070200Y031740D01*
X070200Y031741D02*
X070948Y031741D01*
X070948Y031742D02*
X070200Y031742D01*
X070200Y031743D02*
X070948Y031743D01*
X070948Y031744D02*
X070200Y031744D01*
X070200Y031745D02*
X070948Y031745D01*
X070948Y031746D02*
X070200Y031746D01*
X070200Y031747D02*
X070948Y031747D01*
X070948Y031748D02*
X070200Y031748D01*
X070200Y031749D02*
X070948Y031749D01*
X070948Y031750D02*
X070200Y031750D01*
X070200Y031751D02*
X070948Y031751D01*
X070948Y031752D02*
X070200Y031752D01*
X070200Y031753D02*
X070948Y031753D01*
X070948Y031754D02*
X070200Y031754D01*
X070200Y031755D02*
X070948Y031755D01*
X070948Y031756D02*
X070200Y031756D01*
X070200Y031757D02*
X070948Y031757D01*
X070948Y031758D02*
X070200Y031758D01*
X070200Y031759D02*
X070948Y031759D01*
X070948Y031760D02*
X070200Y031760D01*
X070200Y031761D02*
X070948Y031761D01*
X070948Y031762D02*
X070200Y031762D01*
X070200Y031763D02*
X070948Y031763D01*
X070948Y031764D02*
X070200Y031764D01*
X070200Y031765D02*
X070948Y031765D01*
X070948Y031766D02*
X070200Y031766D01*
X070200Y031767D02*
X070948Y031767D01*
X070948Y031768D02*
X070200Y031768D01*
X070200Y031769D02*
X070948Y031769D01*
X070948Y031770D02*
X070200Y031770D01*
X070200Y031771D02*
X070948Y031771D01*
X070948Y031772D02*
X070200Y031772D01*
X070200Y031773D02*
X070948Y031773D01*
X070948Y031774D02*
X070200Y031774D01*
X070200Y031775D02*
X070948Y031775D01*
X070948Y031776D02*
X070200Y031776D01*
X070200Y031777D02*
X070948Y031777D01*
X070948Y031778D02*
X070200Y031778D01*
X070200Y031779D02*
X070948Y031779D01*
X070948Y031780D02*
X070200Y031780D01*
X070200Y031781D02*
X070948Y031781D01*
X070948Y031782D02*
X070200Y031782D01*
X070200Y031783D02*
X070948Y031783D01*
X070948Y031784D02*
X070200Y031784D01*
X070200Y031785D02*
X070948Y031785D01*
X070948Y031786D02*
X070200Y031786D01*
X070200Y031787D02*
X070948Y031787D01*
X070948Y031788D02*
X070200Y031788D01*
X070200Y031789D02*
X070948Y031789D01*
X070948Y031790D02*
X070200Y031790D01*
X070200Y031791D02*
X070948Y031791D01*
X070948Y031792D02*
X070200Y031792D01*
X070200Y031793D02*
X070948Y031793D01*
X070948Y031794D02*
X070200Y031794D01*
X070200Y031795D02*
X070948Y031795D01*
X070948Y031796D02*
X070200Y031796D01*
X070200Y031797D02*
X070948Y031797D01*
X070948Y031798D02*
X070200Y031798D01*
X070200Y031799D02*
X070948Y031799D01*
X070948Y031800D02*
X070200Y031800D01*
X070200Y031801D02*
X070948Y031801D01*
X070948Y031802D02*
X070200Y031802D01*
X070200Y031803D02*
X070948Y031803D01*
X070948Y031804D02*
X070200Y031804D01*
X070200Y031805D02*
X070948Y031805D01*
X070948Y031806D02*
X070200Y031806D01*
X070200Y031807D02*
X070948Y031807D01*
X070948Y031808D02*
X070200Y031808D01*
X070200Y031809D02*
X070948Y031809D01*
X070948Y031810D02*
X070200Y031810D01*
X070200Y031811D02*
X070948Y031811D01*
X070948Y031812D02*
X070200Y031812D01*
X070200Y031813D02*
X070948Y031813D01*
X070948Y031814D02*
X070200Y031814D01*
X070200Y031815D02*
X070948Y031815D01*
X070948Y031816D02*
X070200Y031816D01*
X070200Y031817D02*
X070948Y031817D01*
X070948Y031818D02*
X070200Y031818D01*
X070200Y031819D02*
X070948Y031819D01*
X070948Y031820D02*
X070200Y031820D01*
X070200Y031821D02*
X070948Y031821D01*
X070948Y031822D02*
X070200Y031822D01*
X070200Y031823D02*
X070948Y031823D01*
X070948Y031824D02*
X070200Y031824D01*
X070200Y031825D02*
X070948Y031825D01*
X070948Y031826D02*
X070200Y031826D01*
X070200Y031827D02*
X070948Y031827D01*
X070948Y031828D02*
X070200Y031828D01*
X070200Y031829D02*
X070948Y031829D01*
X070948Y031830D02*
X070200Y031830D01*
X070200Y031831D02*
X070948Y031831D01*
X070948Y031832D02*
X070200Y031832D01*
X070200Y031833D02*
X070948Y031833D01*
X070948Y031834D02*
X070200Y031834D01*
X070200Y031835D02*
X070948Y031835D01*
X070948Y031836D02*
X070200Y031836D01*
X070200Y031837D02*
X070948Y031837D01*
X070948Y031838D02*
X070200Y031838D01*
X070200Y031839D02*
X070948Y031839D01*
X070948Y031840D02*
X070200Y031840D01*
X070200Y031841D02*
X070948Y031841D01*
X070948Y031842D02*
X070200Y031842D01*
X070200Y031843D02*
X070948Y031843D01*
X070948Y031844D02*
X070200Y031844D01*
X070200Y031845D02*
X070948Y031845D01*
X070948Y031846D02*
X070200Y031846D01*
X070200Y031847D02*
X070948Y031847D01*
X070948Y031848D02*
X070200Y031848D01*
X070200Y031849D02*
X070948Y031849D01*
X070948Y031850D02*
X070200Y031850D01*
X070200Y031851D02*
X070948Y031851D01*
X070948Y031852D02*
X070200Y031852D01*
X070200Y031853D02*
X070948Y031853D01*
X070948Y031854D02*
X070200Y031854D01*
X070200Y031855D02*
X070948Y031855D01*
X070948Y031856D02*
X070200Y031856D01*
X070200Y031857D02*
X070948Y031857D01*
X070948Y031858D02*
X070200Y031858D01*
X070200Y031859D02*
X070948Y031859D01*
X070948Y031860D02*
X070200Y031860D01*
X070200Y031861D02*
X070948Y031861D01*
X070948Y031862D02*
X070200Y031862D01*
X070200Y031863D02*
X070948Y031863D01*
X070948Y031864D02*
X070200Y031864D01*
X070200Y031865D02*
X070948Y031865D01*
X070948Y031866D02*
X070200Y031866D01*
X070200Y031867D02*
X070948Y031867D01*
X070948Y031868D02*
X070200Y031868D01*
X070200Y031869D02*
X070948Y031869D01*
X070948Y031870D02*
X070200Y031870D01*
X070200Y031871D02*
X070948Y031871D01*
X070948Y031872D02*
X070200Y031872D01*
X070200Y031873D02*
X070948Y031873D01*
X070948Y031874D02*
X070200Y031874D01*
X070200Y031875D02*
X070948Y031875D01*
X070948Y031876D02*
X070200Y031876D01*
X070200Y031877D02*
X070948Y031877D01*
X070948Y031878D02*
X070200Y031878D01*
X070200Y031879D02*
X070948Y031879D01*
X070948Y031880D02*
X070200Y031880D01*
X070200Y031881D02*
X070948Y031881D01*
X070948Y031882D02*
X070200Y031882D01*
X070200Y031883D02*
X070948Y031883D01*
X070948Y031884D02*
X070200Y031884D01*
X070200Y031885D02*
X070948Y031885D01*
X070948Y031886D02*
X070200Y031886D01*
X070200Y031887D02*
X070948Y031887D01*
X070948Y031888D02*
X070200Y031888D01*
X070200Y031889D02*
X070948Y031889D01*
X070948Y031890D02*
X070200Y031890D01*
X070200Y031891D02*
X070948Y031891D01*
X070948Y031892D02*
X070200Y031892D01*
X070200Y031893D02*
X070948Y031893D01*
X070948Y031894D02*
X070200Y031894D01*
X070200Y031895D02*
X070948Y031895D01*
X070948Y031896D02*
X070200Y031896D01*
X070200Y031897D02*
X070948Y031897D01*
X070948Y031898D02*
X070200Y031898D01*
X070200Y031899D02*
X070948Y031899D01*
X070948Y031900D02*
X070200Y031900D01*
X070200Y031901D02*
X070948Y031901D01*
X070948Y031902D02*
X070200Y031902D01*
X070200Y031903D02*
X070948Y031903D01*
X070948Y031904D02*
X070200Y031904D01*
X070200Y031905D02*
X070948Y031905D01*
X070948Y031906D02*
X070200Y031906D01*
X070200Y031907D02*
X070948Y031907D01*
X070948Y031908D02*
X070200Y031908D01*
X070200Y031909D02*
X070948Y031909D01*
X070948Y031910D02*
X070200Y031910D01*
X070200Y031911D02*
X070948Y031911D01*
X070948Y031912D02*
X070200Y031912D01*
X070200Y031913D02*
X070948Y031913D01*
X070948Y031914D02*
X070200Y031914D01*
X070200Y031915D02*
X070947Y031915D01*
X070947Y031916D02*
X070200Y031916D01*
X070200Y031917D02*
X070947Y031917D01*
X070947Y031918D02*
X070200Y031918D01*
X070200Y031919D02*
X070947Y031919D01*
X070947Y031920D02*
X070201Y031920D01*
X070201Y031921D02*
X070947Y031921D01*
X070947Y031922D02*
X070201Y031922D01*
X070201Y031923D02*
X070947Y031923D01*
X070946Y031924D02*
X070201Y031924D01*
X070201Y031925D02*
X070946Y031925D01*
X070946Y031926D02*
X070201Y031926D01*
X070201Y031927D02*
X070946Y031927D01*
X070946Y031928D02*
X070201Y031928D01*
X070202Y031929D02*
X070946Y031929D01*
X070946Y031930D02*
X070202Y031930D01*
X070202Y031931D02*
X070946Y031931D01*
X070946Y031932D02*
X070202Y031932D01*
X070202Y031933D02*
X070945Y031933D01*
X070945Y031934D02*
X070202Y031934D01*
X070202Y031935D02*
X070945Y031935D01*
X070945Y031936D02*
X070202Y031936D01*
X070202Y031937D02*
X070945Y031937D01*
X070945Y031938D02*
X070203Y031938D01*
X070203Y031939D02*
X070945Y031939D01*
X070945Y031940D02*
X070203Y031940D01*
X070203Y031941D02*
X070944Y031941D01*
X070944Y031942D02*
X070203Y031942D01*
X070203Y031943D02*
X070944Y031943D01*
X070944Y031944D02*
X070203Y031944D01*
X070203Y031945D02*
X070944Y031945D01*
X070944Y031946D02*
X070203Y031946D01*
X070204Y031947D02*
X070944Y031947D01*
X070944Y031948D02*
X070204Y031948D01*
X070204Y031949D02*
X070944Y031949D01*
X070943Y031950D02*
X070204Y031950D01*
X070204Y031951D02*
X070943Y031951D01*
X070943Y031952D02*
X070204Y031952D01*
X070204Y031953D02*
X070943Y031953D01*
X070943Y031954D02*
X070204Y031954D01*
X070204Y031955D02*
X070943Y031955D01*
X070943Y031956D02*
X070205Y031956D01*
X070205Y031957D02*
X070943Y031957D01*
X070942Y031958D02*
X070205Y031958D01*
X070206Y031959D02*
X070942Y031959D01*
X070941Y031960D02*
X070206Y031960D01*
X070206Y031961D02*
X070941Y031961D01*
X070941Y031962D02*
X070207Y031962D01*
X070207Y031963D02*
X070940Y031963D01*
X070940Y031964D02*
X070207Y031964D01*
X070208Y031965D02*
X070940Y031965D01*
X070939Y031966D02*
X070208Y031966D01*
X070208Y031967D02*
X070939Y031967D01*
X070939Y031968D02*
X070209Y031968D01*
X070209Y031969D02*
X070938Y031969D01*
X070938Y031970D02*
X070209Y031970D01*
X070210Y031971D02*
X070938Y031971D01*
X070937Y031972D02*
X070210Y031972D01*
X070210Y031973D02*
X070937Y031973D01*
X070937Y031974D02*
X070211Y031974D01*
X070211Y031975D02*
X070936Y031975D01*
X070936Y031976D02*
X070212Y031976D01*
X070212Y031977D02*
X070936Y031977D01*
X070935Y031978D02*
X070212Y031978D01*
X070213Y031979D02*
X070935Y031979D01*
X070934Y031980D02*
X070213Y031980D01*
X070213Y031981D02*
X070934Y031981D01*
X070934Y031982D02*
X070214Y031982D01*
X070214Y031983D02*
X070933Y031983D01*
X070933Y031984D02*
X070214Y031984D01*
X070215Y031985D02*
X070933Y031985D01*
X070932Y031986D02*
X070215Y031986D01*
X070215Y031987D02*
X070932Y031987D01*
X070932Y031988D02*
X070216Y031988D01*
X070216Y031989D02*
X070931Y031989D01*
X070931Y031990D02*
X070216Y031990D01*
X070217Y031991D02*
X070931Y031991D01*
X070930Y031992D02*
X070217Y031992D01*
X070217Y031993D02*
X070930Y031993D01*
X070930Y031994D02*
X070218Y031994D01*
X070218Y031995D02*
X070929Y031995D01*
X070929Y031996D02*
X070219Y031996D01*
X070219Y031997D02*
X070929Y031997D01*
X070928Y031998D02*
X070219Y031998D01*
X070220Y031999D02*
X070928Y031999D01*
X070927Y032000D02*
X070220Y032000D01*
X070221Y032001D02*
X070926Y032001D01*
X070926Y032002D02*
X070222Y032002D01*
X070222Y032003D02*
X070925Y032003D01*
X070924Y032004D02*
X070223Y032004D01*
X070224Y032005D02*
X070924Y032005D01*
X070923Y032006D02*
X070224Y032006D01*
X070225Y032007D02*
X070923Y032007D01*
X070922Y032008D02*
X070226Y032008D01*
X070226Y032009D02*
X070921Y032009D01*
X070921Y032010D02*
X070227Y032010D01*
X070227Y032011D02*
X070920Y032011D01*
X070919Y032012D02*
X070228Y032012D01*
X070229Y032013D02*
X070919Y032013D01*
X070918Y032014D02*
X070229Y032014D01*
X070230Y032015D02*
X070917Y032015D01*
X070917Y032016D02*
X070231Y032016D01*
X070231Y032017D02*
X070916Y032017D01*
X070916Y032018D02*
X070232Y032018D01*
X070232Y032019D02*
X070915Y032019D01*
X070914Y032020D02*
X070233Y032020D01*
X070234Y032021D02*
X070914Y032021D01*
X070913Y032022D02*
X070234Y032022D01*
X070235Y032023D02*
X070912Y032023D01*
X070912Y032024D02*
X070236Y032024D01*
X070236Y032025D02*
X070911Y032025D01*
X070911Y032026D02*
X070237Y032026D01*
X070237Y032027D02*
X070910Y032027D01*
X070909Y032028D02*
X070238Y032028D01*
X070239Y032029D02*
X070909Y032029D01*
X070908Y032030D02*
X070239Y032030D01*
X070240Y032031D02*
X070907Y032031D01*
X070907Y032032D02*
X070241Y032032D01*
X070241Y032033D02*
X070906Y032033D01*
X070906Y032034D02*
X070242Y032034D01*
X070242Y032035D02*
X070905Y032035D01*
X070904Y032036D02*
X070243Y032036D01*
X070244Y032037D02*
X070903Y032037D01*
X070902Y032038D02*
X070245Y032038D01*
X070246Y032039D02*
X070901Y032039D01*
X070900Y032040D02*
X070247Y032040D01*
X070248Y032041D02*
X070899Y032041D01*
X070898Y032042D02*
X070249Y032042D01*
X070250Y032043D02*
X070897Y032043D01*
X070896Y032044D02*
X070251Y032044D01*
X070252Y032045D02*
X070895Y032045D01*
X070894Y032046D02*
X070253Y032046D01*
X070254Y032047D02*
X070893Y032047D01*
X070892Y032048D02*
X070255Y032048D01*
X070256Y032049D02*
X070891Y032049D01*
X070890Y032050D02*
X070257Y032050D01*
X070258Y032051D02*
X070889Y032051D01*
X070888Y032052D02*
X070259Y032052D01*
X070260Y032053D02*
X070887Y032053D01*
X070886Y032054D02*
X070261Y032054D01*
X070262Y032055D02*
X070885Y032055D01*
X070884Y032056D02*
X070263Y032056D01*
X070264Y032057D02*
X070883Y032057D01*
X070882Y032058D02*
X070265Y032058D01*
X070266Y032059D02*
X070881Y032059D01*
X070880Y032060D02*
X070267Y032060D01*
X070268Y032061D02*
X070879Y032061D01*
X070878Y032062D02*
X070269Y032062D01*
X070270Y032063D02*
X070877Y032063D01*
X070876Y032064D02*
X070271Y032064D01*
X070272Y032065D02*
X070875Y032065D01*
X070874Y032066D02*
X070273Y032066D01*
X070275Y032067D02*
X070873Y032067D01*
X070871Y032068D02*
X070276Y032068D01*
X070278Y032069D02*
X070870Y032069D01*
X070868Y032070D02*
X070279Y032070D01*
X070281Y032071D02*
X070866Y032071D01*
X070865Y032072D02*
X070283Y032072D01*
X070284Y032073D02*
X070863Y032073D01*
X070862Y032074D02*
X070286Y032074D01*
X070287Y032075D02*
X070860Y032075D01*
X070858Y032076D02*
X070289Y032076D01*
X070291Y032077D02*
X070857Y032077D01*
X070855Y032078D02*
X070292Y032078D01*
X070294Y032079D02*
X070854Y032079D01*
X070852Y032080D02*
X070295Y032080D01*
X070297Y032081D02*
X070851Y032081D01*
X070849Y032082D02*
X070298Y032082D01*
X070300Y032083D02*
X070847Y032083D01*
X070846Y032084D02*
X070302Y032084D01*
X070303Y032085D02*
X070844Y032085D01*
X070843Y032086D02*
X070305Y032086D01*
X070306Y032087D02*
X070841Y032087D01*
X070839Y032088D02*
X070308Y032088D01*
X070310Y032089D02*
X070838Y032089D01*
X070836Y032090D02*
X070311Y032090D01*
X070314Y032091D02*
X070833Y032091D01*
X070830Y032092D02*
X070317Y032092D01*
X070320Y032093D02*
X070828Y032093D01*
X070825Y032094D02*
X070323Y032094D01*
X070326Y032095D02*
X070822Y032095D01*
X070819Y032096D02*
X070328Y032096D01*
X070331Y032097D02*
X070816Y032097D01*
X070813Y032098D02*
X070334Y032098D01*
X070337Y032099D02*
X070810Y032099D01*
X070808Y032100D02*
X070340Y032100D01*
X070343Y032101D02*
X070805Y032101D01*
X070802Y032102D02*
X070346Y032102D01*
X070348Y032103D02*
X070799Y032103D01*
X070796Y032104D02*
X070351Y032104D01*
X070357Y032105D02*
X070790Y032105D01*
X070782Y032106D02*
X070366Y032106D01*
X070375Y032107D02*
X070773Y032107D01*
X070764Y032108D02*
X070384Y032108D01*
X070392Y032109D02*
X070755Y032109D01*
X070948Y029589D02*
X070200Y029589D01*
X070200Y029588D02*
X070948Y029588D01*
X070948Y029587D02*
X070200Y029587D01*
X070200Y029586D02*
X070948Y029586D01*
X070948Y029585D02*
X070200Y029585D01*
X070200Y029584D02*
X070948Y029584D01*
X070948Y029583D02*
X070200Y029583D01*
X070200Y029582D02*
X070948Y029582D01*
X070948Y029581D02*
X070200Y029581D01*
X070200Y029580D02*
X070948Y029580D01*
X070948Y029579D02*
X070200Y029579D01*
X070200Y029578D02*
X070948Y029578D01*
X070948Y029577D02*
X070200Y029577D01*
X070200Y029576D02*
X070948Y029576D01*
X070948Y029575D02*
X070200Y029575D01*
X070200Y029574D02*
X070948Y029574D01*
X070948Y029573D02*
X070200Y029573D01*
X070200Y029572D02*
X070948Y029572D01*
X070948Y029571D02*
X070200Y029571D01*
X070200Y029570D02*
X070948Y029570D01*
X070948Y029569D02*
X070200Y029569D01*
X070200Y029568D02*
X070948Y029568D01*
X070948Y029567D02*
X070200Y029567D01*
X070200Y029566D02*
X070948Y029566D01*
X070948Y029565D02*
X070200Y029565D01*
X070200Y029564D02*
X070948Y029564D01*
X070948Y029563D02*
X070200Y029563D01*
X070200Y029562D02*
X070948Y029562D01*
X070948Y029561D02*
X070200Y029561D01*
X070200Y029560D02*
X070948Y029560D01*
X070948Y029559D02*
X070200Y029559D01*
X070200Y029558D02*
X070948Y029558D01*
X070948Y029557D02*
X070200Y029557D01*
X070200Y029556D02*
X070948Y029556D01*
X070948Y029555D02*
X070200Y029555D01*
X070200Y029554D02*
X070948Y029554D01*
X070948Y029553D02*
X070200Y029553D01*
X070200Y029552D02*
X070948Y029552D01*
X070948Y029551D02*
X070200Y029551D01*
X070200Y029550D02*
X070948Y029550D01*
X070948Y029549D02*
X070200Y029549D01*
X070200Y029548D02*
X070948Y029548D01*
X070948Y029547D02*
X070200Y029547D01*
X070200Y029546D02*
X070948Y029546D01*
X070948Y029545D02*
X070200Y029545D01*
X070200Y029544D02*
X070948Y029544D01*
X070948Y029543D02*
X070200Y029543D01*
X070200Y029542D02*
X070948Y029542D01*
X070948Y029541D02*
X070200Y029541D01*
X070200Y029540D02*
X070948Y029540D01*
X070948Y029539D02*
X070200Y029539D01*
X070200Y029538D02*
X070948Y029538D01*
X070948Y029537D02*
X070200Y029537D01*
X070200Y029536D02*
X070948Y029536D01*
X070948Y029535D02*
X070200Y029535D01*
X070200Y029534D02*
X070948Y029534D01*
X070948Y029533D02*
X070200Y029533D01*
X070200Y029532D02*
X070948Y029532D01*
X070948Y029531D02*
X070200Y029531D01*
X070200Y029530D02*
X070948Y029530D01*
X070948Y029529D02*
X070200Y029529D01*
X070200Y029528D02*
X070948Y029528D01*
X070948Y029527D02*
X070200Y029527D01*
X070200Y029526D02*
X070948Y029526D01*
X070948Y029525D02*
X070200Y029525D01*
X070200Y029524D02*
X070948Y029524D01*
X070948Y029523D02*
X070200Y029523D01*
X070200Y029522D02*
X070948Y029522D01*
X070948Y029521D02*
X070200Y029521D01*
X070200Y029520D02*
X070948Y029520D01*
X070948Y029519D02*
X070200Y029519D01*
X070200Y029518D02*
X070948Y029518D01*
X070948Y029517D02*
X070200Y029517D01*
X070200Y029516D02*
X070948Y029516D01*
X070948Y029515D02*
X070200Y029515D01*
X070200Y029514D02*
X070948Y029514D01*
X070948Y029513D02*
X070200Y029513D01*
X070200Y029512D02*
X070948Y029512D01*
X070948Y029511D02*
X070200Y029511D01*
X070200Y029510D02*
X070948Y029510D01*
X070948Y029509D02*
X070200Y029509D01*
X070200Y029508D02*
X070948Y029508D01*
X070948Y029507D02*
X070200Y029507D01*
X070200Y029506D02*
X070948Y029506D01*
X070948Y029505D02*
X070200Y029505D01*
X070200Y029504D02*
X070948Y029504D01*
X070948Y029503D02*
X070200Y029503D01*
X070200Y029502D02*
X070948Y029502D01*
X070948Y029501D02*
X070200Y029501D01*
X070200Y029500D02*
X070948Y029500D01*
X070948Y029499D02*
X070200Y029499D01*
X070200Y029498D02*
X070948Y029498D01*
X070948Y029497D02*
X070200Y029497D01*
X070200Y029496D02*
X070948Y029496D01*
X070948Y029495D02*
X070200Y029495D01*
X070200Y029494D02*
X070948Y029494D01*
X070948Y029493D02*
X070200Y029493D01*
X070200Y029492D02*
X070948Y029492D01*
X070948Y029491D02*
X070200Y029491D01*
X070200Y029490D02*
X070948Y029490D01*
X070948Y029489D02*
X070200Y029489D01*
X070200Y029488D02*
X070948Y029488D01*
X070948Y029487D02*
X070200Y029487D01*
X070200Y029486D02*
X070948Y029486D01*
X070948Y029485D02*
X070200Y029485D01*
X070200Y029484D02*
X070948Y029484D01*
X070948Y029483D02*
X070200Y029483D01*
X070200Y029482D02*
X070948Y029482D01*
X070948Y029481D02*
X070200Y029481D01*
X070200Y029480D02*
X070948Y029480D01*
X070948Y029479D02*
X070200Y029479D01*
X070200Y029478D02*
X070948Y029478D01*
X070948Y029477D02*
X070200Y029477D01*
X070200Y029476D02*
X070948Y029476D01*
X070948Y029475D02*
X070200Y029475D01*
X070200Y029474D02*
X070948Y029474D01*
X070948Y029473D02*
X070200Y029473D01*
X070200Y029472D02*
X070948Y029472D01*
X070948Y029471D02*
X070200Y029471D01*
X070200Y029470D02*
X070948Y029470D01*
X070948Y029469D02*
X070200Y029469D01*
X070200Y029468D02*
X070948Y029468D01*
X070948Y029467D02*
X070200Y029467D01*
X070200Y029466D02*
X070948Y029466D01*
X070948Y029465D02*
X070200Y029465D01*
X070200Y029464D02*
X070948Y029464D01*
X070948Y029463D02*
X070200Y029463D01*
X070200Y029462D02*
X070948Y029462D01*
X070948Y029461D02*
X070200Y029461D01*
X070200Y029460D02*
X070948Y029460D01*
X070948Y029459D02*
X070200Y029459D01*
X070200Y029458D02*
X070948Y029458D01*
X070948Y029457D02*
X070200Y029457D01*
X070200Y029456D02*
X070948Y029456D01*
X070948Y029455D02*
X070200Y029455D01*
X070200Y029454D02*
X070948Y029454D01*
X070948Y029453D02*
X070200Y029453D01*
X070200Y029452D02*
X070948Y029452D01*
X070948Y029451D02*
X070200Y029451D01*
X070200Y029450D02*
X070948Y029450D01*
X070948Y029449D02*
X070200Y029449D01*
X070200Y029448D02*
X070948Y029448D01*
X070948Y029447D02*
X070200Y029447D01*
X070200Y029446D02*
X070948Y029446D01*
X070948Y029445D02*
X070200Y029445D01*
X070200Y029444D02*
X070948Y029444D01*
X070948Y029443D02*
X070200Y029443D01*
X070200Y029442D02*
X070948Y029442D01*
X070948Y029441D02*
X070200Y029441D01*
X070200Y029440D02*
X070948Y029440D01*
X070948Y029439D02*
X070200Y029439D01*
X070200Y029438D02*
X070948Y029438D01*
X070948Y029437D02*
X070200Y029437D01*
X070200Y029436D02*
X070948Y029436D01*
X070948Y029435D02*
X070200Y029435D01*
X070200Y029434D02*
X070948Y029434D01*
X070948Y029433D02*
X070200Y029433D01*
X070200Y029432D02*
X070948Y029432D01*
X070948Y029431D02*
X070200Y029431D01*
X070200Y029430D02*
X070948Y029430D01*
X070948Y029429D02*
X070200Y029429D01*
X070200Y029428D02*
X070948Y029428D01*
X070948Y029427D02*
X070200Y029427D01*
X070200Y029426D02*
X070948Y029426D01*
X070948Y029425D02*
X070200Y029425D01*
X070200Y029424D02*
X070948Y029424D01*
X070948Y029423D02*
X070200Y029423D01*
X070200Y029422D02*
X070948Y029422D01*
X070948Y029421D02*
X070200Y029421D01*
X070200Y029420D02*
X070948Y029420D01*
X070948Y029419D02*
X070200Y029419D01*
X070200Y029418D02*
X070948Y029418D01*
X070948Y029417D02*
X070200Y029417D01*
X070200Y029416D02*
X070948Y029416D01*
X070948Y029415D02*
X070200Y029415D01*
X070200Y029414D02*
X070948Y029414D01*
X070948Y029413D02*
X070200Y029413D01*
X070200Y029412D02*
X070948Y029412D01*
X070948Y029411D02*
X070200Y029411D01*
X070200Y029410D02*
X070948Y029410D01*
X070948Y029409D02*
X070200Y029409D01*
X070200Y029408D02*
X070948Y029408D01*
X070948Y029407D02*
X070200Y029407D01*
X070200Y029406D02*
X070948Y029406D01*
X070948Y029405D02*
X070200Y029405D01*
X070200Y029404D02*
X070948Y029404D01*
X070948Y029403D02*
X070200Y029403D01*
X070200Y029402D02*
X070948Y029402D01*
X070948Y029401D02*
X070200Y029401D01*
X070200Y029400D02*
X070948Y029400D01*
X070948Y029399D02*
X070200Y029399D01*
X070200Y029398D02*
X070948Y029398D01*
X070948Y029397D02*
X070200Y029397D01*
X070200Y029396D02*
X070948Y029396D01*
X070948Y029395D02*
X070200Y029395D01*
X070200Y029394D02*
X070948Y029394D01*
X070948Y029393D02*
X070200Y029393D01*
X070200Y029392D02*
X070948Y029392D01*
X070948Y029391D02*
X070200Y029391D01*
X070200Y029390D02*
X070948Y029390D01*
X070948Y029389D02*
X070200Y029389D01*
X070200Y029388D02*
X070948Y029388D01*
X070948Y029387D02*
X070200Y029387D01*
X070200Y029386D02*
X070948Y029386D01*
X070948Y029385D02*
X070200Y029385D01*
X070200Y029384D02*
X070948Y029384D01*
X070948Y029383D02*
X070200Y029383D01*
X070200Y029382D02*
X070948Y029382D01*
X070948Y029381D02*
X070200Y029381D01*
X070200Y029380D02*
X070948Y029380D01*
X070948Y029379D02*
X070200Y029379D01*
X070200Y029378D02*
X070948Y029378D01*
X070948Y029377D02*
X070200Y029377D01*
X070200Y029376D02*
X070948Y029376D01*
X070948Y029375D02*
X070200Y029375D01*
X070200Y029374D02*
X070948Y029374D01*
X070948Y029373D02*
X070200Y029373D01*
X070200Y029372D02*
X070948Y029372D01*
X070948Y029371D02*
X070200Y029371D01*
X070200Y029370D02*
X070948Y029370D01*
X070948Y029369D02*
X070200Y029369D01*
X070200Y029368D02*
X070948Y029368D01*
X070948Y029367D02*
X070200Y029367D01*
X070200Y029366D02*
X070948Y029366D01*
X070948Y029365D02*
X070200Y029365D01*
X070200Y029364D02*
X070948Y029364D01*
X070948Y029363D02*
X070200Y029363D01*
X070200Y029362D02*
X070948Y029362D01*
X070948Y029361D02*
X070200Y029361D01*
X070200Y029360D02*
X070948Y029360D01*
X070948Y029359D02*
X070200Y029359D01*
X070200Y029358D02*
X070948Y029358D01*
X070948Y029357D02*
X070200Y029357D01*
X070200Y029356D02*
X070948Y029356D01*
X070948Y029355D02*
X070200Y029355D01*
X070200Y029354D02*
X070948Y029354D01*
X070948Y029353D02*
X070200Y029353D01*
X070200Y029352D02*
X070948Y029352D01*
X070948Y029351D02*
X070200Y029351D01*
X070200Y029350D02*
X070948Y029350D01*
X070948Y029349D02*
X070200Y029349D01*
X070200Y029348D02*
X070948Y029348D01*
X070948Y029347D02*
X070200Y029347D01*
X070200Y029346D02*
X070948Y029346D01*
X070948Y029345D02*
X070200Y029345D01*
X070200Y029344D02*
X070948Y029344D01*
X070948Y029343D02*
X070200Y029343D01*
X070200Y029342D02*
X070948Y029342D01*
X070948Y029341D02*
X070200Y029341D01*
X070200Y029340D02*
X070948Y029340D01*
X070948Y029339D02*
X070200Y029339D01*
X070200Y029338D02*
X070948Y029338D01*
X070948Y029337D02*
X070200Y029337D01*
X070200Y029336D02*
X070948Y029336D01*
X070948Y029335D02*
X070200Y029335D01*
X070200Y029334D02*
X070948Y029334D01*
X070948Y029333D02*
X070200Y029333D01*
X070200Y029332D02*
X070948Y029332D01*
X070948Y029331D02*
X070200Y029331D01*
X070200Y029330D02*
X070948Y029330D01*
X070948Y029329D02*
X070200Y029329D01*
X070200Y029328D02*
X070948Y029328D01*
X070948Y029327D02*
X070200Y029327D01*
X070200Y029326D02*
X070948Y029326D01*
X070948Y029325D02*
X070200Y029325D01*
X070200Y029324D02*
X070948Y029324D01*
X070948Y029323D02*
X070200Y029323D01*
X070200Y029322D02*
X070948Y029322D01*
X070948Y029321D02*
X070200Y029321D01*
X070200Y029320D02*
X070948Y029320D01*
X070948Y029319D02*
X070200Y029319D01*
X070200Y029318D02*
X070948Y029318D01*
X070948Y029317D02*
X070200Y029317D01*
X070200Y029316D02*
X070948Y029316D01*
X070948Y029315D02*
X070200Y029315D01*
X070200Y029314D02*
X070948Y029314D01*
X070948Y029313D02*
X070200Y029313D01*
X070200Y029312D02*
X070948Y029312D01*
X070948Y029311D02*
X070200Y029311D01*
X070200Y029310D02*
X070948Y029310D01*
X070948Y029309D02*
X070200Y029309D01*
X070200Y029308D02*
X070948Y029308D01*
X070948Y029307D02*
X070200Y029307D01*
X070200Y029306D02*
X070948Y029306D01*
X070948Y029305D02*
X070200Y029305D01*
X070200Y029304D02*
X070948Y029304D01*
X070948Y029303D02*
X070200Y029303D01*
X070200Y029302D02*
X070948Y029302D01*
X070948Y029301D02*
X070200Y029301D01*
X070200Y029300D02*
X070948Y029300D01*
X070948Y029299D02*
X070200Y029299D01*
X070200Y029298D02*
X070948Y029298D01*
X070948Y029297D02*
X070200Y029297D01*
X070200Y029296D02*
X070948Y029296D01*
X070948Y029295D02*
X070200Y029295D01*
X070200Y029294D02*
X070948Y029294D01*
X070948Y029293D02*
X070200Y029293D01*
X070200Y029292D02*
X070948Y029292D01*
X070948Y029291D02*
X070200Y029291D01*
X070200Y029290D02*
X070948Y029290D01*
X070948Y029289D02*
X070200Y029289D01*
X070200Y029288D02*
X070948Y029288D01*
X070948Y029287D02*
X070200Y029287D01*
X070200Y029286D02*
X070948Y029286D01*
X070948Y029285D02*
X070200Y029285D01*
X070200Y029284D02*
X070948Y029284D01*
X070948Y029283D02*
X070200Y029283D01*
X070200Y029282D02*
X070948Y029282D01*
X070948Y029281D02*
X070200Y029281D01*
X070200Y029280D02*
X070948Y029280D01*
X070948Y029279D02*
X070200Y029279D01*
X070200Y029278D02*
X070948Y029278D01*
X070948Y029277D02*
X070200Y029277D01*
X070200Y029276D02*
X070948Y029276D01*
X070948Y029275D02*
X070200Y029275D01*
X070200Y029274D02*
X070948Y029274D01*
X070948Y029273D02*
X070200Y029273D01*
X070200Y029272D02*
X070948Y029272D01*
X070948Y029271D02*
X070200Y029271D01*
X070200Y029270D02*
X070948Y029270D01*
X070948Y029269D02*
X070200Y029269D01*
X070200Y029268D02*
X070948Y029268D01*
X070948Y029267D02*
X070200Y029267D01*
X070200Y029266D02*
X070948Y029266D01*
X070948Y029265D02*
X070200Y029265D01*
X070200Y029264D02*
X070948Y029264D01*
X070948Y029263D02*
X070200Y029263D01*
X070200Y029262D02*
X070948Y029262D01*
X070948Y029261D02*
X070200Y029261D01*
X070200Y029260D02*
X070948Y029260D01*
X070948Y029259D02*
X070200Y029259D01*
X070200Y029258D02*
X070948Y029258D01*
X070948Y029257D02*
X070200Y029257D01*
X070200Y029256D02*
X070948Y029256D01*
X070948Y029255D02*
X070200Y029255D01*
X070200Y029254D02*
X070948Y029254D01*
X070948Y029253D02*
X070200Y029253D01*
X070200Y029252D02*
X070948Y029252D01*
X070948Y029251D02*
X070200Y029251D01*
X070200Y029250D02*
X070948Y029250D01*
X070948Y029249D02*
X070200Y029249D01*
X070200Y029248D02*
X070948Y029248D01*
X070948Y029247D02*
X070200Y029247D01*
X070200Y029246D02*
X070948Y029246D01*
X070948Y029245D02*
X070200Y029245D01*
X070200Y029244D02*
X070948Y029244D01*
X070948Y029243D02*
X070200Y029243D01*
X070200Y029242D02*
X070948Y029242D01*
X070948Y029241D02*
X070200Y029241D01*
X070200Y029240D02*
X070948Y029240D01*
X070948Y029239D02*
X070200Y029239D01*
X070200Y029238D02*
X070948Y029238D01*
X070200Y029238D01*
X070200Y029237D02*
X070948Y029237D01*
X070948Y029236D02*
X070200Y029236D01*
X070200Y029235D02*
X070948Y029235D01*
X070948Y029234D02*
X070200Y029234D01*
X070200Y029233D02*
X070948Y029233D01*
X070948Y029232D02*
X070200Y029232D01*
X070200Y029231D02*
X070948Y029231D01*
X070948Y029230D02*
X070200Y029230D01*
X070200Y029229D02*
X070948Y029229D01*
X070948Y029228D02*
X070200Y029228D01*
X070200Y029227D02*
X070948Y029227D01*
X070948Y029226D02*
X070200Y029226D01*
X070200Y029225D02*
X070948Y029225D01*
X070948Y029224D02*
X070200Y029224D01*
X070200Y029223D02*
X070948Y029223D01*
X070948Y029222D02*
X070200Y029222D01*
X070200Y029221D02*
X070948Y029221D01*
X070948Y029220D02*
X070200Y029220D01*
X070200Y029219D02*
X070948Y029219D01*
X070948Y029218D02*
X070200Y029218D01*
X070200Y029217D02*
X070948Y029217D01*
X070948Y029216D02*
X070200Y029216D01*
X070200Y029215D02*
X070948Y029215D01*
X070948Y029214D02*
X070200Y029214D01*
X070200Y029213D02*
X070948Y029213D01*
X070948Y029212D02*
X070200Y029212D01*
X070200Y029211D02*
X070948Y029211D01*
X070948Y029210D02*
X070200Y029210D01*
X070200Y029209D02*
X070948Y029209D01*
X070948Y029208D02*
X070200Y029208D01*
X070200Y029207D02*
X070948Y029207D01*
X070948Y029206D02*
X070200Y029206D01*
X070200Y029205D02*
X070948Y029205D01*
X070948Y029204D02*
X070200Y029204D01*
X070200Y029203D02*
X070948Y029203D01*
X070948Y029202D02*
X070200Y029202D01*
X070200Y029201D02*
X070948Y029201D01*
X070948Y029200D02*
X070200Y029200D01*
X070200Y029199D02*
X070948Y029199D01*
X070948Y029198D02*
X070200Y029198D01*
X070200Y029197D02*
X070948Y029197D01*
X070948Y029196D02*
X070200Y029196D01*
X070200Y029195D02*
X070948Y029195D01*
X070948Y029194D02*
X070200Y029194D01*
X070200Y029193D02*
X070948Y029193D01*
X070948Y029192D02*
X070200Y029192D01*
X070200Y029191D02*
X070948Y029191D01*
X070948Y029190D02*
X070200Y029190D01*
X070200Y029189D02*
X070948Y029189D01*
X070948Y029188D02*
X070200Y029188D01*
X070200Y029187D02*
X070948Y029187D01*
X070948Y029186D02*
X070200Y029186D01*
X070200Y029185D02*
X070948Y029185D01*
X070948Y029184D02*
X070200Y029184D01*
X070200Y029183D02*
X070948Y029183D01*
X070948Y029182D02*
X070200Y029182D01*
X070200Y029181D02*
X070948Y029181D01*
X070948Y029180D02*
X070200Y029180D01*
X070200Y029179D02*
X070948Y029179D01*
X070948Y029178D02*
X070200Y029178D01*
X070200Y029177D02*
X070948Y029177D01*
X070948Y029176D02*
X070200Y029176D01*
X070200Y029175D02*
X070948Y029175D01*
X070948Y029174D02*
X070200Y029174D01*
X070200Y029173D02*
X070948Y029173D01*
X070948Y029172D02*
X070200Y029172D01*
X070200Y029171D02*
X070948Y029171D01*
X070948Y029170D02*
X070200Y029170D01*
X070200Y029169D02*
X070948Y029169D01*
X070948Y029168D02*
X070200Y029168D01*
X070200Y029167D02*
X070948Y029167D01*
X070948Y029166D02*
X070200Y029166D01*
X070200Y029165D02*
X070948Y029165D01*
X070948Y029164D02*
X070200Y029164D01*
X070200Y029163D02*
X070948Y029163D01*
X070948Y029162D02*
X070200Y029162D01*
X070200Y029161D02*
X070948Y029161D01*
X070948Y029160D02*
X070200Y029160D01*
X070200Y029159D02*
X070948Y029159D01*
X070948Y029158D02*
X070200Y029158D01*
X070200Y029157D02*
X070948Y029157D01*
X070948Y029156D02*
X070200Y029156D01*
X070200Y029155D02*
X070948Y029155D01*
X070948Y029154D02*
X070200Y029154D01*
X070200Y029153D02*
X070948Y029153D01*
X070948Y029152D02*
X070200Y029152D01*
X070200Y029151D02*
X070948Y029151D01*
X070948Y029150D02*
X070200Y029150D01*
X070200Y029149D02*
X070948Y029149D01*
X070948Y029148D02*
X070200Y029148D01*
X070200Y029147D02*
X070948Y029147D01*
X070948Y029146D02*
X070200Y029146D01*
X070200Y029145D02*
X070948Y029145D01*
X070948Y029144D02*
X070200Y029144D01*
X070200Y029143D02*
X070948Y029143D01*
X070948Y029142D02*
X070200Y029142D01*
X070200Y029141D02*
X070948Y029141D01*
X070948Y029140D02*
X070200Y029140D01*
X070200Y029139D02*
X070948Y029139D01*
X070948Y029138D02*
X070200Y029138D01*
X070200Y029137D02*
X070948Y029137D01*
X070948Y029136D02*
X070200Y029136D01*
X070200Y029135D02*
X070948Y029135D01*
X070948Y029134D02*
X070200Y029134D01*
X070200Y029133D02*
X070948Y029133D01*
X070948Y029132D02*
X070200Y029132D01*
X070200Y029131D02*
X070948Y029131D01*
X070948Y029130D02*
X070200Y029130D01*
X070200Y029129D02*
X070948Y029129D01*
X070948Y029128D02*
X070200Y029128D01*
X070200Y029127D02*
X070948Y029127D01*
X070948Y029126D02*
X070200Y029126D01*
X070200Y029125D02*
X070948Y029125D01*
X070948Y029124D02*
X070200Y029124D01*
X070200Y029123D02*
X070948Y029123D01*
X070948Y029122D02*
X070200Y029122D01*
X070200Y029121D02*
X070948Y029121D01*
X070948Y029120D02*
X070200Y029120D01*
X070200Y029119D02*
X070948Y029119D01*
X070948Y029118D02*
X070200Y029118D01*
X070200Y029117D02*
X070948Y029117D01*
X070948Y029116D02*
X070200Y029116D01*
X070200Y029115D02*
X070948Y029115D01*
X070948Y029114D02*
X070200Y029114D01*
X070200Y029113D02*
X070948Y029113D01*
X070948Y029112D02*
X070200Y029112D01*
X070200Y029111D02*
X070948Y029111D01*
X070948Y029110D02*
X070200Y029110D01*
X070200Y029109D02*
X070948Y029109D01*
X070948Y029108D02*
X070200Y029108D01*
X070200Y029107D02*
X070948Y029107D01*
X070948Y029106D02*
X070200Y029106D01*
X070200Y029105D02*
X070948Y029105D01*
X070948Y029104D02*
X070200Y029104D01*
X070200Y029103D02*
X070948Y029103D01*
X070948Y029102D02*
X070200Y029102D01*
X070200Y029101D02*
X070948Y029101D01*
X070948Y029100D02*
X070200Y029100D01*
X070200Y029099D02*
X070948Y029099D01*
X070948Y029098D02*
X070200Y029098D01*
X070200Y029097D02*
X070948Y029097D01*
X070948Y029096D02*
X070200Y029096D01*
X070200Y029095D02*
X070948Y029095D01*
X070948Y029094D02*
X070200Y029094D01*
X070200Y029093D02*
X070948Y029093D01*
X070948Y029092D02*
X070200Y029092D01*
X070200Y029091D02*
X070948Y029091D01*
X070948Y029090D02*
X070200Y029090D01*
X070200Y029089D02*
X070948Y029089D01*
X070948Y029088D02*
X070200Y029088D01*
X070200Y029087D02*
X070948Y029087D01*
X070948Y029086D02*
X070200Y029086D01*
X070200Y029085D02*
X070948Y029085D01*
X070948Y029084D02*
X070200Y029084D01*
X070200Y029083D02*
X070948Y029083D01*
X070948Y029082D02*
X070200Y029082D01*
X070200Y029081D02*
X070948Y029081D01*
X070948Y029080D02*
X070200Y029080D01*
X070200Y029079D02*
X070948Y029079D01*
X070948Y029078D02*
X070200Y029078D01*
X070200Y029077D02*
X070948Y029077D01*
X070947Y029076D02*
X070200Y029076D01*
X070200Y029075D02*
X070947Y029075D01*
X070947Y029074D02*
X070200Y029074D01*
X070200Y029073D02*
X070947Y029073D01*
X070947Y029072D02*
X070200Y029072D01*
X070200Y029071D02*
X070947Y029071D01*
X070947Y029070D02*
X070201Y029070D01*
X070201Y029069D02*
X070947Y029069D01*
X070947Y029068D02*
X070201Y029068D01*
X070201Y029067D02*
X070946Y029067D01*
X070946Y029066D02*
X070201Y029066D01*
X070201Y029065D02*
X070946Y029065D01*
X070946Y029064D02*
X070201Y029064D01*
X070201Y029063D02*
X070946Y029063D01*
X070946Y029062D02*
X070201Y029062D01*
X070202Y029061D02*
X070946Y029061D01*
X070946Y029060D02*
X070202Y029060D01*
X070202Y029059D02*
X070946Y029059D01*
X070945Y029058D02*
X070202Y029058D01*
X070202Y029057D02*
X070945Y029057D01*
X070945Y029056D02*
X070202Y029056D01*
X070202Y029055D02*
X070945Y029055D01*
X070945Y029054D02*
X070202Y029054D01*
X070202Y029053D02*
X070945Y029053D01*
X070945Y029052D02*
X070203Y029052D01*
X070203Y029051D02*
X070945Y029051D01*
X070945Y029050D02*
X070203Y029050D01*
X070203Y029049D02*
X070944Y029049D01*
X070944Y029048D02*
X070203Y029048D01*
X070203Y029047D02*
X070944Y029047D01*
X070944Y029046D02*
X070203Y029046D01*
X070203Y029045D02*
X070944Y029045D01*
X070944Y029044D02*
X070204Y029044D01*
X070204Y029043D02*
X070944Y029043D01*
X070944Y029042D02*
X070204Y029042D01*
X070204Y029041D02*
X070944Y029041D01*
X070943Y029040D02*
X070204Y029040D01*
X070204Y029039D02*
X070943Y029039D01*
X070943Y029038D02*
X070204Y029038D01*
X070204Y029037D02*
X070943Y029037D01*
X070943Y029036D02*
X070204Y029036D01*
X070205Y029035D02*
X070943Y029035D01*
X070943Y029034D02*
X070205Y029034D01*
X070205Y029033D02*
X070942Y029033D01*
X070942Y029032D02*
X070205Y029032D01*
X070206Y029031D02*
X070942Y029031D01*
X070941Y029030D02*
X070206Y029030D01*
X070206Y029029D02*
X070941Y029029D01*
X070941Y029028D02*
X070207Y029028D01*
X070207Y029027D02*
X070940Y029027D01*
X070940Y029026D02*
X070207Y029026D01*
X070208Y029025D02*
X070940Y029025D01*
X070939Y029024D02*
X070208Y029024D01*
X070209Y029023D02*
X070939Y029023D01*
X070939Y029022D02*
X070209Y029022D01*
X070209Y029021D02*
X070938Y029021D01*
X070938Y029020D02*
X070210Y029020D01*
X070210Y029019D02*
X070937Y029019D01*
X070937Y029018D02*
X070210Y029018D01*
X070211Y029017D02*
X070937Y029017D01*
X070936Y029016D02*
X070211Y029016D01*
X070211Y029015D02*
X070936Y029015D01*
X070936Y029014D02*
X070212Y029014D01*
X070212Y029013D02*
X070935Y029013D01*
X070935Y029012D02*
X070212Y029012D01*
X070213Y029011D02*
X070935Y029011D01*
X070934Y029010D02*
X070213Y029010D01*
X070213Y029009D02*
X070934Y029009D01*
X070934Y029008D02*
X070214Y029008D01*
X070214Y029007D02*
X070933Y029007D01*
X070933Y029006D02*
X070214Y029006D01*
X070215Y029005D02*
X070933Y029005D01*
X070932Y029004D02*
X070215Y029004D01*
X070216Y029003D02*
X070932Y029003D01*
X070932Y029002D02*
X070216Y029002D01*
X070216Y029001D02*
X070931Y029001D01*
X070931Y029000D02*
X070217Y029000D01*
X070217Y028999D02*
X070930Y028999D01*
X070930Y028998D02*
X070217Y028998D01*
X070218Y028997D02*
X070930Y028997D01*
X070929Y028996D02*
X070218Y028996D01*
X070218Y028995D02*
X070929Y028995D01*
X070929Y028994D02*
X070219Y028994D01*
X070219Y028993D02*
X070928Y028993D01*
X070928Y028992D02*
X070219Y028992D01*
X070220Y028991D02*
X070927Y028991D01*
X070927Y028990D02*
X070221Y028990D01*
X070221Y028989D02*
X070926Y028989D01*
X070925Y028988D02*
X070222Y028988D01*
X070223Y028987D02*
X070925Y028987D01*
X070924Y028986D02*
X070223Y028986D01*
X070224Y028985D02*
X070924Y028985D01*
X070923Y028984D02*
X070225Y028984D01*
X070225Y028983D02*
X070922Y028983D01*
X070922Y028982D02*
X070226Y028982D01*
X070226Y028981D02*
X070921Y028981D01*
X070920Y028980D02*
X070227Y028980D01*
X070228Y028979D02*
X070920Y028979D01*
X070919Y028978D02*
X070228Y028978D01*
X070229Y028977D02*
X070919Y028977D01*
X070918Y028976D02*
X070230Y028976D01*
X070230Y028975D02*
X070917Y028975D01*
X070917Y028974D02*
X070231Y028974D01*
X070231Y028973D02*
X070916Y028973D01*
X070915Y028972D02*
X070232Y028972D01*
X070233Y028971D02*
X070915Y028971D01*
X070914Y028970D02*
X070233Y028970D01*
X070234Y028969D02*
X070913Y028969D01*
X070913Y028968D02*
X070235Y028968D01*
X070235Y028967D02*
X070912Y028967D01*
X070912Y028966D02*
X070236Y028966D01*
X070236Y028965D02*
X070911Y028965D01*
X070910Y028964D02*
X070237Y028964D01*
X070238Y028963D02*
X070910Y028963D01*
X070909Y028962D02*
X070238Y028962D01*
X070239Y028961D02*
X070908Y028961D01*
X070908Y028960D02*
X070240Y028960D01*
X070240Y028959D02*
X070907Y028959D01*
X070907Y028958D02*
X070241Y028958D01*
X070241Y028957D02*
X070906Y028957D01*
X070905Y028956D02*
X070242Y028956D01*
X070243Y028955D02*
X070905Y028955D01*
X070904Y028954D02*
X070244Y028954D01*
X070245Y028953D02*
X070903Y028953D01*
X070902Y028952D02*
X070246Y028952D01*
X070247Y028951D02*
X070901Y028951D01*
X070900Y028950D02*
X070248Y028950D01*
X070249Y028949D02*
X070899Y028949D01*
X070898Y028948D02*
X070250Y028948D01*
X070251Y028947D02*
X070897Y028947D01*
X070896Y028946D02*
X070252Y028946D01*
X070253Y028945D02*
X070895Y028945D01*
X070894Y028944D02*
X070254Y028944D01*
X070255Y028943D02*
X070893Y028943D01*
X070892Y028942D02*
X070256Y028942D01*
X070257Y028941D02*
X070891Y028941D01*
X070890Y028940D02*
X070258Y028940D01*
X070259Y028939D02*
X070889Y028939D01*
X070888Y028938D02*
X070260Y028938D01*
X070261Y028937D02*
X070887Y028937D01*
X070886Y028936D02*
X070262Y028936D01*
X070263Y028935D02*
X070885Y028935D01*
X070884Y028934D02*
X070264Y028934D01*
X070265Y028933D02*
X070883Y028933D01*
X070882Y028932D02*
X070266Y028932D01*
X070267Y028931D02*
X070881Y028931D01*
X070880Y028930D02*
X070268Y028930D01*
X070269Y028929D02*
X070879Y028929D01*
X070878Y028928D02*
X070270Y028928D01*
X070271Y028927D02*
X070877Y028927D01*
X070876Y028926D02*
X070272Y028926D01*
X070273Y028925D02*
X070875Y028925D01*
X070874Y028924D02*
X070274Y028924D01*
X070275Y028923D02*
X070872Y028923D01*
X070871Y028922D02*
X070277Y028922D01*
X070278Y028921D02*
X070869Y028921D01*
X070867Y028920D02*
X070280Y028920D01*
X070282Y028919D02*
X070866Y028919D01*
X070864Y028918D02*
X070283Y028918D01*
X070285Y028917D02*
X070863Y028917D01*
X070861Y028916D02*
X070286Y028916D01*
X070288Y028915D02*
X070859Y028915D01*
X070858Y028914D02*
X070290Y028914D01*
X070291Y028913D02*
X070856Y028913D01*
X070855Y028912D02*
X070293Y028912D01*
X070294Y028911D02*
X070853Y028911D01*
X070851Y028910D02*
X070296Y028910D01*
X070298Y028909D02*
X070850Y028909D01*
X070848Y028908D02*
X070299Y028908D01*
X070301Y028907D02*
X070847Y028907D01*
X070845Y028906D02*
X070302Y028906D01*
X070304Y028905D02*
X070844Y028905D01*
X070842Y028904D02*
X070305Y028904D01*
X070307Y028903D02*
X070840Y028903D01*
X070839Y028902D02*
X070309Y028902D01*
X070310Y028901D02*
X070837Y028901D01*
X070835Y028900D02*
X070312Y028900D01*
X070315Y028899D02*
X070832Y028899D01*
X070829Y028898D02*
X070318Y028898D01*
X070321Y028897D02*
X070826Y028897D01*
X070824Y028896D02*
X070324Y028896D01*
X070327Y028895D02*
X070821Y028895D01*
X070818Y028894D02*
X070330Y028894D01*
X070332Y028893D02*
X070815Y028893D01*
X070812Y028892D02*
X070335Y028892D01*
X070338Y028891D02*
X070809Y028891D01*
X070806Y028890D02*
X070341Y028890D01*
X070344Y028889D02*
X070804Y028889D01*
X070801Y028888D02*
X070347Y028888D01*
X070350Y028887D02*
X070798Y028887D01*
X070795Y028886D02*
X070352Y028886D01*
X070361Y028885D02*
X070787Y028885D01*
X070778Y028884D02*
X070369Y028884D01*
X070378Y028883D02*
X070769Y028883D01*
X070760Y028882D02*
X070387Y028882D01*
X070396Y028881D02*
X070751Y028881D01*
D17*
X020731Y010810D03*
X022306Y023408D03*
X030574Y023408D03*
X037660Y013172D03*
X044747Y013172D03*
X048684Y023408D03*
X061282Y010810D03*
X067582Y027595D03*
X067582Y033395D03*
X048684Y037582D03*
X044747Y047818D03*
X037660Y047818D03*
X030574Y037582D03*
X022306Y037582D03*
X012070Y033395D03*
X012070Y027595D03*
X020731Y050180D03*
X061282Y050180D03*
M02*
