G75*
%MOIN*%
%OFA0B0*%
%FSLAX24Y24*%
%IPPOS*%
%LPD*%
%AMOC8*
5,1,8,0,0,1.08239X$1,22.5*
%
%ADD10C,0.0039*%
%ADD11C,0.0050*%
%ADD12C,0.0000*%
D10*
X023487Y014747D02*
X023489Y014816D01*
X023495Y014884D01*
X023505Y014952D01*
X023519Y015019D01*
X023537Y015086D01*
X023558Y015151D01*
X023584Y015215D01*
X023613Y015277D01*
X023645Y015337D01*
X023681Y015396D01*
X023721Y015452D01*
X023763Y015506D01*
X023809Y015557D01*
X023858Y015606D01*
X023909Y015652D01*
X023963Y015694D01*
X024019Y015734D01*
X024077Y015770D01*
X024138Y015802D01*
X024200Y015831D01*
X024264Y015857D01*
X024329Y015878D01*
X024396Y015896D01*
X024463Y015910D01*
X024531Y015920D01*
X024599Y015926D01*
X024668Y015928D01*
X024737Y015926D01*
X024805Y015920D01*
X024873Y015910D01*
X024940Y015896D01*
X025007Y015878D01*
X025072Y015857D01*
X025136Y015831D01*
X025198Y015802D01*
X025258Y015770D01*
X025317Y015734D01*
X025373Y015694D01*
X025427Y015652D01*
X025478Y015606D01*
X025527Y015557D01*
X025573Y015506D01*
X025615Y015452D01*
X025655Y015396D01*
X025691Y015337D01*
X025723Y015277D01*
X025752Y015215D01*
X025778Y015151D01*
X025799Y015086D01*
X025817Y015019D01*
X025831Y014952D01*
X025841Y014884D01*
X025847Y014816D01*
X025849Y014747D01*
X025847Y014678D01*
X025841Y014610D01*
X025831Y014542D01*
X025817Y014475D01*
X025799Y014408D01*
X025778Y014343D01*
X025752Y014279D01*
X025723Y014217D01*
X025691Y014156D01*
X025655Y014098D01*
X025615Y014042D01*
X025573Y013988D01*
X025527Y013937D01*
X025478Y013888D01*
X025427Y013842D01*
X025373Y013800D01*
X025317Y013760D01*
X025259Y013724D01*
X025198Y013692D01*
X025136Y013663D01*
X025072Y013637D01*
X025007Y013616D01*
X024940Y013598D01*
X024873Y013584D01*
X024805Y013574D01*
X024737Y013568D01*
X024668Y013566D01*
X024599Y013568D01*
X024531Y013574D01*
X024463Y013584D01*
X024396Y013598D01*
X024329Y013616D01*
X024264Y013637D01*
X024200Y013663D01*
X024138Y013692D01*
X024077Y013724D01*
X024019Y013760D01*
X023963Y013800D01*
X023909Y013842D01*
X023858Y013888D01*
X023809Y013937D01*
X023763Y013988D01*
X023721Y014042D01*
X023681Y014098D01*
X023645Y014156D01*
X023613Y014217D01*
X023584Y014279D01*
X023558Y014343D01*
X023537Y014408D01*
X023519Y014475D01*
X023505Y014542D01*
X023495Y014610D01*
X023489Y014678D01*
X023487Y014747D01*
X023487Y018684D02*
X023489Y018753D01*
X023495Y018821D01*
X023505Y018889D01*
X023519Y018956D01*
X023537Y019023D01*
X023558Y019088D01*
X023584Y019152D01*
X023613Y019214D01*
X023645Y019274D01*
X023681Y019333D01*
X023721Y019389D01*
X023763Y019443D01*
X023809Y019494D01*
X023858Y019543D01*
X023909Y019589D01*
X023963Y019631D01*
X024019Y019671D01*
X024077Y019707D01*
X024138Y019739D01*
X024200Y019768D01*
X024264Y019794D01*
X024329Y019815D01*
X024396Y019833D01*
X024463Y019847D01*
X024531Y019857D01*
X024599Y019863D01*
X024668Y019865D01*
X024737Y019863D01*
X024805Y019857D01*
X024873Y019847D01*
X024940Y019833D01*
X025007Y019815D01*
X025072Y019794D01*
X025136Y019768D01*
X025198Y019739D01*
X025258Y019707D01*
X025317Y019671D01*
X025373Y019631D01*
X025427Y019589D01*
X025478Y019543D01*
X025527Y019494D01*
X025573Y019443D01*
X025615Y019389D01*
X025655Y019333D01*
X025691Y019274D01*
X025723Y019214D01*
X025752Y019152D01*
X025778Y019088D01*
X025799Y019023D01*
X025817Y018956D01*
X025831Y018889D01*
X025841Y018821D01*
X025847Y018753D01*
X025849Y018684D01*
X025847Y018615D01*
X025841Y018547D01*
X025831Y018479D01*
X025817Y018412D01*
X025799Y018345D01*
X025778Y018280D01*
X025752Y018216D01*
X025723Y018154D01*
X025691Y018093D01*
X025655Y018035D01*
X025615Y017979D01*
X025573Y017925D01*
X025527Y017874D01*
X025478Y017825D01*
X025427Y017779D01*
X025373Y017737D01*
X025317Y017697D01*
X025259Y017661D01*
X025198Y017629D01*
X025136Y017600D01*
X025072Y017574D01*
X025007Y017553D01*
X024940Y017535D01*
X024873Y017521D01*
X024805Y017511D01*
X024737Y017505D01*
X024668Y017503D01*
X024599Y017505D01*
X024531Y017511D01*
X024463Y017521D01*
X024396Y017535D01*
X024329Y017553D01*
X024264Y017574D01*
X024200Y017600D01*
X024138Y017629D01*
X024077Y017661D01*
X024019Y017697D01*
X023963Y017737D01*
X023909Y017779D01*
X023858Y017825D01*
X023809Y017874D01*
X023763Y017925D01*
X023721Y017979D01*
X023681Y018035D01*
X023645Y018093D01*
X023613Y018154D01*
X023584Y018216D01*
X023558Y018280D01*
X023537Y018345D01*
X023519Y018412D01*
X023505Y018479D01*
X023495Y018547D01*
X023489Y018615D01*
X023487Y018684D01*
X027424Y018684D02*
X027426Y018753D01*
X027432Y018821D01*
X027442Y018889D01*
X027456Y018956D01*
X027474Y019023D01*
X027495Y019088D01*
X027521Y019152D01*
X027550Y019214D01*
X027582Y019274D01*
X027618Y019333D01*
X027658Y019389D01*
X027700Y019443D01*
X027746Y019494D01*
X027795Y019543D01*
X027846Y019589D01*
X027900Y019631D01*
X027956Y019671D01*
X028014Y019707D01*
X028075Y019739D01*
X028137Y019768D01*
X028201Y019794D01*
X028266Y019815D01*
X028333Y019833D01*
X028400Y019847D01*
X028468Y019857D01*
X028536Y019863D01*
X028605Y019865D01*
X028674Y019863D01*
X028742Y019857D01*
X028810Y019847D01*
X028877Y019833D01*
X028944Y019815D01*
X029009Y019794D01*
X029073Y019768D01*
X029135Y019739D01*
X029195Y019707D01*
X029254Y019671D01*
X029310Y019631D01*
X029364Y019589D01*
X029415Y019543D01*
X029464Y019494D01*
X029510Y019443D01*
X029552Y019389D01*
X029592Y019333D01*
X029628Y019274D01*
X029660Y019214D01*
X029689Y019152D01*
X029715Y019088D01*
X029736Y019023D01*
X029754Y018956D01*
X029768Y018889D01*
X029778Y018821D01*
X029784Y018753D01*
X029786Y018684D01*
X029784Y018615D01*
X029778Y018547D01*
X029768Y018479D01*
X029754Y018412D01*
X029736Y018345D01*
X029715Y018280D01*
X029689Y018216D01*
X029660Y018154D01*
X029628Y018093D01*
X029592Y018035D01*
X029552Y017979D01*
X029510Y017925D01*
X029464Y017874D01*
X029415Y017825D01*
X029364Y017779D01*
X029310Y017737D01*
X029254Y017697D01*
X029196Y017661D01*
X029135Y017629D01*
X029073Y017600D01*
X029009Y017574D01*
X028944Y017553D01*
X028877Y017535D01*
X028810Y017521D01*
X028742Y017511D01*
X028674Y017505D01*
X028605Y017503D01*
X028536Y017505D01*
X028468Y017511D01*
X028400Y017521D01*
X028333Y017535D01*
X028266Y017553D01*
X028201Y017574D01*
X028137Y017600D01*
X028075Y017629D01*
X028014Y017661D01*
X027956Y017697D01*
X027900Y017737D01*
X027846Y017779D01*
X027795Y017825D01*
X027746Y017874D01*
X027700Y017925D01*
X027658Y017979D01*
X027618Y018035D01*
X027582Y018093D01*
X027550Y018154D01*
X027521Y018216D01*
X027495Y018280D01*
X027474Y018345D01*
X027456Y018412D01*
X027442Y018479D01*
X027432Y018547D01*
X027426Y018615D01*
X027424Y018684D01*
X027424Y014747D02*
X027426Y014816D01*
X027432Y014884D01*
X027442Y014952D01*
X027456Y015019D01*
X027474Y015086D01*
X027495Y015151D01*
X027521Y015215D01*
X027550Y015277D01*
X027582Y015337D01*
X027618Y015396D01*
X027658Y015452D01*
X027700Y015506D01*
X027746Y015557D01*
X027795Y015606D01*
X027846Y015652D01*
X027900Y015694D01*
X027956Y015734D01*
X028014Y015770D01*
X028075Y015802D01*
X028137Y015831D01*
X028201Y015857D01*
X028266Y015878D01*
X028333Y015896D01*
X028400Y015910D01*
X028468Y015920D01*
X028536Y015926D01*
X028605Y015928D01*
X028674Y015926D01*
X028742Y015920D01*
X028810Y015910D01*
X028877Y015896D01*
X028944Y015878D01*
X029009Y015857D01*
X029073Y015831D01*
X029135Y015802D01*
X029195Y015770D01*
X029254Y015734D01*
X029310Y015694D01*
X029364Y015652D01*
X029415Y015606D01*
X029464Y015557D01*
X029510Y015506D01*
X029552Y015452D01*
X029592Y015396D01*
X029628Y015337D01*
X029660Y015277D01*
X029689Y015215D01*
X029715Y015151D01*
X029736Y015086D01*
X029754Y015019D01*
X029768Y014952D01*
X029778Y014884D01*
X029784Y014816D01*
X029786Y014747D01*
X029784Y014678D01*
X029778Y014610D01*
X029768Y014542D01*
X029754Y014475D01*
X029736Y014408D01*
X029715Y014343D01*
X029689Y014279D01*
X029660Y014217D01*
X029628Y014156D01*
X029592Y014098D01*
X029552Y014042D01*
X029510Y013988D01*
X029464Y013937D01*
X029415Y013888D01*
X029364Y013842D01*
X029310Y013800D01*
X029254Y013760D01*
X029196Y013724D01*
X029135Y013692D01*
X029073Y013663D01*
X029009Y013637D01*
X028944Y013616D01*
X028877Y013598D01*
X028810Y013584D01*
X028742Y013574D01*
X028674Y013568D01*
X028605Y013566D01*
X028536Y013568D01*
X028468Y013574D01*
X028400Y013584D01*
X028333Y013598D01*
X028266Y013616D01*
X028201Y013637D01*
X028137Y013663D01*
X028075Y013692D01*
X028014Y013724D01*
X027956Y013760D01*
X027900Y013800D01*
X027846Y013842D01*
X027795Y013888D01*
X027746Y013937D01*
X027700Y013988D01*
X027658Y014042D01*
X027618Y014098D01*
X027582Y014156D01*
X027550Y014217D01*
X027521Y014279D01*
X027495Y014343D01*
X027474Y014408D01*
X027456Y014475D01*
X027442Y014542D01*
X027432Y014610D01*
X027426Y014678D01*
X027424Y014747D01*
X018763Y028526D02*
X018765Y028595D01*
X018771Y028663D01*
X018781Y028731D01*
X018795Y028798D01*
X018813Y028865D01*
X018834Y028930D01*
X018860Y028994D01*
X018889Y029056D01*
X018921Y029116D01*
X018957Y029175D01*
X018997Y029231D01*
X019039Y029285D01*
X019085Y029336D01*
X019134Y029385D01*
X019185Y029431D01*
X019239Y029473D01*
X019295Y029513D01*
X019353Y029549D01*
X019414Y029581D01*
X019476Y029610D01*
X019540Y029636D01*
X019605Y029657D01*
X019672Y029675D01*
X019739Y029689D01*
X019807Y029699D01*
X019875Y029705D01*
X019944Y029707D01*
X020013Y029705D01*
X020081Y029699D01*
X020149Y029689D01*
X020216Y029675D01*
X020283Y029657D01*
X020348Y029636D01*
X020412Y029610D01*
X020474Y029581D01*
X020534Y029549D01*
X020593Y029513D01*
X020649Y029473D01*
X020703Y029431D01*
X020754Y029385D01*
X020803Y029336D01*
X020849Y029285D01*
X020891Y029231D01*
X020931Y029175D01*
X020967Y029116D01*
X020999Y029056D01*
X021028Y028994D01*
X021054Y028930D01*
X021075Y028865D01*
X021093Y028798D01*
X021107Y028731D01*
X021117Y028663D01*
X021123Y028595D01*
X021125Y028526D01*
X021123Y028457D01*
X021117Y028389D01*
X021107Y028321D01*
X021093Y028254D01*
X021075Y028187D01*
X021054Y028122D01*
X021028Y028058D01*
X020999Y027996D01*
X020967Y027935D01*
X020931Y027877D01*
X020891Y027821D01*
X020849Y027767D01*
X020803Y027716D01*
X020754Y027667D01*
X020703Y027621D01*
X020649Y027579D01*
X020593Y027539D01*
X020535Y027503D01*
X020474Y027471D01*
X020412Y027442D01*
X020348Y027416D01*
X020283Y027395D01*
X020216Y027377D01*
X020149Y027363D01*
X020081Y027353D01*
X020013Y027347D01*
X019944Y027345D01*
X019875Y027347D01*
X019807Y027353D01*
X019739Y027363D01*
X019672Y027377D01*
X019605Y027395D01*
X019540Y027416D01*
X019476Y027442D01*
X019414Y027471D01*
X019353Y027503D01*
X019295Y027539D01*
X019239Y027579D01*
X019185Y027621D01*
X019134Y027667D01*
X019085Y027716D01*
X019039Y027767D01*
X018997Y027821D01*
X018957Y027877D01*
X018921Y027935D01*
X018889Y027996D01*
X018860Y028058D01*
X018834Y028122D01*
X018813Y028187D01*
X018795Y028254D01*
X018781Y028321D01*
X018771Y028389D01*
X018765Y028457D01*
X018763Y028526D01*
X014826Y028526D02*
X014828Y028595D01*
X014834Y028663D01*
X014844Y028731D01*
X014858Y028798D01*
X014876Y028865D01*
X014897Y028930D01*
X014923Y028994D01*
X014952Y029056D01*
X014984Y029116D01*
X015020Y029175D01*
X015060Y029231D01*
X015102Y029285D01*
X015148Y029336D01*
X015197Y029385D01*
X015248Y029431D01*
X015302Y029473D01*
X015358Y029513D01*
X015416Y029549D01*
X015477Y029581D01*
X015539Y029610D01*
X015603Y029636D01*
X015668Y029657D01*
X015735Y029675D01*
X015802Y029689D01*
X015870Y029699D01*
X015938Y029705D01*
X016007Y029707D01*
X016076Y029705D01*
X016144Y029699D01*
X016212Y029689D01*
X016279Y029675D01*
X016346Y029657D01*
X016411Y029636D01*
X016475Y029610D01*
X016537Y029581D01*
X016597Y029549D01*
X016656Y029513D01*
X016712Y029473D01*
X016766Y029431D01*
X016817Y029385D01*
X016866Y029336D01*
X016912Y029285D01*
X016954Y029231D01*
X016994Y029175D01*
X017030Y029116D01*
X017062Y029056D01*
X017091Y028994D01*
X017117Y028930D01*
X017138Y028865D01*
X017156Y028798D01*
X017170Y028731D01*
X017180Y028663D01*
X017186Y028595D01*
X017188Y028526D01*
X017186Y028457D01*
X017180Y028389D01*
X017170Y028321D01*
X017156Y028254D01*
X017138Y028187D01*
X017117Y028122D01*
X017091Y028058D01*
X017062Y027996D01*
X017030Y027935D01*
X016994Y027877D01*
X016954Y027821D01*
X016912Y027767D01*
X016866Y027716D01*
X016817Y027667D01*
X016766Y027621D01*
X016712Y027579D01*
X016656Y027539D01*
X016598Y027503D01*
X016537Y027471D01*
X016475Y027442D01*
X016411Y027416D01*
X016346Y027395D01*
X016279Y027377D01*
X016212Y027363D01*
X016144Y027353D01*
X016076Y027347D01*
X016007Y027345D01*
X015938Y027347D01*
X015870Y027353D01*
X015802Y027363D01*
X015735Y027377D01*
X015668Y027395D01*
X015603Y027416D01*
X015539Y027442D01*
X015477Y027471D01*
X015416Y027503D01*
X015358Y027539D01*
X015302Y027579D01*
X015248Y027621D01*
X015197Y027667D01*
X015148Y027716D01*
X015102Y027767D01*
X015060Y027821D01*
X015020Y027877D01*
X014984Y027935D01*
X014952Y027996D01*
X014923Y028058D01*
X014897Y028122D01*
X014876Y028187D01*
X014858Y028254D01*
X014844Y028321D01*
X014834Y028389D01*
X014828Y028457D01*
X014826Y028526D01*
X009157Y030495D02*
X009159Y030603D01*
X009165Y030710D01*
X009175Y030817D01*
X009189Y030924D01*
X009207Y031030D01*
X009228Y031136D01*
X009254Y031240D01*
X009283Y031344D01*
X009317Y031446D01*
X009354Y031547D01*
X009394Y031647D01*
X009439Y031745D01*
X009487Y031841D01*
X009538Y031936D01*
X009593Y032028D01*
X009652Y032119D01*
X009713Y032207D01*
X009778Y032293D01*
X009846Y032377D01*
X009917Y032457D01*
X009991Y032536D01*
X010068Y032611D01*
X010148Y032684D01*
X010230Y032753D01*
X010315Y032820D01*
X010402Y032883D01*
X010491Y032943D01*
X010583Y033000D01*
X010676Y033053D01*
X010772Y033103D01*
X010869Y033149D01*
X010968Y033191D01*
X011068Y033230D01*
X011170Y033265D01*
X011273Y033297D01*
X011377Y033324D01*
X011482Y033348D01*
X011588Y033368D01*
X011694Y033384D01*
X011801Y033396D01*
X011909Y033404D01*
X012016Y033408D01*
X012124Y033408D01*
X012231Y033404D01*
X012339Y033396D01*
X012446Y033384D01*
X012552Y033368D01*
X012658Y033348D01*
X012763Y033324D01*
X012867Y033297D01*
X012970Y033265D01*
X013072Y033230D01*
X013172Y033191D01*
X013271Y033149D01*
X013368Y033103D01*
X013464Y033053D01*
X013557Y033000D01*
X013649Y032943D01*
X013738Y032883D01*
X013825Y032820D01*
X013910Y032753D01*
X013992Y032684D01*
X014072Y032611D01*
X014149Y032536D01*
X014223Y032457D01*
X014294Y032377D01*
X014362Y032293D01*
X014427Y032207D01*
X014488Y032119D01*
X014547Y032028D01*
X014602Y031936D01*
X014653Y031841D01*
X014701Y031745D01*
X014746Y031647D01*
X014786Y031547D01*
X014823Y031446D01*
X014857Y031344D01*
X014886Y031240D01*
X014912Y031136D01*
X014933Y031030D01*
X014951Y030924D01*
X014965Y030817D01*
X014975Y030710D01*
X014981Y030603D01*
X014983Y030495D01*
X014981Y030387D01*
X014975Y030280D01*
X014965Y030173D01*
X014951Y030066D01*
X014933Y029960D01*
X014912Y029854D01*
X014886Y029750D01*
X014857Y029646D01*
X014823Y029544D01*
X014786Y029443D01*
X014746Y029343D01*
X014701Y029245D01*
X014653Y029149D01*
X014602Y029054D01*
X014547Y028962D01*
X014488Y028871D01*
X014427Y028783D01*
X014362Y028697D01*
X014294Y028613D01*
X014223Y028533D01*
X014149Y028454D01*
X014072Y028379D01*
X013992Y028306D01*
X013910Y028237D01*
X013825Y028170D01*
X013738Y028107D01*
X013649Y028047D01*
X013557Y027990D01*
X013464Y027937D01*
X013368Y027887D01*
X013271Y027841D01*
X013172Y027799D01*
X013072Y027760D01*
X012970Y027725D01*
X012867Y027693D01*
X012763Y027666D01*
X012658Y027642D01*
X012552Y027622D01*
X012446Y027606D01*
X012339Y027594D01*
X012231Y027586D01*
X012124Y027582D01*
X012016Y027582D01*
X011909Y027586D01*
X011801Y027594D01*
X011694Y027606D01*
X011588Y027622D01*
X011482Y027642D01*
X011377Y027666D01*
X011273Y027693D01*
X011170Y027725D01*
X011068Y027760D01*
X010968Y027799D01*
X010869Y027841D01*
X010772Y027887D01*
X010676Y027937D01*
X010583Y027990D01*
X010491Y028047D01*
X010402Y028107D01*
X010315Y028170D01*
X010230Y028237D01*
X010148Y028306D01*
X010068Y028379D01*
X009991Y028454D01*
X009917Y028533D01*
X009846Y028613D01*
X009778Y028697D01*
X009713Y028783D01*
X009652Y028871D01*
X009593Y028962D01*
X009538Y029054D01*
X009487Y029149D01*
X009439Y029245D01*
X009394Y029343D01*
X009354Y029443D01*
X009317Y029544D01*
X009283Y029646D01*
X009254Y029750D01*
X009228Y029854D01*
X009207Y029960D01*
X009189Y030066D01*
X009175Y030173D01*
X009165Y030280D01*
X009159Y030387D01*
X009157Y030495D01*
X014826Y032463D02*
X014828Y032532D01*
X014834Y032600D01*
X014844Y032668D01*
X014858Y032735D01*
X014876Y032802D01*
X014897Y032867D01*
X014923Y032931D01*
X014952Y032993D01*
X014984Y033053D01*
X015020Y033112D01*
X015060Y033168D01*
X015102Y033222D01*
X015148Y033273D01*
X015197Y033322D01*
X015248Y033368D01*
X015302Y033410D01*
X015358Y033450D01*
X015416Y033486D01*
X015477Y033518D01*
X015539Y033547D01*
X015603Y033573D01*
X015668Y033594D01*
X015735Y033612D01*
X015802Y033626D01*
X015870Y033636D01*
X015938Y033642D01*
X016007Y033644D01*
X016076Y033642D01*
X016144Y033636D01*
X016212Y033626D01*
X016279Y033612D01*
X016346Y033594D01*
X016411Y033573D01*
X016475Y033547D01*
X016537Y033518D01*
X016597Y033486D01*
X016656Y033450D01*
X016712Y033410D01*
X016766Y033368D01*
X016817Y033322D01*
X016866Y033273D01*
X016912Y033222D01*
X016954Y033168D01*
X016994Y033112D01*
X017030Y033053D01*
X017062Y032993D01*
X017091Y032931D01*
X017117Y032867D01*
X017138Y032802D01*
X017156Y032735D01*
X017170Y032668D01*
X017180Y032600D01*
X017186Y032532D01*
X017188Y032463D01*
X017186Y032394D01*
X017180Y032326D01*
X017170Y032258D01*
X017156Y032191D01*
X017138Y032124D01*
X017117Y032059D01*
X017091Y031995D01*
X017062Y031933D01*
X017030Y031872D01*
X016994Y031814D01*
X016954Y031758D01*
X016912Y031704D01*
X016866Y031653D01*
X016817Y031604D01*
X016766Y031558D01*
X016712Y031516D01*
X016656Y031476D01*
X016598Y031440D01*
X016537Y031408D01*
X016475Y031379D01*
X016411Y031353D01*
X016346Y031332D01*
X016279Y031314D01*
X016212Y031300D01*
X016144Y031290D01*
X016076Y031284D01*
X016007Y031282D01*
X015938Y031284D01*
X015870Y031290D01*
X015802Y031300D01*
X015735Y031314D01*
X015668Y031332D01*
X015603Y031353D01*
X015539Y031379D01*
X015477Y031408D01*
X015416Y031440D01*
X015358Y031476D01*
X015302Y031516D01*
X015248Y031558D01*
X015197Y031604D01*
X015148Y031653D01*
X015102Y031704D01*
X015060Y031758D01*
X015020Y031814D01*
X014984Y031872D01*
X014952Y031933D01*
X014923Y031995D01*
X014897Y032059D01*
X014876Y032124D01*
X014858Y032191D01*
X014844Y032258D01*
X014834Y032326D01*
X014828Y032394D01*
X014826Y032463D01*
X018763Y032463D02*
X018765Y032532D01*
X018771Y032600D01*
X018781Y032668D01*
X018795Y032735D01*
X018813Y032802D01*
X018834Y032867D01*
X018860Y032931D01*
X018889Y032993D01*
X018921Y033053D01*
X018957Y033112D01*
X018997Y033168D01*
X019039Y033222D01*
X019085Y033273D01*
X019134Y033322D01*
X019185Y033368D01*
X019239Y033410D01*
X019295Y033450D01*
X019353Y033486D01*
X019414Y033518D01*
X019476Y033547D01*
X019540Y033573D01*
X019605Y033594D01*
X019672Y033612D01*
X019739Y033626D01*
X019807Y033636D01*
X019875Y033642D01*
X019944Y033644D01*
X020013Y033642D01*
X020081Y033636D01*
X020149Y033626D01*
X020216Y033612D01*
X020283Y033594D01*
X020348Y033573D01*
X020412Y033547D01*
X020474Y033518D01*
X020534Y033486D01*
X020593Y033450D01*
X020649Y033410D01*
X020703Y033368D01*
X020754Y033322D01*
X020803Y033273D01*
X020849Y033222D01*
X020891Y033168D01*
X020931Y033112D01*
X020967Y033053D01*
X020999Y032993D01*
X021028Y032931D01*
X021054Y032867D01*
X021075Y032802D01*
X021093Y032735D01*
X021107Y032668D01*
X021117Y032600D01*
X021123Y032532D01*
X021125Y032463D01*
X021123Y032394D01*
X021117Y032326D01*
X021107Y032258D01*
X021093Y032191D01*
X021075Y032124D01*
X021054Y032059D01*
X021028Y031995D01*
X020999Y031933D01*
X020967Y031872D01*
X020931Y031814D01*
X020891Y031758D01*
X020849Y031704D01*
X020803Y031653D01*
X020754Y031604D01*
X020703Y031558D01*
X020649Y031516D01*
X020593Y031476D01*
X020535Y031440D01*
X020474Y031408D01*
X020412Y031379D01*
X020348Y031353D01*
X020283Y031332D01*
X020216Y031314D01*
X020149Y031300D01*
X020081Y031290D01*
X020013Y031284D01*
X019944Y031282D01*
X019875Y031284D01*
X019807Y031290D01*
X019739Y031300D01*
X019672Y031314D01*
X019605Y031332D01*
X019540Y031353D01*
X019476Y031379D01*
X019414Y031408D01*
X019353Y031440D01*
X019295Y031476D01*
X019239Y031516D01*
X019185Y031558D01*
X019134Y031604D01*
X019085Y031653D01*
X019039Y031704D01*
X018997Y031758D01*
X018957Y031814D01*
X018921Y031872D01*
X018889Y031933D01*
X018860Y031995D01*
X018834Y032059D01*
X018813Y032124D01*
X018795Y032191D01*
X018781Y032258D01*
X018771Y032326D01*
X018765Y032394D01*
X018763Y032463D01*
X023487Y042306D02*
X023489Y042375D01*
X023495Y042443D01*
X023505Y042511D01*
X023519Y042578D01*
X023537Y042645D01*
X023558Y042710D01*
X023584Y042774D01*
X023613Y042836D01*
X023645Y042896D01*
X023681Y042955D01*
X023721Y043011D01*
X023763Y043065D01*
X023809Y043116D01*
X023858Y043165D01*
X023909Y043211D01*
X023963Y043253D01*
X024019Y043293D01*
X024077Y043329D01*
X024138Y043361D01*
X024200Y043390D01*
X024264Y043416D01*
X024329Y043437D01*
X024396Y043455D01*
X024463Y043469D01*
X024531Y043479D01*
X024599Y043485D01*
X024668Y043487D01*
X024737Y043485D01*
X024805Y043479D01*
X024873Y043469D01*
X024940Y043455D01*
X025007Y043437D01*
X025072Y043416D01*
X025136Y043390D01*
X025198Y043361D01*
X025258Y043329D01*
X025317Y043293D01*
X025373Y043253D01*
X025427Y043211D01*
X025478Y043165D01*
X025527Y043116D01*
X025573Y043065D01*
X025615Y043011D01*
X025655Y042955D01*
X025691Y042896D01*
X025723Y042836D01*
X025752Y042774D01*
X025778Y042710D01*
X025799Y042645D01*
X025817Y042578D01*
X025831Y042511D01*
X025841Y042443D01*
X025847Y042375D01*
X025849Y042306D01*
X025847Y042237D01*
X025841Y042169D01*
X025831Y042101D01*
X025817Y042034D01*
X025799Y041967D01*
X025778Y041902D01*
X025752Y041838D01*
X025723Y041776D01*
X025691Y041715D01*
X025655Y041657D01*
X025615Y041601D01*
X025573Y041547D01*
X025527Y041496D01*
X025478Y041447D01*
X025427Y041401D01*
X025373Y041359D01*
X025317Y041319D01*
X025259Y041283D01*
X025198Y041251D01*
X025136Y041222D01*
X025072Y041196D01*
X025007Y041175D01*
X024940Y041157D01*
X024873Y041143D01*
X024805Y041133D01*
X024737Y041127D01*
X024668Y041125D01*
X024599Y041127D01*
X024531Y041133D01*
X024463Y041143D01*
X024396Y041157D01*
X024329Y041175D01*
X024264Y041196D01*
X024200Y041222D01*
X024138Y041251D01*
X024077Y041283D01*
X024019Y041319D01*
X023963Y041359D01*
X023909Y041401D01*
X023858Y041447D01*
X023809Y041496D01*
X023763Y041547D01*
X023721Y041601D01*
X023681Y041657D01*
X023645Y041715D01*
X023613Y041776D01*
X023584Y041838D01*
X023558Y041902D01*
X023537Y041967D01*
X023519Y042034D01*
X023505Y042101D01*
X023495Y042169D01*
X023489Y042237D01*
X023487Y042306D01*
X023487Y046243D02*
X023489Y046312D01*
X023495Y046380D01*
X023505Y046448D01*
X023519Y046515D01*
X023537Y046582D01*
X023558Y046647D01*
X023584Y046711D01*
X023613Y046773D01*
X023645Y046833D01*
X023681Y046892D01*
X023721Y046948D01*
X023763Y047002D01*
X023809Y047053D01*
X023858Y047102D01*
X023909Y047148D01*
X023963Y047190D01*
X024019Y047230D01*
X024077Y047266D01*
X024138Y047298D01*
X024200Y047327D01*
X024264Y047353D01*
X024329Y047374D01*
X024396Y047392D01*
X024463Y047406D01*
X024531Y047416D01*
X024599Y047422D01*
X024668Y047424D01*
X024737Y047422D01*
X024805Y047416D01*
X024873Y047406D01*
X024940Y047392D01*
X025007Y047374D01*
X025072Y047353D01*
X025136Y047327D01*
X025198Y047298D01*
X025258Y047266D01*
X025317Y047230D01*
X025373Y047190D01*
X025427Y047148D01*
X025478Y047102D01*
X025527Y047053D01*
X025573Y047002D01*
X025615Y046948D01*
X025655Y046892D01*
X025691Y046833D01*
X025723Y046773D01*
X025752Y046711D01*
X025778Y046647D01*
X025799Y046582D01*
X025817Y046515D01*
X025831Y046448D01*
X025841Y046380D01*
X025847Y046312D01*
X025849Y046243D01*
X025847Y046174D01*
X025841Y046106D01*
X025831Y046038D01*
X025817Y045971D01*
X025799Y045904D01*
X025778Y045839D01*
X025752Y045775D01*
X025723Y045713D01*
X025691Y045652D01*
X025655Y045594D01*
X025615Y045538D01*
X025573Y045484D01*
X025527Y045433D01*
X025478Y045384D01*
X025427Y045338D01*
X025373Y045296D01*
X025317Y045256D01*
X025259Y045220D01*
X025198Y045188D01*
X025136Y045159D01*
X025072Y045133D01*
X025007Y045112D01*
X024940Y045094D01*
X024873Y045080D01*
X024805Y045070D01*
X024737Y045064D01*
X024668Y045062D01*
X024599Y045064D01*
X024531Y045070D01*
X024463Y045080D01*
X024396Y045094D01*
X024329Y045112D01*
X024264Y045133D01*
X024200Y045159D01*
X024138Y045188D01*
X024077Y045220D01*
X024019Y045256D01*
X023963Y045296D01*
X023909Y045338D01*
X023858Y045384D01*
X023809Y045433D01*
X023763Y045484D01*
X023721Y045538D01*
X023681Y045594D01*
X023645Y045652D01*
X023613Y045713D01*
X023584Y045775D01*
X023558Y045839D01*
X023537Y045904D01*
X023519Y045971D01*
X023505Y046038D01*
X023495Y046106D01*
X023489Y046174D01*
X023487Y046243D01*
X027424Y046243D02*
X027426Y046312D01*
X027432Y046380D01*
X027442Y046448D01*
X027456Y046515D01*
X027474Y046582D01*
X027495Y046647D01*
X027521Y046711D01*
X027550Y046773D01*
X027582Y046833D01*
X027618Y046892D01*
X027658Y046948D01*
X027700Y047002D01*
X027746Y047053D01*
X027795Y047102D01*
X027846Y047148D01*
X027900Y047190D01*
X027956Y047230D01*
X028014Y047266D01*
X028075Y047298D01*
X028137Y047327D01*
X028201Y047353D01*
X028266Y047374D01*
X028333Y047392D01*
X028400Y047406D01*
X028468Y047416D01*
X028536Y047422D01*
X028605Y047424D01*
X028674Y047422D01*
X028742Y047416D01*
X028810Y047406D01*
X028877Y047392D01*
X028944Y047374D01*
X029009Y047353D01*
X029073Y047327D01*
X029135Y047298D01*
X029195Y047266D01*
X029254Y047230D01*
X029310Y047190D01*
X029364Y047148D01*
X029415Y047102D01*
X029464Y047053D01*
X029510Y047002D01*
X029552Y046948D01*
X029592Y046892D01*
X029628Y046833D01*
X029660Y046773D01*
X029689Y046711D01*
X029715Y046647D01*
X029736Y046582D01*
X029754Y046515D01*
X029768Y046448D01*
X029778Y046380D01*
X029784Y046312D01*
X029786Y046243D01*
X029784Y046174D01*
X029778Y046106D01*
X029768Y046038D01*
X029754Y045971D01*
X029736Y045904D01*
X029715Y045839D01*
X029689Y045775D01*
X029660Y045713D01*
X029628Y045652D01*
X029592Y045594D01*
X029552Y045538D01*
X029510Y045484D01*
X029464Y045433D01*
X029415Y045384D01*
X029364Y045338D01*
X029310Y045296D01*
X029254Y045256D01*
X029196Y045220D01*
X029135Y045188D01*
X029073Y045159D01*
X029009Y045133D01*
X028944Y045112D01*
X028877Y045094D01*
X028810Y045080D01*
X028742Y045070D01*
X028674Y045064D01*
X028605Y045062D01*
X028536Y045064D01*
X028468Y045070D01*
X028400Y045080D01*
X028333Y045094D01*
X028266Y045112D01*
X028201Y045133D01*
X028137Y045159D01*
X028075Y045188D01*
X028014Y045220D01*
X027956Y045256D01*
X027900Y045296D01*
X027846Y045338D01*
X027795Y045384D01*
X027746Y045433D01*
X027700Y045484D01*
X027658Y045538D01*
X027618Y045594D01*
X027582Y045652D01*
X027550Y045713D01*
X027521Y045775D01*
X027495Y045839D01*
X027474Y045904D01*
X027456Y045971D01*
X027442Y046038D01*
X027432Y046106D01*
X027426Y046174D01*
X027424Y046243D01*
X027424Y042306D02*
X027426Y042375D01*
X027432Y042443D01*
X027442Y042511D01*
X027456Y042578D01*
X027474Y042645D01*
X027495Y042710D01*
X027521Y042774D01*
X027550Y042836D01*
X027582Y042896D01*
X027618Y042955D01*
X027658Y043011D01*
X027700Y043065D01*
X027746Y043116D01*
X027795Y043165D01*
X027846Y043211D01*
X027900Y043253D01*
X027956Y043293D01*
X028014Y043329D01*
X028075Y043361D01*
X028137Y043390D01*
X028201Y043416D01*
X028266Y043437D01*
X028333Y043455D01*
X028400Y043469D01*
X028468Y043479D01*
X028536Y043485D01*
X028605Y043487D01*
X028674Y043485D01*
X028742Y043479D01*
X028810Y043469D01*
X028877Y043455D01*
X028944Y043437D01*
X029009Y043416D01*
X029073Y043390D01*
X029135Y043361D01*
X029195Y043329D01*
X029254Y043293D01*
X029310Y043253D01*
X029364Y043211D01*
X029415Y043165D01*
X029464Y043116D01*
X029510Y043065D01*
X029552Y043011D01*
X029592Y042955D01*
X029628Y042896D01*
X029660Y042836D01*
X029689Y042774D01*
X029715Y042710D01*
X029736Y042645D01*
X029754Y042578D01*
X029768Y042511D01*
X029778Y042443D01*
X029784Y042375D01*
X029786Y042306D01*
X029784Y042237D01*
X029778Y042169D01*
X029768Y042101D01*
X029754Y042034D01*
X029736Y041967D01*
X029715Y041902D01*
X029689Y041838D01*
X029660Y041776D01*
X029628Y041715D01*
X029592Y041657D01*
X029552Y041601D01*
X029510Y041547D01*
X029464Y041496D01*
X029415Y041447D01*
X029364Y041401D01*
X029310Y041359D01*
X029254Y041319D01*
X029196Y041283D01*
X029135Y041251D01*
X029073Y041222D01*
X029009Y041196D01*
X028944Y041175D01*
X028877Y041157D01*
X028810Y041143D01*
X028742Y041133D01*
X028674Y041127D01*
X028605Y041125D01*
X028536Y041127D01*
X028468Y041133D01*
X028400Y041143D01*
X028333Y041157D01*
X028266Y041175D01*
X028201Y041196D01*
X028137Y041222D01*
X028075Y041251D01*
X028014Y041283D01*
X027956Y041319D01*
X027900Y041359D01*
X027846Y041401D01*
X027795Y041447D01*
X027746Y041496D01*
X027700Y041547D01*
X027658Y041601D01*
X027618Y041657D01*
X027582Y041715D01*
X027550Y041776D01*
X027521Y041838D01*
X027495Y041902D01*
X027474Y041967D01*
X027456Y042034D01*
X027442Y042101D01*
X027432Y042169D01*
X027426Y042237D01*
X027424Y042306D01*
X052227Y042306D02*
X052229Y042375D01*
X052235Y042443D01*
X052245Y042511D01*
X052259Y042578D01*
X052277Y042645D01*
X052298Y042710D01*
X052324Y042774D01*
X052353Y042836D01*
X052385Y042896D01*
X052421Y042955D01*
X052461Y043011D01*
X052503Y043065D01*
X052549Y043116D01*
X052598Y043165D01*
X052649Y043211D01*
X052703Y043253D01*
X052759Y043293D01*
X052817Y043329D01*
X052878Y043361D01*
X052940Y043390D01*
X053004Y043416D01*
X053069Y043437D01*
X053136Y043455D01*
X053203Y043469D01*
X053271Y043479D01*
X053339Y043485D01*
X053408Y043487D01*
X053477Y043485D01*
X053545Y043479D01*
X053613Y043469D01*
X053680Y043455D01*
X053747Y043437D01*
X053812Y043416D01*
X053876Y043390D01*
X053938Y043361D01*
X053998Y043329D01*
X054057Y043293D01*
X054113Y043253D01*
X054167Y043211D01*
X054218Y043165D01*
X054267Y043116D01*
X054313Y043065D01*
X054355Y043011D01*
X054395Y042955D01*
X054431Y042896D01*
X054463Y042836D01*
X054492Y042774D01*
X054518Y042710D01*
X054539Y042645D01*
X054557Y042578D01*
X054571Y042511D01*
X054581Y042443D01*
X054587Y042375D01*
X054589Y042306D01*
X054587Y042237D01*
X054581Y042169D01*
X054571Y042101D01*
X054557Y042034D01*
X054539Y041967D01*
X054518Y041902D01*
X054492Y041838D01*
X054463Y041776D01*
X054431Y041715D01*
X054395Y041657D01*
X054355Y041601D01*
X054313Y041547D01*
X054267Y041496D01*
X054218Y041447D01*
X054167Y041401D01*
X054113Y041359D01*
X054057Y041319D01*
X053999Y041283D01*
X053938Y041251D01*
X053876Y041222D01*
X053812Y041196D01*
X053747Y041175D01*
X053680Y041157D01*
X053613Y041143D01*
X053545Y041133D01*
X053477Y041127D01*
X053408Y041125D01*
X053339Y041127D01*
X053271Y041133D01*
X053203Y041143D01*
X053136Y041157D01*
X053069Y041175D01*
X053004Y041196D01*
X052940Y041222D01*
X052878Y041251D01*
X052817Y041283D01*
X052759Y041319D01*
X052703Y041359D01*
X052649Y041401D01*
X052598Y041447D01*
X052549Y041496D01*
X052503Y041547D01*
X052461Y041601D01*
X052421Y041657D01*
X052385Y041715D01*
X052353Y041776D01*
X052324Y041838D01*
X052298Y041902D01*
X052277Y041967D01*
X052259Y042034D01*
X052245Y042101D01*
X052235Y042169D01*
X052229Y042237D01*
X052227Y042306D01*
X052227Y046243D02*
X052229Y046312D01*
X052235Y046380D01*
X052245Y046448D01*
X052259Y046515D01*
X052277Y046582D01*
X052298Y046647D01*
X052324Y046711D01*
X052353Y046773D01*
X052385Y046833D01*
X052421Y046892D01*
X052461Y046948D01*
X052503Y047002D01*
X052549Y047053D01*
X052598Y047102D01*
X052649Y047148D01*
X052703Y047190D01*
X052759Y047230D01*
X052817Y047266D01*
X052878Y047298D01*
X052940Y047327D01*
X053004Y047353D01*
X053069Y047374D01*
X053136Y047392D01*
X053203Y047406D01*
X053271Y047416D01*
X053339Y047422D01*
X053408Y047424D01*
X053477Y047422D01*
X053545Y047416D01*
X053613Y047406D01*
X053680Y047392D01*
X053747Y047374D01*
X053812Y047353D01*
X053876Y047327D01*
X053938Y047298D01*
X053998Y047266D01*
X054057Y047230D01*
X054113Y047190D01*
X054167Y047148D01*
X054218Y047102D01*
X054267Y047053D01*
X054313Y047002D01*
X054355Y046948D01*
X054395Y046892D01*
X054431Y046833D01*
X054463Y046773D01*
X054492Y046711D01*
X054518Y046647D01*
X054539Y046582D01*
X054557Y046515D01*
X054571Y046448D01*
X054581Y046380D01*
X054587Y046312D01*
X054589Y046243D01*
X054587Y046174D01*
X054581Y046106D01*
X054571Y046038D01*
X054557Y045971D01*
X054539Y045904D01*
X054518Y045839D01*
X054492Y045775D01*
X054463Y045713D01*
X054431Y045652D01*
X054395Y045594D01*
X054355Y045538D01*
X054313Y045484D01*
X054267Y045433D01*
X054218Y045384D01*
X054167Y045338D01*
X054113Y045296D01*
X054057Y045256D01*
X053999Y045220D01*
X053938Y045188D01*
X053876Y045159D01*
X053812Y045133D01*
X053747Y045112D01*
X053680Y045094D01*
X053613Y045080D01*
X053545Y045070D01*
X053477Y045064D01*
X053408Y045062D01*
X053339Y045064D01*
X053271Y045070D01*
X053203Y045080D01*
X053136Y045094D01*
X053069Y045112D01*
X053004Y045133D01*
X052940Y045159D01*
X052878Y045188D01*
X052817Y045220D01*
X052759Y045256D01*
X052703Y045296D01*
X052649Y045338D01*
X052598Y045384D01*
X052549Y045433D01*
X052503Y045484D01*
X052461Y045538D01*
X052421Y045594D01*
X052385Y045652D01*
X052353Y045713D01*
X052324Y045775D01*
X052298Y045839D01*
X052277Y045904D01*
X052259Y045971D01*
X052245Y046038D01*
X052235Y046106D01*
X052229Y046174D01*
X052227Y046243D01*
X056164Y046243D02*
X056166Y046312D01*
X056172Y046380D01*
X056182Y046448D01*
X056196Y046515D01*
X056214Y046582D01*
X056235Y046647D01*
X056261Y046711D01*
X056290Y046773D01*
X056322Y046833D01*
X056358Y046892D01*
X056398Y046948D01*
X056440Y047002D01*
X056486Y047053D01*
X056535Y047102D01*
X056586Y047148D01*
X056640Y047190D01*
X056696Y047230D01*
X056754Y047266D01*
X056815Y047298D01*
X056877Y047327D01*
X056941Y047353D01*
X057006Y047374D01*
X057073Y047392D01*
X057140Y047406D01*
X057208Y047416D01*
X057276Y047422D01*
X057345Y047424D01*
X057414Y047422D01*
X057482Y047416D01*
X057550Y047406D01*
X057617Y047392D01*
X057684Y047374D01*
X057749Y047353D01*
X057813Y047327D01*
X057875Y047298D01*
X057935Y047266D01*
X057994Y047230D01*
X058050Y047190D01*
X058104Y047148D01*
X058155Y047102D01*
X058204Y047053D01*
X058250Y047002D01*
X058292Y046948D01*
X058332Y046892D01*
X058368Y046833D01*
X058400Y046773D01*
X058429Y046711D01*
X058455Y046647D01*
X058476Y046582D01*
X058494Y046515D01*
X058508Y046448D01*
X058518Y046380D01*
X058524Y046312D01*
X058526Y046243D01*
X058524Y046174D01*
X058518Y046106D01*
X058508Y046038D01*
X058494Y045971D01*
X058476Y045904D01*
X058455Y045839D01*
X058429Y045775D01*
X058400Y045713D01*
X058368Y045652D01*
X058332Y045594D01*
X058292Y045538D01*
X058250Y045484D01*
X058204Y045433D01*
X058155Y045384D01*
X058104Y045338D01*
X058050Y045296D01*
X057994Y045256D01*
X057936Y045220D01*
X057875Y045188D01*
X057813Y045159D01*
X057749Y045133D01*
X057684Y045112D01*
X057617Y045094D01*
X057550Y045080D01*
X057482Y045070D01*
X057414Y045064D01*
X057345Y045062D01*
X057276Y045064D01*
X057208Y045070D01*
X057140Y045080D01*
X057073Y045094D01*
X057006Y045112D01*
X056941Y045133D01*
X056877Y045159D01*
X056815Y045188D01*
X056754Y045220D01*
X056696Y045256D01*
X056640Y045296D01*
X056586Y045338D01*
X056535Y045384D01*
X056486Y045433D01*
X056440Y045484D01*
X056398Y045538D01*
X056358Y045594D01*
X056322Y045652D01*
X056290Y045713D01*
X056261Y045775D01*
X056235Y045839D01*
X056214Y045904D01*
X056196Y045971D01*
X056182Y046038D01*
X056172Y046106D01*
X056166Y046174D01*
X056164Y046243D01*
X056164Y042306D02*
X056166Y042375D01*
X056172Y042443D01*
X056182Y042511D01*
X056196Y042578D01*
X056214Y042645D01*
X056235Y042710D01*
X056261Y042774D01*
X056290Y042836D01*
X056322Y042896D01*
X056358Y042955D01*
X056398Y043011D01*
X056440Y043065D01*
X056486Y043116D01*
X056535Y043165D01*
X056586Y043211D01*
X056640Y043253D01*
X056696Y043293D01*
X056754Y043329D01*
X056815Y043361D01*
X056877Y043390D01*
X056941Y043416D01*
X057006Y043437D01*
X057073Y043455D01*
X057140Y043469D01*
X057208Y043479D01*
X057276Y043485D01*
X057345Y043487D01*
X057414Y043485D01*
X057482Y043479D01*
X057550Y043469D01*
X057617Y043455D01*
X057684Y043437D01*
X057749Y043416D01*
X057813Y043390D01*
X057875Y043361D01*
X057935Y043329D01*
X057994Y043293D01*
X058050Y043253D01*
X058104Y043211D01*
X058155Y043165D01*
X058204Y043116D01*
X058250Y043065D01*
X058292Y043011D01*
X058332Y042955D01*
X058368Y042896D01*
X058400Y042836D01*
X058429Y042774D01*
X058455Y042710D01*
X058476Y042645D01*
X058494Y042578D01*
X058508Y042511D01*
X058518Y042443D01*
X058524Y042375D01*
X058526Y042306D01*
X058524Y042237D01*
X058518Y042169D01*
X058508Y042101D01*
X058494Y042034D01*
X058476Y041967D01*
X058455Y041902D01*
X058429Y041838D01*
X058400Y041776D01*
X058368Y041715D01*
X058332Y041657D01*
X058292Y041601D01*
X058250Y041547D01*
X058204Y041496D01*
X058155Y041447D01*
X058104Y041401D01*
X058050Y041359D01*
X057994Y041319D01*
X057936Y041283D01*
X057875Y041251D01*
X057813Y041222D01*
X057749Y041196D01*
X057684Y041175D01*
X057617Y041157D01*
X057550Y041143D01*
X057482Y041133D01*
X057414Y041127D01*
X057345Y041125D01*
X057276Y041127D01*
X057208Y041133D01*
X057140Y041143D01*
X057073Y041157D01*
X057006Y041175D01*
X056941Y041196D01*
X056877Y041222D01*
X056815Y041251D01*
X056754Y041283D01*
X056696Y041319D01*
X056640Y041359D01*
X056586Y041401D01*
X056535Y041447D01*
X056486Y041496D01*
X056440Y041547D01*
X056398Y041601D01*
X056358Y041657D01*
X056322Y041715D01*
X056290Y041776D01*
X056261Y041838D01*
X056235Y041902D01*
X056214Y041967D01*
X056196Y042034D01*
X056182Y042101D01*
X056172Y042169D01*
X056166Y042237D01*
X056164Y042306D01*
X064669Y030495D02*
X064671Y030603D01*
X064677Y030710D01*
X064687Y030817D01*
X064701Y030924D01*
X064719Y031030D01*
X064740Y031136D01*
X064766Y031240D01*
X064795Y031344D01*
X064829Y031446D01*
X064866Y031547D01*
X064906Y031647D01*
X064951Y031745D01*
X064999Y031841D01*
X065050Y031936D01*
X065105Y032028D01*
X065164Y032119D01*
X065225Y032207D01*
X065290Y032293D01*
X065358Y032377D01*
X065429Y032457D01*
X065503Y032536D01*
X065580Y032611D01*
X065660Y032684D01*
X065742Y032753D01*
X065827Y032820D01*
X065914Y032883D01*
X066003Y032943D01*
X066095Y033000D01*
X066188Y033053D01*
X066284Y033103D01*
X066381Y033149D01*
X066480Y033191D01*
X066580Y033230D01*
X066682Y033265D01*
X066785Y033297D01*
X066889Y033324D01*
X066994Y033348D01*
X067100Y033368D01*
X067206Y033384D01*
X067313Y033396D01*
X067421Y033404D01*
X067528Y033408D01*
X067636Y033408D01*
X067743Y033404D01*
X067851Y033396D01*
X067958Y033384D01*
X068064Y033368D01*
X068170Y033348D01*
X068275Y033324D01*
X068379Y033297D01*
X068482Y033265D01*
X068584Y033230D01*
X068684Y033191D01*
X068783Y033149D01*
X068880Y033103D01*
X068976Y033053D01*
X069069Y033000D01*
X069161Y032943D01*
X069250Y032883D01*
X069337Y032820D01*
X069422Y032753D01*
X069504Y032684D01*
X069584Y032611D01*
X069661Y032536D01*
X069735Y032457D01*
X069806Y032377D01*
X069874Y032293D01*
X069939Y032207D01*
X070000Y032119D01*
X070059Y032028D01*
X070114Y031936D01*
X070165Y031841D01*
X070213Y031745D01*
X070258Y031647D01*
X070298Y031547D01*
X070335Y031446D01*
X070369Y031344D01*
X070398Y031240D01*
X070424Y031136D01*
X070445Y031030D01*
X070463Y030924D01*
X070477Y030817D01*
X070487Y030710D01*
X070493Y030603D01*
X070495Y030495D01*
X070493Y030387D01*
X070487Y030280D01*
X070477Y030173D01*
X070463Y030066D01*
X070445Y029960D01*
X070424Y029854D01*
X070398Y029750D01*
X070369Y029646D01*
X070335Y029544D01*
X070298Y029443D01*
X070258Y029343D01*
X070213Y029245D01*
X070165Y029149D01*
X070114Y029054D01*
X070059Y028962D01*
X070000Y028871D01*
X069939Y028783D01*
X069874Y028697D01*
X069806Y028613D01*
X069735Y028533D01*
X069661Y028454D01*
X069584Y028379D01*
X069504Y028306D01*
X069422Y028237D01*
X069337Y028170D01*
X069250Y028107D01*
X069161Y028047D01*
X069069Y027990D01*
X068976Y027937D01*
X068880Y027887D01*
X068783Y027841D01*
X068684Y027799D01*
X068584Y027760D01*
X068482Y027725D01*
X068379Y027693D01*
X068275Y027666D01*
X068170Y027642D01*
X068064Y027622D01*
X067958Y027606D01*
X067851Y027594D01*
X067743Y027586D01*
X067636Y027582D01*
X067528Y027582D01*
X067421Y027586D01*
X067313Y027594D01*
X067206Y027606D01*
X067100Y027622D01*
X066994Y027642D01*
X066889Y027666D01*
X066785Y027693D01*
X066682Y027725D01*
X066580Y027760D01*
X066480Y027799D01*
X066381Y027841D01*
X066284Y027887D01*
X066188Y027937D01*
X066095Y027990D01*
X066003Y028047D01*
X065914Y028107D01*
X065827Y028170D01*
X065742Y028237D01*
X065660Y028306D01*
X065580Y028379D01*
X065503Y028454D01*
X065429Y028533D01*
X065358Y028613D01*
X065290Y028697D01*
X065225Y028783D01*
X065164Y028871D01*
X065105Y028962D01*
X065050Y029054D01*
X064999Y029149D01*
X064951Y029245D01*
X064906Y029343D01*
X064866Y029443D01*
X064829Y029544D01*
X064795Y029646D01*
X064766Y029750D01*
X064740Y029854D01*
X064719Y029960D01*
X064701Y030066D01*
X064687Y030173D01*
X064677Y030280D01*
X064671Y030387D01*
X064669Y030495D01*
X056164Y018684D02*
X056166Y018753D01*
X056172Y018821D01*
X056182Y018889D01*
X056196Y018956D01*
X056214Y019023D01*
X056235Y019088D01*
X056261Y019152D01*
X056290Y019214D01*
X056322Y019274D01*
X056358Y019333D01*
X056398Y019389D01*
X056440Y019443D01*
X056486Y019494D01*
X056535Y019543D01*
X056586Y019589D01*
X056640Y019631D01*
X056696Y019671D01*
X056754Y019707D01*
X056815Y019739D01*
X056877Y019768D01*
X056941Y019794D01*
X057006Y019815D01*
X057073Y019833D01*
X057140Y019847D01*
X057208Y019857D01*
X057276Y019863D01*
X057345Y019865D01*
X057414Y019863D01*
X057482Y019857D01*
X057550Y019847D01*
X057617Y019833D01*
X057684Y019815D01*
X057749Y019794D01*
X057813Y019768D01*
X057875Y019739D01*
X057935Y019707D01*
X057994Y019671D01*
X058050Y019631D01*
X058104Y019589D01*
X058155Y019543D01*
X058204Y019494D01*
X058250Y019443D01*
X058292Y019389D01*
X058332Y019333D01*
X058368Y019274D01*
X058400Y019214D01*
X058429Y019152D01*
X058455Y019088D01*
X058476Y019023D01*
X058494Y018956D01*
X058508Y018889D01*
X058518Y018821D01*
X058524Y018753D01*
X058526Y018684D01*
X058524Y018615D01*
X058518Y018547D01*
X058508Y018479D01*
X058494Y018412D01*
X058476Y018345D01*
X058455Y018280D01*
X058429Y018216D01*
X058400Y018154D01*
X058368Y018093D01*
X058332Y018035D01*
X058292Y017979D01*
X058250Y017925D01*
X058204Y017874D01*
X058155Y017825D01*
X058104Y017779D01*
X058050Y017737D01*
X057994Y017697D01*
X057936Y017661D01*
X057875Y017629D01*
X057813Y017600D01*
X057749Y017574D01*
X057684Y017553D01*
X057617Y017535D01*
X057550Y017521D01*
X057482Y017511D01*
X057414Y017505D01*
X057345Y017503D01*
X057276Y017505D01*
X057208Y017511D01*
X057140Y017521D01*
X057073Y017535D01*
X057006Y017553D01*
X056941Y017574D01*
X056877Y017600D01*
X056815Y017629D01*
X056754Y017661D01*
X056696Y017697D01*
X056640Y017737D01*
X056586Y017779D01*
X056535Y017825D01*
X056486Y017874D01*
X056440Y017925D01*
X056398Y017979D01*
X056358Y018035D01*
X056322Y018093D01*
X056290Y018154D01*
X056261Y018216D01*
X056235Y018280D01*
X056214Y018345D01*
X056196Y018412D01*
X056182Y018479D01*
X056172Y018547D01*
X056166Y018615D01*
X056164Y018684D01*
X052227Y018684D02*
X052229Y018753D01*
X052235Y018821D01*
X052245Y018889D01*
X052259Y018956D01*
X052277Y019023D01*
X052298Y019088D01*
X052324Y019152D01*
X052353Y019214D01*
X052385Y019274D01*
X052421Y019333D01*
X052461Y019389D01*
X052503Y019443D01*
X052549Y019494D01*
X052598Y019543D01*
X052649Y019589D01*
X052703Y019631D01*
X052759Y019671D01*
X052817Y019707D01*
X052878Y019739D01*
X052940Y019768D01*
X053004Y019794D01*
X053069Y019815D01*
X053136Y019833D01*
X053203Y019847D01*
X053271Y019857D01*
X053339Y019863D01*
X053408Y019865D01*
X053477Y019863D01*
X053545Y019857D01*
X053613Y019847D01*
X053680Y019833D01*
X053747Y019815D01*
X053812Y019794D01*
X053876Y019768D01*
X053938Y019739D01*
X053998Y019707D01*
X054057Y019671D01*
X054113Y019631D01*
X054167Y019589D01*
X054218Y019543D01*
X054267Y019494D01*
X054313Y019443D01*
X054355Y019389D01*
X054395Y019333D01*
X054431Y019274D01*
X054463Y019214D01*
X054492Y019152D01*
X054518Y019088D01*
X054539Y019023D01*
X054557Y018956D01*
X054571Y018889D01*
X054581Y018821D01*
X054587Y018753D01*
X054589Y018684D01*
X054587Y018615D01*
X054581Y018547D01*
X054571Y018479D01*
X054557Y018412D01*
X054539Y018345D01*
X054518Y018280D01*
X054492Y018216D01*
X054463Y018154D01*
X054431Y018093D01*
X054395Y018035D01*
X054355Y017979D01*
X054313Y017925D01*
X054267Y017874D01*
X054218Y017825D01*
X054167Y017779D01*
X054113Y017737D01*
X054057Y017697D01*
X053999Y017661D01*
X053938Y017629D01*
X053876Y017600D01*
X053812Y017574D01*
X053747Y017553D01*
X053680Y017535D01*
X053613Y017521D01*
X053545Y017511D01*
X053477Y017505D01*
X053408Y017503D01*
X053339Y017505D01*
X053271Y017511D01*
X053203Y017521D01*
X053136Y017535D01*
X053069Y017553D01*
X053004Y017574D01*
X052940Y017600D01*
X052878Y017629D01*
X052817Y017661D01*
X052759Y017697D01*
X052703Y017737D01*
X052649Y017779D01*
X052598Y017825D01*
X052549Y017874D01*
X052503Y017925D01*
X052461Y017979D01*
X052421Y018035D01*
X052385Y018093D01*
X052353Y018154D01*
X052324Y018216D01*
X052298Y018280D01*
X052277Y018345D01*
X052259Y018412D01*
X052245Y018479D01*
X052235Y018547D01*
X052229Y018615D01*
X052227Y018684D01*
X052227Y014747D02*
X052229Y014816D01*
X052235Y014884D01*
X052245Y014952D01*
X052259Y015019D01*
X052277Y015086D01*
X052298Y015151D01*
X052324Y015215D01*
X052353Y015277D01*
X052385Y015337D01*
X052421Y015396D01*
X052461Y015452D01*
X052503Y015506D01*
X052549Y015557D01*
X052598Y015606D01*
X052649Y015652D01*
X052703Y015694D01*
X052759Y015734D01*
X052817Y015770D01*
X052878Y015802D01*
X052940Y015831D01*
X053004Y015857D01*
X053069Y015878D01*
X053136Y015896D01*
X053203Y015910D01*
X053271Y015920D01*
X053339Y015926D01*
X053408Y015928D01*
X053477Y015926D01*
X053545Y015920D01*
X053613Y015910D01*
X053680Y015896D01*
X053747Y015878D01*
X053812Y015857D01*
X053876Y015831D01*
X053938Y015802D01*
X053998Y015770D01*
X054057Y015734D01*
X054113Y015694D01*
X054167Y015652D01*
X054218Y015606D01*
X054267Y015557D01*
X054313Y015506D01*
X054355Y015452D01*
X054395Y015396D01*
X054431Y015337D01*
X054463Y015277D01*
X054492Y015215D01*
X054518Y015151D01*
X054539Y015086D01*
X054557Y015019D01*
X054571Y014952D01*
X054581Y014884D01*
X054587Y014816D01*
X054589Y014747D01*
X054587Y014678D01*
X054581Y014610D01*
X054571Y014542D01*
X054557Y014475D01*
X054539Y014408D01*
X054518Y014343D01*
X054492Y014279D01*
X054463Y014217D01*
X054431Y014156D01*
X054395Y014098D01*
X054355Y014042D01*
X054313Y013988D01*
X054267Y013937D01*
X054218Y013888D01*
X054167Y013842D01*
X054113Y013800D01*
X054057Y013760D01*
X053999Y013724D01*
X053938Y013692D01*
X053876Y013663D01*
X053812Y013637D01*
X053747Y013616D01*
X053680Y013598D01*
X053613Y013584D01*
X053545Y013574D01*
X053477Y013568D01*
X053408Y013566D01*
X053339Y013568D01*
X053271Y013574D01*
X053203Y013584D01*
X053136Y013598D01*
X053069Y013616D01*
X053004Y013637D01*
X052940Y013663D01*
X052878Y013692D01*
X052817Y013724D01*
X052759Y013760D01*
X052703Y013800D01*
X052649Y013842D01*
X052598Y013888D01*
X052549Y013937D01*
X052503Y013988D01*
X052461Y014042D01*
X052421Y014098D01*
X052385Y014156D01*
X052353Y014217D01*
X052324Y014279D01*
X052298Y014343D01*
X052277Y014408D01*
X052259Y014475D01*
X052245Y014542D01*
X052235Y014610D01*
X052229Y014678D01*
X052227Y014747D01*
X056164Y014747D02*
X056166Y014816D01*
X056172Y014884D01*
X056182Y014952D01*
X056196Y015019D01*
X056214Y015086D01*
X056235Y015151D01*
X056261Y015215D01*
X056290Y015277D01*
X056322Y015337D01*
X056358Y015396D01*
X056398Y015452D01*
X056440Y015506D01*
X056486Y015557D01*
X056535Y015606D01*
X056586Y015652D01*
X056640Y015694D01*
X056696Y015734D01*
X056754Y015770D01*
X056815Y015802D01*
X056877Y015831D01*
X056941Y015857D01*
X057006Y015878D01*
X057073Y015896D01*
X057140Y015910D01*
X057208Y015920D01*
X057276Y015926D01*
X057345Y015928D01*
X057414Y015926D01*
X057482Y015920D01*
X057550Y015910D01*
X057617Y015896D01*
X057684Y015878D01*
X057749Y015857D01*
X057813Y015831D01*
X057875Y015802D01*
X057935Y015770D01*
X057994Y015734D01*
X058050Y015694D01*
X058104Y015652D01*
X058155Y015606D01*
X058204Y015557D01*
X058250Y015506D01*
X058292Y015452D01*
X058332Y015396D01*
X058368Y015337D01*
X058400Y015277D01*
X058429Y015215D01*
X058455Y015151D01*
X058476Y015086D01*
X058494Y015019D01*
X058508Y014952D01*
X058518Y014884D01*
X058524Y014816D01*
X058526Y014747D01*
X058524Y014678D01*
X058518Y014610D01*
X058508Y014542D01*
X058494Y014475D01*
X058476Y014408D01*
X058455Y014343D01*
X058429Y014279D01*
X058400Y014217D01*
X058368Y014156D01*
X058332Y014098D01*
X058292Y014042D01*
X058250Y013988D01*
X058204Y013937D01*
X058155Y013888D01*
X058104Y013842D01*
X058050Y013800D01*
X057994Y013760D01*
X057936Y013724D01*
X057875Y013692D01*
X057813Y013663D01*
X057749Y013637D01*
X057684Y013616D01*
X057617Y013598D01*
X057550Y013584D01*
X057482Y013574D01*
X057414Y013568D01*
X057345Y013566D01*
X057276Y013568D01*
X057208Y013574D01*
X057140Y013584D01*
X057073Y013598D01*
X057006Y013616D01*
X056941Y013637D01*
X056877Y013663D01*
X056815Y013692D01*
X056754Y013724D01*
X056696Y013760D01*
X056640Y013800D01*
X056586Y013842D01*
X056535Y013888D01*
X056486Y013937D01*
X056440Y013988D01*
X056398Y014042D01*
X056358Y014098D01*
X056322Y014156D01*
X056290Y014217D01*
X056261Y014279D01*
X056235Y014343D01*
X056214Y014408D01*
X056196Y014475D01*
X056182Y014542D01*
X056172Y014610D01*
X056166Y014678D01*
X056164Y014747D01*
D11*
X041873Y008645D02*
X041873Y008290D01*
X041479Y008645D01*
X040849Y008645D01*
X040849Y009078D01*
X040849Y008645D02*
X040534Y008645D01*
X040534Y007582D01*
X040849Y007582D01*
X040849Y007188D01*
X040849Y007582D02*
X041558Y007582D01*
X041558Y007188D01*
X041558Y007582D02*
X041873Y007582D01*
X041873Y008290D01*
X041873Y008645D02*
X041558Y008645D01*
X041558Y009078D01*
X041558Y008645D02*
X041479Y008645D01*
X041558Y051912D02*
X041558Y052306D01*
X041873Y052306D01*
X041873Y053015D01*
X041479Y053369D01*
X040849Y053369D01*
X040849Y053802D01*
X040849Y053369D02*
X040534Y053369D01*
X040534Y052306D01*
X040849Y052306D01*
X040849Y051912D01*
X040849Y052306D02*
X041558Y052306D01*
X041873Y053015D02*
X041873Y053369D01*
X041558Y053369D01*
X041558Y053802D01*
X041558Y053369D02*
X041479Y053369D01*
D12*
X040466Y052801D02*
X040306Y052801D01*
X040306Y052748D02*
X040306Y052855D01*
X040222Y052873D02*
X040222Y052926D01*
X040195Y052953D01*
X040089Y052846D01*
X040062Y052873D01*
X040062Y052926D01*
X040089Y052953D01*
X040195Y052953D01*
X040222Y052994D02*
X040222Y053100D01*
X040195Y053100D01*
X040089Y052994D01*
X040062Y052994D01*
X040062Y053141D02*
X040062Y053248D01*
X040062Y053288D02*
X040062Y053395D01*
X040089Y053435D02*
X040062Y053462D01*
X040062Y053516D01*
X040089Y053542D01*
X040115Y053542D01*
X040142Y053516D01*
X040142Y053462D01*
X040169Y053435D01*
X040195Y053435D01*
X040222Y053462D01*
X040222Y053516D01*
X040195Y053542D01*
X040222Y053342D02*
X040062Y053342D01*
X040169Y053288D02*
X040222Y053342D01*
X040222Y053194D02*
X040062Y053194D01*
X040169Y053141D02*
X040222Y053194D01*
X040222Y052873D02*
X040195Y052846D01*
X040089Y052846D01*
X040062Y052806D02*
X040115Y052752D01*
X040115Y052779D02*
X040115Y052699D01*
X040062Y052699D02*
X040222Y052699D01*
X040222Y052779D01*
X040195Y052806D01*
X040142Y052806D01*
X040115Y052779D01*
X040062Y052654D02*
X040062Y052601D01*
X040062Y052627D02*
X040222Y052627D01*
X040222Y052601D02*
X040222Y052654D01*
X040306Y052627D02*
X040306Y052681D01*
X040333Y052707D01*
X040306Y052627D02*
X040333Y052601D01*
X040439Y052601D01*
X040466Y052627D01*
X040466Y052681D01*
X040439Y052707D01*
X040413Y052748D02*
X040466Y052801D01*
X040466Y052560D02*
X040306Y052560D01*
X040466Y052453D01*
X040306Y052453D01*
X040306Y052413D02*
X040306Y052306D01*
X040466Y052306D01*
X040466Y052413D01*
X040386Y052359D02*
X040386Y052306D01*
X040222Y052306D02*
X040062Y052306D01*
X040115Y052306D02*
X040222Y052413D01*
X040222Y052453D02*
X040222Y052560D01*
X040222Y052507D02*
X040062Y052507D01*
X040062Y052413D02*
X040142Y052333D01*
X040115Y008818D02*
X040089Y008818D01*
X040062Y008791D01*
X040062Y008738D01*
X040089Y008711D01*
X040062Y008671D02*
X040062Y008564D01*
X040062Y008523D02*
X040062Y008416D01*
X040062Y008470D02*
X040222Y008470D01*
X040169Y008416D01*
X040195Y008376D02*
X040089Y008269D01*
X040062Y008269D01*
X040089Y008229D02*
X040062Y008202D01*
X040062Y008148D01*
X040089Y008122D01*
X040195Y008229D01*
X040089Y008229D01*
X040195Y008229D02*
X040222Y008202D01*
X040222Y008148D01*
X040195Y008122D01*
X040089Y008122D01*
X040062Y008081D02*
X040115Y008028D01*
X040115Y008055D02*
X040115Y007974D01*
X040062Y007974D02*
X040222Y007974D01*
X040222Y008055D01*
X040195Y008081D01*
X040142Y008081D01*
X040115Y008055D01*
X040062Y007930D02*
X040062Y007876D01*
X040062Y007903D02*
X040222Y007903D01*
X040222Y007876D02*
X040222Y007930D01*
X040306Y007956D02*
X040333Y007983D01*
X040306Y007956D02*
X040306Y007903D01*
X040333Y007876D01*
X040439Y007876D01*
X040466Y007903D01*
X040466Y007956D01*
X040439Y007983D01*
X040439Y008024D02*
X040466Y008050D01*
X040466Y008104D01*
X040439Y008130D01*
X040413Y008130D01*
X040306Y008024D01*
X040306Y008130D01*
X040222Y008269D02*
X040222Y008376D01*
X040195Y008376D01*
X040169Y008564D02*
X040222Y008617D01*
X040062Y008617D01*
X040169Y008711D02*
X040142Y008738D01*
X040142Y008791D01*
X040115Y008818D01*
X040195Y008818D02*
X040222Y008791D01*
X040222Y008738D01*
X040195Y008711D01*
X040169Y008711D01*
X040222Y007836D02*
X040222Y007729D01*
X040222Y007688D02*
X040115Y007582D01*
X040142Y007608D02*
X040062Y007688D01*
X040062Y007782D02*
X040222Y007782D01*
X040306Y007729D02*
X040466Y007729D01*
X040306Y007836D01*
X040466Y007836D01*
X040466Y007688D02*
X040466Y007582D01*
X040306Y007582D01*
X040306Y007688D01*
X040386Y007635D02*
X040386Y007582D01*
X040222Y007582D02*
X040062Y007582D01*
M02*
