%
M48
M72
T01C0.0190
T02C0.0197
T03C0.0335
T04C0.0400
T05C0.0866
T06C0.0984
T07C0.1260
T08C0.1339
%
T01
X65810Y35849
X65495Y37070
X65613Y38054
X65613Y38487
X65613Y38960
X67109Y38960
X67109Y39708
X67109Y38133
X63802Y35377
X62030Y34983
X60574Y37306
X54983Y36558
X53133Y35810
X52385Y36794
X52739Y37149
X51125Y36755
X49668Y38487
X50613Y39235
X50141Y39865
X51873Y38802
X52306Y38802
X47857Y38605
X47030Y37700
X46479Y39117
X46715Y39904
X47345Y39865
X45967Y40219
X45062Y38487
X45534Y37345
X44314Y36086
X43960Y36361
X42897Y35731
X40298Y34747
X39235Y35377
X43369Y32149
X44314Y30023
X44314Y28999
X44038Y27188
X41834Y27188
X42857Y24983
X43881Y25534
X46204Y24353
X46519Y23054
X44747Y21361
X43054Y21873
X43054Y22306
X41282Y20495
X40967Y20180
X44078Y19629
X44078Y18330
X44629Y17936
X43802Y16991
X44274Y16519
X43763Y15416
X46637Y14314
X46794Y16440
X48172Y16046
X49826Y18448
X48920Y18802
X48290Y18763
X47975Y19983
X48290Y20298
X48015Y20652
X48290Y21007
X49511Y22109
X50967Y21637
X50337Y20692
X50889Y23487
X51322Y23487
X51755Y23487
X52070Y23172
X54196Y22975
X51794Y24944
X51834Y25967
X53015Y26440
X53645Y26637
X54078Y27267
X54589Y27739
X53763Y28015
X53015Y28526
X52582Y28448
X52818Y28054
X52385Y27070
X51755Y27739
X51361Y28093
X51361Y29708
X52149Y29944
X52582Y29944
X52582Y29314
X53645Y29432
X54078Y29432
X55259Y29235
X55180Y30219
X55298Y31007
X54747Y31322
X53802Y31322
X53684Y30692
X54353Y32424
X54904Y32582
X55534Y32424
X54353Y33881
X53330Y33723
X50337Y33802
X49511Y34629
X46912Y34629
X46597Y33133
X46479Y30456
X46794Y30141
X46794Y29353
X46164Y28999
X47109Y28684
X47542Y28487
X47424Y27463
X46991Y27463
X46164Y27188
X47227Y26243
X47897Y25101
X49314Y31715
X49511Y32149
X50928Y31755
X51558Y31243
X55928Y28015
X55889Y27542
X57030Y29432
X57188Y30337
X57739Y31046
X58684Y31991
X61007Y31046
X61400Y30731
X63645Y29038
X62503Y27739
X61952Y26440
X61952Y25967
X61322Y25337
X60889Y25377
X60298Y25849
X59156Y26400
X60810Y24393
X60062Y23960
X61715Y22306
X62542Y21637
X61715Y21007
X60613Y20692
X60062Y21991
X59550Y21637
X62542Y19904
X63566Y19589
X66519Y23054
X60298Y15731
X52267Y11794
X47345Y11912
X38487Y17306
X37700Y18526
X36834Y19747
X36282Y21952
X37503Y23172
X40141Y23054
X39550Y25967
X33802Y21125
X32542Y21440
X28408Y22582
X24235Y22070
X29826Y31243
X31715Y31243
X32345Y32306
X30889Y33763
X32503Y34983
X31715Y35298
X31715Y36007
X30495Y36282
X28290Y35298
X30889Y38920
X32345Y38920
X32345Y39353
X34196Y40062
X34904Y45495
X44078Y49432
X45613Y49629
X49550Y49511
X50219Y49314
X51479Y49196
X51794Y49511
X53172Y49511
X53605Y52424
X54826Y53172
X53920Y53881
X53881Y54511
X52739Y54629
X58330Y49511
X58645Y49196
X49314Y47030
X47385Y44156
X48133Y42818
X37975Y31243
X35928Y14078
X35928Y13566
X37897Y11519
X31519Y11597
X31519Y11164
X30889Y11282
X30337Y11794
X29078Y11794
X28645Y11794
X28369Y11204
X30849Y10495
T02
X32463Y11558
X36282Y15180
X35810Y15652
X35337Y15810
X36046Y16912
X37857Y14786
X38566Y14904
X36007Y19589
X35062Y22818
X29826Y24629
X30141Y28133
X28290Y28763
X26243Y28133
X25692Y27306
X23881Y28133
X22306Y26164
X23093Y24786
X22700Y18684
X32267Y17739
X40967Y25534
X42109Y22660
X42503Y20692
X44668Y19550
X45062Y17621
X45652Y14904
X46282Y15101
X48960Y14353
X48841Y13566
X51046Y12778
X51440Y16322
X49078Y17463
X46873Y23881
X48211Y26322
X53684Y25023
X55889Y29511
X55889Y30534
X53802Y30062
X59156Y29038
X65141Y24708
X66086Y24786
X66755Y24668
X68054Y24747
X67109Y22030
X68487Y31676
X64589Y35219
X62936Y35219
X60377Y35731
X59117Y36204
X57463Y35967
X57660Y37739
X55652Y36519
X53251Y36715
X51794Y35574
X50574Y35574
X49156Y35652
X40416Y36597
X39078Y37149
X39078Y38054
X39078Y39511
X36519Y39786
X35652Y41204
X34708Y41243
X37660Y43881
X34314Y46322
X34196Y47149
X31834Y45967
X30574Y46243
X37660Y35613
X38448Y29156
X39983Y28881
X27936Y34235
X25967Y32542
X47030Y45967
X47149Y46715
X47463Y47188
X53290Y52897
X52424Y53408
X52385Y53999
X56519Y54589
X56715Y52778
X57188Y52306
X57306Y50731
X60456Y41991
X63645Y37424
X68645Y40652
X57345Y12778
X53054Y8999
X44589Y11519
X22385Y9078
T03
X69511Y29511
X69511Y31479
T04
X45641Y29495
X45641Y28495
X44641Y28495
X44641Y29495
X44641Y30495
X45641Y30495
X45641Y31495
X45641Y32495
X44641Y32495
X44641Y31495
X44641Y33495
X45641Y33495
X45641Y34495
X44641Y34495
X44641Y35495
X45641Y35495
X42975Y42700
X39432Y42700
X44641Y27495
X45641Y27495
X45641Y26495
X44641Y26495
X44641Y25495
X45641Y25495
X42975Y18290
X39432Y18290
T05
X35692Y27956
X35692Y32995
T06
X67582Y33395
X67582Y27595
X44747Y13172
X37660Y13172
X12070Y27595
X12070Y33395
X37660Y47818
X44747Y47818
T07
X20731Y10810
X22306Y23408
X30574Y23408
X30574Y37582
X22306Y37582
X20731Y50180
X48684Y37582
X61282Y50180
X61282Y10810
X48684Y23408
T08
X35692Y30495
M30
