G75*
%MOIN*%
%OFA0B0*%
%FSLAX24Y24*%
%IPPOS*%
%LPD*%
%AMOC8*
5,1,8,0,0,1.08239X$1,22.5*
%
%ADD10C,0.0040*%
%ADD11C,0.0110*%
%ADD12C,0.0080*%
%ADD13C,0.0380*%
%ADD14C,0.0020*%
%ADD15C,0.0050*%
%ADD16C,0.0060*%
%ADD17C,0.0160*%
%ADD18C,0.0030*%
%ADD19C,0.0039*%
%ADD20C,0.0079*%
%ADD21R,0.0600X0.0600*%
%ADD22C,0.0000*%
%ADD23C,0.0118*%
D10*
X018260Y014792D02*
X018260Y015253D01*
X018490Y015253D01*
X018567Y015176D01*
X018567Y015022D01*
X018490Y014946D01*
X018260Y014946D01*
X018414Y014946D02*
X018567Y014792D01*
X018721Y014869D02*
X018797Y014792D01*
X018951Y014792D01*
X019027Y014869D01*
X019027Y015022D01*
X018951Y015099D01*
X018874Y015099D01*
X018721Y015022D01*
X018721Y015253D01*
X019027Y015253D01*
X019181Y015253D02*
X019488Y015253D01*
X019488Y015176D01*
X019181Y014869D01*
X019181Y014792D01*
X019145Y015818D02*
X018991Y015818D01*
X018914Y015895D01*
X018914Y016048D02*
X019068Y016125D01*
X019145Y016125D01*
X019221Y016048D01*
X019221Y015895D01*
X019145Y015818D01*
X019375Y015895D02*
X019451Y015818D01*
X019605Y015818D01*
X019682Y015895D01*
X019682Y016048D01*
X019605Y016125D01*
X019528Y016125D01*
X019375Y016048D01*
X019375Y016279D01*
X019682Y016279D01*
X019221Y016279D02*
X018914Y016279D01*
X018914Y016048D01*
X018761Y016048D02*
X018684Y015972D01*
X018454Y015972D01*
X018607Y015972D02*
X018761Y015818D01*
X018761Y016048D02*
X018761Y016202D01*
X018684Y016279D01*
X018454Y016279D01*
X018454Y015818D01*
X016060Y017560D02*
X016060Y017714D01*
X015983Y017790D01*
X016060Y017944D02*
X015753Y018251D01*
X015676Y018251D01*
X015600Y018174D01*
X015600Y018021D01*
X015676Y017944D01*
X015676Y017790D02*
X015600Y017714D01*
X015600Y017560D01*
X015676Y017483D01*
X015983Y017483D01*
X016060Y017560D01*
X016060Y017944D02*
X016060Y018251D01*
X015830Y018404D02*
X015830Y018711D01*
X016060Y018634D02*
X015600Y018634D01*
X015830Y018404D01*
X016124Y022172D02*
X016431Y022172D01*
X016508Y022248D01*
X016508Y022402D01*
X016431Y022479D01*
X016508Y022632D02*
X016201Y022939D01*
X016124Y022939D01*
X016048Y022862D01*
X016048Y022709D01*
X016124Y022632D01*
X016124Y022479D02*
X016048Y022402D01*
X016048Y022248D01*
X016124Y022172D01*
X016508Y022632D02*
X016508Y022939D01*
X016431Y023092D02*
X016124Y023399D01*
X016431Y023399D01*
X016508Y023323D01*
X016508Y023169D01*
X016431Y023092D01*
X016124Y023092D01*
X016048Y023169D01*
X016048Y023323D01*
X016124Y023399D01*
X017307Y023423D02*
X017384Y023270D01*
X017538Y023116D01*
X017538Y023347D01*
X017614Y023423D01*
X017691Y023423D01*
X017768Y023347D01*
X017768Y023193D01*
X017691Y023116D01*
X017538Y023116D01*
X017461Y022963D02*
X017768Y022656D01*
X017768Y022963D01*
X017461Y022963D02*
X017384Y022963D01*
X017307Y022886D01*
X017307Y022733D01*
X017384Y022656D01*
X017384Y022503D02*
X017538Y022503D01*
X017614Y022426D01*
X017614Y022196D01*
X017614Y022349D02*
X017768Y022503D01*
X017768Y022196D02*
X017307Y022196D01*
X017307Y022426D01*
X017384Y022503D01*
X018399Y022798D02*
X018399Y023028D01*
X018476Y023105D01*
X018629Y023105D01*
X018706Y023028D01*
X018706Y022798D01*
X018706Y022951D02*
X018859Y023105D01*
X018783Y023258D02*
X018859Y023335D01*
X018859Y023488D01*
X018783Y023565D01*
X018706Y023565D01*
X018629Y023488D01*
X018629Y023411D01*
X018629Y023488D02*
X018552Y023565D01*
X018476Y023565D01*
X018399Y023488D01*
X018399Y023335D01*
X018476Y023258D01*
X018476Y023718D02*
X018399Y023795D01*
X018399Y023949D01*
X018476Y024025D01*
X018783Y023718D01*
X018859Y023795D01*
X018859Y023949D01*
X018783Y024025D01*
X018476Y024025D01*
X018476Y023718D02*
X018783Y023718D01*
X019989Y023777D02*
X020066Y023700D01*
X020143Y023700D01*
X020219Y023777D01*
X020219Y024007D01*
X020066Y024007D02*
X019989Y023930D01*
X019989Y023777D01*
X020066Y024007D02*
X020373Y024007D01*
X020450Y023930D01*
X020450Y023777D01*
X020373Y023700D01*
X020450Y023547D02*
X020450Y023240D01*
X020143Y023547D01*
X020066Y023547D01*
X019989Y023470D01*
X019989Y023316D01*
X020066Y023240D01*
X020066Y023086D02*
X020219Y023086D01*
X020296Y023009D01*
X020296Y022779D01*
X020450Y022779D02*
X019989Y022779D01*
X019989Y023009D01*
X020066Y023086D01*
X020296Y022933D02*
X020450Y023086D01*
X020965Y022373D02*
X020888Y022297D01*
X020888Y022143D01*
X020965Y022066D01*
X020965Y021913D02*
X020888Y021836D01*
X020888Y021683D01*
X020965Y021606D01*
X020965Y021453D02*
X020888Y021376D01*
X020888Y021222D01*
X020965Y021146D01*
X021271Y021146D01*
X021348Y021222D01*
X021348Y021376D01*
X021271Y021453D01*
X021348Y021606D02*
X021041Y021913D01*
X020965Y021913D01*
X021348Y021913D02*
X021348Y021606D01*
X021348Y022066D02*
X021041Y022373D01*
X020965Y022373D01*
X021348Y022373D02*
X021348Y022066D01*
X023596Y022468D02*
X023596Y022928D01*
X023827Y022928D01*
X023903Y022851D01*
X023903Y022698D01*
X023827Y022621D01*
X023596Y022621D01*
X023750Y022621D02*
X023903Y022468D01*
X024057Y022698D02*
X024364Y022698D01*
X024517Y022851D02*
X024594Y022928D01*
X024747Y022928D01*
X024824Y022851D01*
X024824Y022775D01*
X024747Y022698D01*
X024824Y022621D01*
X024824Y022544D01*
X024747Y022468D01*
X024594Y022468D01*
X024517Y022544D01*
X024671Y022698D02*
X024747Y022698D01*
X024287Y022468D02*
X024287Y022928D01*
X024057Y022698D01*
X025551Y023371D02*
X025551Y023601D01*
X025628Y023678D01*
X025781Y023678D01*
X025858Y023601D01*
X025858Y023371D01*
X026011Y023371D02*
X025551Y023371D01*
X025858Y023525D02*
X026011Y023678D01*
X025781Y023832D02*
X025781Y024139D01*
X025934Y024292D02*
X025628Y024599D01*
X025551Y024599D01*
X025551Y024292D01*
X025551Y024062D02*
X025781Y023832D01*
X026011Y024062D02*
X025551Y024062D01*
X025934Y024292D02*
X026011Y024292D01*
X024078Y026050D02*
X024078Y026511D01*
X023848Y026281D01*
X024155Y026281D01*
X023694Y026281D02*
X023387Y026281D01*
X023618Y026511D01*
X023618Y026050D01*
X023234Y026050D02*
X023081Y026204D01*
X023157Y026204D02*
X022927Y026204D01*
X022927Y026050D02*
X022927Y026511D01*
X023157Y026511D01*
X023234Y026434D01*
X023234Y026281D01*
X023157Y026204D01*
X024833Y026952D02*
X024833Y027183D01*
X024910Y027259D01*
X025064Y027259D01*
X025140Y027183D01*
X025140Y026952D01*
X025140Y027106D02*
X025294Y027259D01*
X025294Y027413D02*
X024987Y027720D01*
X024910Y027720D01*
X024833Y027643D01*
X024833Y027489D01*
X024910Y027413D01*
X025294Y027413D02*
X025294Y027720D01*
X025294Y026952D02*
X024833Y026952D01*
X030041Y027091D02*
X030041Y026784D01*
X030118Y026631D02*
X030041Y026554D01*
X030041Y026324D01*
X030502Y026324D01*
X030348Y026324D02*
X030348Y026554D01*
X030272Y026631D01*
X030118Y026631D01*
X030348Y026477D02*
X030502Y026631D01*
X030502Y026784D02*
X030425Y026784D01*
X030118Y027091D01*
X030041Y027091D01*
X031274Y027238D02*
X031274Y027545D01*
X031274Y027238D01*
X031274Y027392D02*
X031735Y027392D01*
X031274Y027392D01*
X031274Y027699D02*
X031274Y028006D01*
X031274Y027699D01*
X031274Y027852D02*
X031735Y027852D01*
X031274Y027852D01*
X031428Y027085D02*
X031735Y027085D01*
X031428Y027085D01*
X031274Y026931D01*
X031428Y026778D01*
X031735Y026778D01*
X031428Y026778D01*
X031274Y026931D01*
X031428Y027085D01*
X031505Y027085D02*
X031505Y026778D01*
X031505Y027085D01*
X031581Y026625D02*
X031658Y026625D01*
X031735Y026548D01*
X031735Y026318D01*
X031274Y026318D01*
X031274Y026548D01*
X031351Y026625D01*
X031428Y026625D01*
X031505Y026548D01*
X031505Y026318D01*
X031505Y026548D01*
X031581Y026625D01*
X031658Y026625D01*
X031735Y026548D01*
X031735Y026318D01*
X031274Y026318D01*
X031274Y026548D01*
X031351Y026625D01*
X031428Y026625D01*
X031505Y026548D01*
X031581Y026625D01*
X031581Y026164D02*
X031274Y026164D01*
X031581Y026164D01*
X031735Y026011D01*
X031581Y025857D01*
X031274Y025857D01*
X031581Y025857D01*
X031735Y026011D01*
X031581Y026164D01*
X031505Y025704D02*
X031505Y025474D01*
X031428Y025397D01*
X031351Y025397D01*
X031274Y025474D01*
X031274Y025627D01*
X031351Y025704D01*
X031658Y025704D01*
X031735Y025627D01*
X031735Y025474D01*
X031658Y025397D01*
X031735Y025474D01*
X031735Y025627D01*
X031658Y025704D01*
X031351Y025704D01*
X031274Y025627D01*
X031274Y025474D01*
X031351Y025397D01*
X031428Y025397D01*
X031505Y025474D01*
X031505Y025704D01*
X033282Y023911D02*
X033282Y023604D01*
X033359Y023528D01*
X033512Y023528D01*
X033589Y023604D01*
X033742Y023528D02*
X034049Y023528D01*
X033896Y023528D02*
X033896Y023988D01*
X033742Y023834D01*
X033589Y023911D02*
X033512Y023988D01*
X033359Y023988D01*
X033282Y023911D01*
X033211Y022493D02*
X033211Y022313D01*
X033331Y022373D01*
X033391Y022373D01*
X033451Y022313D01*
X033451Y022193D01*
X033391Y022133D01*
X033271Y022133D01*
X033211Y022193D01*
X033211Y022493D02*
X033451Y022493D01*
X033579Y022493D02*
X033579Y022253D01*
X033699Y022133D01*
X033819Y022253D01*
X033819Y022493D01*
X033947Y022493D02*
X034128Y022493D01*
X034188Y022433D01*
X034188Y022313D01*
X034128Y022253D01*
X033947Y022253D01*
X033947Y022133D02*
X033947Y022493D01*
X034068Y022253D02*
X034188Y022133D01*
X034316Y022133D02*
X034556Y022133D01*
X034684Y022193D02*
X034744Y022133D01*
X034864Y022133D01*
X034924Y022193D01*
X034924Y022313D01*
X034804Y022313D01*
X034684Y022433D02*
X034684Y022193D01*
X034684Y022433D02*
X034744Y022493D01*
X034864Y022493D01*
X034924Y022433D01*
X034556Y022493D02*
X034316Y022493D01*
X034316Y022133D01*
X034316Y022313D02*
X034436Y022313D01*
X032739Y020126D02*
X032586Y020126D01*
X032509Y020049D01*
X032355Y020049D02*
X032279Y020126D01*
X032125Y020126D01*
X032049Y020049D01*
X032049Y019742D01*
X032125Y019665D01*
X032279Y019665D01*
X032355Y019742D01*
X032509Y019665D02*
X032816Y019972D01*
X032816Y020049D01*
X032739Y020126D01*
X032816Y019665D02*
X032509Y019665D01*
X032191Y017995D02*
X032191Y017688D01*
X031884Y017995D01*
X031807Y017995D01*
X031731Y017918D01*
X031731Y017765D01*
X031807Y017688D01*
X031961Y017535D02*
X031961Y017228D01*
X031731Y017458D01*
X032191Y017458D01*
X032191Y017074D02*
X032038Y016921D01*
X032038Y016997D02*
X032038Y016767D01*
X032191Y016767D02*
X031731Y016767D01*
X031731Y016997D01*
X031807Y017074D01*
X031961Y017074D01*
X032038Y016997D01*
X032904Y016911D02*
X032904Y016758D01*
X032981Y016681D01*
X033288Y016681D01*
X033365Y016758D01*
X033365Y016911D01*
X033288Y016988D01*
X033365Y017141D02*
X033058Y017448D01*
X032981Y017448D01*
X032904Y017372D01*
X032904Y017218D01*
X032981Y017141D01*
X032981Y016988D02*
X032904Y016911D01*
X033365Y017141D02*
X033365Y017448D01*
X033365Y017602D02*
X033288Y017602D01*
X032981Y017909D01*
X032904Y017909D01*
X032904Y017602D01*
X035345Y017070D02*
X035345Y016917D01*
X035422Y016840D01*
X035499Y016840D01*
X035575Y016917D01*
X035575Y017147D01*
X035422Y017147D02*
X035345Y017070D01*
X035422Y017147D02*
X035729Y017147D01*
X035806Y017070D01*
X035806Y016917D01*
X035729Y016840D01*
X035729Y016687D02*
X035806Y016610D01*
X035806Y016456D01*
X035729Y016380D01*
X035575Y016380D02*
X035499Y016533D01*
X035499Y016610D01*
X035575Y016687D01*
X035729Y016687D01*
X035575Y016380D02*
X035345Y016380D01*
X035345Y016687D01*
X035422Y016226D02*
X035575Y016226D01*
X035652Y016149D01*
X035652Y015919D01*
X035806Y015919D02*
X035345Y015919D01*
X035345Y016149D01*
X035422Y016226D01*
X035652Y016073D02*
X035806Y016226D01*
X035719Y015727D02*
X035489Y015497D01*
X035796Y015497D01*
X035950Y015344D02*
X036256Y015651D01*
X036256Y015344D01*
X036180Y015267D01*
X036026Y015267D01*
X035950Y015344D01*
X035950Y015651D01*
X036026Y015727D01*
X036180Y015727D01*
X036256Y015651D01*
X035719Y015727D02*
X035719Y015267D01*
X035336Y015267D02*
X035182Y015420D01*
X035259Y015420D02*
X035029Y015420D01*
X035029Y015267D02*
X035029Y015727D01*
X035259Y015727D01*
X035336Y015651D01*
X035336Y015497D01*
X035259Y015420D01*
X035808Y017743D02*
X036038Y017743D01*
X036115Y017820D01*
X036115Y018127D01*
X036038Y018203D01*
X035808Y018203D01*
X035808Y017743D01*
X036269Y017743D02*
X036576Y018050D01*
X036576Y018127D01*
X036499Y018203D01*
X036345Y018203D01*
X036269Y018127D01*
X036269Y017743D02*
X036576Y017743D01*
X036584Y018596D02*
X036277Y018596D01*
X036430Y018596D02*
X036430Y019056D01*
X036277Y018903D01*
X036124Y018979D02*
X036047Y019056D01*
X035817Y019056D01*
X035817Y018596D01*
X036047Y018596D01*
X036124Y018672D01*
X036124Y018979D01*
X038141Y019055D02*
X038217Y018978D01*
X038141Y019055D02*
X038141Y019208D01*
X038217Y019285D01*
X038294Y019285D01*
X038601Y018978D01*
X038601Y019285D01*
X038601Y019438D02*
X038294Y019745D01*
X038217Y019745D01*
X038141Y019669D01*
X038141Y019515D01*
X038217Y019438D01*
X038601Y019438D02*
X038601Y019745D01*
X039149Y019741D02*
X039149Y019434D01*
X039226Y019357D01*
X039379Y019357D01*
X039456Y019434D01*
X039610Y019434D02*
X039686Y019357D01*
X039840Y019357D01*
X039917Y019434D01*
X039917Y019511D01*
X039840Y019588D01*
X039610Y019588D01*
X039610Y019434D01*
X039610Y019588D02*
X039763Y019741D01*
X039917Y019818D01*
X039456Y019741D02*
X039379Y019818D01*
X039226Y019818D01*
X039149Y019741D01*
X038601Y018825D02*
X038447Y018671D01*
X038447Y018748D02*
X038447Y018518D01*
X038601Y018518D02*
X038141Y018518D01*
X038141Y018748D01*
X038217Y018825D01*
X038371Y018825D01*
X038447Y018748D01*
X039369Y021029D02*
X039293Y021105D01*
X039293Y021412D01*
X039369Y021489D01*
X039523Y021489D01*
X039599Y021412D01*
X039599Y021105D01*
X039523Y021029D01*
X039369Y021029D01*
X039446Y021182D02*
X039599Y021029D01*
X039753Y021029D02*
X040060Y021336D01*
X040060Y021412D01*
X039983Y021489D01*
X039830Y021489D01*
X039753Y021412D01*
X039753Y021029D02*
X040060Y021029D01*
X039307Y022322D02*
X039153Y022322D01*
X039077Y022399D01*
X039077Y022552D01*
X039307Y022552D01*
X039384Y022476D01*
X039384Y022399D01*
X039307Y022322D01*
X039077Y022552D02*
X039230Y022706D01*
X039384Y022782D01*
X038923Y022706D02*
X038923Y022629D01*
X038846Y022552D01*
X038923Y022476D01*
X038923Y022399D01*
X038846Y022322D01*
X038693Y022322D01*
X038616Y022399D01*
X038463Y022322D02*
X038309Y022476D01*
X038386Y022476D02*
X038156Y022476D01*
X038156Y022322D02*
X038156Y022782D01*
X038386Y022782D01*
X038463Y022706D01*
X038463Y022552D01*
X038386Y022476D01*
X038616Y022706D02*
X038693Y022782D01*
X038846Y022782D01*
X038923Y022706D01*
X038846Y022552D02*
X038770Y022552D01*
X040532Y022893D02*
X040879Y022893D01*
X041048Y022979D02*
X041134Y022893D01*
X041308Y022893D01*
X041395Y022979D01*
X041395Y023326D01*
X041308Y023413D01*
X041134Y023413D01*
X041048Y023326D01*
X041048Y022979D01*
X041563Y022893D02*
X041737Y023066D01*
X041910Y022893D01*
X041910Y023413D01*
X041563Y023413D02*
X041563Y022893D01*
X040532Y022893D02*
X040532Y023413D01*
X040534Y024573D02*
X040274Y024573D01*
X040274Y025093D01*
X040534Y025093D01*
X040621Y025006D01*
X040621Y024920D01*
X040534Y024833D01*
X040274Y024833D01*
X040534Y024833D02*
X040621Y024746D01*
X040621Y024659D01*
X040534Y024573D01*
X040790Y024573D02*
X040790Y024920D01*
X040963Y025093D01*
X041137Y024920D01*
X041137Y024573D01*
X041137Y024833D02*
X040790Y024833D01*
X041306Y025093D02*
X041652Y025093D01*
X041821Y025093D02*
X042168Y025093D01*
X041995Y025093D02*
X041995Y024573D01*
X041479Y024573D02*
X041479Y025093D01*
X042476Y025374D02*
X042476Y025681D01*
X042476Y025374D02*
X042630Y025221D01*
X042783Y025374D01*
X042783Y025681D01*
X042937Y025681D02*
X043090Y025681D01*
X043013Y025681D02*
X043013Y025221D01*
X042937Y025221D02*
X043090Y025221D01*
X043244Y025221D02*
X043244Y025681D01*
X043550Y025221D01*
X043550Y025681D01*
X043474Y026226D02*
X043320Y026226D01*
X043244Y026302D01*
X043090Y026379D02*
X043090Y026686D01*
X043244Y026609D02*
X043320Y026686D01*
X043474Y026686D01*
X043550Y026609D01*
X043550Y026533D01*
X043474Y026456D01*
X043550Y026379D01*
X043550Y026302D01*
X043474Y026226D01*
X043474Y026456D02*
X043397Y026456D01*
X043090Y026379D02*
X042937Y026226D01*
X042783Y026379D01*
X042783Y026686D01*
X042630Y026609D02*
X042630Y026533D01*
X042553Y026456D01*
X042630Y026379D01*
X042630Y026302D01*
X042553Y026226D01*
X042399Y026226D01*
X042323Y026302D01*
X042476Y026456D02*
X042553Y026456D01*
X042630Y026609D02*
X042553Y026686D01*
X042399Y026686D01*
X042323Y026609D01*
X042476Y027231D02*
X042630Y027384D01*
X042630Y027691D01*
X042783Y027614D02*
X042860Y027691D01*
X043013Y027691D01*
X043090Y027614D01*
X043244Y027614D02*
X043244Y027307D01*
X043320Y027231D01*
X043474Y027231D01*
X043550Y027307D01*
X043550Y027614D02*
X043474Y027691D01*
X043320Y027691D01*
X043244Y027614D01*
X043090Y027307D02*
X043013Y027231D01*
X042860Y027231D01*
X042783Y027307D01*
X042783Y027614D01*
X042323Y027691D02*
X042323Y027384D01*
X042476Y027231D01*
X042783Y028236D02*
X043013Y028236D01*
X043090Y028312D01*
X043090Y028619D01*
X043013Y028696D01*
X042783Y028696D01*
X042783Y028236D01*
X043244Y028312D02*
X043320Y028236D01*
X043474Y028236D01*
X043550Y028312D01*
X043550Y028389D01*
X043474Y028466D01*
X043397Y028466D01*
X043474Y028466D02*
X043550Y028543D01*
X043550Y028619D01*
X043474Y028696D01*
X043320Y028696D01*
X043244Y028619D01*
X043244Y029241D02*
X043550Y029548D01*
X043550Y029624D01*
X043474Y029701D01*
X043320Y029701D01*
X043244Y029624D01*
X043090Y029624D02*
X043013Y029701D01*
X042783Y029701D01*
X042783Y029241D01*
X043013Y029241D01*
X043090Y029317D01*
X043090Y029624D01*
X043244Y029241D02*
X043550Y029241D01*
X043244Y030246D02*
X043244Y030706D01*
X043550Y030706D01*
X043397Y030476D02*
X043244Y030476D01*
X043090Y030706D02*
X042783Y030706D01*
X042783Y030246D01*
X043090Y030246D01*
X042937Y030476D02*
X042783Y030476D01*
X042630Y030476D02*
X042553Y030399D01*
X042323Y030399D01*
X042476Y030399D02*
X042630Y030246D01*
X042630Y030476D02*
X042630Y030629D01*
X042553Y030706D01*
X042323Y030706D01*
X042323Y030246D01*
X042169Y030246D02*
X042169Y030553D01*
X042016Y030706D01*
X041862Y030553D01*
X041862Y030246D01*
X041862Y030476D02*
X042169Y030476D01*
X042169Y031251D02*
X042169Y031558D01*
X042016Y031711D01*
X041862Y031558D01*
X041862Y031251D01*
X041862Y031481D02*
X042169Y031481D01*
X042323Y031711D02*
X042553Y031711D01*
X042630Y031634D01*
X042630Y031327D01*
X042553Y031251D01*
X042323Y031251D01*
X042323Y031711D01*
X042783Y031634D02*
X042783Y031327D01*
X042860Y031251D01*
X043013Y031251D01*
X043090Y031327D01*
X043244Y031327D02*
X043244Y031251D01*
X043244Y031327D02*
X043550Y031634D01*
X043550Y031711D01*
X043244Y031711D01*
X043090Y031634D02*
X043013Y031711D01*
X042860Y031711D01*
X042783Y031634D01*
X042860Y032256D02*
X043013Y032256D01*
X043090Y032332D01*
X043244Y032332D02*
X043320Y032256D01*
X043474Y032256D01*
X043550Y032332D01*
X043550Y032409D01*
X043474Y032486D01*
X043244Y032486D01*
X043244Y032332D01*
X043244Y032486D02*
X043397Y032639D01*
X043550Y032716D01*
X043090Y032639D02*
X043013Y032716D01*
X042860Y032716D01*
X042783Y032639D01*
X042783Y032332D01*
X042860Y032256D01*
X042630Y032332D02*
X042630Y032639D01*
X042553Y032716D01*
X042323Y032716D01*
X042323Y032256D01*
X042553Y032256D01*
X042630Y032332D01*
X042169Y032256D02*
X042169Y032563D01*
X042016Y032716D01*
X041862Y032563D01*
X041862Y032256D01*
X041862Y032486D02*
X042169Y032486D01*
X042783Y033261D02*
X043013Y033261D01*
X043090Y033337D01*
X043090Y033644D01*
X043013Y033721D01*
X042783Y033721D01*
X042783Y033261D01*
X043244Y033337D02*
X043244Y033414D01*
X043320Y033491D01*
X043474Y033491D01*
X043550Y033414D01*
X043550Y033337D01*
X043474Y033261D01*
X043320Y033261D01*
X043244Y033337D01*
X043320Y033491D02*
X043244Y033568D01*
X043244Y033644D01*
X043320Y033721D01*
X043474Y033721D01*
X043550Y033644D01*
X043550Y033568D01*
X043474Y033491D01*
X043244Y034266D02*
X043244Y034342D01*
X043550Y034649D01*
X043550Y034726D01*
X043244Y034726D01*
X043090Y034649D02*
X043013Y034726D01*
X042783Y034726D01*
X042783Y034266D01*
X043013Y034266D01*
X043090Y034342D01*
X043090Y034649D01*
X043013Y035271D02*
X043090Y035347D01*
X043090Y035654D01*
X043013Y035731D01*
X042783Y035731D01*
X042783Y035271D01*
X043013Y035271D01*
X043244Y035501D02*
X043550Y035501D01*
X043474Y035731D02*
X043244Y035501D01*
X043474Y035271D02*
X043474Y035731D01*
X041176Y035487D02*
X040870Y035487D01*
X040870Y035257D01*
X041023Y035334D01*
X041100Y035334D01*
X041176Y035257D01*
X041176Y035104D01*
X041100Y035027D01*
X040946Y035027D01*
X040870Y035104D01*
X040716Y035027D02*
X040409Y035027D01*
X040716Y035334D01*
X040716Y035410D01*
X040639Y035487D01*
X040486Y035487D01*
X040409Y035410D01*
X040256Y035410D02*
X040179Y035487D01*
X040025Y035487D01*
X039949Y035410D01*
X039949Y035104D01*
X040025Y035027D01*
X040179Y035027D01*
X040256Y035104D01*
X040654Y033499D02*
X040654Y033192D01*
X040424Y033423D01*
X040884Y033423D01*
X040654Y032885D02*
X040654Y032732D01*
X040424Y032732D02*
X040424Y033039D01*
X040424Y032732D02*
X040884Y032732D01*
X037539Y037005D02*
X037078Y037005D01*
X037078Y037235D01*
X037155Y037312D01*
X037309Y037312D01*
X037385Y037235D01*
X037385Y037005D01*
X037385Y037159D02*
X037539Y037312D01*
X037462Y037466D02*
X037539Y037542D01*
X037539Y037696D01*
X037462Y037772D01*
X037385Y037772D01*
X037309Y037696D01*
X037309Y037619D01*
X037309Y037696D02*
X037232Y037772D01*
X037155Y037772D01*
X037078Y037696D01*
X037078Y037542D01*
X037155Y037466D01*
X037232Y037926D02*
X037078Y038079D01*
X037539Y038079D01*
X037539Y037926D02*
X037539Y038233D01*
X035391Y037671D02*
X035391Y037518D01*
X035314Y037441D01*
X035237Y037441D01*
X035161Y037518D01*
X035161Y037671D01*
X035237Y037748D01*
X035314Y037748D01*
X035391Y037671D01*
X035161Y037671D02*
X035084Y037748D01*
X035007Y037748D01*
X034930Y037671D01*
X034930Y037518D01*
X035007Y037441D01*
X035084Y037441D01*
X035161Y037518D01*
X035237Y037288D02*
X035314Y037288D01*
X035391Y037211D01*
X035391Y037058D01*
X035314Y036981D01*
X035391Y036827D02*
X035237Y036674D01*
X035237Y036751D02*
X035237Y036520D01*
X035391Y036520D02*
X034930Y036520D01*
X034930Y036751D01*
X035007Y036827D01*
X035161Y036827D01*
X035237Y036751D01*
X035007Y036981D02*
X034930Y037058D01*
X034930Y037211D01*
X035007Y037288D01*
X035084Y037288D01*
X035161Y037211D01*
X035237Y037288D01*
X035161Y037211D02*
X035161Y037134D01*
X035097Y038895D02*
X034636Y038895D01*
X034636Y039125D01*
X034713Y039202D01*
X034866Y039202D01*
X034943Y039125D01*
X034943Y038895D01*
X034943Y039049D02*
X035097Y039202D01*
X035020Y039356D02*
X035097Y039432D01*
X035097Y039586D01*
X035020Y039663D01*
X034943Y039663D01*
X034866Y039586D01*
X034866Y039509D01*
X034866Y039586D02*
X034790Y039663D01*
X034713Y039663D01*
X034636Y039586D01*
X034636Y039432D01*
X034713Y039356D01*
X033251Y039238D02*
X033251Y039585D01*
X033251Y039753D02*
X033251Y040100D01*
X033251Y040269D02*
X033251Y040529D01*
X033164Y040616D01*
X032817Y040616D01*
X032730Y040529D01*
X032730Y040269D01*
X033251Y040269D01*
X032990Y039927D02*
X032990Y039753D01*
X032730Y039753D02*
X033251Y039753D01*
X033251Y039238D02*
X032730Y039238D01*
X032730Y039753D02*
X032730Y040100D01*
X032730Y038553D02*
X032730Y038206D01*
X032730Y038380D02*
X033251Y038380D01*
X033251Y038038D02*
X033077Y037864D01*
X033077Y037951D02*
X033077Y037691D01*
X033251Y037691D02*
X032730Y037691D01*
X032730Y037951D01*
X032817Y038038D01*
X032990Y038038D01*
X033077Y037951D01*
X032990Y037522D02*
X032990Y037175D01*
X032904Y037175D02*
X032730Y037349D01*
X032904Y037522D01*
X033251Y037522D01*
X033251Y037175D02*
X032904Y037175D01*
X032730Y037006D02*
X032730Y036660D01*
X032730Y036833D02*
X033251Y036833D01*
X033164Y036491D02*
X033251Y036404D01*
X033251Y036231D01*
X033164Y036144D01*
X032990Y036231D02*
X032990Y036404D01*
X033077Y036491D01*
X033164Y036491D01*
X032990Y036231D02*
X032904Y036144D01*
X032817Y036144D01*
X032730Y036231D01*
X032730Y036404D01*
X032817Y036491D01*
X031437Y035339D02*
X031437Y035186D01*
X031360Y035109D01*
X031284Y035109D01*
X031207Y035186D01*
X031207Y035339D01*
X031284Y035416D01*
X031360Y035416D01*
X031437Y035339D01*
X031207Y035339D02*
X031130Y035416D01*
X031054Y035416D01*
X030977Y035339D01*
X030977Y035186D01*
X031054Y035109D01*
X031130Y035109D01*
X031207Y035186D01*
X031207Y034956D02*
X031284Y034879D01*
X031284Y034649D01*
X031437Y034649D02*
X030977Y034649D01*
X030977Y034879D01*
X031054Y034956D01*
X031207Y034956D01*
X031284Y034802D02*
X031437Y034956D01*
X030154Y032547D02*
X029693Y032547D01*
X029924Y032317D01*
X029924Y032624D01*
X030000Y032163D02*
X030077Y032163D01*
X030154Y032087D01*
X030154Y031933D01*
X030077Y031856D01*
X030154Y031703D02*
X030000Y031550D01*
X030000Y031626D02*
X030000Y031396D01*
X030154Y031396D02*
X029693Y031396D01*
X029693Y031626D01*
X029770Y031703D01*
X029924Y031703D01*
X030000Y031626D01*
X029770Y031856D02*
X029693Y031933D01*
X029693Y032087D01*
X029770Y032163D01*
X029847Y032163D01*
X029924Y032087D01*
X030000Y032163D01*
X029924Y032087D02*
X029924Y032010D01*
X029977Y030705D02*
X030054Y030629D01*
X030054Y030475D01*
X029977Y030398D01*
X029977Y030245D02*
X030054Y030168D01*
X030054Y030015D01*
X029977Y029938D01*
X030054Y029784D02*
X029900Y029631D01*
X029900Y029708D02*
X029900Y029478D01*
X030054Y029478D02*
X029593Y029478D01*
X029593Y029708D01*
X029670Y029784D01*
X029824Y029784D01*
X029900Y029708D01*
X029670Y029938D02*
X029593Y030015D01*
X029593Y030168D01*
X029670Y030245D01*
X029747Y030245D01*
X029824Y030168D01*
X029900Y030245D01*
X029977Y030245D01*
X029824Y030168D02*
X029824Y030091D01*
X029824Y030398D02*
X029747Y030552D01*
X029747Y030629D01*
X029824Y030705D01*
X029977Y030705D01*
X029824Y030398D02*
X029593Y030398D01*
X029593Y030705D01*
X019857Y038769D02*
X019396Y038769D01*
X019396Y038999D01*
X019473Y039076D01*
X019627Y039076D01*
X019703Y038999D01*
X019703Y038769D01*
X019703Y038922D02*
X019857Y039076D01*
X019780Y039229D02*
X019857Y039306D01*
X019857Y039459D01*
X019780Y039536D01*
X019627Y039536D01*
X019550Y039459D01*
X019550Y039383D01*
X019627Y039229D01*
X019396Y039229D01*
X019396Y039536D01*
X019473Y039690D02*
X019396Y039766D01*
X019396Y039920D01*
X019473Y039997D01*
X019780Y039690D01*
X019857Y039766D01*
X019857Y039920D01*
X019780Y039997D01*
X019473Y039997D01*
X019473Y039690D02*
X019780Y039690D01*
X019646Y040474D02*
X019186Y040474D01*
X019186Y040781D01*
X019263Y040934D02*
X019186Y041011D01*
X019186Y041164D01*
X019263Y041241D01*
X019416Y041164D02*
X019493Y041241D01*
X019569Y041241D01*
X019646Y041164D01*
X019646Y041011D01*
X019569Y040934D01*
X019416Y041011D02*
X019416Y041164D01*
X019416Y041011D02*
X019339Y040934D01*
X019263Y040934D01*
X019416Y040627D02*
X019416Y040474D01*
X019646Y040474D02*
X019646Y040781D01*
X019646Y041394D02*
X019186Y041394D01*
X019186Y041625D01*
X019263Y041701D01*
X019569Y041701D01*
X019646Y041625D01*
X019646Y041394D01*
X019646Y041855D02*
X019339Y042162D01*
X019263Y042162D01*
X019186Y042085D01*
X019186Y041932D01*
X019263Y041855D01*
X019646Y041855D02*
X019646Y042162D01*
X020503Y042651D02*
X020503Y042882D01*
X020579Y042958D01*
X020733Y042958D01*
X020810Y042882D01*
X020810Y042651D01*
X020963Y042651D02*
X020503Y042651D01*
X020810Y042805D02*
X020963Y042958D01*
X020733Y043112D02*
X020733Y043419D01*
X020656Y043572D02*
X020733Y043649D01*
X020733Y043879D01*
X020886Y043879D02*
X020579Y043879D01*
X020503Y043802D01*
X020503Y043649D01*
X020579Y043572D01*
X020656Y043572D01*
X020886Y043572D02*
X020963Y043649D01*
X020963Y043802D01*
X020886Y043879D01*
X020963Y043342D02*
X020503Y043342D01*
X020733Y043112D01*
X020261Y044548D02*
X019800Y044548D01*
X019800Y044778D01*
X019877Y044855D01*
X020030Y044855D01*
X020107Y044778D01*
X020107Y044548D01*
X020107Y044701D02*
X020261Y044855D01*
X020184Y045008D02*
X020261Y045085D01*
X020261Y045238D01*
X020184Y045315D01*
X020030Y045315D01*
X019954Y045238D01*
X019954Y045162D01*
X020030Y045008D01*
X019800Y045008D01*
X019800Y045315D01*
X019954Y045469D02*
X019800Y045622D01*
X020261Y045622D01*
X020261Y045469D02*
X020261Y045776D01*
X024919Y051824D02*
X024919Y052285D01*
X025149Y052285D01*
X025226Y052208D01*
X025226Y052055D01*
X025149Y051978D01*
X024919Y051978D01*
X025072Y051978D02*
X025226Y051824D01*
X025379Y052055D02*
X025686Y052055D01*
X025610Y052285D02*
X025379Y052055D01*
X025610Y052285D02*
X025610Y051824D01*
X033642Y045351D02*
X033642Y045231D01*
X033702Y045171D01*
X033942Y045171D01*
X034003Y045231D01*
X034003Y045351D01*
X033942Y045411D01*
X033822Y045411D01*
X033822Y045291D01*
X033702Y045411D02*
X033642Y045351D01*
X033642Y045043D02*
X033642Y044803D01*
X034003Y044803D01*
X034003Y045043D01*
X033822Y044923D02*
X033822Y044803D01*
X033822Y044675D02*
X033882Y044615D01*
X033882Y044435D01*
X033882Y044555D02*
X034003Y044675D01*
X033822Y044675D02*
X033702Y044675D01*
X033642Y044615D01*
X033642Y044435D01*
X034003Y044435D01*
X033942Y044307D02*
X034003Y044246D01*
X034003Y044126D01*
X033942Y044066D01*
X033882Y043938D02*
X033642Y043938D01*
X033702Y044066D02*
X033642Y044126D01*
X033642Y044246D01*
X033702Y044307D01*
X033762Y044307D01*
X033822Y044246D01*
X033882Y044307D01*
X033942Y044307D01*
X033822Y044246D02*
X033822Y044186D01*
X033882Y043938D02*
X034003Y043818D01*
X033882Y043698D01*
X033642Y043698D01*
X033702Y043570D02*
X033762Y043570D01*
X033822Y043510D01*
X033882Y043570D01*
X033942Y043570D01*
X034003Y043510D01*
X034003Y043390D01*
X033942Y043330D01*
X033822Y043450D02*
X033822Y043510D01*
X033702Y043570D02*
X033642Y043510D01*
X033642Y043390D01*
X033702Y043330D01*
X032681Y042664D02*
X032681Y042510D01*
X032604Y042434D01*
X032528Y042434D01*
X032451Y042510D01*
X032451Y042664D01*
X032528Y042741D01*
X032604Y042741D01*
X032681Y042664D01*
X032451Y042664D02*
X032374Y042741D01*
X032298Y042741D01*
X032221Y042664D01*
X032221Y042510D01*
X032298Y042434D01*
X032374Y042434D01*
X032451Y042510D01*
X032374Y042280D02*
X032298Y042280D01*
X032221Y042203D01*
X032221Y042050D01*
X032298Y041973D01*
X032298Y041820D02*
X032221Y041743D01*
X032221Y041590D01*
X032298Y041513D01*
X032604Y041513D01*
X032681Y041590D01*
X032681Y041743D01*
X032604Y041820D01*
X032681Y041973D02*
X032374Y042280D01*
X032681Y042280D02*
X032681Y041973D01*
X037001Y040711D02*
X037078Y040788D01*
X037231Y040788D01*
X037308Y040711D01*
X037308Y040404D01*
X037231Y040327D01*
X037078Y040327D01*
X037001Y040404D01*
X037001Y040711D01*
X037155Y040481D02*
X037308Y040327D01*
X037462Y040404D02*
X037538Y040327D01*
X037692Y040327D01*
X037769Y040404D01*
X037769Y040481D01*
X037692Y040558D01*
X037615Y040558D01*
X037692Y040558D02*
X037769Y040634D01*
X037769Y040711D01*
X037692Y040788D01*
X037538Y040788D01*
X037462Y040711D01*
X038886Y040607D02*
X038886Y040300D01*
X038962Y040224D01*
X039116Y040224D01*
X039193Y040300D01*
X039346Y040224D02*
X039653Y040531D01*
X039653Y040607D01*
X039576Y040684D01*
X039423Y040684D01*
X039346Y040607D01*
X039193Y040607D02*
X039116Y040684D01*
X038962Y040684D01*
X038886Y040607D01*
X039346Y040224D02*
X039653Y040224D01*
X039807Y040300D02*
X039883Y040224D01*
X040037Y040224D01*
X040113Y040300D01*
X040113Y040377D01*
X040037Y040454D01*
X039807Y040454D01*
X039807Y040300D01*
X039807Y040454D02*
X039960Y040607D01*
X040113Y040684D01*
X040763Y040930D02*
X040840Y040854D01*
X040994Y040854D01*
X041070Y040930D01*
X041224Y041084D02*
X041531Y041084D01*
X041454Y041314D02*
X041224Y041084D01*
X041070Y041237D02*
X040994Y041314D01*
X040840Y041314D01*
X040763Y041237D01*
X040763Y040930D01*
X041454Y040854D02*
X041454Y041314D01*
X039247Y041327D02*
X039247Y041481D01*
X039171Y041557D01*
X039247Y041711D02*
X038940Y042018D01*
X038864Y042018D01*
X038787Y041941D01*
X038787Y041788D01*
X038864Y041711D01*
X038864Y041557D02*
X038787Y041481D01*
X038787Y041327D01*
X038864Y041250D01*
X039171Y041250D01*
X039247Y041327D01*
X039247Y041711D02*
X039247Y042018D01*
X039171Y042171D02*
X039247Y042248D01*
X039247Y042401D01*
X039171Y042478D01*
X038864Y042478D01*
X038787Y042401D01*
X038787Y042248D01*
X038864Y042171D01*
X038940Y042171D01*
X039017Y042248D01*
X039017Y042478D01*
X038324Y043149D02*
X038170Y043149D01*
X038094Y043226D01*
X037940Y043149D02*
X037633Y043149D01*
X037940Y043456D01*
X037940Y043532D01*
X037863Y043609D01*
X037710Y043609D01*
X037633Y043532D01*
X037480Y043532D02*
X037403Y043609D01*
X037173Y043609D01*
X037173Y043149D01*
X037173Y043302D02*
X037403Y043302D01*
X037480Y043379D01*
X037480Y043532D01*
X037326Y043302D02*
X037480Y043149D01*
X038094Y043532D02*
X038170Y043609D01*
X038324Y043609D01*
X038400Y043532D01*
X038400Y043456D01*
X038324Y043379D01*
X038400Y043302D01*
X038400Y043226D01*
X038324Y043149D01*
X038324Y043379D02*
X038247Y043379D01*
X046617Y035675D02*
X046771Y035829D01*
X046924Y035675D01*
X046924Y035368D01*
X047078Y035368D02*
X047385Y035368D01*
X047231Y035368D02*
X047231Y035829D01*
X047078Y035675D01*
X046924Y035598D02*
X046617Y035598D01*
X046617Y035675D02*
X046617Y035368D01*
X046771Y034824D02*
X046617Y034670D01*
X046617Y034363D01*
X046617Y034593D02*
X046924Y034593D01*
X046924Y034670D02*
X046924Y034363D01*
X047078Y034363D02*
X047385Y034670D01*
X047385Y034747D01*
X047308Y034824D01*
X047154Y034824D01*
X047078Y034747D01*
X046924Y034670D02*
X046771Y034824D01*
X047078Y034363D02*
X047385Y034363D01*
X047308Y033819D02*
X047385Y033742D01*
X047385Y033665D01*
X047308Y033588D01*
X047385Y033512D01*
X047385Y033435D01*
X047308Y033358D01*
X047154Y033358D01*
X047078Y033435D01*
X046924Y033358D02*
X046924Y033665D01*
X046771Y033819D01*
X046617Y033665D01*
X046617Y033358D01*
X046617Y033588D02*
X046924Y033588D01*
X047078Y033742D02*
X047154Y033819D01*
X047308Y033819D01*
X047308Y033588D02*
X047231Y033588D01*
X047308Y032814D02*
X047078Y032583D01*
X047385Y032583D01*
X047308Y032353D02*
X047308Y032814D01*
X046924Y032660D02*
X046924Y032353D01*
X046924Y032583D02*
X046617Y032583D01*
X046617Y032660D02*
X046771Y032814D01*
X046924Y032660D01*
X046617Y032660D02*
X046617Y032353D01*
X046771Y031809D02*
X046617Y031655D01*
X046617Y031348D01*
X046617Y031578D02*
X046924Y031578D01*
X046924Y031655D02*
X046924Y031348D01*
X047078Y031425D02*
X047154Y031348D01*
X047308Y031348D01*
X047385Y031425D01*
X047385Y031578D01*
X047308Y031655D01*
X047231Y031655D01*
X047078Y031578D01*
X047078Y031809D01*
X047385Y031809D01*
X046924Y031655D02*
X046771Y031809D01*
X046848Y030804D02*
X046617Y030804D01*
X046617Y030343D01*
X046617Y030497D02*
X046848Y030497D01*
X046924Y030573D01*
X046924Y030727D01*
X046848Y030804D01*
X047078Y030804D02*
X047078Y030343D01*
X047385Y030343D01*
X047538Y030420D02*
X047615Y030343D01*
X047768Y030343D01*
X047845Y030420D01*
X047845Y030497D01*
X047768Y030573D01*
X047615Y030573D01*
X047538Y030650D01*
X047538Y030727D01*
X047615Y030804D01*
X047768Y030804D01*
X047845Y030727D01*
X047999Y030804D02*
X047999Y030343D01*
X048305Y030343D01*
X048152Y030573D02*
X047999Y030573D01*
X047999Y030804D02*
X048305Y030804D01*
X048459Y030804D02*
X048766Y030804D01*
X048612Y030804D02*
X048612Y030343D01*
X049096Y029673D02*
X049019Y029596D01*
X049019Y029289D01*
X049096Y029213D01*
X049249Y029213D01*
X049326Y029289D01*
X049479Y029213D02*
X049786Y029213D01*
X049633Y029213D02*
X049633Y029673D01*
X049479Y029520D01*
X049326Y029596D02*
X049249Y029673D01*
X049096Y029673D01*
X049940Y029596D02*
X050016Y029673D01*
X050170Y029673D01*
X050247Y029596D01*
X049940Y029289D01*
X050016Y029213D01*
X050170Y029213D01*
X050247Y029289D01*
X050247Y029596D01*
X049940Y029596D02*
X049940Y029289D01*
X050100Y030165D02*
X050023Y030242D01*
X050023Y030396D01*
X050100Y030472D01*
X050177Y030626D02*
X050023Y030779D01*
X050484Y030779D01*
X050484Y030626D02*
X050484Y030933D01*
X050407Y031086D02*
X050484Y031163D01*
X050484Y031316D01*
X050407Y031393D01*
X050330Y031393D01*
X050253Y031316D01*
X050253Y031086D01*
X050407Y031086D01*
X050253Y031086D02*
X050100Y031240D01*
X050023Y031393D01*
X050407Y030472D02*
X050484Y030396D01*
X050484Y030242D01*
X050407Y030165D01*
X050100Y030165D01*
X047845Y029338D02*
X047538Y029338D01*
X047385Y029338D02*
X047078Y029338D01*
X047231Y029338D02*
X047231Y029799D01*
X047078Y029645D01*
X046924Y029722D02*
X046848Y029799D01*
X046617Y029799D01*
X046617Y029338D01*
X046848Y029338D01*
X046924Y029415D01*
X046924Y029722D01*
X047538Y029645D02*
X047692Y029799D01*
X047692Y029338D01*
X047768Y028794D02*
X047615Y028794D01*
X047538Y028717D01*
X047768Y028794D02*
X047845Y028717D01*
X047845Y028640D01*
X047538Y028333D01*
X047845Y028333D01*
X047385Y028333D02*
X047078Y028333D01*
X047231Y028333D02*
X047231Y028794D01*
X047078Y028640D01*
X046924Y028717D02*
X046848Y028794D01*
X046617Y028794D01*
X046617Y028333D01*
X046848Y028333D01*
X046924Y028410D01*
X046924Y028717D01*
X046848Y027789D02*
X046617Y027789D01*
X046617Y027328D01*
X046848Y027328D01*
X046924Y027405D01*
X046924Y027712D01*
X046848Y027789D01*
X047078Y027635D02*
X047231Y027789D01*
X047231Y027328D01*
X047078Y027328D02*
X047385Y027328D01*
X047538Y027405D02*
X047615Y027328D01*
X047768Y027328D01*
X047845Y027405D01*
X047845Y027482D01*
X047768Y027558D01*
X047692Y027558D01*
X047768Y027558D02*
X047845Y027635D01*
X047845Y027712D01*
X047768Y027789D01*
X047615Y027789D01*
X047538Y027712D01*
X047385Y026784D02*
X047385Y026477D01*
X047231Y026323D01*
X047078Y026477D01*
X047078Y026784D01*
X046924Y026784D02*
X046617Y026784D01*
X046617Y026553D01*
X046771Y026630D01*
X046848Y026630D01*
X046924Y026553D01*
X046924Y026400D01*
X046848Y026323D01*
X046694Y026323D01*
X046617Y026400D01*
X046694Y025779D02*
X046617Y025702D01*
X046617Y025395D01*
X046694Y025318D01*
X046848Y025318D01*
X046924Y025395D01*
X046924Y025548D01*
X046771Y025548D01*
X046924Y025702D02*
X046848Y025779D01*
X046694Y025779D01*
X047078Y025779D02*
X047385Y025318D01*
X047385Y025779D01*
X047538Y025779D02*
X047768Y025779D01*
X047845Y025702D01*
X047845Y025395D01*
X047768Y025318D01*
X047538Y025318D01*
X047538Y025779D01*
X047078Y025779D02*
X047078Y025318D01*
X049176Y024875D02*
X049176Y024568D01*
X049253Y024491D01*
X049407Y024491D01*
X049483Y024568D01*
X049637Y024568D02*
X049637Y024645D01*
X049714Y024722D01*
X049867Y024722D01*
X049944Y024645D01*
X049944Y024568D01*
X049867Y024491D01*
X049714Y024491D01*
X049637Y024568D01*
X049714Y024722D02*
X049637Y024798D01*
X049637Y024875D01*
X049714Y024952D01*
X049867Y024952D01*
X049944Y024875D01*
X049944Y024798D01*
X049867Y024722D01*
X049483Y024875D02*
X049407Y024952D01*
X049253Y024952D01*
X049176Y024875D01*
X050828Y026891D02*
X050981Y026891D01*
X051058Y026968D01*
X051212Y026968D02*
X051288Y026891D01*
X051442Y026891D01*
X051519Y026968D01*
X051519Y027275D01*
X051442Y027352D01*
X051288Y027352D01*
X051212Y027275D01*
X051212Y027198D01*
X051288Y027122D01*
X051519Y027122D01*
X051058Y027275D02*
X050981Y027352D01*
X050828Y027352D01*
X050751Y027275D01*
X050751Y026968D01*
X050828Y026891D01*
X046924Y030343D02*
X046771Y030497D01*
X047078Y030573D02*
X047231Y030573D01*
X047385Y030804D02*
X047078Y030804D01*
X051674Y034433D02*
X051674Y034893D01*
X051905Y034893D01*
X051981Y034817D01*
X051981Y034663D01*
X051905Y034587D01*
X051674Y034587D01*
X051828Y034587D02*
X051981Y034433D01*
X052135Y034510D02*
X052211Y034433D01*
X052365Y034433D01*
X052442Y034510D01*
X052442Y034587D01*
X052365Y034663D01*
X052288Y034663D01*
X052365Y034663D02*
X052442Y034740D01*
X052442Y034817D01*
X052365Y034893D01*
X052211Y034893D01*
X052135Y034817D01*
X052595Y034893D02*
X052902Y034893D01*
X052902Y034817D01*
X052595Y034510D01*
X052595Y034433D01*
X055224Y033521D02*
X055224Y033214D01*
X055301Y033137D01*
X055455Y033137D01*
X055531Y033214D01*
X055685Y033214D02*
X055761Y033137D01*
X055915Y033137D01*
X055992Y033214D01*
X055992Y033290D01*
X055915Y033367D01*
X055838Y033367D01*
X055915Y033367D02*
X055992Y033444D01*
X055992Y033521D01*
X055915Y033597D01*
X055761Y033597D01*
X055685Y033521D01*
X055531Y033521D02*
X055455Y033597D01*
X055301Y033597D01*
X055224Y033521D01*
X056145Y033444D02*
X056299Y033597D01*
X056299Y033137D01*
X056452Y033137D02*
X056145Y033137D01*
X056976Y031781D02*
X056899Y031704D01*
X056899Y031397D01*
X056976Y031320D01*
X057129Y031320D01*
X057206Y031397D01*
X057360Y031320D02*
X057666Y031320D01*
X057513Y031320D02*
X057513Y031781D01*
X057360Y031627D01*
X057206Y031704D02*
X057129Y031781D01*
X056976Y031781D01*
X057820Y031781D02*
X057820Y031551D01*
X057973Y031627D01*
X058050Y031627D01*
X058127Y031551D01*
X058127Y031397D01*
X058050Y031320D01*
X057897Y031320D01*
X057820Y031397D01*
X057820Y031781D02*
X058127Y031781D01*
X057945Y030650D02*
X057714Y030420D01*
X058021Y030420D01*
X057945Y030190D02*
X057945Y030650D01*
X057408Y030650D02*
X057408Y030190D01*
X057561Y030190D02*
X057254Y030190D01*
X057101Y030266D02*
X057024Y030190D01*
X056870Y030190D01*
X056794Y030266D01*
X056794Y030573D01*
X056870Y030650D01*
X057024Y030650D01*
X057101Y030573D01*
X057254Y030497D02*
X057408Y030650D01*
X057333Y030008D02*
X057333Y029547D01*
X057486Y029547D02*
X057179Y029547D01*
X057026Y029624D02*
X056949Y029547D01*
X056796Y029547D01*
X056719Y029624D01*
X056719Y029931D01*
X056796Y030008D01*
X056949Y030008D01*
X057026Y029931D01*
X057179Y029854D02*
X057333Y030008D01*
X057640Y029931D02*
X057640Y029854D01*
X057716Y029777D01*
X057870Y029777D01*
X057947Y029701D01*
X057947Y029624D01*
X057870Y029547D01*
X057716Y029547D01*
X057640Y029624D01*
X057640Y029701D01*
X057716Y029777D01*
X057870Y029777D02*
X057947Y029854D01*
X057947Y029931D01*
X057870Y030008D01*
X057716Y030008D01*
X057640Y029931D01*
X057500Y027882D02*
X057500Y027805D01*
X057193Y027498D01*
X057193Y027421D01*
X057040Y027421D02*
X056733Y027421D01*
X056886Y027421D02*
X056886Y027882D01*
X056733Y027728D01*
X056579Y027805D02*
X056503Y027882D01*
X056349Y027882D01*
X056272Y027805D01*
X056272Y027498D01*
X056349Y027421D01*
X056503Y027421D01*
X056579Y027498D01*
X057193Y027882D02*
X057500Y027882D01*
X059361Y026078D02*
X059591Y026078D01*
X059668Y026001D01*
X059668Y025848D01*
X059591Y025771D01*
X059361Y025771D01*
X059514Y025771D02*
X059668Y025617D01*
X059821Y025617D02*
X060128Y025617D01*
X059975Y025617D02*
X059975Y026078D01*
X059821Y025924D01*
X059361Y026078D02*
X059361Y025617D01*
X060282Y025617D02*
X060282Y025694D01*
X060589Y026001D01*
X060589Y026078D01*
X060282Y026078D01*
X062025Y026007D02*
X062485Y026007D01*
X062485Y026314D01*
X062485Y026468D02*
X062485Y026698D01*
X062408Y026775D01*
X062102Y026775D01*
X062025Y026698D01*
X062025Y026468D01*
X062485Y026468D01*
X062255Y026161D02*
X062255Y026007D01*
X062025Y026007D02*
X062025Y026314D01*
X062485Y025854D02*
X062485Y025547D01*
X062025Y025547D01*
X062288Y024222D02*
X062518Y024222D01*
X062595Y024145D01*
X062595Y023992D01*
X062518Y023915D01*
X062288Y023915D01*
X062441Y023915D02*
X062595Y023761D01*
X062748Y023761D02*
X063055Y023761D01*
X062902Y023761D02*
X062902Y024222D01*
X062748Y024068D01*
X063209Y024145D02*
X063285Y024222D01*
X063439Y024222D01*
X063515Y024145D01*
X063209Y023838D01*
X063285Y023761D01*
X063439Y023761D01*
X063515Y023838D01*
X063515Y024145D01*
X063209Y024145D02*
X063209Y023838D01*
X062288Y023761D02*
X062288Y024222D01*
X063807Y025521D02*
X064267Y025521D01*
X064267Y025828D01*
X064267Y025981D02*
X064267Y026288D01*
X064267Y026442D02*
X064267Y026672D01*
X064190Y026749D01*
X063883Y026749D01*
X063807Y026672D01*
X063807Y026442D01*
X064267Y026442D01*
X064037Y026135D02*
X064037Y025981D01*
X063807Y025981D02*
X064267Y025981D01*
X063807Y025981D02*
X063807Y026288D01*
X064344Y026902D02*
X064344Y027209D01*
X064267Y027363D02*
X063807Y027363D01*
X063807Y027593D01*
X063883Y027670D01*
X064037Y027670D01*
X064114Y027593D01*
X064114Y027363D01*
X064114Y027516D02*
X064267Y027670D01*
X064267Y027823D02*
X063807Y028130D01*
X063807Y027823D02*
X064267Y028130D01*
X062485Y028156D02*
X062025Y027849D01*
X062025Y027696D02*
X062025Y027389D01*
X062025Y027542D02*
X062485Y027542D01*
X062485Y027849D02*
X062025Y028156D01*
X062562Y027235D02*
X062562Y026928D01*
X065373Y026427D02*
X065373Y025966D01*
X065373Y026120D02*
X065603Y026120D01*
X065679Y026196D01*
X065679Y026350D01*
X065603Y026427D01*
X065373Y026427D01*
X065526Y026120D02*
X065679Y025966D01*
X065833Y026043D02*
X065910Y025966D01*
X066063Y025966D01*
X066140Y026043D01*
X066140Y026350D01*
X066063Y026427D01*
X065910Y026427D01*
X065833Y026350D01*
X065833Y026273D01*
X065910Y026196D01*
X066140Y026196D01*
X068808Y026443D02*
X068808Y026903D01*
X069115Y026903D01*
X069268Y026749D02*
X069422Y026903D01*
X069422Y026443D01*
X069575Y026443D02*
X069268Y026443D01*
X068961Y026673D02*
X068808Y026673D01*
X069934Y027606D02*
X070011Y027529D01*
X070318Y027529D01*
X070395Y027606D01*
X070395Y027759D01*
X070318Y027836D01*
X070318Y027990D02*
X070395Y028066D01*
X070395Y028220D01*
X070318Y028296D01*
X070164Y028296D01*
X070088Y028220D01*
X070088Y028143D01*
X070164Y027990D01*
X069934Y027990D01*
X069934Y028296D01*
X070011Y027836D02*
X069934Y027759D01*
X069934Y027606D01*
X069245Y029552D02*
X069245Y029859D01*
X069245Y030013D02*
X069245Y030320D01*
X069245Y030166D02*
X068785Y030166D01*
X068939Y030013D01*
X068785Y029552D02*
X069245Y029552D01*
X066904Y029607D02*
X066827Y029530D01*
X066904Y029607D02*
X066904Y029761D01*
X066827Y029837D01*
X066751Y029837D01*
X066674Y029761D01*
X066674Y029684D01*
X066674Y029761D02*
X066597Y029837D01*
X066520Y029837D01*
X066444Y029761D01*
X066444Y029607D01*
X066520Y029530D01*
X066520Y029377D02*
X066444Y029300D01*
X066444Y029147D01*
X066520Y029070D01*
X066827Y029070D01*
X066904Y029147D01*
X066904Y029300D01*
X066827Y029377D01*
X064057Y031874D02*
X064057Y031950D01*
X063981Y032027D01*
X063750Y032027D01*
X063750Y031874D01*
X063827Y031797D01*
X063981Y031797D01*
X064057Y031874D01*
X063904Y032181D02*
X063750Y032027D01*
X063904Y032181D02*
X064057Y032257D01*
X063443Y032257D02*
X063443Y031797D01*
X063290Y031797D02*
X063597Y031797D01*
X063290Y032104D02*
X063443Y032257D01*
X063136Y032181D02*
X063136Y032027D01*
X063060Y031950D01*
X062830Y031950D01*
X062983Y031950D02*
X063136Y031797D01*
X062830Y031797D02*
X062830Y032257D01*
X063060Y032257D01*
X063136Y032181D01*
X062406Y033300D02*
X061946Y033300D01*
X061946Y033531D01*
X062023Y033607D01*
X062176Y033607D01*
X062253Y033531D01*
X062253Y033300D01*
X062253Y033454D02*
X062406Y033607D01*
X062406Y033761D02*
X062406Y034068D01*
X062406Y034221D02*
X062406Y034528D01*
X062406Y034375D02*
X061946Y034375D01*
X062100Y034221D01*
X061946Y033914D02*
X062406Y033914D01*
X062100Y033761D02*
X061946Y033914D01*
X063415Y034558D02*
X063415Y035019D01*
X063645Y035019D01*
X063721Y034942D01*
X063721Y034788D01*
X063645Y034712D01*
X063415Y034712D01*
X063568Y034712D02*
X063721Y034558D01*
X063875Y034558D02*
X064182Y034558D01*
X064028Y034558D02*
X064028Y035019D01*
X063875Y034865D01*
X064335Y034788D02*
X064642Y034788D01*
X064566Y034558D02*
X064566Y035019D01*
X064335Y034788D01*
X068247Y035531D02*
X068247Y035761D01*
X068324Y035838D01*
X068477Y035838D01*
X068554Y035761D01*
X068554Y035531D01*
X068707Y035531D02*
X068247Y035531D01*
X068554Y035684D02*
X068707Y035838D01*
X068707Y035991D02*
X068707Y036298D01*
X068707Y036145D02*
X068247Y036145D01*
X068400Y035991D01*
X068477Y036452D02*
X068400Y036605D01*
X068400Y036682D01*
X068477Y036759D01*
X068631Y036759D01*
X068707Y036682D01*
X068707Y036529D01*
X068631Y036452D01*
X068477Y036452D02*
X068247Y036452D01*
X068247Y036759D01*
X069743Y036723D02*
X069743Y036569D01*
X069820Y036493D01*
X070127Y036493D01*
X069820Y036800D01*
X070127Y036800D01*
X070203Y036723D01*
X070203Y036569D01*
X070127Y036493D01*
X070203Y036339D02*
X070203Y036032D01*
X069896Y036339D01*
X069820Y036339D01*
X069743Y036263D01*
X069743Y036109D01*
X069820Y036032D01*
X069820Y035879D02*
X069973Y035879D01*
X070050Y035802D01*
X070050Y035572D01*
X070203Y035572D02*
X069743Y035572D01*
X069743Y035802D01*
X069820Y035879D01*
X070050Y035725D02*
X070203Y035879D01*
X069743Y036723D02*
X069820Y036800D01*
X069478Y038615D02*
X069018Y038615D01*
X069018Y038845D01*
X069094Y038922D01*
X069248Y038922D01*
X069325Y038845D01*
X069325Y038615D01*
X069325Y038769D02*
X069478Y038922D01*
X069478Y039076D02*
X069478Y039383D01*
X069478Y039536D02*
X069171Y039843D01*
X069094Y039843D01*
X069018Y039766D01*
X069018Y039613D01*
X069094Y039536D01*
X069018Y039229D02*
X069478Y039229D01*
X069478Y039536D02*
X069478Y039843D01*
X069018Y039229D02*
X069171Y039076D01*
X067325Y038979D02*
X066865Y038979D01*
X066865Y039209D01*
X066942Y039286D01*
X067095Y039286D01*
X067172Y039209D01*
X067172Y038979D01*
X067172Y039133D02*
X067325Y039286D01*
X067325Y039440D02*
X067325Y039746D01*
X067325Y039593D02*
X066865Y039593D01*
X067018Y039440D01*
X066942Y039900D02*
X066865Y039977D01*
X066865Y040130D01*
X066942Y040207D01*
X067018Y040207D01*
X067095Y040130D01*
X067172Y040207D01*
X067249Y040207D01*
X067325Y040130D01*
X067325Y039977D01*
X067249Y039900D01*
X067095Y040053D02*
X067095Y040130D01*
X068084Y041044D02*
X068084Y041274D01*
X068161Y041351D01*
X068314Y041351D01*
X068391Y041274D01*
X068391Y041044D01*
X068391Y041197D02*
X068544Y041351D01*
X068544Y041504D02*
X068544Y041811D01*
X068544Y041657D02*
X068084Y041657D01*
X068237Y041504D01*
X068237Y041964D02*
X068161Y041964D01*
X068084Y042041D01*
X068084Y042195D01*
X068161Y042271D01*
X068237Y042271D01*
X068314Y042195D01*
X068314Y042041D01*
X068237Y041964D01*
X068314Y042041D02*
X068391Y041964D01*
X068468Y041964D01*
X068544Y042041D01*
X068544Y042195D01*
X068468Y042271D01*
X068391Y042271D01*
X068314Y042195D01*
X068544Y041044D02*
X068084Y041044D01*
X070211Y033946D02*
X070211Y033639D01*
X070211Y033792D02*
X069751Y033792D01*
X069904Y033639D01*
X069828Y033485D02*
X069981Y033485D01*
X070058Y033409D01*
X070058Y033178D01*
X070211Y033178D02*
X069751Y033178D01*
X069751Y033409D01*
X069828Y033485D01*
X070058Y033332D02*
X070211Y033485D01*
X069658Y024425D02*
X069658Y024118D01*
X069351Y024425D01*
X069274Y024425D01*
X069197Y024348D01*
X069197Y024194D01*
X069274Y024118D01*
X069197Y023811D02*
X069658Y023811D01*
X069658Y023964D02*
X069658Y023657D01*
X069581Y023504D02*
X069658Y023427D01*
X069658Y023274D01*
X069581Y023197D01*
X069274Y023197D01*
X069197Y023274D01*
X069197Y023427D01*
X069274Y023504D01*
X069351Y023657D02*
X069197Y023811D01*
X069526Y023007D02*
X069526Y022700D01*
X069526Y022547D02*
X069526Y022240D01*
X069526Y022393D02*
X069066Y022393D01*
X069219Y022240D01*
X069142Y022086D02*
X069066Y022010D01*
X069066Y021856D01*
X069142Y021780D01*
X069449Y021780D01*
X069526Y021856D01*
X069526Y022010D01*
X069449Y022086D01*
X069219Y022700D02*
X069066Y022854D01*
X069526Y022854D01*
X066811Y018932D02*
X066658Y018932D01*
X066581Y018856D01*
X066428Y018856D02*
X066351Y018932D01*
X066198Y018932D01*
X066121Y018856D01*
X066121Y018549D01*
X066198Y018472D01*
X066351Y018472D01*
X066428Y018549D01*
X066581Y018472D02*
X066888Y018779D01*
X066888Y018856D01*
X066811Y018932D01*
X066888Y018472D02*
X066581Y018472D01*
X066735Y017927D02*
X066735Y017467D01*
X066888Y017467D02*
X066581Y017467D01*
X066428Y017544D02*
X066351Y017467D01*
X066198Y017467D01*
X066121Y017544D01*
X066121Y017851D01*
X066198Y017927D01*
X066351Y017927D01*
X066428Y017851D01*
X066581Y017774D02*
X066735Y017927D01*
X065967Y017927D02*
X065967Y017467D01*
X065660Y017927D01*
X065660Y017467D01*
X065507Y017467D02*
X065200Y017467D01*
X065200Y017927D01*
X065507Y017927D01*
X065353Y017697D02*
X065200Y017697D01*
X065200Y016922D02*
X065430Y016922D01*
X065507Y016846D01*
X065507Y016769D01*
X065430Y016692D01*
X065200Y016692D01*
X065200Y016462D02*
X065200Y016922D01*
X065430Y016692D02*
X065507Y016615D01*
X065507Y016539D01*
X065430Y016462D01*
X065200Y016462D01*
X065660Y016462D02*
X065660Y016769D01*
X065814Y016922D01*
X065967Y016769D01*
X065967Y016462D01*
X065967Y016692D02*
X065660Y016692D01*
X066121Y016922D02*
X066428Y016922D01*
X066581Y016922D02*
X066888Y016922D01*
X066735Y016922D02*
X066735Y016462D01*
X066274Y016462D02*
X066274Y016922D01*
X066198Y015917D02*
X066121Y015841D01*
X066121Y015764D01*
X066198Y015687D01*
X066351Y015687D01*
X066428Y015610D01*
X066428Y015534D01*
X066351Y015457D01*
X066198Y015457D01*
X066121Y015534D01*
X065967Y015534D02*
X065967Y015917D01*
X066198Y015917D02*
X066351Y015917D01*
X066428Y015841D01*
X066581Y015917D02*
X066581Y015457D01*
X066811Y015457D01*
X066888Y015534D01*
X066888Y015610D01*
X066811Y015687D01*
X066581Y015687D01*
X066581Y015917D02*
X066811Y015917D01*
X066888Y015841D01*
X066888Y015764D01*
X066811Y015687D01*
X065967Y015534D02*
X065891Y015457D01*
X065737Y015457D01*
X065660Y015534D01*
X065660Y015917D01*
X065507Y015917D02*
X065507Y015610D01*
X065353Y015457D01*
X065200Y015610D01*
X065200Y015917D01*
X065200Y014912D02*
X065200Y014452D01*
X065353Y014605D01*
X065507Y014452D01*
X065507Y014912D01*
X065660Y014912D02*
X065891Y014912D01*
X065967Y014836D01*
X065967Y014529D01*
X065891Y014452D01*
X065660Y014452D01*
X065660Y014912D01*
X065660Y018472D02*
X065660Y018932D01*
X065967Y018472D01*
X065967Y018932D01*
X065507Y018932D02*
X065200Y018932D01*
X065200Y018472D01*
X065507Y018472D01*
X065353Y018702D02*
X065200Y018702D01*
X063432Y019893D02*
X063125Y019586D01*
X063125Y019509D01*
X062971Y019586D02*
X062894Y019509D01*
X062741Y019509D01*
X062664Y019586D01*
X062664Y019893D01*
X062741Y019970D01*
X062894Y019970D01*
X062971Y019893D01*
X063125Y019970D02*
X063432Y019970D01*
X063432Y019893D01*
X063421Y021632D02*
X063421Y021786D01*
X063421Y021709D02*
X063881Y021709D01*
X063881Y021632D02*
X063881Y021786D01*
X063805Y021939D02*
X063881Y022016D01*
X063881Y022169D01*
X063805Y022246D01*
X063881Y022400D02*
X063881Y022707D01*
X063881Y022553D02*
X063421Y022553D01*
X063574Y022400D01*
X063498Y022246D02*
X063421Y022169D01*
X063421Y022016D01*
X063498Y021939D01*
X063805Y021939D01*
X062731Y021997D02*
X062270Y021997D01*
X062270Y022227D01*
X062347Y022304D01*
X062501Y022304D01*
X062577Y022227D01*
X062577Y021997D01*
X062577Y022151D02*
X062731Y022304D01*
X062654Y022458D02*
X062731Y022534D01*
X062731Y022688D01*
X062654Y022765D01*
X062577Y022765D01*
X062501Y022688D01*
X062501Y022458D01*
X062654Y022458D01*
X062501Y022458D02*
X062347Y022611D01*
X062270Y022765D01*
X050766Y014391D02*
X050766Y014084D01*
X050459Y014391D01*
X050383Y014391D01*
X050306Y014314D01*
X050306Y014161D01*
X050383Y014084D01*
X050306Y013931D02*
X050306Y013624D01*
X050536Y013624D01*
X050459Y013777D01*
X050459Y013854D01*
X050536Y013931D01*
X050690Y013931D01*
X050766Y013854D01*
X050766Y013700D01*
X050690Y013624D01*
X050766Y013470D02*
X050613Y013317D01*
X050613Y013394D02*
X050613Y013163D01*
X050766Y013163D02*
X050306Y013163D01*
X050306Y013394D01*
X050383Y013470D01*
X050536Y013470D01*
X050613Y013394D01*
X050640Y011686D02*
X050410Y011686D01*
X050410Y011226D01*
X050640Y011226D01*
X050717Y011302D01*
X050717Y011609D01*
X050640Y011686D01*
X050871Y011456D02*
X051177Y011456D01*
X051101Y011686D02*
X050871Y011456D01*
X051101Y011226D02*
X051101Y011686D01*
X050257Y011609D02*
X050180Y011686D01*
X050026Y011686D01*
X049950Y011609D01*
X049950Y011533D01*
X050026Y011456D01*
X050180Y011456D01*
X050257Y011379D01*
X050257Y011302D01*
X050180Y011226D01*
X050026Y011226D01*
X049950Y011302D01*
X049796Y011226D02*
X049489Y011226D01*
X049489Y011686D01*
X049796Y011686D01*
X049643Y011456D02*
X049489Y011456D01*
X049526Y015240D02*
X049526Y015470D01*
X049602Y015547D01*
X049756Y015547D01*
X049833Y015470D01*
X049833Y015240D01*
X049986Y015240D02*
X049526Y015240D01*
X049833Y015393D02*
X049986Y015547D01*
X049909Y015700D02*
X049986Y015777D01*
X049986Y015930D01*
X049909Y016007D01*
X049756Y016007D01*
X049679Y015930D01*
X049679Y015854D01*
X049756Y015700D01*
X049526Y015700D01*
X049526Y016007D01*
X049756Y016160D02*
X049756Y016467D01*
X049986Y016391D02*
X049526Y016391D01*
X049756Y016160D01*
X048325Y016145D02*
X048248Y016222D01*
X048325Y016145D02*
X048325Y015992D01*
X048248Y015915D01*
X047941Y015915D01*
X047864Y015992D01*
X047864Y016145D01*
X047941Y016222D01*
X047941Y016375D02*
X047864Y016452D01*
X047864Y016605D01*
X047941Y016682D01*
X048018Y016682D01*
X048325Y016375D01*
X048325Y016682D01*
X048248Y016836D02*
X048325Y016912D01*
X048325Y017066D01*
X048248Y017143D01*
X048171Y017143D01*
X048094Y017066D01*
X048094Y016989D01*
X048094Y017066D02*
X048018Y017143D01*
X047941Y017143D01*
X047864Y017066D01*
X047864Y016912D01*
X047941Y016836D01*
X047873Y015767D02*
X047949Y015690D01*
X047949Y015613D01*
X047873Y015536D01*
X047949Y015460D01*
X047949Y015383D01*
X047873Y015306D01*
X047719Y015306D01*
X047642Y015383D01*
X047489Y015383D02*
X047412Y015306D01*
X047259Y015306D01*
X047182Y015383D01*
X047182Y015536D02*
X047336Y015613D01*
X047412Y015613D01*
X047489Y015536D01*
X047489Y015383D01*
X047796Y015536D02*
X047873Y015536D01*
X047873Y015767D02*
X047719Y015767D01*
X047642Y015690D01*
X047489Y015767D02*
X047182Y015767D01*
X047182Y015536D01*
X047029Y015536D02*
X046952Y015460D01*
X046722Y015460D01*
X046875Y015460D02*
X047029Y015306D01*
X047029Y015536D02*
X047029Y015690D01*
X046952Y015767D01*
X046722Y015767D01*
X046722Y015306D01*
X045129Y016661D02*
X045129Y016814D01*
X045052Y016891D01*
X045129Y017045D02*
X044822Y017352D01*
X044745Y017352D01*
X044668Y017275D01*
X044668Y017121D01*
X044745Y017045D01*
X044745Y016891D02*
X044668Y016814D01*
X044668Y016661D01*
X044745Y016584D01*
X045052Y016584D01*
X045129Y016661D01*
X045129Y017045D02*
X045129Y017352D01*
X045129Y017505D02*
X045129Y017812D01*
X045129Y017659D02*
X044668Y017659D01*
X044822Y017505D01*
X044290Y020700D02*
X044136Y020700D01*
X044060Y020777D01*
X044060Y020853D01*
X044136Y020930D01*
X044290Y020930D01*
X044367Y020853D01*
X044367Y020777D01*
X044290Y020700D01*
X044290Y020930D02*
X044367Y021007D01*
X044367Y021084D01*
X044290Y021160D01*
X044136Y021160D01*
X044060Y021084D01*
X044060Y021007D01*
X044136Y020930D01*
X043906Y021007D02*
X043906Y021084D01*
X043830Y021160D01*
X043676Y021160D01*
X043599Y021084D01*
X043446Y021084D02*
X043446Y020930D01*
X043369Y020853D01*
X043139Y020853D01*
X043139Y020700D02*
X043139Y021160D01*
X043369Y021160D01*
X043446Y021084D01*
X043292Y020853D02*
X043446Y020700D01*
X043599Y020700D02*
X043906Y021007D01*
X043906Y020700D02*
X043599Y020700D01*
X043599Y021842D02*
X043906Y022149D01*
X043906Y022225D01*
X043830Y022302D01*
X043676Y022302D01*
X043599Y022225D01*
X043446Y022225D02*
X043446Y022072D01*
X043369Y021995D01*
X043139Y021995D01*
X043139Y021842D02*
X043139Y022302D01*
X043369Y022302D01*
X043446Y022225D01*
X043292Y021995D02*
X043446Y021842D01*
X043599Y021842D02*
X043906Y021842D01*
X044060Y021842D02*
X044060Y021918D01*
X044367Y022225D01*
X044367Y022302D01*
X044060Y022302D01*
X045761Y022029D02*
X045761Y021789D01*
X045821Y021729D01*
X045941Y021729D01*
X046001Y021789D01*
X046001Y022029D01*
X045941Y022089D01*
X045821Y022089D01*
X045761Y022029D01*
X046129Y022089D02*
X046309Y022089D01*
X046370Y022029D01*
X046370Y021909D01*
X046309Y021849D01*
X046129Y021849D01*
X046129Y021729D02*
X046129Y022089D01*
X046249Y021849D02*
X046370Y021729D01*
X046498Y021729D02*
X046738Y021729D01*
X046618Y021729D02*
X046618Y022089D01*
X046498Y021969D01*
X034213Y011436D02*
X034213Y010976D01*
X034060Y010976D02*
X034367Y010976D01*
X034060Y011283D02*
X034213Y011436D01*
X033830Y011436D02*
X033599Y011206D01*
X033906Y011206D01*
X033830Y010976D02*
X033830Y011436D01*
X033446Y011359D02*
X033446Y011206D01*
X033369Y011129D01*
X033139Y011129D01*
X033139Y010976D02*
X033139Y011436D01*
X033369Y011436D01*
X033446Y011359D01*
X033292Y011129D02*
X033446Y010976D01*
X032971Y011708D02*
X032511Y011708D01*
X032511Y012015D01*
X032587Y012169D02*
X032511Y012245D01*
X032511Y012399D01*
X032587Y012476D01*
X032664Y012476D01*
X032741Y012399D01*
X032818Y012476D01*
X032894Y012476D01*
X032971Y012399D01*
X032971Y012245D01*
X032894Y012169D01*
X032741Y012322D02*
X032741Y012399D01*
X032741Y011862D02*
X032741Y011708D01*
X032105Y011669D02*
X031644Y011669D01*
X031644Y011976D01*
X031721Y012129D02*
X031644Y012206D01*
X031644Y012360D01*
X031721Y012436D01*
X031798Y012436D01*
X032105Y012129D01*
X032105Y012436D01*
X031875Y011822D02*
X031875Y011669D01*
X032019Y014659D02*
X032019Y015119D01*
X031789Y014889D01*
X032096Y014889D01*
X031635Y015042D02*
X031635Y014735D01*
X031559Y014659D01*
X031405Y014659D01*
X031328Y014735D01*
X031328Y015042D01*
X031405Y015119D01*
X031559Y015119D01*
X031635Y015042D01*
X031482Y014812D02*
X031635Y014659D01*
X026392Y009684D02*
X026316Y009760D01*
X026239Y009760D01*
X026162Y009684D01*
X026162Y009453D01*
X026316Y009453D01*
X026392Y009530D01*
X026392Y009684D01*
X026162Y009453D02*
X026009Y009607D01*
X025932Y009760D01*
X025932Y009300D02*
X025932Y008993D01*
X026162Y008993D01*
X026085Y009147D01*
X026085Y009223D01*
X026162Y009300D01*
X026316Y009300D01*
X026392Y009223D01*
X026392Y009070D01*
X026316Y008993D01*
X026392Y008840D02*
X026239Y008686D01*
X026239Y008763D02*
X026239Y008533D01*
X026392Y008533D02*
X025932Y008533D01*
X025932Y008763D01*
X026009Y008840D01*
X026162Y008840D01*
X026239Y008763D01*
X024694Y009302D02*
X024617Y009226D01*
X024464Y009226D01*
X024387Y009302D01*
X024234Y009302D02*
X024234Y009609D01*
X024157Y009686D01*
X023927Y009686D01*
X023927Y009226D01*
X024157Y009226D01*
X024234Y009302D01*
X024387Y009456D02*
X024541Y009533D01*
X024617Y009533D01*
X024694Y009456D01*
X024694Y009302D01*
X024387Y009456D02*
X024387Y009686D01*
X024694Y009686D01*
X023773Y009609D02*
X023697Y009686D01*
X023543Y009686D01*
X023466Y009609D01*
X023466Y009533D01*
X023543Y009456D01*
X023697Y009456D01*
X023773Y009379D01*
X023773Y009302D01*
X023697Y009226D01*
X023543Y009226D01*
X023466Y009302D01*
X023313Y009226D02*
X023006Y009226D01*
X023006Y009686D01*
X023313Y009686D01*
X023160Y009456D02*
X023006Y009456D01*
X025686Y006450D02*
X025916Y006450D01*
X025993Y006374D01*
X025993Y006220D01*
X025916Y006143D01*
X025686Y006143D01*
X025839Y006143D02*
X025993Y005990D01*
X026146Y006067D02*
X026223Y005990D01*
X026376Y005990D01*
X026453Y006067D01*
X026453Y006220D01*
X026376Y006297D01*
X026300Y006297D01*
X026146Y006220D01*
X026146Y006450D01*
X026453Y006450D01*
X025686Y006450D02*
X025686Y005990D01*
X018859Y022798D02*
X018399Y022798D01*
X049526Y035493D02*
X049526Y035723D01*
X049603Y035799D01*
X049757Y035799D01*
X049833Y035723D01*
X049833Y035493D01*
X049833Y035646D02*
X049987Y035799D01*
X049910Y035953D02*
X049987Y036030D01*
X049987Y036183D01*
X049910Y036260D01*
X049833Y036260D01*
X049757Y036183D01*
X049757Y036106D01*
X049757Y036183D02*
X049680Y036260D01*
X049603Y036260D01*
X049526Y036183D01*
X049526Y036030D01*
X049603Y035953D01*
X049603Y036413D02*
X049526Y036490D01*
X049526Y036644D01*
X049603Y036720D01*
X049680Y036720D01*
X049757Y036644D01*
X049833Y036720D01*
X049910Y036720D01*
X049987Y036644D01*
X049987Y036490D01*
X049910Y036413D01*
X049757Y036567D02*
X049757Y036644D01*
X049987Y035493D02*
X049526Y035493D01*
X052417Y037706D02*
X052493Y037629D01*
X052647Y037629D01*
X052723Y037706D01*
X052877Y037706D02*
X052954Y037629D01*
X053107Y037629D01*
X053184Y037706D01*
X053184Y037783D01*
X053107Y037859D01*
X053030Y037859D01*
X053107Y037859D02*
X053184Y037936D01*
X053184Y038013D01*
X053107Y038090D01*
X052954Y038090D01*
X052877Y038013D01*
X052723Y038013D02*
X052647Y038090D01*
X052493Y038090D01*
X052417Y038013D01*
X052417Y037706D01*
X053337Y037706D02*
X053644Y038013D01*
X053644Y037706D01*
X053568Y037629D01*
X053414Y037629D01*
X053337Y037706D01*
X053337Y038013D01*
X053414Y038090D01*
X053568Y038090D01*
X053644Y038013D01*
X055898Y038202D02*
X055898Y038432D01*
X055975Y038509D01*
X056282Y038509D01*
X056358Y038432D01*
X056358Y038202D01*
X055898Y038202D01*
X055975Y038662D02*
X055898Y038739D01*
X055898Y038892D01*
X055975Y038969D01*
X056051Y038969D01*
X056128Y038892D01*
X056205Y038969D01*
X056282Y038969D01*
X056358Y038892D01*
X056358Y038739D01*
X056282Y038662D01*
X056128Y038816D02*
X056128Y038892D01*
X058839Y037788D02*
X058839Y037481D01*
X058916Y037405D01*
X059069Y037405D01*
X059146Y037481D01*
X059299Y037405D02*
X059606Y037405D01*
X059453Y037405D02*
X059453Y037865D01*
X059299Y037712D01*
X059146Y037788D02*
X059069Y037865D01*
X058916Y037865D01*
X058839Y037788D01*
X059760Y037788D02*
X059836Y037865D01*
X059990Y037865D01*
X060067Y037788D01*
X060067Y037712D01*
X059990Y037635D01*
X060067Y037558D01*
X060067Y037481D01*
X059990Y037405D01*
X059836Y037405D01*
X059760Y037481D01*
X059913Y037635D02*
X059990Y037635D01*
X059942Y039514D02*
X059481Y039514D01*
X059481Y039744D01*
X059558Y039821D01*
X059712Y039821D01*
X059788Y039744D01*
X059788Y039514D01*
X059788Y039667D02*
X059942Y039821D01*
X059942Y039974D02*
X059942Y040281D01*
X059942Y040128D02*
X059481Y040128D01*
X059635Y039974D01*
X059635Y040434D02*
X059712Y040511D01*
X059712Y040741D01*
X059865Y040741D02*
X059558Y040741D01*
X059481Y040665D01*
X059481Y040511D01*
X059558Y040434D01*
X059635Y040434D01*
X059865Y040434D02*
X059942Y040511D01*
X059942Y040665D01*
X059865Y040741D01*
X056319Y036055D02*
X056166Y036055D01*
X056089Y035978D01*
X056089Y035901D01*
X056166Y035825D01*
X056396Y035825D01*
X056396Y035978D02*
X056396Y035671D01*
X056319Y035594D01*
X056166Y035594D01*
X056089Y035671D01*
X055936Y035671D02*
X055859Y035594D01*
X055706Y035594D01*
X055629Y035671D01*
X055475Y035594D02*
X055322Y035748D01*
X055399Y035748D02*
X055169Y035748D01*
X055169Y035594D02*
X055169Y036055D01*
X055399Y036055D01*
X055475Y035978D01*
X055475Y035825D01*
X055399Y035748D01*
X055629Y035978D02*
X055706Y036055D01*
X055859Y036055D01*
X055936Y035978D01*
X055936Y035901D01*
X055859Y035825D01*
X055936Y035748D01*
X055936Y035671D01*
X055859Y035825D02*
X055782Y035825D01*
X056319Y036055D02*
X056396Y035978D01*
X058801Y034968D02*
X058878Y035045D01*
X058955Y035045D01*
X059031Y034968D01*
X059031Y034815D01*
X058955Y034738D01*
X058878Y034738D01*
X058801Y034815D01*
X058801Y034968D01*
X059031Y034968D02*
X059108Y035045D01*
X059185Y035045D01*
X059262Y034968D01*
X059262Y034815D01*
X059185Y034738D01*
X059108Y034738D01*
X059031Y034815D01*
X059031Y034585D02*
X059031Y034278D01*
X058801Y034508D01*
X059262Y034508D01*
X059262Y034124D02*
X059108Y033971D01*
X059108Y034047D02*
X059108Y033817D01*
X059262Y033817D02*
X058801Y033817D01*
X058801Y034047D01*
X058878Y034124D01*
X059031Y034124D01*
X059108Y034047D01*
X052050Y039557D02*
X051743Y039557D01*
X052050Y039864D01*
X052050Y039941D01*
X051973Y040018D01*
X051820Y040018D01*
X051743Y039941D01*
X051590Y039941D02*
X051590Y039864D01*
X051513Y039788D01*
X051590Y039711D01*
X051590Y039634D01*
X051513Y039557D01*
X051360Y039557D01*
X051283Y039634D01*
X051129Y039557D02*
X050976Y039711D01*
X051053Y039711D02*
X050822Y039711D01*
X050822Y039557D02*
X050822Y040018D01*
X051053Y040018D01*
X051129Y039941D01*
X051129Y039788D01*
X051053Y039711D01*
X051283Y039941D02*
X051360Y040018D01*
X051513Y040018D01*
X051590Y039941D01*
X051513Y039788D02*
X051436Y039788D01*
X050629Y045976D02*
X050705Y046052D01*
X050705Y046129D01*
X050629Y046206D01*
X050398Y046206D01*
X050398Y046052D01*
X050475Y045976D01*
X050629Y045976D01*
X050398Y046206D02*
X050552Y046359D01*
X050705Y046436D01*
X050245Y046206D02*
X049938Y046206D01*
X050168Y046436D01*
X050168Y045976D01*
X049784Y045976D02*
X049631Y046129D01*
X049708Y046129D02*
X049478Y046129D01*
X049478Y045976D02*
X049478Y046436D01*
X049708Y046436D01*
X049784Y046359D01*
X049784Y046206D01*
X049708Y046129D01*
X049769Y047507D02*
X049616Y047661D01*
X049693Y047661D02*
X049463Y047661D01*
X049463Y047507D02*
X049463Y047967D01*
X049693Y047967D01*
X049769Y047891D01*
X049769Y047737D01*
X049693Y047661D01*
X049923Y047737D02*
X050076Y047814D01*
X050153Y047814D01*
X050230Y047737D01*
X050230Y047584D01*
X050153Y047507D01*
X050000Y047507D01*
X049923Y047584D01*
X049923Y047737D02*
X049923Y047967D01*
X050230Y047967D01*
X050383Y047891D02*
X050383Y047814D01*
X050460Y047737D01*
X050614Y047737D01*
X050690Y047661D01*
X050690Y047584D01*
X050614Y047507D01*
X050460Y047507D01*
X050383Y047584D01*
X050383Y047661D01*
X050460Y047737D01*
X050614Y047737D02*
X050690Y047814D01*
X050690Y047891D01*
X050614Y047967D01*
X050460Y047967D01*
X050383Y047891D01*
X048840Y049200D02*
X048533Y049200D01*
X048686Y049200D02*
X048686Y049660D01*
X048533Y049507D01*
X048379Y049507D02*
X048379Y049584D01*
X048303Y049660D01*
X048149Y049660D01*
X048073Y049584D01*
X047919Y049584D02*
X047919Y049430D01*
X047842Y049353D01*
X047612Y049353D01*
X047612Y049200D02*
X047612Y049660D01*
X047842Y049660D01*
X047919Y049584D01*
X047766Y049353D02*
X047919Y049200D01*
X048073Y049200D02*
X048379Y049507D01*
X048379Y049200D02*
X048073Y049200D01*
X051444Y051475D02*
X051520Y051398D01*
X051827Y051398D01*
X051904Y051475D01*
X051904Y051629D01*
X051827Y051705D01*
X051904Y051859D02*
X051904Y052166D01*
X051904Y052012D02*
X051444Y052012D01*
X051597Y051859D01*
X051520Y051705D02*
X051444Y051629D01*
X051444Y051475D01*
X051520Y052319D02*
X051597Y052319D01*
X051674Y052396D01*
X051674Y052626D01*
X051827Y052626D02*
X051520Y052626D01*
X051444Y052549D01*
X051444Y052396D01*
X051520Y052319D01*
X051827Y052319D02*
X051904Y052396D01*
X051904Y052549D01*
X051827Y052626D01*
X053286Y051179D02*
X053516Y051179D01*
X053593Y051102D01*
X053593Y050948D01*
X053516Y050872D01*
X053286Y050872D01*
X053439Y050872D02*
X053593Y050718D01*
X053746Y050718D02*
X054053Y051025D01*
X054053Y051102D01*
X053976Y051179D01*
X053823Y051179D01*
X053746Y051102D01*
X053746Y050718D02*
X054053Y050718D01*
X054207Y050795D02*
X054283Y050718D01*
X054437Y050718D01*
X054514Y050795D01*
X054514Y050948D01*
X054437Y051025D01*
X054360Y051025D01*
X054207Y050948D01*
X054207Y051179D01*
X054514Y051179D01*
X055237Y051056D02*
X055237Y050596D01*
X055544Y050596D01*
X055698Y050672D02*
X055775Y050596D01*
X055928Y050596D01*
X056005Y050672D01*
X056005Y050749D01*
X055928Y050826D01*
X055775Y050826D01*
X055698Y050903D01*
X055698Y050979D01*
X055775Y051056D01*
X055928Y051056D01*
X056005Y050979D01*
X056158Y051056D02*
X056388Y051056D01*
X056465Y050979D01*
X056465Y050672D01*
X056388Y050596D01*
X056158Y050596D01*
X056158Y051056D01*
X056619Y050979D02*
X056695Y051056D01*
X056849Y051056D01*
X056926Y050979D01*
X056926Y050903D01*
X056849Y050826D01*
X056926Y050749D01*
X056926Y050672D01*
X056849Y050596D01*
X056695Y050596D01*
X056619Y050672D01*
X056772Y050826D02*
X056849Y050826D01*
X055544Y051056D02*
X055237Y051056D01*
X055237Y050826D02*
X055391Y050826D01*
X053286Y050718D02*
X053286Y051179D01*
X057061Y054082D02*
X057061Y054542D01*
X057291Y054542D01*
X057368Y054466D01*
X057368Y054312D01*
X057291Y054235D01*
X057061Y054235D01*
X057214Y054235D02*
X057368Y054082D01*
X057521Y054312D02*
X057828Y054312D01*
X057982Y054312D02*
X058135Y054389D01*
X058212Y054389D01*
X058289Y054312D01*
X058289Y054159D01*
X058212Y054082D01*
X058058Y054082D01*
X057982Y054159D01*
X057982Y054312D02*
X057982Y054542D01*
X058289Y054542D01*
X057752Y054542D02*
X057521Y054312D01*
X057752Y054082D02*
X057752Y054542D01*
X058670Y052160D02*
X058901Y051929D01*
X058901Y052236D01*
X059131Y052160D02*
X058670Y052160D01*
X058747Y051776D02*
X058670Y051699D01*
X058670Y051546D01*
X058747Y051469D01*
X058747Y051316D02*
X058901Y051316D01*
X058977Y051239D01*
X058977Y051009D01*
X058977Y051162D02*
X059131Y051316D01*
X059131Y051469D02*
X058824Y051776D01*
X058747Y051776D01*
X059131Y051776D02*
X059131Y051469D01*
X058747Y051316D02*
X058670Y051239D01*
X058670Y051009D01*
X059131Y051009D01*
D11*
X018046Y047287D02*
X018046Y047137D01*
X017971Y047062D01*
X017671Y047362D01*
X017971Y047362D01*
X018046Y047287D01*
X017971Y047062D02*
X017671Y047062D01*
X017596Y047137D01*
X017596Y047287D01*
X017671Y047362D01*
X017971Y046879D02*
X018046Y046879D01*
X018046Y046804D01*
X017971Y046804D01*
X017971Y046879D01*
X018046Y046589D02*
X018046Y046288D01*
X018046Y046438D02*
X017596Y046438D01*
X017746Y046288D01*
X017746Y046073D02*
X018046Y045923D01*
X017746Y045773D01*
X017596Y045042D02*
X017596Y044741D01*
X017596Y044892D02*
X018046Y044892D01*
X017971Y044526D02*
X017671Y044526D01*
X017596Y044451D01*
X017596Y044301D01*
X017671Y044226D01*
X017971Y044226D01*
X018046Y044301D01*
X018046Y044451D01*
X017971Y044526D01*
X017971Y044010D02*
X018046Y043935D01*
X018046Y043710D01*
X017596Y043710D01*
X017596Y043935D01*
X017671Y044010D01*
X017746Y044010D01*
X017821Y043935D01*
X017821Y043710D01*
X017821Y043935D02*
X017896Y044010D01*
X017971Y044010D01*
X017971Y043495D02*
X017671Y043495D01*
X017596Y043420D01*
X017596Y043270D01*
X017671Y043194D01*
X017971Y043194D01*
X018046Y043270D01*
X018046Y043420D01*
X017971Y043495D01*
X018046Y042979D02*
X017896Y042829D01*
X017896Y042904D02*
X017896Y042679D01*
X018046Y042679D02*
X017596Y042679D01*
X017596Y042904D01*
X017671Y042979D01*
X017821Y042979D01*
X017896Y042904D01*
X017971Y041948D02*
X017671Y041948D01*
X017596Y041873D01*
X017596Y041723D01*
X017671Y041648D01*
X017971Y041648D01*
X018046Y041723D01*
X018046Y041873D01*
X017971Y041948D01*
X017971Y041432D02*
X018046Y041357D01*
X018046Y041132D01*
X017596Y041132D01*
X017596Y041357D01*
X017671Y041432D01*
X017746Y041432D01*
X017821Y041357D01*
X017821Y041132D01*
X017821Y041357D02*
X017896Y041432D01*
X017971Y041432D01*
X017971Y040917D02*
X018046Y040841D01*
X018046Y040616D01*
X017596Y040616D01*
X017596Y040841D01*
X017671Y040917D01*
X017746Y040917D01*
X017821Y040841D01*
X017821Y040616D01*
X017821Y040841D02*
X017896Y040917D01*
X017971Y040917D01*
X017971Y040401D02*
X017671Y040401D01*
X017596Y040326D01*
X017596Y040176D01*
X017671Y040101D01*
X017971Y040101D01*
X018046Y040176D01*
X018046Y040326D01*
X017971Y040401D01*
X018046Y039885D02*
X017896Y039735D01*
X017896Y039810D02*
X017896Y039585D01*
X018046Y039585D02*
X017596Y039585D01*
X017596Y039810D01*
X017671Y039885D01*
X017821Y039885D01*
X017896Y039810D01*
D12*
X023565Y033115D02*
X024046Y033115D01*
X023565Y032795D01*
X024046Y032795D01*
X023966Y032599D02*
X023645Y032599D01*
X023565Y032519D01*
X023565Y032359D01*
X023645Y032279D01*
X023966Y032279D01*
X024046Y032359D01*
X024046Y032519D01*
X023966Y032599D01*
X024046Y031568D02*
X023885Y031408D01*
X023885Y031488D02*
X023885Y031248D01*
X024046Y031248D02*
X023565Y031248D01*
X023565Y031488D01*
X023645Y031568D01*
X023805Y031568D01*
X023885Y031488D01*
X024046Y031053D02*
X024046Y030732D01*
X023565Y030732D01*
X023565Y031053D01*
X023805Y030892D02*
X023805Y030732D01*
X023565Y030537D02*
X024046Y030537D01*
X023885Y030377D01*
X024046Y030217D01*
X023565Y030217D01*
X023645Y030021D02*
X023565Y029941D01*
X023565Y029781D01*
X023645Y029701D01*
X023966Y029701D01*
X024046Y029781D01*
X024046Y029941D01*
X023966Y030021D01*
X023645Y030021D01*
X023645Y029506D02*
X023805Y029506D01*
X023885Y029426D01*
X023885Y029185D01*
X024046Y029185D02*
X023565Y029185D01*
X023565Y029426D01*
X023645Y029506D01*
X025582Y029602D02*
X025582Y029842D01*
X025662Y029922D01*
X025742Y029922D01*
X025822Y029842D01*
X025822Y029602D01*
X026062Y029602D02*
X025582Y029602D01*
X025822Y029842D02*
X025902Y029922D01*
X025982Y029922D01*
X026062Y029842D01*
X026062Y029602D01*
X026422Y029602D02*
X026902Y029922D01*
X026422Y029922D01*
X026422Y029602D02*
X026902Y029602D01*
X026822Y029407D02*
X026502Y029407D01*
X026422Y029327D01*
X026422Y029166D01*
X026502Y029086D01*
X026822Y029086D01*
X026902Y029166D01*
X026902Y029327D01*
X026822Y029407D01*
X026902Y030118D02*
X026422Y030438D01*
X026502Y030633D02*
X026822Y030633D01*
X026902Y030713D01*
X026902Y030874D01*
X026822Y030954D01*
X026502Y030954D01*
X026422Y030874D01*
X026422Y030713D01*
X026502Y030633D01*
X026062Y030793D02*
X025582Y030793D01*
X025582Y030633D02*
X025582Y030954D01*
X025582Y031149D02*
X025582Y031469D01*
X025582Y031309D02*
X026062Y031309D01*
X026422Y031149D02*
X026422Y031469D01*
X026422Y031665D02*
X026422Y031985D01*
X026662Y031825D02*
X026662Y031665D01*
X026902Y031665D02*
X026422Y031665D01*
X026662Y031309D02*
X026662Y031149D01*
X026902Y031149D02*
X026422Y031149D01*
X026062Y030438D02*
X025742Y030438D01*
X025582Y030278D01*
X025742Y030118D01*
X026062Y030118D01*
X025822Y030118D02*
X025822Y030438D01*
X026282Y027091D02*
X026282Y026771D01*
X026282Y026931D02*
X026762Y026931D01*
X026762Y026576D02*
X026762Y026256D01*
X026282Y026256D01*
X026282Y026576D01*
X026522Y026416D02*
X026522Y026256D01*
X026602Y026060D02*
X026682Y026060D01*
X026762Y025980D01*
X026762Y025820D01*
X026682Y025740D01*
X026522Y025820D02*
X026522Y025980D01*
X026602Y026060D01*
X026362Y026060D02*
X026282Y025980D01*
X026282Y025820D01*
X026362Y025740D01*
X026442Y025740D01*
X026522Y025820D01*
X026762Y025545D02*
X026762Y025224D01*
X026282Y025224D01*
X026282Y025545D01*
X026522Y025384D02*
X026522Y025224D01*
X026522Y025029D02*
X026602Y024949D01*
X026602Y024709D01*
X026602Y024869D02*
X026762Y025029D01*
X026522Y025029D02*
X026362Y025029D01*
X026282Y024949D01*
X026282Y024709D01*
X026762Y024709D01*
X026721Y034236D02*
X026801Y034316D01*
X026801Y034476D01*
X026721Y034556D01*
X026641Y034556D01*
X026561Y034476D01*
X026561Y034316D01*
X026481Y034236D01*
X026401Y034236D01*
X026321Y034316D01*
X026321Y034476D01*
X026401Y034556D01*
X026321Y034752D02*
X026321Y035072D01*
X026321Y034912D02*
X026801Y034912D01*
X026801Y035267D02*
X026481Y035267D01*
X026321Y035428D01*
X026481Y035588D01*
X026801Y035588D01*
X026801Y035783D02*
X026321Y035783D01*
X026321Y036023D01*
X026401Y036103D01*
X026561Y036103D01*
X026641Y036023D01*
X026641Y035783D01*
X026641Y035943D02*
X026801Y036103D01*
X026801Y036459D02*
X026321Y036459D01*
X026321Y036299D02*
X026321Y036619D01*
X026561Y035588D02*
X026561Y035267D01*
X051440Y036440D02*
X051440Y036834D01*
X052306Y036834D02*
X052306Y036440D01*
X053802Y036204D02*
X053802Y035810D01*
X054668Y035810D02*
X054668Y036204D01*
X057621Y036440D02*
X057621Y036834D01*
X058487Y036834D02*
X058487Y036440D01*
X061127Y036430D02*
X061127Y036037D01*
X061521Y036037D01*
X066049Y036037D02*
X066442Y036037D01*
X066442Y036430D01*
X066873Y031322D02*
X066873Y030692D01*
X067818Y030692D02*
X067818Y031322D01*
X067919Y031282D02*
X067921Y031296D01*
X067927Y031310D01*
X067935Y031322D01*
X067947Y031330D01*
X067961Y031336D01*
X067975Y031338D01*
X067989Y031336D01*
X068003Y031330D01*
X068015Y031322D01*
X068023Y031310D01*
X068029Y031296D01*
X068031Y031282D01*
X068029Y031268D01*
X068023Y031254D01*
X068015Y031242D01*
X068003Y031234D01*
X067989Y031228D01*
X067975Y031226D01*
X067961Y031228D01*
X067947Y031234D01*
X067935Y031242D01*
X067927Y031254D01*
X067921Y031268D01*
X067919Y031282D01*
X068065Y023671D02*
X064049Y023671D01*
X064049Y021624D02*
X068065Y021624D01*
X068065Y023671D01*
X066442Y043084D02*
X066442Y043753D01*
X066442Y045800D02*
X066442Y046194D01*
X066009Y046194D01*
X061521Y046194D02*
X061127Y046194D01*
X061127Y045800D01*
X061127Y043753D02*
X061127Y043084D01*
D13*
X056299Y043892D02*
X055939Y043531D01*
X056299Y043892D02*
X056299Y044612D01*
X055939Y044973D01*
X055579Y044973D01*
X055218Y044612D01*
X055218Y044252D01*
X055218Y044612D02*
X054858Y044973D01*
X054498Y044973D01*
X054138Y044612D01*
X054138Y043892D01*
X054498Y043531D01*
X027559Y043531D02*
X026118Y044973D01*
X025758Y044973D01*
X025397Y044612D01*
X025397Y043892D01*
X025758Y043531D01*
X027559Y043531D02*
X027559Y044973D01*
X018662Y031350D02*
X018662Y029909D01*
X018662Y030630D02*
X016500Y030630D01*
X017220Y029909D01*
X025397Y017413D02*
X025397Y015972D01*
X026478Y015972D01*
X026118Y016693D01*
X026118Y017053D01*
X026478Y017413D01*
X027199Y017413D01*
X027559Y017053D01*
X027559Y016333D01*
X027199Y015972D01*
X054138Y017053D02*
X055218Y015972D01*
X055218Y017413D01*
X054138Y017053D02*
X056299Y017053D01*
D14*
X056248Y024437D02*
X056175Y024511D01*
X056212Y024511D02*
X056102Y024511D01*
X056102Y024437D02*
X056102Y024657D01*
X056212Y024657D01*
X056248Y024621D01*
X056248Y024547D01*
X056212Y024511D01*
X056027Y024437D02*
X055881Y024437D01*
X055881Y024657D01*
X056027Y024657D01*
X055954Y024547D02*
X055881Y024547D01*
X055806Y024437D02*
X055660Y024437D01*
X055660Y024657D01*
X055439Y024657D02*
X055439Y024437D01*
X055585Y024437D01*
X055365Y024474D02*
X055365Y024621D01*
X055328Y024657D01*
X055254Y024657D01*
X055218Y024621D01*
X055218Y024474D01*
X055254Y024437D01*
X055328Y024437D01*
X055365Y024474D01*
X055144Y024437D02*
X055070Y024511D01*
X055107Y024511D02*
X054997Y024511D01*
X054997Y024437D02*
X054997Y024657D01*
X055107Y024657D01*
X055144Y024621D01*
X055144Y024547D01*
X055107Y024511D01*
X054923Y024657D02*
X054776Y024657D01*
X054849Y024657D02*
X054849Y024437D01*
X054702Y024437D02*
X054702Y024657D01*
X054555Y024657D02*
X054702Y024437D01*
X054555Y024437D02*
X054555Y024657D01*
X054481Y024621D02*
X054444Y024657D01*
X054370Y024657D01*
X054334Y024621D01*
X054334Y024474D01*
X054370Y024437D01*
X054444Y024437D01*
X054481Y024474D01*
X054481Y024621D01*
X054260Y024621D02*
X054223Y024657D01*
X054149Y024657D01*
X054113Y024621D01*
X054113Y024474D01*
X054149Y024437D01*
X054223Y024437D01*
X054260Y024474D01*
X054039Y024401D02*
X053892Y024401D01*
X053818Y024437D02*
X053744Y024511D01*
X053781Y024511D02*
X053671Y024511D01*
X053671Y024437D02*
X053671Y024657D01*
X053781Y024657D01*
X053818Y024621D01*
X053818Y024547D01*
X053781Y024511D01*
X053597Y024474D02*
X053597Y024621D01*
X053560Y024657D01*
X053487Y024657D01*
X053450Y024621D01*
X053450Y024474D01*
X053487Y024437D01*
X053560Y024437D01*
X053597Y024474D01*
X053376Y024657D02*
X053229Y024657D01*
X053302Y024657D02*
X053302Y024437D01*
X053155Y024474D02*
X053155Y024621D01*
X053118Y024657D01*
X053045Y024657D01*
X053008Y024621D01*
X053008Y024474D01*
X053045Y024437D01*
X053118Y024437D01*
X053155Y024474D01*
X052934Y024437D02*
X052934Y024657D01*
X052860Y024584D01*
X052787Y024657D01*
X052787Y024437D01*
X058997Y027854D02*
X058997Y030554D01*
X059297Y030554D02*
X059297Y027854D01*
X058997Y027854D02*
X058999Y027798D01*
X059005Y027743D01*
X059014Y027688D01*
X059028Y027634D01*
X059045Y027581D01*
X059066Y027530D01*
X059090Y027480D01*
X059118Y027432D01*
X059149Y027385D01*
X059183Y027341D01*
X059220Y027300D01*
X059260Y027261D01*
X059302Y027225D01*
X059347Y027193D01*
X060247Y027193D02*
X060292Y027225D01*
X060334Y027261D01*
X060374Y027300D01*
X060411Y027342D01*
X060445Y027385D01*
X060476Y027432D01*
X060504Y027480D01*
X060528Y027530D01*
X060549Y027581D01*
X060566Y027634D01*
X060580Y027688D01*
X060589Y027743D01*
X060595Y027798D01*
X060597Y027854D01*
X060597Y030554D01*
X060297Y030554D02*
X060297Y027854D01*
X060296Y027816D01*
X060291Y027779D01*
X060284Y027742D01*
X060275Y027706D01*
X060262Y027670D01*
X060247Y027636D01*
X059347Y027636D02*
X059332Y027670D01*
X059319Y027706D01*
X059310Y027742D01*
X059303Y027779D01*
X059298Y027816D01*
X059297Y027854D01*
X059797Y028754D02*
X059797Y028954D01*
X059797Y029454D02*
X059797Y029654D01*
X060597Y030554D02*
X060595Y030610D01*
X060589Y030665D01*
X060580Y030720D01*
X060566Y030774D01*
X060549Y030827D01*
X060528Y030878D01*
X060504Y030928D01*
X060476Y030976D01*
X060445Y031023D01*
X060411Y031067D01*
X060374Y031108D01*
X060334Y031147D01*
X060292Y031183D01*
X060247Y031215D01*
X059347Y031215D02*
X059302Y031183D01*
X059260Y031147D01*
X059220Y031108D01*
X059183Y031066D01*
X059149Y031023D01*
X059118Y030976D01*
X059090Y030928D01*
X059066Y030878D01*
X059045Y030827D01*
X059028Y030774D01*
X059014Y030720D01*
X059005Y030665D01*
X058999Y030610D01*
X058997Y030554D01*
X059297Y030554D02*
X059298Y030592D01*
X059303Y030629D01*
X059310Y030666D01*
X059319Y030702D01*
X059332Y030738D01*
X059347Y030772D01*
X060247Y030772D02*
X060262Y030738D01*
X060275Y030702D01*
X060284Y030666D01*
X060291Y030629D01*
X060296Y030592D01*
X060297Y030554D01*
X064668Y031640D02*
X064705Y031604D01*
X064778Y031604D01*
X064815Y031640D01*
X064815Y031824D01*
X064889Y031787D02*
X064926Y031824D01*
X064999Y031824D01*
X065036Y031787D01*
X064999Y031714D02*
X065036Y031677D01*
X065036Y031640D01*
X064999Y031604D01*
X064926Y031604D01*
X064889Y031640D01*
X064926Y031714D02*
X064999Y031714D01*
X064926Y031714D02*
X064889Y031750D01*
X064889Y031787D01*
X065110Y031824D02*
X065220Y031824D01*
X065257Y031787D01*
X065257Y031750D01*
X065220Y031714D01*
X065110Y031714D01*
X065110Y031604D02*
X065110Y031824D01*
X065220Y031714D02*
X065257Y031677D01*
X065257Y031640D01*
X065220Y031604D01*
X065110Y031604D01*
X065331Y031567D02*
X065478Y031567D01*
X065552Y031604D02*
X065552Y031824D01*
X065699Y031824D01*
X065773Y031824D02*
X065846Y031824D01*
X065810Y031824D02*
X065810Y031604D01*
X065846Y031604D02*
X065773Y031604D01*
X065920Y031604D02*
X066067Y031604D01*
X065920Y031604D02*
X065920Y031824D01*
X066141Y031824D02*
X066288Y031824D01*
X066215Y031824D02*
X066215Y031604D01*
X066362Y031604D02*
X066509Y031604D01*
X066583Y031604D02*
X066583Y031824D01*
X066693Y031824D01*
X066730Y031787D01*
X066730Y031714D01*
X066693Y031677D01*
X066583Y031677D01*
X066657Y031677D02*
X066730Y031604D01*
X066509Y031824D02*
X066362Y031824D01*
X066362Y031604D01*
X066362Y031714D02*
X066436Y031714D01*
X065625Y031714D02*
X065552Y031714D01*
X064668Y031640D02*
X064668Y031824D01*
X068406Y034336D02*
X068443Y034299D01*
X068517Y034299D01*
X068553Y034336D01*
X068627Y034336D02*
X068664Y034299D01*
X068738Y034299D01*
X068774Y034336D01*
X068774Y034482D01*
X068738Y034519D01*
X068664Y034519D01*
X068627Y034482D01*
X068627Y034336D01*
X068553Y034482D02*
X068517Y034519D01*
X068443Y034519D01*
X068406Y034482D01*
X068406Y034336D01*
X068848Y034299D02*
X068848Y034519D01*
X068995Y034299D01*
X068995Y034519D01*
X069069Y034519D02*
X069216Y034299D01*
X069216Y034519D01*
X069290Y034519D02*
X069290Y034299D01*
X069437Y034299D01*
X069511Y034336D02*
X069548Y034299D01*
X069621Y034299D01*
X069658Y034336D01*
X069658Y034482D02*
X069621Y034519D01*
X069548Y034519D01*
X069511Y034482D01*
X069511Y034336D01*
X069364Y034409D02*
X069290Y034409D01*
X069290Y034519D02*
X069437Y034519D01*
X069732Y034519D02*
X069879Y034519D01*
X069806Y034519D02*
X069806Y034299D01*
X069953Y034299D02*
X070027Y034299D01*
X069990Y034299D02*
X069990Y034519D01*
X069953Y034519D02*
X070027Y034519D01*
X070101Y034482D02*
X070101Y034336D01*
X070137Y034299D01*
X070211Y034299D01*
X070247Y034336D01*
X070247Y034482D01*
X070211Y034519D01*
X070137Y034519D01*
X070101Y034482D01*
X070322Y034519D02*
X070468Y034299D01*
X070468Y034519D01*
X070322Y034519D02*
X070322Y034299D01*
X069069Y034299D02*
X069069Y034519D01*
X069093Y038299D02*
X069093Y038519D01*
X069166Y038519D02*
X069019Y038519D01*
X068945Y038446D02*
X068945Y038299D01*
X068945Y038409D02*
X068798Y038409D01*
X068798Y038446D02*
X068872Y038519D01*
X068945Y038446D01*
X068798Y038446D02*
X068798Y038299D01*
X068651Y038299D02*
X068651Y038519D01*
X068724Y038519D02*
X068577Y038519D01*
X068503Y038482D02*
X068467Y038519D01*
X068393Y038519D01*
X068356Y038482D01*
X068356Y038446D01*
X068393Y038409D01*
X068467Y038409D01*
X068503Y038372D01*
X068503Y038336D01*
X068467Y038299D01*
X068393Y038299D01*
X068356Y038336D01*
X069240Y038336D02*
X069277Y038299D01*
X069351Y038299D01*
X069387Y038336D01*
X069387Y038519D01*
X069461Y038482D02*
X069461Y038446D01*
X069498Y038409D01*
X069571Y038409D01*
X069608Y038372D01*
X069608Y038336D01*
X069571Y038299D01*
X069498Y038299D01*
X069461Y038336D01*
X069461Y038482D02*
X069498Y038519D01*
X069571Y038519D01*
X069608Y038482D01*
X069240Y038519D02*
X069240Y038336D01*
X020359Y017974D02*
X016359Y017974D01*
D15*
X020636Y017969D02*
X020636Y017744D01*
X021086Y017744D01*
X021086Y017969D01*
X021011Y018044D01*
X020711Y018044D01*
X020636Y017969D01*
X020636Y018204D02*
X020636Y018504D01*
X020636Y018354D02*
X021086Y018354D01*
X021086Y018664D02*
X021086Y018965D01*
X021086Y018814D02*
X020636Y018814D01*
X020786Y018664D01*
X020636Y017583D02*
X021086Y017583D01*
X020936Y017433D01*
X021086Y017283D01*
X020636Y017283D01*
X021912Y019078D02*
X021912Y011991D01*
X025062Y011991D01*
X025062Y011794D01*
X025062Y011991D02*
X028211Y011991D01*
X028211Y011794D01*
X028211Y011991D02*
X031361Y011991D01*
X031361Y021440D01*
X028211Y021440D01*
X028211Y021637D01*
X028211Y021440D02*
X025062Y021440D01*
X025062Y021637D01*
X025062Y021440D02*
X024274Y021440D01*
X021912Y019078D01*
X025062Y021637D02*
X025064Y021716D01*
X025070Y021794D01*
X025080Y021872D01*
X025093Y021949D01*
X025111Y022026D01*
X025132Y022101D01*
X025157Y022176D01*
X025186Y022249D01*
X025218Y022320D01*
X025254Y022390D01*
X025293Y022458D01*
X025336Y022524D01*
X025382Y022588D01*
X025430Y022649D01*
X025482Y022708D01*
X025537Y022764D01*
X025595Y022818D01*
X025655Y022868D01*
X025718Y022916D01*
X025782Y022960D01*
X025850Y023001D01*
X025918Y023039D01*
X025989Y023073D01*
X026062Y023103D01*
X026135Y023130D01*
X026210Y023153D01*
X026287Y023173D01*
X026364Y023188D01*
X026441Y023200D01*
X026519Y023208D01*
X026598Y023212D01*
X026676Y023212D01*
X026755Y023208D01*
X026833Y023200D01*
X026910Y023188D01*
X026987Y023173D01*
X027064Y023153D01*
X027139Y023130D01*
X027212Y023103D01*
X027285Y023073D01*
X027356Y023039D01*
X027425Y023001D01*
X027492Y022960D01*
X027556Y022916D01*
X027619Y022868D01*
X027679Y022818D01*
X027737Y022764D01*
X027792Y022708D01*
X027844Y022649D01*
X027892Y022588D01*
X027938Y022524D01*
X027981Y022458D01*
X028020Y022390D01*
X028056Y022320D01*
X028088Y022249D01*
X028117Y022176D01*
X028142Y022101D01*
X028163Y022026D01*
X028181Y021949D01*
X028194Y021872D01*
X028204Y021794D01*
X028210Y021716D01*
X028212Y021637D01*
X027030Y023802D02*
X029393Y023802D01*
X029393Y027739D01*
X027030Y027739D01*
X027030Y023802D01*
X022700Y025771D02*
X022700Y035219D01*
X019550Y035219D01*
X019550Y035416D01*
X019550Y035219D02*
X016400Y035219D01*
X016400Y035416D01*
X016400Y035219D02*
X015613Y035219D01*
X013251Y032857D01*
X013251Y025771D01*
X016400Y025771D01*
X016400Y025574D01*
X016400Y025771D02*
X019550Y025771D01*
X019550Y025574D01*
X019550Y025771D02*
X022700Y025771D01*
X027030Y028526D02*
X029393Y028526D01*
X029393Y032463D01*
X027030Y032463D01*
X027030Y028526D01*
X025372Y029904D02*
X024506Y029904D01*
X024506Y032305D01*
X025372Y032305D01*
X025372Y029904D01*
X025289Y030785D02*
X024589Y030785D01*
X024939Y031385D01*
X025289Y031385D01*
X024939Y031385D02*
X025289Y030785D01*
X024939Y031385D02*
X024589Y031385D01*
X027030Y033251D02*
X029393Y033251D01*
X029393Y037188D01*
X027030Y037188D01*
X027030Y033251D01*
X032149Y035810D02*
X039235Y035810D01*
X039235Y025180D01*
X032149Y025180D01*
X032149Y035810D01*
X033495Y037478D02*
X033495Y039880D01*
X034361Y039880D01*
X034361Y037478D01*
X033495Y037478D01*
X033578Y038399D02*
X033928Y038399D01*
X034278Y038399D01*
X033928Y038399D02*
X033578Y038999D01*
X034278Y038999D01*
X033928Y038399D01*
X031361Y039550D02*
X031361Y048999D01*
X028211Y048999D01*
X028211Y049196D01*
X028211Y048999D02*
X025062Y048999D01*
X025062Y049196D01*
X025062Y048999D02*
X024274Y048999D01*
X021912Y046637D01*
X021912Y039550D01*
X025062Y039550D01*
X025062Y039353D01*
X025062Y039550D02*
X028211Y039550D01*
X028211Y039353D01*
X028211Y039550D02*
X031361Y039550D01*
X028212Y039353D02*
X028210Y039274D01*
X028204Y039196D01*
X028194Y039118D01*
X028181Y039041D01*
X028163Y038964D01*
X028142Y038889D01*
X028117Y038814D01*
X028088Y038741D01*
X028056Y038670D01*
X028020Y038600D01*
X027981Y038532D01*
X027938Y038466D01*
X027892Y038402D01*
X027844Y038341D01*
X027792Y038282D01*
X027737Y038226D01*
X027679Y038172D01*
X027619Y038122D01*
X027556Y038074D01*
X027492Y038030D01*
X027425Y037989D01*
X027356Y037951D01*
X027285Y037917D01*
X027212Y037887D01*
X027139Y037860D01*
X027064Y037837D01*
X026987Y037817D01*
X026910Y037802D01*
X026833Y037790D01*
X026755Y037782D01*
X026676Y037778D01*
X026598Y037778D01*
X026519Y037782D01*
X026441Y037790D01*
X026364Y037802D01*
X026287Y037817D01*
X026210Y037837D01*
X026135Y037860D01*
X026062Y037887D01*
X025989Y037917D01*
X025918Y037951D01*
X025850Y037989D01*
X025782Y038030D01*
X025718Y038074D01*
X025655Y038122D01*
X025595Y038172D01*
X025537Y038226D01*
X025482Y038282D01*
X025430Y038341D01*
X025382Y038402D01*
X025336Y038466D01*
X025293Y038532D01*
X025254Y038600D01*
X025218Y038670D01*
X025186Y038741D01*
X025157Y038814D01*
X025132Y038889D01*
X025111Y038964D01*
X025093Y039041D01*
X025080Y039118D01*
X025070Y039196D01*
X025064Y039274D01*
X025062Y039353D01*
X019550Y035416D02*
X019548Y035495D01*
X019542Y035573D01*
X019532Y035651D01*
X019519Y035728D01*
X019501Y035805D01*
X019480Y035880D01*
X019455Y035955D01*
X019426Y036028D01*
X019394Y036099D01*
X019358Y036169D01*
X019319Y036237D01*
X019276Y036303D01*
X019230Y036367D01*
X019182Y036428D01*
X019130Y036487D01*
X019075Y036543D01*
X019017Y036597D01*
X018957Y036647D01*
X018894Y036695D01*
X018830Y036739D01*
X018763Y036780D01*
X018694Y036818D01*
X018623Y036852D01*
X018550Y036882D01*
X018477Y036909D01*
X018402Y036932D01*
X018325Y036952D01*
X018248Y036967D01*
X018171Y036979D01*
X018093Y036987D01*
X018014Y036991D01*
X017936Y036991D01*
X017857Y036987D01*
X017779Y036979D01*
X017702Y036967D01*
X017625Y036952D01*
X017548Y036932D01*
X017473Y036909D01*
X017400Y036882D01*
X017327Y036852D01*
X017256Y036818D01*
X017188Y036780D01*
X017120Y036739D01*
X017056Y036695D01*
X016993Y036647D01*
X016933Y036597D01*
X016875Y036543D01*
X016820Y036487D01*
X016768Y036428D01*
X016720Y036367D01*
X016674Y036303D01*
X016631Y036237D01*
X016592Y036169D01*
X016556Y036099D01*
X016524Y036028D01*
X016495Y035955D01*
X016470Y035880D01*
X016449Y035805D01*
X016431Y035728D01*
X016418Y035651D01*
X016408Y035573D01*
X016402Y035495D01*
X016400Y035416D01*
X016400Y025574D02*
X016402Y025495D01*
X016408Y025417D01*
X016418Y025339D01*
X016431Y025262D01*
X016449Y025185D01*
X016470Y025110D01*
X016495Y025035D01*
X016524Y024962D01*
X016556Y024891D01*
X016592Y024821D01*
X016631Y024753D01*
X016674Y024687D01*
X016720Y024623D01*
X016768Y024562D01*
X016820Y024503D01*
X016875Y024447D01*
X016933Y024393D01*
X016993Y024343D01*
X017056Y024295D01*
X017120Y024251D01*
X017188Y024210D01*
X017256Y024172D01*
X017327Y024138D01*
X017400Y024108D01*
X017473Y024081D01*
X017548Y024058D01*
X017625Y024038D01*
X017702Y024023D01*
X017779Y024011D01*
X017857Y024003D01*
X017936Y023999D01*
X018014Y023999D01*
X018093Y024003D01*
X018171Y024011D01*
X018248Y024023D01*
X018325Y024038D01*
X018402Y024058D01*
X018477Y024081D01*
X018550Y024108D01*
X018623Y024138D01*
X018694Y024172D01*
X018763Y024210D01*
X018830Y024251D01*
X018894Y024295D01*
X018957Y024343D01*
X019017Y024393D01*
X019075Y024447D01*
X019130Y024503D01*
X019182Y024562D01*
X019230Y024623D01*
X019276Y024687D01*
X019319Y024753D01*
X019358Y024821D01*
X019394Y024891D01*
X019426Y024962D01*
X019455Y025035D01*
X019480Y025110D01*
X019501Y025185D01*
X019519Y025262D01*
X019532Y025339D01*
X019542Y025417D01*
X019548Y025495D01*
X019550Y025574D01*
X033841Y014727D02*
X033841Y014491D01*
X033841Y014215D01*
X033841Y013979D01*
X035180Y013979D01*
X035180Y014215D01*
X035180Y014491D01*
X035180Y014727D01*
X033841Y014727D01*
X033841Y014491D02*
X033864Y014489D01*
X033886Y014484D01*
X033907Y014474D01*
X033926Y014462D01*
X033943Y014446D01*
X033957Y014428D01*
X033967Y014408D01*
X033975Y014387D01*
X033979Y014364D01*
X033979Y014342D01*
X033975Y014319D01*
X033967Y014298D01*
X033957Y014278D01*
X033943Y014260D01*
X033926Y014244D01*
X033907Y014232D01*
X033886Y014222D01*
X033864Y014217D01*
X033841Y014215D01*
X034393Y014078D02*
X034393Y014649D01*
X035180Y014491D02*
X035157Y014489D01*
X035135Y014484D01*
X035114Y014474D01*
X035095Y014462D01*
X035078Y014446D01*
X035064Y014428D01*
X035054Y014408D01*
X035046Y014387D01*
X035042Y014364D01*
X035042Y014342D01*
X035046Y014319D01*
X035054Y014298D01*
X035064Y014278D01*
X035078Y014260D01*
X035095Y014244D01*
X035114Y014232D01*
X035135Y014222D01*
X035157Y014217D01*
X035180Y014215D01*
X036400Y016361D02*
X036400Y017857D01*
X037818Y017857D01*
X037818Y016361D01*
X036400Y016361D01*
X030456Y011184D02*
X030456Y010948D01*
X030456Y010672D01*
X030456Y010436D01*
X029117Y010436D01*
X029117Y010672D01*
X029117Y010948D01*
X029117Y011184D01*
X030456Y011184D01*
X030456Y010948D02*
X030433Y010946D01*
X030411Y010941D01*
X030390Y010931D01*
X030371Y010919D01*
X030354Y010903D01*
X030340Y010885D01*
X030330Y010865D01*
X030322Y010844D01*
X030318Y010821D01*
X030318Y010799D01*
X030322Y010776D01*
X030330Y010755D01*
X030340Y010735D01*
X030354Y010717D01*
X030371Y010701D01*
X030390Y010689D01*
X030411Y010679D01*
X030433Y010674D01*
X030456Y010672D01*
X030456Y010003D02*
X030456Y009767D01*
X030456Y009491D01*
X030456Y009255D01*
X029117Y009255D01*
X029117Y009491D01*
X029117Y009767D01*
X029117Y010003D01*
X030456Y010003D01*
X030456Y009767D02*
X030433Y009765D01*
X030411Y009760D01*
X030390Y009750D01*
X030371Y009738D01*
X030354Y009722D01*
X030340Y009704D01*
X030330Y009684D01*
X030322Y009663D01*
X030318Y009640D01*
X030318Y009618D01*
X030322Y009595D01*
X030330Y009574D01*
X030340Y009554D01*
X030354Y009536D01*
X030371Y009520D01*
X030390Y009508D01*
X030411Y009498D01*
X030433Y009493D01*
X030456Y009491D01*
X029668Y009353D02*
X029668Y009924D01*
X029668Y010534D02*
X029668Y011105D01*
X029117Y010948D02*
X029140Y010946D01*
X029162Y010941D01*
X029183Y010931D01*
X029202Y010919D01*
X029219Y010903D01*
X029233Y010885D01*
X029243Y010865D01*
X029251Y010844D01*
X029255Y010821D01*
X029255Y010799D01*
X029251Y010776D01*
X029243Y010755D01*
X029233Y010735D01*
X029219Y010717D01*
X029202Y010701D01*
X029183Y010689D01*
X029162Y010679D01*
X029140Y010674D01*
X029117Y010672D01*
X029117Y009767D02*
X029140Y009765D01*
X029162Y009760D01*
X029183Y009750D01*
X029202Y009738D01*
X029219Y009722D01*
X029233Y009704D01*
X029243Y009684D01*
X029251Y009663D01*
X029255Y009640D01*
X029255Y009618D01*
X029251Y009595D01*
X029243Y009574D01*
X029233Y009554D01*
X029219Y009536D01*
X029202Y009520D01*
X029183Y009508D01*
X029162Y009498D01*
X029140Y009493D01*
X029117Y009491D01*
X029132Y008465D02*
X029998Y008465D01*
X029998Y006063D01*
X029132Y006063D01*
X029132Y008465D01*
X028287Y008478D02*
X027421Y008478D01*
X027421Y006076D01*
X028287Y006076D01*
X028287Y008478D01*
X028204Y007597D02*
X027504Y007597D01*
X027854Y006997D01*
X027504Y006997D01*
X027854Y006997D02*
X028204Y006997D01*
X027854Y006997D02*
X028204Y007597D01*
X029215Y007584D02*
X029565Y006984D01*
X029215Y006984D01*
X029565Y006984D02*
X029915Y006984D01*
X029565Y006984D02*
X029915Y007584D01*
X029215Y007584D01*
X028212Y011794D02*
X028210Y011715D01*
X028204Y011637D01*
X028194Y011559D01*
X028181Y011482D01*
X028163Y011405D01*
X028142Y011330D01*
X028117Y011255D01*
X028088Y011182D01*
X028056Y011111D01*
X028020Y011041D01*
X027981Y010973D01*
X027938Y010907D01*
X027892Y010843D01*
X027844Y010782D01*
X027792Y010723D01*
X027737Y010667D01*
X027679Y010613D01*
X027619Y010563D01*
X027556Y010515D01*
X027492Y010471D01*
X027425Y010430D01*
X027356Y010392D01*
X027285Y010358D01*
X027212Y010328D01*
X027139Y010301D01*
X027064Y010278D01*
X026987Y010258D01*
X026910Y010243D01*
X026833Y010231D01*
X026755Y010223D01*
X026676Y010219D01*
X026598Y010219D01*
X026519Y010223D01*
X026441Y010231D01*
X026364Y010243D01*
X026287Y010258D01*
X026210Y010278D01*
X026135Y010301D01*
X026062Y010328D01*
X025989Y010358D01*
X025918Y010392D01*
X025850Y010430D01*
X025782Y010471D01*
X025718Y010515D01*
X025655Y010563D01*
X025595Y010613D01*
X025537Y010667D01*
X025482Y010723D01*
X025430Y010782D01*
X025382Y010843D01*
X025336Y010907D01*
X025293Y010973D01*
X025254Y011041D01*
X025218Y011111D01*
X025186Y011182D01*
X025157Y011255D01*
X025132Y011330D01*
X025111Y011405D01*
X025093Y011482D01*
X025080Y011559D01*
X025070Y011637D01*
X025064Y011715D01*
X025062Y011794D01*
X040032Y023596D02*
X040032Y024462D01*
X042434Y024462D01*
X042434Y023596D01*
X040032Y023596D01*
X040913Y023679D02*
X041513Y024029D01*
X041513Y023679D01*
X041513Y024029D02*
X041513Y024379D01*
X041513Y024029D02*
X040913Y024379D01*
X040913Y023679D01*
X050652Y021440D02*
X050652Y011991D01*
X053802Y011991D01*
X053802Y011794D01*
X053802Y011991D02*
X056952Y011991D01*
X056952Y011794D01*
X056952Y011991D02*
X057739Y011991D01*
X060101Y014353D01*
X060101Y021440D01*
X056952Y021440D01*
X056952Y021637D01*
X056952Y021440D02*
X053802Y021440D01*
X053802Y021637D01*
X053802Y021440D02*
X050652Y021440D01*
X052737Y024860D02*
X052737Y026908D01*
X054037Y026908D01*
X054037Y024860D01*
X052737Y024860D01*
X053802Y021637D02*
X053804Y021716D01*
X053810Y021794D01*
X053820Y021872D01*
X053833Y021949D01*
X053851Y022026D01*
X053872Y022101D01*
X053897Y022176D01*
X053926Y022249D01*
X053958Y022320D01*
X053994Y022390D01*
X054033Y022458D01*
X054076Y022524D01*
X054122Y022588D01*
X054170Y022649D01*
X054222Y022708D01*
X054277Y022764D01*
X054335Y022818D01*
X054395Y022868D01*
X054458Y022916D01*
X054522Y022960D01*
X054590Y023001D01*
X054658Y023039D01*
X054729Y023073D01*
X054802Y023103D01*
X054875Y023130D01*
X054950Y023153D01*
X055027Y023173D01*
X055104Y023188D01*
X055181Y023200D01*
X055259Y023208D01*
X055338Y023212D01*
X055416Y023212D01*
X055495Y023208D01*
X055573Y023200D01*
X055650Y023188D01*
X055727Y023173D01*
X055804Y023153D01*
X055879Y023130D01*
X055952Y023103D01*
X056025Y023073D01*
X056096Y023039D01*
X056165Y023001D01*
X056232Y022960D01*
X056296Y022916D01*
X056359Y022868D01*
X056419Y022818D01*
X056477Y022764D01*
X056532Y022708D01*
X056584Y022649D01*
X056632Y022588D01*
X056678Y022524D01*
X056721Y022458D01*
X056760Y022390D01*
X056796Y022320D01*
X056828Y022249D01*
X056857Y022176D01*
X056882Y022101D01*
X056903Y022026D01*
X056921Y021949D01*
X056934Y021872D01*
X056944Y021794D01*
X056950Y021716D01*
X056952Y021637D01*
X061624Y020020D02*
X061624Y019945D01*
X061699Y019870D01*
X061849Y019870D01*
X061925Y019795D01*
X061925Y019720D01*
X061849Y019645D01*
X061699Y019645D01*
X061624Y019720D01*
X061624Y020020D02*
X061699Y020096D01*
X061849Y020096D01*
X061925Y020020D01*
X062085Y019945D02*
X062235Y020096D01*
X062235Y019645D01*
X062085Y019645D02*
X062385Y019645D01*
X064057Y021648D02*
X064057Y022148D01*
X064557Y022148D01*
X064557Y021648D01*
X064057Y022148D02*
X064057Y023648D01*
X064417Y025862D02*
X064417Y028263D01*
X065283Y028263D01*
X065283Y025862D01*
X064417Y025862D01*
X063541Y025888D02*
X062674Y025888D01*
X062674Y028289D01*
X063541Y028289D01*
X063541Y025888D01*
X063458Y026808D02*
X063108Y026808D01*
X062758Y026808D01*
X063108Y026808D02*
X062758Y027408D01*
X063458Y027408D01*
X063108Y026808D01*
X064500Y026782D02*
X064850Y026782D01*
X065200Y026782D01*
X064850Y026782D02*
X064500Y027382D01*
X065200Y027382D01*
X064850Y026782D01*
X067966Y028919D02*
X068696Y028919D01*
X068696Y030059D01*
X067966Y030059D01*
X067966Y028929D01*
X067975Y031282D02*
X067936Y031282D01*
X067936Y031322D01*
X067404Y034615D02*
X067404Y035481D01*
X069805Y035481D01*
X069805Y034615D01*
X067404Y034615D01*
X068285Y034698D02*
X068285Y035398D01*
X068885Y035048D01*
X068885Y034698D01*
X068885Y035048D02*
X068885Y035398D01*
X068885Y035048D02*
X068285Y034698D01*
X068167Y037337D02*
X068767Y037687D01*
X068767Y037337D01*
X068767Y037687D02*
X068767Y038037D01*
X068767Y037687D02*
X068167Y038037D01*
X068167Y037337D01*
X067286Y037254D02*
X067286Y038120D01*
X069687Y038120D01*
X069687Y037254D01*
X067286Y037254D01*
X060101Y041912D02*
X060101Y048999D01*
X056952Y048999D01*
X056952Y049196D01*
X056952Y048999D02*
X053802Y048999D01*
X053802Y049196D01*
X053802Y048999D02*
X050652Y048999D01*
X050652Y039550D01*
X053802Y039550D01*
X053802Y039353D01*
X053802Y039550D02*
X056952Y039550D01*
X056952Y039353D01*
X056952Y039550D02*
X057739Y039550D01*
X060101Y041912D01*
X056952Y039353D02*
X056950Y039274D01*
X056944Y039196D01*
X056934Y039118D01*
X056921Y039041D01*
X056903Y038964D01*
X056882Y038889D01*
X056857Y038814D01*
X056828Y038741D01*
X056796Y038670D01*
X056760Y038600D01*
X056721Y038532D01*
X056678Y038466D01*
X056632Y038402D01*
X056584Y038341D01*
X056532Y038282D01*
X056477Y038226D01*
X056419Y038172D01*
X056359Y038122D01*
X056296Y038074D01*
X056232Y038030D01*
X056165Y037989D01*
X056096Y037951D01*
X056025Y037917D01*
X055952Y037887D01*
X055879Y037860D01*
X055804Y037837D01*
X055727Y037817D01*
X055650Y037802D01*
X055573Y037790D01*
X055495Y037782D01*
X055416Y037778D01*
X055338Y037778D01*
X055259Y037782D01*
X055181Y037790D01*
X055104Y037802D01*
X055027Y037817D01*
X054950Y037837D01*
X054875Y037860D01*
X054802Y037887D01*
X054729Y037917D01*
X054658Y037951D01*
X054590Y037989D01*
X054522Y038030D01*
X054458Y038074D01*
X054395Y038122D01*
X054335Y038172D01*
X054277Y038226D01*
X054222Y038282D01*
X054170Y038341D01*
X054122Y038402D01*
X054076Y038466D01*
X054033Y038532D01*
X053994Y038600D01*
X053958Y038670D01*
X053926Y038741D01*
X053897Y038814D01*
X053872Y038889D01*
X053851Y038964D01*
X053833Y039041D01*
X053820Y039118D01*
X053810Y039196D01*
X053804Y039274D01*
X053802Y039353D01*
X049235Y043526D02*
X049235Y045023D01*
X047818Y045023D01*
X047818Y043526D01*
X049235Y043526D01*
X043152Y037463D02*
X043152Y036125D01*
X042916Y036125D01*
X042641Y036125D01*
X042404Y036125D01*
X042404Y037463D01*
X042641Y037463D01*
X042916Y037463D01*
X043152Y037463D01*
X042916Y037463D02*
X042914Y037440D01*
X042909Y037418D01*
X042899Y037397D01*
X042887Y037378D01*
X042871Y037361D01*
X042853Y037347D01*
X042833Y037337D01*
X042812Y037329D01*
X042789Y037325D01*
X042767Y037325D01*
X042744Y037329D01*
X042723Y037337D01*
X042703Y037347D01*
X042685Y037361D01*
X042669Y037378D01*
X042657Y037397D01*
X042647Y037418D01*
X042642Y037440D01*
X042640Y037463D01*
X042503Y036912D02*
X043074Y036912D01*
X042916Y036125D02*
X042914Y036148D01*
X042909Y036170D01*
X042899Y036191D01*
X042887Y036210D01*
X042871Y036227D01*
X042853Y036241D01*
X042833Y036251D01*
X042812Y036259D01*
X042789Y036263D01*
X042767Y036263D01*
X042744Y036259D01*
X042723Y036251D01*
X042703Y036241D01*
X042685Y036227D01*
X042669Y036210D01*
X042657Y036191D01*
X042647Y036170D01*
X042642Y036148D01*
X042640Y036125D01*
X041313Y036899D02*
X041313Y038139D01*
X039703Y038139D01*
X039703Y038029D01*
X039583Y038029D01*
X039553Y038039D02*
X039553Y036899D01*
X041313Y036899D01*
X039673Y038039D02*
X039553Y038039D01*
X039553Y038139D01*
X039673Y038139D01*
X039673Y038039D01*
X039673Y038139D02*
X039703Y038139D01*
X044587Y036294D02*
X044662Y036219D01*
X044737Y036219D01*
X044812Y036294D01*
X044812Y036669D01*
X044737Y036669D02*
X044887Y036669D01*
X045047Y036669D02*
X045272Y036669D01*
X045348Y036594D01*
X045348Y036444D01*
X045272Y036369D01*
X045047Y036369D01*
X045047Y036219D02*
X045047Y036669D01*
X045508Y036669D02*
X045508Y036444D01*
X045658Y036519D01*
X045733Y036519D01*
X045808Y036444D01*
X045808Y036294D01*
X045733Y036219D01*
X045583Y036219D01*
X045508Y036294D01*
X045508Y036669D02*
X045808Y036669D01*
X058272Y027590D02*
X058722Y027590D01*
X058722Y027440D02*
X058722Y027740D01*
X058422Y027440D02*
X058272Y027590D01*
X058347Y027280D02*
X058647Y027280D01*
X058722Y027205D01*
X058722Y027054D01*
X058647Y026979D01*
X058347Y026979D01*
X058272Y027054D01*
X058272Y027205D01*
X058347Y027280D01*
X058572Y027130D02*
X058722Y027280D01*
X056952Y011794D02*
X056950Y011715D01*
X056944Y011637D01*
X056934Y011559D01*
X056921Y011482D01*
X056903Y011405D01*
X056882Y011330D01*
X056857Y011255D01*
X056828Y011182D01*
X056796Y011111D01*
X056760Y011041D01*
X056721Y010973D01*
X056678Y010907D01*
X056632Y010843D01*
X056584Y010782D01*
X056532Y010723D01*
X056477Y010667D01*
X056419Y010613D01*
X056359Y010563D01*
X056296Y010515D01*
X056232Y010471D01*
X056165Y010430D01*
X056096Y010392D01*
X056025Y010358D01*
X055952Y010328D01*
X055879Y010301D01*
X055804Y010278D01*
X055727Y010258D01*
X055650Y010243D01*
X055573Y010231D01*
X055495Y010223D01*
X055416Y010219D01*
X055338Y010219D01*
X055259Y010223D01*
X055181Y010231D01*
X055104Y010243D01*
X055027Y010258D01*
X054950Y010278D01*
X054875Y010301D01*
X054802Y010328D01*
X054729Y010358D01*
X054658Y010392D01*
X054590Y010430D01*
X054522Y010471D01*
X054458Y010515D01*
X054395Y010563D01*
X054335Y010613D01*
X054277Y010667D01*
X054222Y010723D01*
X054170Y010782D01*
X054122Y010843D01*
X054076Y010907D01*
X054033Y010973D01*
X053994Y011041D01*
X053958Y011111D01*
X053926Y011182D01*
X053897Y011255D01*
X053872Y011330D01*
X053851Y011405D01*
X053833Y011482D01*
X053820Y011559D01*
X053810Y011637D01*
X053804Y011715D01*
X053802Y011794D01*
X053802Y049196D02*
X053804Y049275D01*
X053810Y049353D01*
X053820Y049431D01*
X053833Y049508D01*
X053851Y049585D01*
X053872Y049660D01*
X053897Y049735D01*
X053926Y049808D01*
X053958Y049879D01*
X053994Y049949D01*
X054033Y050017D01*
X054076Y050083D01*
X054122Y050147D01*
X054170Y050208D01*
X054222Y050267D01*
X054277Y050323D01*
X054335Y050377D01*
X054395Y050427D01*
X054458Y050475D01*
X054522Y050519D01*
X054590Y050560D01*
X054658Y050598D01*
X054729Y050632D01*
X054802Y050662D01*
X054875Y050689D01*
X054950Y050712D01*
X055027Y050732D01*
X055104Y050747D01*
X055181Y050759D01*
X055259Y050767D01*
X055338Y050771D01*
X055416Y050771D01*
X055495Y050767D01*
X055573Y050759D01*
X055650Y050747D01*
X055727Y050732D01*
X055804Y050712D01*
X055879Y050689D01*
X055952Y050662D01*
X056025Y050632D01*
X056096Y050598D01*
X056165Y050560D01*
X056232Y050519D01*
X056296Y050475D01*
X056359Y050427D01*
X056419Y050377D01*
X056477Y050323D01*
X056532Y050267D01*
X056584Y050208D01*
X056632Y050147D01*
X056678Y050083D01*
X056721Y050017D01*
X056760Y049949D01*
X056796Y049879D01*
X056828Y049808D01*
X056857Y049735D01*
X056882Y049660D01*
X056903Y049585D01*
X056921Y049508D01*
X056934Y049431D01*
X056944Y049353D01*
X056950Y049275D01*
X056952Y049196D01*
X030086Y052415D02*
X029220Y052415D01*
X029220Y054817D01*
X030086Y054817D01*
X030086Y052415D01*
X030003Y053297D02*
X029653Y053897D01*
X030003Y053897D01*
X029653Y053897D02*
X029303Y053897D01*
X029653Y053897D02*
X029303Y053297D01*
X030003Y053297D01*
X028106Y053319D02*
X027756Y053919D01*
X028106Y053919D01*
X027756Y053919D02*
X027406Y053919D01*
X027756Y053919D02*
X027406Y053319D01*
X028106Y053319D01*
X028189Y052437D02*
X027323Y052437D01*
X027323Y054839D01*
X028189Y054839D01*
X028189Y052437D01*
X028212Y049196D02*
X028210Y049275D01*
X028204Y049353D01*
X028194Y049431D01*
X028181Y049508D01*
X028163Y049585D01*
X028142Y049660D01*
X028117Y049735D01*
X028088Y049808D01*
X028056Y049879D01*
X028020Y049949D01*
X027981Y050017D01*
X027938Y050083D01*
X027892Y050147D01*
X027844Y050208D01*
X027792Y050267D01*
X027737Y050323D01*
X027679Y050377D01*
X027619Y050427D01*
X027556Y050475D01*
X027492Y050519D01*
X027425Y050560D01*
X027356Y050598D01*
X027285Y050632D01*
X027212Y050662D01*
X027139Y050689D01*
X027064Y050712D01*
X026987Y050732D01*
X026910Y050747D01*
X026833Y050759D01*
X026755Y050767D01*
X026676Y050771D01*
X026598Y050771D01*
X026519Y050767D01*
X026441Y050759D01*
X026364Y050747D01*
X026287Y050732D01*
X026210Y050712D01*
X026135Y050689D01*
X026062Y050662D01*
X025989Y050632D01*
X025918Y050598D01*
X025850Y050560D01*
X025782Y050519D01*
X025718Y050475D01*
X025655Y050427D01*
X025595Y050377D01*
X025537Y050323D01*
X025482Y050267D01*
X025430Y050208D01*
X025382Y050147D01*
X025336Y050083D01*
X025293Y050017D01*
X025254Y049949D01*
X025218Y049879D01*
X025186Y049808D01*
X025157Y049735D01*
X025132Y049660D01*
X025111Y049585D01*
X025093Y049508D01*
X025080Y049431D01*
X025070Y049353D01*
X025064Y049275D01*
X025062Y049196D01*
D16*
X034299Y043882D02*
X034299Y042422D01*
X036939Y042422D01*
X036939Y043882D01*
X034299Y043882D01*
X038932Y042950D02*
X038932Y042450D01*
X039182Y042200D01*
X039682Y042200D01*
X039932Y042450D01*
X039932Y042950D01*
X039682Y043200D01*
X039182Y043200D01*
X038932Y042950D01*
X042475Y042950D02*
X042475Y042450D01*
X042725Y042200D01*
X043225Y042200D01*
X043475Y042450D01*
X043475Y042950D01*
X043225Y043200D01*
X042725Y043200D01*
X042475Y042950D01*
X044391Y035995D02*
X045891Y035995D01*
X046141Y035745D01*
X046141Y035245D01*
X045891Y034995D01*
X044391Y034995D01*
X044141Y034745D01*
X044141Y034245D01*
X044391Y033995D01*
X045891Y033995D01*
X046141Y033745D01*
X046141Y033245D01*
X045891Y032995D01*
X044391Y032995D01*
X044141Y032745D01*
X044141Y032245D01*
X044391Y031995D01*
X045891Y031995D01*
X046141Y031745D01*
X046141Y031245D01*
X045891Y030995D01*
X044391Y030995D01*
X044141Y030745D01*
X044141Y030245D01*
X044391Y029995D01*
X045891Y029995D01*
X046141Y029745D01*
X046141Y029245D01*
X045891Y028995D01*
X044391Y028995D01*
X044141Y029245D01*
X044141Y029745D01*
X044391Y029995D01*
X044391Y030995D02*
X044141Y031245D01*
X044141Y031745D01*
X044391Y031995D01*
X044391Y032995D02*
X044141Y033245D01*
X044141Y033745D01*
X044391Y033995D01*
X044391Y034995D02*
X044141Y035245D01*
X044141Y035745D01*
X044391Y035995D01*
X045891Y034995D02*
X046141Y034745D01*
X046141Y034245D01*
X045891Y033995D01*
X045891Y032995D02*
X046141Y032745D01*
X046141Y032245D01*
X045891Y031995D01*
X045891Y030995D02*
X046141Y030745D01*
X046141Y030245D01*
X045891Y029995D01*
X045891Y028995D02*
X046141Y028745D01*
X046141Y028245D01*
X045891Y027995D01*
X044391Y027995D01*
X044141Y028245D01*
X044141Y028745D01*
X044391Y028995D01*
X044391Y027995D02*
X044141Y027745D01*
X044141Y027245D01*
X044391Y026995D01*
X045891Y026995D01*
X046141Y026745D01*
X046141Y026245D01*
X045891Y025995D01*
X046141Y025745D01*
X046141Y025245D01*
X045891Y024995D01*
X044391Y024995D01*
X044141Y025245D01*
X044141Y025745D01*
X044391Y025995D01*
X045891Y025995D01*
X044391Y025995D02*
X044141Y026245D01*
X044141Y026745D01*
X044391Y026995D01*
X045891Y026995D02*
X046141Y027245D01*
X046141Y027745D01*
X045891Y027995D01*
X045922Y021512D02*
X046832Y021512D01*
X046832Y018072D02*
X046492Y018072D01*
X046252Y018072D01*
X045922Y018072D01*
X043475Y018040D02*
X043225Y017790D01*
X042725Y017790D01*
X042475Y018040D01*
X042475Y018540D01*
X042725Y018790D01*
X043225Y018790D01*
X043475Y018540D01*
X043475Y018040D01*
X039932Y018040D02*
X039682Y017790D01*
X039182Y017790D01*
X038932Y018040D01*
X038932Y018540D01*
X039182Y018790D01*
X039682Y018790D01*
X039932Y018540D01*
X039932Y018040D01*
X035811Y019354D02*
X035811Y021994D01*
X034351Y021994D01*
X034351Y019354D01*
X035811Y019354D01*
X020359Y019224D02*
X020359Y017984D01*
X020357Y017961D01*
X020352Y017938D01*
X020343Y017916D01*
X020330Y017896D01*
X020315Y017878D01*
X020297Y017863D01*
X020277Y017850D01*
X020255Y017841D01*
X020232Y017836D01*
X020209Y017834D01*
X016509Y017834D01*
X016486Y017836D01*
X016463Y017841D01*
X016441Y017850D01*
X016421Y017863D01*
X016403Y017878D01*
X016388Y017896D01*
X016375Y017916D01*
X016366Y017938D01*
X016361Y017961D01*
X016359Y017984D01*
X016359Y018404D01*
X016359Y018804D01*
X016359Y019224D01*
X016361Y019247D01*
X016366Y019270D01*
X016375Y019292D01*
X016388Y019312D01*
X016403Y019330D01*
X016421Y019345D01*
X016441Y019358D01*
X016463Y019367D01*
X016486Y019372D01*
X016509Y019374D01*
X020209Y019374D01*
X020232Y019372D01*
X020255Y019367D01*
X020277Y019358D01*
X020297Y019345D01*
X020315Y019330D01*
X020330Y019312D01*
X020343Y019292D01*
X020352Y019270D01*
X020357Y019247D01*
X020359Y019224D01*
X016359Y018804D02*
X016386Y018802D01*
X016413Y018797D01*
X016439Y018787D01*
X016463Y018775D01*
X016485Y018759D01*
X016505Y018741D01*
X016522Y018719D01*
X016537Y018696D01*
X016547Y018671D01*
X016555Y018645D01*
X016559Y018618D01*
X016559Y018590D01*
X016555Y018563D01*
X016547Y018537D01*
X016537Y018512D01*
X016522Y018489D01*
X016505Y018467D01*
X016485Y018449D01*
X016463Y018433D01*
X016439Y018421D01*
X016413Y018411D01*
X016386Y018406D01*
X016359Y018404D01*
X053427Y028836D02*
X056047Y028836D01*
X056187Y028975D01*
X056187Y031595D01*
X053427Y031595D01*
X053427Y028836D01*
X055746Y029135D02*
X055748Y029158D01*
X055754Y029181D01*
X055763Y029202D01*
X055776Y029222D01*
X055792Y029239D01*
X055810Y029253D01*
X055830Y029264D01*
X055852Y029272D01*
X055875Y029276D01*
X055899Y029276D01*
X055922Y029272D01*
X055944Y029264D01*
X055964Y029253D01*
X055982Y029239D01*
X055998Y029222D01*
X056011Y029202D01*
X056020Y029181D01*
X056026Y029158D01*
X056028Y029135D01*
X056026Y029112D01*
X056020Y029089D01*
X056011Y029068D01*
X055998Y029048D01*
X055982Y029031D01*
X055964Y029017D01*
X055944Y029006D01*
X055922Y028998D01*
X055899Y028994D01*
X055875Y028994D01*
X055852Y028998D01*
X055830Y029006D01*
X055810Y029017D01*
X055792Y029031D01*
X055776Y029048D01*
X055763Y029068D01*
X055754Y029089D01*
X055748Y029112D01*
X055746Y029135D01*
X058847Y027054D02*
X058847Y031354D01*
X058849Y031371D01*
X058853Y031388D01*
X058860Y031404D01*
X058870Y031418D01*
X058883Y031431D01*
X058897Y031441D01*
X058913Y031448D01*
X058930Y031452D01*
X058947Y031454D01*
X059347Y031454D01*
X060247Y031454D02*
X060647Y031454D01*
X060664Y031452D01*
X060681Y031448D01*
X060697Y031441D01*
X060711Y031431D01*
X060724Y031418D01*
X060734Y031404D01*
X060741Y031388D01*
X060745Y031371D01*
X060747Y031354D01*
X060747Y027054D01*
X060745Y027037D01*
X060741Y027020D01*
X060734Y027004D01*
X060724Y026990D01*
X060711Y026977D01*
X060697Y026967D01*
X060681Y026960D01*
X060664Y026956D01*
X060647Y026954D01*
X060247Y026954D01*
X059347Y026954D02*
X058947Y026954D01*
X058930Y026956D01*
X058913Y026960D01*
X058897Y026967D01*
X058883Y026977D01*
X058870Y026990D01*
X058860Y027004D01*
X058853Y027020D01*
X058849Y027037D01*
X058847Y027054D01*
X059547Y028954D02*
X059797Y028954D01*
X060047Y028954D01*
X060047Y029104D02*
X060047Y029304D01*
X059547Y029304D01*
X059547Y029104D01*
X060047Y029104D01*
X060047Y029454D02*
X059797Y029454D01*
X059547Y029454D01*
X061589Y019470D02*
X064109Y019470D01*
X064109Y012970D01*
X061589Y012970D01*
X061589Y019470D01*
X062049Y019020D02*
X063649Y019020D01*
X063649Y018420D01*
X062049Y018420D01*
X062049Y019020D01*
X062049Y018020D02*
X063649Y018020D01*
X063649Y017420D01*
X062049Y017420D01*
X062049Y018020D01*
X062049Y017020D02*
X063649Y017020D01*
X063649Y016420D01*
X062049Y016420D01*
X062049Y017020D01*
X062049Y016020D02*
X063649Y016020D01*
X063649Y015420D01*
X062049Y015420D01*
X062049Y016020D01*
X062049Y015020D02*
X063649Y015020D01*
X063649Y014420D01*
X062049Y014420D01*
X062049Y015020D01*
X062049Y014020D02*
X063649Y014020D01*
X063649Y013420D01*
X062049Y013420D01*
X062049Y014020D01*
X055352Y053200D02*
X053572Y053200D01*
X053572Y055200D02*
X054342Y055200D01*
X054582Y055200D01*
X055352Y055200D01*
X054582Y055200D02*
X054580Y055179D01*
X054575Y055159D01*
X054566Y055140D01*
X054554Y055123D01*
X054539Y055108D01*
X054522Y055096D01*
X054503Y055087D01*
X054483Y055082D01*
X054462Y055080D01*
X054441Y055082D01*
X054421Y055087D01*
X054402Y055096D01*
X054385Y055108D01*
X054370Y055123D01*
X054358Y055140D01*
X054349Y055159D01*
X054344Y055179D01*
X054342Y055200D01*
X054344Y055179D01*
X054349Y055159D01*
X054358Y055140D01*
X054370Y055123D01*
X054385Y055108D01*
X054402Y055096D01*
X054421Y055087D01*
X054441Y055082D01*
X054462Y055080D01*
X054483Y055082D01*
X054503Y055087D01*
X054522Y055096D01*
X054539Y055108D01*
X054554Y055123D01*
X054566Y055140D01*
X054575Y055159D01*
X054580Y055179D01*
X054582Y055200D01*
X054580Y055179D01*
X054575Y055159D01*
X054566Y055140D01*
X054554Y055123D01*
X054539Y055108D01*
X054522Y055096D01*
X054503Y055087D01*
X054483Y055082D01*
X054462Y055080D01*
X054441Y055082D01*
X054421Y055087D01*
X054402Y055096D01*
X054385Y055108D01*
X054370Y055123D01*
X054358Y055140D01*
X054349Y055159D01*
X054344Y055179D01*
X054342Y055200D01*
X056022Y053960D02*
X056422Y053960D01*
X056452Y053940D02*
X056052Y053940D01*
D17*
X033133Y033645D02*
X033133Y032463D01*
X033133Y028526D02*
X033133Y027345D01*
X032542Y027936D02*
X033723Y027936D01*
D18*
X033673Y022021D02*
X033673Y021707D01*
X033673Y022021D01*
X033829Y022021D02*
X033516Y021707D01*
X033829Y022021D01*
X033829Y021864D02*
X033516Y021864D01*
X033829Y021864D01*
X033829Y021707D02*
X033516Y022021D01*
X033829Y021707D01*
X036455Y015920D02*
X036640Y015920D01*
X036702Y015858D01*
X036702Y015734D01*
X036640Y015673D01*
X036455Y015673D01*
X036455Y015549D02*
X036455Y015920D01*
X036823Y015858D02*
X036823Y015611D01*
X036885Y015549D01*
X037008Y015549D01*
X037070Y015611D01*
X037070Y015858D01*
X037008Y015920D01*
X036885Y015920D01*
X036823Y015858D01*
X037191Y015920D02*
X037438Y015920D01*
X037315Y015920D02*
X037315Y015549D01*
X037560Y015549D02*
X037807Y015796D01*
X037807Y015858D01*
X037745Y015920D01*
X037622Y015920D01*
X037560Y015858D01*
X037560Y015549D02*
X037807Y015549D01*
X034641Y013664D02*
X034641Y013602D01*
X034394Y013355D01*
X034394Y013293D01*
X034273Y013355D02*
X034273Y013602D01*
X034211Y013664D01*
X034026Y013664D01*
X034026Y013293D01*
X034211Y013293D01*
X034273Y013355D01*
X034394Y013664D02*
X034641Y013664D01*
X028696Y010908D02*
X028449Y010908D01*
X028449Y010723D01*
X028573Y010784D01*
X028634Y010784D01*
X028696Y010723D01*
X028696Y010599D01*
X028634Y010538D01*
X028511Y010538D01*
X028449Y010599D01*
X028328Y010599D02*
X028328Y010846D01*
X028266Y010908D01*
X028081Y010908D01*
X028081Y010538D01*
X028266Y010538D01*
X028328Y010599D01*
X028227Y009727D02*
X028041Y009727D01*
X028041Y009356D01*
X028227Y009356D01*
X028288Y009418D01*
X028288Y009665D01*
X028227Y009727D01*
X028410Y009542D02*
X028595Y009542D01*
X028657Y009480D01*
X028657Y009418D01*
X028595Y009356D01*
X028471Y009356D01*
X028410Y009418D01*
X028410Y009542D01*
X028533Y009665D01*
X028657Y009727D01*
X023100Y024379D02*
X023100Y024626D01*
X023039Y024748D02*
X023100Y024809D01*
X023100Y024933D01*
X023039Y024994D01*
X022977Y024994D01*
X022915Y024933D01*
X022915Y024809D01*
X022854Y024748D01*
X022792Y024748D01*
X022730Y024809D01*
X022730Y024933D01*
X022792Y024994D01*
X022730Y025116D02*
X022730Y025301D01*
X022792Y025363D01*
X023039Y025363D01*
X023100Y025301D01*
X023100Y025116D01*
X022730Y025116D01*
X022854Y025484D02*
X022730Y025608D01*
X023100Y025608D01*
X023100Y025731D02*
X023100Y025484D01*
X022730Y024626D02*
X022730Y024379D01*
X023100Y024379D01*
X022915Y024379D02*
X022915Y024503D01*
X039522Y038446D02*
X039584Y038384D01*
X039707Y038384D01*
X039769Y038446D01*
X039769Y038693D02*
X039707Y038754D01*
X039584Y038754D01*
X039522Y038693D01*
X039522Y038446D01*
X039890Y038754D02*
X040137Y038754D01*
X040259Y038754D02*
X040444Y038754D01*
X040506Y038693D01*
X040506Y038569D01*
X040444Y038507D01*
X040259Y038507D01*
X040259Y038384D02*
X040259Y038754D01*
X040014Y038754D02*
X040014Y038384D01*
X040382Y038507D02*
X040506Y038384D01*
X040627Y038384D02*
X040874Y038384D01*
X040995Y038384D02*
X041242Y038384D01*
X041119Y038384D02*
X041119Y038754D01*
X040995Y038631D01*
X040627Y038754D02*
X040627Y038384D01*
X043293Y037520D02*
X043478Y037335D01*
X043478Y037581D01*
X043663Y037520D02*
X043293Y037520D01*
X043355Y037213D02*
X043293Y037151D01*
X043293Y036966D01*
X043663Y036966D01*
X043663Y037151D01*
X043602Y037213D01*
X043355Y037213D01*
X047439Y042715D02*
X047439Y043085D01*
X047624Y043085D01*
X047686Y043023D01*
X047686Y042900D01*
X047624Y042838D01*
X047439Y042838D01*
X047807Y042776D02*
X047807Y043023D01*
X047869Y043085D01*
X047993Y043085D01*
X048054Y043023D01*
X048054Y042776D01*
X047993Y042715D01*
X047869Y042715D01*
X047807Y042776D01*
X048176Y043085D02*
X048423Y043085D01*
X048299Y043085D02*
X048299Y042715D01*
X048544Y042715D02*
X048791Y042715D01*
X048667Y042715D02*
X048667Y043085D01*
X048544Y042962D01*
X053541Y037239D02*
X053727Y037239D01*
X053788Y037177D01*
X053788Y037053D01*
X053727Y036992D01*
X053541Y036992D01*
X053541Y036868D02*
X053541Y037239D01*
X053665Y036992D02*
X053788Y036868D01*
X053910Y036930D02*
X053971Y036868D01*
X054095Y036868D01*
X054157Y036930D01*
X054157Y036992D01*
X054095Y037053D01*
X053971Y037053D01*
X053910Y037115D01*
X053910Y037177D01*
X053971Y037239D01*
X054095Y037239D01*
X054157Y037177D01*
X054278Y037239D02*
X054525Y037239D01*
X054402Y037239D02*
X054402Y036868D01*
X054646Y036930D02*
X054708Y036868D01*
X054832Y036868D01*
X054893Y036930D01*
X054893Y036992D01*
X054832Y037053D01*
X054770Y037053D01*
X054832Y037053D02*
X054893Y037115D01*
X054893Y037177D01*
X054832Y037239D01*
X054708Y037239D01*
X054646Y037177D01*
X052492Y035760D02*
X052430Y035821D01*
X052307Y035821D01*
X052245Y035760D01*
X052123Y035821D02*
X051877Y035821D01*
X052000Y035821D02*
X052000Y035451D01*
X052245Y035451D02*
X052492Y035698D01*
X052492Y035760D01*
X052492Y035451D02*
X052245Y035451D01*
X051755Y035513D02*
X051693Y035451D01*
X051570Y035451D01*
X051508Y035513D01*
X051387Y035451D02*
X051263Y035574D01*
X051325Y035574D02*
X051140Y035574D01*
X051140Y035451D02*
X051140Y035821D01*
X051325Y035821D01*
X051387Y035760D01*
X051387Y035636D01*
X051325Y035574D01*
X051508Y035698D02*
X051570Y035636D01*
X051693Y035636D01*
X051755Y035574D01*
X051755Y035513D01*
X051755Y035760D02*
X051693Y035821D01*
X051570Y035821D01*
X051508Y035760D01*
X051508Y035698D01*
X057619Y035607D02*
X057805Y035607D01*
X057866Y035669D01*
X057866Y035793D01*
X057805Y035854D01*
X057619Y035854D01*
X057619Y035484D01*
X057743Y035607D02*
X057866Y035484D01*
X057988Y035546D02*
X058049Y035484D01*
X058173Y035484D01*
X058235Y035546D01*
X058235Y035607D01*
X058173Y035669D01*
X058049Y035669D01*
X057988Y035731D01*
X057988Y035793D01*
X058049Y035854D01*
X058173Y035854D01*
X058235Y035793D01*
X058356Y035854D02*
X058603Y035854D01*
X058479Y035854D02*
X058479Y035484D01*
X058724Y035484D02*
X058971Y035484D01*
X058848Y035484D02*
X058848Y035854D01*
X058724Y035731D01*
X055762Y028201D02*
X055665Y028201D01*
X055617Y028152D01*
X055516Y028152D02*
X055468Y028201D01*
X055371Y028201D01*
X055322Y028152D01*
X055322Y027959D01*
X055371Y027910D01*
X055468Y027910D01*
X055516Y027959D01*
X055617Y027910D02*
X055811Y028104D01*
X055811Y028152D01*
X055762Y028201D01*
X055811Y027910D02*
X055617Y027910D01*
X055223Y027910D02*
X055126Y027910D01*
X055174Y027910D02*
X055174Y028201D01*
X055126Y028201D02*
X055223Y028201D01*
X062364Y018540D02*
X062734Y018540D01*
X062734Y018417D02*
X062734Y018664D01*
X062487Y018417D02*
X062364Y018540D01*
X047537Y018028D02*
X047223Y017715D01*
X047223Y017872D02*
X047537Y017872D01*
X047537Y017715D02*
X047223Y018028D01*
X047380Y018028D02*
X047380Y017715D01*
X034586Y041587D02*
X034272Y041901D01*
X034586Y041587D01*
X034429Y041587D02*
X034429Y041901D01*
X034429Y041587D01*
X034272Y041587D02*
X034586Y041901D01*
X034272Y041587D01*
X034272Y041744D02*
X034586Y041744D01*
X034272Y041744D01*
X052997Y055153D02*
X053310Y055467D01*
X052997Y055153D01*
X053310Y055467D01*
X053154Y055467D02*
X053154Y055153D01*
X053154Y055467D01*
X053154Y055153D01*
X053310Y055153D02*
X052997Y055467D01*
X053310Y055153D01*
X052997Y055467D01*
X052997Y055310D02*
X053310Y055310D01*
X052997Y055310D01*
X053310Y055310D01*
X054062Y055504D02*
X054159Y055504D01*
X054110Y055504D02*
X054110Y055794D01*
X054062Y055794D02*
X054159Y055794D01*
X054258Y055794D02*
X054452Y055504D01*
X054452Y055794D01*
X054553Y055794D02*
X054553Y055601D01*
X054650Y055504D01*
X054746Y055601D01*
X054746Y055794D01*
X054848Y055698D02*
X054944Y055794D01*
X054944Y055504D01*
X054848Y055504D02*
X055041Y055504D01*
X054258Y055504D02*
X054258Y055794D01*
D19*
X044747Y049782D02*
X043566Y049782D01*
X043566Y050176D01*
X038841Y050176D01*
X038841Y049782D01*
X037660Y049782D01*
X038251Y050176D02*
X044156Y050176D01*
X044156Y045649D01*
X038251Y045649D01*
X038251Y050176D01*
X038841Y049782D02*
X038841Y045845D01*
X037660Y045845D01*
X038841Y045845D02*
X038841Y042302D01*
X043566Y042302D01*
X043566Y045845D01*
X044747Y045845D01*
X043566Y045845D02*
X043566Y049782D01*
X044747Y049783D02*
X044834Y049781D01*
X044921Y049775D01*
X045008Y049766D01*
X045094Y049752D01*
X045179Y049735D01*
X045264Y049714D01*
X045347Y049689D01*
X045430Y049661D01*
X045511Y049629D01*
X045590Y049593D01*
X045668Y049554D01*
X045744Y049512D01*
X045818Y049466D01*
X045890Y049417D01*
X045960Y049365D01*
X046027Y049310D01*
X046092Y049252D01*
X046155Y049191D01*
X046214Y049127D01*
X046271Y049061D01*
X046324Y048992D01*
X046375Y048921D01*
X046422Y048848D01*
X046467Y048773D01*
X046507Y048696D01*
X046545Y048618D01*
X046578Y048537D01*
X046609Y048456D01*
X046635Y048373D01*
X046658Y048288D01*
X046677Y048203D01*
X046692Y048118D01*
X046704Y048031D01*
X046712Y047945D01*
X046716Y047858D01*
X046716Y047770D01*
X046712Y047683D01*
X046704Y047597D01*
X046692Y047510D01*
X046677Y047425D01*
X046658Y047340D01*
X046635Y047255D01*
X046609Y047172D01*
X046578Y047091D01*
X046545Y047010D01*
X046507Y046932D01*
X046467Y046855D01*
X046422Y046780D01*
X046375Y046707D01*
X046324Y046636D01*
X046271Y046567D01*
X046214Y046501D01*
X046155Y046437D01*
X046092Y046376D01*
X046027Y046318D01*
X045960Y046263D01*
X045890Y046211D01*
X045818Y046162D01*
X045744Y046116D01*
X045668Y046074D01*
X045590Y046035D01*
X045511Y045999D01*
X045430Y045967D01*
X045347Y045939D01*
X045264Y045914D01*
X045179Y045893D01*
X045094Y045876D01*
X045008Y045862D01*
X044921Y045853D01*
X044834Y045847D01*
X044747Y045845D01*
X037660Y045845D02*
X037573Y045847D01*
X037486Y045853D01*
X037399Y045862D01*
X037313Y045876D01*
X037228Y045893D01*
X037143Y045914D01*
X037060Y045939D01*
X036977Y045967D01*
X036896Y045999D01*
X036817Y046035D01*
X036739Y046074D01*
X036663Y046116D01*
X036589Y046162D01*
X036517Y046211D01*
X036447Y046263D01*
X036380Y046318D01*
X036315Y046376D01*
X036252Y046437D01*
X036193Y046501D01*
X036136Y046567D01*
X036083Y046636D01*
X036032Y046707D01*
X035985Y046780D01*
X035940Y046855D01*
X035900Y046932D01*
X035862Y047010D01*
X035829Y047091D01*
X035798Y047172D01*
X035772Y047255D01*
X035749Y047340D01*
X035730Y047425D01*
X035715Y047510D01*
X035703Y047597D01*
X035695Y047683D01*
X035691Y047770D01*
X035691Y047858D01*
X035695Y047945D01*
X035703Y048031D01*
X035715Y048118D01*
X035730Y048203D01*
X035749Y048288D01*
X035772Y048373D01*
X035798Y048456D01*
X035829Y048537D01*
X035862Y048618D01*
X035900Y048696D01*
X035940Y048773D01*
X035985Y048848D01*
X036032Y048921D01*
X036083Y048992D01*
X036136Y049061D01*
X036193Y049127D01*
X036252Y049191D01*
X036315Y049252D01*
X036380Y049310D01*
X036447Y049365D01*
X036517Y049417D01*
X036589Y049466D01*
X036663Y049512D01*
X036739Y049554D01*
X036817Y049593D01*
X036896Y049629D01*
X036977Y049661D01*
X037060Y049689D01*
X037143Y049714D01*
X037228Y049735D01*
X037313Y049752D01*
X037399Y049766D01*
X037486Y049775D01*
X037573Y049781D01*
X037660Y049783D01*
X038841Y018688D02*
X038841Y015145D01*
X037660Y015145D01*
X038251Y015341D02*
X044156Y015341D01*
X044156Y010814D01*
X038251Y010814D01*
X038251Y015341D01*
X038841Y015145D02*
X038841Y011208D01*
X037660Y011208D01*
X038841Y011208D02*
X038841Y010814D01*
X043566Y010814D01*
X043566Y011208D01*
X044747Y011208D01*
X043566Y011208D02*
X043566Y015145D01*
X044747Y015145D01*
X043566Y015145D02*
X043566Y018688D01*
X038841Y018688D01*
X037660Y015145D02*
X037573Y015143D01*
X037486Y015137D01*
X037399Y015128D01*
X037313Y015114D01*
X037228Y015097D01*
X037143Y015076D01*
X037060Y015051D01*
X036977Y015023D01*
X036896Y014991D01*
X036817Y014955D01*
X036739Y014916D01*
X036663Y014874D01*
X036589Y014828D01*
X036517Y014779D01*
X036447Y014727D01*
X036380Y014672D01*
X036315Y014614D01*
X036252Y014553D01*
X036193Y014489D01*
X036136Y014423D01*
X036083Y014354D01*
X036032Y014283D01*
X035985Y014210D01*
X035940Y014135D01*
X035900Y014058D01*
X035862Y013980D01*
X035829Y013899D01*
X035798Y013818D01*
X035772Y013735D01*
X035749Y013650D01*
X035730Y013565D01*
X035715Y013480D01*
X035703Y013393D01*
X035695Y013307D01*
X035691Y013220D01*
X035691Y013132D01*
X035695Y013045D01*
X035703Y012959D01*
X035715Y012872D01*
X035730Y012787D01*
X035749Y012702D01*
X035772Y012617D01*
X035798Y012534D01*
X035829Y012453D01*
X035862Y012372D01*
X035900Y012294D01*
X035940Y012217D01*
X035985Y012142D01*
X036032Y012069D01*
X036083Y011998D01*
X036136Y011929D01*
X036193Y011863D01*
X036252Y011799D01*
X036315Y011738D01*
X036380Y011680D01*
X036447Y011625D01*
X036517Y011573D01*
X036589Y011524D01*
X036663Y011478D01*
X036739Y011436D01*
X036817Y011397D01*
X036896Y011361D01*
X036977Y011329D01*
X037060Y011301D01*
X037143Y011276D01*
X037228Y011255D01*
X037313Y011238D01*
X037399Y011224D01*
X037486Y011215D01*
X037573Y011209D01*
X037660Y011207D01*
X044747Y011207D02*
X044834Y011209D01*
X044921Y011215D01*
X045008Y011224D01*
X045094Y011238D01*
X045179Y011255D01*
X045264Y011276D01*
X045347Y011301D01*
X045430Y011329D01*
X045511Y011361D01*
X045590Y011397D01*
X045668Y011436D01*
X045744Y011478D01*
X045818Y011524D01*
X045890Y011573D01*
X045960Y011625D01*
X046027Y011680D01*
X046092Y011738D01*
X046155Y011799D01*
X046214Y011863D01*
X046271Y011929D01*
X046324Y011998D01*
X046375Y012069D01*
X046422Y012142D01*
X046467Y012217D01*
X046507Y012294D01*
X046545Y012372D01*
X046578Y012453D01*
X046609Y012534D01*
X046635Y012617D01*
X046658Y012702D01*
X046677Y012787D01*
X046692Y012872D01*
X046704Y012959D01*
X046712Y013045D01*
X046716Y013132D01*
X046716Y013220D01*
X046712Y013307D01*
X046704Y013393D01*
X046692Y013480D01*
X046677Y013565D01*
X046658Y013650D01*
X046635Y013735D01*
X046609Y013818D01*
X046578Y013899D01*
X046545Y013980D01*
X046507Y014058D01*
X046467Y014135D01*
X046422Y014210D01*
X046375Y014283D01*
X046324Y014354D01*
X046271Y014423D01*
X046214Y014489D01*
X046155Y014553D01*
X046092Y014614D01*
X046027Y014672D01*
X045960Y014727D01*
X045890Y014779D01*
X045818Y014828D01*
X045744Y014874D01*
X045668Y014916D01*
X045590Y014955D01*
X045511Y014991D01*
X045430Y015023D01*
X045347Y015051D01*
X045264Y015076D01*
X045179Y015097D01*
X045094Y015114D01*
X045008Y015128D01*
X044921Y015137D01*
X044834Y015143D01*
X044747Y015145D01*
D20*
X027620Y025771D02*
X027622Y025819D01*
X027628Y025867D01*
X027638Y025914D01*
X027651Y025960D01*
X027669Y026005D01*
X027689Y026049D01*
X027714Y026091D01*
X027742Y026130D01*
X027772Y026167D01*
X027806Y026201D01*
X027843Y026233D01*
X027881Y026262D01*
X027922Y026287D01*
X027965Y026309D01*
X028010Y026327D01*
X028056Y026341D01*
X028103Y026352D01*
X028151Y026359D01*
X028199Y026362D01*
X028247Y026361D01*
X028295Y026356D01*
X028343Y026347D01*
X028389Y026335D01*
X028434Y026318D01*
X028478Y026298D01*
X028520Y026275D01*
X028560Y026248D01*
X028598Y026218D01*
X028633Y026185D01*
X028665Y026149D01*
X028695Y026111D01*
X028721Y026070D01*
X028743Y026027D01*
X028763Y025983D01*
X028778Y025938D01*
X028790Y025891D01*
X028798Y025843D01*
X028802Y025795D01*
X028802Y025747D01*
X028798Y025699D01*
X028790Y025651D01*
X028778Y025604D01*
X028763Y025559D01*
X028743Y025515D01*
X028721Y025472D01*
X028695Y025431D01*
X028665Y025393D01*
X028633Y025357D01*
X028598Y025324D01*
X028560Y025294D01*
X028520Y025267D01*
X028478Y025244D01*
X028434Y025224D01*
X028389Y025207D01*
X028343Y025195D01*
X028295Y025186D01*
X028247Y025181D01*
X028199Y025180D01*
X028151Y025183D01*
X028103Y025190D01*
X028056Y025201D01*
X028010Y025215D01*
X027965Y025233D01*
X027922Y025255D01*
X027881Y025280D01*
X027843Y025309D01*
X027806Y025341D01*
X027772Y025375D01*
X027742Y025412D01*
X027714Y025451D01*
X027689Y025493D01*
X027669Y025537D01*
X027651Y025582D01*
X027638Y025628D01*
X027628Y025675D01*
X027622Y025723D01*
X027620Y025771D01*
X027620Y030495D02*
X027622Y030543D01*
X027628Y030591D01*
X027638Y030638D01*
X027651Y030684D01*
X027669Y030729D01*
X027689Y030773D01*
X027714Y030815D01*
X027742Y030854D01*
X027772Y030891D01*
X027806Y030925D01*
X027843Y030957D01*
X027881Y030986D01*
X027922Y031011D01*
X027965Y031033D01*
X028010Y031051D01*
X028056Y031065D01*
X028103Y031076D01*
X028151Y031083D01*
X028199Y031086D01*
X028247Y031085D01*
X028295Y031080D01*
X028343Y031071D01*
X028389Y031059D01*
X028434Y031042D01*
X028478Y031022D01*
X028520Y030999D01*
X028560Y030972D01*
X028598Y030942D01*
X028633Y030909D01*
X028665Y030873D01*
X028695Y030835D01*
X028721Y030794D01*
X028743Y030751D01*
X028763Y030707D01*
X028778Y030662D01*
X028790Y030615D01*
X028798Y030567D01*
X028802Y030519D01*
X028802Y030471D01*
X028798Y030423D01*
X028790Y030375D01*
X028778Y030328D01*
X028763Y030283D01*
X028743Y030239D01*
X028721Y030196D01*
X028695Y030155D01*
X028665Y030117D01*
X028633Y030081D01*
X028598Y030048D01*
X028560Y030018D01*
X028520Y029991D01*
X028478Y029968D01*
X028434Y029948D01*
X028389Y029931D01*
X028343Y029919D01*
X028295Y029910D01*
X028247Y029905D01*
X028199Y029904D01*
X028151Y029907D01*
X028103Y029914D01*
X028056Y029925D01*
X028010Y029939D01*
X027965Y029957D01*
X027922Y029979D01*
X027881Y030004D01*
X027843Y030033D01*
X027806Y030065D01*
X027772Y030099D01*
X027742Y030136D01*
X027714Y030175D01*
X027689Y030217D01*
X027669Y030261D01*
X027651Y030306D01*
X027638Y030352D01*
X027628Y030399D01*
X027622Y030447D01*
X027620Y030495D01*
X027620Y035219D02*
X027622Y035267D01*
X027628Y035315D01*
X027638Y035362D01*
X027651Y035408D01*
X027669Y035453D01*
X027689Y035497D01*
X027714Y035539D01*
X027742Y035578D01*
X027772Y035615D01*
X027806Y035649D01*
X027843Y035681D01*
X027881Y035710D01*
X027922Y035735D01*
X027965Y035757D01*
X028010Y035775D01*
X028056Y035789D01*
X028103Y035800D01*
X028151Y035807D01*
X028199Y035810D01*
X028247Y035809D01*
X028295Y035804D01*
X028343Y035795D01*
X028389Y035783D01*
X028434Y035766D01*
X028478Y035746D01*
X028520Y035723D01*
X028560Y035696D01*
X028598Y035666D01*
X028633Y035633D01*
X028665Y035597D01*
X028695Y035559D01*
X028721Y035518D01*
X028743Y035475D01*
X028763Y035431D01*
X028778Y035386D01*
X028790Y035339D01*
X028798Y035291D01*
X028802Y035243D01*
X028802Y035195D01*
X028798Y035147D01*
X028790Y035099D01*
X028778Y035052D01*
X028763Y035007D01*
X028743Y034963D01*
X028721Y034920D01*
X028695Y034879D01*
X028665Y034841D01*
X028633Y034805D01*
X028598Y034772D01*
X028560Y034742D01*
X028520Y034715D01*
X028478Y034692D01*
X028434Y034672D01*
X028389Y034655D01*
X028343Y034643D01*
X028295Y034634D01*
X028247Y034629D01*
X028199Y034628D01*
X028151Y034631D01*
X028103Y034638D01*
X028056Y034649D01*
X028010Y034663D01*
X027965Y034681D01*
X027922Y034703D01*
X027881Y034728D01*
X027843Y034757D01*
X027806Y034789D01*
X027772Y034823D01*
X027742Y034860D01*
X027714Y034899D01*
X027689Y034941D01*
X027669Y034985D01*
X027651Y035030D01*
X027638Y035076D01*
X027628Y035123D01*
X027622Y035171D01*
X027620Y035219D01*
D21*
X063349Y018720D03*
X063349Y017720D03*
X063349Y016720D03*
X063349Y015720D03*
X063349Y014720D03*
X063349Y013720D03*
D22*
X046492Y018072D02*
X046490Y018093D01*
X046485Y018113D01*
X046476Y018132D01*
X046464Y018149D01*
X046449Y018164D01*
X046432Y018176D01*
X046413Y018185D01*
X046393Y018190D01*
X046372Y018192D01*
X046351Y018190D01*
X046331Y018185D01*
X046312Y018176D01*
X046295Y018164D01*
X046280Y018149D01*
X046268Y018132D01*
X046259Y018113D01*
X046254Y018093D01*
X046252Y018072D01*
D23*
X053979Y035928D03*
X051617Y036558D03*
X058310Y036715D03*
M02*
