G75*
%MOIN*%
%OFA0B0*%
%FSLAX24Y24*%
%IPPOS*%
%LPD*%
%AMOC8*
5,1,8,0,0,1.08239X$1,22.5*
%
%ADD10C,0.2756*%
%ADD11C,0.0100*%
%ADD12C,0.2362*%
%ADD13C,0.0400*%
D10*
X004874Y003300D03*
X004874Y007237D03*
X008811Y007237D03*
X008811Y003300D03*
D11*
X001904Y004275D02*
X001661Y004415D01*
X001463Y004614D01*
X001322Y004857D01*
X001250Y005128D01*
X001250Y005408D01*
X001322Y005679D01*
X001463Y005922D01*
X001661Y006121D01*
X001904Y006261D01*
X002175Y006334D01*
X002315Y006343D01*
X002612Y006343D01*
X002795Y006419D01*
X002936Y006560D01*
X003012Y006743D01*
X003012Y009599D01*
X005332Y009599D01*
X005332Y008675D01*
X005073Y008745D01*
X004676Y008745D01*
X004292Y008642D01*
X003949Y008443D01*
X003668Y008163D01*
X003469Y007819D01*
X003366Y007435D01*
X003366Y007038D01*
X003469Y006655D01*
X003668Y006311D01*
X003949Y006030D01*
X004292Y005831D01*
X004676Y005729D01*
X005073Y005729D01*
X005456Y005831D01*
X005800Y006030D01*
X006081Y006311D01*
X006280Y006655D01*
X006382Y007038D01*
X006382Y007435D01*
X006280Y007819D01*
X006081Y008163D01*
X005800Y008443D01*
X005692Y008506D01*
X005692Y009599D01*
X010674Y009599D01*
X010674Y006743D01*
X010750Y006560D01*
X010890Y006419D01*
X011074Y006343D01*
X011370Y006343D01*
X011511Y006334D01*
X011782Y006261D01*
X012025Y006121D01*
X012223Y005922D01*
X012363Y005679D01*
X012436Y005408D01*
X012436Y005128D01*
X012363Y004857D01*
X012223Y004614D01*
X012025Y004415D01*
X011782Y004275D01*
X011511Y004203D01*
X011370Y004193D01*
X011074Y004193D01*
X010890Y004117D01*
X010750Y003977D01*
X010674Y003793D01*
X010674Y001437D01*
X003012Y001437D01*
X003012Y003793D01*
X002936Y003977D01*
X002795Y004117D01*
X002612Y004193D01*
X002315Y004193D01*
X002175Y004203D01*
X001904Y004275D01*
X001884Y004286D02*
X003729Y004286D01*
X003668Y004226D02*
X003469Y003882D01*
X003366Y003498D01*
X003366Y003101D01*
X003469Y002718D01*
X003668Y002374D01*
X003949Y002093D01*
X004292Y001894D01*
X004676Y001792D01*
X005073Y001792D01*
X005456Y001894D01*
X005800Y002093D01*
X006081Y002374D01*
X006280Y002718D01*
X006382Y003101D01*
X006382Y003498D01*
X006280Y003882D01*
X006081Y004226D01*
X005800Y004506D01*
X005456Y004705D01*
X005073Y004808D01*
X004676Y004808D01*
X004292Y004705D01*
X003949Y004506D01*
X003668Y004226D01*
X003646Y004188D02*
X002625Y004188D01*
X002823Y004089D02*
X003589Y004089D01*
X003532Y003991D02*
X002922Y003991D01*
X002971Y003892D02*
X003475Y003892D01*
X003446Y003794D02*
X003012Y003794D01*
X003012Y003695D02*
X003419Y003695D01*
X003393Y003597D02*
X003012Y003597D01*
X003012Y003498D02*
X003367Y003498D01*
X003366Y003400D02*
X003012Y003400D01*
X003012Y003301D02*
X003366Y003301D01*
X003366Y003203D02*
X003012Y003203D01*
X003012Y003104D02*
X003366Y003104D01*
X003392Y003006D02*
X003012Y003006D01*
X003012Y002907D02*
X003418Y002907D01*
X003445Y002809D02*
X003012Y002809D01*
X003012Y002710D02*
X003473Y002710D01*
X003530Y002612D02*
X003012Y002612D01*
X003012Y002513D02*
X003587Y002513D01*
X003644Y002415D02*
X003012Y002415D01*
X003012Y002316D02*
X003725Y002316D01*
X003824Y002218D02*
X003012Y002218D01*
X003012Y002119D02*
X003922Y002119D01*
X004073Y002021D02*
X003012Y002021D01*
X003012Y001922D02*
X004244Y001922D01*
X004556Y001824D02*
X003012Y001824D01*
X003012Y001725D02*
X010674Y001725D01*
X010674Y001627D02*
X003012Y001627D01*
X003012Y001528D02*
X010674Y001528D01*
X010674Y001824D02*
X009130Y001824D01*
X009010Y001792D02*
X009393Y001894D01*
X009737Y002093D01*
X010018Y002374D01*
X010217Y002718D01*
X010319Y003101D01*
X010319Y003498D01*
X010217Y003882D01*
X010018Y004226D01*
X009737Y004506D01*
X009393Y004705D01*
X009010Y004808D01*
X008613Y004808D01*
X008229Y004705D01*
X007886Y004506D01*
X007830Y004451D01*
X007165Y005179D01*
X007173Y005199D01*
X007173Y005330D01*
X007123Y005451D01*
X007030Y005544D01*
X006909Y005594D01*
X006777Y005594D01*
X006656Y005544D01*
X006563Y005451D01*
X006513Y005330D01*
X006513Y005199D01*
X006563Y005077D01*
X006656Y004984D01*
X006777Y004934D01*
X006901Y004934D01*
X007583Y004188D01*
X007406Y003882D01*
X007303Y003498D01*
X007303Y003101D01*
X007406Y002718D01*
X007605Y002374D01*
X007886Y002093D01*
X008229Y001894D01*
X008613Y001792D01*
X009010Y001792D01*
X008493Y001824D02*
X005193Y001824D01*
X005505Y001922D02*
X008181Y001922D01*
X008010Y002021D02*
X005676Y002021D01*
X005827Y002119D02*
X007859Y002119D01*
X007761Y002218D02*
X005925Y002218D01*
X006024Y002316D02*
X007662Y002316D01*
X007581Y002415D02*
X006105Y002415D01*
X006162Y002513D02*
X007524Y002513D01*
X007467Y002612D02*
X006219Y002612D01*
X006275Y002710D02*
X007410Y002710D01*
X007382Y002809D02*
X006304Y002809D01*
X006330Y002907D02*
X007355Y002907D01*
X007329Y003006D02*
X006357Y003006D01*
X006382Y003104D02*
X007303Y003104D01*
X007303Y003203D02*
X006382Y003203D01*
X006382Y003301D02*
X007303Y003301D01*
X007303Y003400D02*
X006382Y003400D01*
X006382Y003498D02*
X007304Y003498D01*
X007330Y003597D02*
X006356Y003597D01*
X006330Y003695D02*
X007356Y003695D01*
X007383Y003794D02*
X006303Y003794D01*
X006273Y003892D02*
X007412Y003892D01*
X007469Y003991D02*
X006217Y003991D01*
X006160Y004089D02*
X007526Y004089D01*
X007583Y004188D02*
X006103Y004188D01*
X006020Y004286D02*
X007493Y004286D01*
X007403Y004385D02*
X005922Y004385D01*
X005823Y004483D02*
X007313Y004483D01*
X007223Y004582D02*
X005669Y004582D01*
X005499Y004680D02*
X007133Y004680D01*
X007043Y004779D02*
X005180Y004779D01*
X005204Y005764D02*
X008403Y005764D01*
X008440Y005753D02*
X008587Y005723D01*
X008736Y005709D01*
X008761Y005709D01*
X008761Y007187D01*
X007283Y007187D01*
X007283Y007162D01*
X007298Y007012D01*
X007327Y006865D01*
X007371Y006721D01*
X007428Y006583D01*
X007499Y006450D01*
X007583Y006325D01*
X007678Y006209D01*
X007784Y006103D01*
X007900Y006008D01*
X008025Y005924D01*
X008157Y005854D01*
X008296Y005796D01*
X008440Y005753D01*
X008141Y005862D02*
X005510Y005862D01*
X005681Y005961D02*
X007970Y005961D01*
X007837Y006059D02*
X005830Y006059D01*
X005928Y006158D02*
X007729Y006158D01*
X007639Y006256D02*
X006027Y006256D01*
X006107Y006355D02*
X007563Y006355D01*
X007498Y006453D02*
X006163Y006453D01*
X006220Y006552D02*
X007445Y006552D01*
X007400Y006650D02*
X006277Y006650D01*
X006305Y006749D02*
X007363Y006749D01*
X007333Y006847D02*
X006331Y006847D01*
X006358Y006946D02*
X007311Y006946D01*
X007295Y007044D02*
X006382Y007044D01*
X006382Y007143D02*
X007285Y007143D01*
X007283Y007287D02*
X008761Y007287D01*
X008761Y008765D01*
X008736Y008765D01*
X008587Y008750D01*
X008440Y008721D01*
X008296Y008677D01*
X008157Y008620D01*
X008025Y008549D01*
X007900Y008465D01*
X007784Y008370D01*
X007678Y008264D01*
X007583Y008148D01*
X007499Y008023D01*
X007428Y007891D01*
X007371Y007752D01*
X007327Y007608D01*
X007298Y007461D01*
X007283Y007312D01*
X007283Y007287D01*
X007286Y007340D02*
X006382Y007340D01*
X006381Y007438D02*
X007296Y007438D01*
X007313Y007537D02*
X006355Y007537D01*
X006329Y007635D02*
X007336Y007635D01*
X007366Y007734D02*
X006302Y007734D01*
X006272Y007832D02*
X007404Y007832D01*
X007450Y007931D02*
X006215Y007931D01*
X006158Y008029D02*
X007504Y008029D01*
X007569Y008128D02*
X006101Y008128D01*
X006017Y008226D02*
X007647Y008226D01*
X007739Y008325D02*
X005919Y008325D01*
X005820Y008423D02*
X007849Y008423D01*
X007985Y008522D02*
X005692Y008522D01*
X005692Y008620D02*
X008159Y008620D01*
X008434Y008719D02*
X005692Y008719D01*
X005692Y008817D02*
X010674Y008817D01*
X010674Y008719D02*
X009189Y008719D01*
X009183Y008721D02*
X009036Y008750D01*
X008886Y008765D01*
X008861Y008765D01*
X008861Y007287D01*
X008761Y007287D01*
X008761Y007187D01*
X008861Y007187D01*
X008861Y005709D01*
X008886Y005709D01*
X009036Y005723D01*
X009183Y005753D01*
X009327Y005796D01*
X009465Y005854D01*
X009598Y005924D01*
X009723Y006008D01*
X009839Y006103D01*
X009945Y006209D01*
X010040Y006325D01*
X010124Y006450D01*
X010194Y006583D01*
X010252Y006721D01*
X010295Y006865D01*
X010325Y007012D01*
X010339Y007162D01*
X010339Y007187D01*
X008861Y007187D01*
X008861Y007287D01*
X010339Y007287D01*
X010339Y007312D01*
X010325Y007461D01*
X010295Y007608D01*
X010252Y007752D01*
X010194Y007891D01*
X010124Y008023D01*
X010040Y008148D01*
X009945Y008264D01*
X009839Y008370D01*
X009723Y008465D01*
X009598Y008549D01*
X009465Y008620D01*
X009327Y008677D01*
X009183Y008721D01*
X009463Y008620D02*
X010674Y008620D01*
X010674Y008522D02*
X009638Y008522D01*
X009774Y008423D02*
X010674Y008423D01*
X010674Y008325D02*
X009884Y008325D01*
X009976Y008226D02*
X010674Y008226D01*
X010674Y008128D02*
X010054Y008128D01*
X010119Y008029D02*
X010674Y008029D01*
X010674Y007931D02*
X010173Y007931D01*
X010218Y007832D02*
X010674Y007832D01*
X010674Y007734D02*
X010257Y007734D01*
X010287Y007635D02*
X010674Y007635D01*
X010674Y007537D02*
X010310Y007537D01*
X010327Y007438D02*
X010674Y007438D01*
X010674Y007340D02*
X010337Y007340D01*
X010338Y007143D02*
X010674Y007143D01*
X010674Y007241D02*
X008861Y007241D01*
X008861Y007143D02*
X008761Y007143D01*
X008761Y007241D02*
X006382Y007241D01*
X006711Y005567D02*
X001292Y005567D01*
X001319Y005665D02*
X012367Y005665D01*
X012394Y005567D02*
X006974Y005567D01*
X007105Y005468D02*
X012420Y005468D01*
X012436Y005370D02*
X007156Y005370D01*
X007173Y005271D02*
X012436Y005271D01*
X012436Y005173D02*
X007170Y005173D01*
X007260Y005074D02*
X012422Y005074D01*
X012395Y004976D02*
X007350Y004976D01*
X007440Y004877D02*
X012369Y004877D01*
X012318Y004779D02*
X009117Y004779D01*
X009436Y004680D02*
X012262Y004680D01*
X012191Y004582D02*
X009606Y004582D01*
X009760Y004483D02*
X012093Y004483D01*
X011972Y004385D02*
X009859Y004385D01*
X009957Y004286D02*
X011801Y004286D01*
X012315Y005764D02*
X009220Y005764D01*
X009482Y005862D02*
X012258Y005862D01*
X012185Y005961D02*
X009652Y005961D01*
X009786Y006059D02*
X012086Y006059D01*
X011961Y006158D02*
X009894Y006158D01*
X009984Y006256D02*
X011790Y006256D01*
X011045Y006355D02*
X010060Y006355D01*
X010125Y006453D02*
X010856Y006453D01*
X010758Y006552D02*
X010178Y006552D01*
X010222Y006650D02*
X010712Y006650D01*
X010674Y006749D02*
X010260Y006749D01*
X010290Y006847D02*
X010674Y006847D01*
X010674Y006946D02*
X010311Y006946D01*
X010328Y007044D02*
X010674Y007044D01*
X010674Y008916D02*
X005692Y008916D01*
X005692Y009014D02*
X010674Y009014D01*
X010674Y009113D02*
X005692Y009113D01*
X005692Y009211D02*
X010674Y009211D01*
X010674Y009310D02*
X005692Y009310D01*
X005692Y009408D02*
X010674Y009408D01*
X010674Y009507D02*
X005692Y009507D01*
X005512Y010056D02*
X005512Y007237D01*
X004874Y007237D01*
X004239Y005862D02*
X001428Y005862D01*
X001371Y005764D02*
X004544Y005764D01*
X004569Y004779D02*
X001367Y004779D01*
X001317Y004877D02*
X006952Y004877D01*
X006843Y005264D02*
X008512Y003437D01*
X008811Y003300D01*
X008506Y004779D02*
X007530Y004779D01*
X007620Y004680D02*
X008187Y004680D01*
X008017Y004582D02*
X007710Y004582D01*
X007800Y004483D02*
X007863Y004483D01*
X008761Y005764D02*
X008861Y005764D01*
X008861Y005862D02*
X008761Y005862D01*
X008761Y005961D02*
X008861Y005961D01*
X008861Y006059D02*
X008761Y006059D01*
X008761Y006158D02*
X008861Y006158D01*
X008861Y006256D02*
X008761Y006256D01*
X008761Y006355D02*
X008861Y006355D01*
X008861Y006453D02*
X008761Y006453D01*
X008761Y006552D02*
X008861Y006552D01*
X008861Y006650D02*
X008761Y006650D01*
X008761Y006749D02*
X008861Y006749D01*
X008861Y006847D02*
X008761Y006847D01*
X008761Y006946D02*
X008861Y006946D01*
X008861Y007044D02*
X008761Y007044D01*
X008761Y007340D02*
X008861Y007340D01*
X008861Y007438D02*
X008761Y007438D01*
X008761Y007537D02*
X008861Y007537D01*
X008861Y007635D02*
X008761Y007635D01*
X008761Y007734D02*
X008861Y007734D01*
X008861Y007832D02*
X008761Y007832D01*
X008761Y007931D02*
X008861Y007931D01*
X008861Y008029D02*
X008761Y008029D01*
X008761Y008128D02*
X008861Y008128D01*
X008861Y008226D02*
X008761Y008226D01*
X008761Y008325D02*
X008861Y008325D01*
X008861Y008423D02*
X008761Y008423D01*
X008761Y008522D02*
X008861Y008522D01*
X008861Y008620D02*
X008761Y008620D01*
X008761Y008719D02*
X008861Y008719D01*
X007012Y012437D02*
X003012Y016437D01*
X003012Y023437D01*
X002315Y023772D01*
X002512Y023437D01*
X003012Y023437D01*
X011012Y023437D01*
X011370Y023772D01*
X005332Y009507D02*
X003012Y009507D01*
X003012Y009408D02*
X005332Y009408D01*
X005332Y009310D02*
X003012Y009310D01*
X003012Y009211D02*
X005332Y009211D01*
X005332Y009113D02*
X003012Y009113D01*
X003012Y009014D02*
X005332Y009014D01*
X005332Y008916D02*
X003012Y008916D01*
X003012Y008817D02*
X005332Y008817D01*
X005332Y008719D02*
X005169Y008719D01*
X004580Y008719D02*
X003012Y008719D01*
X003012Y008620D02*
X004255Y008620D01*
X004085Y008522D02*
X003012Y008522D01*
X003012Y008423D02*
X003929Y008423D01*
X003830Y008325D02*
X003012Y008325D01*
X003012Y008226D02*
X003732Y008226D01*
X003648Y008128D02*
X003012Y008128D01*
X003012Y008029D02*
X003591Y008029D01*
X003534Y007931D02*
X003012Y007931D01*
X003012Y007832D02*
X003477Y007832D01*
X003447Y007734D02*
X003012Y007734D01*
X003012Y007635D02*
X003420Y007635D01*
X003394Y007537D02*
X003012Y007537D01*
X003012Y007438D02*
X003367Y007438D01*
X003366Y007340D02*
X003012Y007340D01*
X003012Y007241D02*
X003366Y007241D01*
X003366Y007143D02*
X003012Y007143D01*
X003012Y007044D02*
X003366Y007044D01*
X003391Y006946D02*
X003012Y006946D01*
X003012Y006847D02*
X003418Y006847D01*
X003444Y006749D02*
X003012Y006749D01*
X002974Y006650D02*
X003472Y006650D01*
X003528Y006552D02*
X002928Y006552D01*
X002830Y006453D02*
X003585Y006453D01*
X003642Y006355D02*
X002641Y006355D01*
X001896Y006256D02*
X003722Y006256D01*
X003821Y006158D02*
X001725Y006158D01*
X001600Y006059D02*
X003919Y006059D01*
X004068Y005961D02*
X001501Y005961D01*
X001266Y005468D02*
X006580Y005468D01*
X006530Y005370D02*
X001250Y005370D01*
X001250Y005271D02*
X006513Y005271D01*
X006524Y005173D02*
X001250Y005173D01*
X001264Y005074D02*
X006566Y005074D01*
X006677Y004976D02*
X001290Y004976D01*
X001424Y004680D02*
X004250Y004680D01*
X004080Y004582D02*
X001495Y004582D01*
X001593Y004483D02*
X003926Y004483D01*
X003827Y004385D02*
X001714Y004385D01*
X009442Y001922D02*
X010674Y001922D01*
X010674Y002021D02*
X009613Y002021D01*
X009764Y002119D02*
X010674Y002119D01*
X010674Y002218D02*
X009862Y002218D01*
X009961Y002316D02*
X010674Y002316D01*
X010674Y002415D02*
X010042Y002415D01*
X010099Y002513D02*
X010674Y002513D01*
X010674Y002612D02*
X010156Y002612D01*
X010212Y002710D02*
X010674Y002710D01*
X010674Y002809D02*
X010241Y002809D01*
X010267Y002907D02*
X010674Y002907D01*
X010674Y003006D02*
X010294Y003006D01*
X010319Y003104D02*
X010674Y003104D01*
X010674Y003203D02*
X010319Y003203D01*
X010319Y003301D02*
X010674Y003301D01*
X010674Y003400D02*
X010319Y003400D01*
X010319Y003498D02*
X010674Y003498D01*
X010674Y003597D02*
X010293Y003597D01*
X010267Y003695D02*
X010674Y003695D01*
X010674Y003794D02*
X010240Y003794D01*
X010210Y003892D02*
X010715Y003892D01*
X010764Y003991D02*
X010154Y003991D01*
X010097Y004089D02*
X010863Y004089D01*
X011061Y004188D02*
X010040Y004188D01*
D12*
X011370Y005268D03*
X011370Y023772D03*
X002315Y023772D03*
X002315Y005268D03*
D13*
X005512Y010056D03*
X007012Y012437D03*
X009012Y008937D03*
X006843Y005264D03*
M02*
