G75*
%MOIN*%
%OFA0B0*%
%FSLAX24Y24*%
%IPPOS*%
%LPD*%
%AMOC8*
5,1,8,0,0,1.08239X$1,22.5*
%
%ADD10C,0.2756*%
%ADD11C,0.0740*%
%ADD12C,0.0160*%
%ADD13R,0.0394X0.0787*%
%ADD14R,0.0630X0.0460*%
%ADD15OC8,0.0660*%
%ADD16C,0.0100*%
%ADD17C,0.2362*%
%ADD18C,0.0357*%
D10*
X004874Y003300D03*
X004874Y007237D03*
X008811Y007237D03*
X008811Y003300D03*
D11*
X008441Y023181D03*
X007441Y023181D03*
X006441Y023181D03*
X005441Y023181D03*
X004441Y023181D03*
X009441Y023181D03*
D12*
X009441Y024532D02*
X009441Y025532D01*
X008441Y025532D02*
X008441Y024532D01*
X007441Y024532D02*
X007441Y025532D01*
X006441Y025532D02*
X006441Y024532D01*
X005441Y024532D02*
X005441Y025532D01*
X004441Y025532D02*
X004441Y024532D01*
D13*
X004441Y024382D03*
X004441Y025681D03*
X005441Y025681D03*
X005441Y024382D03*
X006441Y024382D03*
X006441Y025681D03*
X007441Y025681D03*
X007441Y024382D03*
X008441Y024382D03*
X008441Y025681D03*
X009441Y025681D03*
X009441Y024382D03*
D14*
X009244Y022128D03*
X009244Y021528D03*
X009244Y020928D03*
X008063Y020928D03*
X008063Y021528D03*
X008063Y022128D03*
X006882Y022128D03*
X006882Y021528D03*
X006882Y020928D03*
X005701Y020928D03*
X005701Y021528D03*
X005701Y022128D03*
X004520Y022128D03*
X004520Y021528D03*
X004520Y020928D03*
D15*
X006422Y023181D03*
X007422Y023181D03*
D16*
X001661Y004415D02*
X001904Y004275D01*
X002175Y004203D01*
X002315Y004193D01*
X002612Y004193D01*
X002795Y004117D01*
X002936Y003977D01*
X003012Y003793D01*
X003012Y001437D01*
X010674Y001437D01*
X010674Y003793D01*
X010750Y003977D01*
X010890Y004117D01*
X011074Y004193D01*
X011370Y004193D01*
X011511Y004203D01*
X011782Y004275D01*
X012025Y004415D01*
X012223Y004614D01*
X012363Y004857D01*
X012436Y005128D01*
X012436Y005408D01*
X012363Y005679D01*
X012223Y005922D01*
X012025Y006121D01*
X011782Y006261D01*
X011511Y006334D01*
X011370Y006343D01*
X011074Y006343D01*
X010890Y006419D01*
X010750Y006560D01*
X010674Y006743D01*
X010674Y009599D01*
X007269Y009599D01*
X007062Y008557D01*
X007024Y003480D01*
X007303Y003480D01*
X007303Y003498D01*
X007406Y003882D01*
X007605Y004226D01*
X007886Y004506D01*
X008229Y004705D01*
X008613Y004808D01*
X009010Y004808D01*
X009393Y004705D01*
X009737Y004506D01*
X010018Y004226D01*
X010217Y003882D01*
X010319Y003498D01*
X010319Y003101D01*
X010217Y002718D01*
X010018Y002374D01*
X009737Y002093D01*
X009393Y001894D01*
X009010Y001792D01*
X008613Y001792D01*
X008229Y001894D01*
X007886Y002093D01*
X007605Y002374D01*
X007406Y002718D01*
X007303Y003101D01*
X007303Y003120D01*
X006917Y003120D01*
X006916Y003119D01*
X006842Y003120D01*
X006768Y003120D01*
X006768Y003120D01*
X006767Y003120D01*
X006715Y003173D01*
X006663Y003225D01*
X006663Y003226D01*
X006662Y003226D01*
X006663Y003300D01*
X006663Y003374D01*
X006663Y003375D01*
X006702Y008521D01*
X006691Y008537D01*
X006702Y008594D01*
X006703Y008651D01*
X006717Y008665D01*
X006902Y009599D01*
X005596Y009599D01*
X005383Y008662D01*
X005456Y008642D01*
X005800Y008443D01*
X006081Y008163D01*
X006280Y007819D01*
X006382Y007435D01*
X006382Y007038D01*
X006280Y006655D01*
X006081Y006311D01*
X005800Y006030D01*
X005456Y005831D01*
X005073Y005729D01*
X004676Y005729D01*
X004292Y005831D01*
X003949Y006030D01*
X003668Y006311D01*
X003469Y006655D01*
X003366Y007038D01*
X003366Y007435D01*
X003469Y007819D01*
X003668Y008163D01*
X003949Y008443D01*
X004292Y008642D01*
X004676Y008745D01*
X005033Y008745D01*
X005227Y009599D01*
X004309Y009599D01*
X004268Y009424D01*
X004270Y009374D01*
X004251Y009354D01*
X004245Y009327D01*
X004202Y009301D01*
X003285Y008310D01*
X003321Y006887D01*
X004377Y004727D01*
X004676Y004808D01*
X005073Y004808D01*
X005456Y004705D01*
X005800Y004506D01*
X006081Y004226D01*
X006280Y003882D01*
X006382Y003498D01*
X006382Y003101D01*
X006280Y002718D01*
X006081Y002374D01*
X005800Y002093D01*
X005456Y001894D01*
X005073Y001792D01*
X004676Y001792D01*
X004292Y001894D01*
X003949Y002093D01*
X003668Y002374D01*
X003469Y002718D01*
X003366Y003101D01*
X003366Y003498D01*
X003469Y003882D01*
X003668Y004226D01*
X003949Y004506D01*
X004054Y004567D01*
X003002Y006719D01*
X002936Y006560D01*
X002795Y006419D01*
X002612Y006343D01*
X002315Y006343D01*
X002175Y006334D01*
X001904Y006261D01*
X001661Y006121D01*
X001463Y005922D01*
X001322Y005679D01*
X001250Y005408D01*
X001250Y005128D01*
X001322Y004857D01*
X001463Y004614D01*
X001661Y004415D01*
X001714Y004385D02*
X003827Y004385D01*
X003729Y004286D02*
X001884Y004286D01*
X001593Y004483D02*
X003926Y004483D01*
X004047Y004582D02*
X001495Y004582D01*
X001424Y004680D02*
X003999Y004680D01*
X003951Y004779D02*
X001367Y004779D01*
X001317Y004877D02*
X003903Y004877D01*
X003855Y004976D02*
X001290Y004976D01*
X001264Y005074D02*
X003806Y005074D01*
X003758Y005173D02*
X001250Y005173D01*
X001250Y005271D02*
X003710Y005271D01*
X003662Y005370D02*
X001250Y005370D01*
X001266Y005468D02*
X003614Y005468D01*
X003566Y005567D02*
X001292Y005567D01*
X001319Y005665D02*
X003517Y005665D01*
X003469Y005764D02*
X001371Y005764D01*
X001428Y005862D02*
X003421Y005862D01*
X003373Y005961D02*
X001501Y005961D01*
X001600Y006059D02*
X003325Y006059D01*
X003277Y006158D02*
X001725Y006158D01*
X001896Y006256D02*
X003228Y006256D01*
X003180Y006355D02*
X002641Y006355D01*
X002830Y006453D02*
X003132Y006453D01*
X003084Y006552D02*
X002928Y006552D01*
X002974Y006650D02*
X003036Y006650D01*
X003142Y006843D02*
X003103Y008378D01*
X004087Y009441D01*
X006174Y018300D01*
X006174Y021410D01*
X005701Y021528D01*
X006882Y021528D01*
X006832Y022078D02*
X006417Y022078D01*
X006417Y021878D01*
X006428Y021840D01*
X006441Y021816D01*
X006437Y021812D01*
X006437Y021708D01*
X006354Y021708D01*
X006354Y022433D01*
X006354Y022506D01*
X006354Y022507D01*
X006354Y022508D01*
X006302Y022560D01*
X005897Y022974D01*
X005941Y023082D01*
X005941Y023281D01*
X005865Y023465D01*
X005725Y023605D01*
X005621Y023648D01*
X005621Y023859D01*
X005692Y023859D01*
X005768Y023935D01*
X005768Y024830D01*
X005692Y024906D01*
X005651Y024906D01*
X005651Y025158D01*
X005692Y025158D01*
X005768Y025234D01*
X005768Y026129D01*
X005692Y026205D01*
X005191Y026205D01*
X005114Y026129D01*
X005114Y025234D01*
X005191Y025158D01*
X005231Y025158D01*
X005231Y024906D01*
X005191Y024906D01*
X005114Y024830D01*
X005114Y023935D01*
X005191Y023859D01*
X005261Y023859D01*
X005261Y023648D01*
X005158Y023605D01*
X005017Y023465D01*
X004941Y023281D01*
X004865Y023465D01*
X004725Y023605D01*
X004621Y023648D01*
X004621Y023859D01*
X004692Y023859D01*
X004768Y023935D01*
X004768Y024830D01*
X004692Y024906D01*
X004651Y024906D01*
X004651Y025158D01*
X004692Y025158D01*
X004768Y025234D01*
X004768Y026129D01*
X004692Y026205D01*
X004191Y026205D01*
X004114Y026129D01*
X004114Y025234D01*
X004191Y025158D01*
X004231Y025158D01*
X004231Y024906D01*
X004191Y024906D01*
X004114Y024830D01*
X004114Y023935D01*
X004191Y023859D01*
X004261Y023859D01*
X004261Y023648D01*
X004158Y023605D01*
X004017Y023465D01*
X003975Y023361D01*
X003776Y023361D01*
X003671Y023256D01*
X003671Y021453D01*
X003776Y021348D01*
X004075Y021348D01*
X004075Y021244D01*
X004091Y021228D01*
X004075Y021212D01*
X004075Y020644D01*
X004151Y020568D01*
X004340Y020568D01*
X004340Y020564D01*
X004259Y020482D01*
X004212Y020369D01*
X004212Y020246D01*
X004259Y020133D01*
X004345Y020046D01*
X004459Y019999D01*
X004581Y019999D01*
X004695Y020046D01*
X004782Y020133D01*
X004829Y020246D01*
X004829Y020369D01*
X004782Y020482D01*
X004700Y020564D01*
X004700Y020568D01*
X004889Y020568D01*
X004965Y020644D01*
X004965Y020748D01*
X005256Y020748D01*
X005256Y020644D01*
X005332Y020568D01*
X005994Y020568D01*
X005994Y019835D01*
X003012Y019835D01*
X003012Y022297D01*
X002936Y022480D01*
X002795Y022621D01*
X002612Y022697D01*
X002315Y022697D01*
X002175Y022706D01*
X001904Y022779D01*
X001661Y022919D01*
X001463Y023118D01*
X001322Y023361D01*
X001250Y023632D01*
X001250Y023912D01*
X001322Y024183D01*
X001463Y024426D01*
X001661Y024625D01*
X001904Y024765D01*
X002175Y024838D01*
X002315Y024847D01*
X002612Y024847D01*
X002795Y024923D01*
X002936Y025064D01*
X003012Y025247D01*
X003012Y027315D01*
X003018Y027404D01*
X003064Y027576D01*
X003153Y027730D01*
X003279Y027856D01*
X003433Y027945D01*
X003604Y027991D01*
X003693Y027996D01*
X009993Y027996D01*
X010081Y027991D01*
X010253Y027945D01*
X010407Y027856D01*
X010533Y027730D01*
X010622Y027576D01*
X010668Y027404D01*
X010674Y027315D01*
X010674Y025247D01*
X010750Y025064D01*
X010890Y024923D01*
X011074Y024847D01*
X011370Y024847D01*
X011511Y024838D01*
X011782Y024765D01*
X012025Y024625D01*
X012223Y024426D01*
X012363Y024183D01*
X012436Y023912D01*
X012436Y023632D01*
X012363Y023361D01*
X012223Y023118D01*
X012025Y022919D01*
X011782Y022779D01*
X011511Y022706D01*
X011370Y022697D01*
X011074Y022697D01*
X010890Y022621D01*
X010750Y022480D01*
X010674Y022297D01*
X010674Y019835D01*
X009024Y019835D01*
X008488Y020624D01*
X008508Y020644D01*
X008508Y020748D01*
X008799Y020748D01*
X008799Y020644D01*
X008876Y020568D01*
X009613Y020568D01*
X009689Y020644D01*
X009689Y020754D01*
X009915Y020757D01*
X009988Y020757D01*
X009989Y020758D01*
X009991Y020758D01*
X010042Y020811D01*
X010094Y020863D01*
X010094Y020864D01*
X010095Y020865D01*
X010094Y020939D01*
X010094Y022705D01*
X009988Y022810D01*
X009777Y022810D01*
X009865Y022898D01*
X009941Y023082D01*
X009941Y023281D01*
X009865Y023465D01*
X009725Y023605D01*
X009621Y023648D01*
X009621Y023859D01*
X009692Y023859D01*
X009768Y023935D01*
X009768Y024830D01*
X009692Y024906D01*
X009651Y024906D01*
X009651Y025158D01*
X009692Y025158D01*
X009768Y025234D01*
X009768Y026129D01*
X009692Y026205D01*
X009191Y026205D01*
X009114Y026129D01*
X009114Y025234D01*
X009191Y025158D01*
X009231Y025158D01*
X009231Y024906D01*
X009191Y024906D01*
X009114Y024830D01*
X009114Y023935D01*
X009191Y023859D01*
X009261Y023859D01*
X009261Y023648D01*
X009158Y023605D01*
X009017Y023465D01*
X008949Y023300D01*
X008949Y023303D01*
X008923Y023381D01*
X008886Y023454D01*
X008838Y023520D01*
X008780Y023578D01*
X008714Y023626D01*
X008641Y023663D01*
X008563Y023689D01*
X008491Y023700D01*
X008491Y023232D01*
X008391Y023232D01*
X008391Y023700D01*
X008320Y023689D01*
X008242Y023663D01*
X008169Y023626D01*
X008103Y023578D01*
X008045Y023520D01*
X007997Y023454D01*
X007959Y023381D01*
X007934Y023303D01*
X007934Y023300D01*
X007865Y023465D01*
X007725Y023605D01*
X007621Y023648D01*
X007621Y023859D01*
X007692Y023859D01*
X007768Y023935D01*
X007768Y024830D01*
X007692Y024906D01*
X007651Y024906D01*
X007651Y025158D01*
X007692Y025158D01*
X007768Y025234D01*
X007768Y026129D01*
X007692Y026205D01*
X007191Y026205D01*
X007114Y026129D01*
X007114Y025234D01*
X007191Y025158D01*
X007231Y025158D01*
X007231Y024906D01*
X007191Y024906D01*
X007114Y024830D01*
X007114Y023935D01*
X007191Y023859D01*
X007261Y023859D01*
X007261Y023648D01*
X007245Y023641D01*
X007231Y023641D01*
X007221Y023631D01*
X007158Y023605D01*
X007017Y023465D01*
X006991Y023402D01*
X006962Y023372D01*
X006962Y023330D01*
X006941Y023281D01*
X006865Y023465D01*
X006725Y023605D01*
X006621Y023648D01*
X006621Y023859D01*
X006692Y023859D01*
X006768Y023935D01*
X006768Y024830D01*
X006692Y024906D01*
X006651Y024906D01*
X006651Y025158D01*
X006692Y025158D01*
X006768Y025234D01*
X006768Y026129D01*
X006692Y026205D01*
X006191Y026205D01*
X006114Y026129D01*
X006114Y025234D01*
X006191Y025158D01*
X006231Y025158D01*
X006231Y024906D01*
X006191Y024906D01*
X006114Y024830D01*
X006114Y023935D01*
X006191Y023859D01*
X006261Y023859D01*
X006261Y023648D01*
X006245Y023641D01*
X006231Y023641D01*
X006221Y023631D01*
X006158Y023605D01*
X006017Y023465D01*
X005991Y023402D01*
X005962Y023372D01*
X005962Y023330D01*
X005941Y023281D01*
X005941Y023082D01*
X005962Y023033D01*
X005962Y022991D01*
X005991Y022961D01*
X006017Y022898D01*
X006158Y022758D01*
X006221Y022732D01*
X006231Y022721D01*
X006245Y022721D01*
X006342Y022681D01*
X006541Y022681D01*
X006615Y022712D01*
X006794Y022508D01*
X006548Y022508D01*
X006509Y022498D01*
X006475Y022478D01*
X006447Y022450D01*
X006428Y022416D01*
X006417Y022378D01*
X006417Y022178D01*
X006832Y022178D01*
X006832Y022078D01*
X006832Y022115D02*
X006354Y022115D01*
X006354Y022213D02*
X006417Y022213D01*
X006417Y022312D02*
X006354Y022312D01*
X006354Y022410D02*
X006426Y022410D01*
X006353Y022509D02*
X006793Y022509D01*
X006707Y022607D02*
X006255Y022607D01*
X006283Y022706D02*
X006159Y022706D01*
X006111Y022804D02*
X006062Y022804D01*
X006016Y022903D02*
X005966Y022903D01*
X005962Y023001D02*
X005908Y023001D01*
X005941Y023100D02*
X005941Y023100D01*
X005941Y023198D02*
X005941Y023198D01*
X005935Y023297D02*
X005948Y023297D01*
X005985Y023395D02*
X005894Y023395D01*
X005836Y023494D02*
X006047Y023494D01*
X006145Y023592D02*
X005737Y023592D01*
X005621Y023691D02*
X006261Y023691D01*
X006261Y023789D02*
X005621Y023789D01*
X005721Y023888D02*
X006161Y023888D01*
X006114Y023986D02*
X005768Y023986D01*
X005768Y024085D02*
X006114Y024085D01*
X006114Y024183D02*
X005768Y024183D01*
X005768Y024282D02*
X006114Y024282D01*
X006114Y024380D02*
X005768Y024380D01*
X005768Y024479D02*
X006114Y024479D01*
X006114Y024577D02*
X005768Y024577D01*
X005768Y024676D02*
X006114Y024676D01*
X006114Y024774D02*
X005768Y024774D01*
X005725Y024873D02*
X006158Y024873D01*
X006231Y024971D02*
X005651Y024971D01*
X005651Y025070D02*
X006231Y025070D01*
X006180Y025168D02*
X005703Y025168D01*
X005768Y025267D02*
X006114Y025267D01*
X006114Y025365D02*
X005768Y025365D01*
X005768Y025464D02*
X006114Y025464D01*
X006114Y025562D02*
X005768Y025562D01*
X005768Y025661D02*
X006114Y025661D01*
X006114Y025759D02*
X005768Y025759D01*
X005768Y025858D02*
X006114Y025858D01*
X006114Y025956D02*
X005768Y025956D01*
X005768Y026055D02*
X006114Y026055D01*
X006139Y026153D02*
X005744Y026153D01*
X005231Y025070D02*
X004651Y025070D01*
X004651Y024971D02*
X005231Y024971D01*
X005158Y024873D02*
X004725Y024873D01*
X004768Y024774D02*
X005114Y024774D01*
X005114Y024676D02*
X004768Y024676D01*
X004768Y024577D02*
X005114Y024577D01*
X005114Y024479D02*
X004768Y024479D01*
X004768Y024380D02*
X005114Y024380D01*
X005114Y024282D02*
X004768Y024282D01*
X004768Y024183D02*
X005114Y024183D01*
X005114Y024085D02*
X004768Y024085D01*
X004768Y023986D02*
X005114Y023986D01*
X005161Y023888D02*
X004721Y023888D01*
X004621Y023789D02*
X005261Y023789D01*
X005261Y023691D02*
X004621Y023691D01*
X004737Y023592D02*
X005145Y023592D01*
X005047Y023494D02*
X004836Y023494D01*
X004894Y023395D02*
X004989Y023395D01*
X004948Y023297D02*
X004935Y023297D01*
X004941Y023281D02*
X004941Y023082D01*
X004865Y022898D01*
X004725Y022758D01*
X004541Y022681D01*
X004342Y022681D01*
X004158Y022758D01*
X004031Y022885D01*
X004031Y021708D01*
X004075Y021708D01*
X004075Y021812D01*
X004079Y021816D01*
X004065Y021840D01*
X004055Y021878D01*
X004055Y022078D01*
X004470Y022078D01*
X004470Y022178D01*
X004055Y022178D01*
X004055Y022378D01*
X004065Y022416D01*
X004085Y022450D01*
X004113Y022478D01*
X004147Y022498D01*
X004185Y022508D01*
X004470Y022508D01*
X004470Y022178D01*
X004570Y022178D01*
X004570Y022508D01*
X004855Y022508D01*
X004893Y022498D01*
X004927Y022478D01*
X004955Y022450D01*
X004975Y022416D01*
X004985Y022378D01*
X004985Y022178D01*
X004570Y022178D01*
X004570Y022078D01*
X004985Y022078D01*
X004985Y021878D01*
X004975Y021840D01*
X004961Y021816D01*
X004965Y021812D01*
X004965Y021244D01*
X004949Y021228D01*
X004965Y021212D01*
X004965Y021108D01*
X005256Y021108D01*
X005256Y021212D01*
X005272Y021228D01*
X005256Y021244D01*
X005256Y021812D01*
X005260Y021816D01*
X005246Y021840D01*
X005236Y021878D01*
X005236Y022078D01*
X005651Y022078D01*
X005651Y022178D01*
X005236Y022178D01*
X005236Y022378D01*
X005246Y022416D01*
X005266Y022450D01*
X005294Y022478D01*
X005328Y022498D01*
X005366Y022508D01*
X005651Y022508D01*
X005651Y022178D01*
X005751Y022178D01*
X005751Y022508D01*
X005849Y022508D01*
X005639Y022722D01*
X005541Y022681D01*
X005342Y022681D01*
X005158Y022758D01*
X005017Y022898D01*
X004941Y023082D01*
X004941Y023281D01*
X004941Y023198D02*
X004941Y023198D01*
X004941Y023100D02*
X004941Y023100D01*
X004908Y023001D02*
X004975Y023001D01*
X005016Y022903D02*
X004867Y022903D01*
X004771Y022804D02*
X005111Y022804D01*
X005283Y022706D02*
X004600Y022706D01*
X004570Y022410D02*
X004470Y022410D01*
X004470Y022312D02*
X004570Y022312D01*
X004570Y022213D02*
X004470Y022213D01*
X004470Y022115D02*
X004031Y022115D01*
X004031Y022213D02*
X004055Y022213D01*
X004055Y022312D02*
X004031Y022312D01*
X004031Y022410D02*
X004064Y022410D01*
X004031Y022509D02*
X005848Y022509D01*
X005751Y022607D02*
X004031Y022607D01*
X004031Y022706D02*
X004283Y022706D01*
X004111Y022804D02*
X004031Y022804D01*
X003851Y023181D02*
X004441Y023181D01*
X004441Y025681D01*
X004114Y025661D02*
X003012Y025661D01*
X003012Y025759D02*
X004114Y025759D01*
X004114Y025858D02*
X003012Y025858D01*
X003012Y025956D02*
X004114Y025956D01*
X004114Y026055D02*
X003012Y026055D01*
X003012Y026153D02*
X004139Y026153D01*
X004114Y025562D02*
X003012Y025562D01*
X003012Y025464D02*
X004114Y025464D01*
X004114Y025365D02*
X003012Y025365D01*
X003012Y025267D02*
X004114Y025267D01*
X004180Y025168D02*
X002980Y025168D01*
X002939Y025070D02*
X004231Y025070D01*
X004231Y024971D02*
X002844Y024971D01*
X002675Y024873D02*
X004158Y024873D01*
X004114Y024774D02*
X001939Y024774D01*
X001750Y024676D02*
X004114Y024676D01*
X004114Y024577D02*
X001614Y024577D01*
X001515Y024479D02*
X004114Y024479D01*
X004114Y024380D02*
X001436Y024380D01*
X001379Y024282D02*
X004114Y024282D01*
X004114Y024183D02*
X001322Y024183D01*
X001296Y024085D02*
X004114Y024085D01*
X004114Y023986D02*
X001270Y023986D01*
X001250Y023888D02*
X004161Y023888D01*
X004261Y023789D02*
X001250Y023789D01*
X001250Y023691D02*
X004261Y023691D01*
X004145Y023592D02*
X001260Y023592D01*
X001287Y023494D02*
X004047Y023494D01*
X003989Y023395D02*
X001313Y023395D01*
X001359Y023297D02*
X003712Y023297D01*
X003671Y023198D02*
X001416Y023198D01*
X001480Y023100D02*
X003671Y023100D01*
X003671Y023001D02*
X001579Y023001D01*
X001689Y022903D02*
X003671Y022903D01*
X003671Y022804D02*
X001860Y022804D01*
X002182Y022706D02*
X003671Y022706D01*
X003671Y022607D02*
X002809Y022607D01*
X002908Y022509D02*
X003671Y022509D01*
X003671Y022410D02*
X002965Y022410D01*
X003006Y022312D02*
X003671Y022312D01*
X003671Y022213D02*
X003012Y022213D01*
X003012Y022115D02*
X003671Y022115D01*
X003671Y022016D02*
X003012Y022016D01*
X003012Y021918D02*
X003671Y021918D01*
X003671Y021819D02*
X003012Y021819D01*
X003012Y021721D02*
X003671Y021721D01*
X003671Y021622D02*
X003012Y021622D01*
X003012Y021524D02*
X003671Y021524D01*
X003699Y021425D02*
X003012Y021425D01*
X003012Y021327D02*
X004075Y021327D01*
X004091Y021228D02*
X003012Y021228D01*
X003012Y021130D02*
X004075Y021130D01*
X004075Y021031D02*
X003012Y021031D01*
X003012Y020933D02*
X004075Y020933D01*
X004075Y020834D02*
X003012Y020834D01*
X003012Y020736D02*
X004075Y020736D01*
X004082Y020637D02*
X003012Y020637D01*
X003012Y020539D02*
X004315Y020539D01*
X004241Y020440D02*
X003012Y020440D01*
X003012Y020342D02*
X004212Y020342D01*
X004213Y020243D02*
X003012Y020243D01*
X003012Y020145D02*
X004254Y020145D01*
X004345Y020046D02*
X003012Y020046D01*
X003012Y019948D02*
X005994Y019948D01*
X005994Y020046D02*
X004695Y020046D01*
X004787Y020145D02*
X005994Y020145D01*
X005994Y020243D02*
X004827Y020243D01*
X004829Y020342D02*
X005994Y020342D01*
X005994Y020440D02*
X004799Y020440D01*
X004725Y020539D02*
X005994Y020539D01*
X005701Y020928D02*
X004520Y020928D01*
X004520Y020307D01*
X004958Y020637D02*
X005263Y020637D01*
X005256Y020736D02*
X004965Y020736D01*
X004965Y021130D02*
X005256Y021130D01*
X005272Y021228D02*
X004949Y021228D01*
X004965Y021327D02*
X005256Y021327D01*
X005256Y021425D02*
X004965Y021425D01*
X004965Y021524D02*
X005256Y021524D01*
X005256Y021622D02*
X004965Y021622D01*
X004965Y021721D02*
X005256Y021721D01*
X005258Y021819D02*
X004963Y021819D01*
X004985Y021918D02*
X005236Y021918D01*
X005236Y022016D02*
X004985Y022016D01*
X004985Y022213D02*
X005236Y022213D01*
X005236Y022312D02*
X004985Y022312D01*
X004976Y022410D02*
X005245Y022410D01*
X005600Y022706D02*
X005655Y022706D01*
X005651Y022410D02*
X005751Y022410D01*
X005751Y022312D02*
X005651Y022312D01*
X005651Y022213D02*
X005751Y022213D01*
X005651Y022115D02*
X004570Y022115D01*
X004520Y021528D02*
X003851Y021528D01*
X003851Y023181D01*
X004031Y022016D02*
X004055Y022016D01*
X004055Y021918D02*
X004031Y021918D01*
X004031Y021819D02*
X004077Y021819D01*
X004075Y021721D02*
X004031Y021721D01*
X003012Y019849D02*
X005994Y019849D01*
X006174Y021410D02*
X006174Y022433D01*
X005441Y023181D01*
X005441Y024382D01*
X005180Y025168D02*
X004703Y025168D01*
X004768Y025267D02*
X005114Y025267D01*
X005114Y025365D02*
X004768Y025365D01*
X004768Y025464D02*
X005114Y025464D01*
X005114Y025562D02*
X004768Y025562D01*
X004768Y025661D02*
X005114Y025661D01*
X005114Y025759D02*
X004768Y025759D01*
X004768Y025858D02*
X005114Y025858D01*
X005114Y025956D02*
X004768Y025956D01*
X004768Y026055D02*
X005114Y026055D01*
X005139Y026153D02*
X004744Y026153D01*
X003401Y027926D02*
X010285Y027926D01*
X010435Y027828D02*
X003251Y027828D01*
X003153Y027729D02*
X010533Y027729D01*
X010590Y027631D02*
X003096Y027631D01*
X003052Y027532D02*
X010633Y027532D01*
X010660Y027434D02*
X003026Y027434D01*
X003014Y027335D02*
X010672Y027335D01*
X010674Y027237D02*
X003012Y027237D01*
X003012Y027138D02*
X010674Y027138D01*
X010674Y027040D02*
X003012Y027040D01*
X003012Y026941D02*
X010674Y026941D01*
X010674Y026843D02*
X003012Y026843D01*
X003012Y026744D02*
X010674Y026744D01*
X010674Y026646D02*
X003012Y026646D01*
X003012Y026547D02*
X010674Y026547D01*
X010674Y026449D02*
X003012Y026449D01*
X003012Y026350D02*
X010674Y026350D01*
X010674Y026252D02*
X003012Y026252D01*
X006441Y025681D02*
X006441Y023181D01*
X006422Y023181D01*
X006441Y023181D02*
X006961Y022591D01*
X007355Y022473D01*
X007355Y021546D01*
X008063Y021528D01*
X009244Y021528D01*
X009194Y022078D02*
X008779Y022078D01*
X008779Y021878D01*
X008790Y021840D01*
X008804Y021816D01*
X008799Y021812D01*
X008799Y021708D01*
X008508Y021708D01*
X008508Y021812D01*
X008504Y021816D01*
X008518Y021840D01*
X008528Y021878D01*
X008528Y022078D01*
X008113Y022078D01*
X008113Y022178D01*
X008013Y022178D01*
X008013Y022078D01*
X007598Y022078D01*
X007598Y021878D01*
X007609Y021840D01*
X007623Y021816D01*
X007618Y021812D01*
X007618Y021719D01*
X007535Y021721D01*
X007535Y022446D01*
X007549Y022493D01*
X007535Y022518D01*
X007535Y022547D01*
X007501Y022581D01*
X007478Y022624D01*
X007450Y022632D01*
X007429Y022653D01*
X007381Y022653D01*
X007062Y022749D01*
X006886Y022949D01*
X006941Y023082D01*
X006941Y023281D01*
X006941Y023082D01*
X006962Y023033D01*
X006962Y022991D01*
X006991Y022961D01*
X007017Y022898D01*
X007158Y022758D01*
X007221Y022732D01*
X007231Y022721D01*
X007245Y022721D01*
X007342Y022681D01*
X007541Y022681D01*
X007715Y022754D01*
X008063Y022494D01*
X008107Y022450D01*
X008113Y022450D01*
X008113Y022178D01*
X008528Y022178D01*
X008528Y022378D01*
X008518Y022416D01*
X008498Y022450D01*
X008810Y022450D01*
X008809Y022450D01*
X008790Y022416D01*
X008779Y022378D01*
X008779Y022178D01*
X009194Y022178D01*
X009194Y022078D01*
X009194Y022115D02*
X008113Y022115D01*
X008113Y022213D02*
X008013Y022213D01*
X008013Y022178D02*
X008013Y022508D01*
X007729Y022508D01*
X007690Y022498D01*
X007656Y022478D01*
X007628Y022450D01*
X007609Y022416D01*
X007598Y022378D01*
X007598Y022178D01*
X008013Y022178D01*
X008013Y022115D02*
X007535Y022115D01*
X007535Y022213D02*
X007598Y022213D01*
X007598Y022312D02*
X007535Y022312D01*
X007535Y022410D02*
X007607Y022410D01*
X007540Y022509D02*
X008043Y022509D01*
X008013Y022410D02*
X008113Y022410D01*
X008113Y022312D02*
X008013Y022312D01*
X007911Y022607D02*
X007487Y022607D01*
X007600Y022706D02*
X007779Y022706D01*
X007894Y023395D02*
X007967Y023395D01*
X008026Y023494D02*
X007836Y023494D01*
X007737Y023592D02*
X008122Y023592D01*
X008191Y023859D02*
X008114Y023935D01*
X008114Y024830D01*
X008191Y024906D01*
X008231Y024906D01*
X008231Y025138D01*
X008225Y025138D01*
X008187Y025148D01*
X008152Y025168D01*
X008124Y025196D01*
X008105Y025230D01*
X008094Y025268D01*
X008094Y025633D01*
X008246Y025633D01*
X008342Y025730D01*
X008094Y025730D01*
X008094Y026095D01*
X008105Y026133D01*
X008124Y026167D01*
X008152Y026195D01*
X008187Y026215D01*
X008225Y026225D01*
X008393Y026225D01*
X008393Y025742D01*
X008490Y025742D01*
X008490Y026225D01*
X008658Y026225D01*
X008696Y026215D01*
X008730Y026195D01*
X008758Y026167D01*
X008778Y026133D01*
X008788Y026095D01*
X008788Y025730D01*
X008540Y025730D01*
X008637Y025633D01*
X008788Y025633D01*
X008788Y025268D01*
X008778Y025230D01*
X008758Y025196D01*
X008730Y025168D01*
X008696Y025148D01*
X008658Y025138D01*
X008651Y025138D01*
X008651Y024906D01*
X008692Y024906D01*
X008768Y024830D01*
X008768Y023935D01*
X008692Y023859D01*
X008191Y023859D01*
X008161Y023888D02*
X007721Y023888D01*
X007768Y023986D02*
X008114Y023986D01*
X008114Y024085D02*
X007768Y024085D01*
X007768Y024183D02*
X008114Y024183D01*
X008114Y024282D02*
X007768Y024282D01*
X007768Y024380D02*
X008114Y024380D01*
X008114Y024479D02*
X007768Y024479D01*
X007768Y024577D02*
X008114Y024577D01*
X008114Y024676D02*
X007768Y024676D01*
X007768Y024774D02*
X008114Y024774D01*
X008158Y024873D02*
X007725Y024873D01*
X007651Y024971D02*
X008231Y024971D01*
X008231Y025070D02*
X007651Y025070D01*
X007703Y025168D02*
X008152Y025168D01*
X008095Y025267D02*
X007768Y025267D01*
X007768Y025365D02*
X008094Y025365D01*
X008094Y025464D02*
X007768Y025464D01*
X007768Y025562D02*
X008094Y025562D01*
X008094Y025759D02*
X007768Y025759D01*
X007768Y025661D02*
X008273Y025661D01*
X008393Y025759D02*
X008490Y025759D01*
X008490Y025858D02*
X008393Y025858D01*
X008393Y025956D02*
X008490Y025956D01*
X008490Y026055D02*
X008393Y026055D01*
X008393Y026153D02*
X008490Y026153D01*
X008609Y025661D02*
X009114Y025661D01*
X009114Y025759D02*
X008788Y025759D01*
X008788Y025858D02*
X009114Y025858D01*
X009114Y025956D02*
X008788Y025956D01*
X008788Y026055D02*
X009114Y026055D01*
X009139Y026153D02*
X008766Y026153D01*
X008788Y025562D02*
X009114Y025562D01*
X009114Y025464D02*
X008788Y025464D01*
X008788Y025365D02*
X009114Y025365D01*
X009114Y025267D02*
X008788Y025267D01*
X008731Y025168D02*
X009180Y025168D01*
X009231Y025070D02*
X008651Y025070D01*
X008651Y024971D02*
X009231Y024971D01*
X009158Y024873D02*
X008725Y024873D01*
X008768Y024774D02*
X009114Y024774D01*
X009114Y024676D02*
X008768Y024676D01*
X008768Y024577D02*
X009114Y024577D01*
X009114Y024479D02*
X008768Y024479D01*
X008768Y024380D02*
X009114Y024380D01*
X009114Y024282D02*
X008768Y024282D01*
X008768Y024183D02*
X009114Y024183D01*
X009114Y024085D02*
X008768Y024085D01*
X008768Y023986D02*
X009114Y023986D01*
X009161Y023888D02*
X008721Y023888D01*
X008549Y023691D02*
X009261Y023691D01*
X009261Y023789D02*
X007621Y023789D01*
X007621Y023691D02*
X008334Y023691D01*
X008391Y023691D02*
X008491Y023691D01*
X008491Y023592D02*
X008391Y023592D01*
X008391Y023494D02*
X008491Y023494D01*
X008491Y023395D02*
X008391Y023395D01*
X008391Y023297D02*
X008491Y023297D01*
X008760Y023592D02*
X009145Y023592D01*
X009047Y023494D02*
X008857Y023494D01*
X008916Y023395D02*
X008989Y023395D01*
X008788Y022410D02*
X008520Y022410D01*
X008498Y022450D02*
X008498Y022450D01*
X008528Y022312D02*
X008779Y022312D01*
X008779Y022213D02*
X008528Y022213D01*
X008528Y022016D02*
X008779Y022016D01*
X008779Y021918D02*
X008528Y021918D01*
X008506Y021819D02*
X008802Y021819D01*
X008799Y021721D02*
X008508Y021721D01*
X008063Y020928D02*
X009048Y019481D01*
X008991Y019177D01*
X006882Y008575D01*
X006843Y003300D01*
X008811Y003300D01*
X008187Y004680D02*
X007033Y004680D01*
X007032Y004582D02*
X008017Y004582D01*
X007863Y004483D02*
X007032Y004483D01*
X007031Y004385D02*
X007764Y004385D01*
X007666Y004286D02*
X007030Y004286D01*
X007030Y004188D02*
X007583Y004188D01*
X007526Y004089D02*
X007029Y004089D01*
X007028Y003991D02*
X007469Y003991D01*
X007412Y003892D02*
X007027Y003892D01*
X007027Y003794D02*
X007383Y003794D01*
X007356Y003695D02*
X007026Y003695D01*
X007025Y003597D02*
X007330Y003597D01*
X007304Y003498D02*
X007024Y003498D01*
X006664Y003498D02*
X006382Y003498D01*
X006382Y003400D02*
X006664Y003400D01*
X006663Y003301D02*
X006382Y003301D01*
X006382Y003203D02*
X006685Y003203D01*
X006382Y003104D02*
X007303Y003104D01*
X007329Y003006D02*
X006357Y003006D01*
X006330Y002907D02*
X007355Y002907D01*
X007382Y002809D02*
X006304Y002809D01*
X006275Y002710D02*
X007410Y002710D01*
X007467Y002612D02*
X006219Y002612D01*
X006162Y002513D02*
X007524Y002513D01*
X007581Y002415D02*
X006105Y002415D01*
X006024Y002316D02*
X007662Y002316D01*
X007761Y002218D02*
X005925Y002218D01*
X005827Y002119D02*
X007859Y002119D01*
X008010Y002021D02*
X005676Y002021D01*
X005505Y001922D02*
X008181Y001922D01*
X008493Y001824D02*
X005193Y001824D01*
X004556Y001824D02*
X003012Y001824D01*
X003012Y001922D02*
X004244Y001922D01*
X004073Y002021D02*
X003012Y002021D01*
X003012Y002119D02*
X003922Y002119D01*
X003824Y002218D02*
X003012Y002218D01*
X003012Y002316D02*
X003725Y002316D01*
X003644Y002415D02*
X003012Y002415D01*
X003012Y002513D02*
X003587Y002513D01*
X003530Y002612D02*
X003012Y002612D01*
X003012Y002710D02*
X003473Y002710D01*
X003445Y002809D02*
X003012Y002809D01*
X003012Y002907D02*
X003418Y002907D01*
X003392Y003006D02*
X003012Y003006D01*
X003012Y003104D02*
X003366Y003104D01*
X003366Y003203D02*
X003012Y003203D01*
X003012Y003301D02*
X003366Y003301D01*
X003366Y003400D02*
X003012Y003400D01*
X003012Y003498D02*
X003367Y003498D01*
X003393Y003597D02*
X003012Y003597D01*
X003012Y003695D02*
X003419Y003695D01*
X003446Y003794D02*
X003012Y003794D01*
X002971Y003892D02*
X003475Y003892D01*
X003532Y003991D02*
X002922Y003991D01*
X002823Y004089D02*
X003589Y004089D01*
X003646Y004188D02*
X002625Y004188D01*
X003629Y006256D02*
X003722Y006256D01*
X003677Y006158D02*
X003821Y006158D01*
X003726Y006059D02*
X003919Y006059D01*
X003774Y005961D02*
X004068Y005961D01*
X004239Y005862D02*
X003822Y005862D01*
X003870Y005764D02*
X004544Y005764D01*
X004111Y005271D02*
X006678Y005271D01*
X006677Y005173D02*
X004159Y005173D01*
X004207Y005074D02*
X006676Y005074D01*
X006675Y004976D02*
X004255Y004976D01*
X004303Y004877D02*
X006675Y004877D01*
X006674Y004779D02*
X005180Y004779D01*
X005499Y004680D02*
X006673Y004680D01*
X006672Y004582D02*
X005669Y004582D01*
X005823Y004483D02*
X006672Y004483D01*
X006671Y004385D02*
X005922Y004385D01*
X006020Y004286D02*
X006670Y004286D01*
X006670Y004188D02*
X006103Y004188D01*
X006160Y004089D02*
X006669Y004089D01*
X006668Y003991D02*
X006217Y003991D01*
X006273Y003892D02*
X006667Y003892D01*
X006667Y003794D02*
X006303Y003794D01*
X006330Y003695D02*
X006666Y003695D01*
X006665Y003597D02*
X006356Y003597D01*
X007034Y004779D02*
X008506Y004779D01*
X008587Y005723D02*
X008440Y005753D01*
X008296Y005796D01*
X008157Y005854D01*
X008025Y005924D01*
X007900Y006008D01*
X007784Y006103D01*
X007678Y006209D01*
X007583Y006325D01*
X007499Y006450D01*
X007428Y006583D01*
X007371Y006721D01*
X007327Y006865D01*
X007298Y007012D01*
X007283Y007162D01*
X007283Y007187D01*
X008761Y007187D01*
X008761Y007287D01*
X008761Y008765D01*
X008736Y008765D01*
X008587Y008750D01*
X008440Y008721D01*
X008296Y008677D01*
X008157Y008620D01*
X008025Y008549D01*
X007900Y008465D01*
X007784Y008370D01*
X007678Y008264D01*
X007583Y008148D01*
X007499Y008023D01*
X007428Y007891D01*
X007371Y007752D01*
X007327Y007608D01*
X007298Y007461D01*
X007283Y007312D01*
X007283Y007287D01*
X008761Y007287D01*
X008861Y007287D01*
X008861Y008765D01*
X008886Y008765D01*
X009036Y008750D01*
X009183Y008721D01*
X009327Y008677D01*
X009465Y008620D01*
X009598Y008549D01*
X009723Y008465D01*
X009839Y008370D01*
X009945Y008264D01*
X010040Y008148D01*
X010124Y008023D01*
X010194Y007891D01*
X010252Y007752D01*
X010295Y007608D01*
X010325Y007461D01*
X010339Y007312D01*
X010339Y007287D01*
X008861Y007287D01*
X008861Y007187D01*
X008861Y005709D01*
X008886Y005709D01*
X009036Y005723D01*
X009183Y005753D01*
X009327Y005796D01*
X009465Y005854D01*
X009598Y005924D01*
X009723Y006008D01*
X009839Y006103D01*
X009945Y006209D01*
X010040Y006325D01*
X010124Y006450D01*
X010194Y006583D01*
X010252Y006721D01*
X010295Y006865D01*
X010325Y007012D01*
X010339Y007162D01*
X010339Y007187D01*
X008861Y007187D01*
X008761Y007187D01*
X008761Y005709D01*
X008736Y005709D01*
X008587Y005723D01*
X008403Y005764D02*
X007041Y005764D01*
X007042Y005862D02*
X008141Y005862D01*
X007970Y005961D02*
X007043Y005961D01*
X007044Y006059D02*
X007837Y006059D01*
X007729Y006158D02*
X007044Y006158D01*
X007045Y006256D02*
X007639Y006256D01*
X007563Y006355D02*
X007046Y006355D01*
X007046Y006453D02*
X007498Y006453D01*
X007445Y006552D02*
X007047Y006552D01*
X007048Y006650D02*
X007400Y006650D01*
X007363Y006749D02*
X007049Y006749D01*
X007049Y006847D02*
X007333Y006847D01*
X007311Y006946D02*
X007050Y006946D01*
X007051Y007044D02*
X007295Y007044D01*
X007285Y007143D02*
X007052Y007143D01*
X007052Y007241D02*
X008761Y007241D01*
X008811Y007237D02*
X010386Y007237D01*
X010386Y020229D01*
X010674Y020243D02*
X008747Y020243D01*
X008814Y020145D02*
X010674Y020145D01*
X010674Y020046D02*
X008881Y020046D01*
X008948Y019948D02*
X010674Y019948D01*
X010674Y019849D02*
X009015Y019849D01*
X008680Y020342D02*
X010674Y020342D01*
X010674Y020440D02*
X008613Y020440D01*
X008546Y020539D02*
X010674Y020539D01*
X010674Y020637D02*
X009683Y020637D01*
X009689Y020736D02*
X010674Y020736D01*
X010674Y020834D02*
X010065Y020834D01*
X010094Y020933D02*
X010674Y020933D01*
X010674Y021031D02*
X010094Y021031D01*
X010094Y021130D02*
X010674Y021130D01*
X010674Y021228D02*
X010094Y021228D01*
X010094Y021327D02*
X010674Y021327D01*
X010674Y021425D02*
X010094Y021425D01*
X010094Y021524D02*
X010674Y021524D01*
X010674Y021622D02*
X010094Y021622D01*
X010094Y021721D02*
X010674Y021721D01*
X010674Y021819D02*
X010094Y021819D01*
X010094Y021918D02*
X010674Y021918D01*
X010674Y022016D02*
X010094Y022016D01*
X010094Y022115D02*
X010674Y022115D01*
X010674Y022213D02*
X010094Y022213D01*
X010094Y022312D02*
X010680Y022312D01*
X010721Y022410D02*
X010094Y022410D01*
X010094Y022509D02*
X010778Y022509D01*
X010877Y022607D02*
X010094Y022607D01*
X010093Y022706D02*
X011503Y022706D01*
X011826Y022804D02*
X009994Y022804D01*
X009867Y022903D02*
X011996Y022903D01*
X012107Y023001D02*
X009908Y023001D01*
X009941Y023100D02*
X012205Y023100D01*
X012270Y023198D02*
X009941Y023198D01*
X009935Y023297D02*
X012327Y023297D01*
X012373Y023395D02*
X009894Y023395D01*
X009836Y023494D02*
X012399Y023494D01*
X012426Y023592D02*
X009737Y023592D01*
X009621Y023691D02*
X012436Y023691D01*
X012436Y023789D02*
X009621Y023789D01*
X009721Y023888D02*
X012436Y023888D01*
X012416Y023986D02*
X009768Y023986D01*
X009768Y024085D02*
X012390Y024085D01*
X012363Y024183D02*
X009768Y024183D01*
X009768Y024282D02*
X012307Y024282D01*
X012250Y024380D02*
X009768Y024380D01*
X009768Y024479D02*
X012171Y024479D01*
X012072Y024577D02*
X009768Y024577D01*
X009768Y024676D02*
X011936Y024676D01*
X011747Y024774D02*
X009768Y024774D01*
X009725Y024873D02*
X011011Y024873D01*
X010842Y024971D02*
X009651Y024971D01*
X009651Y025070D02*
X010747Y025070D01*
X010706Y025168D02*
X009703Y025168D01*
X009768Y025267D02*
X010674Y025267D01*
X010674Y025365D02*
X009768Y025365D01*
X009768Y025464D02*
X010674Y025464D01*
X010674Y025562D02*
X009768Y025562D01*
X009768Y025661D02*
X010674Y025661D01*
X010674Y025759D02*
X009768Y025759D01*
X009768Y025858D02*
X010674Y025858D01*
X010674Y025956D02*
X009768Y025956D01*
X009768Y026055D02*
X010674Y026055D01*
X010674Y026153D02*
X009744Y026153D01*
X009441Y024382D02*
X009441Y023181D01*
X009679Y022450D02*
X009734Y022450D01*
X009734Y021115D01*
X009689Y021114D01*
X009689Y021212D01*
X009673Y021228D01*
X009689Y021244D01*
X009689Y021812D01*
X009685Y021816D01*
X009699Y021840D01*
X009709Y021878D01*
X009709Y022078D01*
X009294Y022078D01*
X009294Y022178D01*
X009709Y022178D01*
X009709Y022378D01*
X009699Y022416D01*
X009680Y022450D01*
X009679Y022450D01*
X009701Y022410D02*
X009734Y022410D01*
X009734Y022312D02*
X009709Y022312D01*
X009709Y022213D02*
X009734Y022213D01*
X009734Y022115D02*
X009294Y022115D01*
X009709Y022016D02*
X009734Y022016D01*
X009734Y021918D02*
X009709Y021918D01*
X009687Y021819D02*
X009734Y021819D01*
X009734Y021721D02*
X009689Y021721D01*
X009689Y021622D02*
X009734Y021622D01*
X009734Y021524D02*
X009689Y021524D01*
X009689Y021425D02*
X009734Y021425D01*
X009734Y021327D02*
X009689Y021327D01*
X009674Y021228D02*
X009734Y021228D01*
X009734Y021130D02*
X009689Y021130D01*
X009914Y020937D02*
X009244Y020928D01*
X008063Y020928D01*
X008508Y020736D02*
X008799Y020736D01*
X008806Y020637D02*
X008502Y020637D01*
X007618Y021721D02*
X007542Y021721D01*
X007535Y021819D02*
X007621Y021819D01*
X007598Y021918D02*
X007535Y021918D01*
X007535Y022016D02*
X007598Y022016D01*
X007355Y021546D02*
X007355Y019638D01*
X007276Y018457D01*
X006843Y015898D01*
X004874Y007237D01*
X004085Y008522D02*
X003481Y008522D01*
X003572Y008620D02*
X004255Y008620D01*
X004580Y008719D02*
X003663Y008719D01*
X003755Y008817D02*
X005049Y008817D01*
X005071Y008916D02*
X003846Y008916D01*
X003937Y009014D02*
X005094Y009014D01*
X005116Y009113D02*
X004028Y009113D01*
X004119Y009211D02*
X005139Y009211D01*
X005161Y009310D02*
X004217Y009310D01*
X004268Y009408D02*
X005183Y009408D01*
X005206Y009507D02*
X004287Y009507D01*
X003929Y008423D02*
X003390Y008423D01*
X003299Y008325D02*
X003830Y008325D01*
X003732Y008226D02*
X003287Y008226D01*
X003289Y008128D02*
X003648Y008128D01*
X003591Y008029D02*
X003292Y008029D01*
X003294Y007931D02*
X003534Y007931D01*
X003477Y007832D02*
X003297Y007832D01*
X003299Y007734D02*
X003447Y007734D01*
X003420Y007635D02*
X003302Y007635D01*
X003304Y007537D02*
X003394Y007537D01*
X003367Y007438D02*
X003307Y007438D01*
X003309Y007340D02*
X003366Y007340D01*
X003366Y007241D02*
X003312Y007241D01*
X003314Y007143D02*
X003366Y007143D01*
X003366Y007044D02*
X003317Y007044D01*
X003320Y006946D02*
X003391Y006946D01*
X003418Y006847D02*
X003340Y006847D01*
X003388Y006749D02*
X003444Y006749D01*
X003437Y006650D02*
X003472Y006650D01*
X003485Y006552D02*
X003528Y006552D01*
X003533Y006453D02*
X003585Y006453D01*
X003581Y006355D02*
X003642Y006355D01*
X003918Y005665D02*
X006681Y005665D01*
X006680Y005567D02*
X003966Y005567D01*
X004014Y005468D02*
X006679Y005468D01*
X006678Y005370D02*
X004063Y005370D01*
X004352Y004779D02*
X004569Y004779D01*
X005204Y005764D02*
X006681Y005764D01*
X006682Y005862D02*
X005510Y005862D01*
X005681Y005961D02*
X006683Y005961D01*
X006684Y006059D02*
X005830Y006059D01*
X005928Y006158D02*
X006684Y006158D01*
X006685Y006256D02*
X006027Y006256D01*
X006107Y006355D02*
X006686Y006355D01*
X006686Y006453D02*
X006163Y006453D01*
X006220Y006552D02*
X006687Y006552D01*
X006688Y006650D02*
X006277Y006650D01*
X006305Y006749D02*
X006689Y006749D01*
X006689Y006847D02*
X006331Y006847D01*
X006358Y006946D02*
X006690Y006946D01*
X006691Y007044D02*
X006382Y007044D01*
X006382Y007143D02*
X006692Y007143D01*
X006692Y007241D02*
X006382Y007241D01*
X006382Y007340D02*
X006693Y007340D01*
X006694Y007438D02*
X006381Y007438D01*
X006355Y007537D02*
X006695Y007537D01*
X006695Y007635D02*
X006329Y007635D01*
X006302Y007734D02*
X006696Y007734D01*
X006697Y007832D02*
X006272Y007832D01*
X006215Y007931D02*
X006697Y007931D01*
X006698Y008029D02*
X006158Y008029D01*
X006101Y008128D02*
X006699Y008128D01*
X006700Y008226D02*
X006017Y008226D01*
X005919Y008325D02*
X006700Y008325D01*
X006701Y008423D02*
X005820Y008423D01*
X005664Y008522D02*
X006701Y008522D01*
X006703Y008620D02*
X005493Y008620D01*
X005396Y008719D02*
X006727Y008719D01*
X006747Y008817D02*
X005418Y008817D01*
X005441Y008916D02*
X006767Y008916D01*
X006786Y009014D02*
X005463Y009014D01*
X005485Y009113D02*
X006806Y009113D01*
X006825Y009211D02*
X005508Y009211D01*
X005530Y009310D02*
X006845Y009310D01*
X006865Y009408D02*
X005553Y009408D01*
X005575Y009507D02*
X006884Y009507D01*
X007173Y009113D02*
X010674Y009113D01*
X010674Y009211D02*
X007192Y009211D01*
X007212Y009310D02*
X010674Y009310D01*
X010674Y009408D02*
X007232Y009408D01*
X007251Y009507D02*
X010674Y009507D01*
X010674Y009014D02*
X007153Y009014D01*
X007134Y008916D02*
X010674Y008916D01*
X010674Y008817D02*
X007114Y008817D01*
X007094Y008719D02*
X008434Y008719D01*
X008159Y008620D02*
X007075Y008620D01*
X007062Y008522D02*
X007985Y008522D01*
X007849Y008423D02*
X007061Y008423D01*
X007060Y008325D02*
X007739Y008325D01*
X007647Y008226D02*
X007060Y008226D01*
X007059Y008128D02*
X007569Y008128D01*
X007504Y008029D02*
X007058Y008029D01*
X007057Y007931D02*
X007450Y007931D01*
X007404Y007832D02*
X007057Y007832D01*
X007056Y007734D02*
X007366Y007734D01*
X007336Y007635D02*
X007055Y007635D01*
X007055Y007537D02*
X007313Y007537D01*
X007296Y007438D02*
X007054Y007438D01*
X007053Y007340D02*
X007286Y007340D01*
X007041Y005665D02*
X012367Y005665D01*
X012394Y005567D02*
X007040Y005567D01*
X007039Y005468D02*
X012420Y005468D01*
X012436Y005370D02*
X007038Y005370D01*
X007038Y005271D02*
X012436Y005271D01*
X012436Y005173D02*
X007037Y005173D01*
X007036Y005074D02*
X012422Y005074D01*
X012395Y004976D02*
X007035Y004976D01*
X007035Y004877D02*
X012369Y004877D01*
X012318Y004779D02*
X009117Y004779D01*
X009436Y004680D02*
X012262Y004680D01*
X012191Y004582D02*
X009606Y004582D01*
X009760Y004483D02*
X012093Y004483D01*
X011972Y004385D02*
X009859Y004385D01*
X009957Y004286D02*
X011801Y004286D01*
X011061Y004188D02*
X010040Y004188D01*
X010097Y004089D02*
X010863Y004089D01*
X010764Y003991D02*
X010154Y003991D01*
X010210Y003892D02*
X010715Y003892D01*
X010674Y003794D02*
X010240Y003794D01*
X010267Y003695D02*
X010674Y003695D01*
X010674Y003597D02*
X010293Y003597D01*
X010319Y003498D02*
X010674Y003498D01*
X010674Y003400D02*
X010319Y003400D01*
X010319Y003301D02*
X010674Y003301D01*
X010674Y003203D02*
X010319Y003203D01*
X010319Y003104D02*
X010674Y003104D01*
X010674Y003006D02*
X010294Y003006D01*
X010267Y002907D02*
X010674Y002907D01*
X010674Y002809D02*
X010241Y002809D01*
X010212Y002710D02*
X010674Y002710D01*
X010674Y002612D02*
X010156Y002612D01*
X010099Y002513D02*
X010674Y002513D01*
X010674Y002415D02*
X010042Y002415D01*
X009961Y002316D02*
X010674Y002316D01*
X010674Y002218D02*
X009862Y002218D01*
X009764Y002119D02*
X010674Y002119D01*
X010674Y002021D02*
X009613Y002021D01*
X009442Y001922D02*
X010674Y001922D01*
X010674Y001824D02*
X009130Y001824D01*
X010674Y001725D02*
X003012Y001725D01*
X003012Y001627D02*
X010674Y001627D01*
X010674Y001528D02*
X003012Y001528D01*
X004874Y003300D02*
X003142Y006843D01*
X008761Y006847D02*
X008861Y006847D01*
X008861Y006749D02*
X008761Y006749D01*
X008761Y006650D02*
X008861Y006650D01*
X008861Y006552D02*
X008761Y006552D01*
X008761Y006453D02*
X008861Y006453D01*
X008861Y006355D02*
X008761Y006355D01*
X008761Y006256D02*
X008861Y006256D01*
X008861Y006158D02*
X008761Y006158D01*
X008761Y006059D02*
X008861Y006059D01*
X008861Y005961D02*
X008761Y005961D01*
X008761Y005862D02*
X008861Y005862D01*
X008861Y005764D02*
X008761Y005764D01*
X009220Y005764D02*
X012315Y005764D01*
X012258Y005862D02*
X009482Y005862D01*
X009652Y005961D02*
X012185Y005961D01*
X012086Y006059D02*
X009786Y006059D01*
X009894Y006158D02*
X011961Y006158D01*
X011790Y006256D02*
X009984Y006256D01*
X010060Y006355D02*
X011045Y006355D01*
X010856Y006453D02*
X010125Y006453D01*
X010178Y006552D02*
X010758Y006552D01*
X010712Y006650D02*
X010222Y006650D01*
X010260Y006749D02*
X010674Y006749D01*
X010674Y006847D02*
X010290Y006847D01*
X010311Y006946D02*
X010674Y006946D01*
X010674Y007044D02*
X010328Y007044D01*
X010338Y007143D02*
X010674Y007143D01*
X010674Y007241D02*
X008861Y007241D01*
X008861Y007143D02*
X008761Y007143D01*
X008761Y007044D02*
X008861Y007044D01*
X008861Y006946D02*
X008761Y006946D01*
X008761Y007340D02*
X008861Y007340D01*
X008861Y007438D02*
X008761Y007438D01*
X008761Y007537D02*
X008861Y007537D01*
X008861Y007635D02*
X008761Y007635D01*
X008761Y007734D02*
X008861Y007734D01*
X008861Y007832D02*
X008761Y007832D01*
X008761Y007931D02*
X008861Y007931D01*
X008861Y008029D02*
X008761Y008029D01*
X008761Y008128D02*
X008861Y008128D01*
X008861Y008226D02*
X008761Y008226D01*
X008761Y008325D02*
X008861Y008325D01*
X008861Y008423D02*
X008761Y008423D01*
X008761Y008522D02*
X008861Y008522D01*
X008861Y008620D02*
X008761Y008620D01*
X008761Y008719D02*
X008861Y008719D01*
X009189Y008719D02*
X010674Y008719D01*
X010674Y008620D02*
X009463Y008620D01*
X009638Y008522D02*
X010674Y008522D01*
X010674Y008423D02*
X009774Y008423D01*
X009884Y008325D02*
X010674Y008325D01*
X010674Y008226D02*
X009976Y008226D01*
X010054Y008128D02*
X010674Y008128D01*
X010674Y008029D02*
X010119Y008029D01*
X010173Y007931D02*
X010674Y007931D01*
X010674Y007832D02*
X010218Y007832D01*
X010257Y007734D02*
X010674Y007734D01*
X010674Y007635D02*
X010287Y007635D01*
X010310Y007537D02*
X010674Y007537D01*
X010674Y007438D02*
X010327Y007438D01*
X010337Y007340D02*
X010674Y007340D01*
X006882Y020307D02*
X006882Y020928D01*
X006437Y021721D02*
X006354Y021721D01*
X006354Y021819D02*
X006439Y021819D01*
X006417Y021918D02*
X006354Y021918D01*
X006354Y022016D02*
X006417Y022016D01*
X006600Y022706D02*
X006620Y022706D01*
X006926Y022903D02*
X007016Y022903D01*
X007013Y022804D02*
X007111Y022804D01*
X007204Y022706D02*
X007283Y022706D01*
X007422Y023181D02*
X007441Y023181D01*
X007441Y024382D01*
X007114Y024380D02*
X006768Y024380D01*
X006768Y024282D02*
X007114Y024282D01*
X007114Y024183D02*
X006768Y024183D01*
X006768Y024085D02*
X007114Y024085D01*
X007114Y023986D02*
X006768Y023986D01*
X006721Y023888D02*
X007161Y023888D01*
X007261Y023789D02*
X006621Y023789D01*
X006621Y023691D02*
X007261Y023691D01*
X007145Y023592D02*
X006737Y023592D01*
X006836Y023494D02*
X007047Y023494D01*
X006985Y023395D02*
X006894Y023395D01*
X006935Y023297D02*
X006948Y023297D01*
X006941Y023198D02*
X006941Y023198D01*
X006941Y023100D02*
X006941Y023100D01*
X006962Y023001D02*
X006908Y023001D01*
X007441Y023181D02*
X008181Y022630D01*
X009914Y022630D01*
X009914Y020937D01*
X008094Y025858D02*
X007768Y025858D01*
X007768Y025956D02*
X008094Y025956D01*
X008094Y026055D02*
X007768Y026055D01*
X007744Y026153D02*
X008116Y026153D01*
X007231Y025070D02*
X006651Y025070D01*
X006651Y024971D02*
X007231Y024971D01*
X007158Y024873D02*
X006725Y024873D01*
X006768Y024774D02*
X007114Y024774D01*
X007114Y024676D02*
X006768Y024676D01*
X006768Y024577D02*
X007114Y024577D01*
X007114Y024479D02*
X006768Y024479D01*
X006703Y025168D02*
X007180Y025168D01*
X007114Y025267D02*
X006768Y025267D01*
X006768Y025365D02*
X007114Y025365D01*
X007114Y025464D02*
X006768Y025464D01*
X006768Y025562D02*
X007114Y025562D01*
X007114Y025661D02*
X006768Y025661D01*
X006768Y025759D02*
X007114Y025759D01*
X007114Y025858D02*
X006768Y025858D01*
X006768Y025956D02*
X007114Y025956D01*
X007114Y026055D02*
X006768Y026055D01*
X006744Y026153D02*
X007139Y026153D01*
D17*
X011370Y023772D03*
X011370Y005268D03*
X002315Y005268D03*
X002315Y023772D03*
D18*
X004520Y020307D03*
X006882Y020307D03*
X009048Y019481D03*
M02*
