G75*
%MOIN*%
%OFA0B0*%
%FSLAX24Y24*%
%IPPOS*%
%LPD*%
%AMOC8*
5,1,8,0,0,1.08239X$1,22.5*
%
%ADD10C,0.0030*%
%ADD11C,0.0100*%
%ADD12C,0.0040*%
%ADD13C,0.0070*%
%ADD14C,0.0060*%
D10*
X003937Y020081D02*
X004082Y020081D01*
X004082Y020371D01*
X003937Y020371D01*
X003888Y020323D01*
X003888Y020275D01*
X003937Y020226D01*
X004082Y020226D01*
X003937Y020226D02*
X003888Y020178D01*
X003888Y020130D01*
X003937Y020081D01*
X004183Y020081D02*
X004376Y020081D01*
X004280Y020081D02*
X004280Y020371D01*
X004376Y020275D01*
X004478Y020323D02*
X004526Y020371D01*
X004623Y020371D01*
X004671Y020323D01*
X004671Y020130D01*
X004623Y020081D01*
X004526Y020081D01*
X004478Y020130D01*
X004772Y020081D02*
X004772Y020371D01*
X004966Y020371D02*
X004772Y020081D01*
X004966Y020081D02*
X004966Y020371D01*
X005207Y020323D02*
X005207Y020275D01*
X005255Y020226D01*
X005400Y020226D01*
X005502Y020275D02*
X005502Y020323D01*
X005550Y020371D01*
X005647Y020371D01*
X005695Y020323D01*
X005795Y020371D02*
X005892Y020371D01*
X005843Y020371D02*
X005843Y020081D01*
X005795Y020081D02*
X005892Y020081D01*
X005993Y020130D02*
X005993Y020323D01*
X006041Y020371D01*
X006186Y020371D01*
X006186Y020081D01*
X006041Y020081D01*
X005993Y020130D01*
X005695Y020081D02*
X005502Y020275D01*
X005400Y020371D02*
X005255Y020371D01*
X005207Y020323D01*
X005255Y020226D02*
X005207Y020178D01*
X005207Y020130D01*
X005255Y020081D01*
X005400Y020081D01*
X005400Y020371D01*
X005502Y020081D02*
X005695Y020081D01*
X006427Y020130D02*
X006476Y020081D01*
X006621Y020081D01*
X006621Y020371D01*
X006476Y020371D01*
X006427Y020323D01*
X006427Y020275D01*
X006476Y020226D01*
X006621Y020226D01*
X006722Y020081D02*
X006916Y020081D01*
X006819Y020081D02*
X006819Y020371D01*
X006916Y020275D01*
X007015Y020371D02*
X007112Y020371D01*
X007064Y020371D02*
X007064Y020081D01*
X007112Y020081D02*
X007015Y020081D01*
X007213Y020130D02*
X007213Y020323D01*
X007262Y020371D01*
X007407Y020371D01*
X007407Y020081D01*
X007262Y020081D01*
X007213Y020130D01*
X007668Y020130D02*
X007716Y020081D01*
X007861Y020081D01*
X007861Y020371D01*
X007716Y020371D01*
X007668Y020323D01*
X007668Y020275D01*
X007716Y020226D01*
X007861Y020226D01*
X007962Y020275D02*
X007962Y020323D01*
X008011Y020371D01*
X008108Y020371D01*
X008156Y020323D01*
X008257Y020371D02*
X008257Y020081D01*
X008451Y020371D01*
X008451Y020081D01*
X008552Y020081D02*
X008552Y020275D01*
X008648Y020371D01*
X008745Y020275D01*
X008745Y020081D01*
X008745Y020226D02*
X008552Y020226D01*
X008967Y020178D02*
X008967Y020130D01*
X009015Y020081D01*
X009160Y020081D01*
X009160Y020371D01*
X009015Y020371D01*
X008967Y020323D01*
X008967Y020275D01*
X009015Y020226D01*
X009160Y020226D01*
X009015Y020226D02*
X008967Y020178D01*
X009262Y020081D02*
X009455Y020081D01*
X009358Y020081D02*
X009358Y020371D01*
X009455Y020275D01*
X009556Y020371D02*
X009556Y020081D01*
X009750Y020371D01*
X009750Y020081D01*
X009851Y020081D02*
X009851Y020275D01*
X009948Y020371D01*
X010044Y020275D01*
X010044Y020081D01*
X010044Y020226D02*
X009851Y020226D01*
X008156Y020081D02*
X007962Y020275D01*
X007962Y020081D02*
X008156Y020081D01*
X007716Y020226D02*
X007668Y020178D01*
X007668Y020130D01*
X006476Y020226D02*
X006427Y020178D01*
X006427Y020130D01*
X003993Y022024D02*
X003945Y021976D01*
X003848Y021976D01*
X003800Y022024D01*
X003800Y022121D01*
X003897Y022121D01*
X003993Y022218D02*
X003993Y022024D01*
X003993Y022218D02*
X003945Y022266D01*
X003848Y022266D01*
X003800Y022218D01*
X003699Y022266D02*
X003505Y021976D01*
X003505Y022266D01*
X003404Y022266D02*
X003259Y022266D01*
X003210Y022218D01*
X003210Y022024D01*
X003259Y021976D01*
X003404Y021976D01*
X003404Y022266D01*
X003699Y022266D02*
X003699Y021976D01*
X003721Y021006D02*
X003721Y020813D01*
X003818Y020716D01*
X003915Y020813D01*
X003915Y021006D01*
X003620Y020958D02*
X003620Y020765D01*
X003572Y020716D01*
X003475Y020716D01*
X003426Y020765D01*
X003325Y020765D02*
X003325Y020958D01*
X003277Y021006D01*
X003180Y021006D01*
X003132Y020958D01*
X003132Y020765D02*
X003180Y020716D01*
X003277Y020716D01*
X003325Y020765D01*
X003426Y020958D02*
X003475Y021006D01*
X003572Y021006D01*
X003620Y020958D01*
X003589Y023866D02*
X003836Y023866D01*
X003712Y023866D02*
X003712Y024236D01*
X003836Y024113D01*
X004037Y026228D02*
X004231Y026228D01*
X004134Y026228D02*
X004134Y026518D01*
X004231Y026421D01*
X004332Y026470D02*
X004380Y026518D01*
X004477Y026518D01*
X004525Y026470D01*
X004525Y026276D01*
X004477Y026228D01*
X004380Y026228D01*
X004332Y026276D01*
X004627Y026228D02*
X004627Y026518D01*
X004820Y026518D02*
X004627Y026228D01*
X004820Y026228D02*
X004820Y026518D01*
X005080Y026591D02*
X005080Y026688D01*
X005177Y026688D01*
X005080Y026591D02*
X005129Y026543D01*
X005225Y026543D01*
X005274Y026591D01*
X005274Y026785D01*
X005225Y026833D01*
X005129Y026833D01*
X005080Y026785D01*
X005374Y026833D02*
X005470Y026833D01*
X005422Y026833D02*
X005422Y026543D01*
X005470Y026543D02*
X005374Y026543D01*
X005571Y026591D02*
X005571Y026785D01*
X005620Y026833D01*
X005765Y026833D01*
X005765Y026543D01*
X005620Y026543D01*
X005571Y026591D01*
X006124Y026421D02*
X006124Y026228D01*
X006124Y026373D02*
X006317Y026373D01*
X006317Y026421D02*
X006221Y026518D01*
X006124Y026421D01*
X006317Y026421D02*
X006317Y026228D01*
X006419Y026228D02*
X006419Y026518D01*
X006612Y026518D02*
X006419Y026228D01*
X006612Y026228D02*
X006612Y026518D01*
X006713Y026421D02*
X006713Y026228D01*
X006713Y026373D02*
X006907Y026373D01*
X006907Y026421D02*
X006810Y026518D01*
X006713Y026421D01*
X006907Y026421D02*
X006907Y026228D01*
X007117Y026543D02*
X007069Y026591D01*
X007117Y026543D02*
X007214Y026543D01*
X007262Y026591D01*
X007262Y026785D01*
X007214Y026833D01*
X007117Y026833D01*
X007069Y026785D01*
X007363Y026785D02*
X007412Y026833D01*
X007509Y026833D01*
X007557Y026785D01*
X007557Y026591D01*
X007509Y026543D01*
X007412Y026543D01*
X007363Y026591D01*
X007658Y026640D02*
X007658Y026833D01*
X007658Y026640D02*
X007755Y026543D01*
X007852Y026640D01*
X007852Y026833D01*
X008180Y026518D02*
X008132Y026470D01*
X008132Y026276D01*
X008180Y026228D01*
X008325Y026228D01*
X008325Y026518D01*
X008180Y026518D01*
X008426Y026518D02*
X008426Y026228D01*
X008620Y026518D01*
X008620Y026228D01*
X008721Y026276D02*
X008721Y026373D01*
X008818Y026373D01*
X008915Y026276D02*
X008866Y026228D01*
X008769Y026228D01*
X008721Y026276D01*
X008721Y026470D02*
X008769Y026518D01*
X008866Y026518D01*
X008915Y026470D01*
X008915Y026276D01*
X009037Y026543D02*
X009231Y026543D01*
X009037Y026736D01*
X009037Y026785D01*
X009086Y026833D01*
X009182Y026833D01*
X009231Y026785D01*
X009332Y026785D02*
X009380Y026833D01*
X009477Y026833D01*
X009525Y026785D01*
X009525Y026591D01*
X009477Y026543D01*
X009380Y026543D01*
X009332Y026591D01*
X009627Y026543D02*
X009627Y026833D01*
X009820Y026833D02*
X009627Y026543D01*
X009820Y026543D02*
X009820Y026833D01*
D11*
X009953Y021646D02*
X009835Y021528D01*
X009953Y021410D01*
X009835Y021528D02*
X010229Y021528D01*
X010229Y020229D01*
X010111Y020229D01*
D12*
X003724Y001144D02*
X003417Y001144D01*
X003724Y001144D02*
X003724Y001605D01*
X003877Y001451D02*
X003877Y001144D01*
X003877Y001375D02*
X004184Y001375D01*
X004184Y001451D02*
X004031Y001605D01*
X003877Y001451D01*
X004184Y001451D02*
X004184Y001144D01*
X004491Y001144D02*
X004491Y001605D01*
X004338Y001605D02*
X004645Y001605D01*
X004798Y001605D02*
X004951Y001605D01*
X004875Y001605D02*
X004875Y001144D01*
X004951Y001144D02*
X004798Y001144D01*
X005105Y001221D02*
X005182Y001144D01*
X005335Y001144D01*
X005412Y001221D01*
X005412Y001528D01*
X005335Y001605D01*
X005182Y001605D01*
X005105Y001528D01*
X005105Y001375D02*
X005258Y001375D01*
X005105Y001375D02*
X005105Y001221D01*
X005565Y001144D02*
X005719Y001144D01*
X005642Y001144D02*
X005642Y001605D01*
X005719Y001605D02*
X005565Y001605D01*
X005872Y001528D02*
X005872Y001221D01*
X005949Y001144D01*
X006179Y001144D01*
X006179Y001605D01*
X005949Y001605D01*
X005872Y001528D01*
X008351Y001528D02*
X008428Y001605D01*
X008581Y001605D01*
X008658Y001528D01*
X008658Y001221D01*
X008581Y001144D01*
X008428Y001144D01*
X008351Y001221D01*
X008811Y001221D02*
X008888Y001144D01*
X009042Y001144D01*
X009118Y001221D01*
X009118Y001528D01*
X009042Y001605D01*
X008888Y001605D01*
X008811Y001528D01*
X009272Y001605D02*
X009272Y001298D01*
X009425Y001144D01*
X009579Y001298D01*
X009579Y001605D01*
X009502Y008831D02*
X009349Y008831D01*
X009272Y008908D01*
X009272Y009062D01*
X009425Y009062D01*
X009272Y009215D02*
X009349Y009292D01*
X009502Y009292D01*
X009579Y009215D01*
X009579Y008908D01*
X009502Y008831D01*
X009118Y008831D02*
X009118Y009292D01*
X008811Y008831D01*
X008811Y009292D01*
X008658Y009292D02*
X008658Y008831D01*
X008428Y008831D01*
X008351Y008908D01*
X008351Y009215D01*
X008428Y009292D01*
X008658Y009292D01*
X006429Y009138D02*
X006429Y008831D01*
X006429Y009062D02*
X006122Y009062D01*
X006122Y009138D02*
X006122Y008831D01*
X005969Y008831D02*
X005969Y009292D01*
X005662Y008831D01*
X005662Y009292D01*
X005508Y009138D02*
X005508Y008831D01*
X005508Y009062D02*
X005201Y009062D01*
X005201Y009138D02*
X005201Y008831D01*
X005048Y008831D02*
X005048Y009292D01*
X005201Y009138D02*
X005355Y009292D01*
X005508Y009138D01*
X005048Y008831D02*
X004741Y008831D01*
X004588Y008908D02*
X004588Y009215D01*
X004511Y009292D01*
X004357Y009292D01*
X004281Y009215D01*
X004281Y008908D01*
X004357Y008831D01*
X004511Y008831D01*
X004588Y008908D01*
X004127Y008908D02*
X004051Y008831D01*
X003897Y008831D01*
X003820Y008908D01*
X003820Y009062D01*
X003974Y009062D01*
X004127Y009215D02*
X004051Y009292D01*
X003897Y009292D01*
X003820Y009215D01*
X004127Y009215D02*
X004127Y008908D01*
X006122Y009138D02*
X006276Y009292D01*
X006429Y009138D01*
D13*
X006131Y024540D02*
X005752Y024540D01*
X005752Y025540D02*
X006131Y025540D01*
X006752Y025540D02*
X007131Y025540D01*
X007131Y024540D02*
X006752Y024540D01*
X007752Y024540D02*
X008131Y024540D01*
X008131Y025540D02*
X007752Y025540D01*
X008752Y025540D02*
X009131Y025540D01*
X009131Y024540D02*
X008752Y024540D01*
X009717Y024540D02*
X009981Y024540D01*
X009981Y025524D01*
X009717Y025524D01*
X005131Y025540D02*
X004752Y025540D01*
X004752Y024540D02*
X005131Y024540D01*
X004154Y024540D02*
X003902Y024540D01*
X003902Y025524D01*
X004154Y025524D01*
D14*
X004220Y022478D02*
X004820Y022478D01*
X004837Y022476D01*
X004854Y022472D01*
X004870Y022465D01*
X004884Y022455D01*
X004897Y022442D01*
X004907Y022428D01*
X004914Y022412D01*
X004918Y022395D01*
X004920Y022378D01*
X004920Y020678D01*
X004918Y020661D01*
X004914Y020644D01*
X004907Y020628D01*
X004897Y020614D01*
X004884Y020601D01*
X004870Y020591D01*
X004854Y020584D01*
X004837Y020580D01*
X004820Y020578D01*
X004220Y020578D01*
X004203Y020580D01*
X004186Y020584D01*
X004170Y020591D01*
X004156Y020601D01*
X004143Y020614D01*
X004133Y020628D01*
X004126Y020644D01*
X004122Y020661D01*
X004120Y020678D01*
X004120Y022378D01*
X004122Y022395D01*
X004126Y022412D01*
X004133Y022428D01*
X004143Y022442D01*
X004156Y022455D01*
X004170Y022465D01*
X004186Y022472D01*
X004203Y022476D01*
X004220Y022478D01*
X005301Y022378D02*
X005301Y020678D01*
X005303Y020661D01*
X005307Y020644D01*
X005314Y020628D01*
X005324Y020614D01*
X005337Y020601D01*
X005351Y020591D01*
X005367Y020584D01*
X005384Y020580D01*
X005401Y020578D01*
X006001Y020578D01*
X006018Y020580D01*
X006035Y020584D01*
X006051Y020591D01*
X006065Y020601D01*
X006078Y020614D01*
X006088Y020628D01*
X006095Y020644D01*
X006099Y020661D01*
X006101Y020678D01*
X006101Y022378D01*
X006099Y022395D01*
X006095Y022412D01*
X006088Y022428D01*
X006078Y022442D01*
X006065Y022455D01*
X006051Y022465D01*
X006035Y022472D01*
X006018Y022476D01*
X006001Y022478D01*
X005401Y022478D01*
X005384Y022476D01*
X005367Y022472D01*
X005351Y022465D01*
X005337Y022455D01*
X005324Y022442D01*
X005314Y022428D01*
X005307Y022412D01*
X005303Y022395D01*
X005301Y022378D01*
X006482Y022378D02*
X006482Y020678D01*
X006484Y020661D01*
X006488Y020644D01*
X006495Y020628D01*
X006505Y020614D01*
X006518Y020601D01*
X006532Y020591D01*
X006548Y020584D01*
X006565Y020580D01*
X006582Y020578D01*
X007182Y020578D01*
X007199Y020580D01*
X007216Y020584D01*
X007232Y020591D01*
X007246Y020601D01*
X007259Y020614D01*
X007269Y020628D01*
X007276Y020644D01*
X007280Y020661D01*
X007282Y020678D01*
X007282Y022378D01*
X007280Y022395D01*
X007276Y022412D01*
X007269Y022428D01*
X007259Y022442D01*
X007246Y022455D01*
X007232Y022465D01*
X007216Y022472D01*
X007199Y022476D01*
X007182Y022478D01*
X006582Y022478D01*
X006565Y022476D01*
X006548Y022472D01*
X006532Y022465D01*
X006518Y022455D01*
X006505Y022442D01*
X006495Y022428D01*
X006488Y022412D01*
X006484Y022395D01*
X006482Y022378D01*
X007663Y022378D02*
X007663Y020678D01*
X007665Y020661D01*
X007669Y020644D01*
X007676Y020628D01*
X007686Y020614D01*
X007699Y020601D01*
X007713Y020591D01*
X007729Y020584D01*
X007746Y020580D01*
X007763Y020578D01*
X008363Y020578D01*
X008380Y020580D01*
X008397Y020584D01*
X008413Y020591D01*
X008427Y020601D01*
X008440Y020614D01*
X008450Y020628D01*
X008457Y020644D01*
X008461Y020661D01*
X008463Y020678D01*
X008463Y022378D01*
X008461Y022395D01*
X008457Y022412D01*
X008450Y022428D01*
X008440Y022442D01*
X008427Y022455D01*
X008413Y022465D01*
X008397Y022472D01*
X008380Y022476D01*
X008363Y022478D01*
X007763Y022478D01*
X007746Y022476D01*
X007729Y022472D01*
X007713Y022465D01*
X007699Y022455D01*
X007686Y022442D01*
X007676Y022428D01*
X007669Y022412D01*
X007665Y022395D01*
X007663Y022378D01*
X008844Y022378D02*
X008844Y020678D01*
X008846Y020661D01*
X008850Y020644D01*
X008857Y020628D01*
X008867Y020614D01*
X008880Y020601D01*
X008894Y020591D01*
X008910Y020584D01*
X008927Y020580D01*
X008944Y020578D01*
X009544Y020578D01*
X009561Y020580D01*
X009578Y020584D01*
X009594Y020591D01*
X009608Y020601D01*
X009621Y020614D01*
X009631Y020628D01*
X009638Y020644D01*
X009642Y020661D01*
X009644Y020678D01*
X009644Y022378D01*
X009642Y022395D01*
X009638Y022412D01*
X009631Y022428D01*
X009621Y022442D01*
X009608Y022455D01*
X009594Y022465D01*
X009578Y022472D01*
X009561Y022476D01*
X009544Y022478D01*
X008944Y022478D01*
X008927Y022476D01*
X008910Y022472D01*
X008894Y022465D01*
X008880Y022455D01*
X008867Y022442D01*
X008857Y022428D01*
X008850Y022412D01*
X008846Y022395D01*
X008844Y022378D01*
M02*
