  0
SECTION
  2
HEADER
  9
$ACADVER
  1
AC1014
  9
$HANDSEED
  5
FFFF
  9
$MEASUREMENT
 70
     1
  0
ENDSEC
  0
SECTION
  2
TABLES
  0
TABLE
  2
VPORT
  5
8
330
0
100
AcDbSymbolTable
 70
     4
  0
VPORT
  5
2E
330
8
100
AcDbSymbolTableRecord
100
AcDbViewportTableRecord
  2
*ACTIVE
 70
     0
 10
0.0
 20
0.0
 11
1.0
 21
1.0
 12
210.0
 22
148.5
 13
0.0
 23
0.0
 14
10.0
 24
10.0
 15
10.0
 25
10.0
 16
0.0
 26
0.0
 36
1.0
 17
0.0
 27
0.0
 37
0.0
 40
341.0
 41
1.24
 42
50.0
 43
0.0
 44
0.0
 50
0.0
 51
0.0
 71
     0
 72
   100
 73
     1
 74
     3
 75
     0
 76
     0
 77
     0
 78
     0
  0
ENDTAB
  0
TABLE
  2
LTYPE
  5
5
330
0
100
AcDbSymbolTable
 70
     1
  0
LTYPE
  5
14
330
5
100
AcDbSymbolTableRecord
100
AcDbLinetypeTableRecord
  2
BYBLOCK
 70
     0
  3

 72
    65
 73
     0
 40
0.0
  0
LTYPE
  5
15
330
5
100
AcDbSymbolTableRecord
100
AcDbLinetypeTableRecord
  2
BYLAYER
 70
     0
  3

 72
    65
 73
     0
 40
0.0
  0
LTYPE
  5
16
330
5
100
AcDbSymbolTableRecord
100
AcDbLinetypeTableRecord
  2
CONTINUOUS
 70
     0
  3
Solid line
 72
    65
 73
     0
 40
0.0
  0
ENDTAB
  0
TABLE
  2
LAYER
  5
2
100
AcDbSymbolTable
 70
1
  0
LAYER
  5
50
100
AcDbSymbolTableRecord
100
AcDbLayerTableRecord
  2
0
 70
0
  6
CONTINUOUS
  0
ENDTAB
  0
TABLE
  2
STYLE
  5
3
330
0
100
AcDbSymbolTable
 70
     1
  0
STYLE
  5
11
330
3
100
AcDbSymbolTableRecord
100
AcDbTextStyleTableRecord
  2
STANDARD
 70
     0
 40
0.0
 41
1.0
 50
0.0
 71
     0
 42
2.5
  3
txt
  4

  0
ENDTAB
  0
TABLE
  2
VIEW
  5
6
330
0
100
AcDbSymbolTable
 70
     0
  0
ENDTAB
  0
TABLE
  2
UCS
  5
7
330
0
100
AcDbSymbolTable
 70
     0
  0
ENDTAB
  0
TABLE
  2
APPID
  5
9
330
0
100
AcDbSymbolTable
 70
     2
  0
APPID
  5
12
330
9
100
AcDbSymbolTableRecord
100
AcDbRegAppTableRecord
  2
ACAD
 70
     0
  0
ENDTAB
  0
TABLE
  2
DIMSTYLE
  5
A
330
0
100
AcDbSymbolTable
 70
     1
  0
DIMSTYLE
105
27
330
A
100
AcDbSymbolTableRecord
100
AcDbDimStyleTableRecord
  2
ISO-25
 70
     0
  3

  4

  5

  6

  7

 40
1.0
 41
2.5
 42
0.625
 43
3.75
 44
1.25
 45
0.0
 46
0.0
 47
0.0
 48
0.0
140
2.5
141
2.5
142
0.0
143
0.03937007874016
144
1.0
145
0.0
146
1.0
147
0.625
 71
     0
 72
     0
 73
     0
 74
     0
 75
     0
 76
     0
 77
     1
 78
     8
170
     0
171
     3
172
     1
173
     0
174
     0
175
     0
176
     0
177
     0
178
     0
270
     2
271
     2
272
     2
273
     2
274
     3
340
11
275
     0
280
     0
281
     0
282
     0
283
     0
284
     8
285
     0
286
     0
287
     3
288
     0
  0
ENDTAB
  0
TABLE
  2
BLOCK_RECORD
  5
1
330
0
100
AcDbSymbolTable
 70
     1
  0
BLOCK_RECORD
  5
1F
330
1
100
AcDbSymbolTableRecord
100
AcDbBlockTableRecord
  2
*MODEL_SPACE
  0
BLOCK_RECORD
  5
1B
330
1
100
AcDbSymbolTableRecord
100
AcDbBlockTableRecord
  2
*PAPER_SPACE
  0
ENDTAB
  0
ENDSEC
  0
SECTION
  2
BLOCKS
  0
BLOCK
  5
20
330
1F
100
AcDbEntity
  8
0
100
AcDbBlockBegin
  2
*MODEL_SPACE
 70
     0
 10
0.0
 20
0.0
 30
0.0
  3
*MODEL_SPACE
  1

  0
ENDBLK
  5
21
330
1F
100
AcDbEntity
  8
0
100
AcDbBlockEnd
  0
BLOCK
  5
1C
330
1B
100
AcDbEntity
 67
     1
  8
0
100
AcDbBlockBegin
  2
*PAPER_SPACE
  1

  0
ENDBLK
  5
1D
330
1B
100
AcDbEntity
 67
     1
  8
0
100
AcDbBlockEnd
  0
ENDSEC
  0
SECTION
  2
ENTITIES
  0
SPLINE
  5
100
100
AcDbEntity
  8
0
 62
1
100
AcDbSpline
 70
8
 71
3
 72
8
 73
4
 74
0
 40
0
 40
0
 40
0
 40
0
 40
1
 40
1
 40
1
 40
1
 10
64.448092
 20
75.747626
 30
0.0
 10
64.448092
 20
72.462384
 30
0.0
 10
61.806667
 20
69.820959
 30
0.0
 10
58.521425
 20
69.820959
 30
0.0
  0
SPLINE
  5
101
100
AcDbEntity
  8
0
 62
1
100
AcDbSpline
 70
8
 71
3
 72
8
 73
4
 74
0
 40
0
 40
0
 40
0
 40
0
 40
1
 40
1
 40
1
 40
1
 10
58.521425
 20
69.820959
 30
0.0
 10
55.236181
 20
69.820959
 30
0.0
 10
52.594758
 20
72.462384
 30
0.0
 10
52.594758
 20
75.747626
 30
0.0
  0
SPLINE
  5
102
100
AcDbEntity
  8
0
 62
1
100
AcDbSpline
 70
8
 71
3
 72
8
 73
4
 74
0
 40
0
 40
0
 40
0
 40
0
 40
1
 40
1
 40
1
 40
1
 10
52.594758
 20
75.747626
 30
0.0
 10
52.594758
 20
79.032870
 30
0.0
 10
55.236181
 20
81.674293
 30
0.0
 10
58.521425
 20
81.674293
 30
0.0
  0
SPLINE
  5
103
100
AcDbEntity
  8
0
 62
1
100
AcDbSpline
 70
8
 71
3
 72
8
 73
4
 74
0
 40
0
 40
0
 40
0
 40
0
 40
1
 40
1
 40
1
 40
1
 10
58.521425
 20
81.674293
 30
0.0
 10
61.806667
 20
81.674293
 30
0.0
 10
64.448092
 20
79.032870
 30
0.0
 10
64.448092
 20
75.747626
 30
0.0
  0
SPLINE
  5
104
100
AcDbEntity
  8
0
 62
1
100
AcDbSpline
 70
8
 71
3
 72
8
 73
4
 74
0
 40
0
 40
0
 40
0
 40
0
 40
1
 40
1
 40
1
 40
1
 10
177.190352
 20
75.747626
 30
0.0
 10
177.190352
 20
72.462384
 30
0.0
 10
174.548935
 20
69.820959
 30
0.0
 10
171.263685
 20
69.820959
 30
0.0
  0
SPLINE
  5
105
100
AcDbEntity
  8
0
 62
1
100
AcDbSpline
 70
8
 71
3
 72
8
 73
4
 74
0
 40
0
 40
0
 40
0
 40
0
 40
1
 40
1
 40
1
 40
1
 10
171.263685
 20
69.820959
 30
0.0
 10
167.978444
 20
69.820959
 30
0.0
 10
165.337019
 20
72.462384
 30
0.0
 10
165.337019
 20
75.747626
 30
0.0
  0
SPLINE
  5
106
100
AcDbEntity
  8
0
 62
1
100
AcDbSpline
 70
8
 71
3
 72
8
 73
4
 74
0
 40
0
 40
0
 40
0
 40
0
 40
1
 40
1
 40
1
 40
1
 10
165.337019
 20
75.747626
 30
0.0
 10
165.337019
 20
79.032870
 30
0.0
 10
167.978444
 20
81.674293
 30
0.0
 10
171.263685
 20
81.674293
 30
0.0
  0
SPLINE
  5
107
100
AcDbEntity
  8
0
 62
1
100
AcDbSpline
 70
8
 71
3
 72
8
 73
4
 74
0
 40
0
 40
0
 40
0
 40
0
 40
1
 40
1
 40
1
 40
1
 10
171.263685
 20
81.674293
 30
0.0
 10
174.548935
 20
81.674293
 30
0.0
 10
177.190352
 20
79.032870
 30
0.0
 10
177.190352
 20
75.747626
 30
0.0
  0
LWPOLYLINE
  5
108
100
AcDbEntity
  8
0
 62
1
100
AcDbPolyline
 90
2
 70
0
 10
64.448092
 20
75.747626
 30
0.0
 10
64.448092
 20
75.747626
 30
0.0
  0
SPLINE
  5
109
100
AcDbEntity
  8
0
 62
1
100
AcDbSpline
 70
8
 71
3
 72
8
 73
4
 74
0
 40
0
 40
0
 40
0
 40
0
 40
1
 40
1
 40
1
 40
1
 10
68.918444
 20
79.743935
 30
0.0
 10
68.918444
 20
78.423222
 30
0.0
 10
67.834758
 20
77.339537
 30
0.0
 10
66.514046
 20
77.339537
 30
0.0
  0
SPLINE
  5
10a
100
AcDbEntity
  8
0
 62
1
100
AcDbSpline
 70
8
 71
3
 72
8
 73
4
 74
0
 40
0
 40
0
 40
0
 40
0
 40
1
 40
1
 40
1
 40
1
 10
66.514046
 20
77.339537
 30
0.0
 10
65.193333
 20
77.339537
 30
0.0
 10
64.109645
 20
78.423222
 30
0.0
 10
64.109645
 20
79.743935
 30
0.0
  0
SPLINE
  5
10b
100
AcDbEntity
  8
0
 62
1
100
AcDbSpline
 70
8
 71
3
 72
8
 73
4
 74
0
 40
0
 40
0
 40
0
 40
0
 40
1
 40
1
 40
1
 40
1
 10
64.109645
 20
79.743935
 30
0.0
 10
64.109645
 20
81.064648
 30
0.0
 10
65.193333
 20
82.148339
 30
0.0
 10
66.514046
 20
82.148339
 30
0.0
  0
SPLINE
  5
10c
100
AcDbEntity
  8
0
 62
1
100
AcDbSpline
 70
8
 71
3
 72
8
 73
4
 74
0
 40
0
 40
0
 40
0
 40
0
 40
1
 40
1
 40
1
 40
1
 10
66.514046
 20
82.148339
 30
0.0
 10
67.834758
 20
82.148339
 30
0.0
 10
68.918444
 20
81.064648
 30
0.0
 10
68.918444
 20
79.743935
 30
0.0
  0
LWPOLYLINE
  5
10d
100
AcDbEntity
  8
0
 62
1
100
AcDbPolyline
 90
2
 70
0
 10
177.190352
 20
75.747626
 30
0.0
 10
177.190352
 20
75.747626
 30
0.0
  0
SPLINE
  5
10e
100
AcDbEntity
  8
0
 62
1
100
AcDbSpline
 70
8
 71
3
 72
8
 73
4
 74
0
 40
0
 40
0
 40
0
 40
0
 40
1
 40
1
 40
1
 40
1
 10
76.911065
 20
79.743935
 30
0.0
 10
76.911065
 20
78.423222
 30
0.0
 10
75.827379
 20
77.339537
 30
0.0
 10
74.506667
 20
77.339537
 30
0.0
  0
SPLINE
  5
10f
100
AcDbEntity
  8
0
 62
1
100
AcDbSpline
 70
8
 71
3
 72
8
 73
4
 74
0
 40
0
 40
0
 40
0
 40
0
 40
1
 40
1
 40
1
 40
1
 10
74.506667
 20
77.339537
 30
0.0
 10
73.185954
 20
77.339537
 30
0.0
 10
72.102269
 20
78.423222
 30
0.0
 10
72.102269
 20
79.743935
 30
0.0
  0
SPLINE
  5
110
100
AcDbEntity
  8
0
 62
1
100
AcDbSpline
 70
8
 71
3
 72
8
 73
4
 74
0
 40
0
 40
0
 40
0
 40
0
 40
1
 40
1
 40
1
 40
1
 10
72.102269
 20
79.743935
 30
0.0
 10
72.102269
 20
81.064648
 30
0.0
 10
73.185954
 20
82.148339
 30
0.0
 10
74.506667
 20
82.148339
 30
0.0
  0
SPLINE
  5
111
100
AcDbEntity
  8
0
 62
1
100
AcDbSpline
 70
8
 71
3
 72
8
 73
4
 74
0
 40
0
 40
0
 40
0
 40
0
 40
1
 40
1
 40
1
 40
1
 10
74.506667
 20
82.148339
 30
0.0
 10
75.827379
 20
82.148339
 30
0.0
 10
76.911065
 20
81.064648
 30
0.0
 10
76.911065
 20
79.743935
 30
0.0
  0
LWPOLYLINE
  5
112
100
AcDbEntity
  8
0
 62
1
100
AcDbPolyline
 90
2
 70
0
 10
68.918444
 20
79.743935
 30
0.0
 10
68.918444
 20
79.743935
 30
0.0
  0
SPLINE
  5
113
100
AcDbEntity
  8
0
 62
1
100
AcDbSpline
 70
8
 71
3
 72
8
 73
4
 74
0
 40
0
 40
0
 40
0
 40
0
 40
1
 40
1
 40
1
 40
1
 10
76.911065
 20
71.751314
 30
0.0
 10
76.911065
 20
70.430602
 30
0.0
 10
75.827379
 20
69.346916
 30
0.0
 10
74.506667
 20
69.346916
 30
0.0
  0
SPLINE
  5
114
100
AcDbEntity
  8
0
 62
1
100
AcDbSpline
 70
8
 71
3
 72
8
 73
4
 74
0
 40
0
 40
0
 40
0
 40
0
 40
1
 40
1
 40
1
 40
1
 10
74.506667
 20
69.346916
 30
0.0
 10
73.185954
 20
69.346916
 30
0.0
 10
72.102269
 20
70.430602
 30
0.0
 10
72.102269
 20
71.751314
 30
0.0
  0
SPLINE
  5
115
100
AcDbEntity
  8
0
 62
1
100
AcDbSpline
 70
8
 71
3
 72
8
 73
4
 74
0
 40
0
 40
0
 40
0
 40
0
 40
1
 40
1
 40
1
 40
1
 10
72.102269
 20
71.751314
 30
0.0
 10
72.102269
 20
73.072024
 30
0.0
 10
73.185954
 20
74.155718
 30
0.0
 10
74.506667
 20
74.155718
 30
0.0
  0
SPLINE
  5
116
100
AcDbEntity
  8
0
 62
1
100
AcDbSpline
 70
8
 71
3
 72
8
 73
4
 74
0
 40
0
 40
0
 40
0
 40
0
 40
1
 40
1
 40
1
 40
1
 10
74.506667
 20
74.155718
 30
0.0
 10
75.827379
 20
74.155718
 30
0.0
 10
76.911065
 20
73.072024
 30
0.0
 10
76.911065
 20
71.751314
 30
0.0
  0
LWPOLYLINE
  5
117
100
AcDbEntity
  8
0
 62
1
100
AcDbPolyline
 90
2
 70
0
 10
76.911065
 20
79.743935
 30
0.0
 10
76.911065
 20
79.743935
 30
0.0
  0
SPLINE
  5
118
100
AcDbEntity
  8
0
 62
1
100
AcDbSpline
 70
8
 71
3
 72
8
 73
4
 74
0
 40
0
 40
0
 40
0
 40
0
 40
1
 40
1
 40
1
 40
1
 10
68.918444
 20
71.751314
 30
0.0
 10
68.918444
 20
70.430602
 30
0.0
 10
67.834758
 20
69.346916
 30
0.0
 10
66.514046
 20
69.346916
 30
0.0
  0
SPLINE
  5
119
100
AcDbEntity
  8
0
 62
1
100
AcDbSpline
 70
8
 71
3
 72
8
 73
4
 74
0
 40
0
 40
0
 40
0
 40
0
 40
1
 40
1
 40
1
 40
1
 10
66.514046
 20
69.346916
 30
0.0
 10
65.193333
 20
69.346916
 30
0.0
 10
64.109645
 20
70.430602
 30
0.0
 10
64.109645
 20
71.751314
 30
0.0
  0
SPLINE
  5
11a
100
AcDbEntity
  8
0
 62
1
100
AcDbSpline
 70
8
 71
3
 72
8
 73
4
 74
0
 40
0
 40
0
 40
0
 40
0
 40
1
 40
1
 40
1
 40
1
 10
64.109645
 20
71.751314
 30
0.0
 10
64.109645
 20
73.072024
 30
0.0
 10
65.193333
 20
74.155718
 30
0.0
 10
66.514046
 20
74.155718
 30
0.0
  0
SPLINE
  5
11b
100
AcDbEntity
  8
0
 62
1
100
AcDbSpline
 70
8
 71
3
 72
8
 73
4
 74
0
 40
0
 40
0
 40
0
 40
0
 40
1
 40
1
 40
1
 40
1
 10
66.514046
 20
74.155718
 30
0.0
 10
67.834758
 20
74.155718
 30
0.0
 10
68.918444
 20
73.072024
 30
0.0
 10
68.918444
 20
71.751314
 30
0.0
  0
LWPOLYLINE
  5
11c
100
AcDbEntity
  8
0
 62
1
100
AcDbPolyline
 90
2
 70
0
 10
76.911065
 20
71.751314
 30
0.0
 10
76.911065
 20
71.751314
 30
0.0
  0
SPLINE
  5
11d
100
AcDbEntity
  8
0
 62
1
100
AcDbSpline
 70
8
 71
3
 72
8
 73
4
 74
0
 40
0
 40
0
 40
0
 40
0
 40
1
 40
1
 40
1
 40
1
 10
86.495602
 20
107.751183
 30
0.0
 10
86.495602
 20
106.430470
 30
0.0
 10
85.411908
 20
105.346782
 30
0.0
 10
84.091199
 20
105.346782
 30
0.0
  0
SPLINE
  5
11e
100
AcDbEntity
  8
0
 62
1
100
AcDbSpline
 70
8
 71
3
 72
8
 73
4
 74
0
 40
0
 40
0
 40
0
 40
0
 40
1
 40
1
 40
1
 40
1
 10
84.091199
 20
105.346782
 30
0.0
 10
82.770486
 20
105.346782
 30
0.0
 10
81.686801
 20
106.430470
 30
0.0
 10
81.686801
 20
107.751183
 30
0.0
  0
SPLINE
  5
11f
100
AcDbEntity
  8
0
 62
1
100
AcDbSpline
 70
8
 71
3
 72
8
 73
4
 74
0
 40
0
 40
0
 40
0
 40
0
 40
1
 40
1
 40
1
 40
1
 10
81.686801
 20
107.751183
 30
0.0
 10
81.686801
 20
109.071895
 30
0.0
 10
82.770486
 20
110.155584
 30
0.0
 10
84.091199
 20
110.155584
 30
0.0
  0
SPLINE
  5
120
100
AcDbEntity
  8
0
 62
1
100
AcDbSpline
 70
8
 71
3
 72
8
 73
4
 74
0
 40
0
 40
0
 40
0
 40
0
 40
1
 40
1
 40
1
 40
1
 10
84.091199
 20
110.155584
 30
0.0
 10
85.411908
 20
110.155584
 30
0.0
 10
86.495602
 20
109.071895
 30
0.0
 10
86.495602
 20
107.751183
 30
0.0
  0
LWPOLYLINE
  5
121
100
AcDbEntity
  8
0
 62
1
100
AcDbPolyline
 90
2
 70
0
 10
68.918444
 20
71.751314
 30
0.0
 10
68.918444
 20
71.751314
 30
0.0
  0
SPLINE
  5
122
100
AcDbEntity
  8
0
 62
1
100
AcDbSpline
 70
8
 71
3
 72
8
 73
4
 74
0
 40
0
 40
0
 40
0
 40
0
 40
1
 40
1
 40
1
 40
1
 10
94.488223
 20
107.751183
 30
0.0
 10
94.488223
 20
106.430470
 30
0.0
 10
93.404532
 20
105.346782
 30
0.0
 10
92.083819
 20
105.346782
 30
0.0
  0
SPLINE
  5
123
100
AcDbEntity
  8
0
 62
1
100
AcDbSpline
 70
8
 71
3
 72
8
 73
4
 74
0
 40
0
 40
0
 40
0
 40
0
 40
1
 40
1
 40
1
 40
1
 10
92.083819
 20
105.346782
 30
0.0
 10
90.763107
 20
105.346782
 30
0.0
 10
89.679422
 20
106.430470
 30
0.0
 10
89.679422
 20
107.751183
 30
0.0
  0
SPLINE
  5
124
100
AcDbEntity
  8
0
 62
1
100
AcDbSpline
 70
8
 71
3
 72
8
 73
4
 74
0
 40
0
 40
0
 40
0
 40
0
 40
1
 40
1
 40
1
 40
1
 10
89.679422
 20
107.751183
 30
0.0
 10
89.679422
 20
109.071895
 30
0.0
 10
90.763107
 20
110.155584
 30
0.0
 10
92.083819
 20
110.155584
 30
0.0
  0
SPLINE
  5
125
100
AcDbEntity
  8
0
 62
1
100
AcDbSpline
 70
8
 71
3
 72
8
 73
4
 74
0
 40
0
 40
0
 40
0
 40
0
 40
1
 40
1
 40
1
 40
1
 10
92.083819
 20
110.155584
 30
0.0
 10
93.404532
 20
110.155584
 30
0.0
 10
94.488223
 20
109.071895
 30
0.0
 10
94.488223
 20
107.751183
 30
0.0
  0
LWPOLYLINE
  5
126
100
AcDbEntity
  8
0
 62
1
100
AcDbPolyline
 90
2
 70
0
 10
86.495602
 20
107.751183
 30
0.0
 10
86.495602
 20
107.751183
 30
0.0
  0
SPLINE
  5
127
100
AcDbEntity
  8
0
 62
1
100
AcDbSpline
 70
8
 71
3
 72
8
 73
4
 74
0
 40
0
 40
0
 40
0
 40
0
 40
1
 40
1
 40
1
 40
1
 10
94.488223
 20
99.758559
 30
0.0
 10
94.488223
 20
98.437847
 30
0.0
 10
93.404532
 20
97.354161
 30
0.0
 10
92.083819
 20
97.354161
 30
0.0
  0
SPLINE
  5
128
100
AcDbEntity
  8
0
 62
1
100
AcDbSpline
 70
8
 71
3
 72
8
 73
4
 74
0
 40
0
 40
0
 40
0
 40
0
 40
1
 40
1
 40
1
 40
1
 10
92.083819
 20
97.354161
 30
0.0
 10
90.763107
 20
97.354161
 30
0.0
 10
89.679422
 20
98.437847
 30
0.0
 10
89.679422
 20
99.758559
 30
0.0
  0
SPLINE
  5
129
100
AcDbEntity
  8
0
 62
1
100
AcDbSpline
 70
8
 71
3
 72
8
 73
4
 74
0
 40
0
 40
0
 40
0
 40
0
 40
1
 40
1
 40
1
 40
1
 10
89.679422
 20
99.758559
 30
0.0
 10
89.679422
 20
101.079275
 30
0.0
 10
90.763107
 20
102.162963
 30
0.0
 10
92.083819
 20
102.162963
 30
0.0
  0
SPLINE
  5
12a
100
AcDbEntity
  8
0
 62
1
100
AcDbSpline
 70
8
 71
3
 72
8
 73
4
 74
0
 40
0
 40
0
 40
0
 40
0
 40
1
 40
1
 40
1
 40
1
 10
92.083819
 20
102.162963
 30
0.0
 10
93.404532
 20
102.162963
 30
0.0
 10
94.488223
 20
101.079275
 30
0.0
 10
94.488223
 20
99.758559
 30
0.0
  0
LWPOLYLINE
  5
12b
100
AcDbEntity
  8
0
 62
1
100
AcDbPolyline
 90
2
 70
0
 10
94.488223
 20
107.751183
 30
0.0
 10
94.488223
 20
107.751183
 30
0.0
  0
SPLINE
  5
12c
100
AcDbEntity
  8
0
 62
1
100
AcDbSpline
 70
8
 71
3
 72
8
 73
4
 74
0
 40
0
 40
0
 40
0
 40
0
 40
1
 40
1
 40
1
 40
1
 10
86.495602
 20
99.758559
 30
0.0
 10
86.495602
 20
98.437847
 30
0.0
 10
85.411908
 20
97.354161
 30
0.0
 10
84.091199
 20
97.354161
 30
0.0
  0
SPLINE
  5
12d
100
AcDbEntity
  8
0
 62
1
100
AcDbSpline
 70
8
 71
3
 72
8
 73
4
 74
0
 40
0
 40
0
 40
0
 40
0
 40
1
 40
1
 40
1
 40
1
 10
84.091199
 20
97.354161
 30
0.0
 10
82.770486
 20
97.354161
 30
0.0
 10
81.686801
 20
98.437847
 30
0.0
 10
81.686801
 20
99.758559
 30
0.0
  0
SPLINE
  5
12e
100
AcDbEntity
  8
0
 62
1
100
AcDbSpline
 70
8
 71
3
 72
8
 73
4
 74
0
 40
0
 40
0
 40
0
 40
0
 40
1
 40
1
 40
1
 40
1
 10
81.686801
 20
99.758559
 30
0.0
 10
81.686801
 20
101.079275
 30
0.0
 10
82.770486
 20
102.162963
 30
0.0
 10
84.091199
 20
102.162963
 30
0.0
  0
SPLINE
  5
12f
100
AcDbEntity
  8
0
 62
1
100
AcDbSpline
 70
8
 71
3
 72
8
 73
4
 74
0
 40
0
 40
0
 40
0
 40
0
 40
1
 40
1
 40
1
 40
1
 10
84.091199
 20
102.162963
 30
0.0
 10
85.411908
 20
102.162963
 30
0.0
 10
86.495602
 20
101.079275
 30
0.0
 10
86.495602
 20
99.758559
 30
0.0
  0
LWPOLYLINE
  5
130
100
AcDbEntity
  8
0
 62
1
100
AcDbPolyline
 90
2
 70
0
 10
94.488223
 20
99.758559
 30
0.0
 10
94.488223
 20
99.758559
 30
0.0
  0
SPLINE
  5
131
100
AcDbEntity
  8
0
 62
1
100
AcDbSpline
 70
8
 71
3
 72
8
 73
4
 74
0
 40
0
 40
0
 40
0
 40
0
 40
1
 40
1
 40
1
 40
1
 10
152.874046
 20
99.758559
 30
0.0
 10
152.874046
 20
98.437847
 30
0.0
 10
151.790352
 20
97.354161
 30
0.0
 10
150.469648
 20
97.354161
 30
0.0
  0
SPLINE
  5
132
100
AcDbEntity
  8
0
 62
1
100
AcDbSpline
 70
8
 71
3
 72
8
 73
4
 74
0
 40
0
 40
0
 40
0
 40
0
 40
1
 40
1
 40
1
 40
1
 10
150.469648
 20
97.354161
 30
0.0
 10
149.148935
 20
97.354161
 30
0.0
 10
148.065242
 20
98.437847
 30
0.0
 10
148.065242
 20
99.758559
 30
0.0
  0
SPLINE
  5
133
100
AcDbEntity
  8
0
 62
1
100
AcDbSpline
 70
8
 71
3
 72
8
 73
4
 74
0
 40
0
 40
0
 40
0
 40
0
 40
1
 40
1
 40
1
 40
1
 10
148.065242
 20
99.758559
 30
0.0
 10
148.065242
 20
101.079275
 30
0.0
 10
149.148935
 20
102.162963
 30
0.0
 10
150.469648
 20
102.162963
 30
0.0
  0
SPLINE
  5
134
100
AcDbEntity
  8
0
 62
1
100
AcDbSpline
 70
8
 71
3
 72
8
 73
4
 74
0
 40
0
 40
0
 40
0
 40
0
 40
1
 40
1
 40
1
 40
1
 10
150.469648
 20
102.162963
 30
0.0
 10
151.790352
 20
102.162963
 30
0.0
 10
152.874046
 20
101.079275
 30
0.0
 10
152.874046
 20
99.758559
 30
0.0
  0
LWPOLYLINE
  5
135
100
AcDbEntity
  8
0
 62
1
100
AcDbPolyline
 90
2
 70
0
 10
86.495602
 20
99.758559
 30
0.0
 10
86.495602
 20
99.758559
 30
0.0
  0
SPLINE
  5
136
100
AcDbEntity
  8
0
 62
1
100
AcDbSpline
 70
8
 71
3
 72
8
 73
4
 74
0
 40
0
 40
0
 40
0
 40
0
 40
1
 40
1
 40
1
 40
1
 10
144.881425
 20
99.758559
 30
0.0
 10
144.881425
 20
98.437847
 30
0.0
 10
143.797731
 20
97.354161
 30
0.0
 10
142.477019
 20
97.354161
 30
0.0
  0
SPLINE
  5
137
100
AcDbEntity
  8
0
 62
1
100
AcDbSpline
 70
8
 71
3
 72
8
 73
4
 74
0
 40
0
 40
0
 40
0
 40
0
 40
1
 40
1
 40
1
 40
1
 10
142.477019
 20
97.354161
 30
0.0
 10
141.156315
 20
97.354161
 30
0.0
 10
140.072621
 20
98.437847
 30
0.0
 10
140.072621
 20
99.758559
 30
0.0
  0
SPLINE
  5
138
100
AcDbEntity
  8
0
 62
1
100
AcDbSpline
 70
8
 71
3
 72
8
 73
4
 74
0
 40
0
 40
0
 40
0
 40
0
 40
1
 40
1
 40
1
 40
1
 10
140.072621
 20
99.758559
 30
0.0
 10
140.072621
 20
101.079275
 30
0.0
 10
141.156315
 20
102.162963
 30
0.0
 10
142.477019
 20
102.162963
 30
0.0
  0
SPLINE
  5
139
100
AcDbEntity
  8
0
 62
1
100
AcDbSpline
 70
8
 71
3
 72
8
 73
4
 74
0
 40
0
 40
0
 40
0
 40
0
 40
1
 40
1
 40
1
 40
1
 10
142.477019
 20
102.162963
 30
0.0
 10
143.797731
 20
102.162963
 30
0.0
 10
144.881425
 20
101.079275
 30
0.0
 10
144.881425
 20
99.758559
 30
0.0
  0
LWPOLYLINE
  5
13a
100
AcDbEntity
  8
0
 62
1
100
AcDbPolyline
 90
2
 70
0
 10
152.874046
 20
99.758559
 30
0.0
 10
152.874046
 20
99.758559
 30
0.0
  0
SPLINE
  5
13b
100
AcDbEntity
  8
0
 62
1
100
AcDbSpline
 70
8
 71
3
 72
8
 73
4
 74
0
 40
0
 40
0
 40
0
 40
0
 40
1
 40
1
 40
1
 40
1
 10
144.881425
 20
107.751183
 30
0.0
 10
144.881425
 20
106.430470
 30
0.0
 10
143.797731
 20
105.346782
 30
0.0
 10
142.477019
 20
105.346782
 30
0.0
  0
SPLINE
  5
13c
100
AcDbEntity
  8
0
 62
1
100
AcDbSpline
 70
8
 71
3
 72
8
 73
4
 74
0
 40
0
 40
0
 40
0
 40
0
 40
1
 40
1
 40
1
 40
1
 10
142.477019
 20
105.346782
 30
0.0
 10
141.156315
 20
105.346782
 30
0.0
 10
140.072621
 20
106.430470
 30
0.0
 10
140.072621
 20
107.751183
 30
0.0
  0
SPLINE
  5
13d
100
AcDbEntity
  8
0
 62
1
100
AcDbSpline
 70
8
 71
3
 72
8
 73
4
 74
0
 40
0
 40
0
 40
0
 40
0
 40
1
 40
1
 40
1
 40
1
 10
140.072621
 20
107.751183
 30
0.0
 10
140.072621
 20
109.071895
 30
0.0
 10
141.156315
 20
110.155584
 30
0.0
 10
142.477019
 20
110.155584
 30
0.0
  0
SPLINE
  5
13e
100
AcDbEntity
  8
0
 62
1
100
AcDbSpline
 70
8
 71
3
 72
8
 73
4
 74
0
 40
0
 40
0
 40
0
 40
0
 40
1
 40
1
 40
1
 40
1
 10
142.477019
 20
110.155584
 30
0.0
 10
143.797731
 20
110.155584
 30
0.0
 10
144.881425
 20
109.071895
 30
0.0
 10
144.881425
 20
107.751183
 30
0.0
  0
LWPOLYLINE
  5
13f
100
AcDbEntity
  8
0
 62
1
100
AcDbPolyline
 90
2
 70
0
 10
144.881425
 20
99.758559
 30
0.0
 10
144.881425
 20
99.758559
 30
0.0
  0
SPLINE
  5
140
100
AcDbEntity
  8
0
 62
1
100
AcDbSpline
 70
8
 71
3
 72
8
 73
4
 74
0
 40
0
 40
0
 40
0
 40
0
 40
1
 40
1
 40
1
 40
1
 10
152.874046
 20
107.751183
 30
0.0
 10
152.874046
 20
106.430470
 30
0.0
 10
151.790352
 20
105.346782
 30
0.0
 10
150.469648
 20
105.346782
 30
0.0
  0
SPLINE
  5
141
100
AcDbEntity
  8
0
 62
1
100
AcDbSpline
 70
8
 71
3
 72
8
 73
4
 74
0
 40
0
 40
0
 40
0
 40
0
 40
1
 40
1
 40
1
 40
1
 10
150.469648
 20
105.346782
 30
0.0
 10
149.148935
 20
105.346782
 30
0.0
 10
148.065242
 20
106.430470
 30
0.0
 10
148.065242
 20
107.751183
 30
0.0
  0
SPLINE
  5
142
100
AcDbEntity
  8
0
 62
1
100
AcDbSpline
 70
8
 71
3
 72
8
 73
4
 74
0
 40
0
 40
0
 40
0
 40
0
 40
1
 40
1
 40
1
 40
1
 10
148.065242
 20
107.751183
 30
0.0
 10
148.065242
 20
109.071895
 30
0.0
 10
149.148935
 20
110.155584
 30
0.0
 10
150.469648
 20
110.155584
 30
0.0
  0
SPLINE
  5
143
100
AcDbEntity
  8
0
 62
1
100
AcDbSpline
 70
8
 71
3
 72
8
 73
4
 74
0
 40
0
 40
0
 40
0
 40
0
 40
1
 40
1
 40
1
 40
1
 10
150.469648
 20
110.155584
 30
0.0
 10
151.790352
 20
110.155584
 30
0.0
 10
152.874046
 20
109.071895
 30
0.0
 10
152.874046
 20
107.751183
 30
0.0
  0
LWPOLYLINE
  5
144
100
AcDbEntity
  8
0
 62
1
100
AcDbPolyline
 90
2
 70
0
 10
144.881425
 20
107.751183
 30
0.0
 10
144.881425
 20
107.751183
 30
0.0
  0
SPLINE
  5
145
100
AcDbEntity
  8
0
 62
1
100
AcDbSpline
 70
8
 71
3
 72
8
 73
4
 74
0
 40
0
 40
0
 40
0
 40
0
 40
1
 40
1
 40
1
 40
1
 10
152.874046
 20
43.777134
 30
0.0
 10
152.874046
 20
42.456430
 30
0.0
 10
151.790352
 20
41.372736
 30
0.0
 10
150.469648
 20
41.372736
 30
0.0
  0
SPLINE
  5
146
100
AcDbEntity
  8
0
 62
1
100
AcDbSpline
 70
8
 71
3
 72
8
 73
4
 74
0
 40
0
 40
0
 40
0
 40
0
 40
1
 40
1
 40
1
 40
1
 10
150.469648
 20
41.372736
 30
0.0
 10
149.148935
 20
41.372736
 30
0.0
 10
148.065242
 20
42.456430
 30
0.0
 10
148.065242
 20
43.777134
 30
0.0
  0
SPLINE
  5
147
100
AcDbEntity
  8
0
 62
1
100
AcDbSpline
 70
8
 71
3
 72
8
 73
4
 74
0
 40
0
 40
0
 40
0
 40
0
 40
1
 40
1
 40
1
 40
1
 10
148.065242
 20
43.777134
 30
0.0
 10
148.065242
 20
45.097847
 30
0.0
 10
149.148935
 20
46.181541
 30
0.0
 10
150.469648
 20
46.181541
 30
0.0
  0
SPLINE
  5
148
100
AcDbEntity
  8
0
 62
1
100
AcDbSpline
 70
8
 71
3
 72
8
 73
4
 74
0
 40
0
 40
0
 40
0
 40
0
 40
1
 40
1
 40
1
 40
1
 10
150.469648
 20
46.181541
 30
0.0
 10
151.790352
 20
46.181541
 30
0.0
 10
152.874046
 20
45.097847
 30
0.0
 10
152.874046
 20
43.777134
 30
0.0
  0
LWPOLYLINE
  5
149
100
AcDbEntity
  8
0
 62
1
100
AcDbPolyline
 90
2
 70
0
 10
152.874046
 20
107.751183
 30
0.0
 10
152.874046
 20
107.751183
 30
0.0
  0
SPLINE
  5
14a
100
AcDbEntity
  8
0
 62
1
100
AcDbSpline
 70
8
 71
3
 72
8
 73
4
 74
0
 40
0
 40
0
 40
0
 40
0
 40
1
 40
1
 40
1
 40
1
 10
144.881425
 20
43.777134
 30
0.0
 10
144.881425
 20
42.456430
 30
0.0
 10
143.797731
 20
41.372736
 30
0.0
 10
142.477019
 20
41.372736
 30
0.0
  0
SPLINE
  5
14b
100
AcDbEntity
  8
0
 62
1
100
AcDbSpline
 70
8
 71
3
 72
8
 73
4
 74
0
 40
0
 40
0
 40
0
 40
0
 40
1
 40
1
 40
1
 40
1
 10
142.477019
 20
41.372736
 30
0.0
 10
141.156315
 20
41.372736
 30
0.0
 10
140.072621
 20
42.456430
 30
0.0
 10
140.072621
 20
43.777134
 30
0.0
  0
SPLINE
  5
14c
100
AcDbEntity
  8
0
 62
1
100
AcDbSpline
 70
8
 71
3
 72
8
 73
4
 74
0
 40
0
 40
0
 40
0
 40
0
 40
1
 40
1
 40
1
 40
1
 10
140.072621
 20
43.777134
 30
0.0
 10
140.072621
 20
45.097847
 30
0.0
 10
141.156315
 20
46.181541
 30
0.0
 10
142.477019
 20
46.181541
 30
0.0
  0
SPLINE
  5
14d
100
AcDbEntity
  8
0
 62
1
100
AcDbSpline
 70
8
 71
3
 72
8
 73
4
 74
0
 40
0
 40
0
 40
0
 40
0
 40
1
 40
1
 40
1
 40
1
 10
142.477019
 20
46.181541
 30
0.0
 10
143.797731
 20
46.181541
 30
0.0
 10
144.881425
 20
45.097847
 30
0.0
 10
144.881425
 20
43.777134
 30
0.0
  0
LWPOLYLINE
  5
14e
100
AcDbEntity
  8
0
 62
1
100
AcDbPolyline
 90
2
 70
0
 10
152.874046
 20
43.777134
 30
0.0
 10
152.874046
 20
43.777134
 30
0.0
  0
SPLINE
  5
14f
100
AcDbEntity
  8
0
 62
1
100
AcDbSpline
 70
8
 71
3
 72
8
 73
4
 74
0
 40
0
 40
0
 40
0
 40
0
 40
1
 40
1
 40
1
 40
1
 10
144.881425
 20
51.769764
 30
0.0
 10
144.881425
 20
50.449051
 30
0.0
 10
143.797731
 20
49.365357
 30
0.0
 10
142.477019
 20
49.365357
 30
0.0
  0
SPLINE
  5
150
100
AcDbEntity
  8
0
 62
1
100
AcDbSpline
 70
8
 71
3
 72
8
 73
4
 74
0
 40
0
 40
0
 40
0
 40
0
 40
1
 40
1
 40
1
 40
1
 10
142.477019
 20
49.365357
 30
0.0
 10
141.156315
 20
49.365357
 30
0.0
 10
140.072621
 20
50.449051
 30
0.0
 10
140.072621
 20
51.769764
 30
0.0
  0
SPLINE
  5
151
100
AcDbEntity
  8
0
 62
1
100
AcDbSpline
 70
8
 71
3
 72
8
 73
4
 74
0
 40
0
 40
0
 40
0
 40
0
 40
1
 40
1
 40
1
 40
1
 10
140.072621
 20
51.769764
 30
0.0
 10
140.072621
 20
53.090468
 30
0.0
 10
141.156315
 20
54.174161
 30
0.0
 10
142.477019
 20
54.174161
 30
0.0
  0
SPLINE
  5
152
100
AcDbEntity
  8
0
 62
1
100
AcDbSpline
 70
8
 71
3
 72
8
 73
4
 74
0
 40
0
 40
0
 40
0
 40
0
 40
1
 40
1
 40
1
 40
1
 10
142.477019
 20
54.174161
 30
0.0
 10
143.797731
 20
54.174161
 30
0.0
 10
144.881425
 20
53.090468
 30
0.0
 10
144.881425
 20
51.769764
 30
0.0
  0
LWPOLYLINE
  5
153
100
AcDbEntity
  8
0
 62
1
100
AcDbPolyline
 90
2
 70
0
 10
144.881425
 20
43.777134
 30
0.0
 10
144.881425
 20
43.777134
 30
0.0
  0
SPLINE
  5
154
100
AcDbEntity
  8
0
 62
1
100
AcDbSpline
 70
8
 71
3
 72
8
 73
4
 74
0
 40
0
 40
0
 40
0
 40
0
 40
1
 40
1
 40
1
 40
1
 10
152.874046
 20
51.769764
 30
0.0
 10
152.874046
 20
50.449051
 30
0.0
 10
151.790352
 20
49.365357
 30
0.0
 10
150.469648
 20
49.365357
 30
0.0
  0
SPLINE
  5
155
100
AcDbEntity
  8
0
 62
1
100
AcDbSpline
 70
8
 71
3
 72
8
 73
4
 74
0
 40
0
 40
0
 40
0
 40
0
 40
1
 40
1
 40
1
 40
1
 10
150.469648
 20
49.365357
 30
0.0
 10
149.148935
 20
49.365357
 30
0.0
 10
148.065242
 20
50.449051
 30
0.0
 10
148.065242
 20
51.769764
 30
0.0
  0
SPLINE
  5
156
100
AcDbEntity
  8
0
 62
1
100
AcDbSpline
 70
8
 71
3
 72
8
 73
4
 74
0
 40
0
 40
0
 40
0
 40
0
 40
1
 40
1
 40
1
 40
1
 10
148.065242
 20
51.769764
 30
0.0
 10
148.065242
 20
53.090468
 30
0.0
 10
149.148935
 20
54.174161
 30
0.0
 10
150.469648
 20
54.174161
 30
0.0
  0
SPLINE
  5
157
100
AcDbEntity
  8
0
 62
1
100
AcDbSpline
 70
8
 71
3
 72
8
 73
4
 74
0
 40
0
 40
0
 40
0
 40
0
 40
1
 40
1
 40
1
 40
1
 10
150.469648
 20
54.174161
 30
0.0
 10
151.790352
 20
54.174161
 30
0.0
 10
152.874046
 20
53.090468
 30
0.0
 10
152.874046
 20
51.769764
 30
0.0
  0
LWPOLYLINE
  5
158
100
AcDbEntity
  8
0
 62
1
100
AcDbPolyline
 90
2
 70
0
 10
144.881425
 20
51.769764
 30
0.0
 10
144.881425
 20
51.769764
 30
0.0
  0
SPLINE
  5
159
100
AcDbEntity
  8
0
 62
1
100
AcDbSpline
 70
8
 71
3
 72
8
 73
4
 74
0
 40
0
 40
0
 40
0
 40
0
 40
1
 40
1
 40
1
 40
1
 10
86.495602
 20
51.769764
 30
0.0
 10
86.495602
 20
50.449051
 30
0.0
 10
85.411908
 20
49.365357
 30
0.0
 10
84.091199
 20
49.365357
 30
0.0
  0
SPLINE
  5
15a
100
AcDbEntity
  8
0
 62
1
100
AcDbSpline
 70
8
 71
3
 72
8
 73
4
 74
0
 40
0
 40
0
 40
0
 40
0
 40
1
 40
1
 40
1
 40
1
 10
84.091199
 20
49.365357
 30
0.0
 10
82.770486
 20
49.365357
 30
0.0
 10
81.686801
 20
50.449051
 30
0.0
 10
81.686801
 20
51.769764
 30
0.0
  0
SPLINE
  5
15b
100
AcDbEntity
  8
0
 62
1
100
AcDbSpline
 70
8
 71
3
 72
8
 73
4
 74
0
 40
0
 40
0
 40
0
 40
0
 40
1
 40
1
 40
1
 40
1
 10
81.686801
 20
51.769764
 30
0.0
 10
81.686801
 20
53.090468
 30
0.0
 10
82.770486
 20
54.174161
 30
0.0
 10
84.091199
 20
54.174161
 30
0.0
  0
SPLINE
  5
15c
100
AcDbEntity
  8
0
 62
1
100
AcDbSpline
 70
8
 71
3
 72
8
 73
4
 74
0
 40
0
 40
0
 40
0
 40
0
 40
1
 40
1
 40
1
 40
1
 10
84.091199
 20
54.174161
 30
0.0
 10
85.411908
 20
54.174161
 30
0.0
 10
86.495602
 20
53.090468
 30
0.0
 10
86.495602
 20
51.769764
 30
0.0
  0
LWPOLYLINE
  5
15d
100
AcDbEntity
  8
0
 62
1
100
AcDbPolyline
 90
2
 70
0
 10
152.874046
 20
51.769764
 30
0.0
 10
152.874046
 20
51.769764
 30
0.0
  0
SPLINE
  5
15e
100
AcDbEntity
  8
0
 62
1
100
AcDbSpline
 70
8
 71
3
 72
8
 73
4
 74
0
 40
0
 40
0
 40
0
 40
0
 40
1
 40
1
 40
1
 40
1
 10
94.488223
 20
51.769764
 30
0.0
 10
94.488223
 20
50.449051
 30
0.0
 10
93.404532
 20
49.365357
 30
0.0
 10
92.083819
 20
49.365357
 30
0.0
  0
SPLINE
  5
15f
100
AcDbEntity
  8
0
 62
1
100
AcDbSpline
 70
8
 71
3
 72
8
 73
4
 74
0
 40
0
 40
0
 40
0
 40
0
 40
1
 40
1
 40
1
 40
1
 10
92.083819
 20
49.365357
 30
0.0
 10
90.763107
 20
49.365357
 30
0.0
 10
89.679422
 20
50.449051
 30
0.0
 10
89.679422
 20
51.769764
 30
0.0
  0
SPLINE
  5
160
100
AcDbEntity
  8
0
 62
1
100
AcDbSpline
 70
8
 71
3
 72
8
 73
4
 74
0
 40
0
 40
0
 40
0
 40
0
 40
1
 40
1
 40
1
 40
1
 10
89.679422
 20
51.769764
 30
0.0
 10
89.679422
 20
53.090468
 30
0.0
 10
90.763107
 20
54.174161
 30
0.0
 10
92.083819
 20
54.174161
 30
0.0
  0
SPLINE
  5
161
100
AcDbEntity
  8
0
 62
1
100
AcDbSpline
 70
8
 71
3
 72
8
 73
4
 74
0
 40
0
 40
0
 40
0
 40
0
 40
1
 40
1
 40
1
 40
1
 10
92.083819
 20
54.174161
 30
0.0
 10
93.404532
 20
54.174161
 30
0.0
 10
94.488223
 20
53.090468
 30
0.0
 10
94.488223
 20
51.769764
 30
0.0
  0
LWPOLYLINE
  5
162
100
AcDbEntity
  8
0
 62
1
100
AcDbPolyline
 90
2
 70
0
 10
86.495602
 20
51.769764
 30
0.0
 10
86.495602
 20
51.769764
 30
0.0
  0
SPLINE
  5
163
100
AcDbEntity
  8
0
 62
1
100
AcDbSpline
 70
8
 71
3
 72
8
 73
4
 74
0
 40
0
 40
0
 40
0
 40
0
 40
1
 40
1
 40
1
 40
1
 10
94.488223
 20
43.777134
 30
0.0
 10
94.488223
 20
42.456430
 30
0.0
 10
93.404532
 20
41.372736
 30
0.0
 10
92.083819
 20
41.372736
 30
0.0
  0
SPLINE
  5
164
100
AcDbEntity
  8
0
 62
1
100
AcDbSpline
 70
8
 71
3
 72
8
 73
4
 74
0
 40
0
 40
0
 40
0
 40
0
 40
1
 40
1
 40
1
 40
1
 10
92.083819
 20
41.372736
 30
0.0
 10
90.763107
 20
41.372736
 30
0.0
 10
89.679422
 20
42.456430
 30
0.0
 10
89.679422
 20
43.777134
 30
0.0
  0
SPLINE
  5
165
100
AcDbEntity
  8
0
 62
1
100
AcDbSpline
 70
8
 71
3
 72
8
 73
4
 74
0
 40
0
 40
0
 40
0
 40
0
 40
1
 40
1
 40
1
 40
1
 10
89.679422
 20
43.777134
 30
0.0
 10
89.679422
 20
45.097847
 30
0.0
 10
90.763107
 20
46.181541
 30
0.0
 10
92.083819
 20
46.181541
 30
0.0
  0
SPLINE
  5
166
100
AcDbEntity
  8
0
 62
1
100
AcDbSpline
 70
8
 71
3
 72
8
 73
4
 74
0
 40
0
 40
0
 40
0
 40
0
 40
1
 40
1
 40
1
 40
1
 10
92.083819
 20
46.181541
 30
0.0
 10
93.404532
 20
46.181541
 30
0.0
 10
94.488223
 20
45.097847
 30
0.0
 10
94.488223
 20
43.777134
 30
0.0
  0
LWPOLYLINE
  5
167
100
AcDbEntity
  8
0
 62
1
100
AcDbPolyline
 90
2
 70
0
 10
94.488223
 20
51.769764
 30
0.0
 10
94.488223
 20
51.769764
 30
0.0
  0
SPLINE
  5
168
100
AcDbEntity
  8
0
 62
1
100
AcDbSpline
 70
8
 71
3
 72
8
 73
4
 74
0
 40
0
 40
0
 40
0
 40
0
 40
1
 40
1
 40
1
 40
1
 10
86.495602
 20
43.777134
 30
0.0
 10
86.495602
 20
42.456430
 30
0.0
 10
85.411908
 20
41.372736
 30
0.0
 10
84.091199
 20
41.372736
 30
0.0
  0
SPLINE
  5
169
100
AcDbEntity
  8
0
 62
1
100
AcDbSpline
 70
8
 71
3
 72
8
 73
4
 74
0
 40
0
 40
0
 40
0
 40
0
 40
1
 40
1
 40
1
 40
1
 10
84.091199
 20
41.372736
 30
0.0
 10
82.770486
 20
41.372736
 30
0.0
 10
81.686801
 20
42.456430
 30
0.0
 10
81.686801
 20
43.777134
 30
0.0
  0
SPLINE
  5
16a
100
AcDbEntity
  8
0
 62
1
100
AcDbSpline
 70
8
 71
3
 72
8
 73
4
 74
0
 40
0
 40
0
 40
0
 40
0
 40
1
 40
1
 40
1
 40
1
 10
81.686801
 20
43.777134
 30
0.0
 10
81.686801
 20
45.097847
 30
0.0
 10
82.770486
 20
46.181541
 30
0.0
 10
84.091199
 20
46.181541
 30
0.0
  0
SPLINE
  5
16b
100
AcDbEntity
  8
0
 62
1
100
AcDbSpline
 70
8
 71
3
 72
8
 73
4
 74
0
 40
0
 40
0
 40
0
 40
0
 40
1
 40
1
 40
1
 40
1
 10
84.091199
 20
46.181541
 30
0.0
 10
85.411908
 20
46.181541
 30
0.0
 10
86.495602
 20
45.097847
 30
0.0
 10
86.495602
 20
43.777134
 30
0.0
  0
LWPOLYLINE
  5
16c
100
AcDbEntity
  8
0
 62
1
100
AcDbPolyline
 90
2
 70
0
 10
94.488223
 20
43.777134
 30
0.0
 10
94.488223
 20
43.777134
 30
0.0
  0
LWPOLYLINE
  5
16d
100
AcDbEntity
  8
0
 62
1
100
AcDbPolyline
 90
2
 70
0
 10
86.495602
 20
43.777134
 30
0.0
 10
86.495602
 20
43.777134
 30
0.0
  0
LWPOLYLINE
  5
16e
100
AcDbEntity
  8
0
 62
1
100
AcDbPolyline
 90
11
 70
0
 10
119.041556
 20
120.044388
 30
0.0
 10
119.041556
 20
121.500697
 30
0.0
 10
119.041556
 20
122.212868
 30
0.0
 10
118.397731
 20
122.212868
 30
0.0
 10
118.229061
 20
122.212868
 30
0.0
 10
116.975602
 20
122.212868
 30
0.0
 10
116.331777
 20
122.212868
 30
0.0
 10
116.331777
 20
120.044388
 30
0.0
 10
116.975602
 20
120.044388
 30
0.0
 10
118.397731
 20
120.044388
 30
0.0
 10
119.041556
 20
120.044388
 30
0.0
  0
LWPOLYLINE
  5
16f
100
AcDbEntity
  8
0
 62
1
100
AcDbPolyline
 90
2
 70
0
 10
118.229061
 20
122.212868
 30
0.0
 10
119.041556
 20
121.500697
 30
0.0
  0
LWPOLYLINE
  5
170
100
AcDbEntity
  8
0
 62
1
100
AcDbPolyline
 90
2
 70
0
 10
118.397731
 20
120.044388
 30
0.0
 10
118.397731
 20
119.266070
 30
0.0
  0
LWPOLYLINE
  5
171
100
AcDbEntity
  8
0
 62
1
100
AcDbPolyline
 90
2
 70
0
 10
118.397731
 20
122.212868
 30
0.0
 10
118.397731
 20
123.092608
 30
0.0
  0
LWPOLYLINE
  5
172
100
AcDbEntity
  8
0
 62
1
100
AcDbPolyline
 90
2
 70
0
 10
116.975602
 20
122.212868
 30
0.0
 10
116.975602
 20
123.092608
 30
0.0
  0
LWPOLYLINE
  5
173
100
AcDbEntity
  8
0
 62
1
100
AcDbPolyline
 90
2
 70
0
 10
116.975602
 20
120.044388
 30
0.0
 10
116.975602
 20
119.266070
 30
0.0
  0
LWPOLYLINE
  5
174
100
AcDbEntity
  8
0
 62
1
100
AcDbPolyline
 90
11
 70
0
 10
119.041556
 20
29.214027
 30
0.0
 10
119.041556
 20
30.670342
 30
0.0
 10
119.041556
 20
31.382510
 30
0.0
 10
118.397731
 20
31.382510
 30
0.0
 10
118.229061
 20
31.382510
 30
0.0
 10
116.975602
 20
31.382510
 30
0.0
 10
116.331777
 20
31.382510
 30
0.0
 10
116.331777
 20
29.214027
 30
0.0
 10
116.975602
 20
29.214027
 30
0.0
 10
118.397731
 20
29.214027
 30
0.0
 10
119.041556
 20
29.214027
 30
0.0
  0
LWPOLYLINE
  5
175
100
AcDbEntity
  8
0
 62
1
100
AcDbPolyline
 90
2
 70
0
 10
118.229061
 20
31.382510
 30
0.0
 10
119.041556
 20
30.670342
 30
0.0
  0
LWPOLYLINE
  5
176
100
AcDbEntity
  8
0
 62
1
100
AcDbPolyline
 90
2
 70
0
 10
118.397731
 20
29.214027
 30
0.0
 10
118.397731
 20
28.435718
 30
0.0
  0
LWPOLYLINE
  5
177
100
AcDbEntity
  8
0
 62
1
100
AcDbPolyline
 90
2
 70
0
 10
118.397731
 20
31.382510
 30
0.0
 10
118.397731
 20
32.262250
 30
0.0
  0
LWPOLYLINE
  5
178
100
AcDbEntity
  8
0
 62
1
100
AcDbPolyline
 90
2
 70
0
 10
116.975602
 20
31.382510
 30
0.0
 10
116.975602
 20
32.262250
 30
0.0
  0
LWPOLYLINE
  5
179
100
AcDbEntity
  8
0
 62
1
100
AcDbPolyline
 90
2
 70
0
 10
116.975602
 20
29.214027
 30
0.0
 10
116.975602
 20
28.435718
 30
0.0
  0
LWPOLYLINE
  5
17a
100
AcDbEntity
  8
0
 62
1
100
AcDbPolyline
 90
7
 70
0
 10
82.837731
 20
73.106204
 30
0.0
 10
81.855468
 20
73.106204
 30
0.0
 10
81.855468
 20
73.580250
 30
0.0
 10
82.025242
 20
73.748917
 30
0.0
 10
82.329514
 20
73.748917
 30
0.0
 10
82.499287
 20
73.580250
 30
0.0
 10
82.499287
 20
73.106204
 30
0.0
  0
LWPOLYLINE
  5
17b
100
AcDbEntity
  8
0
 62
1
100
AcDbPolyline
 90
9
 70
0
 10
81.855468
 20
74.629764
 30
0.0
 10
81.855468
 20
74.291314
 30
0.0
 10
82.025242
 20
74.155718
 30
0.0
 10
82.669061
 20
74.155718
 30
0.0
 10
82.837731
 20
74.291314
 30
0.0
 10
82.837731
 20
74.629764
 30
0.0
 10
82.669061
 20
74.799537
 30
0.0
 10
82.025242
 20
74.799537
 30
0.0
 10
81.855468
 20
74.629764
 30
0.0
  0
LWPOLYLINE
  5
17c
100
AcDbEntity
  8
0
 62
1
100
AcDbPolyline
 90
5
 70
0
 10
81.855468
 20
75.205226
 30
0.0
 10
82.837731
 20
75.205226
 30
0.0
 10
82.499287
 20
75.510602
 30
0.0
 10
82.837731
 20
75.849051
 30
0.0
 10
81.855468
 20
75.849051
 30
0.0
  0
LWPOLYLINE
  5
17d
100
AcDbEntity
  8
0
 62
1
100
AcDbPolyline
 90
4
 70
0
 10
81.855468
 20
76.898559
 30
0.0
 10
81.855468
 20
76.221672
 30
0.0
 10
82.837731
 20
76.221672
 30
0.0
 10
82.837731
 20
76.898559
 30
0.0
  0
LWPOLYLINE
  5
17e
100
AcDbEntity
  8
0
 62
1
100
AcDbPolyline
 90
2
 70
0
 10
82.329514
 20
76.221672
 30
0.0
 10
82.329514
 20
76.560116
 30
0.0
  0
LWPOLYLINE
  5
17f
100
AcDbEntity
  8
0
 62
1
100
AcDbPolyline
 90
7
 70
0
 10
82.837731
 20
77.271180
 30
0.0
 10
81.855468
 20
77.271180
 30
0.0
 10
81.855468
 20
77.779403
 30
0.0
 10
82.025242
 20
77.949177
 30
0.0
 10
82.329514
 20
77.949177
 30
0.0
 10
82.499287
 20
77.779403
 30
0.0
 10
82.499287
 20
77.271180
 30
0.0
  0
LWPOLYLINE
  5
180
100
AcDbEntity
  8
0
 62
1
100
AcDbPolyline
 90
2
 70
0
 10
82.499287
 20
77.609629
 30
0.0
 10
82.837731
 20
77.949177
 30
0.0
  0
LWPOLYLINE
  5
181
100
AcDbEntity
  8
0
 62
1
100
AcDbPolyline
 90
9
 70
0
 10
81.855468
 20
79.879537
 30
0.0
 10
81.855468
 20
79.539981
 30
0.0
 10
82.025242
 20
79.371314
 30
0.0
 10
82.669061
 20
79.371314
 30
0.0
 10
82.837731
 20
79.539981
 30
0.0
 10
82.837731
 20
79.879537
 30
0.0
 10
82.669061
 20
80.014027
 30
0.0
 10
82.025242
 20
80.014027
 30
0.0
 10
81.855468
 20
79.879537
 30
0.0
  0
LWPOLYLINE
  5
182
100
AcDbEntity
  8
0
 62
1
100
AcDbPolyline
 90
4
 70
0
 10
82.837731
 20
80.420828
 30
0.0
 10
81.855468
 20
80.420828
 30
0.0
 10
82.837731
 20
81.064648
 30
0.0
 10
81.855468
 20
81.064648
 30
0.0
  0
LWPOLYLINE
  5
183
100
AcDbEntity
  8
0
 62
1
100
AcDbPolyline
 90
12
 70
0
 10
87.613467
 20
84.010342
 30
0.0
 10
87.443685
 20
83.841672
 30
0.0
 10
87.443685
 20
83.503222
 30
0.0
 10
87.613467
 20
83.367626
 30
0.0
 10
87.782135
 20
83.367626
 30
0.0
 10
87.951908
 20
83.503222
 30
0.0
 10
87.951908
 20
83.841672
 30
0.0
 10
88.087510
 20
84.010342
 30
0.0
 10
88.256181
 20
84.010342
 30
0.0
 10
88.425954
 20
83.841672
 30
0.0
 10
88.425954
 20
83.503222
 30
0.0
 10
88.256181
 20
83.367626
 30
0.0
  0
LWPOLYLINE
  5
184
100
AcDbEntity
  8
0
 62
1
100
AcDbPolyline
 90
2
 70
0
 10
88.425954
 20
84.722510
 30
0.0
 10
87.443685
 20
84.722510
 30
0.0
  0
LWPOLYLINE
  5
185
100
AcDbEntity
  8
0
 62
1
100
AcDbPolyline
 90
2
 70
0
 10
87.443685
 20
84.417134
 30
0.0
 10
87.443685
 20
85.060959
 30
0.0
  0
LWPOLYLINE
  5
186
100
AcDbEntity
  8
0
 62
1
100
AcDbPolyline
 90
5
 70
0
 10
88.425954
 20
85.433583
 30
0.0
 10
87.782135
 20
85.433583
 30
0.0
 10
87.443685
 20
85.772024
 30
0.0
 10
87.782135
 20
86.110468
 30
0.0
 10
88.425954
 20
86.110468
 30
0.0
  0
LWPOLYLINE
  5
187
100
AcDbEntity
  8
0
 62
1
100
AcDbPolyline
 90
2
 70
0
 10
87.951908
 20
85.433583
 30
0.0
 10
87.951908
 20
86.110468
 30
0.0
  0
LWPOLYLINE
  5
188
100
AcDbEntity
  8
0
 62
1
100
AcDbPolyline
 90
7
 70
0
 10
88.425954
 20
86.483097
 30
0.0
 10
87.443685
 20
86.483097
 30
0.0
 10
87.443685
 20
86.991314
 30
0.0
 10
87.613467
 20
87.159981
 30
0.0
 10
87.951908
 20
87.159981
 30
0.0
 10
88.087510
 20
86.991314
 30
0.0
 10
88.087510
 20
86.483097
 30
0.0
  0
LWPOLYLINE
  5
189
100
AcDbEntity
  8
0
 62
1
100
AcDbPolyline
 90
2
 70
0
 10
88.087510
 20
86.821541
 30
0.0
 10
88.425954
 20
87.159981
 30
0.0
  0
LWPOLYLINE
  5
18a
100
AcDbEntity
  8
0
 62
1
100
AcDbPolyline
 90
2
 70
0
 10
88.425954
 20
87.871054
 30
0.0
 10
87.443685
 20
87.871054
 30
0.0
  0
LWPOLYLINE
  5
18b
100
AcDbEntity
  8
0
 62
1
100
AcDbPolyline
 90
2
 70
0
 10
87.443685
 20
87.532605
 30
0.0
 10
87.443685
 20
88.176430
 30
0.0
  0
LWPOLYLINE
  5
18c
100
AcDbEntity
  8
0
 62
1
100
AcDbPolyline
 90
10
 70
0
 10
86.935468
 20
73.952870
 30
0.0
 10
85.953199
 20
73.952870
 30
0.0
 10
85.953199
 20
74.426916
 30
0.0
 10
86.122981
 20
74.595584
 30
0.0
 10
86.258575
 20
74.595584
 30
0.0
 10
86.427245
 20
74.426916
 30
0.0
 10
86.597019
 20
74.595584
 30
0.0
 10
86.766801
 20
74.595584
 30
0.0
 10
86.935468
 20
74.426916
 30
0.0
 10
86.935468
 20
73.952870
 30
0.0
  0
LWPOLYLINE
  5
18d
100
AcDbEntity
  8
0
 62
1
100
AcDbPolyline
 90
2
 70
0
 10
86.427245
 20
73.952870
 30
0.0
 10
86.427245
 20
74.426916
 30
0.0
  0
LWPOLYLINE
  5
18e
100
AcDbEntity
  8
0
 62
1
100
AcDbPolyline
 90
5
 70
0
 10
86.935468
 20
75.002384
 30
0.0
 10
86.258575
 20
75.002384
 30
0.0
 10
85.953199
 20
75.306648
 30
0.0
 10
86.258575
 20
75.646204
 30
0.0
 10
86.935468
 20
75.646204
 30
0.0
  0
LWPOLYLINE
  5
18f
100
AcDbEntity
  8
0
 62
1
100
AcDbPolyline
 90
2
 70
0
 10
86.427245
 20
75.002384
 30
0.0
 10
86.427245
 20
75.646204
 30
0.0
  0
LWPOLYLINE
  5
190
100
AcDbEntity
  8
0
 62
1
100
AcDbPolyline
 90
2
 70
0
 10
86.935468
 20
76.357268
 30
0.0
 10
85.953199
 20
76.357268
 30
0.0
  0
LWPOLYLINE
  5
191
100
AcDbEntity
  8
0
 62
1
100
AcDbPolyline
 90
2
 70
0
 10
85.953199
 20
76.051893
 30
0.0
 10
85.953199
 20
76.695718
 30
0.0
  0
LWPOLYLINE
  5
192
100
AcDbEntity
  8
0
 62
1
100
AcDbPolyline
 90
2
 70
0
 10
86.935468
 20
77.406782
 30
0.0
 10
85.953199
 20
77.406782
 30
0.0
  0
LWPOLYLINE
  5
193
100
AcDbEntity
  8
0
 62
1
100
AcDbPolyline
 90
2
 70
0
 10
85.953199
 20
77.068339
 30
0.0
 10
85.953199
 20
77.745226
 30
0.0
  0
LWPOLYLINE
  5
194
100
AcDbEntity
  8
0
 62
1
100
AcDbPolyline
 90
9
 70
0
 10
87.646533
 20
73.376296
 30
0.0
 10
87.646533
 20
73.072024
 30
0.0
 10
87.816315
 20
72.902250
 30
0.0
 10
88.460134
 20
72.902250
 30
0.0
 10
88.628801
 20
73.072024
 30
0.0
 10
88.628801
 20
73.376296
 30
0.0
 10
88.460134
 20
73.546070
 30
0.0
 10
87.816315
 20
73.546070
 30
0.0
 10
87.646533
 20
73.376296
 30
0.0
  0
LWPOLYLINE
  5
195
100
AcDbEntity
  8
0
 62
1
100
AcDbPolyline
 90
4
 70
0
 10
88.628801
 20
73.952870
 30
0.0
 10
87.646533
 20
73.952870
 30
0.0
 10
88.628801
 20
74.595584
 30
0.0
 10
87.646533
 20
74.595584
 30
0.0
  0
LWPOLYLINE
  5
196
100
AcDbEntity
  8
0
 62
1
100
AcDbPolyline
 90
2
 70
0
 10
88.628801
 20
75.002384
 30
0.0
 10
87.646533
 20
75.646204
 30
0.0
  0
LWPOLYLINE
  5
197
100
AcDbEntity
  8
0
 62
1
100
AcDbPolyline
 90
9
 70
0
 10
87.646533
 20
76.525938
 30
0.0
 10
87.646533
 20
76.187495
 30
0.0
 10
87.816315
 20
76.051893
 30
0.0
 10
88.460134
 20
76.051893
 30
0.0
 10
88.628801
 20
76.187495
 30
0.0
 10
88.628801
 20
76.525938
 30
0.0
 10
88.460134
 20
76.695718
 30
0.0
 10
87.816315
 20
76.695718
 30
0.0
 10
87.646533
 20
76.525938
 30
0.0
  0
LWPOLYLINE
  5
198
100
AcDbEntity
  8
0
 62
1
100
AcDbPolyline
 90
3
 70
0
 10
88.628801
 20
77.068339
 30
0.0
 10
87.646533
 20
77.068339
 30
0.0
 10
87.646533
 20
77.745226
 30
0.0
  0
LWPOLYLINE
  5
199
100
AcDbEntity
  8
0
 62
1
100
AcDbPolyline
 90
2
 70
0
 10
88.154758
 20
77.068339
 30
0.0
 10
88.154758
 20
77.406782
 30
0.0
  0
LWPOLYLINE
  5
19a
100
AcDbEntity
  8
0
 62
1
100
AcDbPolyline
 90
3
 70
0
 10
88.628801
 20
78.117847
 30
0.0
 10
87.646533
 20
78.117847
 30
0.0
 10
87.646533
 20
78.795843
 30
0.0
  0
LWPOLYLINE
  5
19b
100
AcDbEntity
  8
0
 62
1
100
AcDbPolyline
 90
2
 70
0
 10
88.154758
 20
78.117847
 30
0.0
 10
88.154758
 20
78.456296
 30
0.0
  0
LWPOLYLINE
  5
19c
100
AcDbEntity
  8
0
 62
1
100
AcDbPolyline
 90
7
 70
0
 10
88.357606
 20
63.995718
 30
0.0
 10
87.376440
 20
63.995718
 30
0.0
 10
87.376440
 20
64.503935
 30
0.0
 10
87.545110
 20
64.639537
 30
0.0
 10
87.850486
 20
64.639537
 30
0.0
 10
88.019156
 20
64.503935
 30
0.0
 10
88.019156
 20
63.995718
 30
0.0
  0
LWPOLYLINE
  5
19d
100
AcDbEntity
  8
0
 62
1
100
AcDbPolyline
 90
2
 70
0
 10
88.019156
 20
64.334161
 30
0.0
 10
88.357606
 20
64.639537
 30
0.0
  0
LWPOLYLINE
  5
19e
100
AcDbEntity
  8
0
 62
1
100
AcDbPolyline
 90
4
 70
0
 10
87.376440
 20
65.689051
 30
0.0
 10
87.376440
 20
65.045226
 30
0.0
 10
88.357606
 20
65.045226
 30
0.0
 10
88.357606
 20
65.689051
 30
0.0
  0
LWPOLYLINE
  5
19f
100
AcDbEntity
  8
0
 62
1
100
AcDbPolyline
 90
2
 70
0
 10
87.850486
 20
65.045226
 30
0.0
 10
87.850486
 20
65.383675
 30
0.0
  0
LWPOLYLINE
  5
1a0
100
AcDbEntity
  8
0
 62
1
100
AcDbPolyline
 90
12
 70
0
 10
87.545110
 20
66.738559
 30
0.0
 10
87.376440
 20
66.602963
 30
0.0
 10
87.376440
 20
66.264513
 30
0.0
 10
87.545110
 20
66.095843
 30
0.0
 10
87.680713
 20
66.095843
 30
0.0
 10
87.850486
 20
66.264513
 30
0.0
 10
87.850486
 20
66.602963
 30
0.0
 10
88.019156
 20
66.738559
 30
0.0
 10
88.188935
 20
66.738559
 30
0.0
 10
88.357606
 20
66.602963
 30
0.0
 10
88.357606
 20
66.264513
 30
0.0
 10
88.188935
 20
66.095843
 30
0.0
  0
LWPOLYLINE
  5
1a1
100
AcDbEntity
  8
0
 62
1
100
AcDbPolyline
 90
4
 70
0
 10
87.376440
 20
67.789177
 30
0.0
 10
87.376440
 20
67.145357
 30
0.0
 10
88.357606
 20
67.145357
 30
0.0
 10
88.357606
 20
67.789177
 30
0.0
  0
LWPOLYLINE
  5
1a2
100
AcDbEntity
  8
0
 62
1
100
AcDbPolyline
 90
2
 70
0
 10
87.850486
 20
67.145357
 30
0.0
 10
87.850486
 20
67.483801
 30
0.0
  0
LWPOLYLINE
  5
1a3
100
AcDbEntity
  8
0
 62
1
100
AcDbPolyline
 90
2
 70
0
 10
88.357606
 20
68.533315
 30
0.0
 10
87.376440
 20
68.533315
 30
0.0
  0
LWPOLYLINE
  5
1a4
100
AcDbEntity
  8
0
 62
1
100
AcDbPolyline
 90
2
 70
0
 10
87.376440
 20
68.194874
 30
0.0
 10
87.376440
 20
68.838691
 30
0.0
  0
LWPOLYLINE
  5
1a5
100
AcDbEntity
  8
0
 62
1
100
AcDbPolyline
 90
5
 70
0
 10
93.336181
 20
120.282510
 30
0.0
 10
93.336181
 20
125.158562
 30
0.0
 10
95.097865
 20
125.158562
 30
0.0
 10
95.097865
 20
120.282510
 30
0.0
 10
93.336181
 20
120.282510
 30
0.0
  0
LWPOLYLINE
  5
1a6
100
AcDbEntity
  8
0
 62
1
100
AcDbPolyline
 90
2
 70
0
 10
93.505954
 20
122.077268
 30
0.0
 10
94.928092
 20
122.077268
 30
0.0
  0
LWPOLYLINE
  5
1a7
100
AcDbEntity
  8
0
 62
1
100
AcDbPolyline
 90
2
 70
0
 10
94.217019
 20
123.296556
 30
0.0
 10
93.505954
 20
122.077268
 30
0.0
  0
LWPOLYLINE
  5
1a8
100
AcDbEntity
  8
0
 62
1
100
AcDbPolyline
 90
2
 70
0
 10
94.928092
 20
122.077268
 30
0.0
 10
94.217019
 20
123.296556
 30
0.0
  0
LWPOLYLINE
  5
1a9
100
AcDbEntity
  8
0
 62
1
100
AcDbPolyline
 90
3
 70
0
 10
93.505954
 20
123.296556
 30
0.0
 10
94.217019
 20
123.296556
 30
0.0
 10
94.928092
 20
123.296556
 30
0.0
  0
LWPOLYLINE
  5
1aa
100
AcDbEntity
  8
0
 62
1
100
AcDbPolyline
 90
5
 70
0
 10
89.475468
 20
120.315584
 30
0.0
 10
89.475468
 20
125.192736
 30
0.0
 10
91.237153
 20
125.192736
 30
0.0
 10
91.237153
 20
120.315584
 30
0.0
 10
89.475468
 20
120.315584
 30
0.0
  0
LWPOLYLINE
  5
1ab
100
AcDbEntity
  8
0
 62
1
100
AcDbPolyline
 90
2
 70
0
 10
89.645242
 20
122.110342
 30
0.0
 10
91.067379
 20
122.110342
 30
0.0
  0
LWPOLYLINE
  5
1ac
100
AcDbEntity
  8
0
 62
1
100
AcDbPolyline
 90
2
 70
0
 10
90.356315
 20
123.329629
 30
0.0
 10
89.645242
 20
122.110342
 30
0.0
  0
LWPOLYLINE
  5
1ad
100
AcDbEntity
  8
0
 62
1
100
AcDbPolyline
 90
2
 70
0
 10
91.067379
 20
122.110342
 30
0.0
 10
90.356315
 20
123.329629
 30
0.0
  0
LWPOLYLINE
  5
1ae
100
AcDbEntity
  8
0
 62
1
100
AcDbPolyline
 90
3
 70
0
 10
89.645242
 20
123.329629
 30
0.0
 10
90.356315
 20
123.329629
 30
0.0
 10
91.067379
 20
123.329629
 30
0.0
  0
LWPOLYLINE
  5
1af
100
AcDbEntity
  8
0
 62
1
100
AcDbPolyline
 90
5
 70
0
 10
94.928092
 20
31.009889
 30
0.0
 10
94.928092
 20
26.132736
 30
0.0
 10
93.167510
 20
26.132736
 30
0.0
 10
93.167510
 20
31.009889
 30
0.0
 10
94.928092
 20
31.009889
 30
0.0
  0
LWPOLYLINE
  5
1b0
100
AcDbEntity
  8
0
 62
1
100
AcDbPolyline
 90
2
 70
0
 10
94.759422
 20
29.214027
 30
0.0
 10
93.336181
 20
29.214027
 30
0.0
  0
LWPOLYLINE
  5
1b1
100
AcDbEntity
  8
0
 62
1
100
AcDbPolyline
 90
2
 70
0
 10
94.047245
 20
27.995843
 30
0.0
 10
94.759422
 20
29.214027
 30
0.0
  0
LWPOLYLINE
  5
1b2
100
AcDbEntity
  8
0
 62
1
100
AcDbPolyline
 90
2
 70
0
 10
93.336181
 20
29.214027
 30
0.0
 10
94.047245
 20
27.995843
 30
0.0
  0
LWPOLYLINE
  5
1b3
100
AcDbEntity
  8
0
 62
1
100
AcDbPolyline
 90
3
 70
0
 10
94.759422
 20
27.995843
 30
0.0
 10
94.047245
 20
27.995843
 30
0.0
 10
93.336181
 20
27.995843
 30
0.0
  0
LWPOLYLINE
  5
1b4
100
AcDbEntity
  8
0
 62
1
100
AcDbPolyline
 90
5
 70
0
 10
91.440000
 20
31.042963
 30
0.0
 10
91.440000
 20
26.166916
 30
0.0
 10
89.679422
 20
26.166916
 30
0.0
 10
89.679422
 20
31.042963
 30
0.0
 10
91.440000
 20
31.042963
 30
0.0
  0
LWPOLYLINE
  5
1b5
100
AcDbEntity
  8
0
 62
1
100
AcDbPolyline
 90
2
 70
0
 10
91.270226
 20
29.248207
 30
0.0
 10
89.848092
 20
29.248207
 30
0.0
  0
LWPOLYLINE
  5
1b6
100
AcDbEntity
  8
0
 62
1
100
AcDbPolyline
 90
2
 70
0
 10
90.559156
 20
28.028917
 30
0.0
 10
91.270226
 20
29.248207
 30
0.0
  0
LWPOLYLINE
  5
1b7
100
AcDbEntity
  8
0
 62
1
100
AcDbPolyline
 90
2
 70
0
 10
89.848092
 20
29.248207
 30
0.0
 10
90.559156
 20
28.028917
 30
0.0
  0
LWPOLYLINE
  5
1b8
100
AcDbEntity
  8
0
 62
1
100
AcDbPolyline
 90
3
 70
0
 10
91.270226
 20
28.028917
 30
0.0
 10
90.559156
 20
28.028917
 30
0.0
 10
89.848092
 20
28.028917
 30
0.0
  0
LWPOLYLINE
  5
1b9
100
AcDbEntity
  8
0
 62
1
100
AcDbPolyline
 90
5
 70
0
 10
103.767379
 20
94.814161
 30
0.0
 10
103.767379
 20
89.937009
 30
0.0
 10
102.006801
 20
89.937009
 30
0.0
 10
102.006801
 20
94.814161
 30
0.0
 10
103.767379
 20
94.814161
 30
0.0
  0
LWPOLYLINE
  5
1ba
100
AcDbEntity
  8
0
 62
1
100
AcDbPolyline
 90
2
 70
0
 10
103.597606
 20
93.019403
 30
0.0
 10
102.175468
 20
93.019403
 30
0.0
  0
LWPOLYLINE
  5
1bb
100
AcDbEntity
  8
0
 62
1
100
AcDbPolyline
 90
2
 70
0
 10
102.886533
 20
91.800116
 30
0.0
 10
103.597606
 20
93.019403
 30
0.0
  0
LWPOLYLINE
  5
1bc
100
AcDbEntity
  8
0
 62
1
100
AcDbPolyline
 90
2
 70
0
 10
102.175468
 20
93.019403
 30
0.0
 10
102.886533
 20
91.800116
 30
0.0
  0
LWPOLYLINE
  5
1bd
100
AcDbEntity
  8
0
 62
1
100
AcDbPolyline
 90
3
 70
0
 10
103.597606
 20
91.800116
 30
0.0
 10
102.886533
 20
91.800116
 30
0.0
 10
102.175468
 20
91.800116
 30
0.0
  0
LWPOLYLINE
  5
1be
100
AcDbEntity
  8
0
 62
1
100
AcDbPolyline
 90
2
 70
0
 10
75.049061
 20
53.157721
 30
0.0
 10
67.530486
 20
53.157721
 30
0.0
  0
LWPOLYLINE
  5
1bf
100
AcDbEntity
  8
0
 62
1
100
AcDbPolyline
 90
4
 70
0
 10
75.049061
 20
50.042250
 30
0.0
 10
75.183560
 20
50.076430
 30
0.0
 10
75.286088
 20
50.212024
 30
0.0
 10
75.353333
 20
50.347626
 30
0.0
  0
LWPOLYLINE
  5
1c0
100
AcDbEntity
  8
0
 62
1
100
AcDbPolyline
 90
4
 70
0
 10
67.530486
 20
53.157721
 30
0.0
 10
67.360713
 20
53.124648
 30
0.0
 10
67.259287
 20
53.023222
 30
0.0
 10
67.225113
 20
52.853449
 30
0.0
  0
LWPOLYLINE
  5
1c1
100
AcDbEntity
  8
0
 62
1
100
AcDbPolyline
 90
4
 70
0
 10
75.353333
 20
52.853449
 30
0.0
 10
75.286088
 20
53.023222
 30
0.0
 10
75.183560
 20
53.124648
 30
0.0
 10
75.049061
 20
53.157721
 30
0.0
  0
LWPOLYLINE
  5
1c2
100
AcDbEntity
  8
0
 62
1
100
AcDbPolyline
 90
5
 70
0
 10
67.225113
 20
50.347626
 30
0.0
 10
67.259287
 20
50.212024
 30
0.0
 10
67.360713
 20
50.076430
 30
0.0
 10
67.530486
 20
50.042250
 30
0.0
 10
75.049061
 20
50.042250
 30
0.0
  0
LWPOLYLINE
  5
1c3
100
AcDbEntity
  8
0
 62
1
100
AcDbPolyline
 90
2
 70
0
 10
75.353333
 20
50.347626
 30
0.0
 10
75.353333
 20
52.853449
 30
0.0
  0
LWPOLYLINE
  5
1c4
100
AcDbEntity
  8
0
 62
1
100
AcDbPolyline
 90
4
 70
0
 10
67.225113
 20
52.853449
 30
0.0
 10
67.225113
 20
52.006782
 30
0.0
 10
67.225113
 20
51.194293
 30
0.0
 10
67.225113
 20
50.347626
 30
0.0
  0
LWPOLYLINE
  5
1c5
100
AcDbEntity
  8
0
 62
1
100
AcDbPolyline
 90
8
 70
0
 10
67.225113
 20
51.194293
 30
0.0
 10
67.394887
 20
51.227361
 30
0.0
 10
67.530486
 20
51.362963
 30
0.0
 10
67.597734
 20
51.532736
 30
0.0
 10
67.597734
 20
51.702510
 30
0.0
 10
67.530486
 20
51.871180
 30
0.0
 10
67.394887
 20
51.972605
 30
0.0
 10
67.225113
 20
52.006782
 30
0.0
  0
LWPOLYLINE
  5
1c6
100
AcDbEntity
  8
0
 62
1
100
AcDbPolyline
 90
2
 70
0
 10
67.225113
 20
50.313449
 30
0.0
 10
75.353333
 20
50.313449
 30
0.0
  0
LWPOLYLINE
  5
1c7
100
AcDbEntity
  8
0
 62
1
100
AcDbPolyline
 90
10
 70
0
 10
60.892752
 20
66.163097
 30
0.0
 10
67.293465
 20
66.163097
 30
0.0
 10
73.694177
 20
66.163097
 30
0.0
 10
80.094890
 20
66.163097
 30
0.0
 10
80.094890
 20
85.365226
 30
0.0
 10
73.694177
 20
85.365226
 30
0.0
 10
67.293465
 20
85.365226
 30
0.0
 10
65.701553
 20
85.365226
 30
0.0
 10
60.892752
 20
80.556430
 30
0.0
 10
60.892752
 20
66.163097
 30
0.0
  0
LWPOLYLINE
  5
1c8
100
AcDbEntity
  8
0
 62
1
100
AcDbPolyline
 90
17
 70
0
 10
73.694177
 20
85.737847
 30
0.0
 10
73.625823
 20
86.381672
 30
0.0
 10
73.457153
 20
86.957134
 30
0.0
 10
73.151777
 20
87.532605
 30
0.0
 10
72.746088
 20
88.006648
 30
0.0
 10
72.270939
 20
88.413449
 30
0.0
 10
71.729648
 20
88.717721
 30
0.0
 10
71.120000
 20
88.887495
 30
0.0
 10
70.510352
 20
88.955843
 30
0.0
 10
69.866533
 20
88.887495
 30
0.0
 10
69.291065
 20
88.717721
 30
0.0
 10
68.715602
 20
88.413449
 30
0.0
 10
68.241556
 20
88.006648
 30
0.0
 10
67.834758
 20
87.532605
 30
0.0
 10
67.530486
 20
86.957134
 30
0.0
 10
67.360713
 20
86.381672
 30
0.0
 10
67.293465
 20
85.737847
 30
0.0
  0
LWPOLYLINE
  5
1c9
100
AcDbEntity
  8
0
 62
1
100
AcDbPolyline
 90
17
 70
0
 10
67.293465
 20
65.756296
 30
0.0
 10
67.360713
 20
65.146648
 30
0.0
 10
67.530486
 20
64.537009
 30
0.0
 10
67.834758
 20
63.995718
 30
0.0
 10
68.241556
 20
63.487495
 30
0.0
 10
68.715602
 20
63.114874
 30
0.0
 10
69.291065
 20
62.810602
 30
0.0
 10
69.866533
 20
62.640828
 30
0.0
 10
70.510352
 20
62.573583
 30
0.0
 10
71.120000
 20
62.640828
 30
0.0
 10
71.729648
 20
62.810602
 30
0.0
 10
72.270939
 20
63.114874
 30
0.0
 10
72.746088
 20
63.487495
 30
0.0
 10
73.151777
 20
63.995718
 30
0.0
 10
73.457153
 20
64.537009
 30
0.0
 10
73.625823
 20
65.146648
 30
0.0
 10
73.694177
 20
65.756296
 30
0.0
  0
LWPOLYLINE
  5
1ca
100
AcDbEntity
  8
0
 62
1
100
AcDbPolyline
 90
2
 70
0
 10
67.293465
 20
85.737847
 30
0.0
 10
67.293465
 20
85.365226
 30
0.0
  0
LWPOLYLINE
  5
1cb
100
AcDbEntity
  8
0
 62
1
100
AcDbPolyline
 90
2
 70
0
 10
73.694177
 20
85.737847
 30
0.0
 10
73.694177
 20
85.365226
 30
0.0
  0
LWPOLYLINE
  5
1cc
100
AcDbEntity
  8
0
 62
1
100
AcDbPolyline
 90
2
 70
0
 10
67.293465
 20
65.756296
 30
0.0
 10
67.293465
 20
66.163097
 30
0.0
  0
LWPOLYLINE
  5
1cd
100
AcDbEntity
  8
0
 62
1
100
AcDbPolyline
 90
2
 70
0
 10
73.694177
 20
65.756296
 30
0.0
 10
73.694177
 20
66.163097
 30
0.0
  0
LWPOLYLINE
  5
1ce
100
AcDbEntity
  8
0
 62
1
100
AcDbPolyline
 90
10
 70
0
 10
78.502981
 20
94.137268
 30
0.0
 10
84.903685
 20
94.137268
 30
0.0
 10
91.304398
 20
94.137268
 30
0.0
 10
97.670939
 20
94.137268
 30
0.0
 10
97.670939
 20
113.339403
 30
0.0
 10
91.304398
 20
113.339403
 30
0.0
 10
84.903685
 20
113.339403
 30
0.0
 10
83.277606
 20
113.339403
 30
0.0
 10
78.502981
 20
108.530602
 30
0.0
 10
78.502981
 20
94.137268
 30
0.0
  0
LWPOLYLINE
  5
1cf
100
AcDbEntity
  8
0
 62
1
100
AcDbPolyline
 90
17
 70
0
 10
91.304398
 20
113.746201
 30
0.0
 10
91.237153
 20
114.355843
 30
0.0
 10
91.033199
 20
114.964388
 30
0.0
 10
90.763107
 20
115.506782
 30
0.0
 10
90.356315
 20
115.980828
 30
0.0
 10
89.882269
 20
116.387623
 30
0.0
 10
89.306801
 20
116.691895
 30
0.0
 10
88.730226
 20
116.861669
 30
0.0
 10
88.087510
 20
116.928917
 30
0.0
 10
87.477865
 20
116.861669
 30
0.0
 10
86.868223
 20
116.691895
 30
0.0
 10
86.325823
 20
116.387623
 30
0.0
 10
85.817606
 20
115.980828
 30
0.0
 10
85.446088
 20
115.506782
 30
0.0
 10
85.140713
 20
114.964388
 30
0.0
 10
84.970939
 20
114.355843
 30
0.0
 10
84.903685
 20
113.746201
 30
0.0
  0
LWPOLYLINE
  5
1d0
100
AcDbEntity
  8
0
 62
1
100
AcDbPolyline
 90
17
 70
0
 10
84.903685
 20
93.730468
 30
0.0
 10
84.970939
 20
93.120828
 30
0.0
 10
85.140713
 20
92.511180
 30
0.0
 10
85.446088
 20
91.969889
 30
0.0
 10
85.817606
 20
91.495843
 30
0.0
 10
86.325823
 20
91.089051
 30
0.0
 10
86.868223
 20
90.783675
 30
0.0
 10
87.477865
 20
90.615005
 30
0.0
 10
88.087510
 20
90.546648
 30
0.0
 10
88.730226
 20
90.615005
 30
0.0
 10
89.306801
 20
90.783675
 30
0.0
 10
89.882269
 20
91.089051
 30
0.0
 10
90.356315
 20
91.495843
 30
0.0
 10
90.763107
 20
91.969889
 30
0.0
 10
91.033199
 20
92.511180
 30
0.0
 10
91.237153
 20
93.120828
 30
0.0
 10
91.304398
 20
93.730468
 30
0.0
  0
LWPOLYLINE
  5
1d1
100
AcDbEntity
  8
0
 62
1
100
AcDbPolyline
 90
2
 70
0
 10
84.903685
 20
113.746201
 30
0.0
 10
84.903685
 20
113.339403
 30
0.0
  0
LWPOLYLINE
  5
1d2
100
AcDbEntity
  8
0
 62
1
100
AcDbPolyline
 90
2
 70
0
 10
91.304398
 20
113.746201
 30
0.0
 10
91.304398
 20
113.339403
 30
0.0
  0
LWPOLYLINE
  5
1d3
100
AcDbEntity
  8
0
 62
1
100
AcDbPolyline
 90
2
 70
0
 10
84.903685
 20
93.730468
 30
0.0
 10
84.903685
 20
94.137268
 30
0.0
  0
LWPOLYLINE
  5
1d4
100
AcDbEntity
  8
0
 62
1
100
AcDbPolyline
 90
2
 70
0
 10
91.304398
 20
93.730468
 30
0.0
 10
91.304398
 20
94.137268
 30
0.0
  0
LWPOLYLINE
  5
1d5
100
AcDbEntity
  8
0
 62
1
100
AcDbPolyline
 90
10
 70
0
 10
156.057865
 20
113.339403
 30
0.0
 10
149.657153
 20
113.339403
 30
0.0
 10
143.256440
 20
113.339403
 30
0.0
 10
136.855728
 20
113.339403
 30
0.0
 10
136.855728
 20
94.137268
 30
0.0
 10
143.256440
 20
94.137268
 30
0.0
 10
149.657153
 20
94.137268
 30
0.0
 10
151.249061
 20
94.137268
 30
0.0
 10
156.057865
 20
98.946070
 30
0.0
 10
156.057865
 20
113.339403
 30
0.0
  0
LWPOLYLINE
  5
1d6
100
AcDbEntity
  8
0
 62
1
100
AcDbPolyline
 90
17
 70
0
 10
143.256440
 20
93.730468
 30
0.0
 10
143.323685
 20
93.120828
 30
0.0
 10
143.526533
 20
92.511180
 30
0.0
 10
143.797731
 20
91.969889
 30
0.0
 10
144.204532
 20
91.495843
 30
0.0
 10
144.678575
 20
91.089051
 30
0.0
 10
145.254046
 20
90.783675
 30
0.0
 10
145.829514
 20
90.615005
 30
0.0
 10
146.473333
 20
90.546648
 30
0.0
 10
147.082981
 20
90.615005
 30
0.0
 10
147.692621
 20
90.783675
 30
0.0
 10
148.233912
 20
91.089051
 30
0.0
 10
148.742135
 20
91.495843
 30
0.0
 10
149.114758
 20
91.969889
 30
0.0
 10
149.420134
 20
92.511180
 30
0.0
 10
149.588801
 20
93.120828
 30
0.0
 10
149.657153
 20
93.730468
 30
0.0
  0
LWPOLYLINE
  5
1d7
100
AcDbEntity
  8
0
 62
1
100
AcDbPolyline
 90
17
 70
0
 10
149.657153
 20
113.746201
 30
0.0
 10
149.588801
 20
114.355843
 30
0.0
 10
149.420134
 20
114.964388
 30
0.0
 10
149.114758
 20
115.506782
 30
0.0
 10
148.742135
 20
115.980828
 30
0.0
 10
148.233912
 20
116.387623
 30
0.0
 10
147.692621
 20
116.691895
 30
0.0
 10
147.082981
 20
116.861669
 30
0.0
 10
146.473333
 20
116.928917
 30
0.0
 10
145.829514
 20
116.861669
 30
0.0
 10
145.254046
 20
116.691895
 30
0.0
 10
144.678575
 20
116.387623
 30
0.0
 10
144.204532
 20
115.980828
 30
0.0
 10
143.797731
 20
115.506782
 30
0.0
 10
143.526533
 20
114.964388
 30
0.0
 10
143.323685
 20
114.355843
 30
0.0
 10
143.256440
 20
113.746201
 30
0.0
  0
LWPOLYLINE
  5
1d8
100
AcDbEntity
  8
0
 62
1
100
AcDbPolyline
 90
2
 70
0
 10
149.657153
 20
93.730468
 30
0.0
 10
149.657153
 20
94.137268
 30
0.0
  0
LWPOLYLINE
  5
1d9
100
AcDbEntity
  8
0
 62
1
100
AcDbPolyline
 90
2
 70
0
 10
143.256440
 20
93.730468
 30
0.0
 10
143.256440
 20
94.137268
 30
0.0
  0
LWPOLYLINE
  5
1da
100
AcDbEntity
  8
0
 62
1
100
AcDbPolyline
 90
2
 70
0
 10
149.657153
 20
113.746201
 30
0.0
 10
149.657153
 20
113.339403
 30
0.0
  0
LWPOLYLINE
  5
1db
100
AcDbEntity
  8
0
 62
1
100
AcDbPolyline
 90
2
 70
0
 10
143.256440
 20
113.746201
 30
0.0
 10
143.256440
 20
113.339403
 30
0.0
  0
LWPOLYLINE
  5
1dc
100
AcDbEntity
  8
0
 62
1
100
AcDbPolyline
 90
10
 70
0
 10
156.057865
 20
57.357981
 30
0.0
 10
149.657153
 20
57.357981
 30
0.0
 10
143.256440
 20
57.357981
 30
0.0
 10
136.855728
 20
57.357981
 30
0.0
 10
136.855728
 20
38.188917
 30
0.0
 10
143.256440
 20
38.188917
 30
0.0
 10
149.657153
 20
38.188917
 30
0.0
 10
151.249061
 20
38.188917
 30
0.0
 10
156.057865
 20
42.964648
 30
0.0
 10
156.057865
 20
57.357981
 30
0.0
  0
LWPOLYLINE
  5
1dd
100
AcDbEntity
  8
0
 62
1
100
AcDbPolyline
 90
17
 70
0
 10
143.256440
 20
37.783222
 30
0.0
 10
143.323685
 20
37.139403
 30
0.0
 10
143.526533
 20
36.563935
 30
0.0
 10
143.797731
 20
35.987361
 30
0.0
 10
144.204532
 20
35.513315
 30
0.0
 10
144.678575
 20
35.107626
 30
0.0
 10
145.254046
 20
34.836430
 30
0.0
 10
145.829514
 20
34.633583
 30
0.0
 10
146.473333
 20
34.565226
 30
0.0
 10
147.082981
 20
34.633583
 30
0.0
 10
147.692621
 20
34.836430
 30
0.0
 10
148.233912
 20
35.107626
 30
0.0
 10
148.742135
 20
35.513315
 30
0.0
 10
149.114758
 20
35.987361
 30
0.0
 10
149.420134
 20
36.563935
 30
0.0
 10
149.588801
 20
37.139403
 30
0.0
 10
149.657153
 20
37.783222
 30
0.0
  0
LWPOLYLINE
  5
1de
100
AcDbEntity
  8
0
 62
1
100
AcDbPolyline
 90
17
 70
0
 10
149.657153
 20
57.763675
 30
0.0
 10
149.588801
 20
58.373315
 30
0.0
 10
149.420134
 20
58.982963
 30
0.0
 10
149.114758
 20
59.559537
 30
0.0
 10
148.742135
 20
60.033583
 30
0.0
 10
148.233912
 20
60.439272
 30
0.0
 10
147.692621
 20
60.710468
 30
0.0
 10
147.082981
 20
60.913315
 30
0.0
 10
146.473333
 20
60.947495
 30
0.0
 10
145.829514
 20
60.913315
 30
0.0
 10
145.254046
 20
60.710468
 30
0.0
 10
144.678575
 20
60.439272
 30
0.0
 10
144.204532
 20
60.033583
 30
0.0
 10
143.797731
 20
59.559537
 30
0.0
 10
143.526533
 20
58.982963
 30
0.0
 10
143.323685
 20
58.373315
 30
0.0
 10
143.256440
 20
57.763675
 30
0.0
  0
LWPOLYLINE
  5
1df
100
AcDbEntity
  8
0
 62
1
100
AcDbPolyline
 90
2
 70
0
 10
149.657153
 20
37.783222
 30
0.0
 10
149.657153
 20
38.188917
 30
0.0
  0
LWPOLYLINE
  5
1e0
100
AcDbEntity
  8
0
 62
1
100
AcDbPolyline
 90
2
 70
0
 10
143.256440
 20
37.783222
 30
0.0
 10
143.256440
 20
38.188917
 30
0.0
  0
LWPOLYLINE
  5
1e1
100
AcDbEntity
  8
0
 62
1
100
AcDbPolyline
 90
2
 70
0
 10
149.657153
 20
57.763675
 30
0.0
 10
149.657153
 20
57.357981
 30
0.0
  0
LWPOLYLINE
  5
1e2
100
AcDbEntity
  8
0
 62
1
100
AcDbPolyline
 90
2
 70
0
 10
143.256440
 20
57.763675
 30
0.0
 10
143.256440
 20
57.357981
 30
0.0
  0
LWPOLYLINE
  5
1e3
100
AcDbEntity
  8
0
 62
1
100
AcDbPolyline
 90
10
 70
0
 10
78.502981
 20
38.188917
 30
0.0
 10
84.903685
 20
38.188917
 30
0.0
 10
91.304398
 20
38.188917
 30
0.0
 10
97.670939
 20
38.188917
 30
0.0
 10
97.670939
 20
57.357981
 30
0.0
 10
91.304398
 20
57.357981
 30
0.0
 10
84.903685
 20
57.357981
 30
0.0
 10
83.277606
 20
57.357981
 30
0.0
 10
78.502981
 20
52.582250
 30
0.0
 10
78.502981
 20
38.188917
 30
0.0
  0
LWPOLYLINE
  5
1e4
100
AcDbEntity
  8
0
 62
1
100
AcDbPolyline
 90
17
 70
0
 10
91.304398
 20
57.763675
 30
0.0
 10
91.237153
 20
58.373315
 30
0.0
 10
91.033199
 20
58.982963
 30
0.0
 10
90.763107
 20
59.559537
 30
0.0
 10
90.356315
 20
60.033583
 30
0.0
 10
89.882269
 20
60.439272
 30
0.0
 10
89.306801
 20
60.710468
 30
0.0
 10
88.730226
 20
60.913315
 30
0.0
 10
88.087510
 20
60.947495
 30
0.0
 10
87.477865
 20
60.913315
 30
0.0
 10
86.868223
 20
60.710468
 30
0.0
 10
86.325823
 20
60.439272
 30
0.0
 10
85.817606
 20
60.033583
 30
0.0
 10
85.446088
 20
59.559537
 30
0.0
 10
85.140713
 20
58.982963
 30
0.0
 10
84.970939
 20
58.373315
 30
0.0
 10
84.903685
 20
57.763675
 30
0.0
  0
LWPOLYLINE
  5
1e5
100
AcDbEntity
  8
0
 62
1
100
AcDbPolyline
 90
17
 70
0
 10
84.903685
 20
37.783222
 30
0.0
 10
84.970939
 20
37.139403
 30
0.0
 10
85.140713
 20
36.563935
 30
0.0
 10
85.446088
 20
35.987361
 30
0.0
 10
85.817606
 20
35.513315
 30
0.0
 10
86.325823
 20
35.107626
 30
0.0
 10
86.868223
 20
34.836430
 30
0.0
 10
87.477865
 20
34.633583
 30
0.0
 10
88.087510
 20
34.565226
 30
0.0
 10
88.730226
 20
34.633583
 30
0.0
 10
89.306801
 20
34.836430
 30
0.0
 10
89.882269
 20
35.107626
 30
0.0
 10
90.356315
 20
35.513315
 30
0.0
 10
90.763107
 20
35.987361
 30
0.0
 10
91.033199
 20
36.563935
 30
0.0
 10
91.237153
 20
37.139403
 30
0.0
 10
91.304398
 20
37.783222
 30
0.0
  0
LWPOLYLINE
  5
1e6
100
AcDbEntity
  8
0
 62
1
100
AcDbPolyline
 90
2
 70
0
 10
84.903685
 20
57.763675
 30
0.0
 10
84.903685
 20
57.357981
 30
0.0
  0
LWPOLYLINE
  5
1e7
100
AcDbEntity
  8
0
 62
1
100
AcDbPolyline
 90
2
 70
0
 10
91.304398
 20
57.763675
 30
0.0
 10
91.304398
 20
57.357981
 30
0.0
  0
LWPOLYLINE
  5
1e8
100
AcDbEntity
  8
0
 62
1
100
AcDbPolyline
 90
2
 70
0
 10
84.903685
 20
37.783222
 30
0.0
 10
84.903685
 20
38.188917
 30
0.0
  0
LWPOLYLINE
  5
1e9
100
AcDbEntity
  8
0
 62
1
100
AcDbPolyline
 90
2
 70
0
 10
91.304398
 20
37.783222
 30
0.0
 10
91.304398
 20
38.188917
 30
0.0
  0
LWPOLYLINE
  5
1ea
100
AcDbEntity
  8
0
 62
1
100
AcDbPolyline
 90
5
 70
0
 10
99.297019
 20
64.977981
 30
0.0
 10
99.297019
 20
86.550342
 30
0.0
 10
113.690352
 20
86.550342
 30
0.0
 10
113.690352
 20
64.977981
 30
0.0
 10
99.297019
 20
64.977981
 30
0.0
  0
LWPOLYLINE
  5
1eb
100
AcDbEntity
  8
0
 62
1
100
AcDbPolyline
 90
2
 70
0
 10
100.076440
 20
70.566204
 30
0.0
 10
102.480844
 20
70.566204
 30
0.0
  0
LWPOLYLINE
  5
1ec
100
AcDbEntity
  8
0
 62
1
100
AcDbPolyline
 90
2
 70
0
 10
101.295728
 20
71.751314
 30
0.0
 10
101.295728
 20
69.346916
 30
0.0
  0
LWPOLYLINE
  5
1ed
100
AcDbEntity
  8
0
 62
1
100
AcDbPolyline
 90
2
 70
0
 10
101.295728
 20
82.148339
 30
0.0
 10
101.295728
 20
79.743935
 30
0.0
  0
LWPOLYLINE
  5
1ee
100
AcDbEntity
  8
0
 62
1
100
AcDbPolyline
 90
5
 70
0
 10
115.282269
 20
63.487495
 30
0.0
 10
120.192490
 20
63.487495
 30
0.0
 10
120.192490
 20
61.759981
 30
0.0
 10
115.282269
 20
61.759981
 30
0.0
 10
115.282269
 20
63.487495
 30
0.0
  0
LWPOLYLINE
  5
1ef
100
AcDbEntity
  8
0
 62
1
100
AcDbPolyline
 90
2
 70
0
 10
117.077019
 20
63.317721
 30
0.0
 10
117.077019
 20
61.929764
 30
0.0
  0
LWPOLYLINE
  5
1f0
100
AcDbEntity
  8
0
 62
1
100
AcDbPolyline
 90
2
 70
0
 10
118.296315
 20
62.640828
 30
0.0
 10
117.077019
 20
63.317721
 30
0.0
  0
LWPOLYLINE
  5
1f1
100
AcDbEntity
  8
0
 62
1
100
AcDbPolyline
 90
2
 70
0
 10
117.077019
 20
61.929764
 30
0.0
 10
118.296315
 20
62.640828
 30
0.0
  0
LWPOLYLINE
  5
1f2
100
AcDbEntity
  8
0
 62
1
100
AcDbPolyline
 90
3
 70
0
 10
118.296315
 20
63.317721
 30
0.0
 10
118.296315
 20
62.640828
 30
0.0
 10
118.296315
 20
61.929764
 30
0.0
  0
LWPOLYLINE
  5
1f3
100
AcDbEntity
  8
0
 62
1
100
AcDbPolyline
 90
8
 70
0
 10
114.334177
 20
91.291893
 30
0.0
 10
114.334177
 20
91.089051
 30
0.0
 10
114.334177
 20
88.751893
 30
0.0
 10
117.889514
 20
88.751893
 30
0.0
 10
117.889514
 20
91.291893
 30
0.0
 10
114.638444
 20
91.291893
 30
0.0
 10
114.571199
 20
91.291893
 30
0.0
 10
114.334177
 20
91.291893
 30
0.0
  0
LWPOLYLINE
  5
1f4
100
AcDbEntity
  8
0
 62
1
100
AcDbPolyline
 90
3
 70
0
 10
114.571199
 20
91.291893
 30
0.0
 10
114.571199
 20
91.089051
 30
0.0
 10
114.334177
 20
91.089051
 30
0.0
  0
LWPOLYLINE
  5
1f5
100
AcDbEntity
  8
0
 62
1
100
AcDbPolyline
 90
3
 70
0
 10
114.638444
 20
91.291893
 30
0.0
 10
114.638444
 20
91.054874
 30
0.0
 10
114.401425
 20
91.054874
 30
0.0
  0
LWPOLYLINE
  5
1f6
100
AcDbEntity
  8
0
 62
1
100
AcDbPolyline
 90
2
 70
0
 10
168.926533
 20
101.316296
 30
0.0
 10
168.926533
 20
102.671183
 30
0.0
  0
LWPOLYLINE
  5
1f7
100
AcDbEntity
  8
0
 62
1
100
AcDbPolyline
 90
2
 70
0
 10
158.156893
 20
101.316296
 30
0.0
 10
158.156893
 20
102.671183
 30
0.0
  0
LWPOLYLINE
  5
1f8
100
AcDbEntity
  8
0
 62
1
100
AcDbPolyline
 90
2
 70
0
 10
168.926533
 20
87.024388
 30
0.0
 10
168.148223
 20
87.024388
 30
0.0
  0
LWPOLYLINE
  5
1f9
100
AcDbEntity
  8
0
 62
1
100
AcDbPolyline
 90
2
 70
0
 10
168.926533
 20
87.024388
 30
0.0
 10
168.926533
 20
87.803801
 30
0.0
  0
LWPOLYLINE
  5
1fa
100
AcDbEntity
  8
0
 62
1
100
AcDbPolyline
 90
2
 70
0
 10
158.156893
 20
87.024388
 30
0.0
 10
158.936315
 20
87.024388
 30
0.0
  0
LWPOLYLINE
  5
1fb
100
AcDbEntity
  8
0
 62
1
100
AcDbPolyline
 90
2
 70
0
 10
158.156893
 20
87.024388
 30
0.0
 10
158.156893
 20
87.803801
 30
0.0
  0
LWPOLYLINE
  5
1fc
100
AcDbEntity
  8
0
 62
1
100
AcDbPolyline
 90
2
 70
0
 10
158.156893
 20
107.649761
 30
0.0
 10
158.936315
 20
107.649761
 30
0.0
  0
LWPOLYLINE
  5
1fd
100
AcDbEntity
  8
0
 62
1
100
AcDbPolyline
 90
2
 70
0
 10
158.156893
 20
107.649761
 30
0.0
 10
158.156893
 20
106.837268
 30
0.0
  0
LWPOLYLINE
  5
1fe
100
AcDbEntity
  8
0
 62
1
100
AcDbPolyline
 90
2
 70
0
 10
168.926533
 20
107.649761
 30
0.0
 10
168.046801
 20
107.649761
 30
0.0
  0
LWPOLYLINE
  5
1ff
100
AcDbEntity
  8
0
 62
1
100
AcDbPolyline
 90
2
 70
0
 10
168.926533
 20
107.649761
 30
0.0
 10
168.926533
 20
106.837268
 30
0.0
  0
LWPOLYLINE
  5
200
100
AcDbEntity
  8
0
 62
1
100
AcDbPolyline
 90
9
 70
0
 10
112.877865
 20
35.784513
 30
0.0
 10
122.462394
 20
35.784513
 30
0.0
 10
122.462394
 20
36.597009
 30
0.0
 10
122.462394
 20
44.589629
 30
0.0
 10
122.462394
 20
51.769764
 30
0.0
 10
112.877865
 20
51.769764
 30
0.0
 10
112.877865
 20
44.589629
 30
0.0
 10
112.877865
 20
36.597009
 30
0.0
 10
112.877865
 20
35.784513
 30
0.0
  0
LWPOLYLINE
  5
201
100
AcDbEntity
  8
0
 62
1
100
AcDbPolyline
 90
19
 70
0
 10
110.473467
 20
44.589629
 30
0.0
 10
109.795468
 20
44.522384
 30
0.0
 10
109.118575
 20
44.352605
 30
0.0
 10
108.474758
 20
44.048339
 30
0.0
 10
107.899287
 20
43.641541
 30
0.0
 10
107.425242
 20
43.167495
 30
0.0
 10
107.018444
 20
42.592024
 30
0.0
 10
106.714177
 20
41.948207
 30
0.0
 10
106.544398
 20
41.271314
 30
0.0
 10
106.477153
 20
40.593315
 30
0.0
 10
106.544398
 20
39.882250
 30
0.0
 10
106.714177
 20
39.205357
 30
0.0
 10
107.018444
 20
38.595718
 30
0.0
 10
107.425242
 20
38.020250
 30
0.0
 10
107.899287
 20
37.512024
 30
0.0
 10
108.474758
 20
37.105226
 30
0.0
 10
109.118575
 20
36.834027
 30
0.0
 10
109.795468
 20
36.631180
 30
0.0
 10
110.473467
 20
36.597009
 30
0.0
  0
LWPOLYLINE
  5
202
100
AcDbEntity
  8
0
 62
1
100
AcDbPolyline
 90
19
 70
0
 10
124.866801
 20
36.597009
 30
0.0
 10
125.577865
 20
36.631180
 30
0.0
 10
126.254758
 20
36.834027
 30
0.0
 10
126.864398
 20
37.105226
 30
0.0
 10
127.439866
 20
37.512024
 30
0.0
 10
127.948092
 20
38.020250
 30
0.0
 10
128.354890
 20
38.595718
 30
0.0
 10
128.626088
 20
39.205357
 30
0.0
 10
128.828935
 20
39.882250
 30
0.0
 10
128.863107
 20
40.593315
 30
0.0
 10
128.828935
 20
41.271314
 30
0.0
 10
128.626088
 20
41.948207
 30
0.0
 10
128.354890
 20
42.592024
 30
0.0
 10
127.948092
 20
43.167495
 30
0.0
 10
127.439866
 20
43.641541
 30
0.0
 10
126.864398
 20
44.048339
 30
0.0
 10
126.254758
 20
44.352605
 30
0.0
 10
125.577865
 20
44.522384
 30
0.0
 10
124.866801
 20
44.589629
 30
0.0
  0
LWPOLYLINE
  5
203
100
AcDbEntity
  8
0
 62
1
100
AcDbPolyline
 90
2
 70
0
 10
110.473467
 20
44.589629
 30
0.0
 10
112.877865
 20
44.589629
 30
0.0
  0
LWPOLYLINE
  5
204
100
AcDbEntity
  8
0
 62
1
100
AcDbPolyline
 90
2
 70
0
 10
110.473467
 20
36.597009
 30
0.0
 10
112.877865
 20
36.597009
 30
0.0
  0
LWPOLYLINE
  5
205
100
AcDbEntity
  8
0
 62
1
100
AcDbPolyline
 90
2
 70
0
 10
122.462394
 20
44.589629
 30
0.0
 10
124.866801
 20
44.589629
 30
0.0
  0
LWPOLYLINE
  5
206
100
AcDbEntity
  8
0
 62
1
100
AcDbPolyline
 90
2
 70
0
 10
122.462394
 20
36.597009
 30
0.0
 10
124.866801
 20
36.597009
 30
0.0
  0
LWPOLYLINE
  5
207
100
AcDbEntity
  8
0
 62
1
100
AcDbPolyline
 90
5
 70
0
 10
111.692755
 20
35.784513
 30
0.0
 10
111.692755
 20
44.996430
 30
0.0
 10
123.680578
 20
44.996430
 30
0.0
 10
123.680578
 20
35.784513
 30
0.0
 10
111.692755
 20
35.784513
 30
0.0
  0
LWPOLYLINE
  5
208
100
AcDbEntity
  8
0
 62
1
100
AcDbPolyline
 90
9
 70
0
 10
122.462394
 20
115.709629
 30
0.0
 10
112.877865
 20
115.709629
 30
0.0
 10
112.877865
 20
114.931314
 30
0.0
 10
112.877865
 20
106.938691
 30
0.0
 10
112.877865
 20
99.724388
 30
0.0
 10
122.462394
 20
99.724388
 30
0.0
 10
122.462394
 20
106.938691
 30
0.0
 10
122.462394
 20
114.931314
 30
0.0
 10
122.462394
 20
115.709629
 30
0.0
  0
LWPOLYLINE
  5
209
100
AcDbEntity
  8
0
 62
1
100
AcDbPolyline
 90
19
 70
0
 10
124.866801
 20
106.938691
 30
0.0
 10
125.577865
 20
107.005941
 30
0.0
 10
126.254758
 20
107.175715
 30
0.0
 10
126.864398
 20
107.479984
 30
0.0
 10
127.439866
 20
107.852608
 30
0.0
 10
127.948092
 20
108.360828
 30
0.0
 10
128.354890
 20
108.936296
 30
0.0
 10
128.626088
 20
109.545941
 30
0.0
 10
128.828935
 20
110.223935
 30
0.0
 10
128.863107
 20
110.935002
 30
0.0
 10
128.828935
 20
111.611895
 30
0.0
 10
128.626088
 20
112.289889
 30
0.0
 10
128.354890
 20
112.932608
 30
0.0
 10
127.948092
 20
113.509177
 30
0.0
 10
127.439866
 20
113.983222
 30
0.0
 10
126.864398
 20
114.388917
 30
0.0
 10
126.254758
 20
114.694290
 30
0.0
 10
125.577865
 20
114.862963
 30
0.0
 10
124.866801
 20
114.931314
 30
0.0
  0
LWPOLYLINE
  5
20a
100
AcDbEntity
  8
0
 62
1
100
AcDbPolyline
 90
19
 70
0
 10
110.473467
 20
114.931314
 30
0.0
 10
109.795468
 20
114.862963
 30
0.0
 10
109.118575
 20
114.694290
 30
0.0
 10
108.474758
 20
114.388917
 30
0.0
 10
107.899287
 20
113.983222
 30
0.0
 10
107.425242
 20
113.509177
 30
0.0
 10
107.018444
 20
112.932608
 30
0.0
 10
106.714177
 20
112.289889
 30
0.0
 10
106.544398
 20
111.611895
 30
0.0
 10
106.477153
 20
110.935002
 30
0.0
 10
106.544398
 20
110.223935
 30
0.0
 10
106.714177
 20
109.545941
 30
0.0
 10
107.018444
 20
108.936296
 30
0.0
 10
107.425242
 20
108.360828
 30
0.0
 10
107.899287
 20
107.852608
 30
0.0
 10
108.474758
 20
107.479984
 30
0.0
 10
109.118575
 20
107.175715
 30
0.0
 10
109.795468
 20
107.005941
 30
0.0
 10
110.473467
 20
106.938691
 30
0.0
  0
LWPOLYLINE
  5
20b
100
AcDbEntity
  8
0
 62
1
100
AcDbPolyline
 90
2
 70
0
 10
124.866801
 20
106.938691
 30
0.0
 10
122.462394
 20
106.938691
 30
0.0
  0
LWPOLYLINE
  5
20c
100
AcDbEntity
  8
0
 62
1
100
AcDbPolyline
 90
2
 70
0
 10
124.866801
 20
114.931314
 30
0.0
 10
122.462394
 20
114.931314
 30
0.0
  0
LWPOLYLINE
  5
20d
100
AcDbEntity
  8
0
 62
1
100
AcDbPolyline
 90
2
 70
0
 10
112.877865
 20
106.938691
 30
0.0
 10
110.473467
 20
106.938691
 30
0.0
  0
LWPOLYLINE
  5
20e
100
AcDbEntity
  8
0
 62
1
100
AcDbPolyline
 90
2
 70
0
 10
112.877865
 20
114.931314
 30
0.0
 10
110.473467
 20
114.931314
 30
0.0
  0
LWPOLYLINE
  5
20f
100
AcDbEntity
  8
0
 62
1
100
AcDbPolyline
 90
5
 70
0
 10
123.680578
 20
115.709629
 30
0.0
 10
123.680578
 20
106.531895
 30
0.0
 10
111.692755
 20
106.531895
 30
0.0
 10
111.692755
 20
115.709629
 30
0.0
 10
123.680578
 20
115.709629
 30
0.0
  0
LWPOLYLINE
  5
210
100
AcDbEntity
  8
0
 62
1
100
AcDbPolyline
 90
5
 70
0
 10
141.089061
 20
68.466070
 30
0.0
 10
143.730486
 20
68.466070
 30
0.0
 10
143.730486
 20
64.299981
 30
0.0
 10
141.089061
 20
64.299981
 30
0.0
 10
141.089061
 20
68.466070
 30
0.0
  0
LWPOLYLINE
  5
211
100
AcDbEntity
  8
0
 62
1
100
AcDbPolyline
 90
4
 70
0
 10
142.511199
 20
72.394027
 30
0.0
 10
142.511199
 20
77.982250
 30
0.0
 10
148.099422
 20
77.982250
 30
0.0
 10
148.099422
 20
72.665226
 30
0.0
  0
LWPOLYLINE
  5
212
100
AcDbEntity
  8
0
 62
1
100
AcDbPolyline
 90
2
 70
0
 10
147.828223
 20
72.394027
 30
0.0
 10
142.511199
 20
72.394027
 30
0.0
  0
LWPOLYLINE
  5
213
100
AcDbEntity
  8
0
 62
1
100
AcDbPolyline
 90
2
 70
0
 10
147.828223
 20
72.394027
 30
0.0
 10
148.099422
 20
72.665226
 30
0.0
  0
LWPOLYLINE
  5
214
100
AcDbEntity
  8
0
 62
1
100
AcDbPolyline
 90
4
 70
0
 10
164.083560
 20
57.730602
 30
0.0
 10
172.245954
 20
57.730602
 30
0.0
 10
172.245954
 20
61.895584
 30
0.0
 10
164.083560
 20
61.895584
 30
0.0
  0
LWPOLYLINE
  5
215
100
AcDbEntity
  8
0
 62
1
100
AcDbPolyline
 90
3
 70
0
 10
164.083560
 20
61.862510
 30
0.0
 10
164.083560
 20
58.814293
 30
0.0
 10
164.083560
 20
57.797847
 30
0.0
  0
LWPOLYLINE
  5
216
100
AcDbEntity
  8
0
 62
1
100
AcDbPolyline
 90
3
 70
0
 10
165.100000
 20
57.797847
 30
0.0
 10
165.100000
 20
58.814293
 30
0.0
 10
164.083560
 20
58.814293
 30
0.0
  0
LWPOLYLINE
  5
217
100
AcDbEntity
  8
0
 62
1
100
AcDbPolyline
 90
5
 70
0
 10
172.043107
 20
72.563801
 30
0.0
 10
172.043107
 20
74.866782
 30
0.0
 10
173.532490
 20
74.866782
 30
0.0
 10
173.532490
 20
72.563801
 30
0.0
 10
172.043107
 20
72.563801
 30
0.0
  0
LWPOLYLINE
  5
218
100
AcDbEntity
  8
0
 62
1
100
AcDbPolyline
 90
5
 70
0
 10
157.073199
 20
75.883222
 30
0.0
 10
157.005954
 20
76.255843
 30
0.0
 10
156.870352
 20
76.627361
 30
0.0
 10
156.667510
 20
76.966916
 30
0.0
 10
156.362135
 20
77.203935
 30
0.0
  0
LWPOLYLINE
  5
219
100
AcDbEntity
  8
0
 62
1
100
AcDbPolyline
 90
2
 70
0
 10
156.362135
 20
77.711054
 30
0.0
 10
157.175728
 20
77.711054
 30
0.0
  0
LWPOLYLINE
  5
21a
100
AcDbEntity
  8
0
 62
1
100
AcDbPolyline
 90
5
 70
0
 10
156.362135
 20
69.041541
 30
0.0
 10
156.667510
 20
69.312736
 30
0.0
 10
156.870352
 20
69.617009
 30
0.0
 10
157.005954
 20
69.989629
 30
0.0
 10
157.073199
 20
70.396430
 30
0.0
  0
LWPOLYLINE
  5
21b
100
AcDbEntity
  8
0
 62
1
100
AcDbPolyline
 90
2
 70
0
 10
156.362135
 20
68.567495
 30
0.0
 10
157.175728
 20
68.567495
 30
0.0
  0
LWPOLYLINE
  5
21c
100
AcDbEntity
  8
0
 62
1
100
AcDbPolyline
 90
2
 70
0
 10
154.431777
 20
70.396430
 30
0.0
 10
154.431777
 20
75.883222
 30
0.0
  0
LWPOLYLINE
  5
21d
100
AcDbEntity
  8
0
 62
1
100
AcDbPolyline
 90
2
 70
0
 10
153.822135
 20
70.396430
 30
0.0
 10
153.822135
 20
75.883222
 30
0.0
  0
LWPOLYLINE
  5
21e
100
AcDbEntity
  8
0
 62
1
100
AcDbPolyline
 90
2
 70
0
 10
156.463560
 20
75.883222
 30
0.0
 10
156.463560
 20
70.396430
 30
0.0
  0
LWPOLYLINE
  5
21f
100
AcDbEntity
  8
0
 62
1
100
AcDbPolyline
 90
2
 70
0
 10
153.517865
 20
68.770342
 30
0.0
 10
153.517865
 20
77.508207
 30
0.0
  0
LWPOLYLINE
  5
220
100
AcDbEntity
  8
0
 62
1
100
AcDbPolyline
 90
5
 70
0
 10
153.517865
 20
68.770342
 30
0.0
 10
153.550939
 20
68.668917
 30
0.0
 10
153.619287
 20
68.601672
 30
0.0
 10
153.720713
 20
68.567495
 30
0.0
 10
154.533199
 20
68.567495
 30
0.0
  0
LWPOLYLINE
  5
221
100
AcDbEntity
  8
0
 62
1
100
AcDbPolyline
 90
3
 70
0
 10
154.431777
 20
70.396430
 30
0.0
 10
154.465954
 20
70.159403
 30
0.0
 10
154.533199
 20
69.956556
 30
0.0
  0
LWPOLYLINE
  5
222
100
AcDbEntity
  8
0
 62
1
100
AcDbPolyline
 90
3
 70
0
 10
156.362135
 20
69.956556
 30
0.0
 10
156.430486
 20
70.159403
 30
0.0
 10
156.463560
 20
70.396430
 30
0.0
  0
LWPOLYLINE
  5
223
100
AcDbEntity
  8
0
 62
1
100
AcDbPolyline
 90
5
 70
0
 10
153.822135
 20
70.396430
 30
0.0
 10
153.856315
 20
69.989629
 30
0.0
 10
153.991908
 20
69.617009
 30
0.0
 10
154.228935
 20
69.312736
 30
0.0
 10
154.533199
 20
69.041541
 30
0.0
  0
LWPOLYLINE
  5
224
100
AcDbEntity
  8
0
 62
1
100
AcDbPolyline
 90
5
 70
0
 10
154.533199
 20
77.203935
 30
0.0
 10
154.228935
 20
76.966916
 30
0.0
 10
153.991908
 20
76.627361
 30
0.0
 10
153.856315
 20
76.255843
 30
0.0
 10
153.822135
 20
75.883222
 30
0.0
  0
LWPOLYLINE
  5
225
100
AcDbEntity
  8
0
 62
1
100
AcDbPolyline
 90
3
 70
0
 10
154.533199
 20
76.323097
 30
0.0
 10
154.465954
 20
76.120250
 30
0.0
 10
154.431777
 20
75.883222
 30
0.0
  0
LWPOLYLINE
  5
226
100
AcDbEntity
  8
0
 62
1
100
AcDbPolyline
 90
3
 70
0
 10
156.463560
 20
75.883222
 30
0.0
 10
156.430486
 20
76.120250
 30
0.0
 10
156.362135
 20
76.323097
 30
0.0
  0
LWPOLYLINE
  5
227
100
AcDbEntity
  8
0
 62
1
100
AcDbPolyline
 90
2
 70
0
 10
153.720713
 20
77.711054
 30
0.0
 10
154.533199
 20
77.711054
 30
0.0
  0
LWPOLYLINE
  5
228
100
AcDbEntity
  8
0
 62
1
100
AcDbPolyline
 90
4
 70
0
 10
153.720713
 20
77.711054
 30
0.0
 10
153.619287
 20
77.677981
 30
0.0
 10
153.550939
 20
77.609629
 30
0.0
 10
153.517865
 20
77.508207
 30
0.0
  0
LWPOLYLINE
  5
229
100
AcDbEntity
  8
0
 62
1
100
AcDbPolyline
 90
2
 70
0
 10
157.073199
 20
75.883222
 30
0.0
 10
157.073199
 20
70.396430
 30
0.0
  0
LWPOLYLINE
  5
22a
100
AcDbEntity
  8
0
 62
1
100
AcDbPolyline
 90
2
 70
0
 10
157.378575
 20
68.770342
 30
0.0
 10
157.378575
 20
77.508207
 30
0.0
  0
LWPOLYLINE
  5
22b
100
AcDbEntity
  8
0
 62
1
100
AcDbPolyline
 90
4
 70
0
 10
157.175728
 20
68.567495
 30
0.0
 10
157.277153
 20
68.601672
 30
0.0
 10
157.344398
 20
68.668917
 30
0.0
 10
157.378575
 20
68.770342
 30
0.0
  0
LWPOLYLINE
  5
22c
100
AcDbEntity
  8
0
 62
1
100
AcDbPolyline
 90
4
 70
0
 10
157.378575
 20
77.508207
 30
0.0
 10
157.344398
 20
77.609629
 30
0.0
 10
157.277153
 20
77.677981
 30
0.0
 10
157.175728
 20
77.711054
 30
0.0
  0
LWPOLYLINE
  5
22d
100
AcDbEntity
  8
0
 62
1
100
AcDbPolyline
 90
5
 70
0
 10
154.940000
 20
72.936430
 30
0.0
 10
155.956440
 20
72.936430
 30
0.0
 10
155.956440
 20
73.343222
 30
0.0
 10
154.940000
 20
73.343222
 30
0.0
 10
154.940000
 20
72.936430
 30
0.0
  0
LWPOLYLINE
  5
22e
100
AcDbEntity
  8
0
 62
1
100
AcDbPolyline
 90
3
 70
0
 10
154.940000
 20
72.631054
 30
0.0
 10
155.448223
 20
72.631054
 30
0.0
 10
155.956440
 20
72.631054
 30
0.0
  0
LWPOLYLINE
  5
22f
100
AcDbEntity
  8
0
 62
1
100
AcDbPolyline
 90
2
 70
0
 10
155.448223
 20
72.631054
 30
0.0
 10
155.448223
 20
72.225357
 30
0.0
  0
LWPOLYLINE
  5
230
100
AcDbEntity
  8
0
 62
1
100
AcDbPolyline
 90
3
 70
0
 10
154.940000
 20
73.647495
 30
0.0
 10
155.448223
 20
73.647495
 30
0.0
 10
155.956440
 20
73.647495
 30
0.0
  0
LWPOLYLINE
  5
231
100
AcDbEntity
  8
0
 62
1
100
AcDbPolyline
 90
2
 70
0
 10
155.448223
 20
73.647495
 30
0.0
 10
155.448223
 20
74.054293
 30
0.0
  0
LWPOLYLINE
  5
232
100
AcDbEntity
  8
0
 62
1
100
AcDbPolyline
 90
5
 70
0
 10
163.034046
 20
71.277268
 30
0.0
 10
163.034046
 20
66.400116
 30
0.0
 10
161.273467
 20
66.400116
 30
0.0
 10
161.273467
 20
71.277268
 30
0.0
 10
163.034046
 20
71.277268
 30
0.0
  0
LWPOLYLINE
  5
233
100
AcDbEntity
  8
0
 62
1
100
AcDbPolyline
 90
2
 70
0
 10
162.864272
 20
69.482510
 30
0.0
 10
161.442135
 20
69.482510
 30
0.0
  0
LWPOLYLINE
  5
234
100
AcDbEntity
  8
0
 62
1
100
AcDbPolyline
 90
2
 70
0
 10
162.153199
 20
68.263222
 30
0.0
 10
162.864272
 20
69.482510
 30
0.0
  0
LWPOLYLINE
  5
235
100
AcDbEntity
  8
0
 62
1
100
AcDbPolyline
 90
2
 70
0
 10
161.442135
 20
69.482510
 30
0.0
 10
162.153199
 20
68.263222
 30
0.0
  0
LWPOLYLINE
  5
236
100
AcDbEntity
  8
0
 62
1
100
AcDbPolyline
 90
3
 70
0
 10
162.864272
 20
68.263222
 30
0.0
 10
162.153199
 20
68.263222
 30
0.0
 10
161.442135
 20
68.263222
 30
0.0
  0
LWPOLYLINE
  5
237
100
AcDbEntity
  8
0
 62
1
100
AcDbPolyline
 90
5
 70
0
 10
166.590486
 20
71.208917
 30
0.0
 10
166.590486
 20
66.332870
 30
0.0
 10
164.828801
 20
66.332870
 30
0.0
 10
164.828801
 20
71.208917
 30
0.0
 10
166.590486
 20
71.208917
 30
0.0
  0
LWPOLYLINE
  5
238
100
AcDbEntity
  8
0
 62
1
100
AcDbPolyline
 90
2
 70
0
 10
166.420713
 20
69.448339
 30
0.0
 10
164.998575
 20
69.448339
 30
0.0
  0
LWPOLYLINE
  5
239
100
AcDbEntity
  8
0
 62
1
100
AcDbPolyline
 90
2
 70
0
 10
165.709648
 20
68.229051
 30
0.0
 10
166.420713
 20
69.448339
 30
0.0
  0
LWPOLYLINE
  5
23a
100
AcDbEntity
  8
0
 62
1
100
AcDbPolyline
 90
2
 70
0
 10
164.998575
 20
69.448339
 30
0.0
 10
165.709648
 20
68.229051
 30
0.0
  0
LWPOLYLINE
  5
23b
100
AcDbEntity
  8
0
 62
1
100
AcDbPolyline
 90
3
 70
0
 10
166.420713
 20
68.229051
 30
0.0
 10
165.709648
 20
68.229051
 30
0.0
 10
164.998575
 20
68.229051
 30
0.0
  0
LWPOLYLINE
  5
23c
100
AcDbEntity
  8
0
 62
1
100
AcDbPolyline
 90
5
 70
0
 10
103.767379
 20
53.124648
 30
0.0
 10
106.714177
 20
53.124648
 30
0.0
 10
106.714177
 20
58.475843
 30
0.0
 10
103.767379
 20
58.475843
 30
0.0
 10
103.767379
 20
53.124648
 30
0.0
  0
LWPOLYLINE
  5
23d
100
AcDbEntity
  8
0
 62
1
100
AcDbPolyline
 90
5
 70
0
 10
83.752755
 20
74.562510
 30
0.0
 10
83.752755
 20
79.438559
 30
0.0
 10
85.513333
 20
79.438559
 30
0.0
 10
85.513333
 20
74.562510
 30
0.0
 10
83.752755
 20
74.562510
 30
0.0
  0
LWPOLYLINE
  5
23e
100
AcDbEntity
  8
0
 62
1
100
AcDbPolyline
 90
2
 70
0
 10
83.921425
 20
76.357268
 30
0.0
 10
85.343560
 20
76.357268
 30
0.0
  0
LWPOLYLINE
  5
23f
100
AcDbEntity
  8
0
 62
1
100
AcDbPolyline
 90
2
 70
0
 10
84.632490
 20
77.576556
 30
0.0
 10
83.921425
 20
76.357268
 30
0.0
  0
LWPOLYLINE
  5
240
100
AcDbEntity
  8
0
 62
1
100
AcDbPolyline
 90
2
 70
0
 10
85.343560
 20
76.357268
 30
0.0
 10
84.632490
 20
77.576556
 30
0.0
  0
SPLINE
  5
241
100
AcDbEntity
  8
0
 62
1
100
AcDbSpline
 70
8
 71
3
 72
8
 73
4
 74
0
 40
0
 40
0
 40
0
 40
0
 40
1
 40
1
 40
1
 40
1
 10
92.489514
 20
66.163097
 30
0.0
 10
92.489514
 20
65.519272
 30
0.0
 10
91.948223
 20
64.977981
 30
0.0
 10
91.304398
 20
64.977981
 30
0.0
  0
SPLINE
  5
242
100
AcDbEntity
  8
0
 62
1
100
AcDbSpline
 70
8
 71
3
 72
8
 73
4
 74
0
 40
0
 40
0
 40
0
 40
0
 40
1
 40
1
 40
1
 40
1
 10
91.304398
 20
64.977981
 30
0.0
 10
90.660578
 20
64.977981
 30
0.0
 10
90.119287
 20
65.519272
 30
0.0
 10
90.119287
 20
66.163097
 30
0.0
  0
SPLINE
  5
243
100
AcDbEntity
  8
0
 62
1
100
AcDbSpline
 70
8
 71
3
 72
8
 73
4
 74
0
 40
0
 40
0
 40
0
 40
0
 40
1
 40
1
 40
1
 40
1
 10
90.119287
 20
66.163097
 30
0.0
 10
90.119287
 20
66.806916
 30
0.0
 10
90.660578
 20
67.348207
 30
0.0
 10
91.304398
 20
67.348207
 30
0.0
  0
SPLINE
  5
244
100
AcDbEntity
  8
0
 62
1
100
AcDbSpline
 70
8
 71
3
 72
8
 73
4
 74
0
 40
0
 40
0
 40
0
 40
0
 40
1
 40
1
 40
1
 40
1
 10
91.304398
 20
67.348207
 30
0.0
 10
91.948223
 20
67.348207
 30
0.0
 10
92.489514
 20
66.806916
 30
0.0
 10
92.489514
 20
66.163097
 30
0.0
  0
LWPOLYLINE
  5
245
100
AcDbEntity
  8
0
 62
1
100
AcDbPolyline
 90
3
 70
0
 10
83.921425
 20
77.576556
 30
0.0
 10
84.632490
 20
77.576556
 30
0.0
 10
85.343560
 20
77.576556
 30
0.0
  0
LWPOLYLINE
  5
246
100
AcDbEntity
  8
0
 62
1
100
AcDbPolyline
 90
2
 70
0
 10
92.489514
 20
66.163097
 30
0.0
 10
92.489514
 20
66.163097
 30
0.0
  0
SPLINE
  5
247
100
AcDbEntity
  8
0
 62
1
100
AcDbSpline
 70
8
 71
3
 72
8
 73
4
 74
0
 40
0
 40
0
 40
0
 40
0
 40
1
 40
1
 40
1
 40
1
 10
92.489514
 20
85.365226
 30
0.0
 10
92.489514
 20
84.722510
 30
0.0
 10
91.948223
 20
84.180116
 30
0.0
 10
91.304398
 20
84.180116
 30
0.0
  0
SPLINE
  5
248
100
AcDbEntity
  8
0
 62
1
100
AcDbSpline
 70
8
 71
3
 72
8
 73
4
 74
0
 40
0
 40
0
 40
0
 40
0
 40
1
 40
1
 40
1
 40
1
 10
91.304398
 20
84.180116
 30
0.0
 10
90.660578
 20
84.180116
 30
0.0
 10
90.119287
 20
84.722510
 30
0.0
 10
90.119287
 20
85.365226
 30
0.0
  0
SPLINE
  5
249
100
AcDbEntity
  8
0
 62
1
100
AcDbSpline
 70
8
 71
3
 72
8
 73
4
 74
0
 40
0
 40
0
 40
0
 40
0
 40
1
 40
1
 40
1
 40
1
 10
90.119287
 20
85.365226
 30
0.0
 10
90.119287
 20
86.009051
 30
0.0
 10
90.660578
 20
86.550342
 30
0.0
 10
91.304398
 20
86.550342
 30
0.0
  0
SPLINE
  5
24a
100
AcDbEntity
  8
0
 62
1
100
AcDbSpline
 70
8
 71
3
 72
8
 73
4
 74
0
 40
0
 40
0
 40
0
 40
0
 40
1
 40
1
 40
1
 40
1
 10
91.304398
 20
86.550342
 30
0.0
 10
91.948223
 20
86.550342
 30
0.0
 10
92.489514
 20
86.009051
 30
0.0
 10
92.489514
 20
85.365226
 30
0.0
  0
LWPOLYLINE
  5
24b
100
AcDbEntity
  8
0
 62
1
100
AcDbPolyline
 90
5
 70
0
 10
93.675728
 20
62.166782
 30
0.0
 10
93.675728
 20
70.159403
 30
0.0
 10
88.900000
 20
70.159403
 30
0.0
 10
88.900000
 20
62.166782
 30
0.0
 10
93.675728
 20
62.166782
 30
0.0
  0
LWPOLYLINE
  5
24c
100
AcDbEntity
  8
0
 62
1
100
AcDbPolyline
 90
2
 70
0
 10
92.489514
 20
85.365226
 30
0.0
 10
92.489514
 20
85.365226
 30
0.0
  0
SPLINE
  5
24d
100
AcDbEntity
  8
0
 62
1
100
AcDbSpline
 70
8
 71
3
 72
8
 73
4
 74
0
 40
0
 40
0
 40
0
 40
0
 40
1
 40
1
 40
1
 40
1
 10
92.489514
 20
75.747626
 30
0.0
 10
92.489514
 20
75.103801
 30
0.0
 10
91.948223
 20
74.562510
 30
0.0
 10
91.304398
 20
74.562510
 30
0.0
  0
SPLINE
  5
24e
100
AcDbEntity
  8
0
 62
1
100
AcDbSpline
 70
8
 71
3
 72
8
 73
4
 74
0
 40
0
 40
0
 40
0
 40
0
 40
1
 40
1
 40
1
 40
1
 10
91.304398
 20
74.562510
 30
0.0
 10
90.660578
 20
74.562510
 30
0.0
 10
90.119287
 20
75.103801
 30
0.0
 10
90.119287
 20
75.747626
 30
0.0
  0
SPLINE
  5
24f
100
AcDbEntity
  8
0
 62
1
100
AcDbSpline
 70
8
 71
3
 72
8
 73
4
 74
0
 40
0
 40
0
 40
0
 40
0
 40
1
 40
1
 40
1
 40
1
 10
90.119287
 20
75.747626
 30
0.0
 10
90.119287
 20
76.390342
 30
0.0
 10
90.660578
 20
76.932736
 30
0.0
 10
91.304398
 20
76.932736
 30
0.0
  0
SPLINE
  5
250
100
AcDbEntity
  8
0
 62
1
100
AcDbSpline
 70
8
 71
3
 72
8
 73
4
 74
0
 40
0
 40
0
 40
0
 40
0
 40
1
 40
1
 40
1
 40
1
 10
91.304398
 20
76.932736
 30
0.0
 10
91.948223
 20
76.932736
 30
0.0
 10
92.489514
 20
76.390342
 30
0.0
 10
92.489514
 20
75.747626
 30
0.0
  0
LWPOLYLINE
  5
251
100
AcDbEntity
  8
0
 62
1
100
AcDbPolyline
 90
5
 70
0
 10
93.675728
 20
81.368917
 30
0.0
 10
93.675728
 20
89.361541
 30
0.0
 10
88.900000
 20
89.361541
 30
0.0
 10
88.900000
 20
81.368917
 30
0.0
 10
93.675728
 20
81.368917
 30
0.0
  0
LWPOLYLINE
  5
252
100
AcDbEntity
  8
0
 62
1
100
AcDbPolyline
 90
2
 70
0
 10
92.489514
 20
75.747626
 30
0.0
 10
92.489514
 20
75.747626
 30
0.0
  0
LWPOLYLINE
  5
253
100
AcDbEntity
  8
0
 62
1
100
AcDbPolyline
 90
5
 70
0
 10
93.675728
 20
71.751314
 30
0.0
 10
93.675728
 20
79.743935
 30
0.0
 10
88.900000
 20
79.743935
 30
0.0
 10
88.900000
 20
71.751314
 30
0.0
 10
93.675728
 20
71.751314
 30
0.0
  0
LWPOLYLINE
  5
254
100
AcDbEntity
  8
0
 62
1
100
AcDbPolyline
 90
5
 70
0
 10
170.654046
 20
91.257721
 30
0.0
 10
175.531199
 20
91.257721
 30
0.0
 10
175.531199
 20
89.497134
 30
0.0
 10
170.654046
 20
89.497134
 30
0.0
 10
170.654046
 20
91.257721
 30
0.0
  0
LWPOLYLINE
  5
255
100
AcDbEntity
  8
0
 62
1
100
AcDbPolyline
 90
2
 70
0
 10
172.448801
 20
91.089051
 30
0.0
 10
172.448801
 20
89.666916
 30
0.0
  0
LWPOLYLINE
  5
256
100
AcDbEntity
  8
0
 62
1
100
AcDbPolyline
 90
2
 70
0
 10
173.668092
 20
90.377981
 30
0.0
 10
172.448801
 20
91.089051
 30
0.0
  0
LWPOLYLINE
  5
257
100
AcDbEntity
  8
0
 62
1
100
AcDbPolyline
 90
2
 70
0
 10
172.448801
 20
89.666916
 30
0.0
 10
173.668092
 20
90.377981
 30
0.0
  0
LWPOLYLINE
  5
258
100
AcDbEntity
  8
0
 62
1
100
AcDbPolyline
 90
3
 70
0
 10
173.668092
 20
91.089051
 30
0.0
 10
173.668092
 20
90.377981
 30
0.0
 10
173.668092
 20
89.666916
 30
0.0
  0
LWPOLYLINE
  5
259
100
AcDbEntity
  8
0
 62
1
100
AcDbPolyline
 90
5
 70
0
 10
170.891065
 20
85.873449
 30
0.0
 10
175.768223
 20
85.873449
 30
0.0
 10
175.768223
 20
84.112870
 30
0.0
 10
170.891065
 20
84.112870
 30
0.0
 10
170.891065
 20
85.873449
 30
0.0
  0
LWPOLYLINE
  5
25a
100
AcDbEntity
  8
0
 62
1
100
AcDbPolyline
 90
2
 70
0
 10
172.685823
 20
85.703675
 30
0.0
 10
172.685823
 20
84.281541
 30
0.0
  0
LWPOLYLINE
  5
25b
100
AcDbEntity
  8
0
 62
1
100
AcDbPolyline
 90
2
 70
0
 10
173.905110
 20
84.992605
 30
0.0
 10
172.685823
 20
85.703675
 30
0.0
  0
LWPOLYLINE
  5
25c
100
AcDbEntity
  8
0
 62
1
100
AcDbPolyline
 90
2
 70
0
 10
172.685823
 20
84.281541
 30
0.0
 10
173.905110
 20
84.992605
 30
0.0
  0
LWPOLYLINE
  5
25d
100
AcDbEntity
  8
0
 62
1
100
AcDbPolyline
 90
3
 70
0
 10
173.905110
 20
85.703675
 30
0.0
 10
173.905110
 20
84.992605
 30
0.0
 10
173.905110
 20
84.281541
 30
0.0
  0
LWPOLYLINE
  5
25e
100
AcDbEntity
  8
0
 62
1
100
AcDbPolyline
 90
2
 70
0
 10
159.071908
 20
53.361672
 30
0.0
 10
159.071908
 20
40.153449
 30
0.0
  0
LWPOLYLINE
  5
25f
100
AcDbEntity
  8
0
 62
1
100
AcDbPolyline
 90
2
 70
0
 10
164.186088
 20
40.153449
 30
0.0
 10
159.071908
 20
40.153449
 30
0.0
  0
LWPOLYLINE
  5
260
100
AcDbEntity
  8
0
 62
1
100
AcDbPolyline
 90
2
 70
0
 10
164.186088
 20
40.153449
 30
0.0
 10
164.186088
 20
53.361672
 30
0.0
  0
LWPOLYLINE
  5
261
100
AcDbEntity
  8
0
 62
1
100
AcDbPolyline
 90
2
 70
0
 10
159.071908
 20
53.361672
 30
0.0
 10
164.186088
 20
53.361672
 30
0.0
  0
LWPOLYLINE
  5
262
100
AcDbEntity
  8
0
 62
1
100
AcDbPolyline
 90
2
 70
0
 10
163.271065
 20
52.446648
 30
0.0
 10
163.271065
 20
51.227361
 30
0.0
  0
LWPOLYLINE
  5
263
100
AcDbEntity
  8
0
 62
1
100
AcDbPolyline
 90
2
 70
0
 10
160.020000
 20
51.227361
 30
0.0
 10
160.020000
 20
52.446648
 30
0.0
  0
LWPOLYLINE
  5
264
100
AcDbEntity
  8
0
 62
1
100
AcDbPolyline
 90
2
 70
0
 10
163.271065
 20
51.227361
 30
0.0
 10
160.020000
 20
51.227361
 30
0.0
  0
LWPOLYLINE
  5
265
100
AcDbEntity
  8
0
 62
1
100
AcDbPolyline
 90
2
 70
0
 10
160.020000
 20
52.446648
 30
0.0
 10
163.271065
 20
52.446648
 30
0.0
  0
LWPOLYLINE
  5
266
100
AcDbEntity
  8
0
 62
1
100
AcDbPolyline
 90
2
 70
0
 10
163.271065
 20
50.414874
 30
0.0
 10
163.271065
 20
49.195584
 30
0.0
  0
LWPOLYLINE
  5
267
100
AcDbEntity
  8
0
 62
1
100
AcDbPolyline
 90
2
 70
0
 10
160.020000
 20
49.195584
 30
0.0
 10
160.020000
 20
50.414874
 30
0.0
  0
LWPOLYLINE
  5
268
100
AcDbEntity
  8
0
 62
1
100
AcDbPolyline
 90
2
 70
0
 10
163.271065
 20
49.195584
 30
0.0
 10
160.020000
 20
49.195584
 30
0.0
  0
LWPOLYLINE
  5
269
100
AcDbEntity
  8
0
 62
1
100
AcDbPolyline
 90
2
 70
0
 10
160.020000
 20
50.414874
 30
0.0
 10
163.271065
 20
50.414874
 30
0.0
  0
LWPOLYLINE
  5
26a
100
AcDbEntity
  8
0
 62
1
100
AcDbPolyline
 90
2
 70
0
 10
163.271065
 20
48.383097
 30
0.0
 10
163.271065
 20
47.163801
 30
0.0
  0
LWPOLYLINE
  5
26b
100
AcDbEntity
  8
0
 62
1
100
AcDbPolyline
 90
2
 70
0
 10
160.020000
 20
47.163801
 30
0.0
 10
160.020000
 20
48.383097
 30
0.0
  0
LWPOLYLINE
  5
26c
100
AcDbEntity
  8
0
 62
1
100
AcDbPolyline
 90
2
 70
0
 10
163.271065
 20
47.163801
 30
0.0
 10
160.020000
 20
47.163801
 30
0.0
  0
LWPOLYLINE
  5
26d
100
AcDbEntity
  8
0
 62
1
100
AcDbPolyline
 90
2
 70
0
 10
160.020000
 20
48.383097
 30
0.0
 10
163.271065
 20
48.383097
 30
0.0
  0
LWPOLYLINE
  5
26e
100
AcDbEntity
  8
0
 62
1
100
AcDbPolyline
 90
2
 70
0
 10
163.271065
 20
46.351314
 30
0.0
 10
163.271065
 20
45.132024
 30
0.0
  0
LWPOLYLINE
  5
26f
100
AcDbEntity
  8
0
 62
1
100
AcDbPolyline
 90
2
 70
0
 10
160.020000
 20
45.132024
 30
0.0
 10
160.020000
 20
46.351314
 30
0.0
  0
LWPOLYLINE
  5
270
100
AcDbEntity
  8
0
 62
1
100
AcDbPolyline
 90
2
 70
0
 10
163.271065
 20
45.132024
 30
0.0
 10
160.020000
 20
45.132024
 30
0.0
  0
LWPOLYLINE
  5
271
100
AcDbEntity
  8
0
 62
1
100
AcDbPolyline
 90
2
 70
0
 10
160.020000
 20
46.351314
 30
0.0
 10
163.271065
 20
46.351314
 30
0.0
  0
LWPOLYLINE
  5
272
100
AcDbEntity
  8
0
 62
1
100
AcDbPolyline
 90
2
 70
0
 10
163.271065
 20
44.319537
 30
0.0
 10
163.271065
 20
43.100250
 30
0.0
  0
LWPOLYLINE
  5
273
100
AcDbEntity
  8
0
 62
1
100
AcDbPolyline
 90
2
 70
0
 10
160.020000
 20
43.100250
 30
0.0
 10
160.020000
 20
44.319537
 30
0.0
  0
LWPOLYLINE
  5
274
100
AcDbEntity
  8
0
 62
1
100
AcDbPolyline
 90
2
 70
0
 10
163.271065
 20
43.100250
 30
0.0
 10
160.020000
 20
43.100250
 30
0.0
  0
LWPOLYLINE
  5
275
100
AcDbEntity
  8
0
 62
1
100
AcDbPolyline
 90
2
 70
0
 10
160.020000
 20
44.319537
 30
0.0
 10
163.271065
 20
44.319537
 30
0.0
  0
LWPOLYLINE
  5
276
100
AcDbEntity
  8
0
 62
1
100
AcDbPolyline
 90
2
 70
0
 10
163.271065
 20
42.286648
 30
0.0
 10
163.271065
 20
41.067361
 30
0.0
  0
LWPOLYLINE
  5
277
100
AcDbEntity
  8
0
 62
1
100
AcDbPolyline
 90
2
 70
0
 10
160.020000
 20
41.067361
 30
0.0
 10
160.020000
 20
42.286648
 30
0.0
  0
LWPOLYLINE
  5
278
100
AcDbEntity
  8
0
 62
1
100
AcDbPolyline
 90
2
 70
0
 10
163.271065
 20
41.067361
 30
0.0
 10
160.020000
 20
41.067361
 30
0.0
  0
LWPOLYLINE
  5
279
100
AcDbEntity
  8
0
 62
1
100
AcDbPolyline
 90
2
 70
0
 10
160.020000
 20
42.286648
 30
0.0
 10
163.271065
 20
42.286648
 30
0.0
  0
LWPOLYLINE
  5
27a
100
AcDbEntity
  8
0
 62
1
100
AcDbPolyline
 90
5
 70
0
 10
109.017153
 20
99.962510
 30
0.0
 10
109.017153
 20
102.942382
 30
0.0
 10
103.665954
 20
102.942382
 30
0.0
 10
103.665954
 20
99.962510
 30
0.0
 10
109.017153
 20
99.962510
 30
0.0
  0
LWPOLYLINE
  5
27b
100
AcDbEntity
  8
0
 62
1
100
AcDbPolyline
 90
2
 70
0
 10
129.100134
 20
57.526648
 30
0.0
 10
127.271199
 20
57.526648
 30
0.0
  0
LWPOLYLINE
  5
27c
100
AcDbEntity
  8
0
 62
1
100
AcDbPolyline
 90
4
 70
0
 10
127.271199
 20
50.516296
 30
0.0
 10
127.948092
 20
50.516296
 30
0.0
 10
128.422135
 20
50.516296
 30
0.0
 10
129.100134
 20
50.516296
 30
0.0
  0
LWPOLYLINE
  5
27d
100
AcDbEntity
  8
0
 62
1
100
AcDbPolyline
 90
2
 70
0
 10
147.759866
 20
123.397981
 30
0.0
 10
148.573467
 20
123.397981
 30
0.0
  0
LWPOLYLINE
  5
27e
100
AcDbEntity
  8
0
 62
1
100
AcDbPolyline
 90
2
 70
0
 10
146.406088
 20
125.937981
 30
0.0
 10
144.847245
 20
125.937981
 30
0.0
  0
LWPOLYLINE
  5
27f
100
AcDbEntity
  8
0
 62
1
100
AcDbPolyline
 90
2
 70
0
 10
144.373199
 20
125.937981
 30
0.0
 10
142.815468
 20
125.937981
 30
0.0
  0
LWPOLYLINE
  5
280
100
AcDbEntity
  8
0
 62
1
100
AcDbPolyline
 90
6
 70
0
 10
144.373199
 20
125.937981
 30
0.0
 10
144.407379
 20
125.768207
 30
0.0
 10
144.542981
 20
125.700957
 30
0.0
 10
144.678575
 20
125.700957
 30
0.0
 10
144.814177
 20
125.768207
 30
0.0
 10
144.847245
 20
125.937981
 30
0.0
  0
LWPOLYLINE
  5
281
100
AcDbEntity
  8
0
 62
1
100
AcDbPolyline
 90
6
 70
0
 10
144.373199
 20
125.937981
 30
0.0
 10
144.407379
 20
125.768207
 30
0.0
 10
144.542981
 20
125.700957
 30
0.0
 10
144.678575
 20
125.700957
 30
0.0
 10
144.814177
 20
125.768207
 30
0.0
 10
144.847245
 20
125.937981
 30
0.0
  0
LWPOLYLINE
  5
282
100
AcDbEntity
  8
0
 62
1
100
AcDbPolyline
 90
2
 70
0
 10
147.828223
 20
123.363804
 30
0.0
 10
148.640713
 20
123.363804
 30
0.0
  0
LWPOLYLINE
  5
283
100
AcDbEntity
  8
0
 62
1
100
AcDbPolyline
 90
2
 70
0
 10
142.815468
 20
121.873318
 30
0.0
 10
146.406088
 20
121.873318
 30
0.0
  0
LWPOLYLINE
  5
284
100
AcDbEntity
  8
0
 62
1
100
AcDbPolyline
 90
7
 70
0
 10
144.847245
 20
125.937981
 30
0.0
 10
144.373199
 20
125.937981
 30
0.0
 10
144.407379
 20
125.768207
 30
0.0
 10
144.542981
 20
125.700957
 30
0.0
 10
144.678575
 20
125.700957
 30
0.0
 10
144.814177
 20
125.768207
 30
0.0
 10
144.847245
 20
125.937981
 30
0.0
  0
LWPOLYLINE
  5
285
100
AcDbEntity
  8
0
 62
1
100
AcDbPolyline
 90
2
 70
0
 10
171.737731
 20
77.440959
 30
0.0
 10
171.737731
 20
76.153315
 30
0.0
  0
LWPOLYLINE
  5
286
100
AcDbEntity
  8
0
 62
1
100
AcDbPolyline
 90
2
 70
0
 10
169.807379
 20
77.440959
 30
0.0
 10
169.807379
 20
76.153315
 30
0.0
  0
LWPOLYLINE
  5
287
100
AcDbEntity
  8
0
 62
1
100
AcDbPolyline
 90
3
 70
0
 10
172.043107
 20
77.339537
 30
0.0
 10
171.974758
 20
77.339537
 30
0.0
 10
171.974758
 20
77.440959
 30
0.0
  0
LWPOLYLINE
  5
288
100
AcDbEntity
  8
0
 62
1
100
AcDbPolyline
 90
5
 70
0
 10
120.769061
 20
101.553318
 30
0.0
 10
121.784398
 20
101.553318
 30
0.0
 10
122.292621
 20
101.046201
 30
0.0
 10
122.292621
 20
100.029764
 30
0.0
 10
121.784398
 20
99.521541
 30
0.0
  0
LWPOLYLINE
  5
289
100
AcDbEntity
  8
0
 62
1
100
AcDbPolyline
 90
2
 70
0
 10
120.260844
 20
101.046201
 30
0.0
 10
120.260844
 20
100.029764
 30
0.0
  0
LWPOLYLINE
  5
28a
100
AcDbEntity
  8
0
 62
1
100
AcDbPolyline
 90
2
 70
0
 10
120.769061
 20
101.553318
 30
0.0
 10
120.260844
 20
101.046201
 30
0.0
  0
LWPOLYLINE
  5
28b
100
AcDbEntity
  8
0
 62
1
100
AcDbPolyline
 90
2
 70
0
 10
120.260844
 20
100.029764
 30
0.0
 10
120.769061
 20
99.521541
 30
0.0
  0
LWPOLYLINE
  5
28c
100
AcDbEntity
  8
0
 62
1
100
AcDbPolyline
 90
2
 70
0
 10
121.784398
 20
99.521541
 30
0.0
 10
120.769061
 20
99.521541
 30
0.0
  0
LWPOLYLINE
  5
28d
100
AcDbEntity
  8
0
 62
1
100
AcDbPolyline
 90
5
 70
0
 10
113.588935
 20
101.553318
 30
0.0
 10
114.604272
 20
101.553318
 30
0.0
 10
115.079422
 20
101.046201
 30
0.0
 10
115.079422
 20
100.029764
 30
0.0
 10
114.604272
 20
99.521541
 30
0.0
  0
LWPOLYLINE
  5
28e
100
AcDbEntity
  8
0
 62
1
100
AcDbPolyline
 90
2
 70
0
 10
113.080713
 20
101.046201
 30
0.0
 10
113.080713
 20
100.029764
 30
0.0
  0
LWPOLYLINE
  5
28f
100
AcDbEntity
  8
0
 62
1
100
AcDbPolyline
 90
2
 70
0
 10
113.588935
 20
101.553318
 30
0.0
 10
113.080713
 20
101.046201
 30
0.0
  0
LWPOLYLINE
  5
290
100
AcDbEntity
  8
0
 62
1
100
AcDbPolyline
 90
2
 70
0
 10
113.080713
 20
100.029764
 30
0.0
 10
113.588935
 20
99.521541
 30
0.0
  0
LWPOLYLINE
  5
291
100
AcDbEntity
  8
0
 62
1
100
AcDbPolyline
 90
2
 70
0
 10
114.604272
 20
99.521541
 30
0.0
 10
113.588935
 20
99.521541
 30
0.0
  0
LWPOLYLINE
  5
292
100
AcDbEntity
  8
0
 62
1
100
AcDbPolyline
 90
5
 70
0
 10
113.588935
 20
51.972605
 30
0.0
 10
114.604272
 20
51.972605
 30
0.0
 10
115.079422
 20
51.464388
 30
0.0
 10
115.079422
 20
50.449051
 30
0.0
 10
114.604272
 20
49.940828
 30
0.0
  0
LWPOLYLINE
  5
293
100
AcDbEntity
  8
0
 62
1
100
AcDbPolyline
 90
2
 70
0
 10
113.080713
 20
51.464388
 30
0.0
 10
113.080713
 20
50.449051
 30
0.0
  0
LWPOLYLINE
  5
294
100
AcDbEntity
  8
0
 62
1
100
AcDbPolyline
 90
2
 70
0
 10
113.588935
 20
51.972605
 30
0.0
 10
113.080713
 20
51.464388
 30
0.0
  0
LWPOLYLINE
  5
295
100
AcDbEntity
  8
0
 62
1
100
AcDbPolyline
 90
2
 70
0
 10
113.080713
 20
50.449051
 30
0.0
 10
113.588935
 20
49.940828
 30
0.0
  0
LWPOLYLINE
  5
296
100
AcDbEntity
  8
0
 62
1
100
AcDbPolyline
 90
2
 70
0
 10
114.604272
 20
49.940828
 30
0.0
 10
113.588935
 20
49.940828
 30
0.0
  0
LWPOLYLINE
  5
297
100
AcDbEntity
  8
0
 62
1
100
AcDbPolyline
 90
5
 70
0
 10
120.769061
 20
51.972605
 30
0.0
 10
121.784398
 20
51.972605
 30
0.0
 10
122.292621
 20
51.464388
 30
0.0
 10
122.292621
 20
50.449051
 30
0.0
 10
121.784398
 20
49.940828
 30
0.0
  0
LWPOLYLINE
  5
298
100
AcDbEntity
  8
0
 62
1
100
AcDbPolyline
 90
2
 70
0
 10
120.260844
 20
51.464388
 30
0.0
 10
120.260844
 20
50.449051
 30
0.0
  0
LWPOLYLINE
  5
299
100
AcDbEntity
  8
0
 62
1
100
AcDbPolyline
 90
2
 70
0
 10
120.769061
 20
51.972605
 30
0.0
 10
120.260844
 20
51.464388
 30
0.0
  0
LWPOLYLINE
  5
29a
100
AcDbEntity
  8
0
 62
1
100
AcDbPolyline
 90
2
 70
0
 10
120.260844
 20
50.449051
 30
0.0
 10
120.769061
 20
49.940828
 30
0.0
  0
LWPOLYLINE
  5
29b
100
AcDbEntity
  8
0
 62
1
100
AcDbPolyline
 90
2
 70
0
 10
121.784398
 20
49.940828
 30
0.0
 10
120.769061
 20
49.940828
 30
0.0
  0
LWPOLYLINE
  5
29c
100
AcDbEntity
  8
0
 62
1
100
AcDbPolyline
 90
9
 70
0
 10
120.125242
 20
89.903935
 30
0.0
 10
120.599287
 20
89.903935
 30
0.0
 10
121.140578
 20
89.903935
 30
0.0
 10
121.648801
 20
89.903935
 30
0.0
 10
121.648801
 20
87.194161
 30
0.0
 10
121.140578
 20
87.194161
 30
0.0
 10
120.599287
 20
87.194161
 30
0.0
 10
120.125242
 20
87.194161
 30
0.0
 10
120.125242
 20
89.903935
 30
0.0
  0
LWPOLYLINE
  5
29d
100
AcDbEntity
  8
0
 62
1
100
AcDbPolyline
 90
2
 70
0
 10
121.480134
 20
88.786070
 30
0.0
 10
120.328092
 20
88.786070
 30
0.0
  0
LWPOLYLINE
  5
29e
100
AcDbEntity
  8
0
 62
1
100
AcDbPolyline
 90
7
 70
0
 10
120.599287
 20
89.903935
 30
0.0
 10
120.633467
 20
89.768339
 30
0.0
 10
120.734890
 20
89.666916
 30
0.0
 10
120.870486
 20
89.632736
 30
0.0
 10
121.006088
 20
89.666916
 30
0.0
 10
121.107510
 20
89.768339
 30
0.0
 10
121.140578
 20
89.903935
 30
0.0
  0
LWPOLYLINE
  5
29f
100
AcDbEntity
  8
0
 62
1
100
AcDbPolyline
 90
7
 70
0
 10
121.140578
 20
87.194161
 30
0.0
 10
121.107510
 20
87.329764
 30
0.0
 10
121.006088
 20
87.431180
 30
0.0
 10
120.870486
 20
87.465357
 30
0.0
 10
120.734890
 20
87.431180
 30
0.0
 10
120.633467
 20
87.329764
 30
0.0
 10
120.599287
 20
87.194161
 30
0.0
  0
LWPOLYLINE
  5
2a0
100
AcDbEntity
  8
0
 62
1
100
AcDbPolyline
 90
9
 70
0
 10
93.133333
 20
35.006204
 30
0.0
 10
93.133333
 20
35.513315
 30
0.0
 10
93.133333
 20
36.055718
 30
0.0
 10
93.133333
 20
36.529764
 30
0.0
 10
95.843107
 20
36.529764
 30
0.0
 10
95.843107
 20
36.055718
 30
0.0
 10
95.843107
 20
35.513315
 30
0.0
 10
95.843107
 20
35.006204
 30
0.0
 10
93.133333
 20
35.006204
 30
0.0
  0
LWPOLYLINE
  5
2a1
100
AcDbEntity
  8
0
 62
1
100
AcDbPolyline
 90
2
 70
0
 10
94.251199
 20
36.394161
 30
0.0
 10
94.251199
 20
35.209051
 30
0.0
  0
LWPOLYLINE
  5
2a2
100
AcDbEntity
  8
0
 62
1
100
AcDbPolyline
 90
7
 70
0
 10
93.133333
 20
35.513315
 30
0.0
 10
93.268935
 20
35.547495
 30
0.0
 10
93.370352
 20
35.648917
 30
0.0
 10
93.404532
 20
35.784513
 30
0.0
 10
93.370352
 20
35.920116
 30
0.0
 10
93.268935
 20
36.021541
 30
0.0
 10
93.133333
 20
36.055718
 30
0.0
  0
LWPOLYLINE
  5
2a3
100
AcDbEntity
  8
0
 62
1
100
AcDbPolyline
 90
7
 70
0
 10
95.843107
 20
36.055718
 30
0.0
 10
95.707510
 20
36.021541
 30
0.0
 10
95.606088
 20
35.920116
 30
0.0
 10
95.571908
 20
35.784513
 30
0.0
 10
95.606088
 20
35.648917
 30
0.0
 10
95.707510
 20
35.547495
 30
0.0
 10
95.843107
 20
35.513315
 30
0.0
  0
LWPOLYLINE
  5
2a4
100
AcDbEntity
  8
0
 62
1
100
AcDbPolyline
 90
9
 70
0
 10
93.133333
 20
32.634874
 30
0.0
 10
93.133333
 20
33.108917
 30
0.0
 10
93.133333
 20
33.651314
 30
0.0
 10
93.133333
 20
34.125357
 30
0.0
 10
95.843107
 20
34.125357
 30
0.0
 10
95.843107
 20
33.651314
 30
0.0
 10
95.843107
 20
33.108917
 30
0.0
 10
95.843107
 20
32.634874
 30
0.0
 10
93.133333
 20
32.634874
 30
0.0
  0
LWPOLYLINE
  5
2a5
100
AcDbEntity
  8
0
 62
1
100
AcDbPolyline
 90
2
 70
0
 10
94.251199
 20
33.989764
 30
0.0
 10
94.251199
 20
32.804648
 30
0.0
  0
LWPOLYLINE
  5
2a6
100
AcDbEntity
  8
0
 62
1
100
AcDbPolyline
 90
7
 70
0
 10
93.133333
 20
33.108917
 30
0.0
 10
93.268935
 20
33.143097
 30
0.0
 10
93.370352
 20
33.244513
 30
0.0
 10
93.404532
 20
33.380116
 30
0.0
 10
93.370352
 20
33.515718
 30
0.0
 10
93.268935
 20
33.617134
 30
0.0
 10
93.133333
 20
33.651314
 30
0.0
  0
LWPOLYLINE
  5
2a7
100
AcDbEntity
  8
0
 62
1
100
AcDbPolyline
 90
7
 70
0
 10
95.843107
 20
33.651314
 30
0.0
 10
95.707510
 20
33.617134
 30
0.0
 10
95.606088
 20
33.515718
 30
0.0
 10
95.571908
 20
33.380116
 30
0.0
 10
95.606088
 20
33.244513
 30
0.0
 10
95.707510
 20
33.143097
 30
0.0
 10
95.843107
 20
33.108917
 30
0.0
  0
LWPOLYLINE
  5
2a8
100
AcDbEntity
  8
0
 62
1
100
AcDbPolyline
 90
9
 70
0
 10
102.717865
 20
42.219403
 30
0.0
 10
102.717865
 20
42.693449
 30
0.0
 10
102.717865
 20
43.268917
 30
0.0
 10
102.717865
 20
43.742963
 30
0.0
 10
105.460713
 20
43.742963
 30
0.0
 10
105.460713
 20
43.268917
 30
0.0
 10
105.460713
 20
42.693449
 30
0.0
 10
105.460713
 20
42.219403
 30
0.0
 10
102.717865
 20
42.219403
 30
0.0
  0
LWPOLYLINE
  5
2a9
100
AcDbEntity
  8
0
 62
1
100
AcDbPolyline
 90
2
 70
0
 10
103.835728
 20
43.574293
 30
0.0
 10
103.835728
 20
42.422250
 30
0.0
  0
LWPOLYLINE
  5
2aa
100
AcDbEntity
  8
0
 62
1
100
AcDbPolyline
 90
7
 70
0
 10
102.717865
 20
42.693449
 30
0.0
 10
102.853467
 20
42.727626
 30
0.0
 10
102.954890
 20
42.829051
 30
0.0
 10
102.989061
 20
42.964648
 30
0.0
 10
102.954890
 20
43.100250
 30
0.0
 10
102.853467
 20
43.201672
 30
0.0
 10
102.717865
 20
43.268917
 30
0.0
  0
LWPOLYLINE
  5
2ab
100
AcDbEntity
  8
0
 62
1
100
AcDbPolyline
 90
7
 70
0
 10
105.460713
 20
43.268917
 30
0.0
 10
105.290939
 20
43.201672
 30
0.0
 10
105.189514
 20
43.100250
 30
0.0
 10
105.156440
 20
42.964648
 30
0.0
 10
105.189514
 20
42.829051
 30
0.0
 10
105.290939
 20
42.727626
 30
0.0
 10
105.460713
 20
42.693449
 30
0.0
  0
LWPOLYLINE
  5
2ac
100
AcDbEntity
  8
0
 62
1
100
AcDbPolyline
 90
5
 70
0
 10
131.097731
 20
102.231314
 30
0.0
 10
133.976181
 20
102.231314
 30
0.0
 10
133.976181
 20
105.245357
 30
0.0
 10
131.097731
 20
105.245357
 30
0.0
 10
131.097731
 20
102.231314
 30
0.0
  0
LWPOLYLINE
  5
2ad
100
AcDbEntity
  8
0
 62
1
100
AcDbPolyline
 90
5
 70
0
 10
107.933467
 20
47.062384
 30
0.0
 10
110.811908
 20
47.062384
 30
0.0
 10
110.811908
 20
50.076430
 30
0.0
 10
107.933467
 20
50.076430
 30
0.0
 10
107.933467
 20
47.062384
 30
0.0
  0
LWPOLYLINE
  5
2ae
100
AcDbEntity
  8
0
 62
1
100
AcDbPolyline
 90
19
 70
0
 10
124.155728
 20
86.922963
 30
0.0
 10
123.647510
 20
86.415843
 30
0.0
 10
123.647510
 20
85.399403
 30
0.0
 10
124.155728
 20
84.891180
 30
0.0
 10
123.647510
 20
84.382963
 30
0.0
 10
123.647510
 20
83.367626
 30
0.0
 10
124.155728
 20
82.859403
 30
0.0
 10
123.647510
 20
82.351180
 30
0.0
 10
123.647510
 20
81.335843
 30
0.0
 10
124.155728
 20
80.827626
 30
0.0
 10
123.647510
 20
80.319403
 30
0.0
 10
123.647510
 20
79.302963
 30
0.0
 10
124.155728
 20
78.795843
 30
0.0
 10
123.647510
 20
78.287626
 30
0.0
 10
123.647510
 20
77.271180
 30
0.0
 10
124.155728
 20
76.762963
 30
0.0
 10
123.647510
 20
76.255843
 30
0.0
 10
123.647510
 20
75.239403
 30
0.0
 10
124.155728
 20
74.731180
 30
0.0
  0
LWPOLYLINE
  5
2af
100
AcDbEntity
  8
0
 62
1
100
AcDbPolyline
 90
32
 70
0
 10
124.155728
 20
86.922963
 30
0.0
 10
127.202847
 20
86.922963
 30
0.0
 10
127.711065
 20
86.415843
 30
0.0
 10
127.711065
 20
85.399403
 30
0.0
 10
127.202847
 20
84.891180
 30
0.0
 10
127.711065
 20
84.382963
 30
0.0
 10
127.711065
 20
83.367626
 30
0.0
 10
127.202847
 20
82.859403
 30
0.0
 10
127.711065
 20
82.351180
 30
0.0
 10
127.711065
 20
81.335843
 30
0.0
 10
127.202847
 20
80.827626
 30
0.0
 10
127.711065
 20
80.319403
 30
0.0
 10
127.711065
 20
79.302963
 30
0.0
 10
127.202847
 20
78.795843
 30
0.0
 10
127.711065
 20
78.287626
 30
0.0
 10
127.711065
 20
77.271180
 30
0.0
 10
127.202847
 20
76.762963
 30
0.0
 10
127.711065
 20
76.255843
 30
0.0
 10
127.711065
 20
75.239403
 30
0.0
 10
127.202847
 20
74.731180
 30
0.0
 10
127.711065
 20
74.222963
 30
0.0
 10
127.711065
 20
73.207626
 30
0.0
 10
127.202847
 20
72.699403
 30
0.0
 10
127.711065
 20
72.191180
 30
0.0
 10
127.711065
 20
71.175843
 30
0.0
 10
127.202847
 20
70.667626
 30
0.0
 10
127.711065
 20
70.159403
 30
0.0
 10
127.711065
 20
69.142963
 30
0.0
 10
127.202847
 20
68.635843
 30
0.0
 10
127.711065
 20
68.127626
 30
0.0
 10
127.711065
 20
67.111180
 30
0.0
 10
127.202847
 20
66.602963
 30
0.0
  0
LWPOLYLINE
  5
2b0
100
AcDbEntity
  8
0
 62
1
100
AcDbPolyline
 90
3
 70
0
 10
124.155728
 20
66.602963
 30
0.0
 10
123.647510
 20
67.111180
 30
0.0
 10
123.647510
 20
68.127626
 30
0.0
  0
LWPOLYLINE
  5
2b1
100
AcDbEntity
  8
0
 62
1
100
AcDbPolyline
 90
2
 70
0
 10
124.155728
 20
68.635843
 30
0.0
 10
123.647510
 20
68.127626
 30
0.0
  0
LWPOLYLINE
  5
2b2
100
AcDbEntity
  8
0
 62
1
100
AcDbPolyline
 90
3
 70
0
 10
124.155728
 20
68.635843
 30
0.0
 10
123.647510
 20
69.142963
 30
0.0
 10
123.647510
 20
70.159403
 30
0.0
  0
LWPOLYLINE
  5
2b3
100
AcDbEntity
  8
0
 62
1
100
AcDbPolyline
 90
2
 70
0
 10
124.155728
 20
70.667626
 30
0.0
 10
123.647510
 20
70.159403
 30
0.0
  0
LWPOLYLINE
  5
2b4
100
AcDbEntity
  8
0
 62
1
100
AcDbPolyline
 90
3
 70
0
 10
124.155728
 20
70.667626
 30
0.0
 10
123.647510
 20
71.175843
 30
0.0
 10
123.647510
 20
72.191180
 30
0.0
  0
LWPOLYLINE
  5
2b5
100
AcDbEntity
  8
0
 62
1
100
AcDbPolyline
 90
2
 70
0
 10
124.155728
 20
72.699403
 30
0.0
 10
123.647510
 20
72.191180
 30
0.0
  0
LWPOLYLINE
  5
2b6
100
AcDbEntity
  8
0
 62
1
100
AcDbPolyline
 90
3
 70
0
 10
124.155728
 20
72.699403
 30
0.0
 10
123.647510
 20
73.207626
 30
0.0
 10
123.647510
 20
74.222963
 30
0.0
  0
LWPOLYLINE
  5
2b7
100
AcDbEntity
  8
0
 62
1
100
AcDbPolyline
 90
2
 70
0
 10
124.155728
 20
74.731180
 30
0.0
 10
123.647510
 20
74.222963
 30
0.0
  0
LWPOLYLINE
  5
2b8
100
AcDbEntity
  8
0
 62
1
100
AcDbPolyline
 90
2
 70
0
 10
127.202847
 20
84.891180
 30
0.0
 10
124.155728
 20
84.891180
 30
0.0
  0
LWPOLYLINE
  5
2b9
100
AcDbEntity
  8
0
 62
1
100
AcDbPolyline
 90
2
 70
0
 10
127.202847
 20
82.859403
 30
0.0
 10
124.155728
 20
82.859403
 30
0.0
  0
LWPOLYLINE
  5
2ba
100
AcDbEntity
  8
0
 62
1
100
AcDbPolyline
 90
2
 70
0
 10
127.202847
 20
80.827626
 30
0.0
 10
124.155728
 20
80.827626
 30
0.0
  0
LWPOLYLINE
  5
2bb
100
AcDbEntity
  8
0
 62
1
100
AcDbPolyline
 90
2
 70
0
 10
127.202847
 20
78.795843
 30
0.0
 10
124.155728
 20
78.795843
 30
0.0
  0
LWPOLYLINE
  5
2bc
100
AcDbEntity
  8
0
 62
1
100
AcDbPolyline
 90
2
 70
0
 10
127.202847
 20
76.762963
 30
0.0
 10
124.155728
 20
76.762963
 30
0.0
  0
LWPOLYLINE
  5
2bd
100
AcDbEntity
  8
0
 62
1
100
AcDbPolyline
 90
2
 70
0
 10
127.202847
 20
74.731180
 30
0.0
 10
124.155728
 20
74.731180
 30
0.0
  0
LWPOLYLINE
  5
2be
100
AcDbEntity
  8
0
 62
1
100
AcDbPolyline
 90
2
 70
0
 10
127.202847
 20
72.699403
 30
0.0
 10
124.155728
 20
72.699403
 30
0.0
  0
LWPOLYLINE
  5
2bf
100
AcDbEntity
  8
0
 62
1
100
AcDbPolyline
 90
2
 70
0
 10
127.202847
 20
70.667626
 30
0.0
 10
124.155728
 20
70.667626
 30
0.0
  0
LWPOLYLINE
  5
2c0
100
AcDbEntity
  8
0
 62
1
100
AcDbPolyline
 90
2
 70
0
 10
127.202847
 20
68.635843
 30
0.0
 10
124.155728
 20
68.635843
 30
0.0
  0
LWPOLYLINE
  5
2c1
100
AcDbEntity
  8
0
 62
1
100
AcDbPolyline
 90
2
 70
0
 10
127.202847
 20
66.602963
 30
0.0
 10
124.155728
 20
66.602963
 30
0.0
  0
LWPOLYLINE
  5
2c2
100
AcDbEntity
  8
0
 62
1
100
AcDbPolyline
 90
4
 70
0
 10
127.202847
 20
66.602963
 30
0.0
 10
127.711065
 20
66.095843
 30
0.0
 10
127.711065
 20
65.079403
 30
0.0
 10
127.202847
 20
64.571180
 30
0.0
  0
LWPOLYLINE
  5
2c3
100
AcDbEntity
  8
0
 62
1
100
AcDbPolyline
 90
3
 70
0
 10
124.155728
 20
64.571180
 30
0.0
 10
123.647510
 20
65.079403
 30
0.0
 10
123.647510
 20
66.095843
 30
0.0
  0
LWPOLYLINE
  5
2c4
100
AcDbEntity
  8
0
 62
1
100
AcDbPolyline
 90
2
 70
0
 10
124.155728
 20
66.602963
 30
0.0
 10
123.647510
 20
66.095843
 30
0.0
  0
LWPOLYLINE
  5
2c5
100
AcDbEntity
  8
0
 62
1
100
AcDbPolyline
 90
2
 70
0
 10
127.202847
 20
64.571180
 30
0.0
 10
124.155728
 20
64.571180
 30
0.0
  0
LWPOLYLINE
  5
2c6
100
AcDbEntity
  8
0
 62
1
100
AcDbPolyline
 90
2
 70
0
 10
140.242394
 20
88.616296
 30
0.0
 10
140.242394
 20
87.837981
 30
0.0
  0
LWPOLYLINE
  5
2c7
100
AcDbEntity
  8
0
 62
1
100
AcDbPolyline
 90
2
 70
0
 10
138.480713
 20
87.837981
 30
0.0
 10
138.480713
 20
88.616296
 30
0.0
  0
LWPOLYLINE
  5
2c8
100
AcDbEntity
  8
0
 62
1
100
AcDbPolyline
 90
2
 70
0
 10
145.017019
 20
87.363935
 30
0.0
 10
145.017019
 20
86.550342
 30
0.0
  0
LWPOLYLINE
  5
2c9
100
AcDbEntity
  8
0
 62
1
100
AcDbPolyline
 90
2
 70
0
 10
143.256440
 20
86.550342
 30
0.0
 10
143.256440
 20
87.363935
 30
0.0
  0
LWPOLYLINE
  5
2ca
100
AcDbEntity
  8
0
 62
1
100
AcDbPolyline
 90
2
 70
0
 10
151.010939
 20
87.837981
 30
0.0
 10
151.010939
 20
88.616296
 30
0.0
  0
SPLINE
  5
2cb
100
AcDbEntity
  8
0
 62
7
100
AcDbSpline
 70
8
 71
3
 72
8
 73
4
 74
0
 40
0
 40
0
 40
0
 40
0
 40
1
 40
1
 40
1
 40
1
 10
107.356893
 20
70.599272
 30
0.0
 10
107.356893
 20
70.125226
 30
0.0
 10
106.951199
 20
69.719537
 30
0.0
 10
106.477153
 20
69.719537
 30
0.0
  0
SPLINE
  5
2cc
100
AcDbEntity
  8
0
 62
7
100
AcDbSpline
 70
8
 71
3
 72
8
 73
4
 74
0
 40
0
 40
0
 40
0
 40
0
 40
1
 40
1
 40
1
 40
1
 10
106.477153
 20
69.719537
 30
0.0
 10
106.003107
 20
69.719537
 30
0.0
 10
105.596315
 20
70.125226
 30
0.0
 10
105.596315
 20
70.599272
 30
0.0
  0
SPLINE
  5
2cd
100
AcDbEntity
  8
0
 62
7
100
AcDbSpline
 70
8
 71
3
 72
8
 73
4
 74
0
 40
0
 40
0
 40
0
 40
0
 40
1
 40
1
 40
1
 40
1
 10
105.596315
 20
70.599272
 30
0.0
 10
105.596315
 20
71.073315
 30
0.0
 10
106.003107
 20
71.480116
 30
0.0
 10
106.477153
 20
71.480116
 30
0.0
  0
SPLINE
  5
2ce
100
AcDbEntity
  8
0
 62
7
100
AcDbSpline
 70
8
 71
3
 72
8
 73
4
 74
0
 40
0
 40
0
 40
0
 40
0
 40
1
 40
1
 40
1
 40
1
 10
106.477153
 20
71.480116
 30
0.0
 10
106.951199
 20
71.480116
 30
0.0
 10
107.356893
 20
71.073315
 30
0.0
 10
107.356893
 20
70.599272
 30
0.0
  0
LWPOLYLINE
  5
2cf
100
AcDbEntity
  8
0
 62
1
100
AcDbPolyline
 90
2
 70
0
 10
152.772621
 20
88.616296
 30
0.0
 10
152.772621
 20
87.837981
 30
0.0
  0
SPLINE
  5
2d0
100
AcDbEntity
  8
0
 62
7
100
AcDbSpline
 70
8
 71
3
 72
8
 73
4
 74
0
 40
0
 40
0
 40
0
 40
0
 40
1
 40
1
 40
1
 40
1
 10
107.356893
 20
80.827626
 30
0.0
 10
107.356893
 20
80.353583
 30
0.0
 10
106.951199
 20
79.946782
 30
0.0
 10
106.477153
 20
79.946782
 30
0.0
  0
SPLINE
  5
2d1
100
AcDbEntity
  8
0
 62
7
100
AcDbSpline
 70
8
 71
3
 72
8
 73
4
 74
0
 40
0
 40
0
 40
0
 40
0
 40
1
 40
1
 40
1
 40
1
 10
106.477153
 20
79.946782
 30
0.0
 10
106.003107
 20
79.946782
 30
0.0
 10
105.596315
 20
80.353583
 30
0.0
 10
105.596315
 20
80.827626
 30
0.0
  0
SPLINE
  5
2d2
100
AcDbEntity
  8
0
 62
7
100
AcDbSpline
 70
8
 71
3
 72
8
 73
4
 74
0
 40
0
 40
0
 40
0
 40
0
 40
1
 40
1
 40
1
 40
1
 10
105.596315
 20
80.827626
 30
0.0
 10
105.596315
 20
81.301672
 30
0.0
 10
106.003107
 20
81.707361
 30
0.0
 10
106.477153
 20
81.707361
 30
0.0
  0
SPLINE
  5
2d3
100
AcDbEntity
  8
0
 62
7
100
AcDbSpline
 70
8
 71
3
 72
8
 73
4
 74
0
 40
0
 40
0
 40
0
 40
0
 40
1
 40
1
 40
1
 40
1
 10
106.477153
 20
81.707361
 30
0.0
 10
106.951199
 20
81.707361
 30
0.0
 10
107.356893
 20
81.301672
 30
0.0
 10
107.356893
 20
80.827626
 30
0.0
  0
LWPOLYLINE
  5
2d4
100
AcDbEntity
  8
0
 62
7
100
AcDbPolyline
 90
2
 70
0
 10
107.356893
 20
70.599272
 30
0.0
 10
107.356893
 20
70.599272
 30
0.0
  0
SPLINE
  5
2d5
100
AcDbEntity
  8
0
 62
7
100
AcDbSpline
 70
8
 71
3
 72
8
 73
4
 74
0
 40
0
 40
0
 40
0
 40
0
 40
1
 40
1
 40
1
 40
1
 10
121.682981
 20
100.537981
 30
0.0
 10
121.682981
 20
100.300957
 30
0.0
 10
121.513199
 20
100.131180
 30
0.0
 10
121.276181
 20
100.131180
 30
0.0
  0
SPLINE
  5
2d6
100
AcDbEntity
  8
0
 62
7
100
AcDbSpline
 70
8
 71
3
 72
8
 73
4
 74
0
 40
0
 40
0
 40
0
 40
0
 40
1
 40
1
 40
1
 40
1
 10
121.276181
 20
100.131180
 30
0.0
 10
121.039156
 20
100.131180
 30
0.0
 10
120.870486
 20
100.300957
 30
0.0
 10
120.870486
 20
100.537981
 30
0.0
  0
SPLINE
  5
2d7
100
AcDbEntity
  8
0
 62
7
100
AcDbSpline
 70
8
 71
3
 72
8
 73
4
 74
0
 40
0
 40
0
 40
0
 40
0
 40
1
 40
1
 40
1
 40
1
 10
120.870486
 20
100.537981
 30
0.0
 10
120.870486
 20
100.775002
 30
0.0
 10
121.039156
 20
100.943675
 30
0.0
 10
121.276181
 20
100.943675
 30
0.0
  0
SPLINE
  5
2d8
100
AcDbEntity
  8
0
 62
7
100
AcDbSpline
 70
8
 71
3
 72
8
 73
4
 74
0
 40
0
 40
0
 40
0
 40
0
 40
1
 40
1
 40
1
 40
1
 10
121.276181
 20
100.943675
 30
0.0
 10
121.513199
 20
100.943675
 30
0.0
 10
121.682981
 20
100.775002
 30
0.0
 10
121.682981
 20
100.537981
 30
0.0
  0
LWPOLYLINE
  5
2d9
100
AcDbEntity
  8
0
 62
7
100
AcDbPolyline
 90
2
 70
0
 10
107.356893
 20
80.827626
 30
0.0
 10
107.356893
 20
80.827626
 30
0.0
  0
SPLINE
  5
2da
100
AcDbEntity
  8
0
 62
7
100
AcDbSpline
 70
8
 71
3
 72
8
 73
4
 74
0
 40
0
 40
0
 40
0
 40
0
 40
1
 40
1
 40
1
 40
1
 10
114.502847
 20
100.537981
 30
0.0
 10
114.502847
 20
100.300957
 30
0.0
 10
114.334177
 20
100.131180
 30
0.0
 10
114.097153
 20
100.131180
 30
0.0
  0
SPLINE
  5
2db
100
AcDbEntity
  8
0
 62
7
100
AcDbSpline
 70
8
 71
3
 72
8
 73
4
 74
0
 40
0
 40
0
 40
0
 40
0
 40
1
 40
1
 40
1
 40
1
 10
114.097153
 20
100.131180
 30
0.0
 10
113.860134
 20
100.131180
 30
0.0
 10
113.690352
 20
100.300957
 30
0.0
 10
113.690352
 20
100.537981
 30
0.0
  0
SPLINE
  5
2dc
100
AcDbEntity
  8
0
 62
7
100
AcDbSpline
 70
8
 71
3
 72
8
 73
4
 74
0
 40
0
 40
0
 40
0
 40
0
 40
1
 40
1
 40
1
 40
1
 10
113.690352
 20
100.537981
 30
0.0
 10
113.690352
 20
100.775002
 30
0.0
 10
113.860134
 20
100.943675
 30
0.0
 10
114.097153
 20
100.943675
 30
0.0
  0
SPLINE
  5
2dd
100
AcDbEntity
  8
0
 62
7
100
AcDbSpline
 70
8
 71
3
 72
8
 73
4
 74
0
 40
0
 40
0
 40
0
 40
0
 40
1
 40
1
 40
1
 40
1
 10
114.097153
 20
100.943675
 30
0.0
 10
114.334177
 20
100.943675
 30
0.0
 10
114.502847
 20
100.775002
 30
0.0
 10
114.502847
 20
100.537981
 30
0.0
  0
LWPOLYLINE
  5
2de
100
AcDbEntity
  8
0
 62
7
100
AcDbPolyline
 90
2
 70
0
 10
121.682981
 20
100.537981
 30
0.0
 10
121.682981
 20
100.537981
 30
0.0
  0
SPLINE
  5
2df
100
AcDbEntity
  8
0
 62
7
100
AcDbSpline
 70
8
 71
3
 72
8
 73
4
 74
0
 40
0
 40
0
 40
0
 40
0
 40
1
 40
1
 40
1
 40
1
 10
114.502847
 20
50.957268
 30
0.0
 10
114.502847
 20
50.720250
 30
0.0
 10
114.334177
 20
50.550468
 30
0.0
 10
114.097153
 20
50.550468
 30
0.0
  0
SPLINE
  5
2e0
100
AcDbEntity
  8
0
 62
7
100
AcDbSpline
 70
8
 71
3
 72
8
 73
4
 74
0
 40
0
 40
0
 40
0
 40
0
 40
1
 40
1
 40
1
 40
1
 10
114.097153
 20
50.550468
 30
0.0
 10
113.860134
 20
50.550468
 30
0.0
 10
113.690352
 20
50.720250
 30
0.0
 10
113.690352
 20
50.957268
 30
0.0
  0
SPLINE
  5
2e1
100
AcDbEntity
  8
0
 62
7
100
AcDbSpline
 70
8
 71
3
 72
8
 73
4
 74
0
 40
0
 40
0
 40
0
 40
0
 40
1
 40
1
 40
1
 40
1
 10
113.690352
 20
50.957268
 30
0.0
 10
113.690352
 20
51.194293
 30
0.0
 10
113.860134
 20
51.362963
 30
0.0
 10
114.097153
 20
51.362963
 30
0.0
  0
SPLINE
  5
2e2
100
AcDbEntity
  8
0
 62
7
100
AcDbSpline
 70
8
 71
3
 72
8
 73
4
 74
0
 40
0
 40
0
 40
0
 40
0
 40
1
 40
1
 40
1
 40
1
 10
114.097153
 20
51.362963
 30
0.0
 10
114.334177
 20
51.362963
 30
0.0
 10
114.502847
 20
51.194293
 30
0.0
 10
114.502847
 20
50.957268
 30
0.0
  0
LWPOLYLINE
  5
2e3
100
AcDbEntity
  8
0
 62
7
100
AcDbPolyline
 90
2
 70
0
 10
114.502847
 20
100.537981
 30
0.0
 10
114.502847
 20
100.537981
 30
0.0
  0
SPLINE
  5
2e4
100
AcDbEntity
  8
0
 62
7
100
AcDbSpline
 70
8
 71
3
 72
8
 73
4
 74
0
 40
0
 40
0
 40
0
 40
0
 40
1
 40
1
 40
1
 40
1
 10
121.682981
 20
50.957268
 30
0.0
 10
121.682981
 20
50.720250
 30
0.0
 10
121.513199
 20
50.550468
 30
0.0
 10
121.276181
 20
50.550468
 30
0.0
  0
SPLINE
  5
2e5
100
AcDbEntity
  8
0
 62
7
100
AcDbSpline
 70
8
 71
3
 72
8
 73
4
 74
0
 40
0
 40
0
 40
0
 40
0
 40
1
 40
1
 40
1
 40
1
 10
121.276181
 20
50.550468
 30
0.0
 10
121.039156
 20
50.550468
 30
0.0
 10
120.870486
 20
50.720250
 30
0.0
 10
120.870486
 20
50.957268
 30
0.0
  0
SPLINE
  5
2e6
100
AcDbEntity
  8
0
 62
7
100
AcDbSpline
 70
8
 71
3
 72
8
 73
4
 74
0
 40
0
 40
0
 40
0
 40
0
 40
1
 40
1
 40
1
 40
1
 10
120.870486
 20
50.957268
 30
0.0
 10
120.870486
 20
51.194293
 30
0.0
 10
121.039156
 20
51.362963
 30
0.0
 10
121.276181
 20
51.362963
 30
0.0
  0
SPLINE
  5
2e7
100
AcDbEntity
  8
0
 62
7
100
AcDbSpline
 70
8
 71
3
 72
8
 73
4
 74
0
 40
0
 40
0
 40
0
 40
0
 40
1
 40
1
 40
1
 40
1
 10
121.276181
 20
51.362963
 30
0.0
 10
121.513199
 20
51.362963
 30
0.0
 10
121.682981
 20
51.194293
 30
0.0
 10
121.682981
 20
50.957268
 30
0.0
  0
LWPOLYLINE
  5
2e8
100
AcDbEntity
  8
0
 62
7
100
AcDbPolyline
 90
2
 70
0
 10
114.502847
 20
50.957268
 30
0.0
 10
114.502847
 20
50.957268
 30
0.0
  0
SPLINE
  5
2e9
100
AcDbEntity
  8
0
 62
7
100
AcDbSpline
 70
8
 71
3
 72
8
 73
4
 74
0
 40
0
 40
0
 40
0
 40
0
 40
1
 40
1
 40
1
 40
1
 10
111.488801
 20
40.560250
 30
0.0
 10
111.488801
 20
39.983675
 30
0.0
 10
111.048935
 20
39.543801
 30
0.0
 10
110.473467
 20
39.543801
 30
0.0
  0
SPLINE
  5
2ea
100
AcDbEntity
  8
0
 62
7
100
AcDbSpline
 70
8
 71
3
 72
8
 73
4
 74
0
 40
0
 40
0
 40
0
 40
0
 40
1
 40
1
 40
1
 40
1
 10
110.473467
 20
39.543801
 30
0.0
 10
109.896893
 20
39.543801
 30
0.0
 10
109.457019
 20
39.983675
 30
0.0
 10
109.457019
 20
40.560250
 30
0.0
  0
SPLINE
  5
2eb
100
AcDbEntity
  8
0
 62
7
100
AcDbSpline
 70
8
 71
3
 72
8
 73
4
 74
0
 40
0
 40
0
 40
0
 40
0
 40
1
 40
1
 40
1
 40
1
 10
109.457019
 20
40.560250
 30
0.0
 10
109.457019
 20
41.135718
 30
0.0
 10
109.896893
 20
41.575584
 30
0.0
 10
110.473467
 20
41.575584
 30
0.0
  0
SPLINE
  5
2ec
100
AcDbEntity
  8
0
 62
7
100
AcDbSpline
 70
8
 71
3
 72
8
 73
4
 74
0
 40
0
 40
0
 40
0
 40
0
 40
1
 40
1
 40
1
 40
1
 10
110.473467
 20
41.575584
 30
0.0
 10
111.048935
 20
41.575584
 30
0.0
 10
111.488801
 20
41.135718
 30
0.0
 10
111.488801
 20
40.560250
 30
0.0
  0
LWPOLYLINE
  5
2ed
100
AcDbEntity
  8
0
 62
7
100
AcDbPolyline
 90
2
 70
0
 10
121.682981
 20
50.957268
 30
0.0
 10
121.682981
 20
50.957268
 30
0.0
  0
SPLINE
  5
2ee
100
AcDbEntity
  8
0
 62
7
100
AcDbSpline
 70
8
 71
3
 72
8
 73
4
 74
0
 40
0
 40
0
 40
0
 40
0
 40
1
 40
1
 40
1
 40
1
 10
125.882135
 20
40.560250
 30
0.0
 10
125.882135
 20
39.983675
 30
0.0
 10
125.442269
 20
39.543801
 30
0.0
 10
124.866801
 20
39.543801
 30
0.0
  0
SPLINE
  5
2ef
100
AcDbEntity
  8
0
 62
7
100
AcDbSpline
 70
8
 71
3
 72
8
 73
4
 74
0
 40
0
 40
0
 40
0
 40
0
 40
1
 40
1
 40
1
 40
1
 10
124.866801
 20
39.543801
 30
0.0
 10
124.290226
 20
39.543801
 30
0.0
 10
123.850352
 20
39.983675
 30
0.0
 10
123.850352
 20
40.560250
 30
0.0
  0
SPLINE
  5
2f0
100
AcDbEntity
  8
0
 62
7
100
AcDbSpline
 70
8
 71
3
 72
8
 73
4
 74
0
 40
0
 40
0
 40
0
 40
0
 40
1
 40
1
 40
1
 40
1
 10
123.850352
 20
40.560250
 30
0.0
 10
123.850352
 20
41.135718
 30
0.0
 10
124.290226
 20
41.575584
 30
0.0
 10
124.866801
 20
41.575584
 30
0.0
  0
SPLINE
  5
2f1
100
AcDbEntity
  8
0
 62
7
100
AcDbSpline
 70
8
 71
3
 72
8
 73
4
 74
0
 40
0
 40
0
 40
0
 40
0
 40
1
 40
1
 40
1
 40
1
 10
124.866801
 20
41.575584
 30
0.0
 10
125.442269
 20
41.575584
 30
0.0
 10
125.882135
 20
41.135718
 30
0.0
 10
125.882135
 20
40.560250
 30
0.0
  0
LWPOLYLINE
  5
2f2
100
AcDbEntity
  8
0
 62
7
100
AcDbPolyline
 90
2
 70
0
 10
111.488801
 20
40.560250
 30
0.0
 10
111.488801
 20
40.560250
 30
0.0
  0
SPLINE
  5
2f3
100
AcDbEntity
  8
0
 62
7
100
AcDbSpline
 70
8
 71
3
 72
8
 73
4
 74
0
 40
0
 40
0
 40
0
 40
0
 40
1
 40
1
 40
1
 40
1
 10
77.385110
 20
35.784513
 30
0.0
 10
77.385110
 20
35.073449
 30
0.0
 10
76.809648
 20
34.497981
 30
0.0
 10
76.098575
 20
34.497981
 30
0.0
  0
SPLINE
  5
2f4
100
AcDbEntity
  8
0
 62
7
100
AcDbSpline
 70
8
 71
3
 72
8
 73
4
 74
0
 40
0
 40
0
 40
0
 40
0
 40
1
 40
1
 40
1
 40
1
 10
76.098575
 20
34.497981
 30
0.0
 10
75.387510
 20
34.497981
 30
0.0
 10
74.810939
 20
35.073449
 30
0.0
 10
74.810939
 20
35.784513
 30
0.0
  0
SPLINE
  5
2f5
100
AcDbEntity
  8
0
 62
7
100
AcDbSpline
 70
8
 71
3
 72
8
 73
4
 74
0
 40
0
 40
0
 40
0
 40
0
 40
1
 40
1
 40
1
 40
1
 10
74.810939
 20
35.784513
 30
0.0
 10
74.810939
 20
36.495584
 30
0.0
 10
75.387510
 20
37.071054
 30
0.0
 10
76.098575
 20
37.071054
 30
0.0
  0
SPLINE
  5
2f6
100
AcDbEntity
  8
0
 62
7
100
AcDbSpline
 70
8
 71
3
 72
8
 73
4
 74
0
 40
0
 40
0
 40
0
 40
0
 40
1
 40
1
 40
1
 40
1
 10
76.098575
 20
37.071054
 30
0.0
 10
76.809648
 20
37.071054
 30
0.0
 10
77.385110
 20
36.495584
 30
0.0
 10
77.385110
 20
35.784513
 30
0.0
  0
LWPOLYLINE
  5
2f7
100
AcDbEntity
  8
0
 62
7
100
AcDbPolyline
 90
2
 70
0
 10
125.882135
 20
40.560250
 30
0.0
 10
125.882135
 20
40.560250
 30
0.0
  0
SPLINE
  5
2f8
100
AcDbEntity
  8
0
 62
7
100
AcDbSpline
 70
8
 71
3
 72
8
 73
4
 74
0
 40
0
 40
0
 40
0
 40
0
 40
1
 40
1
 40
1
 40
1
 10
80.568935
 20
61.354293
 30
0.0
 10
80.568935
 20
60.643222
 30
0.0
 10
79.993467
 20
60.066648
 30
0.0
 10
79.282394
 20
60.066648
 30
0.0
  0
SPLINE
  5
2f9
100
AcDbEntity
  8
0
 62
7
100
AcDbSpline
 70
8
 71
3
 72
8
 73
4
 74
0
 40
0
 40
0
 40
0
 40
0
 40
1
 40
1
 40
1
 40
1
 10
79.282394
 20
60.066648
 30
0.0
 10
78.570226
 20
60.066648
 30
0.0
 10
77.994758
 20
60.643222
 30
0.0
 10
77.994758
 20
61.354293
 30
0.0
  0
SPLINE
  5
2fa
100
AcDbEntity
  8
0
 62
7
100
AcDbSpline
 70
8
 71
3
 72
8
 73
4
 74
0
 40
0
 40
0
 40
0
 40
0
 40
1
 40
1
 40
1
 40
1
 10
77.994758
 20
61.354293
 30
0.0
 10
77.994758
 20
62.065357
 30
0.0
 10
78.570226
 20
62.640828
 30
0.0
 10
79.282394
 20
62.640828
 30
0.0
  0
SPLINE
  5
2fb
100
AcDbEntity
  8
0
 62
7
100
AcDbSpline
 70
8
 71
3
 72
8
 73
4
 74
0
 40
0
 40
0
 40
0
 40
0
 40
1
 40
1
 40
1
 40
1
 10
79.282394
 20
62.640828
 30
0.0
 10
79.993467
 20
62.640828
 30
0.0
 10
80.568935
 20
62.065357
 30
0.0
 10
80.568935
 20
61.354293
 30
0.0
  0
LWPOLYLINE
  5
2fc
100
AcDbEntity
  8
0
 62
7
100
AcDbPolyline
 90
2
 70
0
 10
77.385110
 20
35.784513
 30
0.0
 10
77.385110
 20
35.784513
 30
0.0
  0
SPLINE
  5
2fd
100
AcDbEntity
  8
0
 62
7
100
AcDbSpline
 70
8
 71
3
 72
8
 73
4
 74
0
 40
0
 40
0
 40
0
 40
0
 40
1
 40
1
 40
1
 40
1
 10
59.537865
 20
69.854027
 30
0.0
 10
59.537865
 20
69.278559
 30
0.0
 10
59.096893
 20
68.838691
 30
0.0
 10
58.521425
 20
68.838691
 30
0.0
  0
SPLINE
  5
2fe
100
AcDbEntity
  8
0
 62
7
100
AcDbSpline
 70
8
 71
3
 72
8
 73
4
 74
0
 40
0
 40
0
 40
0
 40
0
 40
1
 40
1
 40
1
 40
1
 10
58.521425
 20
68.838691
 30
0.0
 10
57.945954
 20
68.838691
 30
0.0
 10
57.506085
 20
69.278559
 30
0.0
 10
57.506085
 20
69.854027
 30
0.0
  0
SPLINE
  5
2ff
100
AcDbEntity
  8
0
 62
7
100
AcDbSpline
 70
8
 71
3
 72
8
 73
4
 74
0
 40
0
 40
0
 40
0
 40
0
 40
1
 40
1
 40
1
 40
1
 10
57.506085
 20
69.854027
 30
0.0
 10
57.506085
 20
70.430602
 30
0.0
 10
57.945954
 20
70.870468
 30
0.0
 10
58.521425
 20
70.870468
 30
0.0
  0
SPLINE
  5
300
100
AcDbEntity
  8
0
 62
7
100
AcDbSpline
 70
8
 71
3
 72
8
 73
4
 74
0
 40
0
 40
0
 40
0
 40
0
 40
1
 40
1
 40
1
 40
1
 10
58.521425
 20
70.870468
 30
0.0
 10
59.096893
 20
70.870468
 30
0.0
 10
59.537865
 20
70.430602
 30
0.0
 10
59.537865
 20
69.854027
 30
0.0
  0
LWPOLYLINE
  5
301
100
AcDbEntity
  8
0
 62
7
100
AcDbPolyline
 90
2
 70
0
 10
80.568935
 20
61.354293
 30
0.0
 10
80.568935
 20
61.354293
 30
0.0
  0
SPLINE
  5
302
100
AcDbEntity
  8
0
 62
7
100
AcDbSpline
 70
8
 71
3
 72
8
 73
4
 74
0
 40
0
 40
0
 40
0
 40
0
 40
1
 40
1
 40
1
 40
1
 10
59.537865
 20
81.640116
 30
0.0
 10
59.537865
 20
81.064648
 30
0.0
 10
59.096893
 20
80.623675
 30
0.0
 10
58.521425
 20
80.623675
 30
0.0
  0
SPLINE
  5
303
100
AcDbEntity
  8
0
 62
7
100
AcDbSpline
 70
8
 71
3
 72
8
 73
4
 74
0
 40
0
 40
0
 40
0
 40
0
 40
1
 40
1
 40
1
 40
1
 10
58.521425
 20
80.623675
 30
0.0
 10
57.945954
 20
80.623675
 30
0.0
 10
57.506085
 20
81.064648
 30
0.0
 10
57.506085
 20
81.640116
 30
0.0
  0
SPLINE
  5
304
100
AcDbEntity
  8
0
 62
7
100
AcDbSpline
 70
8
 71
3
 72
8
 73
4
 74
0
 40
0
 40
0
 40
0
 40
0
 40
1
 40
1
 40
1
 40
1
 10
57.506085
 20
81.640116
 30
0.0
 10
57.506085
 20
82.215584
 30
0.0
 10
57.945954
 20
82.656556
 30
0.0
 10
58.521425
 20
82.656556
 30
0.0
  0
SPLINE
  5
305
100
AcDbEntity
  8
0
 62
7
100
AcDbSpline
 70
8
 71
3
 72
8
 73
4
 74
0
 40
0
 40
0
 40
0
 40
0
 40
1
 40
1
 40
1
 40
1
 10
58.521425
 20
82.656556
 30
0.0
 10
59.096893
 20
82.656556
 30
0.0
 10
59.537865
 20
82.215584
 30
0.0
 10
59.537865
 20
81.640116
 30
0.0
  0
LWPOLYLINE
  5
306
100
AcDbEntity
  8
0
 62
7
100
AcDbPolyline
 90
2
 70
0
 10
59.537865
 20
69.854027
 30
0.0
 10
59.537865
 20
69.854027
 30
0.0
  0
SPLINE
  5
307
100
AcDbEntity
  8
0
 62
7
100
AcDbSpline
 70
8
 71
3
 72
8
 73
4
 74
0
 40
0
 40
0
 40
0
 40
0
 40
1
 40
1
 40
1
 40
1
 10
80.568935
 20
90.140959
 30
0.0
 10
80.568935
 20
89.429889
 30
0.0
 10
79.993467
 20
88.853315
 30
0.0
 10
79.282394
 20
88.853315
 30
0.0
  0
SPLINE
  5
308
100
AcDbEntity
  8
0
 62
7
100
AcDbSpline
 70
8
 71
3
 72
8
 73
4
 74
0
 40
0
 40
0
 40
0
 40
0
 40
1
 40
1
 40
1
 40
1
 10
79.282394
 20
88.853315
 30
0.0
 10
78.570226
 20
88.853315
 30
0.0
 10
77.994758
 20
89.429889
 30
0.0
 10
77.994758
 20
90.140959
 30
0.0
  0
SPLINE
  5
309
100
AcDbEntity
  8
0
 62
7
100
AcDbSpline
 70
8
 71
3
 72
8
 73
4
 74
0
 40
0
 40
0
 40
0
 40
0
 40
1
 40
1
 40
1
 40
1
 10
77.994758
 20
90.140959
 30
0.0
 10
77.994758
 20
90.852024
 30
0.0
 10
78.570226
 20
91.427495
 30
0.0
 10
79.282394
 20
91.427495
 30
0.0
  0
SPLINE
  5
30a
100
AcDbEntity
  8
0
 62
7
100
AcDbSpline
 70
8
 71
3
 72
8
 73
4
 74
0
 40
0
 40
0
 40
0
 40
0
 40
1
 40
1
 40
1
 40
1
 10
79.282394
 20
91.427495
 30
0.0
 10
79.993467
 20
91.427495
 30
0.0
 10
80.568935
 20
90.852024
 30
0.0
 10
80.568935
 20
90.140959
 30
0.0
  0
LWPOLYLINE
  5
30b
100
AcDbEntity
  8
0
 62
7
100
AcDbPolyline
 90
2
 70
0
 10
59.537865
 20
81.640116
 30
0.0
 10
59.537865
 20
81.640116
 30
0.0
  0
SPLINE
  5
30c
100
AcDbEntity
  8
0
 62
7
100
AcDbSpline
 70
8
 71
3
 72
8
 73
4
 74
0
 40
0
 40
0
 40
0
 40
0
 40
1
 40
1
 40
1
 40
1
 10
77.385110
 20
115.743804
 30
0.0
 10
77.385110
 20
115.032736
 30
0.0
 10
76.809648
 20
114.457268
 30
0.0
 10
76.098575
 20
114.457268
 30
0.0
  0
SPLINE
  5
30d
100
AcDbEntity
  8
0
 62
7
100
AcDbSpline
 70
8
 71
3
 72
8
 73
4
 74
0
 40
0
 40
0
 40
0
 40
0
 40
1
 40
1
 40
1
 40
1
 10
76.098575
 20
114.457268
 30
0.0
 10
75.387510
 20
114.457268
 30
0.0
 10
74.810939
 20
115.032736
 30
0.0
 10
74.810939
 20
115.743804
 30
0.0
  0
SPLINE
  5
30e
100
AcDbEntity
  8
0
 62
7
100
AcDbSpline
 70
8
 71
3
 72
8
 73
4
 74
0
 40
0
 40
0
 40
0
 40
0
 40
1
 40
1
 40
1
 40
1
 10
74.810939
 20
115.743804
 30
0.0
 10
74.810939
 20
116.454874
 30
0.0
 10
75.387510
 20
117.030342
 30
0.0
 10
76.098575
 20
117.030342
 30
0.0
  0
SPLINE
  5
30f
100
AcDbEntity
  8
0
 62
7
100
AcDbSpline
 70
8
 71
3
 72
8
 73
4
 74
0
 40
0
 40
0
 40
0
 40
0
 40
1
 40
1
 40
1
 40
1
 10
76.098575
 20
117.030342
 30
0.0
 10
76.809648
 20
117.030342
 30
0.0
 10
77.385110
 20
116.454874
 30
0.0
 10
77.385110
 20
115.743804
 30
0.0
  0
LWPOLYLINE
  5
310
100
AcDbEntity
  8
0
 62
7
100
AcDbPolyline
 90
2
 70
0
 10
80.568935
 20
90.140959
 30
0.0
 10
80.568935
 20
90.140959
 30
0.0
  0
SPLINE
  5
311
100
AcDbEntity
  8
0
 62
7
100
AcDbSpline
 70
8
 71
3
 72
8
 73
4
 74
0
 40
0
 40
0
 40
0
 40
0
 40
1
 40
1
 40
1
 40
1
 10
111.488801
 20
110.935002
 30
0.0
 10
111.488801
 20
110.359534
 30
0.0
 10
111.048935
 20
109.918562
 30
0.0
 10
110.473467
 20
109.918562
 30
0.0
  0
SPLINE
  5
312
100
AcDbEntity
  8
0
 62
7
100
AcDbSpline
 70
8
 71
3
 72
8
 73
4
 74
0
 40
0
 40
0
 40
0
 40
0
 40
1
 40
1
 40
1
 40
1
 10
110.473467
 20
109.918562
 30
0.0
 10
109.896893
 20
109.918562
 30
0.0
 10
109.457019
 20
110.359534
 30
0.0
 10
109.457019
 20
110.935002
 30
0.0
  0
SPLINE
  5
313
100
AcDbEntity
  8
0
 62
7
100
AcDbSpline
 70
8
 71
3
 72
8
 73
4
 74
0
 40
0
 40
0
 40
0
 40
0
 40
1
 40
1
 40
1
 40
1
 10
109.457019
 20
110.935002
 30
0.0
 10
109.457019
 20
111.510470
 30
0.0
 10
109.896893
 20
111.950342
 30
0.0
 10
110.473467
 20
111.950342
 30
0.0
  0
SPLINE
  5
314
100
AcDbEntity
  8
0
 62
7
100
AcDbSpline
 70
8
 71
3
 72
8
 73
4
 74
0
 40
0
 40
0
 40
0
 40
0
 40
1
 40
1
 40
1
 40
1
 10
110.473467
 20
111.950342
 30
0.0
 10
111.048935
 20
111.950342
 30
0.0
 10
111.488801
 20
111.510470
 30
0.0
 10
111.488801
 20
110.935002
 30
0.0
  0
LWPOLYLINE
  5
315
100
AcDbEntity
  8
0
 62
7
100
AcDbPolyline
 90
2
 70
0
 10
77.385110
 20
115.743804
 30
0.0
 10
77.385110
 20
115.743804
 30
0.0
  0
SPLINE
  5
316
100
AcDbEntity
  8
0
 62
7
100
AcDbSpline
 70
8
 71
3
 72
8
 73
4
 74
0
 40
0
 40
0
 40
0
 40
0
 40
1
 40
1
 40
1
 40
1
 10
159.748801
 20
115.743804
 30
0.0
 10
159.748801
 20
115.032736
 30
0.0
 10
159.173333
 20
114.457268
 30
0.0
 10
158.462269
 20
114.457268
 30
0.0
  0
SPLINE
  5
317
100
AcDbEntity
  8
0
 62
7
100
AcDbSpline
 70
8
 71
3
 72
8
 73
4
 74
0
 40
0
 40
0
 40
0
 40
0
 40
1
 40
1
 40
1
 40
1
 10
158.462269
 20
114.457268
 30
0.0
 10
157.751199
 20
114.457268
 30
0.0
 10
157.175728
 20
115.032736
 30
0.0
 10
157.175728
 20
115.743804
 30
0.0
  0
SPLINE
  5
318
100
AcDbEntity
  8
0
 62
7
100
AcDbSpline
 70
8
 71
3
 72
8
 73
4
 74
0
 40
0
 40
0
 40
0
 40
0
 40
1
 40
1
 40
1
 40
1
 10
157.175728
 20
115.743804
 30
0.0
 10
157.175728
 20
116.454874
 30
0.0
 10
157.751199
 20
117.030342
 30
0.0
 10
158.462269
 20
117.030342
 30
0.0
  0
SPLINE
  5
319
100
AcDbEntity
  8
0
 62
7
100
AcDbSpline
 70
8
 71
3
 72
8
 73
4
 74
0
 40
0
 40
0
 40
0
 40
0
 40
1
 40
1
 40
1
 40
1
 10
158.462269
 20
117.030342
 30
0.0
 10
159.173333
 20
117.030342
 30
0.0
 10
159.748801
 20
116.454874
 30
0.0
 10
159.748801
 20
115.743804
 30
0.0
  0
LWPOLYLINE
  5
31a
100
AcDbEntity
  8
0
 62
7
100
AcDbPolyline
 90
2
 70
0
 10
111.488801
 20
110.935002
 30
0.0
 10
111.488801
 20
110.935002
 30
0.0
  0
SPLINE
  5
31b
100
AcDbEntity
  8
0
 62
7
100
AcDbSpline
 70
8
 71
3
 72
8
 73
4
 74
0
 40
0
 40
0
 40
0
 40
0
 40
1
 40
1
 40
1
 40
1
 10
125.882135
 20
110.935002
 30
0.0
 10
125.882135
 20
110.359534
 30
0.0
 10
125.442269
 20
109.918562
 30
0.0
 10
124.866801
 20
109.918562
 30
0.0
  0
SPLINE
  5
31c
100
AcDbEntity
  8
0
 62
7
100
AcDbSpline
 70
8
 71
3
 72
8
 73
4
 74
0
 40
0
 40
0
 40
0
 40
0
 40
1
 40
1
 40
1
 40
1
 10
124.866801
 20
109.918562
 30
0.0
 10
124.290226
 20
109.918562
 30
0.0
 10
123.850352
 20
110.359534
 30
0.0
 10
123.850352
 20
110.935002
 30
0.0
  0
SPLINE
  5
31d
100
AcDbEntity
  8
0
 62
7
100
AcDbSpline
 70
8
 71
3
 72
8
 73
4
 74
0
 40
0
 40
0
 40
0
 40
0
 40
1
 40
1
 40
1
 40
1
 10
123.850352
 20
110.935002
 30
0.0
 10
123.850352
 20
111.510470
 30
0.0
 10
124.290226
 20
111.950342
 30
0.0
 10
124.866801
 20
111.950342
 30
0.0
  0
SPLINE
  5
31e
100
AcDbEntity
  8
0
 62
7
100
AcDbSpline
 70
8
 71
3
 72
8
 73
4
 74
0
 40
0
 40
0
 40
0
 40
0
 40
1
 40
1
 40
1
 40
1
 10
124.866801
 20
111.950342
 30
0.0
 10
125.442269
 20
111.950342
 30
0.0
 10
125.882135
 20
111.510470
 30
0.0
 10
125.882135
 20
110.935002
 30
0.0
  0
LWPOLYLINE
  5
31f
100
AcDbEntity
  8
0
 62
7
100
AcDbPolyline
 90
2
 70
0
 10
159.748801
 20
115.743804
 30
0.0
 10
159.748801
 20
115.743804
 30
0.0
  0
SPLINE
  5
320
100
AcDbEntity
  8
0
 62
7
100
AcDbSpline
 70
8
 71
3
 72
8
 73
4
 74
0
 40
0
 40
0
 40
0
 40
0
 40
1
 40
1
 40
1
 40
1
 10
134.145954
 20
90.140959
 30
0.0
 10
134.145954
 20
89.429889
 30
0.0
 10
133.570486
 20
88.853315
 30
0.0
 10
132.859422
 20
88.853315
 30
0.0
  0
SPLINE
  5
321
100
AcDbEntity
  8
0
 62
7
100
AcDbSpline
 70
8
 71
3
 72
8
 73
4
 74
0
 40
0
 40
0
 40
0
 40
0
 40
1
 40
1
 40
1
 40
1
 10
132.859422
 20
88.853315
 30
0.0
 10
132.147245
 20
88.853315
 30
0.0
 10
131.571777
 20
89.429889
 30
0.0
 10
131.571777
 20
90.140959
 30
0.0
  0
SPLINE
  5
322
100
AcDbEntity
  8
0
 62
7
100
AcDbSpline
 70
8
 71
3
 72
8
 73
4
 74
0
 40
0
 40
0
 40
0
 40
0
 40
1
 40
1
 40
1
 40
1
 10
131.571777
 20
90.140959
 30
0.0
 10
131.571777
 20
90.852024
 30
0.0
 10
132.147245
 20
91.427495
 30
0.0
 10
132.859422
 20
91.427495
 30
0.0
  0
SPLINE
  5
323
100
AcDbEntity
  8
0
 62
7
100
AcDbSpline
 70
8
 71
3
 72
8
 73
4
 74
0
 40
0
 40
0
 40
0
 40
0
 40
1
 40
1
 40
1
 40
1
 10
132.859422
 20
91.427495
 30
0.0
 10
133.570486
 20
91.427495
 30
0.0
 10
134.145954
 20
90.852024
 30
0.0
 10
134.145954
 20
90.140959
 30
0.0
  0
LWPOLYLINE
  5
324
100
AcDbEntity
  8
0
 62
7
100
AcDbPolyline
 90
2
 70
0
 10
125.882135
 20
110.935002
 30
0.0
 10
125.882135
 20
110.935002
 30
0.0
  0
SPLINE
  5
325
100
AcDbEntity
  8
0
 62
7
100
AcDbSpline
 70
8
 71
3
 72
8
 73
4
 74
0
 40
0
 40
0
 40
0
 40
0
 40
1
 40
1
 40
1
 40
1
 10
134.145954
 20
61.354293
 30
0.0
 10
134.145954
 20
60.643222
 30
0.0
 10
133.570486
 20
60.066648
 30
0.0
 10
132.859422
 20
60.066648
 30
0.0
  0
SPLINE
  5
326
100
AcDbEntity
  8
0
 62
7
100
AcDbSpline
 70
8
 71
3
 72
8
 73
4
 74
0
 40
0
 40
0
 40
0
 40
0
 40
1
 40
1
 40
1
 40
1
 10
132.859422
 20
60.066648
 30
0.0
 10
132.147245
 20
60.066648
 30
0.0
 10
131.571777
 20
60.643222
 30
0.0
 10
131.571777
 20
61.354293
 30
0.0
  0
SPLINE
  5
327
100
AcDbEntity
  8
0
 62
7
100
AcDbSpline
 70
8
 71
3
 72
8
 73
4
 74
0
 40
0
 40
0
 40
0
 40
0
 40
1
 40
1
 40
1
 40
1
 10
131.571777
 20
61.354293
 30
0.0
 10
131.571777
 20
62.065357
 30
0.0
 10
132.147245
 20
62.640828
 30
0.0
 10
132.859422
 20
62.640828
 30
0.0
  0
SPLINE
  5
328
100
AcDbEntity
  8
0
 62
7
100
AcDbSpline
 70
8
 71
3
 72
8
 73
4
 74
0
 40
0
 40
0
 40
0
 40
0
 40
1
 40
1
 40
1
 40
1
 10
132.859422
 20
62.640828
 30
0.0
 10
133.570486
 20
62.640828
 30
0.0
 10
134.145954
 20
62.065357
 30
0.0
 10
134.145954
 20
61.354293
 30
0.0
  0
LWPOLYLINE
  5
329
100
AcDbEntity
  8
0
 62
7
100
AcDbPolyline
 90
2
 70
0
 10
134.145954
 20
90.140959
 30
0.0
 10
134.145954
 20
90.140959
 30
0.0
  0
SPLINE
  5
32a
100
AcDbEntity
  8
0
 62
7
100
AcDbSpline
 70
8
 71
3
 72
8
 73
4
 74
0
 40
0
 40
0
 40
0
 40
0
 40
1
 40
1
 40
1
 40
1
 10
159.748801
 20
35.784513
 30
0.0
 10
159.748801
 20
35.073449
 30
0.0
 10
159.173333
 20
34.497981
 30
0.0
 10
158.462269
 20
34.497981
 30
0.0
  0
SPLINE
  5
32b
100
AcDbEntity
  8
0
 62
7
100
AcDbSpline
 70
8
 71
3
 72
8
 73
4
 74
0
 40
0
 40
0
 40
0
 40
0
 40
1
 40
1
 40
1
 40
1
 10
158.462269
 20
34.497981
 30
0.0
 10
157.751199
 20
34.497981
 30
0.0
 10
157.175728
 20
35.073449
 30
0.0
 10
157.175728
 20
35.784513
 30
0.0
  0
SPLINE
  5
32c
100
AcDbEntity
  8
0
 62
7
100
AcDbSpline
 70
8
 71
3
 72
8
 73
4
 74
0
 40
0
 40
0
 40
0
 40
0
 40
1
 40
1
 40
1
 40
1
 10
157.175728
 20
35.784513
 30
0.0
 10
157.175728
 20
36.495584
 30
0.0
 10
157.751199
 20
37.071054
 30
0.0
 10
158.462269
 20
37.071054
 30
0.0
  0
SPLINE
  5
32d
100
AcDbEntity
  8
0
 62
7
100
AcDbSpline
 70
8
 71
3
 72
8
 73
4
 74
0
 40
0
 40
0
 40
0
 40
0
 40
1
 40
1
 40
1
 40
1
 10
158.462269
 20
37.071054
 30
0.0
 10
159.173333
 20
37.071054
 30
0.0
 10
159.748801
 20
36.495584
 30
0.0
 10
159.748801
 20
35.784513
 30
0.0
  0
LWPOLYLINE
  5
32e
100
AcDbEntity
  8
0
 62
7
100
AcDbPolyline
 90
2
 70
0
 10
134.145954
 20
61.354293
 30
0.0
 10
134.145954
 20
61.354293
 30
0.0
  0
SPLINE
  5
32f
100
AcDbEntity
  8
0
 62
7
100
AcDbSpline
 70
8
 71
3
 72
8
 73
4
 74
0
 40
0
 40
0
 40
0
 40
0
 40
1
 40
1
 40
1
 40
1
 10
172.280134
 20
81.640116
 30
0.0
 10
172.280134
 20
81.064648
 30
0.0
 10
171.839156
 20
80.623675
 30
0.0
 10
171.263685
 20
80.623675
 30
0.0
  0
SPLINE
  5
330
100
AcDbEntity
  8
0
 62
7
100
AcDbSpline
 70
8
 71
3
 72
8
 73
4
 74
0
 40
0
 40
0
 40
0
 40
0
 40
1
 40
1
 40
1
 40
1
 10
171.263685
 20
80.623675
 30
0.0
 10
170.688223
 20
80.623675
 30
0.0
 10
170.247245
 20
81.064648
 30
0.0
 10
170.247245
 20
81.640116
 30
0.0
  0
SPLINE
  5
331
100
AcDbEntity
  8
0
 62
7
100
AcDbSpline
 70
8
 71
3
 72
8
 73
4
 74
0
 40
0
 40
0
 40
0
 40
0
 40
1
 40
1
 40
1
 40
1
 10
170.247245
 20
81.640116
 30
0.0
 10
170.247245
 20
82.215584
 30
0.0
 10
170.688223
 20
82.656556
 30
0.0
 10
171.263685
 20
82.656556
 30
0.0
  0
SPLINE
  5
332
100
AcDbEntity
  8
0
 62
7
100
AcDbSpline
 70
8
 71
3
 72
8
 73
4
 74
0
 40
0
 40
0
 40
0
 40
0
 40
1
 40
1
 40
1
 40
1
 10
171.263685
 20
82.656556
 30
0.0
 10
171.839156
 20
82.656556
 30
0.0
 10
172.280134
 20
82.215584
 30
0.0
 10
172.280134
 20
81.640116
 30
0.0
  0
LWPOLYLINE
  5
333
100
AcDbEntity
  8
0
 62
7
100
AcDbPolyline
 90
2
 70
0
 10
159.748801
 20
35.784513
 30
0.0
 10
159.748801
 20
35.784513
 30
0.0
  0
SPLINE
  5
334
100
AcDbEntity
  8
0
 62
7
100
AcDbSpline
 70
8
 71
3
 72
8
 73
4
 74
0
 40
0
 40
0
 40
0
 40
0
 40
1
 40
1
 40
1
 40
1
 10
172.280134
 20
69.854027
 30
0.0
 10
172.280134
 20
69.278559
 30
0.0
 10
171.839156
 20
68.838691
 30
0.0
 10
171.263685
 20
68.838691
 30
0.0
  0
SPLINE
  5
335
100
AcDbEntity
  8
0
 62
7
100
AcDbSpline
 70
8
 71
3
 72
8
 73
4
 74
0
 40
0
 40
0
 40
0
 40
0
 40
1
 40
1
 40
1
 40
1
 10
171.263685
 20
68.838691
 30
0.0
 10
170.688223
 20
68.838691
 30
0.0
 10
170.247245
 20
69.278559
 30
0.0
 10
170.247245
 20
69.854027
 30
0.0
  0
SPLINE
  5
336
100
AcDbEntity
  8
0
 62
7
100
AcDbSpline
 70
8
 71
3
 72
8
 73
4
 74
0
 40
0
 40
0
 40
0
 40
0
 40
1
 40
1
 40
1
 40
1
 10
170.247245
 20
69.854027
 30
0.0
 10
170.247245
 20
70.430602
 30
0.0
 10
170.688223
 20
70.870468
 30
0.0
 10
171.263685
 20
70.870468
 30
0.0
  0
SPLINE
  5
337
100
AcDbEntity
  8
0
 62
7
100
AcDbSpline
 70
8
 71
3
 72
8
 73
4
 74
0
 40
0
 40
0
 40
0
 40
0
 40
1
 40
1
 40
1
 40
1
 10
171.263685
 20
70.870468
 30
0.0
 10
171.839156
 20
70.870468
 30
0.0
 10
172.280134
 20
70.430602
 30
0.0
 10
172.280134
 20
69.854027
 30
0.0
  0
LWPOLYLINE
  5
338
100
AcDbEntity
  8
0
 62
7
100
AcDbPolyline
 90
2
 70
0
 10
172.280134
 20
81.640116
 30
0.0
 10
172.280134
 20
81.640116
 30
0.0
  0
SPLINE
  5
339
100
AcDbEntity
  8
0
 62
7
100
AcDbSpline
 70
8
 71
3
 72
8
 73
4
 74
0
 40
0
 40
0
 40
0
 40
0
 40
1
 40
1
 40
1
 40
1
 10
97.366667
 20
90.140959
 30
0.0
 10
97.366667
 20
89.429889
 30
0.0
 10
96.791199
 20
88.853315
 30
0.0
 10
96.080134
 20
88.853315
 30
0.0
  0
SPLINE
  5
33a
100
AcDbEntity
  8
0
 62
7
100
AcDbSpline
 70
8
 71
3
 72
8
 73
4
 74
0
 40
0
 40
0
 40
0
 40
0
 40
1
 40
1
 40
1
 40
1
 10
96.080134
 20
88.853315
 30
0.0
 10
95.369061
 20
88.853315
 30
0.0
 10
94.792490
 20
89.429889
 30
0.0
 10
94.792490
 20
90.140959
 30
0.0
  0
SPLINE
  5
33b
100
AcDbEntity
  8
0
 62
7
100
AcDbSpline
 70
8
 71
3
 72
8
 73
4
 74
0
 40
0
 40
0
 40
0
 40
0
 40
1
 40
1
 40
1
 40
1
 10
94.792490
 20
90.140959
 30
0.0
 10
94.792490
 20
90.852024
 30
0.0
 10
95.369061
 20
91.427495
 30
0.0
 10
96.080134
 20
91.427495
 30
0.0
  0
SPLINE
  5
33c
100
AcDbEntity
  8
0
 62
7
100
AcDbSpline
 70
8
 71
3
 72
8
 73
4
 74
0
 40
0
 40
0
 40
0
 40
0
 40
1
 40
1
 40
1
 40
1
 10
96.080134
 20
91.427495
 30
0.0
 10
96.791199
 20
91.427495
 30
0.0
 10
97.366667
 20
90.852024
 30
0.0
 10
97.366667
 20
90.140959
 30
0.0
  0
LWPOLYLINE
  5
33d
100
AcDbEntity
  8
0
 62
7
100
AcDbPolyline
 90
2
 70
0
 10
172.280134
 20
69.854027
 30
0.0
 10
172.280134
 20
69.854027
 30
0.0
  0
SPLINE
  5
33e
100
AcDbEntity
  8
0
 62
7
100
AcDbSpline
 70
8
 71
3
 72
8
 73
4
 74
0
 40
0
 40
0
 40
0
 40
0
 40
1
 40
1
 40
1
 40
1
 10
97.366667
 20
61.354293
 30
0.0
 10
97.366667
 20
60.643222
 30
0.0
 10
96.791199
 20
60.066648
 30
0.0
 10
96.080134
 20
60.066648
 30
0.0
  0
SPLINE
  5
33f
100
AcDbEntity
  8
0
 62
7
100
AcDbSpline
 70
8
 71
3
 72
8
 73
4
 74
0
 40
0
 40
0
 40
0
 40
0
 40
1
 40
1
 40
1
 40
1
 10
96.080134
 20
60.066648
 30
0.0
 10
95.369061
 20
60.066648
 30
0.0
 10
94.792490
 20
60.643222
 30
0.0
 10
94.792490
 20
61.354293
 30
0.0
  0
SPLINE
  5
340
100
AcDbEntity
  8
0
 62
7
100
AcDbSpline
 70
8
 71
3
 72
8
 73
4
 74
0
 40
0
 40
0
 40
0
 40
0
 40
1
 40
1
 40
1
 40
1
 10
94.792490
 20
61.354293
 30
0.0
 10
94.792490
 20
62.065357
 30
0.0
 10
95.369061
 20
62.640828
 30
0.0
 10
96.080134
 20
62.640828
 30
0.0
  0
SPLINE
  5
341
100
AcDbEntity
  8
0
 62
7
100
AcDbSpline
 70
8
 71
3
 72
8
 73
4
 74
0
 40
0
 40
0
 40
0
 40
0
 40
1
 40
1
 40
1
 40
1
 10
96.080134
 20
62.640828
 30
0.0
 10
96.791199
 20
62.640828
 30
0.0
 10
97.366667
 20
62.065357
 30
0.0
 10
97.366667
 20
61.354293
 30
0.0
  0
LWPOLYLINE
  5
342
100
AcDbEntity
  8
0
 62
7
100
AcDbPolyline
 90
2
 70
0
 10
97.366667
 20
90.140959
 30
0.0
 10
97.366667
 20
90.140959
 30
0.0
  0
LWPOLYLINE
  5
343
100
AcDbEntity
  8
0
 62
7
100
AcDbPolyline
 90
2
 70
0
 10
97.366667
 20
61.354293
 30
0.0
 10
97.366667
 20
61.354293
 30
0.0
  0
LWPOLYLINE
  5
344
100
AcDbEntity
  8
0
 62
7
100
AcDbPolyline
 90
2
 70
0
 10
90.491908
 20
130.137137
 30
0.0
 10
97.670939
 20
130.137137
 30
0.0
  0
LWPOLYLINE
  5
345
100
AcDbEntity
  8
0
 62
7
100
AcDbPolyline
 90
2
 70
0
 10
97.670939
 20
115.743804
 30
0.0
 10
112.471065
 20
115.743804
 30
0.0
  0
LWPOLYLINE
  5
346
100
AcDbEntity
  8
0
 62
7
100
AcDbPolyline
 90
2
 70
0
 10
122.868092
 20
115.743804
 30
0.0
 10
137.668223
 20
115.743804
 30
0.0
  0
LWPOLYLINE
  5
347
100
AcDbEntity
  8
0
 62
7
100
AcDbPolyline
 90
4
 70
0
 10
112.471065
 20
115.743804
 30
0.0
 10
112.471065
 20
123.736427
 30
0.0
 10
122.868092
 20
123.736427
 30
0.0
 10
122.868092
 20
115.743804
 30
0.0
  0
LWPOLYLINE
  5
348
100
AcDbEntity
  8
0
 62
7
100
AcDbPolyline
 90
2
 70
0
 10
97.670939
 20
21.391180
 30
0.0
 10
90.491908
 20
21.391180
 30
0.0
  0
LWPOLYLINE
  5
349
100
AcDbEntity
  8
0
 62
7
100
AcDbPolyline
 90
4
 70
0
 10
112.471065
 20
27.791893
 30
0.0
 10
122.868092
 20
27.791893
 30
0.0
 10
122.868092
 20
35.784513
 30
0.0
 10
137.668223
 20
35.784513
 30
0.0
  0
LWPOLYLINE
  5
34a
100
AcDbEntity
  8
0
 62
7
100
AcDbPolyline
 90
3
 70
0
 10
97.670939
 20
35.784513
 30
0.0
 10
112.471065
 20
35.784513
 30
0.0
 10
112.471065
 20
27.791893
 30
0.0
  0
LWPOLYLINE
  5
34b
100
AcDbEntity
  8
0
 62
7
100
AcDbPolyline
 90
62
 70
0
 10
90.491908
 20
130.137137
 30
0.0
 10
88.087510
 20
128.883675
 30
0.0
 10
85.750352
 20
127.495715
 30
0.0
 10
83.481556
 20
126.039403
 30
0.0
 10
81.280000
 20
124.481669
 30
0.0
 10
79.146801
 20
122.822510
 30
0.0
 10
77.113912
 20
121.060828
 30
0.0
 10
75.116315
 20
119.197721
 30
0.0
 10
73.220134
 20
117.267363
 30
0.0
 10
71.424272
 20
115.269761
 30
0.0
 10
69.730939
 20
113.169629
 30
0.0
 10
68.105954
 20
111.002250
 30
0.0
 10
66.582394
 20
108.767623
 30
0.0
 10
65.193333
 20
106.430470
 30
0.0
 10
63.872621
 20
104.093318
 30
0.0
 10
62.687508
 20
101.655843
 30
0.0
 10
61.569645
 20
99.183097
 30
0.0
 10
60.587379
 20
96.677268
 30
0.0
 10
59.740713
 20
94.103097
 30
0.0
 10
58.995468
 20
91.495843
 30
0.0
 10
57.708933
 20
90.546648
 30
0.0
 10
56.523819
 20
89.462963
 30
0.0
 10
55.440131
 20
88.277847
 30
0.0
 10
54.423688
 20
87.024388
 30
0.0
 10
53.542847
 20
85.670602
 30
0.0
 10
52.764532
 20
84.281541
 30
0.0
 10
52.120713
 20
82.825226
 30
0.0
 10
51.612492
 20
81.301672
 30
0.0
 10
51.206798
 20
79.743935
 30
0.0
 10
50.935599
 20
78.152024
 30
0.0
 10
50.800000
 20
76.560116
 30
0.0
 10
50.800000
 20
74.968207
 30
0.0
 10
50.935599
 20
73.343222
 30
0.0
 10
51.206798
 20
71.784388
 30
0.0
 10
51.612492
 20
70.226648
 30
0.0
 10
52.120713
 20
68.703097
 30
0.0
 10
52.764532
 20
67.246782
 30
0.0
 10
53.542847
 20
65.824648
 30
0.0
 10
54.423688
 20
64.503935
 30
0.0
 10
55.440131
 20
63.216296
 30
0.0
 10
56.523819
 20
62.065357
 30
0.0
 10
57.708933
 20
60.981672
 30
0.0
 10
58.995468
 20
59.999403
 30
0.0
 10
59.740713
 20
57.425226
 30
0.0
 10
60.621553
 20
54.851054
 30
0.0
 10
61.603819
 20
52.345226
 30
0.0
 10
62.687508
 20
49.873583
 30
0.0
 10
63.906798
 20
47.435005
 30
0.0
 10
65.227508
 20
45.097847
 30
0.0
 10
66.615468
 20
42.794874
 30
0.0
 10
68.140134
 20
40.560250
 30
0.0
 10
69.765110
 20
38.392870
 30
0.0
 10
71.458444
 20
36.292736
 30
0.0
 10
73.253199
 20
34.260959
 30
0.0
 10
75.150486
 20
32.330602
 30
0.0
 10
77.113912
 20
30.501672
 30
0.0
 10
79.179866
 20
28.739981
 30
0.0
 10
81.314177
 20
27.046648
 30
0.0
 10
83.515728
 20
25.488917
 30
0.0
 10
85.784532
 20
24.032605
 30
0.0
 10
88.087510
 20
22.644648
 30
0.0
 10
90.491908
 20
21.391180
 30
0.0
  0
LWPOLYLINE
  5
34c
100
AcDbEntity
  8
0
 62
7
100
AcDbPolyline
 90
49
 70
0
 10
144.881425
 20
21.391180
 30
0.0
 10
147.354177
 20
22.711893
 30
0.0
 10
149.758575
 20
24.134027
 30
0.0
 10
152.095728
 20
25.658691
 30
0.0
 10
154.397606
 20
27.283675
 30
0.0
 10
156.566088
 20
29.045357
 30
0.0
 10
158.699287
 20
30.874293
 30
0.0
 10
160.731065
 20
32.837721
 30
0.0
 10
162.661425
 20
34.870602
 30
0.0
 10
164.490352
 20
36.969629
 30
0.0
 10
166.217865
 20
39.171180
 30
0.0
 10
167.877019
 20
41.439981
 30
0.0
 10
169.400578
 20
43.811314
 30
0.0
 10
170.823819
 20
46.215718
 30
0.0
 10
172.110352
 20
48.687361
 30
0.0
 10
173.295468
 20
51.227361
 30
0.0
 10
174.379156
 20
53.835718
 30
0.0
 10
175.327245
 20
56.477134
 30
0.0
 10
176.173912
 20
59.152736
 30
0.0
 10
176.851908
 20
61.862510
 30
0.0
 10
177.427379
 20
64.605357
 30
0.0
 10
177.901425
 20
67.382384
 30
0.0
 10
178.206801
 20
70.159403
 30
0.0
 10
178.409648
 20
72.936430
 30
0.0
 10
178.476893
 20
75.747626
 30
0.0
 10
178.409648
 20
78.557721
 30
0.0
 10
178.206801
 20
81.368917
 30
0.0
 10
177.901425
 20
84.145938
 30
0.0
 10
177.427379
 20
86.922963
 30
0.0
 10
176.851908
 20
89.666916
 30
0.0
 10
176.173912
 20
92.375584
 30
0.0
 10
175.327245
 20
95.051180
 30
0.0
 10
174.379156
 20
97.692605
 30
0.0
 10
173.295468
 20
100.266782
 30
0.0
 10
172.110352
 20
102.806782
 30
0.0
 10
170.823819
 20
105.279534
 30
0.0
 10
169.400578
 20
107.717009
 30
0.0
 10
167.877019
 20
110.054161
 30
0.0
 10
166.217865
 20
112.357137
 30
0.0
 10
164.490352
 20
114.524516
 30
0.0
 10
162.661425
 20
116.657721
 30
0.0
 10
160.731065
 20
118.690602
 30
0.0
 10
158.699287
 20
120.620957
 30
0.0
 10
156.566088
 20
122.482963
 30
0.0
 10
154.397606
 20
124.210470
 30
0.0
 10
152.095728
 20
125.869629
 30
0.0
 10
149.758575
 20
127.394290
 30
0.0
 10
147.354177
 20
128.816427
 30
0.0
 10
144.881425
 20
130.137137
 30
0.0
  0
LWPOLYLINE
  5
34d
100
AcDbEntity
  8
0
 62
7
100
AcDbPolyline
 90
2
 70
0
 10
97.670939
 20
115.743804
 30
0.0
 10
97.670939
 20
130.137137
 30
0.0
  0
LWPOLYLINE
  5
34e
100
AcDbEntity
  8
0
 62
7
100
AcDbPolyline
 90
3
 70
0
 10
137.668223
 20
115.743804
 30
0.0
 10
137.668223
 20
130.137137
 30
0.0
 10
144.881425
 20
130.137137
 30
0.0
  0
LWPOLYLINE
  5
34f
100
AcDbEntity
  8
0
 62
7
100
AcDbPolyline
 90
2
 70
0
 10
97.670939
 20
21.391180
 30
0.0
 10
97.670939
 20
35.784513
 30
0.0
  0
LWPOLYLINE
  5
350
100
AcDbEntity
  8
0
 62
7
100
AcDbPolyline
 90
3
 70
0
 10
137.668223
 20
35.784513
 30
0.0
 10
137.668223
 20
21.391180
 30
0.0
 10
144.881425
 20
21.391180
 30
0.0
  0
ENDSEC
  0
SECTION
  2
OBJECTS
  0
DICTIONARY
  5
C
330
0
100
AcDbDictionary
  3
ACAD_GROUP
350
D
  3
ACAD_MLINESTYLE
350
17
  0
DICTIONARY
  5
D
330
C
100
AcDbDictionary
  0
DICTIONARY
  5
1A
330
C
100
AcDbDictionary
  0
DICTIONARY
  5
17
330
C
100
AcDbDictionary
  3
STANDARD
350
18
  0
DICTIONARY
  5
19
330
C
100
AcDbDictionary
  0
ENDSEC
  0
EOF
