G75*
%MOIN*%
%OFA0B0*%
%FSLAX24Y24*%
%IPPOS*%
%LPD*%
%AMOC8*
5,1,8,0,0,1.08239X$1,22.5*
%
%ADD10C,0.2756*%
%ADD11C,0.0630*%
%ADD12C,0.0100*%
%ADD13C,0.2362*%
D10*
X004874Y003300D03*
X004874Y007237D03*
X008811Y007237D03*
X008811Y003300D03*
D11*
X007351Y023378D03*
X006351Y023378D03*
D12*
X001661Y004415D02*
X001904Y004275D01*
X002175Y004203D01*
X002315Y004193D01*
X002612Y004193D01*
X002795Y004117D01*
X002936Y003977D01*
X003012Y003793D01*
X003012Y001437D01*
X010674Y001437D01*
X010674Y003793D01*
X010750Y003977D01*
X010890Y004117D01*
X011074Y004193D01*
X011370Y004193D01*
X011511Y004203D01*
X011782Y004275D01*
X012025Y004415D01*
X012223Y004614D01*
X012363Y004857D01*
X012436Y005128D01*
X012436Y005408D01*
X012363Y005679D01*
X012223Y005922D01*
X012025Y006121D01*
X011782Y006261D01*
X011511Y006334D01*
X011370Y006343D01*
X011074Y006343D01*
X010890Y006419D01*
X010750Y006560D01*
X010674Y006743D01*
X010674Y009599D01*
X007023Y009599D01*
X007023Y003225D01*
X006917Y003120D01*
X006382Y003120D01*
X006382Y003101D01*
X006280Y002718D01*
X006081Y002374D01*
X005800Y002093D01*
X005456Y001894D01*
X005073Y001792D01*
X004676Y001792D01*
X004292Y001894D01*
X003949Y002093D01*
X003668Y002374D01*
X003469Y002718D01*
X003366Y003101D01*
X003366Y003498D01*
X003469Y003882D01*
X003668Y004226D01*
X003949Y004506D01*
X004292Y004705D01*
X004676Y004808D01*
X005073Y004808D01*
X005456Y004705D01*
X005800Y004506D01*
X006081Y004226D01*
X006280Y003882D01*
X006382Y003498D01*
X006382Y003480D01*
X006663Y003480D01*
X006663Y009599D01*
X003012Y009599D01*
X003012Y006743D01*
X002936Y006560D01*
X002795Y006419D01*
X002612Y006343D01*
X002315Y006343D01*
X002175Y006334D01*
X001904Y006261D01*
X001661Y006121D01*
X001463Y005922D01*
X001322Y005679D01*
X001250Y005408D01*
X001250Y005128D01*
X001322Y004857D01*
X001463Y004614D01*
X001661Y004415D01*
X001714Y004385D02*
X003827Y004385D01*
X003729Y004286D02*
X001884Y004286D01*
X001593Y004483D02*
X003926Y004483D01*
X004080Y004582D02*
X001495Y004582D01*
X001424Y004680D02*
X004250Y004680D01*
X004569Y004779D02*
X001367Y004779D01*
X001317Y004877D02*
X006663Y004877D01*
X006663Y004779D02*
X005180Y004779D01*
X005499Y004680D02*
X006663Y004680D01*
X006663Y004582D02*
X005669Y004582D01*
X005823Y004483D02*
X006663Y004483D01*
X006663Y004385D02*
X005922Y004385D01*
X006020Y004286D02*
X006663Y004286D01*
X006663Y004188D02*
X006103Y004188D01*
X006160Y004089D02*
X006663Y004089D01*
X006663Y003991D02*
X006217Y003991D01*
X006273Y003892D02*
X006663Y003892D01*
X006663Y003794D02*
X006303Y003794D01*
X006330Y003695D02*
X006663Y003695D01*
X006663Y003597D02*
X006356Y003597D01*
X006382Y003498D02*
X006663Y003498D01*
X006843Y003300D02*
X004874Y003300D01*
X004556Y001824D02*
X003012Y001824D01*
X003012Y001922D02*
X004244Y001922D01*
X004073Y002021D02*
X003012Y002021D01*
X003012Y002119D02*
X003922Y002119D01*
X003824Y002218D02*
X003012Y002218D01*
X003012Y002316D02*
X003725Y002316D01*
X003644Y002415D02*
X003012Y002415D01*
X003012Y002513D02*
X003587Y002513D01*
X003530Y002612D02*
X003012Y002612D01*
X003012Y002710D02*
X003473Y002710D01*
X003445Y002809D02*
X003012Y002809D01*
X003012Y002907D02*
X003418Y002907D01*
X003392Y003006D02*
X003012Y003006D01*
X003012Y003104D02*
X003366Y003104D01*
X003366Y003203D02*
X003012Y003203D01*
X003012Y003301D02*
X003366Y003301D01*
X003366Y003400D02*
X003012Y003400D01*
X003012Y003498D02*
X003367Y003498D01*
X003393Y003597D02*
X003012Y003597D01*
X003012Y003695D02*
X003419Y003695D01*
X003446Y003794D02*
X003012Y003794D01*
X002971Y003892D02*
X003475Y003892D01*
X003532Y003991D02*
X002922Y003991D01*
X002823Y004089D02*
X003589Y004089D01*
X003646Y004188D02*
X002625Y004188D01*
X001725Y006158D02*
X003821Y006158D01*
X003919Y006059D02*
X001600Y006059D01*
X001501Y005961D02*
X004068Y005961D01*
X003949Y006030D02*
X004292Y005831D01*
X004676Y005729D01*
X005073Y005729D01*
X005456Y005831D01*
X005800Y006030D01*
X006081Y006311D01*
X006280Y006655D01*
X006382Y007038D01*
X006382Y007435D01*
X006280Y007819D01*
X006081Y008163D01*
X005800Y008443D01*
X005456Y008642D01*
X005073Y008745D01*
X004676Y008745D01*
X004292Y008642D01*
X003949Y008443D01*
X003668Y008163D01*
X003469Y007819D01*
X003366Y007435D01*
X003366Y007038D01*
X003469Y006655D01*
X003668Y006311D01*
X003949Y006030D01*
X003722Y006256D02*
X001896Y006256D01*
X001428Y005862D02*
X004239Y005862D01*
X004544Y005764D02*
X001371Y005764D01*
X001319Y005665D02*
X006663Y005665D01*
X006663Y005567D02*
X001292Y005567D01*
X001266Y005468D02*
X006663Y005468D01*
X006663Y005370D02*
X001250Y005370D01*
X001250Y005271D02*
X006663Y005271D01*
X006663Y005173D02*
X001250Y005173D01*
X001264Y005074D02*
X006663Y005074D01*
X006663Y004976D02*
X001290Y004976D01*
X002641Y006355D02*
X003642Y006355D01*
X003585Y006453D02*
X002830Y006453D01*
X002928Y006552D02*
X003528Y006552D01*
X003472Y006650D02*
X002974Y006650D01*
X003012Y006749D02*
X003444Y006749D01*
X003418Y006847D02*
X003012Y006847D01*
X003012Y006946D02*
X003391Y006946D01*
X003366Y007044D02*
X003012Y007044D01*
X003012Y007143D02*
X003366Y007143D01*
X003366Y007241D02*
X003012Y007241D01*
X003012Y007340D02*
X003366Y007340D01*
X003367Y007438D02*
X003012Y007438D01*
X003012Y007537D02*
X003394Y007537D01*
X003420Y007635D02*
X003012Y007635D01*
X003012Y007734D02*
X003447Y007734D01*
X003477Y007832D02*
X003012Y007832D01*
X003012Y007931D02*
X003534Y007931D01*
X003591Y008029D02*
X003012Y008029D01*
X003012Y008128D02*
X003648Y008128D01*
X003732Y008226D02*
X003012Y008226D01*
X003012Y008325D02*
X003830Y008325D01*
X003929Y008423D02*
X003012Y008423D01*
X003012Y008522D02*
X004085Y008522D01*
X004255Y008620D02*
X003012Y008620D01*
X003012Y008719D02*
X004580Y008719D01*
X005169Y008719D02*
X006663Y008719D01*
X006663Y008817D02*
X003012Y008817D01*
X003012Y008916D02*
X006663Y008916D01*
X006663Y009014D02*
X003012Y009014D01*
X003012Y009113D02*
X006663Y009113D01*
X006663Y009211D02*
X003012Y009211D01*
X003012Y009310D02*
X006663Y009310D01*
X006663Y009408D02*
X003012Y009408D01*
X003012Y009507D02*
X006663Y009507D01*
X007023Y009507D02*
X010674Y009507D01*
X010674Y009408D02*
X007023Y009408D01*
X007023Y009310D02*
X010674Y009310D01*
X010674Y009211D02*
X007023Y009211D01*
X007023Y009113D02*
X010674Y009113D01*
X010674Y009014D02*
X007023Y009014D01*
X007023Y008916D02*
X010674Y008916D01*
X010674Y008817D02*
X007023Y008817D01*
X007023Y008719D02*
X008434Y008719D01*
X008440Y008721D02*
X008296Y008677D01*
X008157Y008620D01*
X008025Y008549D01*
X007900Y008465D01*
X007784Y008370D01*
X007678Y008264D01*
X007583Y008148D01*
X007499Y008023D01*
X007428Y007891D01*
X007371Y007752D01*
X007327Y007608D01*
X007298Y007461D01*
X007283Y007312D01*
X007283Y007287D01*
X008761Y007287D01*
X008761Y008765D01*
X008736Y008765D01*
X008587Y008750D01*
X008440Y008721D01*
X008159Y008620D02*
X007023Y008620D01*
X007023Y008522D02*
X007985Y008522D01*
X007849Y008423D02*
X007023Y008423D01*
X007023Y008325D02*
X007739Y008325D01*
X007647Y008226D02*
X007023Y008226D01*
X007023Y008128D02*
X007569Y008128D01*
X007504Y008029D02*
X007023Y008029D01*
X007023Y007931D02*
X007450Y007931D01*
X007404Y007832D02*
X007023Y007832D01*
X007023Y007734D02*
X007366Y007734D01*
X007336Y007635D02*
X007023Y007635D01*
X007023Y007537D02*
X007313Y007537D01*
X007296Y007438D02*
X007023Y007438D01*
X007023Y007340D02*
X007286Y007340D01*
X007283Y007187D02*
X007283Y007162D01*
X007298Y007012D01*
X007327Y006865D01*
X007371Y006721D01*
X007428Y006583D01*
X007499Y006450D01*
X007583Y006325D01*
X007678Y006209D01*
X007784Y006103D01*
X007900Y006008D01*
X008025Y005924D01*
X008157Y005854D01*
X008296Y005796D01*
X008440Y005753D01*
X008587Y005723D01*
X008736Y005709D01*
X008761Y005709D01*
X008761Y007187D01*
X007283Y007187D01*
X007285Y007143D02*
X007023Y007143D01*
X007023Y007241D02*
X008761Y007241D01*
X008761Y007287D02*
X008761Y007187D01*
X008861Y007187D01*
X008861Y005709D01*
X008886Y005709D01*
X009036Y005723D01*
X009183Y005753D01*
X009327Y005796D01*
X009465Y005854D01*
X009598Y005924D01*
X009723Y006008D01*
X009839Y006103D01*
X009945Y006209D01*
X010040Y006325D01*
X010124Y006450D01*
X010194Y006583D01*
X010252Y006721D01*
X010295Y006865D01*
X010325Y007012D01*
X010339Y007162D01*
X010339Y007187D01*
X008861Y007187D01*
X008861Y007287D01*
X008761Y007287D01*
X008761Y007340D02*
X008861Y007340D01*
X008861Y007287D02*
X008861Y008765D01*
X008886Y008765D01*
X009036Y008750D01*
X009183Y008721D01*
X009327Y008677D01*
X009465Y008620D01*
X009598Y008549D01*
X009723Y008465D01*
X009839Y008370D01*
X009945Y008264D01*
X010040Y008148D01*
X010124Y008023D01*
X010194Y007891D01*
X010252Y007752D01*
X010295Y007608D01*
X010325Y007461D01*
X010339Y007312D01*
X010339Y007287D01*
X008861Y007287D01*
X008861Y007241D02*
X010674Y007241D01*
X010674Y007143D02*
X010338Y007143D01*
X010328Y007044D02*
X010674Y007044D01*
X010674Y006946D02*
X010311Y006946D01*
X010290Y006847D02*
X010674Y006847D01*
X010674Y006749D02*
X010260Y006749D01*
X010222Y006650D02*
X010712Y006650D01*
X010758Y006552D02*
X010178Y006552D01*
X010125Y006453D02*
X010856Y006453D01*
X011045Y006355D02*
X010060Y006355D01*
X009984Y006256D02*
X011790Y006256D01*
X011961Y006158D02*
X009894Y006158D01*
X009786Y006059D02*
X012086Y006059D01*
X012185Y005961D02*
X009652Y005961D01*
X009482Y005862D02*
X012258Y005862D01*
X012315Y005764D02*
X009220Y005764D01*
X008861Y005764D02*
X008761Y005764D01*
X008761Y005862D02*
X008861Y005862D01*
X008861Y005961D02*
X008761Y005961D01*
X008761Y006059D02*
X008861Y006059D01*
X008861Y006158D02*
X008761Y006158D01*
X008761Y006256D02*
X008861Y006256D01*
X008861Y006355D02*
X008761Y006355D01*
X008761Y006453D02*
X008861Y006453D01*
X008861Y006552D02*
X008761Y006552D01*
X008761Y006650D02*
X008861Y006650D01*
X008861Y006749D02*
X008761Y006749D01*
X008761Y006847D02*
X008861Y006847D01*
X008861Y006946D02*
X008761Y006946D01*
X008761Y007044D02*
X008861Y007044D01*
X008861Y007143D02*
X008761Y007143D01*
X008811Y007237D02*
X010386Y007237D01*
X010386Y020229D01*
X010674Y020243D02*
X007023Y020243D01*
X007023Y020145D02*
X010674Y020145D01*
X010674Y020046D02*
X007023Y020046D01*
X007023Y019948D02*
X010674Y019948D01*
X010674Y019849D02*
X007023Y019849D01*
X007023Y019835D02*
X007023Y023049D01*
X007048Y023024D01*
X007107Y022981D01*
X007172Y022947D01*
X007242Y022925D01*
X007314Y022913D01*
X007322Y022913D01*
X007322Y023350D01*
X007380Y023350D01*
X007380Y023407D01*
X007816Y023407D01*
X007816Y023415D01*
X007804Y023487D01*
X007782Y023557D01*
X007748Y023622D01*
X007705Y023681D01*
X007654Y023733D01*
X007594Y023776D01*
X007529Y023809D01*
X007460Y023832D01*
X007387Y023843D01*
X007380Y023843D01*
X007380Y023407D01*
X007322Y023407D01*
X007322Y023843D01*
X007314Y023843D01*
X007242Y023832D01*
X007172Y023809D01*
X007107Y023776D01*
X007048Y023733D01*
X006996Y023681D01*
X006953Y023622D01*
X006920Y023557D01*
X006920Y023556D01*
X006917Y023558D01*
X006758Y023558D01*
X006728Y023630D01*
X006603Y023756D01*
X006439Y023823D01*
X006262Y023823D01*
X006099Y023756D01*
X005974Y023630D01*
X005906Y023467D01*
X005906Y023290D01*
X005974Y023126D01*
X006099Y023001D01*
X006262Y022933D01*
X006439Y022933D01*
X006603Y023001D01*
X006663Y023061D01*
X006663Y019835D01*
X003012Y019835D01*
X003012Y022297D01*
X002936Y022480D01*
X002795Y022621D01*
X002612Y022697D01*
X002315Y022697D01*
X002175Y022706D01*
X001904Y022779D01*
X001661Y022919D01*
X001463Y023118D01*
X001322Y023361D01*
X001250Y023632D01*
X001250Y023912D01*
X001322Y024183D01*
X001463Y024426D01*
X001661Y024625D01*
X001904Y024765D01*
X002175Y024838D01*
X002315Y024847D01*
X002612Y024847D01*
X002795Y024923D01*
X002936Y025064D01*
X003012Y025247D01*
X003012Y027315D01*
X003018Y027404D01*
X003064Y027576D01*
X003153Y027730D01*
X003279Y027856D01*
X003433Y027945D01*
X003604Y027991D01*
X003693Y027996D01*
X009993Y027996D01*
X010081Y027991D01*
X010253Y027945D01*
X010407Y027856D01*
X010533Y027730D01*
X010622Y027576D01*
X010668Y027404D01*
X010674Y027315D01*
X010674Y025247D01*
X010750Y025064D01*
X010890Y024923D01*
X011074Y024847D01*
X011370Y024847D01*
X011511Y024838D01*
X011782Y024765D01*
X012025Y024625D01*
X012223Y024426D01*
X012363Y024183D01*
X012436Y023912D01*
X012436Y023632D01*
X012363Y023361D01*
X012223Y023118D01*
X012025Y022919D01*
X011782Y022779D01*
X011511Y022706D01*
X011370Y022697D01*
X011074Y022697D01*
X010890Y022621D01*
X010750Y022480D01*
X010674Y022297D01*
X010674Y019835D01*
X007023Y019835D01*
X006663Y019849D02*
X003012Y019849D01*
X003012Y019948D02*
X006663Y019948D01*
X006663Y020046D02*
X003012Y020046D01*
X003012Y020145D02*
X006663Y020145D01*
X006663Y020243D02*
X003012Y020243D01*
X003012Y020342D02*
X006663Y020342D01*
X006663Y020440D02*
X003012Y020440D01*
X003012Y020539D02*
X006663Y020539D01*
X006663Y020637D02*
X003012Y020637D01*
X003012Y020736D02*
X006663Y020736D01*
X006663Y020834D02*
X003012Y020834D01*
X003012Y020933D02*
X006663Y020933D01*
X006663Y021031D02*
X003012Y021031D01*
X003012Y021130D02*
X006663Y021130D01*
X006663Y021228D02*
X003012Y021228D01*
X003012Y021327D02*
X006663Y021327D01*
X006663Y021425D02*
X003012Y021425D01*
X003012Y021524D02*
X006663Y021524D01*
X006663Y021622D02*
X003012Y021622D01*
X003012Y021721D02*
X006663Y021721D01*
X006663Y021819D02*
X003012Y021819D01*
X003012Y021918D02*
X006663Y021918D01*
X006663Y022016D02*
X003012Y022016D01*
X003012Y022115D02*
X006663Y022115D01*
X006663Y022213D02*
X003012Y022213D01*
X003006Y022312D02*
X006663Y022312D01*
X006663Y022410D02*
X002965Y022410D01*
X002908Y022509D02*
X006663Y022509D01*
X006663Y022607D02*
X002809Y022607D01*
X002182Y022706D02*
X006663Y022706D01*
X006663Y022804D02*
X001860Y022804D01*
X001689Y022903D02*
X006663Y022903D01*
X006663Y023001D02*
X006603Y023001D01*
X006843Y023378D02*
X006351Y023378D01*
X006521Y023789D02*
X007133Y023789D01*
X007006Y023691D02*
X006667Y023691D01*
X006744Y023592D02*
X006938Y023592D01*
X006843Y023378D02*
X006843Y003300D01*
X007023Y003301D02*
X007303Y003301D01*
X007303Y003203D02*
X007001Y003203D01*
X007023Y003400D02*
X007303Y003400D01*
X007303Y003498D02*
X007303Y003101D01*
X007406Y002718D01*
X007605Y002374D01*
X007886Y002093D01*
X008229Y001894D01*
X008613Y001792D01*
X009010Y001792D01*
X009393Y001894D01*
X009737Y002093D01*
X010018Y002374D01*
X010217Y002718D01*
X010319Y003101D01*
X010319Y003498D01*
X010217Y003882D01*
X010018Y004226D01*
X009737Y004506D01*
X009393Y004705D01*
X009010Y004808D01*
X008613Y004808D01*
X008229Y004705D01*
X007886Y004506D01*
X007605Y004226D01*
X007406Y003882D01*
X007303Y003498D01*
X007304Y003498D02*
X007023Y003498D01*
X007023Y003597D02*
X007330Y003597D01*
X007356Y003695D02*
X007023Y003695D01*
X007023Y003794D02*
X007383Y003794D01*
X007412Y003892D02*
X007023Y003892D01*
X007023Y003991D02*
X007469Y003991D01*
X007526Y004089D02*
X007023Y004089D01*
X007023Y004188D02*
X007583Y004188D01*
X007666Y004286D02*
X007023Y004286D01*
X007023Y004385D02*
X007764Y004385D01*
X007863Y004483D02*
X007023Y004483D01*
X007023Y004582D02*
X008017Y004582D01*
X008187Y004680D02*
X007023Y004680D01*
X007023Y004779D02*
X008506Y004779D01*
X008403Y005764D02*
X007023Y005764D01*
X007023Y005862D02*
X008141Y005862D01*
X007970Y005961D02*
X007023Y005961D01*
X007023Y006059D02*
X007837Y006059D01*
X007729Y006158D02*
X007023Y006158D01*
X007023Y006256D02*
X007639Y006256D01*
X007563Y006355D02*
X007023Y006355D01*
X007023Y006453D02*
X007498Y006453D01*
X007445Y006552D02*
X007023Y006552D01*
X007023Y006650D02*
X007400Y006650D01*
X007363Y006749D02*
X007023Y006749D01*
X007023Y006847D02*
X007333Y006847D01*
X007311Y006946D02*
X007023Y006946D01*
X007023Y007044D02*
X007295Y007044D01*
X006663Y007044D02*
X006382Y007044D01*
X006382Y007143D02*
X006663Y007143D01*
X006663Y007241D02*
X006382Y007241D01*
X006382Y007340D02*
X006663Y007340D01*
X006663Y007438D02*
X006381Y007438D01*
X006355Y007537D02*
X006663Y007537D01*
X006663Y007635D02*
X006329Y007635D01*
X006302Y007734D02*
X006663Y007734D01*
X006663Y007832D02*
X006272Y007832D01*
X006215Y007931D02*
X006663Y007931D01*
X006663Y008029D02*
X006158Y008029D01*
X006101Y008128D02*
X006663Y008128D01*
X006663Y008226D02*
X006017Y008226D01*
X005919Y008325D02*
X006663Y008325D01*
X006663Y008423D02*
X005820Y008423D01*
X005664Y008522D02*
X006663Y008522D01*
X006663Y008620D02*
X005493Y008620D01*
X006358Y006946D02*
X006663Y006946D01*
X006663Y006847D02*
X006331Y006847D01*
X006305Y006749D02*
X006663Y006749D01*
X006663Y006650D02*
X006277Y006650D01*
X006220Y006552D02*
X006663Y006552D01*
X006663Y006453D02*
X006163Y006453D01*
X006107Y006355D02*
X006663Y006355D01*
X006663Y006256D02*
X006027Y006256D01*
X005928Y006158D02*
X006663Y006158D01*
X006663Y006059D02*
X005830Y006059D01*
X005681Y005961D02*
X006663Y005961D01*
X006663Y005862D02*
X005510Y005862D01*
X005204Y005764D02*
X006663Y005764D01*
X007023Y005665D02*
X012367Y005665D01*
X012394Y005567D02*
X007023Y005567D01*
X007023Y005468D02*
X012420Y005468D01*
X012436Y005370D02*
X007023Y005370D01*
X007023Y005271D02*
X012436Y005271D01*
X012436Y005173D02*
X007023Y005173D01*
X007023Y005074D02*
X012422Y005074D01*
X012395Y004976D02*
X007023Y004976D01*
X007023Y004877D02*
X012369Y004877D01*
X012318Y004779D02*
X009117Y004779D01*
X009436Y004680D02*
X012262Y004680D01*
X012191Y004582D02*
X009606Y004582D01*
X009760Y004483D02*
X012093Y004483D01*
X011972Y004385D02*
X009859Y004385D01*
X009957Y004286D02*
X011801Y004286D01*
X011061Y004188D02*
X010040Y004188D01*
X010097Y004089D02*
X010863Y004089D01*
X010764Y003991D02*
X010154Y003991D01*
X010210Y003892D02*
X010715Y003892D01*
X010674Y003794D02*
X010240Y003794D01*
X010267Y003695D02*
X010674Y003695D01*
X010674Y003597D02*
X010293Y003597D01*
X010319Y003498D02*
X010674Y003498D01*
X010674Y003400D02*
X010319Y003400D01*
X010319Y003301D02*
X010674Y003301D01*
X010674Y003203D02*
X010319Y003203D01*
X010319Y003104D02*
X010674Y003104D01*
X010674Y003006D02*
X010294Y003006D01*
X010267Y002907D02*
X010674Y002907D01*
X010674Y002809D02*
X010241Y002809D01*
X010212Y002710D02*
X010674Y002710D01*
X010674Y002612D02*
X010156Y002612D01*
X010099Y002513D02*
X010674Y002513D01*
X010674Y002415D02*
X010042Y002415D01*
X009961Y002316D02*
X010674Y002316D01*
X010674Y002218D02*
X009862Y002218D01*
X009764Y002119D02*
X010674Y002119D01*
X010674Y002021D02*
X009613Y002021D01*
X009442Y001922D02*
X010674Y001922D01*
X010674Y001824D02*
X009130Y001824D01*
X008493Y001824D02*
X005193Y001824D01*
X005505Y001922D02*
X008181Y001922D01*
X008010Y002021D02*
X005676Y002021D01*
X005827Y002119D02*
X007859Y002119D01*
X007761Y002218D02*
X005925Y002218D01*
X006024Y002316D02*
X007662Y002316D01*
X007581Y002415D02*
X006105Y002415D01*
X006162Y002513D02*
X007524Y002513D01*
X007467Y002612D02*
X006219Y002612D01*
X006275Y002710D02*
X007410Y002710D01*
X007382Y002809D02*
X006304Y002809D01*
X006330Y002907D02*
X007355Y002907D01*
X007329Y003006D02*
X006357Y003006D01*
X006382Y003104D02*
X007303Y003104D01*
X008761Y007438D02*
X008861Y007438D01*
X008861Y007537D02*
X008761Y007537D01*
X008761Y007635D02*
X008861Y007635D01*
X008861Y007734D02*
X008761Y007734D01*
X008761Y007832D02*
X008861Y007832D01*
X008861Y007931D02*
X008761Y007931D01*
X008761Y008029D02*
X008861Y008029D01*
X008861Y008128D02*
X008761Y008128D01*
X008761Y008226D02*
X008861Y008226D01*
X008861Y008325D02*
X008761Y008325D01*
X008761Y008423D02*
X008861Y008423D01*
X008861Y008522D02*
X008761Y008522D01*
X008761Y008620D02*
X008861Y008620D01*
X008861Y008719D02*
X008761Y008719D01*
X009189Y008719D02*
X010674Y008719D01*
X010674Y008620D02*
X009463Y008620D01*
X009638Y008522D02*
X010674Y008522D01*
X010674Y008423D02*
X009774Y008423D01*
X009884Y008325D02*
X010674Y008325D01*
X010674Y008226D02*
X009976Y008226D01*
X010054Y008128D02*
X010674Y008128D01*
X010674Y008029D02*
X010119Y008029D01*
X010173Y007931D02*
X010674Y007931D01*
X010674Y007832D02*
X010218Y007832D01*
X010257Y007734D02*
X010674Y007734D01*
X010674Y007635D02*
X010287Y007635D01*
X010310Y007537D02*
X010674Y007537D01*
X010674Y007438D02*
X010327Y007438D01*
X010337Y007340D02*
X010674Y007340D01*
X010674Y001725D02*
X003012Y001725D01*
X003012Y001627D02*
X010674Y001627D01*
X010674Y001528D02*
X003012Y001528D01*
X007023Y020342D02*
X010674Y020342D01*
X010674Y020440D02*
X007023Y020440D01*
X007023Y020539D02*
X010674Y020539D01*
X010674Y020637D02*
X007023Y020637D01*
X007023Y020736D02*
X010674Y020736D01*
X010674Y020834D02*
X007023Y020834D01*
X007023Y020933D02*
X010674Y020933D01*
X010674Y021031D02*
X007023Y021031D01*
X007023Y021130D02*
X010674Y021130D01*
X010674Y021228D02*
X007023Y021228D01*
X007023Y021327D02*
X010674Y021327D01*
X010674Y021425D02*
X007023Y021425D01*
X007023Y021524D02*
X010674Y021524D01*
X010674Y021622D02*
X007023Y021622D01*
X007023Y021721D02*
X010674Y021721D01*
X010674Y021819D02*
X007023Y021819D01*
X007023Y021918D02*
X010674Y021918D01*
X010674Y022016D02*
X007023Y022016D01*
X007023Y022115D02*
X010674Y022115D01*
X010674Y022213D02*
X007023Y022213D01*
X007023Y022312D02*
X010680Y022312D01*
X010721Y022410D02*
X007023Y022410D01*
X007023Y022509D02*
X010778Y022509D01*
X010877Y022607D02*
X007023Y022607D01*
X007023Y022706D02*
X011503Y022706D01*
X011826Y022804D02*
X007023Y022804D01*
X007023Y022903D02*
X011996Y022903D01*
X012107Y023001D02*
X007623Y023001D01*
X007594Y022981D02*
X007654Y023024D01*
X007705Y023075D01*
X007748Y023135D01*
X007782Y023200D01*
X007804Y023269D01*
X007816Y023342D01*
X007816Y023350D01*
X007380Y023350D01*
X007380Y022913D01*
X007387Y022913D01*
X007460Y022925D01*
X007529Y022947D01*
X007594Y022981D01*
X007723Y023100D02*
X012205Y023100D01*
X012270Y023198D02*
X007781Y023198D01*
X007809Y023297D02*
X012327Y023297D01*
X012373Y023395D02*
X007380Y023395D01*
X007380Y023297D02*
X007322Y023297D01*
X007322Y023198D02*
X007380Y023198D01*
X007380Y023100D02*
X007322Y023100D01*
X007322Y023001D02*
X007380Y023001D01*
X007380Y023494D02*
X007322Y023494D01*
X007322Y023592D02*
X007380Y023592D01*
X007380Y023691D02*
X007322Y023691D01*
X007322Y023789D02*
X007380Y023789D01*
X007568Y023789D02*
X012436Y023789D01*
X012436Y023691D02*
X007696Y023691D01*
X007764Y023592D02*
X012426Y023592D01*
X012399Y023494D02*
X007802Y023494D01*
X007078Y023001D02*
X007023Y023001D01*
X006098Y023001D02*
X001579Y023001D01*
X001480Y023100D02*
X006000Y023100D01*
X005944Y023198D02*
X001416Y023198D01*
X001359Y023297D02*
X005906Y023297D01*
X005906Y023395D02*
X001313Y023395D01*
X001287Y023494D02*
X005917Y023494D01*
X005958Y023592D02*
X001260Y023592D01*
X001250Y023691D02*
X006034Y023691D01*
X006181Y023789D02*
X001250Y023789D01*
X001250Y023888D02*
X012436Y023888D01*
X012416Y023986D02*
X001270Y023986D01*
X001296Y024085D02*
X012390Y024085D01*
X012363Y024183D02*
X001322Y024183D01*
X001379Y024282D02*
X012307Y024282D01*
X012250Y024380D02*
X001436Y024380D01*
X001515Y024479D02*
X012171Y024479D01*
X012072Y024577D02*
X001614Y024577D01*
X001750Y024676D02*
X011936Y024676D01*
X011747Y024774D02*
X001939Y024774D01*
X002675Y024873D02*
X011011Y024873D01*
X010842Y024971D02*
X002844Y024971D01*
X002939Y025070D02*
X010747Y025070D01*
X010706Y025168D02*
X002980Y025168D01*
X003012Y025267D02*
X010674Y025267D01*
X010674Y025365D02*
X003012Y025365D01*
X003012Y025464D02*
X010674Y025464D01*
X010674Y025562D02*
X003012Y025562D01*
X003012Y025661D02*
X010674Y025661D01*
X010674Y025759D02*
X003012Y025759D01*
X003012Y025858D02*
X010674Y025858D01*
X010674Y025956D02*
X003012Y025956D01*
X003012Y026055D02*
X010674Y026055D01*
X010674Y026153D02*
X003012Y026153D01*
X003012Y026252D02*
X010674Y026252D01*
X010674Y026350D02*
X003012Y026350D01*
X003012Y026449D02*
X010674Y026449D01*
X010674Y026547D02*
X003012Y026547D01*
X003012Y026646D02*
X010674Y026646D01*
X010674Y026744D02*
X003012Y026744D01*
X003012Y026843D02*
X010674Y026843D01*
X010674Y026941D02*
X003012Y026941D01*
X003012Y027040D02*
X010674Y027040D01*
X010674Y027138D02*
X003012Y027138D01*
X003012Y027237D02*
X010674Y027237D01*
X010672Y027335D02*
X003014Y027335D01*
X003026Y027434D02*
X010660Y027434D01*
X010633Y027532D02*
X003052Y027532D01*
X003096Y027631D02*
X010590Y027631D01*
X010533Y027729D02*
X003153Y027729D01*
X003251Y027828D02*
X010435Y027828D01*
X010285Y027926D02*
X003401Y027926D01*
D13*
X002315Y023772D03*
X002315Y005268D03*
X011370Y005268D03*
X011370Y023772D03*
M02*
