G04 (created by PCBNEW (2013-may-18)-stable) date Пт 28 авг 2015 20:38:37*
%MOIN*%
G04 Gerber Fmt 3.4, Leading zero omitted, Abs format*
%FSLAX34Y34*%
G01*
G70*
G90*
G04 APERTURE LIST*
%ADD10C,0.00590551*%
%ADD11C,0.0629921*%
%ADD12R,0.0314961X0.0551181*%
%ADD13C,0.0551181*%
%ADD14C,0.0590551*%
%ADD15C,0.019685*%
%ADD16C,0.0393701*%
G04 APERTURE END LIST*
G54D10*
G54D11*
X53962Y-27787D03*
X52962Y-27787D03*
X53962Y-36287D03*
X52962Y-36287D03*
G54D12*
X53905Y-53543D03*
X53000Y-53543D03*
X53000Y-55000D03*
X53905Y-55000D03*
X53094Y-10456D03*
X54000Y-10456D03*
X54000Y-9000D03*
X53094Y-9000D03*
G54D11*
X67037Y-27212D03*
X68037Y-27212D03*
X36500Y-31000D03*
X35500Y-31000D03*
X36500Y-29000D03*
X35500Y-29000D03*
X36500Y-30000D03*
X35500Y-30000D03*
X35500Y-34000D03*
X36500Y-34000D03*
X36500Y-32000D03*
X35500Y-32000D03*
X35500Y-33000D03*
X36500Y-33000D03*
X35500Y-35000D03*
X36500Y-35000D03*
G54D13*
X46061Y-24049D03*
X46061Y-25049D03*
X46061Y-26049D03*
X46061Y-27049D03*
X46061Y-28049D03*
X46061Y-29049D03*
X46061Y-30049D03*
X46061Y-31049D03*
X46061Y-32049D03*
X46061Y-33049D03*
X46061Y-34049D03*
X46061Y-35049D03*
X46061Y-36049D03*
X46061Y-37049D03*
X46061Y-38049D03*
X46061Y-39049D03*
X46061Y-40049D03*
X48061Y-40049D03*
X48061Y-39049D03*
X48061Y-38049D03*
X48061Y-37049D03*
X48061Y-36049D03*
X48061Y-35049D03*
X48061Y-34049D03*
X48061Y-33049D03*
X48061Y-32049D03*
X48061Y-31049D03*
X48061Y-30049D03*
X48061Y-29049D03*
X48061Y-28049D03*
X48061Y-27049D03*
X48061Y-26049D03*
X48061Y-25049D03*
X48061Y-24049D03*
G54D14*
X47250Y-41250D03*
X39750Y-37500D03*
X37750Y-40750D03*
X36000Y-47750D03*
X43250Y-31000D03*
X34250Y-32000D03*
X35500Y-23500D03*
X34250Y-27500D03*
X39750Y-36500D03*
X46000Y-23000D03*
X63500Y-18000D03*
X59250Y-20750D03*
X44500Y-31000D03*
X37750Y-32000D03*
X40250Y-30050D03*
X46250Y-41250D03*
X34000Y-35500D03*
X34500Y-39000D03*
X36750Y-43750D03*
X50500Y-34500D03*
X50500Y-36250D03*
X24500Y-27500D03*
X32400Y-43000D03*
X37100Y-40050D03*
X37850Y-34650D03*
X66000Y-23000D03*
X52250Y-38750D03*
X42750Y-41000D03*
X45250Y-19000D03*
X69500Y-50250D03*
X32500Y-13750D03*
X62500Y-37750D03*
X51750Y-27500D03*
X44750Y-44750D03*
X58500Y-27250D03*
X56750Y-34750D03*
X55750Y-34750D03*
X56750Y-29250D03*
X55750Y-29250D03*
X66500Y-30500D03*
X51500Y-34500D03*
X44881Y-46062D03*
X51500Y-28500D03*
X44750Y-17750D03*
X60250Y-16750D03*
X59400Y-46400D03*
X51181Y-41732D03*
X44881Y-47244D03*
X50000Y-26250D03*
X61750Y-19750D03*
X42500Y-23000D03*
X44000Y-20000D03*
X47750Y-20000D03*
X42500Y-34500D03*
X61750Y-44500D03*
X40250Y-42750D03*
X40250Y-40750D03*
X44750Y-16500D03*
X51500Y-26500D03*
X39000Y-38250D03*
X37750Y-32750D03*
X53250Y-34000D03*
X52200Y-35050D03*
X65500Y-48000D03*
X65250Y-41000D03*
X49850Y-30000D03*
X53250Y-30000D03*
X49850Y-40850D03*
X64250Y-18500D03*
X65250Y-28500D03*
X36750Y-16000D03*
X33000Y-29000D03*
G54D15*
X46799Y-25049D02*
X47250Y-25500D01*
X47250Y-25500D02*
X47250Y-28750D01*
X47250Y-28750D02*
X47250Y-41250D01*
X46061Y-25049D02*
X46799Y-25049D01*
X44500Y-22250D02*
X42000Y-22250D01*
X40750Y-36500D02*
X39750Y-37500D01*
X37750Y-40750D02*
X36000Y-42500D01*
X36000Y-42500D02*
X36000Y-43500D01*
X48500Y-22250D02*
X44500Y-22250D01*
X48450Y-25049D02*
X49000Y-24500D01*
X49000Y-24500D02*
X49000Y-22750D01*
X49000Y-22750D02*
X48500Y-22250D01*
X48061Y-25049D02*
X48450Y-25049D01*
X36000Y-43500D02*
X36000Y-47750D01*
X41500Y-35750D02*
X40750Y-36500D01*
X41500Y-22750D02*
X41500Y-35750D01*
X42000Y-22250D02*
X41500Y-22750D01*
X43250Y-31000D02*
X45300Y-33050D01*
X46060Y-33050D02*
X46061Y-33049D01*
X45300Y-33050D02*
X46060Y-33050D01*
X34250Y-24750D02*
X35500Y-23500D01*
X34250Y-27500D02*
X34250Y-24750D01*
X33250Y-33500D02*
X33250Y-33000D01*
X39250Y-37000D02*
X34500Y-37000D01*
X33750Y-36250D02*
X34250Y-36750D01*
X33750Y-36250D02*
X33250Y-35750D01*
X39750Y-36500D02*
X39250Y-37000D01*
X34500Y-37000D02*
X34250Y-36750D01*
X33250Y-35750D02*
X33250Y-33500D01*
X34250Y-32000D02*
X35500Y-32000D01*
X33250Y-33000D02*
X34250Y-32000D01*
X46000Y-23000D02*
X44500Y-24500D01*
X59250Y-20750D02*
X61750Y-20750D01*
X63500Y-19000D02*
X63500Y-18000D01*
X61750Y-20750D02*
X63500Y-19000D01*
X44500Y-24500D02*
X44500Y-31000D01*
X36500Y-32000D02*
X37750Y-32000D01*
X35650Y-36400D02*
X35250Y-36400D01*
X35050Y-34000D02*
X34650Y-34400D01*
X34650Y-34400D02*
X34650Y-34850D01*
X38750Y-35500D02*
X37850Y-36400D01*
X40250Y-30050D02*
X40250Y-30500D01*
X39000Y-35250D02*
X38750Y-35500D01*
X39000Y-35250D02*
X40250Y-34000D01*
X40250Y-34000D02*
X40250Y-31250D01*
X40250Y-31250D02*
X40250Y-30500D01*
X34650Y-35400D02*
X34650Y-34850D01*
X37850Y-36400D02*
X35650Y-36400D01*
X35050Y-34000D02*
X35500Y-34000D01*
X34650Y-35800D02*
X34650Y-35400D01*
X35250Y-36400D02*
X34650Y-35800D01*
X46750Y-33750D02*
X46750Y-30738D01*
X46250Y-41250D02*
X46750Y-40750D01*
X46750Y-33750D02*
X46750Y-40750D01*
X46750Y-30738D02*
X46061Y-30049D01*
X35500Y-33000D02*
X34750Y-33000D01*
X34500Y-39000D02*
X34750Y-39250D01*
X34000Y-34500D02*
X34000Y-35500D01*
X34000Y-33750D02*
X34000Y-34500D01*
X34750Y-33000D02*
X34000Y-33750D01*
X49250Y-38250D02*
X49250Y-31238D01*
X43500Y-41750D02*
X43500Y-40000D01*
X43500Y-42000D02*
X43500Y-41750D01*
X44500Y-43000D02*
X43500Y-42000D01*
X48000Y-43000D02*
X45750Y-43000D01*
X45750Y-43000D02*
X45250Y-43000D01*
X45250Y-43000D02*
X44500Y-43000D01*
X40500Y-39250D02*
X41000Y-39250D01*
X42750Y-39250D02*
X41000Y-39250D01*
X43500Y-40000D02*
X42750Y-39250D01*
X49250Y-41750D02*
X48000Y-43000D01*
X49250Y-41750D02*
X49250Y-38250D01*
X49250Y-31238D02*
X48061Y-30049D01*
X36750Y-43000D02*
X40500Y-39250D01*
X36750Y-43750D02*
X36750Y-43000D01*
X40500Y-39250D02*
X38000Y-39250D01*
X38000Y-39250D02*
X34750Y-39250D01*
X34750Y-39250D02*
X35000Y-39250D01*
X50500Y-36000D02*
X50500Y-36250D01*
X50500Y-34500D02*
X50500Y-36000D01*
X53000Y-53543D02*
X53000Y-54050D01*
X53905Y-54455D02*
X53905Y-55000D01*
X53700Y-54250D02*
X53905Y-54455D01*
X53200Y-54250D02*
X53700Y-54250D01*
X53000Y-54050D02*
X53200Y-54250D01*
X53905Y-55000D02*
X54300Y-55000D01*
X54500Y-50700D02*
X55650Y-49550D01*
X54500Y-54800D02*
X54500Y-50700D01*
X54300Y-55000D02*
X54500Y-54800D01*
X53094Y-9000D02*
X53094Y-9544D01*
X54000Y-9900D02*
X54000Y-10456D01*
X53850Y-9750D02*
X54000Y-9900D01*
X53300Y-9750D02*
X53850Y-9750D01*
X53094Y-9544D02*
X53300Y-9750D01*
X53094Y-9000D02*
X52650Y-9000D01*
X52400Y-9250D02*
X52400Y-13850D01*
X52650Y-9000D02*
X52400Y-9250D01*
G54D16*
X36500Y-35000D02*
X37500Y-35000D01*
X37500Y-35000D02*
X37850Y-34650D01*
G54D15*
X52500Y-26750D02*
X52500Y-25500D01*
X51750Y-27500D02*
X52500Y-26750D01*
X55750Y-34750D02*
X56750Y-34750D01*
X55750Y-29250D02*
X56750Y-29250D01*
X43250Y-21250D02*
X40250Y-21250D01*
X36500Y-34000D02*
X37750Y-34000D01*
X48200Y-27049D02*
X48061Y-27049D01*
X49000Y-21250D02*
X45500Y-21250D01*
X50000Y-22250D02*
X49000Y-21250D01*
X50000Y-25250D02*
X50000Y-22250D01*
X48200Y-27049D02*
X50000Y-25250D01*
X45500Y-21250D02*
X43250Y-21250D01*
X38750Y-34000D02*
X37750Y-34000D01*
X39250Y-33500D02*
X38750Y-34000D01*
X39250Y-22250D02*
X39250Y-25000D01*
X39250Y-25000D02*
X39250Y-33500D01*
X40250Y-21250D02*
X39250Y-22250D01*
X36350Y-35850D02*
X35750Y-35850D01*
X37650Y-35850D02*
X36350Y-35850D01*
X43500Y-21750D02*
X40500Y-21750D01*
X44000Y-21750D02*
X43500Y-21750D01*
X48061Y-26049D02*
X48200Y-26049D01*
X48750Y-21750D02*
X45000Y-21750D01*
X49500Y-22500D02*
X48750Y-21750D01*
X49500Y-24750D02*
X49500Y-22500D01*
X48200Y-26049D02*
X49500Y-24750D01*
X45000Y-21750D02*
X44000Y-21750D01*
X39000Y-34500D02*
X38250Y-35250D01*
X39750Y-33750D02*
X39000Y-34500D01*
X39750Y-22500D02*
X39750Y-33750D01*
X40500Y-21750D02*
X39750Y-22500D01*
X38250Y-35250D02*
X37650Y-35850D01*
X35500Y-35600D02*
X35500Y-35000D01*
X35750Y-35850D02*
X35500Y-35600D01*
X49250Y-29250D02*
X48261Y-29250D01*
X50000Y-29250D02*
X53500Y-29250D01*
X54750Y-30500D02*
X53500Y-29250D01*
X66500Y-30500D02*
X54750Y-30500D01*
X50000Y-29250D02*
X49250Y-29250D01*
X48261Y-29250D02*
X48061Y-29049D01*
X51500Y-34500D02*
X51500Y-40232D01*
X50852Y-40879D02*
X51300Y-40432D01*
X51500Y-40232D02*
X51300Y-40432D01*
X50841Y-40891D02*
X50852Y-40879D01*
X45669Y-46062D02*
X44881Y-46062D01*
X50841Y-40891D02*
X45669Y-46062D01*
X50852Y-40879D02*
X50841Y-40891D01*
X51000Y-25750D02*
X51000Y-21750D01*
X51000Y-21750D02*
X47000Y-17750D01*
X47000Y-17750D02*
X44750Y-17750D01*
X50750Y-26000D02*
X51000Y-25750D01*
X50750Y-27750D02*
X50750Y-26000D01*
X51500Y-28500D02*
X50750Y-27750D01*
X54700Y-14150D02*
X54700Y-14700D01*
X55750Y-15750D02*
X59250Y-15750D01*
X59250Y-15750D02*
X60250Y-16750D01*
X54450Y-9000D02*
X54700Y-9250D01*
X54700Y-9250D02*
X54700Y-14150D01*
X54450Y-9000D02*
X54000Y-9000D01*
X54700Y-14700D02*
X55750Y-15750D01*
X53000Y-55000D02*
X52600Y-55000D01*
X54750Y-46750D02*
X59000Y-46750D01*
X53250Y-48250D02*
X54750Y-46750D01*
X53250Y-52000D02*
X53250Y-48250D01*
X52500Y-52750D02*
X53250Y-52000D01*
X59000Y-46750D02*
X59050Y-46750D01*
X59050Y-46750D02*
X59400Y-46400D01*
X52350Y-52900D02*
X52500Y-52750D01*
X52350Y-54750D02*
X52350Y-52900D01*
X52600Y-55000D02*
X52350Y-54750D01*
X51181Y-41732D02*
X45669Y-47244D01*
X45669Y-47244D02*
X44881Y-47244D01*
X50000Y-26250D02*
X50000Y-26000D01*
X50000Y-26000D02*
X50500Y-25500D01*
X49250Y-20750D02*
X50500Y-22000D01*
X50500Y-22000D02*
X50500Y-25500D01*
X40000Y-20750D02*
X38750Y-22000D01*
X38750Y-22000D02*
X38750Y-32000D01*
X37500Y-33500D02*
X37000Y-33000D01*
X37000Y-33000D02*
X36500Y-33000D01*
X38750Y-32000D02*
X38750Y-33250D01*
X38500Y-33500D02*
X37500Y-33500D01*
X38750Y-33250D02*
X38500Y-33500D01*
X40000Y-20750D02*
X49250Y-20750D01*
X61750Y-19750D02*
X58250Y-16250D01*
X53094Y-11094D02*
X53094Y-10456D01*
X53094Y-11094D02*
X53250Y-11250D01*
X53250Y-11250D02*
X54000Y-12000D01*
X54000Y-12000D02*
X54000Y-14750D01*
X54000Y-14750D02*
X55500Y-16250D01*
X58250Y-16250D02*
X55500Y-16250D01*
X44000Y-20000D02*
X47750Y-20000D01*
X42500Y-29000D02*
X42500Y-32750D01*
X42500Y-29000D02*
X42500Y-23000D01*
X42500Y-34500D02*
X42500Y-32750D01*
X60250Y-47250D02*
X61250Y-46250D01*
X55000Y-47250D02*
X60250Y-47250D01*
X53905Y-48344D02*
X55000Y-47250D01*
X53905Y-48344D02*
X53905Y-53543D01*
X61750Y-45750D02*
X61250Y-46250D01*
X61750Y-44500D02*
X61750Y-45750D01*
X40250Y-40750D02*
X40250Y-42750D01*
X46500Y-16500D02*
X44750Y-16500D01*
X51500Y-21500D02*
X46500Y-16500D01*
X51500Y-26500D02*
X51500Y-21500D01*
X35500Y-30000D02*
X33600Y-30000D01*
X38200Y-38750D02*
X35500Y-38750D01*
X34350Y-37600D02*
X33250Y-36500D01*
X41250Y-38750D02*
X43000Y-38750D01*
X45500Y-42500D02*
X44750Y-42500D01*
X48299Y-38049D02*
X48061Y-38049D01*
X47750Y-42500D02*
X45750Y-42500D01*
X48750Y-41500D02*
X47750Y-42500D01*
X48750Y-38500D02*
X48750Y-41500D01*
X48299Y-38049D02*
X48750Y-38500D01*
X45750Y-42500D02*
X45500Y-42500D01*
X44750Y-42500D02*
X44000Y-41750D01*
X44000Y-41750D02*
X44000Y-41500D01*
X33250Y-36500D02*
X32750Y-36000D01*
X44000Y-39750D02*
X44000Y-41500D01*
X43000Y-38750D02*
X44000Y-39750D01*
X41250Y-38750D02*
X38200Y-38750D01*
X35500Y-38750D02*
X34350Y-37600D01*
X32750Y-36000D02*
X32750Y-32750D01*
X32750Y-30850D02*
X32750Y-32750D01*
X33600Y-30000D02*
X32750Y-30850D01*
X36500Y-29000D02*
X37700Y-29000D01*
X38350Y-32150D02*
X38350Y-30850D01*
X44500Y-39500D02*
X43250Y-38250D01*
X43250Y-38250D02*
X41500Y-38250D01*
X44500Y-41500D02*
X44500Y-41250D01*
X45000Y-42000D02*
X44500Y-41500D01*
X48061Y-41438D02*
X47500Y-42000D01*
X47500Y-42000D02*
X45750Y-42000D01*
X48061Y-41438D02*
X48061Y-40049D01*
X45750Y-42000D02*
X45000Y-42000D01*
X44500Y-41250D02*
X44500Y-39500D01*
X41500Y-38250D02*
X39000Y-38250D01*
X37750Y-32750D02*
X38350Y-32150D01*
X38350Y-29650D02*
X38350Y-30850D01*
X37700Y-29000D02*
X38350Y-29650D01*
X48061Y-39049D02*
X48061Y-40049D01*
X52200Y-35050D02*
X53250Y-34000D01*
G54D16*
X65500Y-41750D02*
X65500Y-41250D01*
X65500Y-48000D02*
X65500Y-41750D01*
X65500Y-41250D02*
X65250Y-41000D01*
G54D15*
X49850Y-30000D02*
X53250Y-30000D01*
X49850Y-40850D02*
X49850Y-30000D01*
G54D16*
X64750Y-19000D02*
X64750Y-28000D01*
X64750Y-19000D02*
X64250Y-18500D01*
X64750Y-28000D02*
X65250Y-28500D01*
X36750Y-27000D02*
X35500Y-28250D01*
X35500Y-28250D02*
X35500Y-29000D01*
X36750Y-24000D02*
X36750Y-27000D01*
X36750Y-16000D02*
X36750Y-24000D01*
X33000Y-29000D02*
X35500Y-29000D01*
G54D10*
G36*
X36561Y-35005D02*
X36505Y-35061D01*
X36500Y-35055D01*
X36494Y-35061D01*
X36438Y-35005D01*
X36444Y-35000D01*
X36438Y-34994D01*
X36494Y-34938D01*
X36500Y-34944D01*
X36505Y-34938D01*
X36561Y-34994D01*
X36555Y-35000D01*
X36561Y-35005D01*
X36561Y-35005D01*
G37*
G54D16*
X36561Y-35005D02*
X36505Y-35061D01*
X36500Y-35055D01*
X36494Y-35061D01*
X36438Y-35005D01*
X36444Y-35000D01*
X36438Y-34994D01*
X36494Y-34938D01*
X36500Y-34944D01*
X36505Y-34938D01*
X36561Y-34994D01*
X36555Y-35000D01*
X36561Y-35005D01*
G54D10*
G36*
X37836Y-34688D02*
X37762Y-34762D01*
X37405Y-35119D01*
X37404Y-34816D01*
X37351Y-34688D01*
X37750Y-34688D01*
X37836Y-34688D01*
X37836Y-34688D01*
G37*
G54D16*
X37836Y-34688D02*
X37762Y-34762D01*
X37405Y-35119D01*
X37404Y-34816D01*
X37351Y-34688D01*
X37750Y-34688D01*
X37836Y-34688D01*
G54D10*
G36*
X46122Y-24054D02*
X46066Y-24110D01*
X46061Y-24104D01*
X46055Y-24110D01*
X45999Y-24054D01*
X46005Y-24049D01*
X45999Y-24043D01*
X46055Y-23987D01*
X46061Y-23993D01*
X46066Y-23987D01*
X46122Y-24043D01*
X46116Y-24049D01*
X46122Y-24054D01*
X46122Y-24054D01*
G37*
G54D16*
X46122Y-24054D02*
X46066Y-24110D01*
X46061Y-24104D01*
X46055Y-24110D01*
X45999Y-24054D01*
X46005Y-24049D01*
X45999Y-24043D01*
X46055Y-23987D01*
X46061Y-23993D01*
X46066Y-23987D01*
X46122Y-24043D01*
X46116Y-24049D01*
X46122Y-24054D01*
G54D10*
G36*
X70649Y-49353D02*
X69038Y-50964D01*
X68943Y-50964D01*
X68943Y-27389D01*
X68942Y-27029D01*
X68806Y-26702D01*
X68612Y-26692D01*
X68093Y-27212D01*
X68612Y-27732D01*
X68806Y-27722D01*
X68943Y-27389D01*
X68943Y-50964D01*
X68557Y-50964D01*
X68557Y-27788D01*
X68037Y-27268D01*
X68031Y-27273D01*
X67976Y-27218D01*
X67981Y-27212D01*
X67976Y-27207D01*
X68031Y-27151D01*
X68037Y-27156D01*
X68557Y-26637D01*
X68547Y-26443D01*
X68214Y-26306D01*
X67854Y-26307D01*
X67536Y-26439D01*
X67218Y-26307D01*
X66858Y-26306D01*
X66525Y-26444D01*
X66270Y-26698D01*
X66132Y-27031D01*
X66131Y-27391D01*
X66269Y-27724D01*
X66523Y-27979D01*
X66856Y-28117D01*
X67216Y-28118D01*
X67536Y-27985D01*
X67860Y-28118D01*
X68220Y-28117D01*
X68547Y-27981D01*
X68557Y-27788D01*
X68557Y-50964D01*
X67385Y-50964D01*
X67385Y-30324D01*
X67251Y-29998D01*
X67002Y-29749D01*
X66676Y-29614D01*
X66324Y-29614D01*
X65998Y-29748D01*
X65936Y-29811D01*
X59075Y-29811D01*
X59075Y-24565D01*
X58892Y-24123D01*
X58555Y-23785D01*
X58113Y-23602D01*
X57636Y-23602D01*
X57194Y-23784D01*
X56856Y-24122D01*
X56673Y-24563D01*
X56673Y-25040D01*
X56855Y-25482D01*
X57192Y-25820D01*
X57634Y-26003D01*
X58111Y-26004D01*
X58553Y-25821D01*
X58891Y-25484D01*
X59074Y-25043D01*
X59075Y-24565D01*
X59075Y-29811D01*
X55035Y-29811D01*
X53987Y-28762D01*
X53882Y-28692D01*
X54141Y-28693D01*
X54474Y-28555D01*
X54729Y-28301D01*
X54867Y-27968D01*
X54868Y-27608D01*
X54730Y-27275D01*
X54476Y-27020D01*
X54143Y-26882D01*
X53783Y-26881D01*
X53462Y-27014D01*
X53143Y-26882D01*
X52783Y-26881D01*
X52450Y-27019D01*
X52195Y-27273D01*
X52057Y-27606D01*
X52057Y-27804D01*
X52002Y-27749D01*
X51676Y-27614D01*
X51588Y-27614D01*
X51438Y-27464D01*
X51438Y-27385D01*
X51675Y-27385D01*
X52001Y-27251D01*
X52250Y-27002D01*
X52385Y-26676D01*
X52385Y-26324D01*
X52251Y-25998D01*
X52188Y-25936D01*
X52188Y-21500D01*
X52136Y-21236D01*
X51987Y-21012D01*
X50413Y-19439D01*
X50413Y-14329D01*
X50231Y-13887D01*
X49893Y-13549D01*
X49452Y-13366D01*
X48974Y-13365D01*
X48533Y-13548D01*
X48195Y-13885D01*
X48012Y-14327D01*
X48011Y-14804D01*
X48194Y-15246D01*
X48531Y-15584D01*
X48972Y-15767D01*
X49450Y-15767D01*
X49891Y-15585D01*
X50229Y-15248D01*
X50413Y-14806D01*
X50413Y-14329D01*
X50413Y-19439D01*
X46987Y-16012D01*
X46763Y-15863D01*
X46500Y-15811D01*
X45313Y-15811D01*
X45252Y-15749D01*
X44926Y-15614D01*
X44574Y-15614D01*
X44508Y-15641D01*
X44508Y-13935D01*
X44325Y-13493D01*
X43988Y-13155D01*
X43546Y-12972D01*
X43069Y-12972D01*
X42627Y-13154D01*
X42289Y-13492D01*
X42106Y-13933D01*
X42106Y-14411D01*
X42288Y-14852D01*
X42626Y-15190D01*
X43067Y-15373D01*
X43544Y-15374D01*
X43986Y-15191D01*
X44324Y-14854D01*
X44507Y-14413D01*
X44508Y-13935D01*
X44508Y-15641D01*
X44248Y-15748D01*
X43999Y-15997D01*
X43864Y-16323D01*
X43864Y-16675D01*
X43998Y-17001D01*
X44122Y-17124D01*
X43999Y-17247D01*
X43864Y-17573D01*
X43864Y-17925D01*
X43998Y-18251D01*
X44247Y-18500D01*
X44573Y-18635D01*
X44925Y-18635D01*
X45251Y-18501D01*
X45313Y-18438D01*
X46714Y-18438D01*
X47443Y-19168D01*
X47248Y-19248D01*
X47186Y-19311D01*
X44563Y-19311D01*
X44502Y-19249D01*
X44176Y-19114D01*
X43824Y-19114D01*
X43498Y-19248D01*
X43249Y-19497D01*
X43114Y-19823D01*
X43114Y-20061D01*
X40000Y-20061D01*
X39736Y-20113D01*
X39512Y-20262D01*
X38262Y-21512D01*
X38113Y-21736D01*
X38061Y-22000D01*
X38061Y-28428D01*
X37963Y-28363D01*
X37700Y-28311D01*
X37091Y-28311D01*
X37013Y-28232D01*
X36743Y-28120D01*
X37306Y-27556D01*
X37477Y-27301D01*
X37537Y-27000D01*
X37537Y-27000D01*
X37537Y-26999D01*
X37537Y-24000D01*
X37537Y-16413D01*
X37635Y-16176D01*
X37635Y-15824D01*
X37501Y-15498D01*
X37252Y-15249D01*
X36926Y-15114D01*
X36574Y-15114D01*
X36248Y-15248D01*
X35999Y-15497D01*
X35864Y-15823D01*
X35864Y-16175D01*
X35962Y-16414D01*
X35962Y-22732D01*
X35676Y-22614D01*
X35324Y-22614D01*
X34998Y-22748D01*
X34749Y-22997D01*
X34614Y-23323D01*
X34614Y-23411D01*
X33762Y-24262D01*
X33613Y-24486D01*
X33561Y-24750D01*
X33561Y-26936D01*
X33499Y-26997D01*
X33484Y-27033D01*
X33484Y-24565D01*
X33302Y-24123D01*
X32964Y-23785D01*
X32523Y-23602D01*
X32045Y-23602D01*
X31604Y-23784D01*
X31266Y-24122D01*
X31082Y-24563D01*
X31082Y-25040D01*
X31264Y-25482D01*
X31602Y-25820D01*
X32043Y-26003D01*
X32521Y-26004D01*
X32962Y-25821D01*
X33300Y-25484D01*
X33484Y-25043D01*
X33484Y-24565D01*
X33484Y-27033D01*
X33364Y-27323D01*
X33364Y-27675D01*
X33498Y-28001D01*
X33709Y-28212D01*
X33413Y-28212D01*
X33176Y-28114D01*
X32824Y-28114D01*
X32498Y-28248D01*
X32249Y-28497D01*
X32114Y-28823D01*
X32114Y-29175D01*
X32248Y-29501D01*
X32497Y-29750D01*
X32764Y-29861D01*
X32262Y-30362D01*
X32113Y-30586D01*
X32061Y-30850D01*
X32061Y-32750D01*
X32061Y-36000D01*
X32113Y-36263D01*
X32262Y-36487D01*
X32762Y-36987D01*
X33862Y-38087D01*
X33862Y-38087D01*
X34016Y-38241D01*
X33998Y-38248D01*
X33749Y-38497D01*
X33614Y-38823D01*
X33614Y-39175D01*
X33748Y-39501D01*
X33997Y-39750D01*
X34323Y-39885D01*
X34485Y-39885D01*
X34486Y-39886D01*
X34750Y-39938D01*
X35000Y-39938D01*
X37393Y-39938D01*
X37248Y-39998D01*
X36999Y-40247D01*
X36864Y-40573D01*
X36864Y-40661D01*
X35512Y-42012D01*
X35363Y-42236D01*
X35311Y-42500D01*
X35311Y-43500D01*
X35311Y-47186D01*
X35249Y-47247D01*
X35114Y-47573D01*
X35114Y-47925D01*
X35248Y-48251D01*
X35497Y-48500D01*
X35823Y-48635D01*
X36175Y-48635D01*
X36501Y-48501D01*
X36750Y-48252D01*
X36885Y-47926D01*
X36885Y-47574D01*
X36751Y-47248D01*
X36688Y-47186D01*
X36688Y-44635D01*
X36925Y-44635D01*
X37251Y-44501D01*
X37500Y-44252D01*
X37635Y-43926D01*
X37635Y-43574D01*
X37501Y-43248D01*
X37488Y-43235D01*
X39491Y-41233D01*
X39498Y-41251D01*
X39561Y-41313D01*
X39561Y-42186D01*
X39499Y-42247D01*
X39364Y-42573D01*
X39364Y-42925D01*
X39498Y-43251D01*
X39747Y-43500D01*
X40073Y-43635D01*
X40425Y-43635D01*
X40751Y-43501D01*
X41000Y-43252D01*
X41135Y-42926D01*
X41135Y-42574D01*
X41001Y-42248D01*
X40938Y-42186D01*
X40938Y-41313D01*
X41000Y-41252D01*
X41135Y-40926D01*
X41135Y-40574D01*
X41001Y-40248D01*
X40752Y-39999D01*
X40732Y-39991D01*
X40785Y-39938D01*
X41000Y-39938D01*
X42464Y-39938D01*
X42811Y-40285D01*
X42811Y-41750D01*
X42811Y-42000D01*
X42863Y-42263D01*
X43012Y-42487D01*
X44012Y-43487D01*
X44236Y-43636D01*
X44500Y-43688D01*
X45250Y-43688D01*
X45750Y-43688D01*
X47068Y-43688D01*
X45414Y-45343D01*
X45384Y-45312D01*
X45058Y-45177D01*
X44706Y-45177D01*
X44380Y-45311D01*
X44131Y-45560D01*
X43996Y-45886D01*
X43995Y-46238D01*
X44130Y-46564D01*
X44219Y-46653D01*
X44131Y-46741D01*
X43996Y-47067D01*
X43995Y-47419D01*
X44130Y-47745D01*
X44379Y-47994D01*
X44704Y-48129D01*
X45057Y-48130D01*
X45383Y-47995D01*
X45445Y-47933D01*
X45669Y-47933D01*
X45932Y-47880D01*
X46156Y-47731D01*
X51269Y-42618D01*
X51356Y-42618D01*
X51682Y-42483D01*
X51931Y-42234D01*
X52066Y-41909D01*
X52067Y-41556D01*
X51932Y-41231D01*
X51704Y-41002D01*
X51787Y-40919D01*
X51787Y-40919D01*
X51787Y-40919D01*
X51987Y-40719D01*
X52136Y-40495D01*
X52188Y-40232D01*
X52188Y-36786D01*
X52194Y-36799D01*
X52448Y-37054D01*
X52781Y-37192D01*
X53141Y-37193D01*
X53462Y-37060D01*
X53781Y-37192D01*
X54141Y-37193D01*
X54474Y-37055D01*
X54729Y-36801D01*
X54867Y-36468D01*
X54868Y-36108D01*
X54730Y-35775D01*
X54476Y-35520D01*
X54143Y-35382D01*
X53783Y-35381D01*
X53462Y-35514D01*
X53143Y-35382D01*
X53021Y-35381D01*
X53085Y-35226D01*
X53085Y-35138D01*
X53338Y-34885D01*
X53425Y-34885D01*
X53751Y-34751D01*
X54000Y-34502D01*
X54135Y-34176D01*
X54135Y-33824D01*
X54001Y-33498D01*
X53752Y-33249D01*
X53426Y-33114D01*
X53074Y-33114D01*
X52748Y-33248D01*
X52499Y-33497D01*
X52364Y-33823D01*
X52364Y-33911D01*
X52258Y-34016D01*
X52251Y-33998D01*
X52002Y-33749D01*
X51676Y-33614D01*
X51324Y-33614D01*
X50999Y-33748D01*
X50676Y-33614D01*
X50538Y-33614D01*
X50538Y-30688D01*
X52686Y-30688D01*
X52747Y-30750D01*
X53073Y-30885D01*
X53425Y-30885D01*
X53751Y-30751D01*
X53889Y-30613D01*
X54262Y-30987D01*
X54486Y-31136D01*
X54750Y-31188D01*
X65936Y-31188D01*
X65997Y-31250D01*
X66323Y-31385D01*
X66675Y-31385D01*
X67001Y-31251D01*
X67250Y-31002D01*
X67385Y-30676D01*
X67385Y-30324D01*
X67385Y-50964D01*
X66385Y-50964D01*
X66385Y-47824D01*
X66287Y-47585D01*
X66287Y-41750D01*
X66287Y-41250D01*
X66227Y-40948D01*
X66122Y-40790D01*
X66001Y-40498D01*
X65752Y-40249D01*
X65426Y-40114D01*
X65074Y-40114D01*
X64748Y-40248D01*
X64499Y-40497D01*
X64364Y-40823D01*
X64364Y-41175D01*
X64498Y-41501D01*
X64712Y-41715D01*
X64712Y-41750D01*
X64712Y-47586D01*
X64614Y-47823D01*
X64614Y-48175D01*
X64748Y-48501D01*
X64997Y-48750D01*
X65323Y-48885D01*
X65675Y-48885D01*
X66001Y-48751D01*
X66250Y-48502D01*
X66385Y-48176D01*
X66385Y-47824D01*
X66385Y-50964D01*
X59075Y-50964D01*
X59075Y-48974D01*
X58892Y-48533D01*
X58555Y-48195D01*
X58113Y-48012D01*
X57636Y-48011D01*
X57194Y-48194D01*
X56856Y-48531D01*
X56673Y-48972D01*
X56673Y-49450D01*
X56855Y-49891D01*
X57192Y-50229D01*
X57634Y-50413D01*
X58111Y-50413D01*
X58553Y-50231D01*
X58891Y-49893D01*
X59074Y-49452D01*
X59075Y-48974D01*
X59075Y-50964D01*
X55118Y-50964D01*
X54884Y-51011D01*
X54686Y-51143D01*
X54594Y-51281D01*
X54594Y-48629D01*
X55285Y-47938D01*
X60250Y-47938D01*
X60513Y-47886D01*
X60737Y-47737D01*
X61737Y-46737D01*
X62237Y-46237D01*
X62386Y-46013D01*
X62438Y-45750D01*
X62438Y-45063D01*
X62500Y-45002D01*
X62635Y-44676D01*
X62635Y-44324D01*
X62501Y-43998D01*
X62252Y-43749D01*
X61926Y-43614D01*
X61574Y-43614D01*
X61248Y-43748D01*
X60999Y-43997D01*
X60864Y-44323D01*
X60864Y-44675D01*
X60998Y-45001D01*
X61061Y-45063D01*
X61061Y-45464D01*
X60762Y-45762D01*
X60285Y-46239D01*
X60285Y-46224D01*
X60151Y-45898D01*
X59902Y-45649D01*
X59576Y-45514D01*
X59224Y-45514D01*
X59075Y-45575D01*
X59075Y-38738D01*
X58892Y-38297D01*
X58555Y-37958D01*
X58113Y-37775D01*
X57636Y-37775D01*
X57194Y-37957D01*
X56856Y-38295D01*
X56673Y-38736D01*
X56673Y-39214D01*
X56855Y-39655D01*
X57192Y-39993D01*
X57634Y-40176D01*
X58111Y-40177D01*
X58553Y-39994D01*
X58891Y-39657D01*
X59074Y-39216D01*
X59075Y-38738D01*
X59075Y-45575D01*
X58898Y-45648D01*
X58649Y-45897D01*
X58581Y-46061D01*
X54750Y-46061D01*
X54486Y-46113D01*
X54262Y-46262D01*
X54262Y-46262D01*
X52762Y-47762D01*
X52613Y-47986D01*
X52561Y-48250D01*
X52561Y-51377D01*
X52539Y-51377D01*
X52532Y-51341D01*
X52400Y-51143D01*
X52202Y-51011D01*
X51968Y-50964D01*
X50413Y-50964D01*
X50413Y-48974D01*
X50231Y-48533D01*
X49893Y-48195D01*
X49452Y-48012D01*
X48974Y-48011D01*
X48533Y-48194D01*
X48195Y-48531D01*
X48012Y-48972D01*
X48011Y-49450D01*
X48194Y-49891D01*
X48531Y-50229D01*
X48972Y-50413D01*
X49450Y-50413D01*
X49891Y-50231D01*
X50229Y-49893D01*
X50413Y-49452D01*
X50413Y-48974D01*
X50413Y-50964D01*
X44508Y-50964D01*
X44508Y-49368D01*
X44325Y-48926D01*
X43988Y-48588D01*
X43546Y-48405D01*
X43069Y-48405D01*
X42627Y-48587D01*
X42289Y-48925D01*
X42106Y-49366D01*
X42106Y-49844D01*
X42288Y-50285D01*
X42626Y-50623D01*
X43067Y-50806D01*
X43544Y-50807D01*
X43986Y-50624D01*
X44324Y-50287D01*
X44507Y-49846D01*
X44508Y-49368D01*
X44508Y-50964D01*
X33484Y-50964D01*
X33484Y-38738D01*
X33302Y-38297D01*
X32964Y-37958D01*
X32523Y-37775D01*
X32045Y-37775D01*
X31604Y-37957D01*
X31266Y-38295D01*
X31082Y-38736D01*
X31082Y-39214D01*
X31264Y-39655D01*
X31602Y-39993D01*
X32043Y-40176D01*
X32521Y-40177D01*
X32962Y-39994D01*
X33300Y-39657D01*
X33484Y-39216D01*
X33484Y-38738D01*
X33484Y-50964D01*
X32142Y-50964D01*
X23051Y-41873D01*
X23051Y-34840D01*
X23051Y-28541D01*
X22898Y-28172D01*
X22616Y-27889D01*
X22247Y-27736D01*
X21848Y-27736D01*
X21479Y-27888D01*
X21196Y-28170D01*
X21043Y-28539D01*
X21043Y-28938D01*
X21195Y-29308D01*
X21477Y-29590D01*
X21846Y-29743D01*
X22246Y-29744D01*
X22615Y-29591D01*
X22897Y-29309D01*
X23051Y-28940D01*
X23051Y-28541D01*
X23051Y-34840D01*
X22898Y-34471D01*
X22616Y-34188D01*
X22247Y-34035D01*
X21848Y-34035D01*
X21479Y-34187D01*
X21196Y-34469D01*
X21043Y-34838D01*
X21043Y-35238D01*
X21195Y-35607D01*
X21477Y-35889D01*
X21846Y-36043D01*
X22246Y-36043D01*
X22615Y-35890D01*
X22897Y-35608D01*
X23051Y-35239D01*
X23051Y-34840D01*
X23051Y-41873D01*
X20688Y-39511D01*
X20688Y-24268D01*
X32142Y-12814D01*
X51968Y-12814D01*
X52202Y-12768D01*
X52400Y-12636D01*
X52532Y-12438D01*
X52539Y-12401D01*
X53311Y-12401D01*
X53311Y-14750D01*
X53363Y-15013D01*
X53512Y-15237D01*
X55012Y-16737D01*
X55012Y-16737D01*
X55236Y-16886D01*
X55500Y-16938D01*
X57964Y-16938D01*
X60864Y-19838D01*
X60864Y-19925D01*
X60920Y-20061D01*
X59813Y-20061D01*
X59752Y-19999D01*
X59426Y-19864D01*
X59074Y-19864D01*
X58748Y-19998D01*
X58499Y-20247D01*
X58364Y-20573D01*
X58364Y-20925D01*
X58498Y-21251D01*
X58747Y-21500D01*
X59073Y-21635D01*
X59425Y-21635D01*
X59751Y-21501D01*
X59813Y-21438D01*
X61750Y-21438D01*
X62013Y-21386D01*
X62237Y-21237D01*
X63962Y-19511D01*
X63962Y-27999D01*
X63962Y-28000D01*
X64022Y-28301D01*
X64193Y-28556D01*
X64400Y-28764D01*
X64498Y-29001D01*
X64747Y-29250D01*
X65073Y-29385D01*
X65425Y-29385D01*
X65751Y-29251D01*
X66000Y-29002D01*
X66135Y-28676D01*
X66135Y-28324D01*
X66001Y-27998D01*
X65752Y-27749D01*
X65537Y-27660D01*
X65537Y-19000D01*
X65477Y-18698D01*
X65306Y-18443D01*
X65306Y-18443D01*
X65099Y-18235D01*
X65001Y-17998D01*
X64752Y-17749D01*
X64426Y-17614D01*
X64299Y-17614D01*
X64251Y-17498D01*
X64002Y-17249D01*
X63676Y-17114D01*
X63324Y-17114D01*
X62998Y-17248D01*
X62749Y-17497D01*
X62614Y-17823D01*
X62614Y-18175D01*
X62748Y-18501D01*
X62811Y-18563D01*
X62811Y-18714D01*
X62389Y-19136D01*
X62252Y-18999D01*
X61926Y-18864D01*
X61838Y-18864D01*
X60556Y-17581D01*
X60751Y-17501D01*
X61000Y-17252D01*
X61135Y-16926D01*
X61135Y-16574D01*
X61001Y-16248D01*
X60752Y-15999D01*
X60426Y-15864D01*
X60338Y-15864D01*
X59737Y-15262D01*
X59513Y-15113D01*
X59250Y-15061D01*
X58969Y-15061D01*
X59074Y-14806D01*
X59075Y-14329D01*
X58892Y-13887D01*
X58555Y-13549D01*
X58113Y-13366D01*
X57636Y-13365D01*
X57194Y-13548D01*
X56856Y-13885D01*
X56673Y-14327D01*
X56673Y-14804D01*
X56778Y-15061D01*
X56035Y-15061D01*
X55388Y-14414D01*
X55388Y-14150D01*
X55388Y-12814D01*
X69038Y-12814D01*
X70649Y-14425D01*
X70649Y-49353D01*
X70649Y-49353D01*
G37*
G54D16*
X70649Y-49353D02*
X69038Y-50964D01*
X68943Y-50964D01*
X68943Y-27389D01*
X68942Y-27029D01*
X68806Y-26702D01*
X68612Y-26692D01*
X68093Y-27212D01*
X68612Y-27732D01*
X68806Y-27722D01*
X68943Y-27389D01*
X68943Y-50964D01*
X68557Y-50964D01*
X68557Y-27788D01*
X68037Y-27268D01*
X68031Y-27273D01*
X67976Y-27218D01*
X67981Y-27212D01*
X67976Y-27207D01*
X68031Y-27151D01*
X68037Y-27156D01*
X68557Y-26637D01*
X68547Y-26443D01*
X68214Y-26306D01*
X67854Y-26307D01*
X67536Y-26439D01*
X67218Y-26307D01*
X66858Y-26306D01*
X66525Y-26444D01*
X66270Y-26698D01*
X66132Y-27031D01*
X66131Y-27391D01*
X66269Y-27724D01*
X66523Y-27979D01*
X66856Y-28117D01*
X67216Y-28118D01*
X67536Y-27985D01*
X67860Y-28118D01*
X68220Y-28117D01*
X68547Y-27981D01*
X68557Y-27788D01*
X68557Y-50964D01*
X67385Y-50964D01*
X67385Y-30324D01*
X67251Y-29998D01*
X67002Y-29749D01*
X66676Y-29614D01*
X66324Y-29614D01*
X65998Y-29748D01*
X65936Y-29811D01*
X59075Y-29811D01*
X59075Y-24565D01*
X58892Y-24123D01*
X58555Y-23785D01*
X58113Y-23602D01*
X57636Y-23602D01*
X57194Y-23784D01*
X56856Y-24122D01*
X56673Y-24563D01*
X56673Y-25040D01*
X56855Y-25482D01*
X57192Y-25820D01*
X57634Y-26003D01*
X58111Y-26004D01*
X58553Y-25821D01*
X58891Y-25484D01*
X59074Y-25043D01*
X59075Y-24565D01*
X59075Y-29811D01*
X55035Y-29811D01*
X53987Y-28762D01*
X53882Y-28692D01*
X54141Y-28693D01*
X54474Y-28555D01*
X54729Y-28301D01*
X54867Y-27968D01*
X54868Y-27608D01*
X54730Y-27275D01*
X54476Y-27020D01*
X54143Y-26882D01*
X53783Y-26881D01*
X53462Y-27014D01*
X53143Y-26882D01*
X52783Y-26881D01*
X52450Y-27019D01*
X52195Y-27273D01*
X52057Y-27606D01*
X52057Y-27804D01*
X52002Y-27749D01*
X51676Y-27614D01*
X51588Y-27614D01*
X51438Y-27464D01*
X51438Y-27385D01*
X51675Y-27385D01*
X52001Y-27251D01*
X52250Y-27002D01*
X52385Y-26676D01*
X52385Y-26324D01*
X52251Y-25998D01*
X52188Y-25936D01*
X52188Y-21500D01*
X52136Y-21236D01*
X51987Y-21012D01*
X50413Y-19439D01*
X50413Y-14329D01*
X50231Y-13887D01*
X49893Y-13549D01*
X49452Y-13366D01*
X48974Y-13365D01*
X48533Y-13548D01*
X48195Y-13885D01*
X48012Y-14327D01*
X48011Y-14804D01*
X48194Y-15246D01*
X48531Y-15584D01*
X48972Y-15767D01*
X49450Y-15767D01*
X49891Y-15585D01*
X50229Y-15248D01*
X50413Y-14806D01*
X50413Y-14329D01*
X50413Y-19439D01*
X46987Y-16012D01*
X46763Y-15863D01*
X46500Y-15811D01*
X45313Y-15811D01*
X45252Y-15749D01*
X44926Y-15614D01*
X44574Y-15614D01*
X44508Y-15641D01*
X44508Y-13935D01*
X44325Y-13493D01*
X43988Y-13155D01*
X43546Y-12972D01*
X43069Y-12972D01*
X42627Y-13154D01*
X42289Y-13492D01*
X42106Y-13933D01*
X42106Y-14411D01*
X42288Y-14852D01*
X42626Y-15190D01*
X43067Y-15373D01*
X43544Y-15374D01*
X43986Y-15191D01*
X44324Y-14854D01*
X44507Y-14413D01*
X44508Y-13935D01*
X44508Y-15641D01*
X44248Y-15748D01*
X43999Y-15997D01*
X43864Y-16323D01*
X43864Y-16675D01*
X43998Y-17001D01*
X44122Y-17124D01*
X43999Y-17247D01*
X43864Y-17573D01*
X43864Y-17925D01*
X43998Y-18251D01*
X44247Y-18500D01*
X44573Y-18635D01*
X44925Y-18635D01*
X45251Y-18501D01*
X45313Y-18438D01*
X46714Y-18438D01*
X47443Y-19168D01*
X47248Y-19248D01*
X47186Y-19311D01*
X44563Y-19311D01*
X44502Y-19249D01*
X44176Y-19114D01*
X43824Y-19114D01*
X43498Y-19248D01*
X43249Y-19497D01*
X43114Y-19823D01*
X43114Y-20061D01*
X40000Y-20061D01*
X39736Y-20113D01*
X39512Y-20262D01*
X38262Y-21512D01*
X38113Y-21736D01*
X38061Y-22000D01*
X38061Y-28428D01*
X37963Y-28363D01*
X37700Y-28311D01*
X37091Y-28311D01*
X37013Y-28232D01*
X36743Y-28120D01*
X37306Y-27556D01*
X37477Y-27301D01*
X37537Y-27000D01*
X37537Y-27000D01*
X37537Y-26999D01*
X37537Y-24000D01*
X37537Y-16413D01*
X37635Y-16176D01*
X37635Y-15824D01*
X37501Y-15498D01*
X37252Y-15249D01*
X36926Y-15114D01*
X36574Y-15114D01*
X36248Y-15248D01*
X35999Y-15497D01*
X35864Y-15823D01*
X35864Y-16175D01*
X35962Y-16414D01*
X35962Y-22732D01*
X35676Y-22614D01*
X35324Y-22614D01*
X34998Y-22748D01*
X34749Y-22997D01*
X34614Y-23323D01*
X34614Y-23411D01*
X33762Y-24262D01*
X33613Y-24486D01*
X33561Y-24750D01*
X33561Y-26936D01*
X33499Y-26997D01*
X33484Y-27033D01*
X33484Y-24565D01*
X33302Y-24123D01*
X32964Y-23785D01*
X32523Y-23602D01*
X32045Y-23602D01*
X31604Y-23784D01*
X31266Y-24122D01*
X31082Y-24563D01*
X31082Y-25040D01*
X31264Y-25482D01*
X31602Y-25820D01*
X32043Y-26003D01*
X32521Y-26004D01*
X32962Y-25821D01*
X33300Y-25484D01*
X33484Y-25043D01*
X33484Y-24565D01*
X33484Y-27033D01*
X33364Y-27323D01*
X33364Y-27675D01*
X33498Y-28001D01*
X33709Y-28212D01*
X33413Y-28212D01*
X33176Y-28114D01*
X32824Y-28114D01*
X32498Y-28248D01*
X32249Y-28497D01*
X32114Y-28823D01*
X32114Y-29175D01*
X32248Y-29501D01*
X32497Y-29750D01*
X32764Y-29861D01*
X32262Y-30362D01*
X32113Y-30586D01*
X32061Y-30850D01*
X32061Y-32750D01*
X32061Y-36000D01*
X32113Y-36263D01*
X32262Y-36487D01*
X32762Y-36987D01*
X33862Y-38087D01*
X33862Y-38087D01*
X34016Y-38241D01*
X33998Y-38248D01*
X33749Y-38497D01*
X33614Y-38823D01*
X33614Y-39175D01*
X33748Y-39501D01*
X33997Y-39750D01*
X34323Y-39885D01*
X34485Y-39885D01*
X34486Y-39886D01*
X34750Y-39938D01*
X35000Y-39938D01*
X37393Y-39938D01*
X37248Y-39998D01*
X36999Y-40247D01*
X36864Y-40573D01*
X36864Y-40661D01*
X35512Y-42012D01*
X35363Y-42236D01*
X35311Y-42500D01*
X35311Y-43500D01*
X35311Y-47186D01*
X35249Y-47247D01*
X35114Y-47573D01*
X35114Y-47925D01*
X35248Y-48251D01*
X35497Y-48500D01*
X35823Y-48635D01*
X36175Y-48635D01*
X36501Y-48501D01*
X36750Y-48252D01*
X36885Y-47926D01*
X36885Y-47574D01*
X36751Y-47248D01*
X36688Y-47186D01*
X36688Y-44635D01*
X36925Y-44635D01*
X37251Y-44501D01*
X37500Y-44252D01*
X37635Y-43926D01*
X37635Y-43574D01*
X37501Y-43248D01*
X37488Y-43235D01*
X39491Y-41233D01*
X39498Y-41251D01*
X39561Y-41313D01*
X39561Y-42186D01*
X39499Y-42247D01*
X39364Y-42573D01*
X39364Y-42925D01*
X39498Y-43251D01*
X39747Y-43500D01*
X40073Y-43635D01*
X40425Y-43635D01*
X40751Y-43501D01*
X41000Y-43252D01*
X41135Y-42926D01*
X41135Y-42574D01*
X41001Y-42248D01*
X40938Y-42186D01*
X40938Y-41313D01*
X41000Y-41252D01*
X41135Y-40926D01*
X41135Y-40574D01*
X41001Y-40248D01*
X40752Y-39999D01*
X40732Y-39991D01*
X40785Y-39938D01*
X41000Y-39938D01*
X42464Y-39938D01*
X42811Y-40285D01*
X42811Y-41750D01*
X42811Y-42000D01*
X42863Y-42263D01*
X43012Y-42487D01*
X44012Y-43487D01*
X44236Y-43636D01*
X44500Y-43688D01*
X45250Y-43688D01*
X45750Y-43688D01*
X47068Y-43688D01*
X45414Y-45343D01*
X45384Y-45312D01*
X45058Y-45177D01*
X44706Y-45177D01*
X44380Y-45311D01*
X44131Y-45560D01*
X43996Y-45886D01*
X43995Y-46238D01*
X44130Y-46564D01*
X44219Y-46653D01*
X44131Y-46741D01*
X43996Y-47067D01*
X43995Y-47419D01*
X44130Y-47745D01*
X44379Y-47994D01*
X44704Y-48129D01*
X45057Y-48130D01*
X45383Y-47995D01*
X45445Y-47933D01*
X45669Y-47933D01*
X45932Y-47880D01*
X46156Y-47731D01*
X51269Y-42618D01*
X51356Y-42618D01*
X51682Y-42483D01*
X51931Y-42234D01*
X52066Y-41909D01*
X52067Y-41556D01*
X51932Y-41231D01*
X51704Y-41002D01*
X51787Y-40919D01*
X51787Y-40919D01*
X51787Y-40919D01*
X51987Y-40719D01*
X52136Y-40495D01*
X52188Y-40232D01*
X52188Y-36786D01*
X52194Y-36799D01*
X52448Y-37054D01*
X52781Y-37192D01*
X53141Y-37193D01*
X53462Y-37060D01*
X53781Y-37192D01*
X54141Y-37193D01*
X54474Y-37055D01*
X54729Y-36801D01*
X54867Y-36468D01*
X54868Y-36108D01*
X54730Y-35775D01*
X54476Y-35520D01*
X54143Y-35382D01*
X53783Y-35381D01*
X53462Y-35514D01*
X53143Y-35382D01*
X53021Y-35381D01*
X53085Y-35226D01*
X53085Y-35138D01*
X53338Y-34885D01*
X53425Y-34885D01*
X53751Y-34751D01*
X54000Y-34502D01*
X54135Y-34176D01*
X54135Y-33824D01*
X54001Y-33498D01*
X53752Y-33249D01*
X53426Y-33114D01*
X53074Y-33114D01*
X52748Y-33248D01*
X52499Y-33497D01*
X52364Y-33823D01*
X52364Y-33911D01*
X52258Y-34016D01*
X52251Y-33998D01*
X52002Y-33749D01*
X51676Y-33614D01*
X51324Y-33614D01*
X50999Y-33748D01*
X50676Y-33614D01*
X50538Y-33614D01*
X50538Y-30688D01*
X52686Y-30688D01*
X52747Y-30750D01*
X53073Y-30885D01*
X53425Y-30885D01*
X53751Y-30751D01*
X53889Y-30613D01*
X54262Y-30987D01*
X54486Y-31136D01*
X54750Y-31188D01*
X65936Y-31188D01*
X65997Y-31250D01*
X66323Y-31385D01*
X66675Y-31385D01*
X67001Y-31251D01*
X67250Y-31002D01*
X67385Y-30676D01*
X67385Y-30324D01*
X67385Y-50964D01*
X66385Y-50964D01*
X66385Y-47824D01*
X66287Y-47585D01*
X66287Y-41750D01*
X66287Y-41250D01*
X66227Y-40948D01*
X66122Y-40790D01*
X66001Y-40498D01*
X65752Y-40249D01*
X65426Y-40114D01*
X65074Y-40114D01*
X64748Y-40248D01*
X64499Y-40497D01*
X64364Y-40823D01*
X64364Y-41175D01*
X64498Y-41501D01*
X64712Y-41715D01*
X64712Y-41750D01*
X64712Y-47586D01*
X64614Y-47823D01*
X64614Y-48175D01*
X64748Y-48501D01*
X64997Y-48750D01*
X65323Y-48885D01*
X65675Y-48885D01*
X66001Y-48751D01*
X66250Y-48502D01*
X66385Y-48176D01*
X66385Y-47824D01*
X66385Y-50964D01*
X59075Y-50964D01*
X59075Y-48974D01*
X58892Y-48533D01*
X58555Y-48195D01*
X58113Y-48012D01*
X57636Y-48011D01*
X57194Y-48194D01*
X56856Y-48531D01*
X56673Y-48972D01*
X56673Y-49450D01*
X56855Y-49891D01*
X57192Y-50229D01*
X57634Y-50413D01*
X58111Y-50413D01*
X58553Y-50231D01*
X58891Y-49893D01*
X59074Y-49452D01*
X59075Y-48974D01*
X59075Y-50964D01*
X55118Y-50964D01*
X54884Y-51011D01*
X54686Y-51143D01*
X54594Y-51281D01*
X54594Y-48629D01*
X55285Y-47938D01*
X60250Y-47938D01*
X60513Y-47886D01*
X60737Y-47737D01*
X61737Y-46737D01*
X62237Y-46237D01*
X62386Y-46013D01*
X62438Y-45750D01*
X62438Y-45063D01*
X62500Y-45002D01*
X62635Y-44676D01*
X62635Y-44324D01*
X62501Y-43998D01*
X62252Y-43749D01*
X61926Y-43614D01*
X61574Y-43614D01*
X61248Y-43748D01*
X60999Y-43997D01*
X60864Y-44323D01*
X60864Y-44675D01*
X60998Y-45001D01*
X61061Y-45063D01*
X61061Y-45464D01*
X60762Y-45762D01*
X60285Y-46239D01*
X60285Y-46224D01*
X60151Y-45898D01*
X59902Y-45649D01*
X59576Y-45514D01*
X59224Y-45514D01*
X59075Y-45575D01*
X59075Y-38738D01*
X58892Y-38297D01*
X58555Y-37958D01*
X58113Y-37775D01*
X57636Y-37775D01*
X57194Y-37957D01*
X56856Y-38295D01*
X56673Y-38736D01*
X56673Y-39214D01*
X56855Y-39655D01*
X57192Y-39993D01*
X57634Y-40176D01*
X58111Y-40177D01*
X58553Y-39994D01*
X58891Y-39657D01*
X59074Y-39216D01*
X59075Y-38738D01*
X59075Y-45575D01*
X58898Y-45648D01*
X58649Y-45897D01*
X58581Y-46061D01*
X54750Y-46061D01*
X54486Y-46113D01*
X54262Y-46262D01*
X54262Y-46262D01*
X52762Y-47762D01*
X52613Y-47986D01*
X52561Y-48250D01*
X52561Y-51377D01*
X52539Y-51377D01*
X52532Y-51341D01*
X52400Y-51143D01*
X52202Y-51011D01*
X51968Y-50964D01*
X50413Y-50964D01*
X50413Y-48974D01*
X50231Y-48533D01*
X49893Y-48195D01*
X49452Y-48012D01*
X48974Y-48011D01*
X48533Y-48194D01*
X48195Y-48531D01*
X48012Y-48972D01*
X48011Y-49450D01*
X48194Y-49891D01*
X48531Y-50229D01*
X48972Y-50413D01*
X49450Y-50413D01*
X49891Y-50231D01*
X50229Y-49893D01*
X50413Y-49452D01*
X50413Y-48974D01*
X50413Y-50964D01*
X44508Y-50964D01*
X44508Y-49368D01*
X44325Y-48926D01*
X43988Y-48588D01*
X43546Y-48405D01*
X43069Y-48405D01*
X42627Y-48587D01*
X42289Y-48925D01*
X42106Y-49366D01*
X42106Y-49844D01*
X42288Y-50285D01*
X42626Y-50623D01*
X43067Y-50806D01*
X43544Y-50807D01*
X43986Y-50624D01*
X44324Y-50287D01*
X44507Y-49846D01*
X44508Y-49368D01*
X44508Y-50964D01*
X33484Y-50964D01*
X33484Y-38738D01*
X33302Y-38297D01*
X32964Y-37958D01*
X32523Y-37775D01*
X32045Y-37775D01*
X31604Y-37957D01*
X31266Y-38295D01*
X31082Y-38736D01*
X31082Y-39214D01*
X31264Y-39655D01*
X31602Y-39993D01*
X32043Y-40176D01*
X32521Y-40177D01*
X32962Y-39994D01*
X33300Y-39657D01*
X33484Y-39216D01*
X33484Y-38738D01*
X33484Y-50964D01*
X32142Y-50964D01*
X23051Y-41873D01*
X23051Y-34840D01*
X23051Y-28541D01*
X22898Y-28172D01*
X22616Y-27889D01*
X22247Y-27736D01*
X21848Y-27736D01*
X21479Y-27888D01*
X21196Y-28170D01*
X21043Y-28539D01*
X21043Y-28938D01*
X21195Y-29308D01*
X21477Y-29590D01*
X21846Y-29743D01*
X22246Y-29744D01*
X22615Y-29591D01*
X22897Y-29309D01*
X23051Y-28940D01*
X23051Y-28541D01*
X23051Y-34840D01*
X22898Y-34471D01*
X22616Y-34188D01*
X22247Y-34035D01*
X21848Y-34035D01*
X21479Y-34187D01*
X21196Y-34469D01*
X21043Y-34838D01*
X21043Y-35238D01*
X21195Y-35607D01*
X21477Y-35889D01*
X21846Y-36043D01*
X22246Y-36043D01*
X22615Y-35890D01*
X22897Y-35608D01*
X23051Y-35239D01*
X23051Y-34840D01*
X23051Y-41873D01*
X20688Y-39511D01*
X20688Y-24268D01*
X32142Y-12814D01*
X51968Y-12814D01*
X52202Y-12768D01*
X52400Y-12636D01*
X52532Y-12438D01*
X52539Y-12401D01*
X53311Y-12401D01*
X53311Y-14750D01*
X53363Y-15013D01*
X53512Y-15237D01*
X55012Y-16737D01*
X55012Y-16737D01*
X55236Y-16886D01*
X55500Y-16938D01*
X57964Y-16938D01*
X60864Y-19838D01*
X60864Y-19925D01*
X60920Y-20061D01*
X59813Y-20061D01*
X59752Y-19999D01*
X59426Y-19864D01*
X59074Y-19864D01*
X58748Y-19998D01*
X58499Y-20247D01*
X58364Y-20573D01*
X58364Y-20925D01*
X58498Y-21251D01*
X58747Y-21500D01*
X59073Y-21635D01*
X59425Y-21635D01*
X59751Y-21501D01*
X59813Y-21438D01*
X61750Y-21438D01*
X62013Y-21386D01*
X62237Y-21237D01*
X63962Y-19511D01*
X63962Y-27999D01*
X63962Y-28000D01*
X64022Y-28301D01*
X64193Y-28556D01*
X64400Y-28764D01*
X64498Y-29001D01*
X64747Y-29250D01*
X65073Y-29385D01*
X65425Y-29385D01*
X65751Y-29251D01*
X66000Y-29002D01*
X66135Y-28676D01*
X66135Y-28324D01*
X66001Y-27998D01*
X65752Y-27749D01*
X65537Y-27660D01*
X65537Y-19000D01*
X65477Y-18698D01*
X65306Y-18443D01*
X65306Y-18443D01*
X65099Y-18235D01*
X65001Y-17998D01*
X64752Y-17749D01*
X64426Y-17614D01*
X64299Y-17614D01*
X64251Y-17498D01*
X64002Y-17249D01*
X63676Y-17114D01*
X63324Y-17114D01*
X62998Y-17248D01*
X62749Y-17497D01*
X62614Y-17823D01*
X62614Y-18175D01*
X62748Y-18501D01*
X62811Y-18563D01*
X62811Y-18714D01*
X62389Y-19136D01*
X62252Y-18999D01*
X61926Y-18864D01*
X61838Y-18864D01*
X60556Y-17581D01*
X60751Y-17501D01*
X61000Y-17252D01*
X61135Y-16926D01*
X61135Y-16574D01*
X61001Y-16248D01*
X60752Y-15999D01*
X60426Y-15864D01*
X60338Y-15864D01*
X59737Y-15262D01*
X59513Y-15113D01*
X59250Y-15061D01*
X58969Y-15061D01*
X59074Y-14806D01*
X59075Y-14329D01*
X58892Y-13887D01*
X58555Y-13549D01*
X58113Y-13366D01*
X57636Y-13365D01*
X57194Y-13548D01*
X56856Y-13885D01*
X56673Y-14327D01*
X56673Y-14804D01*
X56778Y-15061D01*
X56035Y-15061D01*
X55388Y-14414D01*
X55388Y-14150D01*
X55388Y-12814D01*
X69038Y-12814D01*
X70649Y-14425D01*
X70649Y-49353D01*
M02*
