G04 (created by PCBNEW (2013-may-18)-stable) date Пт 28 авг 2015 20:38:37*
%MOIN*%
G04 Gerber Fmt 3.4, Leading zero omitted, Abs format*
%FSLAX34Y34*%
G01*
G70*
G90*
G04 APERTURE LIST*
%ADD10C,0.00590551*%
%ADD11C,0.122047*%
%ADD12C,0.0708661*%
%ADD13R,0.0314961X0.0551181*%
%ADD14C,0.0629921*%
%ADD15C,0.0551181*%
%ADD16C,0.0826772*%
G04 APERTURE END LIST*
G54D10*
G54D11*
X57874Y-14566D03*
G54D12*
X53962Y-27787D03*
X52962Y-27787D03*
X53962Y-36287D03*
X52962Y-36287D03*
G54D13*
X53905Y-53543D03*
X53000Y-53543D03*
X53000Y-55000D03*
X53905Y-55000D03*
X53094Y-10456D03*
X54000Y-10456D03*
X54000Y-9000D03*
X53094Y-9000D03*
G54D12*
X67037Y-27212D03*
X68037Y-27212D03*
G54D14*
X36500Y-31000D03*
X35500Y-31000D03*
X36500Y-29000D03*
X35500Y-29000D03*
X36500Y-30000D03*
X35500Y-30000D03*
X35500Y-34000D03*
X36500Y-34000D03*
X36500Y-32000D03*
X35500Y-32000D03*
X35500Y-33000D03*
X36500Y-33000D03*
X35500Y-35000D03*
X36500Y-35000D03*
G54D15*
X46061Y-24049D03*
X46061Y-25049D03*
X46061Y-26049D03*
X46061Y-27049D03*
X46061Y-28049D03*
X46061Y-29049D03*
X46061Y-30049D03*
X46061Y-31049D03*
X46061Y-32049D03*
X46061Y-33049D03*
X46061Y-34049D03*
X46061Y-35049D03*
X46061Y-36049D03*
X46061Y-37049D03*
X46061Y-38049D03*
X46061Y-39049D03*
X46061Y-40049D03*
X48061Y-40049D03*
X48061Y-39049D03*
X48061Y-38049D03*
X48061Y-37049D03*
X48061Y-36049D03*
X48061Y-35049D03*
X48061Y-34049D03*
X48061Y-33049D03*
X48061Y-32049D03*
X48061Y-31049D03*
X48061Y-30049D03*
X48061Y-29049D03*
X48061Y-28049D03*
X48061Y-27049D03*
X48061Y-26049D03*
X48061Y-25049D03*
X48061Y-24049D03*
G54D11*
X32283Y-38976D03*
X57874Y-38976D03*
X57874Y-24803D03*
X43307Y-49606D03*
X43307Y-14173D03*
X49212Y-49212D03*
X57874Y-49212D03*
X49212Y-14566D03*
X32283Y-24803D03*
G54D16*
X22047Y-28740D03*
X22047Y-35039D03*
M02*
