M48
;DRILL file {Pcbnew (2013-may-18)-stable} date Пт 28 авг 2015 20:38:39
;FORMAT={-:-/ absolute / inch / decimal}
FMAT,2
INCH,TZ
T1C0.031
T2C0.039
T3C0.043
%
G90
G05
M72
T1
X4.6061Y-2.4049
X4.6061Y-2.5049
X4.6061Y-2.6049
X4.6061Y-2.7049
X4.6061Y-2.8049
X4.6061Y-2.9049
X4.6061Y-3.0049
X4.6061Y-3.1049
X4.6061Y-3.2049
X4.6061Y-3.3049
X4.6061Y-3.4049
X4.6061Y-3.5049
X4.6061Y-3.6049
X4.6061Y-3.7049
X4.6061Y-3.8049
X4.6061Y-3.9049
X4.6061Y-4.0049
X4.8061Y-2.4049
X4.8061Y-2.5049
X4.8061Y-2.6049
X4.8061Y-2.7049
X4.8061Y-2.8049
X4.8061Y-2.9049
X4.8061Y-3.0049
X4.8061Y-3.1049
X4.8061Y-3.2049
X4.8061Y-3.3049
X4.8061Y-3.4049
X4.8061Y-3.5049
X4.8061Y-3.6049
X4.8061Y-3.7049
X4.8061Y-3.8049
X4.8061Y-3.9049
X4.8061Y-4.0049
X5.2963Y-2.7787
X5.2963Y-3.6287
X5.3963Y-2.7787
X5.3963Y-3.6287
X6.7037Y-2.7213
X6.8037Y-2.7213
T2
X2.45Y-2.75
X3.24Y-4.3
X3.25Y-1.375
X3.3Y-2.9
X3.4Y-3.55
X3.425Y-2.75
X3.425Y-3.2
X3.45Y-3.9
X3.55Y-2.35
X3.6Y-4.775
X3.675Y-1.6
X3.675Y-4.375
X3.71Y-4.005
X3.775Y-3.2
X3.775Y-3.275
X3.775Y-4.075
X3.785Y-3.465
X3.9Y-3.825
X3.975Y-3.65
X3.975Y-3.75
X4.025Y-3.005
X4.025Y-4.075
X4.025Y-4.275
X4.25Y-2.3
X4.25Y-3.45
X4.275Y-4.1
X4.325Y-3.1
X4.4Y-2.
X4.45Y-3.1
X4.475Y-1.65
X4.475Y-1.775
X4.475Y-4.475
X4.4882Y-4.6063
X4.4882Y-4.7244
X4.525Y-1.9
X4.6Y-2.3
X4.625Y-4.125
X4.725Y-4.125
X4.775Y-2.
X4.985Y-3.
X4.985Y-4.085
X5.Y-2.625
X5.05Y-3.45
X5.05Y-3.625
X5.1181Y-4.1732
X5.15Y-2.65
X5.15Y-2.85
X5.15Y-3.45
X5.175Y-2.75
X5.22Y-3.505
X5.225Y-3.875
X5.325Y-3.
X5.325Y-3.4
X5.575Y-2.925
X5.575Y-3.475
X5.675Y-2.925
X5.675Y-3.475
X5.85Y-2.725
X5.925Y-2.075
X5.94Y-4.64
X6.025Y-1.675
X6.175Y-1.975
X6.175Y-4.45
X6.25Y-3.775
X6.35Y-1.8
X6.425Y-1.85
X6.525Y-2.85
X6.525Y-4.1
X6.55Y-4.8
X6.6Y-2.3
X6.65Y-3.05
X6.95Y-5.025
T3
X3.55Y-2.9
X3.55Y-3.
X3.55Y-3.1
X3.55Y-3.2
X3.55Y-3.3
X3.55Y-3.4
X3.55Y-3.5
X3.65Y-2.9
X3.65Y-3.
X3.65Y-3.1
X3.65Y-3.2
X3.65Y-3.3
X3.65Y-3.4
X3.65Y-3.5
T0
M30
