G04 (created by PCBNEW (2013-may-18)-stable) date Пт 28 авг 2015 20:38:37*
%MOIN*%
G04 Gerber Fmt 3.4, Leading zero omitted, Abs format*
%FSLAX34Y34*%
G01*
G70*
G90*
G04 APERTURE LIST*
%ADD10C,0.00590551*%
%ADD11R,0.023622X0.0590551*%
%ADD12R,0.02X0.05*%
%ADD13R,0.055X0.035*%
%ADD14R,0.035X0.055*%
%ADD15R,0.0629X0.0709*%
%ADD16R,0.0709X0.0629*%
%ADD17C,0.393701*%
%ADD18R,0.0590551X0.0787402*%
%ADD19R,0.0551181X0.0314961*%
G04 APERTURE END LIST*
G54D10*
G54D11*
X50273Y-33062D03*
X50765Y-33062D03*
X51250Y-33062D03*
X51750Y-33062D03*
X52242Y-33062D03*
X52734Y-33062D03*
X53226Y-33062D03*
X53226Y-30937D03*
X52734Y-30937D03*
X52242Y-30937D03*
X51750Y-30937D03*
X51257Y-30937D03*
X50765Y-30937D03*
X50273Y-30937D03*
G54D12*
X58500Y-30100D03*
X58000Y-30100D03*
X57500Y-30100D03*
X57000Y-30100D03*
X56500Y-30100D03*
X56000Y-30100D03*
X55500Y-30100D03*
X55000Y-30100D03*
X54500Y-30100D03*
X54000Y-30100D03*
X54000Y-33900D03*
X54500Y-33900D03*
X55000Y-33900D03*
X55500Y-33900D03*
X56000Y-33900D03*
X56500Y-33900D03*
X57000Y-33900D03*
X57500Y-33900D03*
X58000Y-33900D03*
X58500Y-33900D03*
G54D13*
X51500Y-37875D03*
X51500Y-37125D03*
X31500Y-46475D03*
X31500Y-45725D03*
X22800Y-32525D03*
X22800Y-31775D03*
X31500Y-18475D03*
X31500Y-17725D03*
X58500Y-28875D03*
X58500Y-28125D03*
X50750Y-28875D03*
X50750Y-28125D03*
G54D14*
X43682Y-18897D03*
X42932Y-18897D03*
X69875Y-23500D03*
X69125Y-23500D03*
G54D13*
X50000Y-37125D03*
X50000Y-37875D03*
G54D14*
X43682Y-44881D03*
X42932Y-44881D03*
X69125Y-40500D03*
X69875Y-40500D03*
G54D13*
X67250Y-37125D03*
X67250Y-37875D03*
X69500Y-27875D03*
X69500Y-27125D03*
G54D15*
X43866Y-16535D03*
X42748Y-16535D03*
X43866Y-17716D03*
X42748Y-17716D03*
X43866Y-47244D03*
X42748Y-47244D03*
X43866Y-46062D03*
X42748Y-46062D03*
G54D16*
X68440Y-38123D03*
X68440Y-37005D03*
G54D11*
X41273Y-39562D03*
X41765Y-39562D03*
X42250Y-39562D03*
X42750Y-39562D03*
X43242Y-39562D03*
X43734Y-39562D03*
X44226Y-39562D03*
X44226Y-37437D03*
X43734Y-37437D03*
X43242Y-37437D03*
X42750Y-37437D03*
X42257Y-37437D03*
X41765Y-37437D03*
X41273Y-37437D03*
G54D13*
X60250Y-45625D03*
X60250Y-46375D03*
X60250Y-18375D03*
X60250Y-17625D03*
G54D14*
X41625Y-36000D03*
X42375Y-36000D03*
X41875Y-40750D03*
X41125Y-40750D03*
G54D17*
X62500Y-29519D03*
X62500Y-34519D03*
G54D18*
X67574Y-29007D03*
X69543Y-29007D03*
X67574Y-35110D03*
X69543Y-35110D03*
G54D19*
X58051Y-19980D03*
X60226Y-20472D03*
X60226Y-19488D03*
X58051Y-43980D03*
X60226Y-44472D03*
X60226Y-43488D03*
M02*
