G75*
%MOIN*%
%OFA0B0*%
%FSLAX24Y24*%
%IPPOS*%
%LPD*%
%AMOC8*
5,1,8,0,0,1.08239X$1,22.5*
%
%ADD10R,0.0266X0.0010*%
%ADD11R,0.0581X0.0010*%
%ADD12R,0.0787X0.0010*%
%ADD13R,0.0965X0.0010*%
%ADD14R,0.1112X0.0010*%
%ADD15R,0.1240X0.0010*%
%ADD16R,0.1358X0.0010*%
%ADD17R,0.1467X0.0010*%
%ADD18R,0.1565X0.0010*%
%ADD19R,0.1654X0.0010*%
%ADD20R,0.1732X0.0010*%
%ADD21R,0.1821X0.0010*%
%ADD22R,0.1880X0.0010*%
%ADD23R,0.1959X0.0010*%
%ADD24R,0.2008X0.0010*%
%ADD25R,0.2077X0.0010*%
%ADD26R,0.2126X0.0010*%
%ADD27R,0.2165X0.0010*%
%ADD28R,0.2195X0.0010*%
%ADD29R,0.1831X0.0010*%
%ADD30R,0.1535X0.0010*%
%ADD31R,0.1437X0.0010*%
%ADD32R,0.1289X0.0010*%
%ADD33R,0.1230X0.0010*%
%ADD34R,0.1171X0.0010*%
%ADD35R,0.1073X0.0010*%
%ADD36R,0.1024X0.0010*%
%ADD37R,0.0994X0.0010*%
%ADD38R,0.0955X0.0010*%
%ADD39R,0.0915X0.0010*%
%ADD40R,0.0886X0.0010*%
%ADD41R,0.0856X0.0010*%
%ADD42R,0.0827X0.0010*%
%ADD43R,0.0797X0.0010*%
%ADD44R,0.0768X0.0010*%
%ADD45R,0.0748X0.0010*%
%ADD46R,0.0719X0.0010*%
%ADD47R,0.0699X0.0010*%
%ADD48R,0.0679X0.0010*%
%ADD49R,0.0659X0.0010*%
%ADD50R,0.0640X0.0010*%
%ADD51R,0.0620X0.0010*%
%ADD52R,0.0600X0.0010*%
%ADD53R,0.0561X0.0010*%
%ADD54R,0.0551X0.0010*%
%ADD55R,0.0541X0.0010*%
%ADD56R,0.0522X0.0010*%
%ADD57R,0.0502X0.0010*%
%ADD58R,0.0492X0.0010*%
%ADD59R,0.0482X0.0010*%
%ADD60R,0.0463X0.0010*%
%ADD61R,0.0453X0.0010*%
%ADD62R,0.0443X0.0010*%
%ADD63R,0.0433X0.0010*%
%ADD64R,0.0413X0.0010*%
%ADD65R,0.0404X0.0010*%
%ADD66R,0.0394X0.0010*%
%ADD67R,0.0384X0.0010*%
%ADD68R,0.0374X0.0010*%
%ADD69R,0.0364X0.0010*%
%ADD70R,0.0354X0.0010*%
%ADD71R,0.0344X0.0010*%
%ADD72R,0.0335X0.0010*%
%ADD73R,0.0325X0.0010*%
%ADD74R,0.0315X0.0010*%
%ADD75R,0.0305X0.0010*%
%ADD76R,0.0295X0.0010*%
%ADD77R,0.0285X0.0010*%
%ADD78R,0.0276X0.0010*%
%ADD79R,0.0256X0.0010*%
%ADD80R,0.0236X0.0010*%
%ADD81R,0.0226X0.0010*%
%ADD82R,0.0217X0.0010*%
%ADD83R,0.0207X0.0010*%
%ADD84R,0.0197X0.0010*%
%ADD85R,0.0187X0.0010*%
%ADD86R,0.0177X0.0010*%
%ADD87R,0.0512X0.0010*%
%ADD88R,0.0669X0.0010*%
%ADD89R,0.0709X0.0010*%
%ADD90R,0.0728X0.0010*%
%ADD91R,0.0738X0.0010*%
%ADD92R,0.0758X0.0010*%
%ADD93R,0.0778X0.0010*%
%ADD94R,0.0689X0.0010*%
%ADD95R,0.0650X0.0010*%
%ADD96R,0.0630X0.0010*%
%ADD97R,0.0610X0.0010*%
%ADD98R,0.0591X0.0010*%
%ADD99R,0.0571X0.0010*%
%ADD100R,0.0531X0.0010*%
%ADD101R,0.0423X0.0010*%
%ADD102R,0.0246X0.0010*%
%ADD103R,0.0472X0.0010*%
%ADD104R,0.0817X0.0010*%
%ADD105R,0.0846X0.0010*%
%ADD106R,0.0876X0.0010*%
%ADD107R,0.0906X0.0010*%
%ADD108R,0.0945X0.0010*%
%ADD109R,0.0984X0.0010*%
%ADD110R,0.1014X0.0010*%
%ADD111R,0.1063X0.0010*%
%ADD112R,0.1122X0.0010*%
%ADD113R,0.1161X0.0010*%
%ADD114R,0.1299X0.0010*%
%ADD115R,0.1378X0.0010*%
%ADD116R,0.1604X0.0010*%
%ADD117R,0.1841X0.0010*%
%ADD118R,0.1801X0.0010*%
%ADD119R,0.1742X0.0010*%
%ADD120R,0.1683X0.0010*%
%ADD121R,0.1634X0.0010*%
%ADD122R,0.1486X0.0010*%
%ADD123R,0.1417X0.0010*%
%ADD124R,0.1329X0.0010*%
%ADD125R,0.1250X0.0010*%
%ADD126R,0.1152X0.0010*%
%ADD127R,0.1053X0.0010*%
%ADD128R,0.0935X0.0010*%
%ADD129R,0.0049X0.0010*%
%ADD130R,0.0089X0.0010*%
%ADD131R,0.0128X0.0010*%
%ADD132R,0.0138X0.0010*%
%ADD133R,0.0148X0.0010*%
%ADD134R,0.0167X0.0010*%
%ADD135R,0.0069X0.0010*%
%ADD136R,0.0157X0.0010*%
%ADD137R,0.0807X0.0010*%
D10*
X004431Y012424D03*
X005691Y014638D03*
X005701Y015229D03*
X005711Y015239D03*
X007837Y013831D03*
X007817Y013172D03*
X007807Y013162D03*
X008683Y015957D03*
X008831Y016223D03*
X008831Y017168D03*
X008487Y017640D03*
X008831Y017867D03*
D11*
X007325Y014087D03*
X007217Y012876D03*
X004559Y012433D03*
D12*
X004653Y012443D03*
X006602Y014284D03*
X006641Y014274D03*
X006828Y014225D03*
X006868Y014215D03*
X006651Y015622D03*
D13*
X004732Y012453D03*
D14*
X004796Y012463D03*
X006370Y012689D03*
D15*
X004860Y012473D03*
D16*
X004909Y012483D03*
X006080Y012650D03*
D17*
X004963Y012493D03*
X007522Y015760D03*
D18*
X008083Y015849D03*
X005012Y012502D03*
D19*
X005056Y012512D03*
X005785Y012620D03*
D20*
X005096Y012522D03*
D21*
X005140Y012532D03*
X007798Y015780D03*
D22*
X007876Y015790D03*
X005180Y012542D03*
D23*
X005219Y012552D03*
D24*
X005253Y012561D03*
D25*
X005288Y012571D03*
D26*
X005322Y012581D03*
D27*
X005362Y012591D03*
D28*
X005406Y012601D03*
D29*
X005647Y012611D03*
D30*
X005893Y012630D03*
D31*
X005992Y012640D03*
D32*
X006164Y012660D03*
D33*
X006233Y012670D03*
X007266Y015731D03*
D34*
X006302Y012680D03*
D35*
X006430Y012699D03*
D36*
X006494Y012709D03*
D37*
X006548Y012719D03*
D38*
X006607Y012729D03*
D39*
X006656Y012739D03*
D40*
X006710Y012748D03*
D41*
X006754Y012758D03*
D42*
X006799Y012768D03*
X008826Y017709D03*
D43*
X008447Y015928D03*
X006794Y014235D03*
X006754Y014244D03*
X006715Y014254D03*
X006676Y014264D03*
X006843Y012778D03*
D44*
X006887Y012788D03*
X006946Y014195D03*
X006562Y014294D03*
X006523Y014304D03*
D45*
X006927Y012798D03*
D46*
X006971Y012807D03*
X006528Y015593D03*
X008831Y017758D03*
D47*
X007128Y014146D03*
X007010Y012817D03*
D48*
X007050Y012827D03*
D49*
X007079Y012837D03*
X007197Y014126D03*
X008516Y015937D03*
X008831Y017778D03*
D50*
X007227Y014117D03*
X007119Y012847D03*
D51*
X007148Y012857D03*
X007266Y014107D03*
D52*
X007296Y014097D03*
X007187Y012867D03*
X008831Y017798D03*
D53*
X008831Y017807D03*
X007355Y014077D03*
X007246Y012886D03*
D54*
X007281Y012896D03*
X006119Y014422D03*
X006257Y015514D03*
D55*
X007384Y014067D03*
X007306Y012906D03*
D56*
X007335Y012916D03*
X007414Y014057D03*
D57*
X007365Y012926D03*
X006144Y015475D03*
D58*
X006031Y014451D03*
X007389Y012935D03*
X007468Y014038D03*
X008590Y015947D03*
D59*
X008831Y017827D03*
X007493Y014028D03*
X007414Y012945D03*
X006006Y014461D03*
D60*
X006095Y015455D03*
X007433Y012955D03*
D61*
X007458Y012965D03*
X007517Y014018D03*
X006070Y015445D03*
X005982Y014471D03*
D62*
X005957Y014481D03*
X006046Y015435D03*
X007542Y014008D03*
X007483Y012975D03*
X008831Y017837D03*
D63*
X007566Y013998D03*
X007507Y012985D03*
D64*
X007527Y012994D03*
X007606Y013979D03*
X007586Y013989D03*
X008826Y016361D03*
X008826Y017306D03*
X008826Y017315D03*
X008826Y017325D03*
X008826Y017335D03*
X006001Y015416D03*
X005913Y014500D03*
D65*
X005977Y015406D03*
X007552Y013004D03*
X008831Y016351D03*
X008831Y017266D03*
X008831Y017276D03*
X008831Y017286D03*
X008831Y017296D03*
X008831Y017345D03*
X008831Y017355D03*
X008831Y017365D03*
X008831Y017374D03*
X008605Y017699D03*
X009048Y017699D03*
D66*
X008826Y017847D03*
X008826Y017384D03*
X008826Y016341D03*
X007625Y013969D03*
X007566Y013014D03*
X005962Y015396D03*
X005893Y014510D03*
D67*
X005937Y015386D03*
X007591Y013024D03*
X008831Y016331D03*
X008831Y017246D03*
X008831Y017256D03*
X008831Y017394D03*
X008831Y017404D03*
D68*
X008826Y017237D03*
X007645Y013959D03*
X007665Y013949D03*
X007606Y013034D03*
X005923Y015376D03*
X005854Y014530D03*
X005873Y014520D03*
D69*
X007630Y013044D03*
X008831Y016311D03*
X008831Y016321D03*
X008831Y017227D03*
X008831Y017414D03*
X008831Y017424D03*
D70*
X008826Y017217D03*
X007684Y013939D03*
X007645Y013054D03*
X005834Y014540D03*
X005883Y015357D03*
X005903Y015367D03*
D71*
X005869Y015347D03*
X005819Y014550D03*
X007699Y013930D03*
X007660Y013063D03*
X008831Y016292D03*
X008831Y016302D03*
X008831Y017207D03*
X008831Y017433D03*
D72*
X008570Y017689D03*
X008826Y017857D03*
X009092Y017689D03*
X007714Y013920D03*
X007684Y013073D03*
X005805Y014559D03*
X005834Y015327D03*
X005854Y015337D03*
D73*
X005819Y015317D03*
X005790Y014569D03*
X007729Y013910D03*
X007699Y013083D03*
X008831Y016272D03*
X008831Y016282D03*
X008831Y017197D03*
X008831Y017443D03*
D74*
X008826Y017453D03*
X009112Y017680D03*
X007744Y013900D03*
X007714Y013093D03*
X005805Y015307D03*
D75*
X005790Y015298D03*
X005770Y014579D03*
X007729Y013103D03*
X007739Y013113D03*
X007758Y013890D03*
X008831Y016262D03*
X008831Y017187D03*
X008831Y017463D03*
X008546Y017680D03*
D76*
X008531Y017670D03*
X008826Y017178D03*
X009131Y017670D03*
X008826Y016252D03*
X007773Y013880D03*
X007783Y013870D03*
X007753Y013122D03*
X005775Y015288D03*
X005745Y014599D03*
X005755Y014589D03*
D77*
X005731Y014609D03*
X005750Y015268D03*
X005760Y015278D03*
X007798Y013861D03*
X007768Y013132D03*
X008831Y016243D03*
X008831Y017473D03*
X008516Y017660D03*
X009146Y017660D03*
D78*
X009161Y017650D03*
X008501Y017650D03*
X008826Y016233D03*
X007812Y013851D03*
X007822Y013841D03*
X007793Y013152D03*
X007783Y013142D03*
X005716Y014619D03*
X005706Y014628D03*
X005726Y015248D03*
X005736Y015258D03*
D79*
X005686Y014648D03*
X007842Y013821D03*
X007852Y013811D03*
X007862Y013802D03*
X007852Y013201D03*
X007842Y013191D03*
X007832Y013181D03*
X008826Y017483D03*
X009171Y017640D03*
X009181Y017630D03*
D80*
X009200Y017611D03*
X009210Y017601D03*
X009220Y017591D03*
X007871Y013792D03*
X007881Y013782D03*
X007891Y013772D03*
X007891Y013241D03*
X007881Y013231D03*
X007871Y013221D03*
X007862Y013211D03*
X005657Y014678D03*
X005647Y014687D03*
X005637Y014697D03*
D81*
X005632Y014707D03*
X005622Y014717D03*
X005642Y015170D03*
X005652Y015180D03*
X007896Y013762D03*
X007906Y013752D03*
X007916Y013733D03*
X007906Y013260D03*
X007896Y013250D03*
X008831Y016183D03*
X008831Y016193D03*
X008831Y017148D03*
X008831Y017493D03*
X008447Y017601D03*
X008437Y017591D03*
X009225Y017581D03*
X009235Y017571D03*
D82*
X009240Y017561D03*
X009249Y017552D03*
X008432Y017581D03*
X008423Y017571D03*
X008413Y017552D03*
X007911Y013743D03*
X007921Y013723D03*
X007931Y013713D03*
X007921Y013280D03*
X007911Y013270D03*
X005637Y015160D03*
X005627Y015150D03*
X005618Y015140D03*
X005618Y015130D03*
X005608Y015120D03*
X005608Y014737D03*
X005618Y014727D03*
D83*
X005603Y014746D03*
X005603Y014756D03*
X005593Y014766D03*
X005593Y015091D03*
X005603Y015111D03*
X007935Y013703D03*
X007935Y013693D03*
X007945Y013683D03*
X007945Y013319D03*
X007935Y013309D03*
X007935Y013300D03*
X007926Y013290D03*
X008831Y016174D03*
X008723Y016370D03*
X008713Y016380D03*
X008713Y016390D03*
X008703Y016400D03*
X008703Y016410D03*
X008693Y016420D03*
X008683Y016439D03*
X008674Y016459D03*
X008664Y016479D03*
X008654Y016498D03*
X008644Y016518D03*
X008634Y016528D03*
X008634Y016538D03*
X008624Y016548D03*
X008624Y016557D03*
X008615Y016567D03*
X008615Y016577D03*
X008605Y016587D03*
X008605Y016597D03*
X008595Y016607D03*
X008595Y016617D03*
X008585Y016626D03*
X008585Y016636D03*
X008575Y016656D03*
X008565Y016676D03*
X008556Y016695D03*
X008546Y016715D03*
X008536Y016735D03*
X008526Y016754D03*
X008516Y016774D03*
X008506Y016794D03*
X008989Y016469D03*
X008989Y016459D03*
X008979Y016449D03*
X008979Y016439D03*
X008969Y016430D03*
X008969Y016420D03*
X008959Y016410D03*
X008959Y016400D03*
X008949Y016390D03*
X008939Y016370D03*
X008998Y016479D03*
X009008Y016498D03*
X009018Y016518D03*
X009028Y016538D03*
X009038Y016557D03*
X009048Y016577D03*
X009057Y016597D03*
X009067Y016617D03*
X009077Y016636D03*
X009087Y016656D03*
X009097Y016676D03*
X009107Y016695D03*
X009117Y016715D03*
X009126Y016735D03*
X009166Y016823D03*
X009176Y016843D03*
X009264Y017522D03*
X009264Y017532D03*
X009254Y017542D03*
X008418Y017561D03*
X008408Y017542D03*
X008398Y017532D03*
X008388Y017512D03*
D84*
X008383Y017502D03*
X008383Y017493D03*
X008373Y017483D03*
X008373Y017473D03*
X008364Y017453D03*
X008393Y017522D03*
X008383Y017099D03*
X008393Y017069D03*
X008403Y017040D03*
X008413Y017020D03*
X008413Y017010D03*
X008423Y016991D03*
X008423Y016981D03*
X008432Y016971D03*
X008432Y016961D03*
X008442Y016951D03*
X008442Y016941D03*
X008442Y016931D03*
X008452Y016922D03*
X008452Y016912D03*
X008462Y016902D03*
X008462Y016892D03*
X008472Y016882D03*
X008472Y016872D03*
X008472Y016863D03*
X008482Y016853D03*
X008482Y016843D03*
X008492Y016833D03*
X008492Y016823D03*
X008501Y016813D03*
X008501Y016804D03*
X008511Y016784D03*
X008521Y016764D03*
X008531Y016744D03*
X008541Y016725D03*
X008551Y016705D03*
X008560Y016685D03*
X008570Y016666D03*
X008580Y016646D03*
X008649Y016508D03*
X008659Y016489D03*
X008669Y016469D03*
X008679Y016449D03*
X008688Y016430D03*
X008826Y016164D03*
X008944Y016380D03*
X009003Y016489D03*
X009013Y016508D03*
X009023Y016528D03*
X009033Y016548D03*
X009043Y016567D03*
X009053Y016587D03*
X009062Y016607D03*
X009072Y016626D03*
X009082Y016646D03*
X009092Y016666D03*
X009102Y016685D03*
X009112Y016705D03*
X009121Y016725D03*
X009131Y016744D03*
X009131Y016754D03*
X009141Y016764D03*
X009141Y016774D03*
X009151Y016784D03*
X009151Y016794D03*
X009161Y016804D03*
X009161Y016813D03*
X009171Y016833D03*
X009181Y016853D03*
X009181Y016863D03*
X009190Y016872D03*
X009190Y016882D03*
X009200Y016892D03*
X009200Y016902D03*
X009210Y016912D03*
X009210Y016922D03*
X009210Y016931D03*
X009220Y016941D03*
X009220Y016951D03*
X009230Y016961D03*
X009230Y016971D03*
X009240Y016991D03*
X009240Y017000D03*
X009249Y017020D03*
X009259Y017040D03*
X009259Y017050D03*
X009269Y017069D03*
X009279Y017099D03*
X009289Y017128D03*
X009299Y017443D03*
X009299Y017453D03*
X009289Y017473D03*
X009289Y017483D03*
X009279Y017493D03*
X009279Y017502D03*
X009269Y017512D03*
X008826Y017502D03*
X007950Y013674D03*
X007950Y013664D03*
X007960Y013654D03*
X007960Y013644D03*
X007970Y013624D03*
X007970Y013615D03*
X007970Y013378D03*
X007960Y013359D03*
X007960Y013349D03*
X007950Y013339D03*
X007950Y013329D03*
X005588Y014776D03*
X005588Y014786D03*
X005578Y014796D03*
X005578Y014806D03*
X005578Y015061D03*
X005578Y015071D03*
X005588Y015081D03*
X005598Y015101D03*
D85*
X005573Y015052D03*
X005573Y015042D03*
X005563Y015032D03*
X005563Y015022D03*
X005563Y015012D03*
X005563Y015002D03*
X005554Y014983D03*
X005554Y014973D03*
X005554Y014963D03*
X005554Y014953D03*
X005554Y014943D03*
X005554Y014933D03*
X005554Y014924D03*
X005554Y014914D03*
X005554Y014904D03*
X005554Y014894D03*
X005563Y014865D03*
X005563Y014855D03*
X005563Y014845D03*
X005563Y014835D03*
X005573Y014825D03*
X005573Y014815D03*
X007965Y013634D03*
X007975Y013605D03*
X007975Y013595D03*
X007975Y013585D03*
X007985Y013565D03*
X007985Y013556D03*
X007985Y013546D03*
X007985Y013536D03*
X007985Y013526D03*
X007985Y013516D03*
X007985Y013457D03*
X007985Y013447D03*
X007985Y013437D03*
X007985Y013428D03*
X007985Y013418D03*
X007975Y013408D03*
X007975Y013398D03*
X007975Y013388D03*
X007965Y013369D03*
X008831Y016154D03*
X009235Y016981D03*
X009244Y017010D03*
X009254Y017030D03*
X009264Y017059D03*
X009274Y017079D03*
X009274Y017089D03*
X009284Y017109D03*
X009284Y017119D03*
X009294Y017138D03*
X009294Y017148D03*
X009294Y017158D03*
X009304Y017168D03*
X009304Y017178D03*
X009304Y017187D03*
X009304Y017197D03*
X009313Y017207D03*
X009313Y017217D03*
X009313Y017227D03*
X009313Y017237D03*
X009323Y017266D03*
X009323Y017276D03*
X009323Y017286D03*
X009323Y017296D03*
X009323Y017306D03*
X009323Y017315D03*
X009323Y017325D03*
X009323Y017335D03*
X009313Y017374D03*
X009313Y017384D03*
X009313Y017394D03*
X009313Y017404D03*
X009304Y017424D03*
X009304Y017433D03*
X009294Y017463D03*
X008831Y017138D03*
X008418Y017000D03*
X008408Y017030D03*
X008398Y017050D03*
X008398Y017059D03*
X008388Y017079D03*
X008388Y017089D03*
X008378Y017109D03*
X008378Y017119D03*
X008369Y017128D03*
X008369Y017138D03*
X008369Y017148D03*
X008359Y017158D03*
X008359Y017168D03*
X008359Y017178D03*
X008359Y017187D03*
X008349Y017197D03*
X008349Y017207D03*
X008349Y017217D03*
X008349Y017227D03*
X008339Y017256D03*
X008339Y017266D03*
X008339Y017276D03*
X008339Y017286D03*
X008339Y017296D03*
X008339Y017306D03*
X008339Y017315D03*
X008339Y017325D03*
X008339Y017335D03*
X008339Y017345D03*
X008339Y017355D03*
X008339Y017365D03*
X008349Y017394D03*
X008349Y017404D03*
X008349Y017414D03*
X008359Y017424D03*
X008359Y017433D03*
X008359Y017443D03*
X008369Y017463D03*
D86*
X008344Y017384D03*
X008344Y017374D03*
X008344Y017246D03*
X008344Y017237D03*
X008826Y016144D03*
X009318Y017246D03*
X009318Y017256D03*
X009318Y017345D03*
X009318Y017355D03*
X009318Y017365D03*
X009308Y017414D03*
X007980Y013575D03*
X007990Y013506D03*
X007990Y013496D03*
X007990Y013487D03*
X007990Y013477D03*
X007990Y013467D03*
X005558Y014874D03*
X005558Y014884D03*
X005558Y014993D03*
D87*
X006060Y014441D03*
X006169Y015485D03*
X007438Y014048D03*
D88*
X007163Y014136D03*
X006454Y015573D03*
X006306Y014363D03*
D89*
X006375Y014343D03*
X007094Y014156D03*
D90*
X007055Y014166D03*
X006415Y014333D03*
D91*
X006449Y014323D03*
X007020Y014176D03*
X006567Y015603D03*
X008831Y017748D03*
D92*
X008831Y017739D03*
X006981Y014185D03*
X006489Y014313D03*
X006607Y015613D03*
D93*
X006902Y014205D03*
X008831Y017729D03*
D94*
X008826Y017768D03*
X006494Y015583D03*
X006346Y014353D03*
D95*
X006277Y014372D03*
X006415Y015563D03*
D96*
X006385Y015554D03*
X006238Y014382D03*
X008826Y017788D03*
D97*
X006346Y015544D03*
X006208Y014392D03*
D98*
X006179Y014402D03*
X006316Y015534D03*
D99*
X006287Y015524D03*
X006149Y014412D03*
D100*
X006090Y014431D03*
X006198Y015494D03*
X006228Y015504D03*
X008826Y017817D03*
D101*
X006026Y015426D03*
X005937Y014491D03*
D102*
X005672Y014658D03*
X005662Y014668D03*
X005662Y015189D03*
X005672Y015199D03*
X005681Y015209D03*
X005691Y015219D03*
X008457Y017611D03*
X008467Y017620D03*
X008477Y017630D03*
X008831Y017158D03*
X009195Y017620D03*
X008831Y016213D03*
X008831Y016203D03*
D103*
X006119Y015465D03*
D104*
X006695Y015632D03*
D105*
X006740Y015642D03*
D106*
X006784Y015652D03*
D107*
X006838Y015662D03*
D108*
X006887Y015672D03*
D109*
X006946Y015681D03*
D110*
X007000Y015691D03*
D111*
X007064Y015701D03*
D112*
X007123Y015711D03*
D113*
X007192Y015721D03*
D114*
X007340Y015741D03*
D115*
X007429Y015750D03*
D116*
X007630Y015770D03*
D117*
X007906Y015800D03*
D118*
X007945Y015809D03*
D119*
X007975Y015819D03*
D120*
X008014Y015829D03*
D121*
X008049Y015839D03*
D122*
X008122Y015859D03*
D123*
X008157Y015869D03*
D124*
X008201Y015878D03*
D125*
X008241Y015888D03*
D126*
X008290Y015898D03*
D127*
X008339Y015908D03*
D128*
X008388Y015918D03*
D129*
X008831Y016085D03*
D130*
X008831Y016095D03*
X008831Y017522D03*
D131*
X008831Y016105D03*
D132*
X008826Y016115D03*
D133*
X008831Y016124D03*
X008831Y017128D03*
D134*
X008831Y016134D03*
D135*
X008831Y017119D03*
D136*
X008826Y017512D03*
X008826Y017876D03*
D137*
X008826Y017719D03*
M02*
