G75*
%MOIN*%
%OFA0B0*%
%FSLAX24Y24*%
%IPPOS*%
%LPD*%
%AMOC8*
5,1,8,0,0,1.08239X$1,22.5*
%
%ADD10C,0.0100*%
%ADD11C,0.2756*%
%ADD12R,0.0710X0.0630*%
%ADD13R,0.0236X0.1181*%
%ADD14R,0.0591X0.0512*%
%ADD15C,0.2362*%
D10*
X001661Y004415D02*
X001904Y004275D01*
X002175Y004203D01*
X002315Y004193D01*
X002612Y004193D01*
X002795Y004117D01*
X002936Y003977D01*
X003012Y003793D01*
X003012Y001437D01*
X010674Y001437D01*
X010674Y003793D01*
X010750Y003977D01*
X010890Y004117D01*
X011074Y004193D01*
X011370Y004193D01*
X011511Y004203D01*
X011782Y004275D01*
X012025Y004415D01*
X012223Y004614D01*
X012363Y004857D01*
X012436Y005128D01*
X012436Y005408D01*
X012363Y005679D01*
X012223Y005922D01*
X012025Y006121D01*
X011782Y006261D01*
X011511Y006334D01*
X011370Y006343D01*
X011074Y006343D01*
X010890Y006419D01*
X010750Y006560D01*
X010674Y006743D01*
X010674Y009599D01*
X008755Y009599D01*
X008755Y009122D01*
X008886Y008991D01*
X008991Y008886D01*
X008991Y008745D01*
X009010Y008745D01*
X009393Y008642D01*
X009737Y008443D01*
X010018Y008163D01*
X010217Y007819D01*
X010319Y007435D01*
X010319Y007038D01*
X010217Y006655D01*
X010018Y006311D01*
X009737Y006030D01*
X009393Y005831D01*
X009010Y005729D01*
X008613Y005729D01*
X008229Y005831D01*
X007886Y006030D01*
X007605Y006311D01*
X007406Y006655D01*
X007303Y007038D01*
X007303Y007435D01*
X007406Y007819D01*
X007605Y008163D01*
X007886Y008443D01*
X008229Y008642D01*
X008613Y008745D01*
X008624Y008745D01*
X008395Y008973D01*
X008395Y009599D01*
X007102Y009599D01*
X007102Y006375D01*
X005437Y004710D01*
X005456Y004705D01*
X005800Y004506D01*
X006081Y004226D01*
X006280Y003882D01*
X006382Y003498D01*
X006382Y003101D01*
X006280Y002718D01*
X006081Y002374D01*
X005800Y002093D01*
X005456Y001894D01*
X005073Y001792D01*
X004676Y001792D01*
X004292Y001894D01*
X003949Y002093D01*
X003668Y002374D01*
X003469Y002718D01*
X003366Y003101D01*
X003366Y003498D01*
X003469Y003882D01*
X003668Y004226D01*
X003949Y004506D01*
X004292Y004705D01*
X004676Y004808D01*
X005025Y004808D01*
X006742Y006524D01*
X006742Y009599D01*
X003012Y009599D01*
X003024Y009638D01*
X003024Y023575D01*
X002827Y023772D01*
X002315Y023772D01*
X002315Y025347D02*
X002236Y025345D01*
X002158Y025339D01*
X002080Y025329D01*
X002003Y025316D01*
X001926Y025298D01*
X001851Y025277D01*
X001776Y025252D01*
X001703Y025223D01*
X001632Y025191D01*
X001562Y025155D01*
X001494Y025116D01*
X001428Y025073D01*
X001364Y025027D01*
X001303Y024979D01*
X001244Y024927D01*
X001188Y024872D01*
X001134Y024814D01*
X001084Y024754D01*
X001036Y024691D01*
X000992Y024627D01*
X000951Y024559D01*
X000913Y024491D01*
X000879Y024420D01*
X000849Y024347D01*
X000822Y024274D01*
X000799Y024199D01*
X000779Y024122D01*
X000764Y024045D01*
X000752Y023968D01*
X000744Y023890D01*
X000740Y023811D01*
X000740Y023733D01*
X000744Y023654D01*
X000752Y023576D01*
X000764Y023499D01*
X000779Y023422D01*
X000799Y023345D01*
X000822Y023270D01*
X000849Y023197D01*
X000879Y023124D01*
X000913Y023053D01*
X000951Y022984D01*
X000992Y022917D01*
X001036Y022853D01*
X001084Y022790D01*
X001134Y022730D01*
X001188Y022672D01*
X001244Y022617D01*
X001303Y022565D01*
X001364Y022517D01*
X001428Y022471D01*
X001494Y022428D01*
X001562Y022389D01*
X001632Y022353D01*
X001703Y022321D01*
X001776Y022292D01*
X001851Y022267D01*
X001926Y022246D01*
X002003Y022228D01*
X002080Y022215D01*
X002158Y022205D01*
X002236Y022199D01*
X002315Y022197D01*
X002512Y022197D01*
X002512Y006843D01*
X002315Y006843D01*
X002315Y006343D02*
X002175Y006334D01*
X001904Y006261D01*
X001661Y006121D01*
X001463Y005922D01*
X001322Y005679D01*
X001250Y005408D01*
X001250Y005128D01*
X001322Y004857D01*
X001463Y004614D01*
X001661Y004415D01*
X001714Y004385D02*
X003827Y004385D01*
X003729Y004286D02*
X001884Y004286D01*
X001593Y004483D02*
X003926Y004483D01*
X004080Y004582D02*
X001495Y004582D01*
X001424Y004680D02*
X004250Y004680D01*
X004569Y004779D02*
X001367Y004779D01*
X001317Y004877D02*
X005095Y004877D01*
X005194Y004976D02*
X001290Y004976D01*
X001264Y005074D02*
X005292Y005074D01*
X005391Y005173D02*
X001250Y005173D01*
X001250Y005271D02*
X005489Y005271D01*
X005588Y005370D02*
X001250Y005370D01*
X001266Y005468D02*
X005686Y005468D01*
X005785Y005567D02*
X001292Y005567D01*
X001319Y005665D02*
X005883Y005665D01*
X005982Y005764D02*
X005283Y005764D01*
X005246Y005753D02*
X005390Y005796D01*
X005528Y005854D01*
X005661Y005924D01*
X005786Y006008D01*
X005902Y006103D01*
X006008Y006209D01*
X006103Y006325D01*
X006187Y006450D01*
X006257Y006583D01*
X006315Y006721D01*
X006358Y006865D01*
X006388Y007012D01*
X006402Y007162D01*
X006402Y007187D01*
X004924Y007187D01*
X004924Y005709D01*
X004949Y005709D01*
X005099Y005723D01*
X005246Y005753D01*
X005545Y005862D02*
X006080Y005862D01*
X006179Y005961D02*
X005715Y005961D01*
X005849Y006059D02*
X006277Y006059D01*
X006376Y006158D02*
X005957Y006158D01*
X006047Y006256D02*
X006474Y006256D01*
X006573Y006355D02*
X006123Y006355D01*
X006188Y006453D02*
X006671Y006453D01*
X006742Y006552D02*
X006241Y006552D01*
X006285Y006650D02*
X006742Y006650D01*
X006742Y006749D02*
X006323Y006749D01*
X006353Y006847D02*
X006742Y006847D01*
X006742Y006946D02*
X006374Y006946D01*
X006391Y007044D02*
X006742Y007044D01*
X006742Y007143D02*
X006401Y007143D01*
X006402Y007287D02*
X006402Y007312D01*
X006388Y007461D01*
X006358Y007608D01*
X006315Y007752D01*
X006257Y007891D01*
X006187Y008023D01*
X006103Y008148D01*
X006008Y008264D01*
X005902Y008370D01*
X005786Y008465D01*
X005661Y008549D01*
X005528Y008620D01*
X005390Y008677D01*
X005246Y008721D01*
X005099Y008750D01*
X004949Y008765D01*
X004924Y008765D01*
X004924Y007287D01*
X004824Y007287D01*
X004824Y007187D01*
X003346Y007187D01*
X003346Y007162D01*
X003361Y007012D01*
X003390Y006865D01*
X003434Y006721D01*
X003491Y006583D01*
X003562Y006450D01*
X003646Y006325D01*
X003741Y006209D01*
X003847Y006103D01*
X003963Y006008D01*
X004088Y005924D01*
X004220Y005854D01*
X004359Y005796D01*
X004503Y005753D01*
X004650Y005723D01*
X004799Y005709D01*
X004824Y005709D01*
X004824Y007187D01*
X004924Y007187D01*
X004924Y007287D01*
X006402Y007287D01*
X006400Y007340D02*
X006742Y007340D01*
X006742Y007438D02*
X006390Y007438D01*
X006373Y007537D02*
X006742Y007537D01*
X006742Y007635D02*
X006350Y007635D01*
X006320Y007734D02*
X006742Y007734D01*
X006742Y007832D02*
X006281Y007832D01*
X006236Y007931D02*
X006742Y007931D01*
X006742Y008029D02*
X006182Y008029D01*
X006117Y008128D02*
X006742Y008128D01*
X006742Y008226D02*
X006039Y008226D01*
X005947Y008325D02*
X006742Y008325D01*
X006742Y008423D02*
X005837Y008423D01*
X005701Y008522D02*
X006742Y008522D01*
X006742Y008620D02*
X005526Y008620D01*
X005252Y008719D02*
X006742Y008719D01*
X006742Y008817D02*
X003012Y008817D01*
X003012Y008719D02*
X004497Y008719D01*
X004503Y008721D02*
X004359Y008677D01*
X004220Y008620D01*
X004088Y008549D01*
X003963Y008465D01*
X003847Y008370D01*
X003741Y008264D01*
X003646Y008148D01*
X003562Y008023D01*
X003491Y007891D01*
X003434Y007752D01*
X003390Y007608D01*
X003361Y007461D01*
X003346Y007312D01*
X003346Y007287D01*
X004824Y007287D01*
X004824Y008765D01*
X004799Y008765D01*
X004650Y008750D01*
X004503Y008721D01*
X004222Y008620D02*
X003012Y008620D01*
X003012Y008522D02*
X004048Y008522D01*
X003912Y008423D02*
X003012Y008423D01*
X003012Y008325D02*
X003802Y008325D01*
X003710Y008226D02*
X003012Y008226D01*
X003012Y008128D02*
X003632Y008128D01*
X003566Y008029D02*
X003012Y008029D01*
X003012Y007931D02*
X003513Y007931D01*
X003467Y007832D02*
X003012Y007832D01*
X003012Y007734D02*
X003429Y007734D01*
X003399Y007635D02*
X003012Y007635D01*
X003012Y007537D02*
X003376Y007537D01*
X003359Y007438D02*
X003012Y007438D01*
X003012Y007340D02*
X003349Y007340D01*
X003348Y007143D02*
X003012Y007143D01*
X003012Y007241D02*
X004824Y007241D01*
X004824Y007143D02*
X004924Y007143D01*
X004924Y007241D02*
X006742Y007241D01*
X007102Y007241D02*
X007303Y007241D01*
X007303Y007143D02*
X007102Y007143D01*
X007102Y007044D02*
X007303Y007044D01*
X007328Y006946D02*
X007102Y006946D01*
X007102Y006847D02*
X007355Y006847D01*
X007381Y006749D02*
X007102Y006749D01*
X007102Y006650D02*
X007409Y006650D01*
X007465Y006552D02*
X007102Y006552D01*
X007102Y006453D02*
X007522Y006453D01*
X007579Y006355D02*
X007082Y006355D01*
X006983Y006256D02*
X007659Y006256D01*
X007758Y006158D02*
X006885Y006158D01*
X006786Y006059D02*
X007856Y006059D01*
X008005Y005961D02*
X006688Y005961D01*
X006589Y005862D02*
X008176Y005862D01*
X008481Y005764D02*
X006491Y005764D01*
X006392Y005665D02*
X012367Y005665D01*
X012394Y005567D02*
X006294Y005567D01*
X006195Y005468D02*
X012420Y005468D01*
X012436Y005370D02*
X006097Y005370D01*
X005998Y005271D02*
X012436Y005271D01*
X012436Y005173D02*
X005900Y005173D01*
X005801Y005074D02*
X012422Y005074D01*
X012395Y004976D02*
X005703Y004976D01*
X005604Y004877D02*
X012369Y004877D01*
X012318Y004779D02*
X009117Y004779D01*
X009010Y004808D02*
X008613Y004808D01*
X008229Y004705D01*
X007886Y004506D01*
X007605Y004226D01*
X007406Y003882D01*
X007303Y003498D01*
X007303Y003101D01*
X007406Y002718D01*
X007605Y002374D01*
X007886Y002093D01*
X008229Y001894D01*
X008613Y001792D01*
X009010Y001792D01*
X009393Y001894D01*
X009737Y002093D01*
X010018Y002374D01*
X010217Y002718D01*
X010319Y003101D01*
X010319Y003498D01*
X010217Y003882D01*
X010018Y004226D01*
X009737Y004506D01*
X009393Y004705D01*
X009010Y004808D01*
X008506Y004779D02*
X005506Y004779D01*
X005499Y004680D02*
X008187Y004680D01*
X008017Y004582D02*
X005669Y004582D01*
X005823Y004483D02*
X007863Y004483D01*
X007764Y004385D02*
X005922Y004385D01*
X006020Y004286D02*
X007666Y004286D01*
X007583Y004188D02*
X006103Y004188D01*
X006160Y004089D02*
X007526Y004089D01*
X007469Y003991D02*
X006217Y003991D01*
X006273Y003892D02*
X007412Y003892D01*
X007383Y003794D02*
X006303Y003794D01*
X006330Y003695D02*
X007356Y003695D01*
X007330Y003597D02*
X006356Y003597D01*
X006382Y003498D02*
X007304Y003498D01*
X007303Y003400D02*
X006382Y003400D01*
X006382Y003301D02*
X007303Y003301D01*
X007303Y003203D02*
X006382Y003203D01*
X006382Y003104D02*
X007303Y003104D01*
X007329Y003006D02*
X006357Y003006D01*
X006330Y002907D02*
X007355Y002907D01*
X007382Y002809D02*
X006304Y002809D01*
X006275Y002710D02*
X007410Y002710D01*
X007467Y002612D02*
X006219Y002612D01*
X006162Y002513D02*
X007524Y002513D01*
X007581Y002415D02*
X006105Y002415D01*
X006024Y002316D02*
X007662Y002316D01*
X007761Y002218D02*
X005925Y002218D01*
X005827Y002119D02*
X007859Y002119D01*
X008010Y002021D02*
X005676Y002021D01*
X005505Y001922D02*
X008181Y001922D01*
X008493Y001824D02*
X005193Y001824D01*
X004556Y001824D02*
X003012Y001824D01*
X003012Y001922D02*
X004244Y001922D01*
X004073Y002021D02*
X003012Y002021D01*
X003012Y002119D02*
X003922Y002119D01*
X003824Y002218D02*
X003012Y002218D01*
X003012Y002316D02*
X003725Y002316D01*
X003644Y002415D02*
X003012Y002415D01*
X003012Y002513D02*
X003587Y002513D01*
X003530Y002612D02*
X003012Y002612D01*
X003012Y002710D02*
X003473Y002710D01*
X003445Y002809D02*
X003012Y002809D01*
X003012Y002907D02*
X003418Y002907D01*
X003392Y003006D02*
X003012Y003006D01*
X003012Y003104D02*
X003366Y003104D01*
X003366Y003203D02*
X003012Y003203D01*
X003012Y003301D02*
X003366Y003301D01*
X003366Y003400D02*
X003012Y003400D01*
X003012Y003498D02*
X003367Y003498D01*
X003393Y003597D02*
X003012Y003597D01*
X003012Y003695D02*
X003419Y003695D01*
X003446Y003794D02*
X003012Y003794D01*
X002971Y003892D02*
X003475Y003892D01*
X003532Y003991D02*
X002922Y003991D01*
X002823Y004089D02*
X003589Y004089D01*
X003646Y004188D02*
X002625Y004188D01*
X002512Y003693D02*
X002315Y003693D01*
X002512Y003693D02*
X002512Y000937D01*
X011174Y000937D01*
X011174Y003693D01*
X011370Y003693D01*
X011061Y004188D02*
X010040Y004188D01*
X010097Y004089D02*
X010863Y004089D01*
X010764Y003991D02*
X010154Y003991D01*
X010210Y003892D02*
X010715Y003892D01*
X010674Y003794D02*
X010240Y003794D01*
X010267Y003695D02*
X010674Y003695D01*
X010674Y003597D02*
X010293Y003597D01*
X010319Y003498D02*
X010674Y003498D01*
X010674Y003400D02*
X010319Y003400D01*
X010319Y003301D02*
X010674Y003301D01*
X010674Y003203D02*
X010319Y003203D01*
X010319Y003104D02*
X010674Y003104D01*
X010674Y003006D02*
X010294Y003006D01*
X010267Y002907D02*
X010674Y002907D01*
X010674Y002809D02*
X010241Y002809D01*
X010212Y002710D02*
X010674Y002710D01*
X010674Y002612D02*
X010156Y002612D01*
X010099Y002513D02*
X010674Y002513D01*
X010674Y002415D02*
X010042Y002415D01*
X009961Y002316D02*
X010674Y002316D01*
X010674Y002218D02*
X009862Y002218D01*
X009764Y002119D02*
X010674Y002119D01*
X010674Y002021D02*
X009613Y002021D01*
X009442Y001922D02*
X010674Y001922D01*
X010674Y001824D02*
X009130Y001824D01*
X009957Y004286D02*
X011801Y004286D01*
X011972Y004385D02*
X009859Y004385D01*
X009760Y004483D02*
X012093Y004483D01*
X012191Y004582D02*
X009606Y004582D01*
X009436Y004680D02*
X012262Y004680D01*
X012315Y005764D02*
X009142Y005764D01*
X009447Y005862D02*
X012258Y005862D01*
X012185Y005961D02*
X009618Y005961D01*
X009767Y006059D02*
X012086Y006059D01*
X011961Y006158D02*
X009865Y006158D01*
X009964Y006256D02*
X011790Y006256D01*
X011370Y006843D02*
X011174Y006843D01*
X011174Y022197D01*
X011370Y022197D01*
X011449Y022199D01*
X011527Y022205D01*
X011605Y022215D01*
X011682Y022228D01*
X011759Y022246D01*
X011834Y022267D01*
X011909Y022292D01*
X011982Y022321D01*
X012053Y022353D01*
X012123Y022389D01*
X012191Y022428D01*
X012257Y022471D01*
X012321Y022517D01*
X012382Y022565D01*
X012441Y022617D01*
X012497Y022672D01*
X012551Y022730D01*
X012601Y022790D01*
X012649Y022853D01*
X012693Y022917D01*
X012734Y022985D01*
X012772Y023053D01*
X012806Y023124D01*
X012836Y023197D01*
X012863Y023270D01*
X012886Y023345D01*
X012906Y023422D01*
X012921Y023499D01*
X012933Y023576D01*
X012941Y023654D01*
X012945Y023733D01*
X012945Y023811D01*
X012941Y023890D01*
X012933Y023968D01*
X012921Y024045D01*
X012906Y024122D01*
X012886Y024199D01*
X012863Y024274D01*
X012836Y024347D01*
X012806Y024420D01*
X012772Y024491D01*
X012734Y024560D01*
X012693Y024627D01*
X012649Y024691D01*
X012601Y024754D01*
X012551Y024814D01*
X012497Y024872D01*
X012441Y024927D01*
X012382Y024979D01*
X012321Y025027D01*
X012257Y025073D01*
X012191Y025116D01*
X012123Y025155D01*
X012053Y025191D01*
X011982Y025223D01*
X011909Y025252D01*
X011834Y025277D01*
X011759Y025298D01*
X011682Y025316D01*
X011605Y025329D01*
X011527Y025339D01*
X011449Y025345D01*
X011370Y025347D01*
X011174Y025347D01*
X011174Y027315D01*
X010111Y026922D02*
X010111Y025032D01*
X011370Y023772D01*
X010111Y026922D02*
X006617Y026922D01*
X005465Y026922D01*
X005465Y025839D01*
X004067Y025839D01*
X004067Y024107D01*
X002867Y023772D01*
X002827Y023772D01*
X002512Y025347D02*
X002315Y025347D01*
X002512Y025347D02*
X002512Y027315D01*
X002514Y027381D01*
X002519Y027447D01*
X002529Y027513D01*
X002542Y027578D01*
X002558Y027642D01*
X002578Y027705D01*
X002602Y027767D01*
X002629Y027827D01*
X002659Y027886D01*
X002693Y027943D01*
X002730Y027998D01*
X002770Y028051D01*
X002812Y028102D01*
X002858Y028150D01*
X002906Y028196D01*
X002957Y028238D01*
X003010Y028278D01*
X003065Y028315D01*
X003122Y028349D01*
X003181Y028379D01*
X003241Y028406D01*
X003303Y028430D01*
X003366Y028450D01*
X003430Y028466D01*
X003495Y028479D01*
X003561Y028489D01*
X003627Y028494D01*
X003693Y028496D01*
X009993Y028496D01*
X010059Y028494D01*
X010125Y028489D01*
X010191Y028479D01*
X010256Y028466D01*
X010320Y028450D01*
X010383Y028430D01*
X010445Y028406D01*
X010505Y028379D01*
X010564Y028349D01*
X010621Y028315D01*
X010676Y028278D01*
X010729Y028238D01*
X010780Y028196D01*
X010828Y028150D01*
X010874Y028102D01*
X010916Y028051D01*
X010956Y027998D01*
X010993Y027943D01*
X011027Y027886D01*
X011057Y027827D01*
X011084Y027767D01*
X011108Y027705D01*
X011128Y027642D01*
X011144Y027578D01*
X011157Y027513D01*
X011167Y027447D01*
X011172Y027381D01*
X011174Y027315D01*
X009244Y025465D02*
X009244Y024205D01*
X008575Y024205D01*
X008575Y009048D01*
X008811Y008811D01*
X008811Y007237D01*
X008517Y008719D02*
X007102Y008719D01*
X007102Y008817D02*
X008551Y008817D01*
X008452Y008916D02*
X007102Y008916D01*
X007102Y009014D02*
X008395Y009014D01*
X008395Y009113D02*
X007102Y009113D01*
X007102Y009211D02*
X008395Y009211D01*
X008395Y009310D02*
X007102Y009310D01*
X007102Y009408D02*
X008395Y009408D01*
X008395Y009507D02*
X007102Y009507D01*
X006742Y009507D02*
X003012Y009507D01*
X003012Y009599D02*
X003012Y006743D01*
X002936Y006560D01*
X002795Y006419D01*
X002612Y006343D01*
X002315Y006343D01*
X002641Y006355D02*
X003626Y006355D01*
X003561Y006453D02*
X002830Y006453D01*
X002928Y006552D02*
X003508Y006552D01*
X003463Y006650D02*
X002974Y006650D01*
X003012Y006749D02*
X003426Y006749D01*
X003396Y006847D02*
X003012Y006847D01*
X003012Y006946D02*
X003374Y006946D01*
X003358Y007044D02*
X003012Y007044D01*
X003702Y006256D02*
X001896Y006256D01*
X001725Y006158D02*
X003792Y006158D01*
X003900Y006059D02*
X001600Y006059D01*
X001501Y005961D02*
X004033Y005961D01*
X004204Y005862D02*
X001428Y005862D01*
X001371Y005764D02*
X004466Y005764D01*
X004824Y005764D02*
X004924Y005764D01*
X004924Y005862D02*
X004824Y005862D01*
X004824Y005961D02*
X004924Y005961D01*
X004924Y006059D02*
X004824Y006059D01*
X004824Y006158D02*
X004924Y006158D01*
X004924Y006256D02*
X004824Y006256D01*
X004824Y006355D02*
X004924Y006355D01*
X004924Y006453D02*
X004824Y006453D01*
X004824Y006552D02*
X004924Y006552D01*
X004924Y006650D02*
X004824Y006650D01*
X004824Y006749D02*
X004924Y006749D01*
X004924Y006847D02*
X004824Y006847D01*
X004824Y006946D02*
X004924Y006946D01*
X004924Y007044D02*
X004824Y007044D01*
X004824Y007340D02*
X004924Y007340D01*
X004924Y007438D02*
X004824Y007438D01*
X004824Y007537D02*
X004924Y007537D01*
X004924Y007635D02*
X004824Y007635D01*
X004824Y007734D02*
X004924Y007734D01*
X004924Y007832D02*
X004824Y007832D01*
X004824Y007931D02*
X004924Y007931D01*
X004924Y008029D02*
X004824Y008029D01*
X004824Y008128D02*
X004924Y008128D01*
X004924Y008226D02*
X004824Y008226D01*
X004824Y008325D02*
X004924Y008325D01*
X004924Y008423D02*
X004824Y008423D01*
X004824Y008522D02*
X004924Y008522D01*
X004924Y008620D02*
X004824Y008620D01*
X004824Y008719D02*
X004924Y008719D01*
X006742Y008916D02*
X003012Y008916D01*
X003012Y009014D02*
X006742Y009014D01*
X006742Y009113D02*
X003012Y009113D01*
X003012Y009211D02*
X006742Y009211D01*
X006742Y009310D02*
X003012Y009310D01*
X003012Y009408D02*
X006742Y009408D01*
X007102Y008620D02*
X008192Y008620D01*
X008022Y008522D02*
X007102Y008522D01*
X007102Y008423D02*
X007866Y008423D01*
X007767Y008325D02*
X007102Y008325D01*
X007102Y008226D02*
X007669Y008226D01*
X007585Y008128D02*
X007102Y008128D01*
X007102Y008029D02*
X007528Y008029D01*
X007471Y007931D02*
X007102Y007931D01*
X007102Y007832D02*
X007414Y007832D01*
X007384Y007734D02*
X007102Y007734D01*
X007102Y007635D02*
X007357Y007635D01*
X007331Y007537D02*
X007102Y007537D01*
X007102Y007438D02*
X007304Y007438D01*
X007303Y007340D02*
X007102Y007340D01*
X006922Y006449D02*
X004874Y004402D01*
X004874Y003300D01*
X003012Y001725D02*
X010674Y001725D01*
X010674Y001627D02*
X003012Y001627D01*
X003012Y001528D02*
X010674Y001528D01*
X011370Y003693D02*
X011449Y003695D01*
X011527Y003701D01*
X011605Y003711D01*
X011682Y003724D01*
X011759Y003742D01*
X011834Y003763D01*
X011909Y003788D01*
X011982Y003817D01*
X012053Y003849D01*
X012123Y003885D01*
X012191Y003924D01*
X012257Y003967D01*
X012321Y004013D01*
X012382Y004061D01*
X012441Y004113D01*
X012497Y004168D01*
X012551Y004226D01*
X012601Y004286D01*
X012649Y004349D01*
X012693Y004413D01*
X012734Y004481D01*
X012772Y004549D01*
X012806Y004620D01*
X012836Y004693D01*
X012863Y004766D01*
X012886Y004841D01*
X012906Y004918D01*
X012921Y004995D01*
X012933Y005072D01*
X012941Y005150D01*
X012945Y005229D01*
X012945Y005307D01*
X012941Y005386D01*
X012933Y005464D01*
X012921Y005541D01*
X012906Y005618D01*
X012886Y005695D01*
X012863Y005770D01*
X012836Y005843D01*
X012806Y005916D01*
X012772Y005987D01*
X012734Y006056D01*
X012693Y006123D01*
X012649Y006187D01*
X012601Y006250D01*
X012551Y006310D01*
X012497Y006368D01*
X012441Y006423D01*
X012382Y006475D01*
X012321Y006523D01*
X012257Y006569D01*
X012191Y006612D01*
X012123Y006651D01*
X012053Y006687D01*
X011982Y006719D01*
X011909Y006748D01*
X011834Y006773D01*
X011759Y006794D01*
X011682Y006812D01*
X011605Y006825D01*
X011527Y006835D01*
X011449Y006841D01*
X011370Y006843D01*
X011045Y006355D02*
X010044Y006355D01*
X010100Y006453D02*
X010856Y006453D01*
X010758Y006552D02*
X010157Y006552D01*
X010214Y006650D02*
X010712Y006650D01*
X010674Y006749D02*
X010242Y006749D01*
X010268Y006847D02*
X010674Y006847D01*
X010674Y006946D02*
X010295Y006946D01*
X010319Y007044D02*
X010674Y007044D01*
X010674Y007143D02*
X010319Y007143D01*
X010319Y007241D02*
X010674Y007241D01*
X010674Y007340D02*
X010319Y007340D01*
X010318Y007438D02*
X010674Y007438D01*
X010674Y007537D02*
X010292Y007537D01*
X010266Y007635D02*
X010674Y007635D01*
X010674Y007734D02*
X010239Y007734D01*
X010209Y007832D02*
X010674Y007832D01*
X010674Y007931D02*
X010152Y007931D01*
X010095Y008029D02*
X010674Y008029D01*
X010674Y008128D02*
X010038Y008128D01*
X009954Y008226D02*
X010674Y008226D01*
X010674Y008325D02*
X009856Y008325D01*
X009757Y008423D02*
X010674Y008423D01*
X010674Y008522D02*
X009601Y008522D01*
X009430Y008620D02*
X010674Y008620D01*
X010674Y008719D02*
X009106Y008719D01*
X008991Y008817D02*
X010674Y008817D01*
X010674Y008916D02*
X008961Y008916D01*
X008863Y009014D02*
X010674Y009014D01*
X010674Y009113D02*
X008764Y009113D01*
X008755Y009211D02*
X010674Y009211D01*
X010674Y009310D02*
X008755Y009310D01*
X008755Y009408D02*
X010674Y009408D01*
X010674Y009507D02*
X008755Y009507D01*
X006922Y006449D02*
X006922Y023103D01*
X007079Y024048D01*
X007050Y024008D01*
X008221Y024944D01*
X008221Y026064D02*
X007119Y026064D01*
X007119Y026016D01*
X007050Y026095D01*
X007119Y026064D02*
X007119Y026292D01*
X006685Y025977D02*
X006617Y026095D01*
X006617Y026922D01*
X006646Y024993D02*
X005229Y024993D01*
X005465Y025170D01*
X006646Y024087D02*
X006617Y024008D01*
X006646Y024087D02*
X006646Y024993D01*
X007591Y024993D01*
X007591Y025465D01*
X009244Y025465D01*
X002315Y006843D02*
X002236Y006841D01*
X002158Y006835D01*
X002080Y006825D01*
X002003Y006812D01*
X001926Y006794D01*
X001851Y006773D01*
X001776Y006748D01*
X001703Y006719D01*
X001632Y006687D01*
X001562Y006651D01*
X001494Y006612D01*
X001428Y006569D01*
X001364Y006523D01*
X001303Y006475D01*
X001244Y006423D01*
X001188Y006368D01*
X001134Y006310D01*
X001084Y006250D01*
X001036Y006187D01*
X000992Y006123D01*
X000951Y006055D01*
X000913Y005987D01*
X000879Y005916D01*
X000849Y005843D01*
X000822Y005770D01*
X000799Y005695D01*
X000779Y005618D01*
X000764Y005541D01*
X000752Y005464D01*
X000744Y005386D01*
X000740Y005307D01*
X000740Y005229D01*
X000744Y005150D01*
X000752Y005072D01*
X000764Y004995D01*
X000779Y004918D01*
X000799Y004841D01*
X000822Y004766D01*
X000849Y004693D01*
X000879Y004620D01*
X000913Y004549D01*
X000951Y004480D01*
X000992Y004413D01*
X001036Y004349D01*
X001084Y004286D01*
X001134Y004226D01*
X001188Y004168D01*
X001244Y004113D01*
X001303Y004061D01*
X001364Y004013D01*
X001428Y003967D01*
X001494Y003924D01*
X001562Y003885D01*
X001632Y003849D01*
X001703Y003817D01*
X001776Y003788D01*
X001851Y003763D01*
X001926Y003742D01*
X002003Y003724D01*
X002080Y003711D01*
X002158Y003701D01*
X002236Y003695D01*
X002315Y003693D01*
D11*
X004874Y003300D03*
X004874Y007237D03*
X008811Y007237D03*
X008811Y003300D03*
D12*
X008221Y024944D03*
X008221Y026064D03*
D13*
X007050Y026095D03*
X006617Y026095D03*
X006617Y024008D03*
X007050Y024008D03*
D14*
X005465Y025170D03*
X005465Y025839D03*
D15*
X002315Y023772D03*
X011370Y023772D03*
X011370Y005268D03*
X002315Y005268D03*
M02*
