G75*
%MOIN*%
%OFA0B0*%
%FSLAX24Y24*%
%IPPOS*%
%LPD*%
%AMOC8*
5,1,8,0,0,1.08239X$1,22.5*
%
%ADD10C,0.0100*%
%ADD11R,0.0630X0.0460*%
%ADD12C,0.0740*%
%ADD13C,0.0160*%
%ADD14R,0.0394X0.0787*%
%ADD15C,0.2362*%
%ADD16C,0.0357*%
D10*
X002315Y003693D02*
X002512Y003693D01*
X002512Y000937D01*
X011174Y000937D01*
X011174Y003693D01*
X011370Y003693D01*
X011449Y003695D01*
X011527Y003701D01*
X011605Y003711D01*
X011682Y003724D01*
X011759Y003742D01*
X011834Y003763D01*
X011909Y003788D01*
X011982Y003817D01*
X012053Y003849D01*
X012123Y003885D01*
X012191Y003924D01*
X012257Y003967D01*
X012321Y004013D01*
X012382Y004061D01*
X012441Y004113D01*
X012497Y004168D01*
X012551Y004226D01*
X012601Y004286D01*
X012649Y004349D01*
X012693Y004413D01*
X012734Y004481D01*
X012772Y004549D01*
X012806Y004620D01*
X012836Y004693D01*
X012863Y004766D01*
X012886Y004841D01*
X012906Y004918D01*
X012921Y004995D01*
X012933Y005072D01*
X012941Y005150D01*
X012945Y005229D01*
X012945Y005307D01*
X012941Y005386D01*
X012933Y005464D01*
X012921Y005541D01*
X012906Y005618D01*
X012886Y005695D01*
X012863Y005770D01*
X012836Y005843D01*
X012806Y005916D01*
X012772Y005987D01*
X012734Y006056D01*
X012693Y006123D01*
X012649Y006187D01*
X012601Y006250D01*
X012551Y006310D01*
X012497Y006368D01*
X012441Y006423D01*
X012382Y006475D01*
X012321Y006523D01*
X012257Y006569D01*
X012191Y006612D01*
X012123Y006651D01*
X012053Y006687D01*
X011982Y006719D01*
X011909Y006748D01*
X011834Y006773D01*
X011759Y006794D01*
X011682Y006812D01*
X011605Y006825D01*
X011527Y006835D01*
X011449Y006841D01*
X011370Y006843D01*
X011174Y006843D01*
X011174Y022197D01*
X011370Y022197D01*
X011370Y022697D02*
X011074Y022697D01*
X010890Y022621D01*
X010750Y022480D01*
X010674Y022297D01*
X010674Y019835D01*
X009277Y019835D01*
X009377Y020568D01*
X009613Y020568D01*
X009689Y020644D01*
X009689Y021212D01*
X009673Y021228D01*
X009689Y021244D01*
X009689Y021812D01*
X009685Y021816D01*
X009699Y021840D01*
X009709Y021878D01*
X009709Y022078D01*
X009294Y022078D01*
X009294Y022178D01*
X009194Y022178D01*
X009194Y022078D01*
X008779Y022078D01*
X008779Y021878D01*
X008790Y021840D01*
X008804Y021816D01*
X008799Y021812D01*
X008799Y021708D01*
X008508Y021708D01*
X008508Y021812D01*
X008504Y021816D01*
X008518Y021840D01*
X008528Y021878D01*
X008528Y022078D01*
X008113Y022078D01*
X008113Y022178D01*
X008013Y022178D01*
X008013Y022508D01*
X007729Y022508D01*
X007690Y022498D01*
X007656Y022478D01*
X007653Y022475D01*
X007653Y022508D01*
X007641Y022519D01*
X007639Y022535D01*
X007590Y022571D01*
X007547Y022613D01*
X007531Y022613D01*
X007437Y022681D01*
X007541Y022681D01*
X007725Y022758D01*
X007865Y022898D01*
X007934Y023063D01*
X007934Y023060D01*
X007959Y022982D01*
X007997Y022909D01*
X008045Y022843D01*
X008103Y022785D01*
X008169Y022737D01*
X008242Y022700D01*
X008320Y022674D01*
X008391Y022663D01*
X008391Y023131D01*
X008491Y023131D01*
X008491Y022663D01*
X008563Y022674D01*
X008641Y022700D01*
X008714Y022737D01*
X008780Y022785D01*
X008838Y022843D01*
X008886Y022909D01*
X008923Y022982D01*
X008949Y023060D01*
X008949Y023063D01*
X009017Y022898D01*
X009158Y022758D01*
X009342Y022681D01*
X009541Y022681D01*
X009725Y022758D01*
X009865Y022898D01*
X009941Y023082D01*
X009941Y023281D01*
X009865Y023465D01*
X009725Y023605D01*
X009633Y023643D01*
X009639Y023859D01*
X009692Y023859D01*
X009768Y023935D01*
X009768Y024830D01*
X009692Y024906D01*
X009653Y024906D01*
X009651Y024950D01*
X009651Y025158D01*
X009692Y025158D01*
X009768Y025234D01*
X009768Y026129D01*
X009692Y026205D01*
X009191Y026205D01*
X009114Y026129D01*
X009114Y025234D01*
X009191Y025158D01*
X009231Y025158D01*
X009231Y024906D01*
X009191Y024906D01*
X009114Y024830D01*
X009114Y023935D01*
X009191Y023859D01*
X009279Y023859D01*
X009273Y023653D01*
X009158Y023605D01*
X009017Y023465D01*
X008949Y023300D01*
X008949Y023303D01*
X008923Y023381D01*
X008886Y023454D01*
X008838Y023520D01*
X008780Y023578D01*
X008714Y023626D01*
X008641Y023663D01*
X008563Y023689D01*
X008491Y023700D01*
X008491Y023232D01*
X008391Y023232D01*
X008391Y023700D01*
X008320Y023689D01*
X008242Y023663D01*
X008169Y023626D01*
X008103Y023578D01*
X008045Y023520D01*
X007997Y023454D01*
X007959Y023381D01*
X007934Y023303D01*
X007934Y023300D01*
X007865Y023465D01*
X007725Y023605D01*
X007631Y023644D01*
X007635Y023859D01*
X007692Y023859D01*
X007768Y023935D01*
X007768Y024830D01*
X007692Y024906D01*
X007651Y024906D01*
X007651Y025158D01*
X007692Y025158D01*
X007768Y025234D01*
X007768Y026129D01*
X007692Y026205D01*
X007191Y026205D01*
X007114Y026129D01*
X007114Y025234D01*
X007191Y025158D01*
X007231Y025158D01*
X007231Y024906D01*
X007191Y024906D01*
X007114Y024830D01*
X007114Y023935D01*
X007191Y023859D01*
X007275Y023859D01*
X007271Y023652D01*
X007158Y023605D01*
X007017Y023465D01*
X006941Y023281D01*
X006865Y023465D01*
X006725Y023605D01*
X006621Y023648D01*
X006621Y023859D01*
X006692Y023859D01*
X006768Y023935D01*
X006768Y024830D01*
X006692Y024906D01*
X006651Y024906D01*
X006651Y025158D01*
X006692Y025158D01*
X006768Y025234D01*
X006768Y026129D01*
X006692Y026205D01*
X006191Y026205D01*
X006114Y026129D01*
X006114Y025234D01*
X006191Y025158D01*
X006231Y025158D01*
X006231Y024906D01*
X006191Y024906D01*
X006114Y024830D01*
X006114Y023935D01*
X006191Y023859D01*
X006261Y023859D01*
X006261Y023648D01*
X006158Y023605D01*
X006017Y023465D01*
X005941Y023281D01*
X005865Y023465D01*
X005725Y023605D01*
X005628Y023645D01*
X005632Y023859D01*
X005692Y023859D01*
X005768Y023935D01*
X005768Y024830D01*
X005692Y024906D01*
X005651Y024906D01*
X005651Y025158D01*
X005692Y025158D01*
X005768Y025234D01*
X005768Y026129D01*
X005692Y026205D01*
X005191Y026205D01*
X005114Y026129D01*
X005114Y025234D01*
X005191Y025158D01*
X005231Y025158D01*
X005231Y024906D01*
X005191Y024906D01*
X005114Y024830D01*
X005114Y023935D01*
X005191Y023859D01*
X005271Y023859D01*
X005268Y023651D01*
X005158Y023605D01*
X005017Y023465D01*
X004941Y023281D01*
X004865Y023465D01*
X004725Y023605D01*
X004621Y023648D01*
X004621Y023859D01*
X004692Y023859D01*
X004768Y023935D01*
X004768Y024830D01*
X004692Y024906D01*
X004651Y024906D01*
X004651Y025158D01*
X004692Y025158D01*
X004768Y025234D01*
X004768Y026129D01*
X004692Y026205D01*
X004191Y026205D01*
X004114Y026129D01*
X004114Y025234D01*
X004191Y025158D01*
X004231Y025158D01*
X004231Y024906D01*
X004191Y024906D01*
X004114Y024830D01*
X004114Y023935D01*
X004191Y023859D01*
X004261Y023859D01*
X004261Y023648D01*
X004158Y023605D01*
X004017Y023465D01*
X003941Y023281D01*
X003941Y023082D01*
X004000Y022940D01*
X003640Y022516D01*
X003592Y022469D01*
X003592Y022460D01*
X003587Y022454D01*
X003592Y022387D01*
X003592Y021453D01*
X003697Y021348D01*
X004075Y021348D01*
X004075Y021244D01*
X004091Y021228D01*
X004075Y021212D01*
X004075Y020644D01*
X004151Y020568D01*
X004340Y020568D01*
X004340Y020564D01*
X004259Y020482D01*
X004212Y020369D01*
X004212Y020246D01*
X004259Y020133D01*
X004345Y020046D01*
X004459Y019999D01*
X004581Y019999D01*
X004695Y020046D01*
X004782Y020133D01*
X004829Y020246D01*
X004829Y020369D01*
X004782Y020482D01*
X004700Y020564D01*
X004700Y020568D01*
X004889Y020568D01*
X004965Y020644D01*
X004965Y020748D01*
X005256Y020748D01*
X005256Y020644D01*
X005332Y020568D01*
X006070Y020568D01*
X006146Y020644D01*
X006146Y020748D01*
X006437Y020748D01*
X006437Y020644D01*
X006513Y020568D01*
X006702Y020568D01*
X006702Y020564D01*
X006621Y020482D01*
X006574Y020369D01*
X006574Y020246D01*
X006621Y020133D01*
X006708Y020046D01*
X006821Y019999D01*
X006944Y019999D01*
X007057Y020046D01*
X007144Y020133D01*
X007191Y020246D01*
X007191Y020369D01*
X007144Y020482D01*
X007062Y020564D01*
X007062Y020568D01*
X007251Y020568D01*
X007327Y020644D01*
X007327Y020748D01*
X007618Y020748D01*
X007618Y020644D01*
X007695Y020568D01*
X008432Y020568D01*
X008508Y020644D01*
X008508Y020748D01*
X008799Y020748D01*
X008799Y020644D01*
X008876Y020568D01*
X009014Y020568D01*
X008914Y019835D01*
X003012Y019835D01*
X003012Y022297D01*
X002936Y022480D01*
X002795Y022621D01*
X002612Y022697D01*
X002315Y022697D01*
X002175Y022706D01*
X001904Y022779D01*
X001661Y022919D01*
X001463Y023118D01*
X001322Y023361D01*
X001250Y023632D01*
X001250Y023912D01*
X001322Y024183D01*
X001463Y024426D01*
X001661Y024625D01*
X001904Y024765D01*
X002175Y024838D01*
X002315Y024847D01*
X002612Y024847D01*
X002795Y024923D01*
X002936Y025064D01*
X003012Y025247D01*
X003012Y027315D01*
X003018Y027404D01*
X003064Y027576D01*
X003153Y027730D01*
X003279Y027856D01*
X003433Y027945D01*
X003604Y027991D01*
X003693Y027996D01*
X009993Y027996D01*
X010081Y027991D01*
X010253Y027945D01*
X010407Y027856D01*
X010533Y027730D01*
X010622Y027576D01*
X010668Y027404D01*
X010674Y027315D01*
X010674Y025247D01*
X010750Y025064D01*
X010890Y024923D01*
X011074Y024847D01*
X011370Y024847D01*
X011511Y024838D01*
X011782Y024765D01*
X012025Y024625D01*
X012223Y024426D01*
X012363Y024183D01*
X012436Y023912D01*
X012436Y023632D01*
X012363Y023361D01*
X012223Y023118D01*
X012025Y022919D01*
X011782Y022779D01*
X011511Y022706D01*
X011370Y022697D01*
X011503Y022706D02*
X009600Y022706D01*
X009771Y022804D02*
X011826Y022804D01*
X011996Y022903D02*
X009867Y022903D01*
X009908Y023001D02*
X012107Y023001D01*
X012205Y023100D02*
X009941Y023100D01*
X009941Y023198D02*
X012270Y023198D01*
X012327Y023297D02*
X009935Y023297D01*
X009894Y023395D02*
X012373Y023395D01*
X012399Y023494D02*
X009836Y023494D01*
X009737Y023592D02*
X012426Y023592D01*
X012436Y023691D02*
X009634Y023691D01*
X009637Y023789D02*
X012436Y023789D01*
X012436Y023888D02*
X009721Y023888D01*
X009768Y023986D02*
X012416Y023986D01*
X012390Y024085D02*
X009768Y024085D01*
X009768Y024183D02*
X012363Y024183D01*
X012307Y024282D02*
X009768Y024282D01*
X009768Y024380D02*
X012250Y024380D01*
X012171Y024479D02*
X009768Y024479D01*
X009768Y024577D02*
X012072Y024577D01*
X011936Y024676D02*
X009768Y024676D01*
X009768Y024774D02*
X011747Y024774D01*
X011370Y025347D02*
X011174Y025347D01*
X011174Y027315D01*
X010672Y027335D02*
X003014Y027335D01*
X003012Y027237D02*
X010674Y027237D01*
X010674Y027138D02*
X003012Y027138D01*
X003012Y027040D02*
X010674Y027040D01*
X010674Y026941D02*
X003012Y026941D01*
X003012Y026843D02*
X010674Y026843D01*
X010674Y026744D02*
X003012Y026744D01*
X003012Y026646D02*
X010674Y026646D01*
X010674Y026547D02*
X003012Y026547D01*
X003012Y026449D02*
X010674Y026449D01*
X010674Y026350D02*
X003012Y026350D01*
X003012Y026252D02*
X010674Y026252D01*
X010674Y026153D02*
X009744Y026153D01*
X009768Y026055D02*
X010674Y026055D01*
X010674Y025956D02*
X009768Y025956D01*
X009768Y025858D02*
X010674Y025858D01*
X010674Y025759D02*
X009768Y025759D01*
X009768Y025661D02*
X010674Y025661D01*
X010674Y025562D02*
X009768Y025562D01*
X009768Y025464D02*
X010674Y025464D01*
X010674Y025365D02*
X009768Y025365D01*
X009768Y025267D02*
X010674Y025267D01*
X010706Y025168D02*
X009703Y025168D01*
X009651Y025070D02*
X010747Y025070D01*
X010842Y024971D02*
X009651Y024971D01*
X009725Y024873D02*
X011011Y024873D01*
X011370Y025347D02*
X011449Y025345D01*
X011527Y025339D01*
X011605Y025329D01*
X011682Y025316D01*
X011759Y025298D01*
X011834Y025277D01*
X011909Y025252D01*
X011982Y025223D01*
X012053Y025191D01*
X012123Y025155D01*
X012191Y025116D01*
X012257Y025073D01*
X012321Y025027D01*
X012382Y024979D01*
X012441Y024927D01*
X012497Y024872D01*
X012551Y024814D01*
X012601Y024754D01*
X012649Y024691D01*
X012693Y024627D01*
X012734Y024560D01*
X012772Y024491D01*
X012806Y024420D01*
X012836Y024347D01*
X012863Y024274D01*
X012886Y024199D01*
X012906Y024122D01*
X012921Y024045D01*
X012933Y023968D01*
X012941Y023890D01*
X012945Y023811D01*
X012945Y023733D01*
X012941Y023654D01*
X012933Y023576D01*
X012921Y023499D01*
X012906Y023422D01*
X012886Y023345D01*
X012863Y023270D01*
X012836Y023197D01*
X012806Y023124D01*
X012772Y023053D01*
X012734Y022985D01*
X012693Y022917D01*
X012649Y022853D01*
X012601Y022790D01*
X012551Y022730D01*
X012497Y022672D01*
X012441Y022617D01*
X012382Y022565D01*
X012321Y022517D01*
X012257Y022471D01*
X012191Y022428D01*
X012123Y022389D01*
X012053Y022353D01*
X011982Y022321D01*
X011909Y022292D01*
X011834Y022267D01*
X011759Y022246D01*
X011682Y022228D01*
X011605Y022215D01*
X011527Y022205D01*
X011449Y022199D01*
X011370Y022197D01*
X010877Y022607D02*
X007553Y022607D01*
X007600Y022706D02*
X008229Y022706D01*
X008391Y022706D02*
X008491Y022706D01*
X008491Y022804D02*
X008391Y022804D01*
X008391Y022903D02*
X008491Y022903D01*
X008491Y023001D02*
X008391Y023001D01*
X008391Y023100D02*
X008491Y023100D01*
X008491Y023297D02*
X008391Y023297D01*
X008391Y023395D02*
X008491Y023395D01*
X008491Y023494D02*
X008391Y023494D01*
X008391Y023592D02*
X008491Y023592D01*
X008491Y023691D02*
X008391Y023691D01*
X008334Y023691D02*
X007632Y023691D01*
X007634Y023789D02*
X009277Y023789D01*
X009274Y023691D02*
X008549Y023691D01*
X008490Y023839D02*
X008658Y023839D01*
X008696Y023849D01*
X008730Y023869D01*
X008758Y023896D01*
X008778Y023931D01*
X008788Y023969D01*
X008788Y024334D01*
X008540Y024334D01*
X008637Y024431D01*
X008788Y024431D01*
X008788Y024796D01*
X008778Y024834D01*
X008758Y024868D01*
X008730Y024896D01*
X008696Y024916D01*
X008658Y024926D01*
X008651Y024926D01*
X008651Y025158D01*
X008692Y025158D01*
X008768Y025234D01*
X008768Y026129D01*
X008692Y026205D01*
X008191Y026205D01*
X008114Y026129D01*
X008114Y025234D01*
X008191Y025158D01*
X008231Y025158D01*
X008231Y024926D01*
X008225Y024926D01*
X008187Y024916D01*
X008152Y024896D01*
X008124Y024868D01*
X008105Y024834D01*
X008094Y024796D01*
X008094Y024431D01*
X008246Y024431D01*
X008342Y024334D01*
X008094Y024334D01*
X008094Y023969D01*
X008105Y023931D01*
X008124Y023896D01*
X008152Y023869D01*
X008187Y023849D01*
X008225Y023839D01*
X008393Y023839D01*
X008393Y024322D01*
X008490Y024322D01*
X008490Y023839D01*
X008490Y023888D02*
X008393Y023888D01*
X008393Y023986D02*
X008490Y023986D01*
X008490Y024085D02*
X008393Y024085D01*
X008393Y024183D02*
X008490Y024183D01*
X008490Y024282D02*
X008393Y024282D01*
X008296Y024380D02*
X007768Y024380D01*
X007768Y024282D02*
X008094Y024282D01*
X008094Y024183D02*
X007768Y024183D01*
X007768Y024085D02*
X008094Y024085D01*
X008094Y023986D02*
X007768Y023986D01*
X007721Y023888D02*
X008133Y023888D01*
X008122Y023592D02*
X007737Y023592D01*
X007836Y023494D02*
X008026Y023494D01*
X007967Y023395D02*
X007894Y023395D01*
X007908Y023001D02*
X007953Y023001D01*
X008001Y022903D02*
X007867Y022903D01*
X007771Y022804D02*
X008083Y022804D01*
X008113Y022508D02*
X008113Y022178D01*
X008528Y022178D01*
X008528Y022378D01*
X008518Y022416D01*
X008498Y022450D01*
X008470Y022478D01*
X008436Y022498D01*
X008398Y022508D01*
X008113Y022508D01*
X008113Y022410D02*
X008013Y022410D01*
X008013Y022312D02*
X008113Y022312D01*
X008113Y022213D02*
X008013Y022213D01*
X008113Y022115D02*
X009194Y022115D01*
X009194Y022178D02*
X008779Y022178D01*
X008779Y022378D01*
X008790Y022416D01*
X008809Y022450D01*
X008837Y022478D01*
X008872Y022498D01*
X008910Y022508D01*
X009194Y022508D01*
X009194Y022178D01*
X009194Y022213D02*
X009294Y022213D01*
X009294Y022178D02*
X009294Y022508D01*
X009579Y022508D01*
X009617Y022498D01*
X009652Y022478D01*
X009680Y022450D01*
X009699Y022416D01*
X009709Y022378D01*
X009709Y022178D01*
X009294Y022178D01*
X009294Y022115D02*
X010674Y022115D01*
X010674Y022213D02*
X009709Y022213D01*
X009709Y022312D02*
X010680Y022312D01*
X010721Y022410D02*
X009701Y022410D01*
X009709Y022016D02*
X010674Y022016D01*
X010674Y021918D02*
X009709Y021918D01*
X009687Y021819D02*
X010674Y021819D01*
X010674Y021721D02*
X009689Y021721D01*
X009689Y021622D02*
X010674Y021622D01*
X010674Y021524D02*
X009689Y021524D01*
X009689Y021425D02*
X010674Y021425D01*
X010674Y021327D02*
X009689Y021327D01*
X009674Y021228D02*
X010674Y021228D01*
X010674Y021130D02*
X009689Y021130D01*
X009689Y021031D02*
X010674Y021031D01*
X010674Y020933D02*
X009689Y020933D01*
X009689Y020834D02*
X010674Y020834D01*
X010674Y020736D02*
X009689Y020736D01*
X009683Y020637D02*
X010674Y020637D01*
X010674Y020539D02*
X009373Y020539D01*
X009360Y020440D02*
X010674Y020440D01*
X010674Y020342D02*
X009346Y020342D01*
X009333Y020243D02*
X010674Y020243D01*
X010674Y020145D02*
X009320Y020145D01*
X009306Y020046D02*
X010674Y020046D01*
X010674Y019948D02*
X009293Y019948D01*
X009279Y019849D02*
X010674Y019849D01*
X010778Y022509D02*
X007652Y022509D01*
X007473Y022433D02*
X006441Y023181D01*
X006441Y024382D01*
X006114Y024380D02*
X005768Y024380D01*
X005768Y024282D02*
X006114Y024282D01*
X006114Y024183D02*
X005768Y024183D01*
X005768Y024085D02*
X006114Y024085D01*
X006114Y023986D02*
X005768Y023986D01*
X005721Y023888D02*
X006161Y023888D01*
X006261Y023789D02*
X005630Y023789D01*
X005629Y023691D02*
X006261Y023691D01*
X006145Y023592D02*
X005737Y023592D01*
X005836Y023494D02*
X006047Y023494D01*
X005989Y023395D02*
X005894Y023395D01*
X005935Y023297D02*
X005948Y023297D01*
X005941Y023281D02*
X005941Y023082D01*
X005941Y023281D01*
X005941Y023198D02*
X005941Y023198D01*
X005941Y023100D02*
X005941Y023100D01*
X005941Y023082D02*
X006017Y022898D01*
X006158Y022758D01*
X006342Y022681D01*
X006541Y022681D01*
X006721Y022756D01*
X007064Y022508D01*
X006932Y022508D01*
X006932Y022178D01*
X006832Y022178D01*
X006832Y022078D01*
X006417Y022078D01*
X006417Y021878D01*
X006428Y021840D01*
X006441Y021816D01*
X006437Y021812D01*
X006437Y021708D01*
X006417Y021708D01*
X006354Y022440D01*
X006354Y022506D01*
X006347Y022513D01*
X006346Y022523D01*
X006296Y022566D01*
X005897Y022974D01*
X005941Y023082D01*
X005908Y023001D02*
X005975Y023001D01*
X005966Y022903D02*
X006016Y022903D01*
X006062Y022804D02*
X006111Y022804D01*
X006159Y022706D02*
X006283Y022706D01*
X006255Y022607D02*
X006926Y022607D01*
X006832Y022508D02*
X006832Y022178D01*
X006417Y022178D01*
X006417Y022378D01*
X006428Y022416D01*
X006447Y022450D01*
X006475Y022478D01*
X006509Y022498D01*
X006548Y022508D01*
X006832Y022508D01*
X006832Y022410D02*
X006932Y022410D01*
X006932Y022312D02*
X006832Y022312D01*
X006832Y022213D02*
X006932Y022213D01*
X006832Y022115D02*
X006382Y022115D01*
X006373Y022213D02*
X006417Y022213D01*
X006417Y022312D02*
X006365Y022312D01*
X006356Y022410D02*
X006426Y022410D01*
X006352Y022509D02*
X007062Y022509D01*
X006790Y022706D02*
X006600Y022706D01*
X006894Y023395D02*
X006989Y023395D01*
X006948Y023297D02*
X006935Y023297D01*
X006941Y023281D02*
X006941Y023082D01*
X006928Y023051D01*
X006965Y023024D01*
X006941Y023082D01*
X006941Y023281D01*
X006941Y023198D02*
X006941Y023198D01*
X006941Y023100D02*
X006941Y023100D01*
X006836Y023494D02*
X007047Y023494D01*
X007145Y023592D02*
X006737Y023592D01*
X006621Y023691D02*
X007271Y023691D01*
X007273Y023789D02*
X006621Y023789D01*
X006721Y023888D02*
X007161Y023888D01*
X007114Y023986D02*
X006768Y023986D01*
X006768Y024085D02*
X007114Y024085D01*
X007114Y024183D02*
X006768Y024183D01*
X006768Y024282D02*
X007114Y024282D01*
X007114Y024380D02*
X006768Y024380D01*
X006768Y024479D02*
X007114Y024479D01*
X007114Y024577D02*
X006768Y024577D01*
X006768Y024676D02*
X007114Y024676D01*
X007114Y024774D02*
X006768Y024774D01*
X006725Y024873D02*
X007158Y024873D01*
X007231Y024971D02*
X006651Y024971D01*
X006651Y025070D02*
X007231Y025070D01*
X007180Y025168D02*
X006703Y025168D01*
X006768Y025267D02*
X007114Y025267D01*
X007114Y025365D02*
X006768Y025365D01*
X006768Y025464D02*
X007114Y025464D01*
X007114Y025562D02*
X006768Y025562D01*
X006768Y025661D02*
X007114Y025661D01*
X007114Y025759D02*
X006768Y025759D01*
X006768Y025858D02*
X007114Y025858D01*
X007114Y025956D02*
X006768Y025956D01*
X006768Y026055D02*
X007114Y026055D01*
X007139Y026153D02*
X006744Y026153D01*
X006231Y025070D02*
X005651Y025070D01*
X005651Y024971D02*
X006231Y024971D01*
X006158Y024873D02*
X005725Y024873D01*
X005768Y024774D02*
X006114Y024774D01*
X006114Y024676D02*
X005768Y024676D01*
X005768Y024577D02*
X006114Y024577D01*
X006114Y024479D02*
X005768Y024479D01*
X005465Y024756D02*
X005441Y023181D01*
X006174Y022433D01*
X006252Y021528D01*
X005701Y021528D01*
X005651Y022078D02*
X005236Y022078D01*
X005236Y021878D01*
X005246Y021840D01*
X005260Y021816D01*
X005256Y021812D01*
X005256Y021244D01*
X005272Y021228D01*
X005256Y021212D01*
X005256Y021108D01*
X004965Y021108D01*
X004965Y021212D01*
X004949Y021228D01*
X004965Y021244D01*
X004965Y021812D01*
X004961Y021816D01*
X004975Y021840D01*
X004985Y021878D01*
X004985Y022078D01*
X004570Y022078D01*
X004570Y022178D01*
X004470Y022178D01*
X004470Y022078D01*
X004055Y022078D01*
X004055Y021878D01*
X004065Y021840D01*
X004079Y021816D01*
X004075Y021812D01*
X004075Y021708D01*
X003952Y021708D01*
X003952Y022328D01*
X004276Y022709D01*
X004342Y022681D01*
X004541Y022681D01*
X004725Y022758D01*
X004865Y022898D01*
X004941Y023082D01*
X004941Y023281D01*
X004941Y023082D01*
X005017Y022898D01*
X005158Y022758D01*
X005342Y022681D01*
X005541Y022681D01*
X005639Y022722D01*
X005849Y022508D01*
X005751Y022508D01*
X005751Y022178D01*
X005651Y022178D01*
X005651Y022078D01*
X005651Y022115D02*
X004570Y022115D01*
X004570Y022178D02*
X004985Y022178D01*
X004985Y022378D01*
X004975Y022416D01*
X004955Y022450D01*
X004927Y022478D01*
X004893Y022498D01*
X004855Y022508D01*
X004570Y022508D01*
X004570Y022178D01*
X004570Y022213D02*
X004470Y022213D01*
X004470Y022178D02*
X004470Y022508D01*
X004185Y022508D01*
X004147Y022498D01*
X004113Y022478D01*
X004085Y022450D01*
X004065Y022416D01*
X004055Y022378D01*
X004055Y022178D01*
X004470Y022178D01*
X004470Y022115D02*
X003952Y022115D01*
X003952Y022213D02*
X004055Y022213D01*
X004055Y022312D02*
X003952Y022312D01*
X004022Y022410D02*
X004064Y022410D01*
X004106Y022509D02*
X005848Y022509D01*
X005751Y022607D02*
X004190Y022607D01*
X004273Y022706D02*
X004283Y022706D01*
X004470Y022410D02*
X004570Y022410D01*
X004570Y022312D02*
X004470Y022312D01*
X004600Y022706D02*
X005283Y022706D01*
X005111Y022804D02*
X004771Y022804D01*
X004867Y022903D02*
X005016Y022903D01*
X004975Y023001D02*
X004908Y023001D01*
X004941Y023100D02*
X004941Y023100D01*
X004941Y023198D02*
X004941Y023198D01*
X004935Y023297D02*
X004948Y023297D01*
X004989Y023395D02*
X004894Y023395D01*
X004836Y023494D02*
X005047Y023494D01*
X005145Y023592D02*
X004737Y023592D01*
X004621Y023691D02*
X005269Y023691D01*
X005270Y023789D02*
X004621Y023789D01*
X004721Y023888D02*
X005161Y023888D01*
X005114Y023986D02*
X004768Y023986D01*
X004768Y024085D02*
X005114Y024085D01*
X005114Y024183D02*
X004768Y024183D01*
X004768Y024282D02*
X005114Y024282D01*
X005114Y024380D02*
X004768Y024380D01*
X004768Y024479D02*
X005114Y024479D01*
X005114Y024577D02*
X004768Y024577D01*
X004768Y024676D02*
X005114Y024676D01*
X005114Y024774D02*
X004768Y024774D01*
X004725Y024873D02*
X005158Y024873D01*
X005231Y024971D02*
X004651Y024971D01*
X004651Y025070D02*
X005231Y025070D01*
X005180Y025168D02*
X004703Y025168D01*
X004768Y025267D02*
X005114Y025267D01*
X005114Y025365D02*
X004768Y025365D01*
X004768Y025464D02*
X005114Y025464D01*
X005114Y025562D02*
X004768Y025562D01*
X004768Y025661D02*
X005114Y025661D01*
X005114Y025759D02*
X004768Y025759D01*
X004768Y025858D02*
X005114Y025858D01*
X005114Y025956D02*
X004768Y025956D01*
X004768Y026055D02*
X005114Y026055D01*
X005139Y026153D02*
X004744Y026153D01*
X004231Y025070D02*
X002939Y025070D01*
X002980Y025168D02*
X004180Y025168D01*
X004114Y025267D02*
X003012Y025267D01*
X003012Y025365D02*
X004114Y025365D01*
X004114Y025464D02*
X003012Y025464D01*
X003012Y025562D02*
X004114Y025562D01*
X004114Y025661D02*
X003012Y025661D01*
X003012Y025759D02*
X004114Y025759D01*
X004114Y025858D02*
X003012Y025858D01*
X003012Y025956D02*
X004114Y025956D01*
X004114Y026055D02*
X003012Y026055D01*
X003012Y026153D02*
X004139Y026153D01*
X004231Y024971D02*
X002844Y024971D01*
X002675Y024873D02*
X004158Y024873D01*
X004114Y024774D02*
X001939Y024774D01*
X001750Y024676D02*
X004114Y024676D01*
X004114Y024577D02*
X001614Y024577D01*
X001515Y024479D02*
X004114Y024479D01*
X004114Y024380D02*
X001436Y024380D01*
X001379Y024282D02*
X004114Y024282D01*
X004114Y024183D02*
X001322Y024183D01*
X001296Y024085D02*
X004114Y024085D01*
X004114Y023986D02*
X001270Y023986D01*
X001250Y023888D02*
X004161Y023888D01*
X004261Y023789D02*
X001250Y023789D01*
X001250Y023691D02*
X004261Y023691D01*
X004145Y023592D02*
X001260Y023592D01*
X001287Y023494D02*
X004047Y023494D01*
X003989Y023395D02*
X001313Y023395D01*
X001359Y023297D02*
X003948Y023297D01*
X003941Y023198D02*
X001416Y023198D01*
X001480Y023100D02*
X003941Y023100D01*
X003975Y023001D02*
X001579Y023001D01*
X001689Y022903D02*
X003968Y022903D01*
X003885Y022804D02*
X001860Y022804D01*
X002182Y022706D02*
X003801Y022706D01*
X003717Y022607D02*
X002809Y022607D01*
X002908Y022509D02*
X003632Y022509D01*
X003590Y022410D02*
X002965Y022410D01*
X003006Y022312D02*
X003592Y022312D01*
X003592Y022213D02*
X003012Y022213D01*
X003012Y022115D02*
X003592Y022115D01*
X003592Y022016D02*
X003012Y022016D01*
X003012Y021918D02*
X003592Y021918D01*
X003592Y021819D02*
X003012Y021819D01*
X003012Y021721D02*
X003592Y021721D01*
X003592Y021622D02*
X003012Y021622D01*
X003012Y021524D02*
X003592Y021524D01*
X003620Y021425D02*
X003012Y021425D01*
X003012Y021327D02*
X004075Y021327D01*
X004091Y021228D02*
X003012Y021228D01*
X003012Y021130D02*
X004075Y021130D01*
X004075Y021031D02*
X003012Y021031D01*
X003012Y020933D02*
X004075Y020933D01*
X004075Y020834D02*
X003012Y020834D01*
X003012Y020736D02*
X004075Y020736D01*
X004082Y020637D02*
X003012Y020637D01*
X003012Y020539D02*
X004315Y020539D01*
X004241Y020440D02*
X003012Y020440D01*
X003012Y020342D02*
X004212Y020342D01*
X004213Y020243D02*
X003012Y020243D01*
X003012Y020145D02*
X004254Y020145D01*
X004345Y020046D02*
X003012Y020046D01*
X003012Y019948D02*
X008930Y019948D01*
X008943Y020046D02*
X007057Y020046D01*
X007149Y020145D02*
X008956Y020145D01*
X008970Y020243D02*
X007190Y020243D01*
X007191Y020342D02*
X008983Y020342D01*
X008997Y020440D02*
X007161Y020440D01*
X007087Y020539D02*
X009010Y020539D01*
X008806Y020637D02*
X008502Y020637D01*
X008508Y020736D02*
X008799Y020736D01*
X009244Y020928D02*
X009048Y019481D01*
X008916Y019849D02*
X003012Y019849D01*
X003772Y021528D02*
X003772Y022394D01*
X004441Y023181D01*
X004441Y024382D01*
X004976Y022410D02*
X005245Y022410D01*
X005246Y022416D02*
X005236Y022378D01*
X005236Y022178D01*
X005651Y022178D01*
X005651Y022508D01*
X005366Y022508D01*
X005328Y022498D01*
X005294Y022478D01*
X005266Y022450D01*
X005246Y022416D01*
X005236Y022312D02*
X004985Y022312D01*
X004985Y022213D02*
X005236Y022213D01*
X005236Y022016D02*
X004985Y022016D01*
X004985Y021918D02*
X005236Y021918D01*
X005258Y021819D02*
X004963Y021819D01*
X004965Y021721D02*
X005256Y021721D01*
X005256Y021622D02*
X004965Y021622D01*
X004965Y021524D02*
X005256Y021524D01*
X005256Y021425D02*
X004965Y021425D01*
X004965Y021327D02*
X005256Y021327D01*
X005272Y021228D02*
X004949Y021228D01*
X004965Y021130D02*
X005256Y021130D01*
X005256Y020736D02*
X004965Y020736D01*
X004958Y020637D02*
X005263Y020637D01*
X004799Y020440D02*
X006604Y020440D01*
X006574Y020342D02*
X004829Y020342D01*
X004827Y020243D02*
X006575Y020243D01*
X006616Y020145D02*
X004787Y020145D01*
X004695Y020046D02*
X006707Y020046D01*
X006882Y020307D02*
X006882Y020928D01*
X008063Y020928D01*
X009244Y020928D01*
X009244Y021528D02*
X008063Y021528D01*
X007473Y021528D01*
X007473Y022433D01*
X007441Y023181D02*
X007473Y024756D01*
X007441Y025681D01*
X007703Y025168D02*
X008180Y025168D01*
X008231Y025070D02*
X007651Y025070D01*
X007651Y024971D02*
X008231Y024971D01*
X008129Y024873D02*
X007725Y024873D01*
X007768Y024774D02*
X008094Y024774D01*
X008094Y024676D02*
X007768Y024676D01*
X007768Y024577D02*
X008094Y024577D01*
X008094Y024479D02*
X007768Y024479D01*
X007768Y025267D02*
X008114Y025267D01*
X008114Y025365D02*
X007768Y025365D01*
X007768Y025464D02*
X008114Y025464D01*
X008114Y025562D02*
X007768Y025562D01*
X007768Y025661D02*
X008114Y025661D01*
X008114Y025759D02*
X007768Y025759D01*
X007768Y025858D02*
X008114Y025858D01*
X008114Y025956D02*
X007768Y025956D01*
X007768Y026055D02*
X008114Y026055D01*
X008139Y026153D02*
X007744Y026153D01*
X008703Y025168D02*
X009180Y025168D01*
X009231Y025070D02*
X008651Y025070D01*
X008651Y024971D02*
X009231Y024971D01*
X009158Y024873D02*
X008753Y024873D01*
X008788Y024774D02*
X009114Y024774D01*
X009114Y024676D02*
X008788Y024676D01*
X008788Y024577D02*
X009114Y024577D01*
X009114Y024479D02*
X008788Y024479D01*
X008788Y024282D02*
X009114Y024282D01*
X009114Y024380D02*
X008587Y024380D01*
X008788Y024183D02*
X009114Y024183D01*
X009114Y024085D02*
X008788Y024085D01*
X008788Y023986D02*
X009114Y023986D01*
X009161Y023888D02*
X008750Y023888D01*
X008760Y023592D02*
X009145Y023592D01*
X009047Y023494D02*
X008857Y023494D01*
X008916Y023395D02*
X008989Y023395D01*
X008975Y023001D02*
X008930Y023001D01*
X008882Y022903D02*
X009016Y022903D01*
X009111Y022804D02*
X008800Y022804D01*
X008653Y022706D02*
X009283Y022706D01*
X009294Y022410D02*
X009194Y022410D01*
X009194Y022312D02*
X009294Y022312D01*
X009441Y023181D02*
X009481Y024717D01*
X009441Y025681D01*
X009114Y025661D02*
X008768Y025661D01*
X008768Y025759D02*
X009114Y025759D01*
X009114Y025858D02*
X008768Y025858D01*
X008768Y025956D02*
X009114Y025956D01*
X009114Y026055D02*
X008768Y026055D01*
X008744Y026153D02*
X009139Y026153D01*
X009114Y025562D02*
X008768Y025562D01*
X008768Y025464D02*
X009114Y025464D01*
X009114Y025365D02*
X008768Y025365D01*
X008768Y025267D02*
X009114Y025267D01*
X011174Y027315D02*
X011172Y027381D01*
X011167Y027447D01*
X011157Y027513D01*
X011144Y027578D01*
X011128Y027642D01*
X011108Y027705D01*
X011084Y027767D01*
X011057Y027827D01*
X011027Y027886D01*
X010993Y027943D01*
X010956Y027998D01*
X010916Y028051D01*
X010874Y028102D01*
X010828Y028150D01*
X010780Y028196D01*
X010729Y028238D01*
X010676Y028278D01*
X010621Y028315D01*
X010564Y028349D01*
X010505Y028379D01*
X010445Y028406D01*
X010383Y028430D01*
X010320Y028450D01*
X010256Y028466D01*
X010191Y028479D01*
X010125Y028489D01*
X010059Y028494D01*
X009993Y028496D01*
X003693Y028496D01*
X003401Y027926D02*
X010285Y027926D01*
X010435Y027828D02*
X003251Y027828D01*
X003153Y027729D02*
X010533Y027729D01*
X010590Y027631D02*
X003096Y027631D01*
X003052Y027532D02*
X010633Y027532D01*
X010660Y027434D02*
X003026Y027434D01*
X002512Y027315D02*
X002512Y025347D01*
X002315Y025347D01*
X002236Y025345D01*
X002158Y025339D01*
X002080Y025329D01*
X002003Y025316D01*
X001926Y025298D01*
X001851Y025277D01*
X001776Y025252D01*
X001703Y025223D01*
X001632Y025191D01*
X001562Y025155D01*
X001494Y025116D01*
X001428Y025073D01*
X001364Y025027D01*
X001303Y024979D01*
X001244Y024927D01*
X001188Y024872D01*
X001134Y024814D01*
X001084Y024754D01*
X001036Y024691D01*
X000992Y024627D01*
X000951Y024559D01*
X000913Y024491D01*
X000879Y024420D01*
X000849Y024347D01*
X000822Y024274D01*
X000799Y024199D01*
X000779Y024122D01*
X000764Y024045D01*
X000752Y023968D01*
X000744Y023890D01*
X000740Y023811D01*
X000740Y023733D01*
X000744Y023654D01*
X000752Y023576D01*
X000764Y023499D01*
X000779Y023422D01*
X000799Y023345D01*
X000822Y023270D01*
X000849Y023197D01*
X000879Y023124D01*
X000913Y023053D01*
X000951Y022984D01*
X000992Y022917D01*
X001036Y022853D01*
X001084Y022790D01*
X001134Y022730D01*
X001188Y022672D01*
X001244Y022617D01*
X001303Y022565D01*
X001364Y022517D01*
X001428Y022471D01*
X001494Y022428D01*
X001562Y022389D01*
X001632Y022353D01*
X001703Y022321D01*
X001776Y022292D01*
X001851Y022267D01*
X001926Y022246D01*
X002003Y022228D01*
X002080Y022215D01*
X002158Y022205D01*
X002236Y022199D01*
X002315Y022197D01*
X002512Y022197D01*
X002512Y006843D01*
X002315Y006843D01*
X002236Y006841D01*
X002158Y006835D01*
X002080Y006825D01*
X002003Y006812D01*
X001926Y006794D01*
X001851Y006773D01*
X001776Y006748D01*
X001703Y006719D01*
X001632Y006687D01*
X001562Y006651D01*
X001494Y006612D01*
X001428Y006569D01*
X001364Y006523D01*
X001303Y006475D01*
X001244Y006423D01*
X001188Y006368D01*
X001134Y006310D01*
X001084Y006250D01*
X001036Y006187D01*
X000992Y006123D01*
X000951Y006055D01*
X000913Y005987D01*
X000879Y005916D01*
X000849Y005843D01*
X000822Y005770D01*
X000799Y005695D01*
X000779Y005618D01*
X000764Y005541D01*
X000752Y005464D01*
X000744Y005386D01*
X000740Y005307D01*
X000740Y005229D01*
X000744Y005150D01*
X000752Y005072D01*
X000764Y004995D01*
X000779Y004918D01*
X000799Y004841D01*
X000822Y004766D01*
X000849Y004693D01*
X000879Y004620D01*
X000913Y004549D01*
X000951Y004480D01*
X000992Y004413D01*
X001036Y004349D01*
X001084Y004286D01*
X001134Y004226D01*
X001188Y004168D01*
X001244Y004113D01*
X001303Y004061D01*
X001364Y004013D01*
X001428Y003967D01*
X001494Y003924D01*
X001562Y003885D01*
X001632Y003849D01*
X001703Y003817D01*
X001776Y003788D01*
X001851Y003763D01*
X001926Y003742D01*
X002003Y003724D01*
X002080Y003711D01*
X002158Y003701D01*
X002236Y003695D01*
X002315Y003693D01*
X004520Y020307D02*
X004520Y020928D01*
X005701Y020928D01*
X006882Y020928D01*
X006678Y020539D02*
X004725Y020539D01*
X004520Y021528D02*
X003772Y021528D01*
X003952Y021721D02*
X004075Y021721D01*
X004077Y021819D02*
X003952Y021819D01*
X003952Y021918D02*
X004055Y021918D01*
X004055Y022016D02*
X003952Y022016D01*
X005465Y024756D02*
X005441Y025681D01*
X005768Y025661D02*
X006114Y025661D01*
X006114Y025759D02*
X005768Y025759D01*
X005768Y025858D02*
X006114Y025858D01*
X006114Y025956D02*
X005768Y025956D01*
X005768Y026055D02*
X006114Y026055D01*
X006139Y026153D02*
X005744Y026153D01*
X005768Y025562D02*
X006114Y025562D01*
X006114Y025464D02*
X005768Y025464D01*
X005768Y025365D02*
X006114Y025365D01*
X006114Y025267D02*
X005768Y025267D01*
X005703Y025168D02*
X006180Y025168D01*
X005655Y022706D02*
X005600Y022706D01*
X005651Y022410D02*
X005751Y022410D01*
X005751Y022312D02*
X005651Y022312D01*
X005651Y022213D02*
X005751Y022213D01*
X006252Y021528D02*
X006882Y021528D01*
X006437Y021721D02*
X006416Y021721D01*
X006408Y021819D02*
X006439Y021819D01*
X006417Y021918D02*
X006399Y021918D01*
X006391Y022016D02*
X006417Y022016D01*
X006437Y020736D02*
X006146Y020736D01*
X006140Y020637D02*
X006444Y020637D01*
X007321Y020637D02*
X007625Y020637D01*
X007618Y020736D02*
X007327Y020736D01*
X008508Y021721D02*
X008799Y021721D01*
X008802Y021819D02*
X008506Y021819D01*
X008528Y021918D02*
X008779Y021918D01*
X008779Y022016D02*
X008528Y022016D01*
X008528Y022213D02*
X008779Y022213D01*
X008779Y022312D02*
X008528Y022312D01*
X008520Y022410D02*
X008788Y022410D01*
X003693Y028496D02*
X003627Y028494D01*
X003561Y028489D01*
X003495Y028479D01*
X003430Y028466D01*
X003366Y028450D01*
X003303Y028430D01*
X003241Y028406D01*
X003181Y028379D01*
X003122Y028349D01*
X003065Y028315D01*
X003010Y028278D01*
X002957Y028238D01*
X002906Y028196D01*
X002858Y028150D01*
X002812Y028102D01*
X002770Y028051D01*
X002730Y027998D01*
X002693Y027943D01*
X002659Y027886D01*
X002629Y027827D01*
X002602Y027767D01*
X002578Y027705D01*
X002558Y027642D01*
X002542Y027578D01*
X002529Y027513D01*
X002519Y027447D01*
X002514Y027381D01*
X002512Y027315D01*
D11*
X004520Y022128D03*
X004520Y021528D03*
X004520Y020928D03*
X005701Y020928D03*
X005701Y021528D03*
X005701Y022128D03*
X006882Y022128D03*
X006882Y021528D03*
X006882Y020928D03*
X008063Y020928D03*
X008063Y021528D03*
X008063Y022128D03*
X009244Y022128D03*
X009244Y021528D03*
X009244Y020928D03*
D12*
X009441Y023181D03*
X008441Y023181D03*
X007441Y023181D03*
X006441Y023181D03*
X005441Y023181D03*
X004441Y023181D03*
D13*
X004441Y024532D02*
X004441Y025532D01*
X005441Y025532D02*
X005441Y024532D01*
X006441Y024532D02*
X006441Y025532D01*
X007441Y025532D02*
X007441Y024532D01*
X008441Y024532D02*
X008441Y025532D01*
X009441Y025532D02*
X009441Y024532D01*
D14*
X009441Y024382D03*
X009441Y025681D03*
X008441Y025681D03*
X008441Y024382D03*
X007441Y024382D03*
X007441Y025681D03*
X006441Y025681D03*
X006441Y024382D03*
X005441Y024382D03*
X005441Y025681D03*
X004441Y025681D03*
X004441Y024382D03*
D15*
X002315Y023772D03*
X002315Y005268D03*
X011370Y005268D03*
X011370Y023772D03*
D16*
X009048Y019481D03*
X006882Y020307D03*
X004520Y020307D03*
M02*
