G75*
%MOIN*%
%OFA0B0*%
%FSLAX24Y24*%
%IPPOS*%
%LPD*%
%AMOC8*
5,1,8,0,0,1.08239X$1,22.5*
%
%ADD10C,0.0030*%
%ADD11C,0.0100*%
%ADD12C,0.0060*%
%ADD13C,0.0080*%
%ADD14C,0.0070*%
D10*
X004017Y020076D02*
X004017Y020366D01*
X004211Y020076D01*
X004211Y020366D01*
X004312Y020318D02*
X004312Y020124D01*
X004360Y020076D01*
X004457Y020076D01*
X004505Y020124D01*
X004607Y020076D02*
X004800Y020076D01*
X004703Y020076D02*
X004703Y020366D01*
X004607Y020270D01*
X004505Y020318D02*
X004457Y020366D01*
X004360Y020366D01*
X004312Y020318D01*
X003782Y020765D02*
X003734Y020716D01*
X003637Y020716D01*
X003589Y020765D01*
X003589Y020958D01*
X003637Y021006D01*
X003734Y021006D01*
X003782Y020958D01*
X003488Y020958D02*
X003439Y021006D01*
X003343Y021006D01*
X003294Y020958D01*
X003294Y020765D01*
X003343Y020716D01*
X003439Y020716D01*
X003488Y020765D01*
X003193Y020813D02*
X003193Y021006D01*
X003193Y020813D02*
X003096Y020716D01*
X003000Y020813D01*
X003000Y021006D01*
X003009Y021976D02*
X003105Y021976D01*
X003154Y022024D01*
X003154Y022121D01*
X003057Y022121D01*
X002960Y022218D02*
X002960Y022024D01*
X003009Y021976D01*
X002960Y022218D02*
X003009Y022266D01*
X003105Y022266D01*
X003154Y022218D01*
X003255Y022266D02*
X003255Y021976D01*
X003448Y021976D02*
X003255Y022266D01*
X003448Y022266D02*
X003448Y021976D01*
X003550Y021976D02*
X003550Y022266D01*
X003695Y022266D01*
X003743Y022218D01*
X003743Y022024D01*
X003695Y021976D01*
X003550Y021976D01*
X003708Y023748D02*
X003955Y023748D01*
X003832Y023748D02*
X003832Y024118D01*
X003708Y023995D01*
X003708Y025716D02*
X003955Y025716D01*
X003832Y025716D02*
X003832Y026086D01*
X003708Y025963D01*
X003984Y026189D02*
X003984Y026479D01*
X004177Y026189D01*
X004177Y026479D01*
X004279Y026430D02*
X004279Y026237D01*
X004327Y026189D01*
X004424Y026189D01*
X004472Y026237D01*
X004573Y026189D02*
X004767Y026189D01*
X004670Y026189D02*
X004670Y026479D01*
X004573Y026382D01*
X004472Y026430D02*
X004424Y026479D01*
X004327Y026479D01*
X004279Y026430D01*
X005047Y026504D02*
X005192Y026504D01*
X005240Y026552D01*
X005240Y026745D01*
X005192Y026794D01*
X005047Y026794D01*
X005047Y026504D01*
X005342Y026504D02*
X005438Y026504D01*
X005390Y026504D02*
X005390Y026794D01*
X005342Y026794D02*
X005438Y026794D01*
X005538Y026745D02*
X005538Y026552D01*
X005586Y026504D01*
X005683Y026504D01*
X005731Y026552D01*
X005731Y026649D01*
X005635Y026649D01*
X005731Y026745D02*
X005683Y026794D01*
X005586Y026794D01*
X005538Y026745D01*
X006110Y026382D02*
X006110Y026189D01*
X006110Y026334D02*
X006303Y026334D01*
X006303Y026382D02*
X006303Y026189D01*
X006405Y026189D02*
X006405Y026479D01*
X006598Y026189D01*
X006598Y026479D01*
X006699Y026382D02*
X006699Y026189D01*
X006699Y026334D02*
X006893Y026334D01*
X006893Y026382D02*
X006893Y026189D01*
X006893Y026382D02*
X006796Y026479D01*
X006699Y026382D01*
X006303Y026382D02*
X006207Y026479D01*
X006110Y026382D01*
X007094Y026600D02*
X007191Y026504D01*
X007288Y026600D01*
X007288Y026794D01*
X007389Y026745D02*
X007389Y026552D01*
X007437Y026504D01*
X007534Y026504D01*
X007582Y026552D01*
X007683Y026552D02*
X007732Y026504D01*
X007829Y026504D01*
X007877Y026552D01*
X007877Y026745D02*
X007829Y026794D01*
X007732Y026794D01*
X007683Y026745D01*
X007683Y026552D01*
X007582Y026745D02*
X007534Y026794D01*
X007437Y026794D01*
X007389Y026745D01*
X007094Y026794D02*
X007094Y026600D01*
X008078Y026430D02*
X008078Y026237D01*
X008127Y026189D01*
X008224Y026189D01*
X008272Y026237D01*
X008272Y026334D01*
X008175Y026334D01*
X008078Y026430D02*
X008127Y026479D01*
X008224Y026479D01*
X008272Y026430D01*
X008373Y026479D02*
X008373Y026189D01*
X008567Y026189D02*
X008373Y026479D01*
X008567Y026479D02*
X008567Y026189D01*
X008668Y026189D02*
X008668Y026479D01*
X008813Y026479D01*
X008861Y026430D01*
X008861Y026237D01*
X008813Y026189D01*
X008668Y026189D01*
X009063Y026504D02*
X009063Y026794D01*
X009256Y026504D01*
X009256Y026794D01*
X009357Y026745D02*
X009357Y026552D01*
X009406Y026504D01*
X009502Y026504D01*
X009551Y026552D01*
X009652Y026504D02*
X009845Y026697D01*
X009845Y026745D01*
X009797Y026794D01*
X009700Y026794D01*
X009652Y026745D01*
X009551Y026745D02*
X009502Y026794D01*
X009406Y026794D01*
X009357Y026745D01*
X009652Y026504D02*
X009845Y026504D01*
X009594Y020366D02*
X009497Y020366D01*
X009449Y020318D01*
X009348Y020366D02*
X009348Y020076D01*
X009154Y020366D01*
X009154Y020076D01*
X009053Y020076D02*
X009053Y020270D01*
X008957Y020366D01*
X008860Y020270D01*
X008860Y020076D01*
X008860Y020221D02*
X009053Y020221D01*
X009449Y020076D02*
X009643Y020270D01*
X009643Y020318D01*
X009594Y020366D01*
X009643Y020076D02*
X009449Y020076D01*
X008461Y020076D02*
X008268Y020076D01*
X008365Y020076D02*
X008365Y020366D01*
X008268Y020270D01*
X008167Y020366D02*
X008167Y020076D01*
X007973Y020366D01*
X007973Y020076D01*
X007872Y020076D02*
X007872Y020270D01*
X007775Y020366D01*
X007679Y020270D01*
X007679Y020076D01*
X007679Y020221D02*
X007872Y020221D01*
X007123Y020270D02*
X007123Y020318D01*
X007075Y020366D01*
X006978Y020366D01*
X006929Y020318D01*
X006830Y020366D02*
X006733Y020366D01*
X006781Y020366D02*
X006781Y020076D01*
X006733Y020076D02*
X006830Y020076D01*
X006929Y020076D02*
X007123Y020270D01*
X007123Y020076D02*
X006929Y020076D01*
X006632Y020124D02*
X006632Y020318D01*
X006583Y020366D01*
X006438Y020366D01*
X006438Y020076D01*
X006583Y020076D01*
X006632Y020124D01*
X005942Y020076D02*
X005748Y020076D01*
X005845Y020076D02*
X005845Y020366D01*
X005748Y020270D01*
X005649Y020366D02*
X005552Y020366D01*
X005600Y020366D02*
X005600Y020076D01*
X005552Y020076D02*
X005649Y020076D01*
X005451Y020124D02*
X005451Y020318D01*
X005402Y020366D01*
X005257Y020366D01*
X005257Y020076D01*
X005402Y020076D01*
X005451Y020124D01*
D11*
X009835Y021528D02*
X009953Y021410D01*
X009835Y021528D02*
X009953Y021646D01*
X009835Y021528D02*
X010229Y021528D01*
X010229Y020229D01*
X009953Y020229D01*
D12*
X009644Y020678D02*
X009644Y022378D01*
X009642Y022395D01*
X009638Y022412D01*
X009631Y022428D01*
X009621Y022442D01*
X009608Y022455D01*
X009594Y022465D01*
X009578Y022472D01*
X009561Y022476D01*
X009544Y022478D01*
X008944Y022478D01*
X008927Y022476D01*
X008910Y022472D01*
X008894Y022465D01*
X008880Y022455D01*
X008867Y022442D01*
X008857Y022428D01*
X008850Y022412D01*
X008846Y022395D01*
X008844Y022378D01*
X008844Y020678D01*
X008846Y020661D01*
X008850Y020644D01*
X008857Y020628D01*
X008867Y020614D01*
X008880Y020601D01*
X008894Y020591D01*
X008910Y020584D01*
X008927Y020580D01*
X008944Y020578D01*
X009544Y020578D01*
X009561Y020580D01*
X009578Y020584D01*
X009594Y020591D01*
X009608Y020601D01*
X009621Y020614D01*
X009631Y020628D01*
X009638Y020644D01*
X009642Y020661D01*
X009644Y020678D01*
X008463Y020678D02*
X008463Y022378D01*
X008461Y022395D01*
X008457Y022412D01*
X008450Y022428D01*
X008440Y022442D01*
X008427Y022455D01*
X008413Y022465D01*
X008397Y022472D01*
X008380Y022476D01*
X008363Y022478D01*
X007763Y022478D01*
X007746Y022476D01*
X007729Y022472D01*
X007713Y022465D01*
X007699Y022455D01*
X007686Y022442D01*
X007676Y022428D01*
X007669Y022412D01*
X007665Y022395D01*
X007663Y022378D01*
X007663Y020678D01*
X007665Y020661D01*
X007669Y020644D01*
X007676Y020628D01*
X007686Y020614D01*
X007699Y020601D01*
X007713Y020591D01*
X007729Y020584D01*
X007746Y020580D01*
X007763Y020578D01*
X008363Y020578D01*
X008380Y020580D01*
X008397Y020584D01*
X008413Y020591D01*
X008427Y020601D01*
X008440Y020614D01*
X008450Y020628D01*
X008457Y020644D01*
X008461Y020661D01*
X008463Y020678D01*
X007282Y020678D02*
X007282Y022378D01*
X007280Y022395D01*
X007276Y022412D01*
X007269Y022428D01*
X007259Y022442D01*
X007246Y022455D01*
X007232Y022465D01*
X007216Y022472D01*
X007199Y022476D01*
X007182Y022478D01*
X006582Y022478D01*
X006565Y022476D01*
X006548Y022472D01*
X006532Y022465D01*
X006518Y022455D01*
X006505Y022442D01*
X006495Y022428D01*
X006488Y022412D01*
X006484Y022395D01*
X006482Y022378D01*
X006482Y020678D01*
X006484Y020661D01*
X006488Y020644D01*
X006495Y020628D01*
X006505Y020614D01*
X006518Y020601D01*
X006532Y020591D01*
X006548Y020584D01*
X006565Y020580D01*
X006582Y020578D01*
X007182Y020578D01*
X007199Y020580D01*
X007216Y020584D01*
X007232Y020591D01*
X007246Y020601D01*
X007259Y020614D01*
X007269Y020628D01*
X007276Y020644D01*
X007280Y020661D01*
X007282Y020678D01*
X006101Y020678D02*
X006101Y022378D01*
X006099Y022395D01*
X006095Y022412D01*
X006088Y022428D01*
X006078Y022442D01*
X006065Y022455D01*
X006051Y022465D01*
X006035Y022472D01*
X006018Y022476D01*
X006001Y022478D01*
X005401Y022478D01*
X005384Y022476D01*
X005367Y022472D01*
X005351Y022465D01*
X005337Y022455D01*
X005324Y022442D01*
X005314Y022428D01*
X005307Y022412D01*
X005303Y022395D01*
X005301Y022378D01*
X005301Y020678D01*
X005303Y020661D01*
X005307Y020644D01*
X005314Y020628D01*
X005324Y020614D01*
X005337Y020601D01*
X005351Y020591D01*
X005367Y020584D01*
X005384Y020580D01*
X005401Y020578D01*
X006001Y020578D01*
X006018Y020580D01*
X006035Y020584D01*
X006051Y020591D01*
X006065Y020601D01*
X006078Y020614D01*
X006088Y020628D01*
X006095Y020644D01*
X006099Y020661D01*
X006101Y020678D01*
X004920Y020678D02*
X004920Y022378D01*
X004918Y022395D01*
X004914Y022412D01*
X004907Y022428D01*
X004897Y022442D01*
X004884Y022455D01*
X004870Y022465D01*
X004854Y022472D01*
X004837Y022476D01*
X004820Y022478D01*
X004220Y022478D01*
X004203Y022476D01*
X004186Y022472D01*
X004170Y022465D01*
X004156Y022455D01*
X004143Y022442D01*
X004133Y022428D01*
X004126Y022412D01*
X004122Y022395D01*
X004120Y022378D01*
X004120Y020678D01*
X004122Y020661D01*
X004126Y020644D01*
X004133Y020628D01*
X004143Y020614D01*
X004156Y020601D01*
X004170Y020591D01*
X004186Y020584D01*
X004203Y020580D01*
X004220Y020578D01*
X004820Y020578D01*
X004837Y020580D01*
X004854Y020584D01*
X004870Y020591D01*
X004884Y020601D01*
X004897Y020614D01*
X004907Y020628D01*
X004914Y020644D01*
X004918Y020661D01*
X004920Y020678D01*
D13*
X004691Y022681D02*
X004191Y022681D01*
X003941Y022931D01*
X003941Y023431D01*
X004191Y023681D01*
X004691Y023681D01*
X004941Y023431D01*
X005191Y023681D01*
X005691Y023681D01*
X005941Y023431D01*
X006191Y023681D01*
X006691Y023681D01*
X006941Y023431D01*
X007191Y023681D01*
X007691Y023681D01*
X007941Y023431D01*
X008191Y023681D01*
X008691Y023681D01*
X008941Y023431D01*
X009191Y023681D01*
X009691Y023681D01*
X009941Y023431D01*
X009941Y022931D01*
X009691Y022681D01*
X009191Y022681D01*
X008941Y022931D01*
X008691Y022681D01*
X008191Y022681D01*
X007941Y022931D01*
X007691Y022681D01*
X007191Y022681D01*
X006941Y022931D01*
X006691Y022681D01*
X006191Y022681D01*
X005941Y022931D01*
X005691Y022681D01*
X005191Y022681D01*
X004941Y022931D01*
X004691Y022681D01*
D14*
X004752Y024524D02*
X005131Y024524D01*
X005131Y025524D02*
X004752Y025524D01*
X004154Y025524D02*
X003902Y025524D01*
X003902Y024540D01*
X004154Y024540D01*
X005752Y024524D02*
X006131Y024524D01*
X006131Y025524D02*
X005752Y025524D01*
X006752Y025524D02*
X007131Y025524D01*
X007131Y024524D02*
X006752Y024524D01*
X007752Y024524D02*
X008131Y024524D01*
X008131Y025524D02*
X007752Y025524D01*
X008752Y025524D02*
X009131Y025524D01*
X009131Y024524D02*
X008752Y024524D01*
X009717Y024540D02*
X009981Y024540D01*
X009981Y025524D01*
X009717Y025524D01*
M02*
